%TF.GenerationSoftware,KiCad,Pcbnew,7.0.0-da2b9df05c~171~ubuntu22.10.1*%
%TF.CreationDate,2023-03-06T15:09:24+01:00*%
%TF.ProjectId,frakfurt_eth,6672616b-6675-4727-945f-6574682e6b69,rev?*%
%TF.SameCoordinates,Original*%
%TF.FileFunction,Legend,Top*%
%TF.FilePolarity,Positive*%
%FSLAX46Y46*%
G04 Gerber Fmt 4.6, Leading zero omitted, Abs format (unit mm)*
G04 Created by KiCad (PCBNEW 7.0.0-da2b9df05c~171~ubuntu22.10.1) date 2023-03-06 15:09:24*
%MOMM*%
%LPD*%
G01*
G04 APERTURE LIST*
%ADD10C,0.300000*%
%ADD11C,0.250000*%
%ADD12C,0.150000*%
%ADD13C,0.125000*%
%ADD14C,0.120000*%
%ADD15C,0.010000*%
%ADD16C,0.127000*%
G04 APERTURE END LIST*
D10*
X102521428Y-108523571D02*
X102521428Y-108880714D01*
X102164285Y-108737857D02*
X102521428Y-108880714D01*
X102521428Y-108880714D02*
X102878571Y-108737857D01*
X102307142Y-109166428D02*
X102521428Y-108880714D01*
X102521428Y-108880714D02*
X102735714Y-109166428D01*
X97807142Y-81787857D02*
X97307142Y-81787857D01*
X97307142Y-82573571D02*
X97307142Y-81073571D01*
X97307142Y-81073571D02*
X98021428Y-81073571D01*
X98592856Y-82573571D02*
X98592856Y-81573571D01*
X98592856Y-81859285D02*
X98664285Y-81716428D01*
X98664285Y-81716428D02*
X98735714Y-81645000D01*
X98735714Y-81645000D02*
X98878571Y-81573571D01*
X98878571Y-81573571D02*
X99021428Y-81573571D01*
X100164285Y-82573571D02*
X100164285Y-81787857D01*
X100164285Y-81787857D02*
X100092856Y-81645000D01*
X100092856Y-81645000D02*
X99949999Y-81573571D01*
X99949999Y-81573571D02*
X99664285Y-81573571D01*
X99664285Y-81573571D02*
X99521427Y-81645000D01*
X100164285Y-82502142D02*
X100021427Y-82573571D01*
X100021427Y-82573571D02*
X99664285Y-82573571D01*
X99664285Y-82573571D02*
X99521427Y-82502142D01*
X99521427Y-82502142D02*
X99449999Y-82359285D01*
X99449999Y-82359285D02*
X99449999Y-82216428D01*
X99449999Y-82216428D02*
X99521427Y-82073571D01*
X99521427Y-82073571D02*
X99664285Y-82002142D01*
X99664285Y-82002142D02*
X100021427Y-82002142D01*
X100021427Y-82002142D02*
X100164285Y-81930714D01*
X100878570Y-81573571D02*
X100878570Y-82573571D01*
X100878570Y-81716428D02*
X100949999Y-81645000D01*
X100949999Y-81645000D02*
X101092856Y-81573571D01*
X101092856Y-81573571D02*
X101307142Y-81573571D01*
X101307142Y-81573571D02*
X101449999Y-81645000D01*
X101449999Y-81645000D02*
X101521428Y-81787857D01*
X101521428Y-81787857D02*
X101521428Y-82573571D01*
X102235713Y-82573571D02*
X102235713Y-81073571D01*
X102378571Y-82002142D02*
X102807142Y-82573571D01*
X102807142Y-81573571D02*
X102235713Y-82145000D01*
X103235714Y-81573571D02*
X103807142Y-81573571D01*
X103449999Y-82573571D02*
X103449999Y-81287857D01*
X103449999Y-81287857D02*
X103521428Y-81145000D01*
X103521428Y-81145000D02*
X103664285Y-81073571D01*
X103664285Y-81073571D02*
X103807142Y-81073571D01*
X104950000Y-81573571D02*
X104950000Y-82573571D01*
X104307142Y-81573571D02*
X104307142Y-82359285D01*
X104307142Y-82359285D02*
X104378571Y-82502142D01*
X104378571Y-82502142D02*
X104521428Y-82573571D01*
X104521428Y-82573571D02*
X104735714Y-82573571D01*
X104735714Y-82573571D02*
X104878571Y-82502142D01*
X104878571Y-82502142D02*
X104950000Y-82430714D01*
X105664285Y-82573571D02*
X105664285Y-81573571D01*
X105664285Y-81859285D02*
X105735714Y-81716428D01*
X105735714Y-81716428D02*
X105807143Y-81645000D01*
X105807143Y-81645000D02*
X105950000Y-81573571D01*
X105950000Y-81573571D02*
X106092857Y-81573571D01*
X106378571Y-81573571D02*
X106949999Y-81573571D01*
X106592856Y-81073571D02*
X106592856Y-82359285D01*
X106592856Y-82359285D02*
X106664285Y-82502142D01*
X106664285Y-82502142D02*
X106807142Y-82573571D01*
X106807142Y-82573571D02*
X106949999Y-82573571D01*
X108349999Y-81787857D02*
X108849999Y-81787857D01*
X109064285Y-82573571D02*
X108349999Y-82573571D01*
X108349999Y-82573571D02*
X108349999Y-81073571D01*
X108349999Y-81073571D02*
X109064285Y-81073571D01*
X109492857Y-81573571D02*
X110064285Y-81573571D01*
X109707142Y-81073571D02*
X109707142Y-82359285D01*
X109707142Y-82359285D02*
X109778571Y-82502142D01*
X109778571Y-82502142D02*
X109921428Y-82573571D01*
X109921428Y-82573571D02*
X110064285Y-82573571D01*
X110564285Y-82573571D02*
X110564285Y-81073571D01*
X111207143Y-82573571D02*
X111207143Y-81787857D01*
X111207143Y-81787857D02*
X111135714Y-81645000D01*
X111135714Y-81645000D02*
X110992857Y-81573571D01*
X110992857Y-81573571D02*
X110778571Y-81573571D01*
X110778571Y-81573571D02*
X110635714Y-81645000D01*
X110635714Y-81645000D02*
X110564285Y-81716428D01*
X111921428Y-82430714D02*
X111992857Y-82502142D01*
X111992857Y-82502142D02*
X111921428Y-82573571D01*
X111921428Y-82573571D02*
X111850000Y-82502142D01*
X111850000Y-82502142D02*
X111921428Y-82430714D01*
X111921428Y-82430714D02*
X111921428Y-82573571D01*
X97142857Y-77823571D02*
X97642857Y-79323571D01*
X97642857Y-79323571D02*
X98142857Y-77823571D01*
X98571428Y-79252142D02*
X98785714Y-79323571D01*
X98785714Y-79323571D02*
X99142856Y-79323571D01*
X99142856Y-79323571D02*
X99285714Y-79252142D01*
X99285714Y-79252142D02*
X99357142Y-79180714D01*
X99357142Y-79180714D02*
X99428571Y-79037857D01*
X99428571Y-79037857D02*
X99428571Y-78895000D01*
X99428571Y-78895000D02*
X99357142Y-78752142D01*
X99357142Y-78752142D02*
X99285714Y-78680714D01*
X99285714Y-78680714D02*
X99142856Y-78609285D01*
X99142856Y-78609285D02*
X98857142Y-78537857D01*
X98857142Y-78537857D02*
X98714285Y-78466428D01*
X98714285Y-78466428D02*
X98642856Y-78395000D01*
X98642856Y-78395000D02*
X98571428Y-78252142D01*
X98571428Y-78252142D02*
X98571428Y-78109285D01*
X98571428Y-78109285D02*
X98642856Y-77966428D01*
X98642856Y-77966428D02*
X98714285Y-77895000D01*
X98714285Y-77895000D02*
X98857142Y-77823571D01*
X98857142Y-77823571D02*
X99214285Y-77823571D01*
X99214285Y-77823571D02*
X99428571Y-77895000D01*
X100928570Y-79180714D02*
X100857142Y-79252142D01*
X100857142Y-79252142D02*
X100642856Y-79323571D01*
X100642856Y-79323571D02*
X100499999Y-79323571D01*
X100499999Y-79323571D02*
X100285713Y-79252142D01*
X100285713Y-79252142D02*
X100142856Y-79109285D01*
X100142856Y-79109285D02*
X100071427Y-78966428D01*
X100071427Y-78966428D02*
X99999999Y-78680714D01*
X99999999Y-78680714D02*
X99999999Y-78466428D01*
X99999999Y-78466428D02*
X100071427Y-78180714D01*
X100071427Y-78180714D02*
X100142856Y-78037857D01*
X100142856Y-78037857D02*
X100285713Y-77895000D01*
X100285713Y-77895000D02*
X100499999Y-77823571D01*
X100499999Y-77823571D02*
X100642856Y-77823571D01*
X100642856Y-77823571D02*
X100857142Y-77895000D01*
X100857142Y-77895000D02*
X100928570Y-77966428D01*
X101571427Y-79323571D02*
X101571427Y-77823571D01*
X101571427Y-77823571D02*
X102142856Y-77823571D01*
X102142856Y-77823571D02*
X102285713Y-77895000D01*
X102285713Y-77895000D02*
X102357142Y-77966428D01*
X102357142Y-77966428D02*
X102428570Y-78109285D01*
X102428570Y-78109285D02*
X102428570Y-78323571D01*
X102428570Y-78323571D02*
X102357142Y-78466428D01*
X102357142Y-78466428D02*
X102285713Y-78537857D01*
X102285713Y-78537857D02*
X102142856Y-78609285D01*
X102142856Y-78609285D02*
X101571427Y-78609285D01*
X103071427Y-79180714D02*
X103142856Y-79252142D01*
X103142856Y-79252142D02*
X103071427Y-79323571D01*
X103071427Y-79323571D02*
X102999999Y-79252142D01*
X102999999Y-79252142D02*
X103071427Y-79180714D01*
X103071427Y-79180714D02*
X103071427Y-79323571D01*
X103999999Y-79323571D02*
X103857142Y-79252142D01*
X103857142Y-79252142D02*
X103785713Y-79180714D01*
X103785713Y-79180714D02*
X103714285Y-79037857D01*
X103714285Y-79037857D02*
X103714285Y-78609285D01*
X103714285Y-78609285D02*
X103785713Y-78466428D01*
X103785713Y-78466428D02*
X103857142Y-78395000D01*
X103857142Y-78395000D02*
X103999999Y-78323571D01*
X103999999Y-78323571D02*
X104214285Y-78323571D01*
X104214285Y-78323571D02*
X104357142Y-78395000D01*
X104357142Y-78395000D02*
X104428571Y-78466428D01*
X104428571Y-78466428D02*
X104499999Y-78609285D01*
X104499999Y-78609285D02*
X104499999Y-79037857D01*
X104499999Y-79037857D02*
X104428571Y-79180714D01*
X104428571Y-79180714D02*
X104357142Y-79252142D01*
X104357142Y-79252142D02*
X104214285Y-79323571D01*
X104214285Y-79323571D02*
X103999999Y-79323571D01*
X105142856Y-79323571D02*
X105142856Y-78323571D01*
X105142856Y-78609285D02*
X105214285Y-78466428D01*
X105214285Y-78466428D02*
X105285714Y-78395000D01*
X105285714Y-78395000D02*
X105428571Y-78323571D01*
X105428571Y-78323571D02*
X105571428Y-78323571D01*
X106714285Y-78323571D02*
X106714285Y-79537857D01*
X106714285Y-79537857D02*
X106642856Y-79680714D01*
X106642856Y-79680714D02*
X106571427Y-79752142D01*
X106571427Y-79752142D02*
X106428570Y-79823571D01*
X106428570Y-79823571D02*
X106214285Y-79823571D01*
X106214285Y-79823571D02*
X106071427Y-79752142D01*
X106714285Y-79252142D02*
X106571427Y-79323571D01*
X106571427Y-79323571D02*
X106285713Y-79323571D01*
X106285713Y-79323571D02*
X106142856Y-79252142D01*
X106142856Y-79252142D02*
X106071427Y-79180714D01*
X106071427Y-79180714D02*
X105999999Y-79037857D01*
X105999999Y-79037857D02*
X105999999Y-78609285D01*
X105999999Y-78609285D02*
X106071427Y-78466428D01*
X106071427Y-78466428D02*
X106142856Y-78395000D01*
X106142856Y-78395000D02*
X106285713Y-78323571D01*
X106285713Y-78323571D02*
X106571427Y-78323571D01*
X106571427Y-78323571D02*
X106714285Y-78395000D01*
D11*
X95240476Y-65684761D02*
X95383333Y-65732380D01*
X95383333Y-65732380D02*
X95621428Y-65732380D01*
X95621428Y-65732380D02*
X95716666Y-65684761D01*
X95716666Y-65684761D02*
X95764285Y-65637142D01*
X95764285Y-65637142D02*
X95811904Y-65541904D01*
X95811904Y-65541904D02*
X95811904Y-65446666D01*
X95811904Y-65446666D02*
X95764285Y-65351428D01*
X95764285Y-65351428D02*
X95716666Y-65303809D01*
X95716666Y-65303809D02*
X95621428Y-65256190D01*
X95621428Y-65256190D02*
X95430952Y-65208571D01*
X95430952Y-65208571D02*
X95335714Y-65160952D01*
X95335714Y-65160952D02*
X95288095Y-65113333D01*
X95288095Y-65113333D02*
X95240476Y-65018095D01*
X95240476Y-65018095D02*
X95240476Y-64922857D01*
X95240476Y-64922857D02*
X95288095Y-64827619D01*
X95288095Y-64827619D02*
X95335714Y-64780000D01*
X95335714Y-64780000D02*
X95430952Y-64732380D01*
X95430952Y-64732380D02*
X95669047Y-64732380D01*
X95669047Y-64732380D02*
X95811904Y-64780000D01*
X96097619Y-64732380D02*
X96669047Y-64732380D01*
X96383333Y-65732380D02*
X96383333Y-64732380D01*
X96954762Y-65446666D02*
X97430952Y-65446666D01*
X96859524Y-65732380D02*
X97192857Y-64732380D01*
X97192857Y-64732380D02*
X97526190Y-65732380D01*
X97716667Y-64732380D02*
X98288095Y-64732380D01*
X98002381Y-65732380D02*
X98002381Y-64732380D01*
X98621429Y-64732380D02*
X98621429Y-65541904D01*
X98621429Y-65541904D02*
X98669048Y-65637142D01*
X98669048Y-65637142D02*
X98716667Y-65684761D01*
X98716667Y-65684761D02*
X98811905Y-65732380D01*
X98811905Y-65732380D02*
X99002381Y-65732380D01*
X99002381Y-65732380D02*
X99097619Y-65684761D01*
X99097619Y-65684761D02*
X99145238Y-65637142D01*
X99145238Y-65637142D02*
X99192857Y-65541904D01*
X99192857Y-65541904D02*
X99192857Y-64732380D01*
X99621429Y-65684761D02*
X99764286Y-65732380D01*
X99764286Y-65732380D02*
X100002381Y-65732380D01*
X100002381Y-65732380D02*
X100097619Y-65684761D01*
X100097619Y-65684761D02*
X100145238Y-65637142D01*
X100145238Y-65637142D02*
X100192857Y-65541904D01*
X100192857Y-65541904D02*
X100192857Y-65446666D01*
X100192857Y-65446666D02*
X100145238Y-65351428D01*
X100145238Y-65351428D02*
X100097619Y-65303809D01*
X100097619Y-65303809D02*
X100002381Y-65256190D01*
X100002381Y-65256190D02*
X99811905Y-65208571D01*
X99811905Y-65208571D02*
X99716667Y-65160952D01*
X99716667Y-65160952D02*
X99669048Y-65113333D01*
X99669048Y-65113333D02*
X99621429Y-65018095D01*
X99621429Y-65018095D02*
X99621429Y-64922857D01*
X99621429Y-64922857D02*
X99669048Y-64827619D01*
X99669048Y-64827619D02*
X99716667Y-64780000D01*
X99716667Y-64780000D02*
X99811905Y-64732380D01*
X99811905Y-64732380D02*
X100050000Y-64732380D01*
X100050000Y-64732380D02*
X100192857Y-64780000D01*
X101988095Y-89732380D02*
X101988095Y-88732380D01*
X101988095Y-88732380D02*
X102369047Y-88732380D01*
X102369047Y-88732380D02*
X102464285Y-88780000D01*
X102464285Y-88780000D02*
X102511904Y-88827619D01*
X102511904Y-88827619D02*
X102559523Y-88922857D01*
X102559523Y-88922857D02*
X102559523Y-89065714D01*
X102559523Y-89065714D02*
X102511904Y-89160952D01*
X102511904Y-89160952D02*
X102464285Y-89208571D01*
X102464285Y-89208571D02*
X102369047Y-89256190D01*
X102369047Y-89256190D02*
X101988095Y-89256190D01*
X103178571Y-88732380D02*
X103369047Y-88732380D01*
X103369047Y-88732380D02*
X103464285Y-88780000D01*
X103464285Y-88780000D02*
X103559523Y-88875238D01*
X103559523Y-88875238D02*
X103607142Y-89065714D01*
X103607142Y-89065714D02*
X103607142Y-89399047D01*
X103607142Y-89399047D02*
X103559523Y-89589523D01*
X103559523Y-89589523D02*
X103464285Y-89684761D01*
X103464285Y-89684761D02*
X103369047Y-89732380D01*
X103369047Y-89732380D02*
X103178571Y-89732380D01*
X103178571Y-89732380D02*
X103083333Y-89684761D01*
X103083333Y-89684761D02*
X102988095Y-89589523D01*
X102988095Y-89589523D02*
X102940476Y-89399047D01*
X102940476Y-89399047D02*
X102940476Y-89065714D01*
X102940476Y-89065714D02*
X102988095Y-88875238D01*
X102988095Y-88875238D02*
X103083333Y-88780000D01*
X103083333Y-88780000D02*
X103178571Y-88732380D01*
X103940476Y-88732380D02*
X104178571Y-89732380D01*
X104178571Y-89732380D02*
X104369047Y-89018095D01*
X104369047Y-89018095D02*
X104559523Y-89732380D01*
X104559523Y-89732380D02*
X104797619Y-88732380D01*
X105178571Y-89208571D02*
X105511904Y-89208571D01*
X105654761Y-89732380D02*
X105178571Y-89732380D01*
X105178571Y-89732380D02*
X105178571Y-88732380D01*
X105178571Y-88732380D02*
X105654761Y-88732380D01*
X106654761Y-89732380D02*
X106321428Y-89256190D01*
X106083333Y-89732380D02*
X106083333Y-88732380D01*
X106083333Y-88732380D02*
X106464285Y-88732380D01*
X106464285Y-88732380D02*
X106559523Y-88780000D01*
X106559523Y-88780000D02*
X106607142Y-88827619D01*
X106607142Y-88827619D02*
X106654761Y-88922857D01*
X106654761Y-88922857D02*
X106654761Y-89065714D01*
X106654761Y-89065714D02*
X106607142Y-89160952D01*
X106607142Y-89160952D02*
X106559523Y-89208571D01*
X106559523Y-89208571D02*
X106464285Y-89256190D01*
X106464285Y-89256190D02*
X106083333Y-89256190D01*
D12*
X128100000Y-97117380D02*
X128100000Y-97355476D01*
X127861905Y-97260238D02*
X128100000Y-97355476D01*
X128100000Y-97355476D02*
X128338095Y-97260238D01*
X127957143Y-97545952D02*
X128100000Y-97355476D01*
X128100000Y-97355476D02*
X128242857Y-97545952D01*
X101519048Y-56736428D02*
X102280953Y-56736428D01*
X101900000Y-57117380D02*
X101900000Y-56355476D01*
D10*
X98164285Y-84973571D02*
X97664285Y-84259285D01*
X97307142Y-84973571D02*
X97307142Y-83473571D01*
X97307142Y-83473571D02*
X97878571Y-83473571D01*
X97878571Y-83473571D02*
X98021428Y-83545000D01*
X98021428Y-83545000D02*
X98092857Y-83616428D01*
X98092857Y-83616428D02*
X98164285Y-83759285D01*
X98164285Y-83759285D02*
X98164285Y-83973571D01*
X98164285Y-83973571D02*
X98092857Y-84116428D01*
X98092857Y-84116428D02*
X98021428Y-84187857D01*
X98021428Y-84187857D02*
X97878571Y-84259285D01*
X97878571Y-84259285D02*
X97307142Y-84259285D01*
X99378571Y-84902142D02*
X99235714Y-84973571D01*
X99235714Y-84973571D02*
X98950000Y-84973571D01*
X98950000Y-84973571D02*
X98807142Y-84902142D01*
X98807142Y-84902142D02*
X98735714Y-84759285D01*
X98735714Y-84759285D02*
X98735714Y-84187857D01*
X98735714Y-84187857D02*
X98807142Y-84045000D01*
X98807142Y-84045000D02*
X98950000Y-83973571D01*
X98950000Y-83973571D02*
X99235714Y-83973571D01*
X99235714Y-83973571D02*
X99378571Y-84045000D01*
X99378571Y-84045000D02*
X99450000Y-84187857D01*
X99450000Y-84187857D02*
X99450000Y-84330714D01*
X99450000Y-84330714D02*
X98735714Y-84473571D01*
X99949999Y-83973571D02*
X100307142Y-84973571D01*
X100307142Y-84973571D02*
X100664285Y-83973571D01*
X102064285Y-84545000D02*
X102778571Y-84545000D01*
X101921428Y-84973571D02*
X102421428Y-83473571D01*
X102421428Y-83473571D02*
X102921428Y-84973571D01*
D13*
%TO.C,R14*%
X131578571Y-117333690D02*
X131411905Y-117095595D01*
X131292857Y-117333690D02*
X131292857Y-116833690D01*
X131292857Y-116833690D02*
X131483333Y-116833690D01*
X131483333Y-116833690D02*
X131530952Y-116857500D01*
X131530952Y-116857500D02*
X131554762Y-116881309D01*
X131554762Y-116881309D02*
X131578571Y-116928928D01*
X131578571Y-116928928D02*
X131578571Y-117000357D01*
X131578571Y-117000357D02*
X131554762Y-117047976D01*
X131554762Y-117047976D02*
X131530952Y-117071785D01*
X131530952Y-117071785D02*
X131483333Y-117095595D01*
X131483333Y-117095595D02*
X131292857Y-117095595D01*
X132054762Y-117333690D02*
X131769048Y-117333690D01*
X131911905Y-117333690D02*
X131911905Y-116833690D01*
X131911905Y-116833690D02*
X131864286Y-116905119D01*
X131864286Y-116905119D02*
X131816667Y-116952738D01*
X131816667Y-116952738D02*
X131769048Y-116976547D01*
X132483333Y-117000357D02*
X132483333Y-117333690D01*
X132364285Y-116809880D02*
X132245238Y-117167023D01*
X132245238Y-117167023D02*
X132554761Y-117167023D01*
%TO.C,D4*%
X100280952Y-87333690D02*
X100280952Y-86833690D01*
X100280952Y-86833690D02*
X100400000Y-86833690D01*
X100400000Y-86833690D02*
X100471428Y-86857500D01*
X100471428Y-86857500D02*
X100519047Y-86905119D01*
X100519047Y-86905119D02*
X100542857Y-86952738D01*
X100542857Y-86952738D02*
X100566666Y-87047976D01*
X100566666Y-87047976D02*
X100566666Y-87119404D01*
X100566666Y-87119404D02*
X100542857Y-87214642D01*
X100542857Y-87214642D02*
X100519047Y-87262261D01*
X100519047Y-87262261D02*
X100471428Y-87309880D01*
X100471428Y-87309880D02*
X100400000Y-87333690D01*
X100400000Y-87333690D02*
X100280952Y-87333690D01*
X100995238Y-87000357D02*
X100995238Y-87333690D01*
X100876190Y-86809880D02*
X100757143Y-87167023D01*
X100757143Y-87167023D02*
X101066666Y-87167023D01*
%TO.C,L1*%
X132716666Y-93983690D02*
X132478571Y-93983690D01*
X132478571Y-93983690D02*
X132478571Y-93483690D01*
X133145238Y-93983690D02*
X132859524Y-93983690D01*
X133002381Y-93983690D02*
X133002381Y-93483690D01*
X133002381Y-93483690D02*
X132954762Y-93555119D01*
X132954762Y-93555119D02*
X132907143Y-93602738D01*
X132907143Y-93602738D02*
X132859524Y-93626547D01*
%TO.C,R11*%
X132728571Y-98633690D02*
X132561905Y-98395595D01*
X132442857Y-98633690D02*
X132442857Y-98133690D01*
X132442857Y-98133690D02*
X132633333Y-98133690D01*
X132633333Y-98133690D02*
X132680952Y-98157500D01*
X132680952Y-98157500D02*
X132704762Y-98181309D01*
X132704762Y-98181309D02*
X132728571Y-98228928D01*
X132728571Y-98228928D02*
X132728571Y-98300357D01*
X132728571Y-98300357D02*
X132704762Y-98347976D01*
X132704762Y-98347976D02*
X132680952Y-98371785D01*
X132680952Y-98371785D02*
X132633333Y-98395595D01*
X132633333Y-98395595D02*
X132442857Y-98395595D01*
X133204762Y-98633690D02*
X132919048Y-98633690D01*
X133061905Y-98633690D02*
X133061905Y-98133690D01*
X133061905Y-98133690D02*
X133014286Y-98205119D01*
X133014286Y-98205119D02*
X132966667Y-98252738D01*
X132966667Y-98252738D02*
X132919048Y-98276547D01*
X133680952Y-98633690D02*
X133395238Y-98633690D01*
X133538095Y-98633690D02*
X133538095Y-98133690D01*
X133538095Y-98133690D02*
X133490476Y-98205119D01*
X133490476Y-98205119D02*
X133442857Y-98252738D01*
X133442857Y-98252738D02*
X133395238Y-98276547D01*
%TO.C,R9*%
X102616666Y-65683690D02*
X102450000Y-65445595D01*
X102330952Y-65683690D02*
X102330952Y-65183690D01*
X102330952Y-65183690D02*
X102521428Y-65183690D01*
X102521428Y-65183690D02*
X102569047Y-65207500D01*
X102569047Y-65207500D02*
X102592857Y-65231309D01*
X102592857Y-65231309D02*
X102616666Y-65278928D01*
X102616666Y-65278928D02*
X102616666Y-65350357D01*
X102616666Y-65350357D02*
X102592857Y-65397976D01*
X102592857Y-65397976D02*
X102569047Y-65421785D01*
X102569047Y-65421785D02*
X102521428Y-65445595D01*
X102521428Y-65445595D02*
X102330952Y-65445595D01*
X102854762Y-65683690D02*
X102950000Y-65683690D01*
X102950000Y-65683690D02*
X102997619Y-65659880D01*
X102997619Y-65659880D02*
X103021428Y-65636071D01*
X103021428Y-65636071D02*
X103069047Y-65564642D01*
X103069047Y-65564642D02*
X103092857Y-65469404D01*
X103092857Y-65469404D02*
X103092857Y-65278928D01*
X103092857Y-65278928D02*
X103069047Y-65231309D01*
X103069047Y-65231309D02*
X103045238Y-65207500D01*
X103045238Y-65207500D02*
X102997619Y-65183690D01*
X102997619Y-65183690D02*
X102902381Y-65183690D01*
X102902381Y-65183690D02*
X102854762Y-65207500D01*
X102854762Y-65207500D02*
X102830952Y-65231309D01*
X102830952Y-65231309D02*
X102807143Y-65278928D01*
X102807143Y-65278928D02*
X102807143Y-65397976D01*
X102807143Y-65397976D02*
X102830952Y-65445595D01*
X102830952Y-65445595D02*
X102854762Y-65469404D01*
X102854762Y-65469404D02*
X102902381Y-65493214D01*
X102902381Y-65493214D02*
X102997619Y-65493214D01*
X102997619Y-65493214D02*
X103045238Y-65469404D01*
X103045238Y-65469404D02*
X103069047Y-65445595D01*
X103069047Y-65445595D02*
X103092857Y-65397976D01*
%TO.C,U3*%
X125019047Y-97633690D02*
X125019047Y-98038452D01*
X125019047Y-98038452D02*
X125042857Y-98086071D01*
X125042857Y-98086071D02*
X125066666Y-98109880D01*
X125066666Y-98109880D02*
X125114285Y-98133690D01*
X125114285Y-98133690D02*
X125209523Y-98133690D01*
X125209523Y-98133690D02*
X125257142Y-98109880D01*
X125257142Y-98109880D02*
X125280952Y-98086071D01*
X125280952Y-98086071D02*
X125304761Y-98038452D01*
X125304761Y-98038452D02*
X125304761Y-97633690D01*
X125495238Y-97633690D02*
X125804762Y-97633690D01*
X125804762Y-97633690D02*
X125638095Y-97824166D01*
X125638095Y-97824166D02*
X125709524Y-97824166D01*
X125709524Y-97824166D02*
X125757143Y-97847976D01*
X125757143Y-97847976D02*
X125780952Y-97871785D01*
X125780952Y-97871785D02*
X125804762Y-97919404D01*
X125804762Y-97919404D02*
X125804762Y-98038452D01*
X125804762Y-98038452D02*
X125780952Y-98086071D01*
X125780952Y-98086071D02*
X125757143Y-98109880D01*
X125757143Y-98109880D02*
X125709524Y-98133690D01*
X125709524Y-98133690D02*
X125566667Y-98133690D01*
X125566667Y-98133690D02*
X125519048Y-98109880D01*
X125519048Y-98109880D02*
X125495238Y-98086071D01*
%TO.C,C4*%
X100986071Y-53483333D02*
X101009880Y-53507142D01*
X101009880Y-53507142D02*
X101033690Y-53578571D01*
X101033690Y-53578571D02*
X101033690Y-53626190D01*
X101033690Y-53626190D02*
X101009880Y-53697618D01*
X101009880Y-53697618D02*
X100962261Y-53745237D01*
X100962261Y-53745237D02*
X100914642Y-53769047D01*
X100914642Y-53769047D02*
X100819404Y-53792856D01*
X100819404Y-53792856D02*
X100747976Y-53792856D01*
X100747976Y-53792856D02*
X100652738Y-53769047D01*
X100652738Y-53769047D02*
X100605119Y-53745237D01*
X100605119Y-53745237D02*
X100557500Y-53697618D01*
X100557500Y-53697618D02*
X100533690Y-53626190D01*
X100533690Y-53626190D02*
X100533690Y-53578571D01*
X100533690Y-53578571D02*
X100557500Y-53507142D01*
X100557500Y-53507142D02*
X100581309Y-53483333D01*
X100700357Y-53054761D02*
X101033690Y-53054761D01*
X100509880Y-53173809D02*
X100867023Y-53292856D01*
X100867023Y-53292856D02*
X100867023Y-52983333D01*
%TO.C,C13*%
X95028571Y-93736071D02*
X95004762Y-93759880D01*
X95004762Y-93759880D02*
X94933333Y-93783690D01*
X94933333Y-93783690D02*
X94885714Y-93783690D01*
X94885714Y-93783690D02*
X94814286Y-93759880D01*
X94814286Y-93759880D02*
X94766667Y-93712261D01*
X94766667Y-93712261D02*
X94742857Y-93664642D01*
X94742857Y-93664642D02*
X94719048Y-93569404D01*
X94719048Y-93569404D02*
X94719048Y-93497976D01*
X94719048Y-93497976D02*
X94742857Y-93402738D01*
X94742857Y-93402738D02*
X94766667Y-93355119D01*
X94766667Y-93355119D02*
X94814286Y-93307500D01*
X94814286Y-93307500D02*
X94885714Y-93283690D01*
X94885714Y-93283690D02*
X94933333Y-93283690D01*
X94933333Y-93283690D02*
X95004762Y-93307500D01*
X95004762Y-93307500D02*
X95028571Y-93331309D01*
X95504762Y-93783690D02*
X95219048Y-93783690D01*
X95361905Y-93783690D02*
X95361905Y-93283690D01*
X95361905Y-93283690D02*
X95314286Y-93355119D01*
X95314286Y-93355119D02*
X95266667Y-93402738D01*
X95266667Y-93402738D02*
X95219048Y-93426547D01*
X95671428Y-93283690D02*
X95980952Y-93283690D01*
X95980952Y-93283690D02*
X95814285Y-93474166D01*
X95814285Y-93474166D02*
X95885714Y-93474166D01*
X95885714Y-93474166D02*
X95933333Y-93497976D01*
X95933333Y-93497976D02*
X95957142Y-93521785D01*
X95957142Y-93521785D02*
X95980952Y-93569404D01*
X95980952Y-93569404D02*
X95980952Y-93688452D01*
X95980952Y-93688452D02*
X95957142Y-93736071D01*
X95957142Y-93736071D02*
X95933333Y-93759880D01*
X95933333Y-93759880D02*
X95885714Y-93783690D01*
X95885714Y-93783690D02*
X95742857Y-93783690D01*
X95742857Y-93783690D02*
X95695238Y-93759880D01*
X95695238Y-93759880D02*
X95671428Y-93736071D01*
%TO.C,U4*%
X109319047Y-114783690D02*
X109319047Y-115188452D01*
X109319047Y-115188452D02*
X109342857Y-115236071D01*
X109342857Y-115236071D02*
X109366666Y-115259880D01*
X109366666Y-115259880D02*
X109414285Y-115283690D01*
X109414285Y-115283690D02*
X109509523Y-115283690D01*
X109509523Y-115283690D02*
X109557142Y-115259880D01*
X109557142Y-115259880D02*
X109580952Y-115236071D01*
X109580952Y-115236071D02*
X109604761Y-115188452D01*
X109604761Y-115188452D02*
X109604761Y-114783690D01*
X110057143Y-114950357D02*
X110057143Y-115283690D01*
X109938095Y-114759880D02*
X109819048Y-115117023D01*
X109819048Y-115117023D02*
X110128571Y-115117023D01*
D12*
%TO.C,U2*%
X119038095Y-71517380D02*
X119038095Y-72326904D01*
X119038095Y-72326904D02*
X119085714Y-72422142D01*
X119085714Y-72422142D02*
X119133333Y-72469761D01*
X119133333Y-72469761D02*
X119228571Y-72517380D01*
X119228571Y-72517380D02*
X119419047Y-72517380D01*
X119419047Y-72517380D02*
X119514285Y-72469761D01*
X119514285Y-72469761D02*
X119561904Y-72422142D01*
X119561904Y-72422142D02*
X119609523Y-72326904D01*
X119609523Y-72326904D02*
X119609523Y-71517380D01*
X120038095Y-71612619D02*
X120085714Y-71565000D01*
X120085714Y-71565000D02*
X120180952Y-71517380D01*
X120180952Y-71517380D02*
X120419047Y-71517380D01*
X120419047Y-71517380D02*
X120514285Y-71565000D01*
X120514285Y-71565000D02*
X120561904Y-71612619D01*
X120561904Y-71612619D02*
X120609523Y-71707857D01*
X120609523Y-71707857D02*
X120609523Y-71803095D01*
X120609523Y-71803095D02*
X120561904Y-71945952D01*
X120561904Y-71945952D02*
X119990476Y-72517380D01*
X119990476Y-72517380D02*
X120609523Y-72517380D01*
D13*
%TO.C,C8*%
X132716666Y-97186071D02*
X132692857Y-97209880D01*
X132692857Y-97209880D02*
X132621428Y-97233690D01*
X132621428Y-97233690D02*
X132573809Y-97233690D01*
X132573809Y-97233690D02*
X132502381Y-97209880D01*
X132502381Y-97209880D02*
X132454762Y-97162261D01*
X132454762Y-97162261D02*
X132430952Y-97114642D01*
X132430952Y-97114642D02*
X132407143Y-97019404D01*
X132407143Y-97019404D02*
X132407143Y-96947976D01*
X132407143Y-96947976D02*
X132430952Y-96852738D01*
X132430952Y-96852738D02*
X132454762Y-96805119D01*
X132454762Y-96805119D02*
X132502381Y-96757500D01*
X132502381Y-96757500D02*
X132573809Y-96733690D01*
X132573809Y-96733690D02*
X132621428Y-96733690D01*
X132621428Y-96733690D02*
X132692857Y-96757500D01*
X132692857Y-96757500D02*
X132716666Y-96781309D01*
X133002381Y-96947976D02*
X132954762Y-96924166D01*
X132954762Y-96924166D02*
X132930952Y-96900357D01*
X132930952Y-96900357D02*
X132907143Y-96852738D01*
X132907143Y-96852738D02*
X132907143Y-96828928D01*
X132907143Y-96828928D02*
X132930952Y-96781309D01*
X132930952Y-96781309D02*
X132954762Y-96757500D01*
X132954762Y-96757500D02*
X133002381Y-96733690D01*
X133002381Y-96733690D02*
X133097619Y-96733690D01*
X133097619Y-96733690D02*
X133145238Y-96757500D01*
X133145238Y-96757500D02*
X133169047Y-96781309D01*
X133169047Y-96781309D02*
X133192857Y-96828928D01*
X133192857Y-96828928D02*
X133192857Y-96852738D01*
X133192857Y-96852738D02*
X133169047Y-96900357D01*
X133169047Y-96900357D02*
X133145238Y-96924166D01*
X133145238Y-96924166D02*
X133097619Y-96947976D01*
X133097619Y-96947976D02*
X133002381Y-96947976D01*
X133002381Y-96947976D02*
X132954762Y-96971785D01*
X132954762Y-96971785D02*
X132930952Y-96995595D01*
X132930952Y-96995595D02*
X132907143Y-97043214D01*
X132907143Y-97043214D02*
X132907143Y-97138452D01*
X132907143Y-97138452D02*
X132930952Y-97186071D01*
X132930952Y-97186071D02*
X132954762Y-97209880D01*
X132954762Y-97209880D02*
X133002381Y-97233690D01*
X133002381Y-97233690D02*
X133097619Y-97233690D01*
X133097619Y-97233690D02*
X133145238Y-97209880D01*
X133145238Y-97209880D02*
X133169047Y-97186071D01*
X133169047Y-97186071D02*
X133192857Y-97138452D01*
X133192857Y-97138452D02*
X133192857Y-97043214D01*
X133192857Y-97043214D02*
X133169047Y-96995595D01*
X133169047Y-96995595D02*
X133145238Y-96971785D01*
X133145238Y-96971785D02*
X133097619Y-96947976D01*
%TO.C,C7*%
X128316666Y-86336071D02*
X128292857Y-86359880D01*
X128292857Y-86359880D02*
X128221428Y-86383690D01*
X128221428Y-86383690D02*
X128173809Y-86383690D01*
X128173809Y-86383690D02*
X128102381Y-86359880D01*
X128102381Y-86359880D02*
X128054762Y-86312261D01*
X128054762Y-86312261D02*
X128030952Y-86264642D01*
X128030952Y-86264642D02*
X128007143Y-86169404D01*
X128007143Y-86169404D02*
X128007143Y-86097976D01*
X128007143Y-86097976D02*
X128030952Y-86002738D01*
X128030952Y-86002738D02*
X128054762Y-85955119D01*
X128054762Y-85955119D02*
X128102381Y-85907500D01*
X128102381Y-85907500D02*
X128173809Y-85883690D01*
X128173809Y-85883690D02*
X128221428Y-85883690D01*
X128221428Y-85883690D02*
X128292857Y-85907500D01*
X128292857Y-85907500D02*
X128316666Y-85931309D01*
X128483333Y-85883690D02*
X128816666Y-85883690D01*
X128816666Y-85883690D02*
X128602381Y-86383690D01*
%TO.C,R15*%
X108228571Y-104283690D02*
X108061905Y-104045595D01*
X107942857Y-104283690D02*
X107942857Y-103783690D01*
X107942857Y-103783690D02*
X108133333Y-103783690D01*
X108133333Y-103783690D02*
X108180952Y-103807500D01*
X108180952Y-103807500D02*
X108204762Y-103831309D01*
X108204762Y-103831309D02*
X108228571Y-103878928D01*
X108228571Y-103878928D02*
X108228571Y-103950357D01*
X108228571Y-103950357D02*
X108204762Y-103997976D01*
X108204762Y-103997976D02*
X108180952Y-104021785D01*
X108180952Y-104021785D02*
X108133333Y-104045595D01*
X108133333Y-104045595D02*
X107942857Y-104045595D01*
X108704762Y-104283690D02*
X108419048Y-104283690D01*
X108561905Y-104283690D02*
X108561905Y-103783690D01*
X108561905Y-103783690D02*
X108514286Y-103855119D01*
X108514286Y-103855119D02*
X108466667Y-103902738D01*
X108466667Y-103902738D02*
X108419048Y-103926547D01*
X109157142Y-103783690D02*
X108919047Y-103783690D01*
X108919047Y-103783690D02*
X108895238Y-104021785D01*
X108895238Y-104021785D02*
X108919047Y-103997976D01*
X108919047Y-103997976D02*
X108966666Y-103974166D01*
X108966666Y-103974166D02*
X109085714Y-103974166D01*
X109085714Y-103974166D02*
X109133333Y-103997976D01*
X109133333Y-103997976D02*
X109157142Y-104021785D01*
X109157142Y-104021785D02*
X109180952Y-104069404D01*
X109180952Y-104069404D02*
X109180952Y-104188452D01*
X109180952Y-104188452D02*
X109157142Y-104236071D01*
X109157142Y-104236071D02*
X109133333Y-104259880D01*
X109133333Y-104259880D02*
X109085714Y-104283690D01*
X109085714Y-104283690D02*
X108966666Y-104283690D01*
X108966666Y-104283690D02*
X108919047Y-104259880D01*
X108919047Y-104259880D02*
X108895238Y-104236071D01*
%TO.C,R6*%
X104266666Y-58283690D02*
X104100000Y-58045595D01*
X103980952Y-58283690D02*
X103980952Y-57783690D01*
X103980952Y-57783690D02*
X104171428Y-57783690D01*
X104171428Y-57783690D02*
X104219047Y-57807500D01*
X104219047Y-57807500D02*
X104242857Y-57831309D01*
X104242857Y-57831309D02*
X104266666Y-57878928D01*
X104266666Y-57878928D02*
X104266666Y-57950357D01*
X104266666Y-57950357D02*
X104242857Y-57997976D01*
X104242857Y-57997976D02*
X104219047Y-58021785D01*
X104219047Y-58021785D02*
X104171428Y-58045595D01*
X104171428Y-58045595D02*
X103980952Y-58045595D01*
X104695238Y-57783690D02*
X104600000Y-57783690D01*
X104600000Y-57783690D02*
X104552381Y-57807500D01*
X104552381Y-57807500D02*
X104528571Y-57831309D01*
X104528571Y-57831309D02*
X104480952Y-57902738D01*
X104480952Y-57902738D02*
X104457143Y-57997976D01*
X104457143Y-57997976D02*
X104457143Y-58188452D01*
X104457143Y-58188452D02*
X104480952Y-58236071D01*
X104480952Y-58236071D02*
X104504762Y-58259880D01*
X104504762Y-58259880D02*
X104552381Y-58283690D01*
X104552381Y-58283690D02*
X104647619Y-58283690D01*
X104647619Y-58283690D02*
X104695238Y-58259880D01*
X104695238Y-58259880D02*
X104719047Y-58236071D01*
X104719047Y-58236071D02*
X104742857Y-58188452D01*
X104742857Y-58188452D02*
X104742857Y-58069404D01*
X104742857Y-58069404D02*
X104719047Y-58021785D01*
X104719047Y-58021785D02*
X104695238Y-57997976D01*
X104695238Y-57997976D02*
X104647619Y-57974166D01*
X104647619Y-57974166D02*
X104552381Y-57974166D01*
X104552381Y-57974166D02*
X104504762Y-57997976D01*
X104504762Y-57997976D02*
X104480952Y-58021785D01*
X104480952Y-58021785D02*
X104457143Y-58069404D01*
%TO.C,D2*%
X106133690Y-106969047D02*
X105633690Y-106969047D01*
X105633690Y-106969047D02*
X105633690Y-106849999D01*
X105633690Y-106849999D02*
X105657500Y-106778571D01*
X105657500Y-106778571D02*
X105705119Y-106730952D01*
X105705119Y-106730952D02*
X105752738Y-106707142D01*
X105752738Y-106707142D02*
X105847976Y-106683333D01*
X105847976Y-106683333D02*
X105919404Y-106683333D01*
X105919404Y-106683333D02*
X106014642Y-106707142D01*
X106014642Y-106707142D02*
X106062261Y-106730952D01*
X106062261Y-106730952D02*
X106109880Y-106778571D01*
X106109880Y-106778571D02*
X106133690Y-106849999D01*
X106133690Y-106849999D02*
X106133690Y-106969047D01*
X105681309Y-106492856D02*
X105657500Y-106469047D01*
X105657500Y-106469047D02*
X105633690Y-106421428D01*
X105633690Y-106421428D02*
X105633690Y-106302380D01*
X105633690Y-106302380D02*
X105657500Y-106254761D01*
X105657500Y-106254761D02*
X105681309Y-106230952D01*
X105681309Y-106230952D02*
X105728928Y-106207142D01*
X105728928Y-106207142D02*
X105776547Y-106207142D01*
X105776547Y-106207142D02*
X105847976Y-106230952D01*
X105847976Y-106230952D02*
X106133690Y-106516666D01*
X106133690Y-106516666D02*
X106133690Y-106207142D01*
D12*
%TO.C,J4*%
X95517380Y-119383333D02*
X96231666Y-119383333D01*
X96231666Y-119383333D02*
X96374523Y-119430952D01*
X96374523Y-119430952D02*
X96469761Y-119526190D01*
X96469761Y-119526190D02*
X96517380Y-119669047D01*
X96517380Y-119669047D02*
X96517380Y-119764285D01*
X95850714Y-118478571D02*
X96517380Y-118478571D01*
X95469761Y-118716666D02*
X96184047Y-118954761D01*
X96184047Y-118954761D02*
X96184047Y-118335714D01*
D13*
%TO.C,R3*%
X124116666Y-102033690D02*
X123950000Y-101795595D01*
X123830952Y-102033690D02*
X123830952Y-101533690D01*
X123830952Y-101533690D02*
X124021428Y-101533690D01*
X124021428Y-101533690D02*
X124069047Y-101557500D01*
X124069047Y-101557500D02*
X124092857Y-101581309D01*
X124092857Y-101581309D02*
X124116666Y-101628928D01*
X124116666Y-101628928D02*
X124116666Y-101700357D01*
X124116666Y-101700357D02*
X124092857Y-101747976D01*
X124092857Y-101747976D02*
X124069047Y-101771785D01*
X124069047Y-101771785D02*
X124021428Y-101795595D01*
X124021428Y-101795595D02*
X123830952Y-101795595D01*
X124283333Y-101533690D02*
X124592857Y-101533690D01*
X124592857Y-101533690D02*
X124426190Y-101724166D01*
X124426190Y-101724166D02*
X124497619Y-101724166D01*
X124497619Y-101724166D02*
X124545238Y-101747976D01*
X124545238Y-101747976D02*
X124569047Y-101771785D01*
X124569047Y-101771785D02*
X124592857Y-101819404D01*
X124592857Y-101819404D02*
X124592857Y-101938452D01*
X124592857Y-101938452D02*
X124569047Y-101986071D01*
X124569047Y-101986071D02*
X124545238Y-102009880D01*
X124545238Y-102009880D02*
X124497619Y-102033690D01*
X124497619Y-102033690D02*
X124354762Y-102033690D01*
X124354762Y-102033690D02*
X124307143Y-102009880D01*
X124307143Y-102009880D02*
X124283333Y-101986071D01*
%TO.C,R5*%
X110316666Y-117233690D02*
X110150000Y-116995595D01*
X110030952Y-117233690D02*
X110030952Y-116733690D01*
X110030952Y-116733690D02*
X110221428Y-116733690D01*
X110221428Y-116733690D02*
X110269047Y-116757500D01*
X110269047Y-116757500D02*
X110292857Y-116781309D01*
X110292857Y-116781309D02*
X110316666Y-116828928D01*
X110316666Y-116828928D02*
X110316666Y-116900357D01*
X110316666Y-116900357D02*
X110292857Y-116947976D01*
X110292857Y-116947976D02*
X110269047Y-116971785D01*
X110269047Y-116971785D02*
X110221428Y-116995595D01*
X110221428Y-116995595D02*
X110030952Y-116995595D01*
X110769047Y-116733690D02*
X110530952Y-116733690D01*
X110530952Y-116733690D02*
X110507143Y-116971785D01*
X110507143Y-116971785D02*
X110530952Y-116947976D01*
X110530952Y-116947976D02*
X110578571Y-116924166D01*
X110578571Y-116924166D02*
X110697619Y-116924166D01*
X110697619Y-116924166D02*
X110745238Y-116947976D01*
X110745238Y-116947976D02*
X110769047Y-116971785D01*
X110769047Y-116971785D02*
X110792857Y-117019404D01*
X110792857Y-117019404D02*
X110792857Y-117138452D01*
X110792857Y-117138452D02*
X110769047Y-117186071D01*
X110769047Y-117186071D02*
X110745238Y-117209880D01*
X110745238Y-117209880D02*
X110697619Y-117233690D01*
X110697619Y-117233690D02*
X110578571Y-117233690D01*
X110578571Y-117233690D02*
X110530952Y-117209880D01*
X110530952Y-117209880D02*
X110507143Y-117186071D01*
%TO.C,J2*%
X131733333Y-50853690D02*
X131733333Y-51210833D01*
X131733333Y-51210833D02*
X131709524Y-51282261D01*
X131709524Y-51282261D02*
X131661905Y-51329880D01*
X131661905Y-51329880D02*
X131590476Y-51353690D01*
X131590476Y-51353690D02*
X131542857Y-51353690D01*
X131947619Y-50901309D02*
X131971428Y-50877500D01*
X131971428Y-50877500D02*
X132019047Y-50853690D01*
X132019047Y-50853690D02*
X132138095Y-50853690D01*
X132138095Y-50853690D02*
X132185714Y-50877500D01*
X132185714Y-50877500D02*
X132209523Y-50901309D01*
X132209523Y-50901309D02*
X132233333Y-50948928D01*
X132233333Y-50948928D02*
X132233333Y-50996547D01*
X132233333Y-50996547D02*
X132209523Y-51067976D01*
X132209523Y-51067976D02*
X131923809Y-51353690D01*
X131923809Y-51353690D02*
X132233333Y-51353690D01*
%TO.C,D1*%
X95830952Y-57583690D02*
X95830952Y-57083690D01*
X95830952Y-57083690D02*
X95950000Y-57083690D01*
X95950000Y-57083690D02*
X96021428Y-57107500D01*
X96021428Y-57107500D02*
X96069047Y-57155119D01*
X96069047Y-57155119D02*
X96092857Y-57202738D01*
X96092857Y-57202738D02*
X96116666Y-57297976D01*
X96116666Y-57297976D02*
X96116666Y-57369404D01*
X96116666Y-57369404D02*
X96092857Y-57464642D01*
X96092857Y-57464642D02*
X96069047Y-57512261D01*
X96069047Y-57512261D02*
X96021428Y-57559880D01*
X96021428Y-57559880D02*
X95950000Y-57583690D01*
X95950000Y-57583690D02*
X95830952Y-57583690D01*
X96592857Y-57583690D02*
X96307143Y-57583690D01*
X96450000Y-57583690D02*
X96450000Y-57083690D01*
X96450000Y-57083690D02*
X96402381Y-57155119D01*
X96402381Y-57155119D02*
X96354762Y-57202738D01*
X96354762Y-57202738D02*
X96307143Y-57226547D01*
%TO.C,U5*%
X103769047Y-94133690D02*
X103769047Y-94538452D01*
X103769047Y-94538452D02*
X103792857Y-94586071D01*
X103792857Y-94586071D02*
X103816666Y-94609880D01*
X103816666Y-94609880D02*
X103864285Y-94633690D01*
X103864285Y-94633690D02*
X103959523Y-94633690D01*
X103959523Y-94633690D02*
X104007142Y-94609880D01*
X104007142Y-94609880D02*
X104030952Y-94586071D01*
X104030952Y-94586071D02*
X104054761Y-94538452D01*
X104054761Y-94538452D02*
X104054761Y-94133690D01*
X104530952Y-94133690D02*
X104292857Y-94133690D01*
X104292857Y-94133690D02*
X104269048Y-94371785D01*
X104269048Y-94371785D02*
X104292857Y-94347976D01*
X104292857Y-94347976D02*
X104340476Y-94324166D01*
X104340476Y-94324166D02*
X104459524Y-94324166D01*
X104459524Y-94324166D02*
X104507143Y-94347976D01*
X104507143Y-94347976D02*
X104530952Y-94371785D01*
X104530952Y-94371785D02*
X104554762Y-94419404D01*
X104554762Y-94419404D02*
X104554762Y-94538452D01*
X104554762Y-94538452D02*
X104530952Y-94586071D01*
X104530952Y-94586071D02*
X104507143Y-94609880D01*
X104507143Y-94609880D02*
X104459524Y-94633690D01*
X104459524Y-94633690D02*
X104340476Y-94633690D01*
X104340476Y-94633690D02*
X104292857Y-94609880D01*
X104292857Y-94609880D02*
X104269048Y-94586071D01*
%TO.C,R8*%
X102566666Y-64083690D02*
X102400000Y-63845595D01*
X102280952Y-64083690D02*
X102280952Y-63583690D01*
X102280952Y-63583690D02*
X102471428Y-63583690D01*
X102471428Y-63583690D02*
X102519047Y-63607500D01*
X102519047Y-63607500D02*
X102542857Y-63631309D01*
X102542857Y-63631309D02*
X102566666Y-63678928D01*
X102566666Y-63678928D02*
X102566666Y-63750357D01*
X102566666Y-63750357D02*
X102542857Y-63797976D01*
X102542857Y-63797976D02*
X102519047Y-63821785D01*
X102519047Y-63821785D02*
X102471428Y-63845595D01*
X102471428Y-63845595D02*
X102280952Y-63845595D01*
X102852381Y-63797976D02*
X102804762Y-63774166D01*
X102804762Y-63774166D02*
X102780952Y-63750357D01*
X102780952Y-63750357D02*
X102757143Y-63702738D01*
X102757143Y-63702738D02*
X102757143Y-63678928D01*
X102757143Y-63678928D02*
X102780952Y-63631309D01*
X102780952Y-63631309D02*
X102804762Y-63607500D01*
X102804762Y-63607500D02*
X102852381Y-63583690D01*
X102852381Y-63583690D02*
X102947619Y-63583690D01*
X102947619Y-63583690D02*
X102995238Y-63607500D01*
X102995238Y-63607500D02*
X103019047Y-63631309D01*
X103019047Y-63631309D02*
X103042857Y-63678928D01*
X103042857Y-63678928D02*
X103042857Y-63702738D01*
X103042857Y-63702738D02*
X103019047Y-63750357D01*
X103019047Y-63750357D02*
X102995238Y-63774166D01*
X102995238Y-63774166D02*
X102947619Y-63797976D01*
X102947619Y-63797976D02*
X102852381Y-63797976D01*
X102852381Y-63797976D02*
X102804762Y-63821785D01*
X102804762Y-63821785D02*
X102780952Y-63845595D01*
X102780952Y-63845595D02*
X102757143Y-63893214D01*
X102757143Y-63893214D02*
X102757143Y-63988452D01*
X102757143Y-63988452D02*
X102780952Y-64036071D01*
X102780952Y-64036071D02*
X102804762Y-64059880D01*
X102804762Y-64059880D02*
X102852381Y-64083690D01*
X102852381Y-64083690D02*
X102947619Y-64083690D01*
X102947619Y-64083690D02*
X102995238Y-64059880D01*
X102995238Y-64059880D02*
X103019047Y-64036071D01*
X103019047Y-64036071D02*
X103042857Y-63988452D01*
X103042857Y-63988452D02*
X103042857Y-63893214D01*
X103042857Y-63893214D02*
X103019047Y-63845595D01*
X103019047Y-63845595D02*
X102995238Y-63821785D01*
X102995238Y-63821785D02*
X102947619Y-63797976D01*
%TO.C,D3*%
X96483690Y-110919047D02*
X95983690Y-110919047D01*
X95983690Y-110919047D02*
X95983690Y-110799999D01*
X95983690Y-110799999D02*
X96007500Y-110728571D01*
X96007500Y-110728571D02*
X96055119Y-110680952D01*
X96055119Y-110680952D02*
X96102738Y-110657142D01*
X96102738Y-110657142D02*
X96197976Y-110633333D01*
X96197976Y-110633333D02*
X96269404Y-110633333D01*
X96269404Y-110633333D02*
X96364642Y-110657142D01*
X96364642Y-110657142D02*
X96412261Y-110680952D01*
X96412261Y-110680952D02*
X96459880Y-110728571D01*
X96459880Y-110728571D02*
X96483690Y-110799999D01*
X96483690Y-110799999D02*
X96483690Y-110919047D01*
X95983690Y-110466666D02*
X95983690Y-110157142D01*
X95983690Y-110157142D02*
X96174166Y-110323809D01*
X96174166Y-110323809D02*
X96174166Y-110252380D01*
X96174166Y-110252380D02*
X96197976Y-110204761D01*
X96197976Y-110204761D02*
X96221785Y-110180952D01*
X96221785Y-110180952D02*
X96269404Y-110157142D01*
X96269404Y-110157142D02*
X96388452Y-110157142D01*
X96388452Y-110157142D02*
X96436071Y-110180952D01*
X96436071Y-110180952D02*
X96459880Y-110204761D01*
X96459880Y-110204761D02*
X96483690Y-110252380D01*
X96483690Y-110252380D02*
X96483690Y-110395237D01*
X96483690Y-110395237D02*
X96459880Y-110442856D01*
X96459880Y-110442856D02*
X96436071Y-110466666D01*
%TO.C,C3*%
X105866666Y-50736071D02*
X105842857Y-50759880D01*
X105842857Y-50759880D02*
X105771428Y-50783690D01*
X105771428Y-50783690D02*
X105723809Y-50783690D01*
X105723809Y-50783690D02*
X105652381Y-50759880D01*
X105652381Y-50759880D02*
X105604762Y-50712261D01*
X105604762Y-50712261D02*
X105580952Y-50664642D01*
X105580952Y-50664642D02*
X105557143Y-50569404D01*
X105557143Y-50569404D02*
X105557143Y-50497976D01*
X105557143Y-50497976D02*
X105580952Y-50402738D01*
X105580952Y-50402738D02*
X105604762Y-50355119D01*
X105604762Y-50355119D02*
X105652381Y-50307500D01*
X105652381Y-50307500D02*
X105723809Y-50283690D01*
X105723809Y-50283690D02*
X105771428Y-50283690D01*
X105771428Y-50283690D02*
X105842857Y-50307500D01*
X105842857Y-50307500D02*
X105866666Y-50331309D01*
X106033333Y-50283690D02*
X106342857Y-50283690D01*
X106342857Y-50283690D02*
X106176190Y-50474166D01*
X106176190Y-50474166D02*
X106247619Y-50474166D01*
X106247619Y-50474166D02*
X106295238Y-50497976D01*
X106295238Y-50497976D02*
X106319047Y-50521785D01*
X106319047Y-50521785D02*
X106342857Y-50569404D01*
X106342857Y-50569404D02*
X106342857Y-50688452D01*
X106342857Y-50688452D02*
X106319047Y-50736071D01*
X106319047Y-50736071D02*
X106295238Y-50759880D01*
X106295238Y-50759880D02*
X106247619Y-50783690D01*
X106247619Y-50783690D02*
X106104762Y-50783690D01*
X106104762Y-50783690D02*
X106057143Y-50759880D01*
X106057143Y-50759880D02*
X106033333Y-50736071D01*
%TO.C,R16*%
X99028571Y-53583690D02*
X98861905Y-53345595D01*
X98742857Y-53583690D02*
X98742857Y-53083690D01*
X98742857Y-53083690D02*
X98933333Y-53083690D01*
X98933333Y-53083690D02*
X98980952Y-53107500D01*
X98980952Y-53107500D02*
X99004762Y-53131309D01*
X99004762Y-53131309D02*
X99028571Y-53178928D01*
X99028571Y-53178928D02*
X99028571Y-53250357D01*
X99028571Y-53250357D02*
X99004762Y-53297976D01*
X99004762Y-53297976D02*
X98980952Y-53321785D01*
X98980952Y-53321785D02*
X98933333Y-53345595D01*
X98933333Y-53345595D02*
X98742857Y-53345595D01*
X99504762Y-53583690D02*
X99219048Y-53583690D01*
X99361905Y-53583690D02*
X99361905Y-53083690D01*
X99361905Y-53083690D02*
X99314286Y-53155119D01*
X99314286Y-53155119D02*
X99266667Y-53202738D01*
X99266667Y-53202738D02*
X99219048Y-53226547D01*
X99933333Y-53083690D02*
X99838095Y-53083690D01*
X99838095Y-53083690D02*
X99790476Y-53107500D01*
X99790476Y-53107500D02*
X99766666Y-53131309D01*
X99766666Y-53131309D02*
X99719047Y-53202738D01*
X99719047Y-53202738D02*
X99695238Y-53297976D01*
X99695238Y-53297976D02*
X99695238Y-53488452D01*
X99695238Y-53488452D02*
X99719047Y-53536071D01*
X99719047Y-53536071D02*
X99742857Y-53559880D01*
X99742857Y-53559880D02*
X99790476Y-53583690D01*
X99790476Y-53583690D02*
X99885714Y-53583690D01*
X99885714Y-53583690D02*
X99933333Y-53559880D01*
X99933333Y-53559880D02*
X99957142Y-53536071D01*
X99957142Y-53536071D02*
X99980952Y-53488452D01*
X99980952Y-53488452D02*
X99980952Y-53369404D01*
X99980952Y-53369404D02*
X99957142Y-53321785D01*
X99957142Y-53321785D02*
X99933333Y-53297976D01*
X99933333Y-53297976D02*
X99885714Y-53274166D01*
X99885714Y-53274166D02*
X99790476Y-53274166D01*
X99790476Y-53274166D02*
X99742857Y-53297976D01*
X99742857Y-53297976D02*
X99719047Y-53321785D01*
X99719047Y-53321785D02*
X99695238Y-53369404D01*
%TO.C,C6*%
X123266666Y-100486071D02*
X123242857Y-100509880D01*
X123242857Y-100509880D02*
X123171428Y-100533690D01*
X123171428Y-100533690D02*
X123123809Y-100533690D01*
X123123809Y-100533690D02*
X123052381Y-100509880D01*
X123052381Y-100509880D02*
X123004762Y-100462261D01*
X123004762Y-100462261D02*
X122980952Y-100414642D01*
X122980952Y-100414642D02*
X122957143Y-100319404D01*
X122957143Y-100319404D02*
X122957143Y-100247976D01*
X122957143Y-100247976D02*
X122980952Y-100152738D01*
X122980952Y-100152738D02*
X123004762Y-100105119D01*
X123004762Y-100105119D02*
X123052381Y-100057500D01*
X123052381Y-100057500D02*
X123123809Y-100033690D01*
X123123809Y-100033690D02*
X123171428Y-100033690D01*
X123171428Y-100033690D02*
X123242857Y-100057500D01*
X123242857Y-100057500D02*
X123266666Y-100081309D01*
X123695238Y-100033690D02*
X123600000Y-100033690D01*
X123600000Y-100033690D02*
X123552381Y-100057500D01*
X123552381Y-100057500D02*
X123528571Y-100081309D01*
X123528571Y-100081309D02*
X123480952Y-100152738D01*
X123480952Y-100152738D02*
X123457143Y-100247976D01*
X123457143Y-100247976D02*
X123457143Y-100438452D01*
X123457143Y-100438452D02*
X123480952Y-100486071D01*
X123480952Y-100486071D02*
X123504762Y-100509880D01*
X123504762Y-100509880D02*
X123552381Y-100533690D01*
X123552381Y-100533690D02*
X123647619Y-100533690D01*
X123647619Y-100533690D02*
X123695238Y-100509880D01*
X123695238Y-100509880D02*
X123719047Y-100486071D01*
X123719047Y-100486071D02*
X123742857Y-100438452D01*
X123742857Y-100438452D02*
X123742857Y-100319404D01*
X123742857Y-100319404D02*
X123719047Y-100271785D01*
X123719047Y-100271785D02*
X123695238Y-100247976D01*
X123695238Y-100247976D02*
X123647619Y-100224166D01*
X123647619Y-100224166D02*
X123552381Y-100224166D01*
X123552381Y-100224166D02*
X123504762Y-100247976D01*
X123504762Y-100247976D02*
X123480952Y-100271785D01*
X123480952Y-100271785D02*
X123457143Y-100319404D01*
%TO.C,R7*%
X134316666Y-70833690D02*
X134150000Y-70595595D01*
X134030952Y-70833690D02*
X134030952Y-70333690D01*
X134030952Y-70333690D02*
X134221428Y-70333690D01*
X134221428Y-70333690D02*
X134269047Y-70357500D01*
X134269047Y-70357500D02*
X134292857Y-70381309D01*
X134292857Y-70381309D02*
X134316666Y-70428928D01*
X134316666Y-70428928D02*
X134316666Y-70500357D01*
X134316666Y-70500357D02*
X134292857Y-70547976D01*
X134292857Y-70547976D02*
X134269047Y-70571785D01*
X134269047Y-70571785D02*
X134221428Y-70595595D01*
X134221428Y-70595595D02*
X134030952Y-70595595D01*
X134483333Y-70333690D02*
X134816666Y-70333690D01*
X134816666Y-70333690D02*
X134602381Y-70833690D01*
%TO.C,R10*%
X102078571Y-68383690D02*
X101911905Y-68145595D01*
X101792857Y-68383690D02*
X101792857Y-67883690D01*
X101792857Y-67883690D02*
X101983333Y-67883690D01*
X101983333Y-67883690D02*
X102030952Y-67907500D01*
X102030952Y-67907500D02*
X102054762Y-67931309D01*
X102054762Y-67931309D02*
X102078571Y-67978928D01*
X102078571Y-67978928D02*
X102078571Y-68050357D01*
X102078571Y-68050357D02*
X102054762Y-68097976D01*
X102054762Y-68097976D02*
X102030952Y-68121785D01*
X102030952Y-68121785D02*
X101983333Y-68145595D01*
X101983333Y-68145595D02*
X101792857Y-68145595D01*
X102554762Y-68383690D02*
X102269048Y-68383690D01*
X102411905Y-68383690D02*
X102411905Y-67883690D01*
X102411905Y-67883690D02*
X102364286Y-67955119D01*
X102364286Y-67955119D02*
X102316667Y-68002738D01*
X102316667Y-68002738D02*
X102269048Y-68026547D01*
X102864285Y-67883690D02*
X102911904Y-67883690D01*
X102911904Y-67883690D02*
X102959523Y-67907500D01*
X102959523Y-67907500D02*
X102983333Y-67931309D01*
X102983333Y-67931309D02*
X103007142Y-67978928D01*
X103007142Y-67978928D02*
X103030952Y-68074166D01*
X103030952Y-68074166D02*
X103030952Y-68193214D01*
X103030952Y-68193214D02*
X103007142Y-68288452D01*
X103007142Y-68288452D02*
X102983333Y-68336071D01*
X102983333Y-68336071D02*
X102959523Y-68359880D01*
X102959523Y-68359880D02*
X102911904Y-68383690D01*
X102911904Y-68383690D02*
X102864285Y-68383690D01*
X102864285Y-68383690D02*
X102816666Y-68359880D01*
X102816666Y-68359880D02*
X102792857Y-68336071D01*
X102792857Y-68336071D02*
X102769047Y-68288452D01*
X102769047Y-68288452D02*
X102745238Y-68193214D01*
X102745238Y-68193214D02*
X102745238Y-68074166D01*
X102745238Y-68074166D02*
X102769047Y-67978928D01*
X102769047Y-67978928D02*
X102792857Y-67931309D01*
X102792857Y-67931309D02*
X102816666Y-67907500D01*
X102816666Y-67907500D02*
X102864285Y-67883690D01*
D12*
%TO.C,J1*%
X123737265Y-126885728D02*
X123737265Y-128034052D01*
X123737265Y-128034052D02*
X123660710Y-128263717D01*
X123660710Y-128263717D02*
X123507600Y-128416827D01*
X123507600Y-128416827D02*
X123277935Y-128493382D01*
X123277935Y-128493382D02*
X123124825Y-128493382D01*
X125344919Y-128493382D02*
X124426259Y-128493382D01*
X124885589Y-128493382D02*
X124885589Y-126885728D01*
X124885589Y-126885728D02*
X124732479Y-127115392D01*
X124732479Y-127115392D02*
X124579369Y-127268502D01*
X124579369Y-127268502D02*
X124426259Y-127345057D01*
D13*
%TO.C,L2*%
X128866666Y-102033690D02*
X128628571Y-102033690D01*
X128628571Y-102033690D02*
X128628571Y-101533690D01*
X129009524Y-101581309D02*
X129033333Y-101557500D01*
X129033333Y-101557500D02*
X129080952Y-101533690D01*
X129080952Y-101533690D02*
X129200000Y-101533690D01*
X129200000Y-101533690D02*
X129247619Y-101557500D01*
X129247619Y-101557500D02*
X129271428Y-101581309D01*
X129271428Y-101581309D02*
X129295238Y-101628928D01*
X129295238Y-101628928D02*
X129295238Y-101676547D01*
X129295238Y-101676547D02*
X129271428Y-101747976D01*
X129271428Y-101747976D02*
X128985714Y-102033690D01*
X128985714Y-102033690D02*
X129295238Y-102033690D01*
%TO.C,R1*%
X112366666Y-102033690D02*
X112200000Y-101795595D01*
X112080952Y-102033690D02*
X112080952Y-101533690D01*
X112080952Y-101533690D02*
X112271428Y-101533690D01*
X112271428Y-101533690D02*
X112319047Y-101557500D01*
X112319047Y-101557500D02*
X112342857Y-101581309D01*
X112342857Y-101581309D02*
X112366666Y-101628928D01*
X112366666Y-101628928D02*
X112366666Y-101700357D01*
X112366666Y-101700357D02*
X112342857Y-101747976D01*
X112342857Y-101747976D02*
X112319047Y-101771785D01*
X112319047Y-101771785D02*
X112271428Y-101795595D01*
X112271428Y-101795595D02*
X112080952Y-101795595D01*
X112842857Y-102033690D02*
X112557143Y-102033690D01*
X112700000Y-102033690D02*
X112700000Y-101533690D01*
X112700000Y-101533690D02*
X112652381Y-101605119D01*
X112652381Y-101605119D02*
X112604762Y-101652738D01*
X112604762Y-101652738D02*
X112557143Y-101676547D01*
%TO.C,R2*%
X116366666Y-102033690D02*
X116200000Y-101795595D01*
X116080952Y-102033690D02*
X116080952Y-101533690D01*
X116080952Y-101533690D02*
X116271428Y-101533690D01*
X116271428Y-101533690D02*
X116319047Y-101557500D01*
X116319047Y-101557500D02*
X116342857Y-101581309D01*
X116342857Y-101581309D02*
X116366666Y-101628928D01*
X116366666Y-101628928D02*
X116366666Y-101700357D01*
X116366666Y-101700357D02*
X116342857Y-101747976D01*
X116342857Y-101747976D02*
X116319047Y-101771785D01*
X116319047Y-101771785D02*
X116271428Y-101795595D01*
X116271428Y-101795595D02*
X116080952Y-101795595D01*
X116557143Y-101581309D02*
X116580952Y-101557500D01*
X116580952Y-101557500D02*
X116628571Y-101533690D01*
X116628571Y-101533690D02*
X116747619Y-101533690D01*
X116747619Y-101533690D02*
X116795238Y-101557500D01*
X116795238Y-101557500D02*
X116819047Y-101581309D01*
X116819047Y-101581309D02*
X116842857Y-101628928D01*
X116842857Y-101628928D02*
X116842857Y-101676547D01*
X116842857Y-101676547D02*
X116819047Y-101747976D01*
X116819047Y-101747976D02*
X116533333Y-102033690D01*
X116533333Y-102033690D02*
X116842857Y-102033690D01*
%TO.C,R17*%
X97778571Y-87383690D02*
X97611905Y-87145595D01*
X97492857Y-87383690D02*
X97492857Y-86883690D01*
X97492857Y-86883690D02*
X97683333Y-86883690D01*
X97683333Y-86883690D02*
X97730952Y-86907500D01*
X97730952Y-86907500D02*
X97754762Y-86931309D01*
X97754762Y-86931309D02*
X97778571Y-86978928D01*
X97778571Y-86978928D02*
X97778571Y-87050357D01*
X97778571Y-87050357D02*
X97754762Y-87097976D01*
X97754762Y-87097976D02*
X97730952Y-87121785D01*
X97730952Y-87121785D02*
X97683333Y-87145595D01*
X97683333Y-87145595D02*
X97492857Y-87145595D01*
X98254762Y-87383690D02*
X97969048Y-87383690D01*
X98111905Y-87383690D02*
X98111905Y-86883690D01*
X98111905Y-86883690D02*
X98064286Y-86955119D01*
X98064286Y-86955119D02*
X98016667Y-87002738D01*
X98016667Y-87002738D02*
X97969048Y-87026547D01*
X98421428Y-86883690D02*
X98754761Y-86883690D01*
X98754761Y-86883690D02*
X98540476Y-87383690D01*
%TO.C,C12*%
X96286071Y-108871428D02*
X96309880Y-108895237D01*
X96309880Y-108895237D02*
X96333690Y-108966666D01*
X96333690Y-108966666D02*
X96333690Y-109014285D01*
X96333690Y-109014285D02*
X96309880Y-109085713D01*
X96309880Y-109085713D02*
X96262261Y-109133332D01*
X96262261Y-109133332D02*
X96214642Y-109157142D01*
X96214642Y-109157142D02*
X96119404Y-109180951D01*
X96119404Y-109180951D02*
X96047976Y-109180951D01*
X96047976Y-109180951D02*
X95952738Y-109157142D01*
X95952738Y-109157142D02*
X95905119Y-109133332D01*
X95905119Y-109133332D02*
X95857500Y-109085713D01*
X95857500Y-109085713D02*
X95833690Y-109014285D01*
X95833690Y-109014285D02*
X95833690Y-108966666D01*
X95833690Y-108966666D02*
X95857500Y-108895237D01*
X95857500Y-108895237D02*
X95881309Y-108871428D01*
X96333690Y-108395237D02*
X96333690Y-108680951D01*
X96333690Y-108538094D02*
X95833690Y-108538094D01*
X95833690Y-108538094D02*
X95905119Y-108585713D01*
X95905119Y-108585713D02*
X95952738Y-108633332D01*
X95952738Y-108633332D02*
X95976547Y-108680951D01*
X95881309Y-108204761D02*
X95857500Y-108180952D01*
X95857500Y-108180952D02*
X95833690Y-108133333D01*
X95833690Y-108133333D02*
X95833690Y-108014285D01*
X95833690Y-108014285D02*
X95857500Y-107966666D01*
X95857500Y-107966666D02*
X95881309Y-107942857D01*
X95881309Y-107942857D02*
X95928928Y-107919047D01*
X95928928Y-107919047D02*
X95976547Y-107919047D01*
X95976547Y-107919047D02*
X96047976Y-107942857D01*
X96047976Y-107942857D02*
X96333690Y-108228571D01*
X96333690Y-108228571D02*
X96333690Y-107919047D01*
%TO.C,C10*%
X115528571Y-96336071D02*
X115504762Y-96359880D01*
X115504762Y-96359880D02*
X115433333Y-96383690D01*
X115433333Y-96383690D02*
X115385714Y-96383690D01*
X115385714Y-96383690D02*
X115314286Y-96359880D01*
X115314286Y-96359880D02*
X115266667Y-96312261D01*
X115266667Y-96312261D02*
X115242857Y-96264642D01*
X115242857Y-96264642D02*
X115219048Y-96169404D01*
X115219048Y-96169404D02*
X115219048Y-96097976D01*
X115219048Y-96097976D02*
X115242857Y-96002738D01*
X115242857Y-96002738D02*
X115266667Y-95955119D01*
X115266667Y-95955119D02*
X115314286Y-95907500D01*
X115314286Y-95907500D02*
X115385714Y-95883690D01*
X115385714Y-95883690D02*
X115433333Y-95883690D01*
X115433333Y-95883690D02*
X115504762Y-95907500D01*
X115504762Y-95907500D02*
X115528571Y-95931309D01*
X116004762Y-96383690D02*
X115719048Y-96383690D01*
X115861905Y-96383690D02*
X115861905Y-95883690D01*
X115861905Y-95883690D02*
X115814286Y-95955119D01*
X115814286Y-95955119D02*
X115766667Y-96002738D01*
X115766667Y-96002738D02*
X115719048Y-96026547D01*
X116314285Y-95883690D02*
X116361904Y-95883690D01*
X116361904Y-95883690D02*
X116409523Y-95907500D01*
X116409523Y-95907500D02*
X116433333Y-95931309D01*
X116433333Y-95931309D02*
X116457142Y-95978928D01*
X116457142Y-95978928D02*
X116480952Y-96074166D01*
X116480952Y-96074166D02*
X116480952Y-96193214D01*
X116480952Y-96193214D02*
X116457142Y-96288452D01*
X116457142Y-96288452D02*
X116433333Y-96336071D01*
X116433333Y-96336071D02*
X116409523Y-96359880D01*
X116409523Y-96359880D02*
X116361904Y-96383690D01*
X116361904Y-96383690D02*
X116314285Y-96383690D01*
X116314285Y-96383690D02*
X116266666Y-96359880D01*
X116266666Y-96359880D02*
X116242857Y-96336071D01*
X116242857Y-96336071D02*
X116219047Y-96288452D01*
X116219047Y-96288452D02*
X116195238Y-96193214D01*
X116195238Y-96193214D02*
X116195238Y-96074166D01*
X116195238Y-96074166D02*
X116219047Y-95978928D01*
X116219047Y-95978928D02*
X116242857Y-95931309D01*
X116242857Y-95931309D02*
X116266666Y-95907500D01*
X116266666Y-95907500D02*
X116314285Y-95883690D01*
%TO.C,R4*%
X119766666Y-102033690D02*
X119600000Y-101795595D01*
X119480952Y-102033690D02*
X119480952Y-101533690D01*
X119480952Y-101533690D02*
X119671428Y-101533690D01*
X119671428Y-101533690D02*
X119719047Y-101557500D01*
X119719047Y-101557500D02*
X119742857Y-101581309D01*
X119742857Y-101581309D02*
X119766666Y-101628928D01*
X119766666Y-101628928D02*
X119766666Y-101700357D01*
X119766666Y-101700357D02*
X119742857Y-101747976D01*
X119742857Y-101747976D02*
X119719047Y-101771785D01*
X119719047Y-101771785D02*
X119671428Y-101795595D01*
X119671428Y-101795595D02*
X119480952Y-101795595D01*
X120195238Y-101700357D02*
X120195238Y-102033690D01*
X120076190Y-101509880D02*
X119957143Y-101867023D01*
X119957143Y-101867023D02*
X120266666Y-101867023D01*
D12*
%TO.C,C5*%
X101683333Y-114172142D02*
X101635714Y-114219761D01*
X101635714Y-114219761D02*
X101492857Y-114267380D01*
X101492857Y-114267380D02*
X101397619Y-114267380D01*
X101397619Y-114267380D02*
X101254762Y-114219761D01*
X101254762Y-114219761D02*
X101159524Y-114124523D01*
X101159524Y-114124523D02*
X101111905Y-114029285D01*
X101111905Y-114029285D02*
X101064286Y-113838809D01*
X101064286Y-113838809D02*
X101064286Y-113695952D01*
X101064286Y-113695952D02*
X101111905Y-113505476D01*
X101111905Y-113505476D02*
X101159524Y-113410238D01*
X101159524Y-113410238D02*
X101254762Y-113315000D01*
X101254762Y-113315000D02*
X101397619Y-113267380D01*
X101397619Y-113267380D02*
X101492857Y-113267380D01*
X101492857Y-113267380D02*
X101635714Y-113315000D01*
X101635714Y-113315000D02*
X101683333Y-113362619D01*
X102588095Y-113267380D02*
X102111905Y-113267380D01*
X102111905Y-113267380D02*
X102064286Y-113743571D01*
X102064286Y-113743571D02*
X102111905Y-113695952D01*
X102111905Y-113695952D02*
X102207143Y-113648333D01*
X102207143Y-113648333D02*
X102445238Y-113648333D01*
X102445238Y-113648333D02*
X102540476Y-113695952D01*
X102540476Y-113695952D02*
X102588095Y-113743571D01*
X102588095Y-113743571D02*
X102635714Y-113838809D01*
X102635714Y-113838809D02*
X102635714Y-114076904D01*
X102635714Y-114076904D02*
X102588095Y-114172142D01*
X102588095Y-114172142D02*
X102540476Y-114219761D01*
X102540476Y-114219761D02*
X102445238Y-114267380D01*
X102445238Y-114267380D02*
X102207143Y-114267380D01*
X102207143Y-114267380D02*
X102111905Y-114219761D01*
X102111905Y-114219761D02*
X102064286Y-114172142D01*
D13*
%TO.C,R13*%
X105128571Y-60133690D02*
X104961905Y-59895595D01*
X104842857Y-60133690D02*
X104842857Y-59633690D01*
X104842857Y-59633690D02*
X105033333Y-59633690D01*
X105033333Y-59633690D02*
X105080952Y-59657500D01*
X105080952Y-59657500D02*
X105104762Y-59681309D01*
X105104762Y-59681309D02*
X105128571Y-59728928D01*
X105128571Y-59728928D02*
X105128571Y-59800357D01*
X105128571Y-59800357D02*
X105104762Y-59847976D01*
X105104762Y-59847976D02*
X105080952Y-59871785D01*
X105080952Y-59871785D02*
X105033333Y-59895595D01*
X105033333Y-59895595D02*
X104842857Y-59895595D01*
X105604762Y-60133690D02*
X105319048Y-60133690D01*
X105461905Y-60133690D02*
X105461905Y-59633690D01*
X105461905Y-59633690D02*
X105414286Y-59705119D01*
X105414286Y-59705119D02*
X105366667Y-59752738D01*
X105366667Y-59752738D02*
X105319048Y-59776547D01*
X105771428Y-59633690D02*
X106080952Y-59633690D01*
X106080952Y-59633690D02*
X105914285Y-59824166D01*
X105914285Y-59824166D02*
X105985714Y-59824166D01*
X105985714Y-59824166D02*
X106033333Y-59847976D01*
X106033333Y-59847976D02*
X106057142Y-59871785D01*
X106057142Y-59871785D02*
X106080952Y-59919404D01*
X106080952Y-59919404D02*
X106080952Y-60038452D01*
X106080952Y-60038452D02*
X106057142Y-60086071D01*
X106057142Y-60086071D02*
X106033333Y-60109880D01*
X106033333Y-60109880D02*
X105985714Y-60133690D01*
X105985714Y-60133690D02*
X105842857Y-60133690D01*
X105842857Y-60133690D02*
X105795238Y-60109880D01*
X105795238Y-60109880D02*
X105771428Y-60086071D01*
%TO.C,C9*%
X124516666Y-86336071D02*
X124492857Y-86359880D01*
X124492857Y-86359880D02*
X124421428Y-86383690D01*
X124421428Y-86383690D02*
X124373809Y-86383690D01*
X124373809Y-86383690D02*
X124302381Y-86359880D01*
X124302381Y-86359880D02*
X124254762Y-86312261D01*
X124254762Y-86312261D02*
X124230952Y-86264642D01*
X124230952Y-86264642D02*
X124207143Y-86169404D01*
X124207143Y-86169404D02*
X124207143Y-86097976D01*
X124207143Y-86097976D02*
X124230952Y-86002738D01*
X124230952Y-86002738D02*
X124254762Y-85955119D01*
X124254762Y-85955119D02*
X124302381Y-85907500D01*
X124302381Y-85907500D02*
X124373809Y-85883690D01*
X124373809Y-85883690D02*
X124421428Y-85883690D01*
X124421428Y-85883690D02*
X124492857Y-85907500D01*
X124492857Y-85907500D02*
X124516666Y-85931309D01*
X124754762Y-86383690D02*
X124850000Y-86383690D01*
X124850000Y-86383690D02*
X124897619Y-86359880D01*
X124897619Y-86359880D02*
X124921428Y-86336071D01*
X124921428Y-86336071D02*
X124969047Y-86264642D01*
X124969047Y-86264642D02*
X124992857Y-86169404D01*
X124992857Y-86169404D02*
X124992857Y-85978928D01*
X124992857Y-85978928D02*
X124969047Y-85931309D01*
X124969047Y-85931309D02*
X124945238Y-85907500D01*
X124945238Y-85907500D02*
X124897619Y-85883690D01*
X124897619Y-85883690D02*
X124802381Y-85883690D01*
X124802381Y-85883690D02*
X124754762Y-85907500D01*
X124754762Y-85907500D02*
X124730952Y-85931309D01*
X124730952Y-85931309D02*
X124707143Y-85978928D01*
X124707143Y-85978928D02*
X124707143Y-86097976D01*
X124707143Y-86097976D02*
X124730952Y-86145595D01*
X124730952Y-86145595D02*
X124754762Y-86169404D01*
X124754762Y-86169404D02*
X124802381Y-86193214D01*
X124802381Y-86193214D02*
X124897619Y-86193214D01*
X124897619Y-86193214D02*
X124945238Y-86169404D01*
X124945238Y-86169404D02*
X124969047Y-86145595D01*
X124969047Y-86145595D02*
X124992857Y-86097976D01*
%TO.C,R12*%
X115578571Y-92033690D02*
X115411905Y-91795595D01*
X115292857Y-92033690D02*
X115292857Y-91533690D01*
X115292857Y-91533690D02*
X115483333Y-91533690D01*
X115483333Y-91533690D02*
X115530952Y-91557500D01*
X115530952Y-91557500D02*
X115554762Y-91581309D01*
X115554762Y-91581309D02*
X115578571Y-91628928D01*
X115578571Y-91628928D02*
X115578571Y-91700357D01*
X115578571Y-91700357D02*
X115554762Y-91747976D01*
X115554762Y-91747976D02*
X115530952Y-91771785D01*
X115530952Y-91771785D02*
X115483333Y-91795595D01*
X115483333Y-91795595D02*
X115292857Y-91795595D01*
X116054762Y-92033690D02*
X115769048Y-92033690D01*
X115911905Y-92033690D02*
X115911905Y-91533690D01*
X115911905Y-91533690D02*
X115864286Y-91605119D01*
X115864286Y-91605119D02*
X115816667Y-91652738D01*
X115816667Y-91652738D02*
X115769048Y-91676547D01*
X116245238Y-91581309D02*
X116269047Y-91557500D01*
X116269047Y-91557500D02*
X116316666Y-91533690D01*
X116316666Y-91533690D02*
X116435714Y-91533690D01*
X116435714Y-91533690D02*
X116483333Y-91557500D01*
X116483333Y-91557500D02*
X116507142Y-91581309D01*
X116507142Y-91581309D02*
X116530952Y-91628928D01*
X116530952Y-91628928D02*
X116530952Y-91676547D01*
X116530952Y-91676547D02*
X116507142Y-91747976D01*
X116507142Y-91747976D02*
X116221428Y-92033690D01*
X116221428Y-92033690D02*
X116530952Y-92033690D01*
%TO.C,C11*%
X115553571Y-95236071D02*
X115529762Y-95259880D01*
X115529762Y-95259880D02*
X115458333Y-95283690D01*
X115458333Y-95283690D02*
X115410714Y-95283690D01*
X115410714Y-95283690D02*
X115339286Y-95259880D01*
X115339286Y-95259880D02*
X115291667Y-95212261D01*
X115291667Y-95212261D02*
X115267857Y-95164642D01*
X115267857Y-95164642D02*
X115244048Y-95069404D01*
X115244048Y-95069404D02*
X115244048Y-94997976D01*
X115244048Y-94997976D02*
X115267857Y-94902738D01*
X115267857Y-94902738D02*
X115291667Y-94855119D01*
X115291667Y-94855119D02*
X115339286Y-94807500D01*
X115339286Y-94807500D02*
X115410714Y-94783690D01*
X115410714Y-94783690D02*
X115458333Y-94783690D01*
X115458333Y-94783690D02*
X115529762Y-94807500D01*
X115529762Y-94807500D02*
X115553571Y-94831309D01*
X116029762Y-95283690D02*
X115744048Y-95283690D01*
X115886905Y-95283690D02*
X115886905Y-94783690D01*
X115886905Y-94783690D02*
X115839286Y-94855119D01*
X115839286Y-94855119D02*
X115791667Y-94902738D01*
X115791667Y-94902738D02*
X115744048Y-94926547D01*
X116505952Y-95283690D02*
X116220238Y-95283690D01*
X116363095Y-95283690D02*
X116363095Y-94783690D01*
X116363095Y-94783690D02*
X116315476Y-94855119D01*
X116315476Y-94855119D02*
X116267857Y-94902738D01*
X116267857Y-94902738D02*
X116220238Y-94926547D01*
%TO.C,J5*%
X112483333Y-97383690D02*
X112483333Y-97740833D01*
X112483333Y-97740833D02*
X112459524Y-97812261D01*
X112459524Y-97812261D02*
X112411905Y-97859880D01*
X112411905Y-97859880D02*
X112340476Y-97883690D01*
X112340476Y-97883690D02*
X112292857Y-97883690D01*
X112959523Y-97383690D02*
X112721428Y-97383690D01*
X112721428Y-97383690D02*
X112697619Y-97621785D01*
X112697619Y-97621785D02*
X112721428Y-97597976D01*
X112721428Y-97597976D02*
X112769047Y-97574166D01*
X112769047Y-97574166D02*
X112888095Y-97574166D01*
X112888095Y-97574166D02*
X112935714Y-97597976D01*
X112935714Y-97597976D02*
X112959523Y-97621785D01*
X112959523Y-97621785D02*
X112983333Y-97669404D01*
X112983333Y-97669404D02*
X112983333Y-97788452D01*
X112983333Y-97788452D02*
X112959523Y-97836071D01*
X112959523Y-97836071D02*
X112935714Y-97859880D01*
X112935714Y-97859880D02*
X112888095Y-97883690D01*
X112888095Y-97883690D02*
X112769047Y-97883690D01*
X112769047Y-97883690D02*
X112721428Y-97859880D01*
X112721428Y-97859880D02*
X112697619Y-97836071D01*
D14*
%TO.C,R14*%
X132620000Y-119272936D02*
X132620000Y-119727064D01*
X131150000Y-119272936D02*
X131150000Y-119727064D01*
%TO.C,D4*%
X99490000Y-91610000D02*
X101410000Y-91610000D01*
X101410000Y-91610000D02*
X101410000Y-88750000D01*
X99490000Y-88750000D02*
X99490000Y-91610000D01*
%TO.C,L1*%
X130527064Y-94985000D02*
X130072936Y-94985000D01*
X130527064Y-93515000D02*
X130072936Y-93515000D01*
%TO.C,R11*%
X130072936Y-97715000D02*
X130527064Y-97715000D01*
X130072936Y-99185000D02*
X130527064Y-99185000D01*
%TO.C,R9*%
X105327064Y-66185000D02*
X104872936Y-66185000D01*
X105327064Y-64715000D02*
X104872936Y-64715000D01*
%TO.C,U3*%
X127460000Y-92390000D02*
X127460000Y-92865000D01*
X126985000Y-96610000D02*
X127460000Y-96610000D01*
X126985000Y-92390000D02*
X127460000Y-92390000D01*
X123715000Y-96610000D02*
X123240000Y-96610000D01*
X123715000Y-92390000D02*
X123240000Y-92390000D01*
X123240000Y-96610000D02*
X123240000Y-96135000D01*
X123240000Y-92390000D02*
X123240000Y-92865000D01*
%TO.C,C4*%
X101540000Y-56210000D02*
X104560000Y-56210000D01*
X104560000Y-56210000D02*
X104560000Y-52000000D01*
X101540000Y-52000000D02*
X101540000Y-56210000D01*
%TO.C,C13*%
X97801248Y-92715000D02*
X98323752Y-92715000D01*
X97801248Y-94185000D02*
X98323752Y-94185000D01*
%TO.C,U4*%
X107050000Y-108890000D02*
X103600000Y-108890000D01*
X107050000Y-108890000D02*
X109000000Y-108890000D01*
X107050000Y-114010000D02*
X105100000Y-114010000D01*
X107050000Y-114010000D02*
X109000000Y-114010000D01*
%TO.C,U2*%
X107720000Y-44900000D02*
X107720000Y-51315000D01*
X107720000Y-44900000D02*
X125960000Y-44900000D01*
X107720000Y-51315000D02*
X107340000Y-51315000D01*
X107720000Y-69860000D02*
X107720000Y-70640000D01*
X107720000Y-70640000D02*
X108720000Y-70640000D01*
X125960000Y-44900000D02*
X125960000Y-51315000D01*
X125960000Y-69860000D02*
X125960000Y-70640000D01*
X125960000Y-70640000D02*
X124960000Y-70640000D01*
%TO.C,C8*%
X130038748Y-95615000D02*
X130561252Y-95615000D01*
X130038748Y-97085000D02*
X130561252Y-97085000D01*
%TO.C,C7*%
X126335000Y-88288748D02*
X126335000Y-88811252D01*
X124865000Y-88288748D02*
X124865000Y-88811252D01*
%TO.C,R15*%
X108777064Y-103185000D02*
X108322936Y-103185000D01*
X108777064Y-101715000D02*
X108322936Y-101715000D01*
%TO.C,R6*%
X105115000Y-56977064D02*
X105115000Y-56522936D01*
X106585000Y-56977064D02*
X106585000Y-56522936D01*
%TO.C,D2*%
X108700000Y-105090000D02*
X107025000Y-105090000D01*
X108700000Y-105090000D02*
X109350000Y-105090000D01*
X108700000Y-108210000D02*
X108050000Y-108210000D01*
X108700000Y-108210000D02*
X109350000Y-108210000D01*
%TO.C,J4*%
X97220000Y-120380000D02*
X97220000Y-119050000D01*
X98550000Y-120380000D02*
X97220000Y-120380000D01*
X99820000Y-120380000D02*
X107500000Y-120380000D01*
X99820000Y-120380000D02*
X99820000Y-117720000D01*
X107500000Y-120380000D02*
X107500000Y-117720000D01*
X99820000Y-117720000D02*
X107500000Y-117720000D01*
%TO.C,R3*%
X124822936Y-102615000D02*
X125277064Y-102615000D01*
X124822936Y-104085000D02*
X125277064Y-104085000D01*
%TO.C,R5*%
X111070000Y-119272936D02*
X111070000Y-119727064D01*
X109600000Y-119272936D02*
X109600000Y-119727064D01*
%TO.C,J2*%
X130570000Y-52170000D02*
X131900000Y-52170000D01*
X130570000Y-53500000D02*
X130570000Y-52170000D01*
X130570000Y-54770000D02*
X130570000Y-67530000D01*
X130570000Y-54770000D02*
X133230000Y-54770000D01*
X130570000Y-67530000D02*
X133230000Y-67530000D01*
X133230000Y-54770000D02*
X133230000Y-67530000D01*
%TO.C,D1*%
X96830000Y-59555000D02*
X96830000Y-60020000D01*
X96830000Y-62180000D02*
X96830000Y-62645000D01*
X102177814Y-60019173D02*
G75*
G03*
X96830001Y-59555170I-2787814J-1080827D01*
G01*
X101644478Y-60019572D02*
G75*
G03*
X97135317Y-60020000I-2254478J-1080428D01*
G01*
X97135316Y-62180000D02*
G75*
G03*
X101644479Y-62180429I2254684J1080000D01*
G01*
X96830001Y-62644830D02*
G75*
G03*
X102177814Y-62180827I2559999J1544830D01*
G01*
%TO.C,U5*%
X95792500Y-107007500D02*
X95792500Y-105767500D01*
X97032500Y-107007500D02*
X95792500Y-107007500D01*
X96032500Y-106767500D02*
X104652500Y-106767500D01*
X96032500Y-106767500D02*
X96032500Y-95147500D01*
X104652500Y-106767500D02*
X104652500Y-95147500D01*
X96032500Y-95147500D02*
X104652500Y-95147500D01*
%TO.C,R8*%
X105327064Y-64185000D02*
X104872936Y-64185000D01*
X105327064Y-62715000D02*
X104872936Y-62715000D01*
%TO.C,D3*%
X100150000Y-110090000D02*
X96850000Y-110090000D01*
X100150000Y-110090000D02*
X100150000Y-115600000D01*
X96850000Y-110090000D02*
X96850000Y-115600000D01*
%TO.C,REF\u002A\u002A*%
G36*
X128885690Y-82140018D02*
G01*
X128920585Y-82155269D01*
X129003877Y-82221235D01*
X129075103Y-82316618D01*
X129119153Y-82418406D01*
X129126322Y-82468587D01*
X129102285Y-82538647D01*
X129049561Y-82575717D01*
X128993031Y-82598164D01*
X128967146Y-82602300D01*
X128954542Y-82572283D01*
X128929654Y-82506961D01*
X128918735Y-82477445D01*
X128857508Y-82375348D01*
X128768861Y-82324423D01*
X128655193Y-82325989D01*
X128646774Y-82327994D01*
X128586088Y-82356767D01*
X128541474Y-82412859D01*
X128511002Y-82503163D01*
X128492744Y-82634571D01*
X128484771Y-82813974D01*
X128484023Y-82909433D01*
X128483652Y-83059913D01*
X128481223Y-83162495D01*
X128474760Y-83227672D01*
X128462288Y-83265938D01*
X128441833Y-83287785D01*
X128411419Y-83303707D01*
X128409661Y-83304509D01*
X128351091Y-83329272D01*
X128322075Y-83338391D01*
X128317616Y-83310822D01*
X128313799Y-83234620D01*
X128310899Y-83119541D01*
X128309191Y-82975341D01*
X128308851Y-82869814D01*
X128310588Y-82665613D01*
X128317382Y-82510697D01*
X128331607Y-82396024D01*
X128355638Y-82312551D01*
X128391848Y-82251236D01*
X128442612Y-82203034D01*
X128492739Y-82169393D01*
X128613275Y-82124619D01*
X128753557Y-82114521D01*
X128885690Y-82140018D01*
G37*
D15*
X128885690Y-82140018D02*
X128920585Y-82155269D01*
X129003877Y-82221235D01*
X129075103Y-82316618D01*
X129119153Y-82418406D01*
X129126322Y-82468587D01*
X129102285Y-82538647D01*
X129049561Y-82575717D01*
X128993031Y-82598164D01*
X128967146Y-82602300D01*
X128954542Y-82572283D01*
X128929654Y-82506961D01*
X128918735Y-82477445D01*
X128857508Y-82375348D01*
X128768861Y-82324423D01*
X128655193Y-82325989D01*
X128646774Y-82327994D01*
X128586088Y-82356767D01*
X128541474Y-82412859D01*
X128511002Y-82503163D01*
X128492744Y-82634571D01*
X128484771Y-82813974D01*
X128484023Y-82909433D01*
X128483652Y-83059913D01*
X128481223Y-83162495D01*
X128474760Y-83227672D01*
X128462288Y-83265938D01*
X128441833Y-83287785D01*
X128411419Y-83303707D01*
X128409661Y-83304509D01*
X128351091Y-83329272D01*
X128322075Y-83338391D01*
X128317616Y-83310822D01*
X128313799Y-83234620D01*
X128310899Y-83119541D01*
X128309191Y-82975341D01*
X128308851Y-82869814D01*
X128310588Y-82665613D01*
X128317382Y-82510697D01*
X128331607Y-82396024D01*
X128355638Y-82312551D01*
X128391848Y-82251236D01*
X128442612Y-82203034D01*
X128492739Y-82169393D01*
X128613275Y-82124619D01*
X128753557Y-82114521D01*
X128885690Y-82140018D01*
G36*
X120967429Y-82077719D02*
G01*
X121061123Y-82131914D01*
X121126264Y-82185707D01*
X121173907Y-82242066D01*
X121206728Y-82310987D01*
X121227406Y-82402468D01*
X121238620Y-82526506D01*
X121243049Y-82693098D01*
X121243563Y-82812851D01*
X121243563Y-83253659D01*
X121119483Y-83309283D01*
X120995402Y-83364907D01*
X120980805Y-82882095D01*
X120974773Y-82701779D01*
X120968445Y-82570901D01*
X120960606Y-82480511D01*
X120950037Y-82421664D01*
X120935523Y-82385413D01*
X120915848Y-82362810D01*
X120909535Y-82357917D01*
X120813888Y-82319706D01*
X120717207Y-82334827D01*
X120659655Y-82374943D01*
X120636245Y-82403370D01*
X120620039Y-82440672D01*
X120609741Y-82497223D01*
X120604049Y-82583394D01*
X120601664Y-82709558D01*
X120601264Y-82841042D01*
X120601186Y-83005999D01*
X120598361Y-83122761D01*
X120588907Y-83201510D01*
X120568940Y-83252431D01*
X120534576Y-83285706D01*
X120481932Y-83311520D01*
X120411617Y-83338344D01*
X120334820Y-83367542D01*
X120343962Y-82849346D01*
X120347643Y-82662539D01*
X120351950Y-82524490D01*
X120358123Y-82425568D01*
X120367402Y-82356145D01*
X120381027Y-82306590D01*
X120400239Y-82267273D01*
X120423402Y-82232584D01*
X120535152Y-82121770D01*
X120671513Y-82057689D01*
X120819825Y-82042339D01*
X120967429Y-82077719D01*
G37*
X120967429Y-82077719D02*
X121061123Y-82131914D01*
X121126264Y-82185707D01*
X121173907Y-82242066D01*
X121206728Y-82310987D01*
X121227406Y-82402468D01*
X121238620Y-82526506D01*
X121243049Y-82693098D01*
X121243563Y-82812851D01*
X121243563Y-83253659D01*
X121119483Y-83309283D01*
X120995402Y-83364907D01*
X120980805Y-82882095D01*
X120974773Y-82701779D01*
X120968445Y-82570901D01*
X120960606Y-82480511D01*
X120950037Y-82421664D01*
X120935523Y-82385413D01*
X120915848Y-82362810D01*
X120909535Y-82357917D01*
X120813888Y-82319706D01*
X120717207Y-82334827D01*
X120659655Y-82374943D01*
X120636245Y-82403370D01*
X120620039Y-82440672D01*
X120609741Y-82497223D01*
X120604049Y-82583394D01*
X120601664Y-82709558D01*
X120601264Y-82841042D01*
X120601186Y-83005999D01*
X120598361Y-83122761D01*
X120588907Y-83201510D01*
X120568940Y-83252431D01*
X120534576Y-83285706D01*
X120481932Y-83311520D01*
X120411617Y-83338344D01*
X120334820Y-83367542D01*
X120343962Y-82849346D01*
X120347643Y-82662539D01*
X120351950Y-82524490D01*
X120358123Y-82425568D01*
X120367402Y-82356145D01*
X120381027Y-82306590D01*
X120400239Y-82267273D01*
X120423402Y-82232584D01*
X120535152Y-82121770D01*
X120671513Y-82057689D01*
X120819825Y-82042339D01*
X120967429Y-82077719D01*
G36*
X124615943Y-82121920D02*
G01*
X124748565Y-82170859D01*
X124856010Y-82257419D01*
X124898032Y-82318352D01*
X124943843Y-82430161D01*
X124942891Y-82511006D01*
X124894808Y-82565378D01*
X124877017Y-82574624D01*
X124800204Y-82603450D01*
X124760976Y-82596065D01*
X124747689Y-82547658D01*
X124747012Y-82520920D01*
X124722686Y-82422548D01*
X124659281Y-82353734D01*
X124571154Y-82320498D01*
X124472663Y-82328861D01*
X124392602Y-82372296D01*
X124365561Y-82397072D01*
X124346394Y-82427129D01*
X124333446Y-82472565D01*
X124325064Y-82543476D01*
X124319593Y-82649960D01*
X124315378Y-82802112D01*
X124314287Y-82850287D01*
X124310307Y-83015095D01*
X124305781Y-83131088D01*
X124298995Y-83207833D01*
X124288231Y-83254893D01*
X124271773Y-83281835D01*
X124247906Y-83298223D01*
X124232626Y-83305463D01*
X124167733Y-83330220D01*
X124129534Y-83338391D01*
X124116912Y-83311103D01*
X124109208Y-83228603D01*
X124106380Y-83089941D01*
X124108386Y-82894162D01*
X124109011Y-82863965D01*
X124113421Y-82685349D01*
X124118635Y-82554923D01*
X124126055Y-82462492D01*
X124137082Y-82397858D01*
X124153117Y-82350825D01*
X124175561Y-82311196D01*
X124187302Y-82294215D01*
X124254619Y-82219080D01*
X124329910Y-82160638D01*
X124339128Y-82155536D01*
X124474133Y-82115260D01*
X124615943Y-82121920D01*
G37*
X124615943Y-82121920D02*
X124748565Y-82170859D01*
X124856010Y-82257419D01*
X124898032Y-82318352D01*
X124943843Y-82430161D01*
X124942891Y-82511006D01*
X124894808Y-82565378D01*
X124877017Y-82574624D01*
X124800204Y-82603450D01*
X124760976Y-82596065D01*
X124747689Y-82547658D01*
X124747012Y-82520920D01*
X124722686Y-82422548D01*
X124659281Y-82353734D01*
X124571154Y-82320498D01*
X124472663Y-82328861D01*
X124392602Y-82372296D01*
X124365561Y-82397072D01*
X124346394Y-82427129D01*
X124333446Y-82472565D01*
X124325064Y-82543476D01*
X124319593Y-82649960D01*
X124315378Y-82802112D01*
X124314287Y-82850287D01*
X124310307Y-83015095D01*
X124305781Y-83131088D01*
X124298995Y-83207833D01*
X124288231Y-83254893D01*
X124271773Y-83281835D01*
X124247906Y-83298223D01*
X124232626Y-83305463D01*
X124167733Y-83330220D01*
X124129534Y-83338391D01*
X124116912Y-83311103D01*
X124109208Y-83228603D01*
X124106380Y-83089941D01*
X124108386Y-82894162D01*
X124109011Y-82863965D01*
X124113421Y-82685349D01*
X124118635Y-82554923D01*
X124126055Y-82462492D01*
X124137082Y-82397858D01*
X124153117Y-82350825D01*
X124175561Y-82311196D01*
X124187302Y-82294215D01*
X124254619Y-82219080D01*
X124329910Y-82160638D01*
X124339128Y-82155536D01*
X124474133Y-82115260D01*
X124615943Y-82121920D01*
G36*
X127130124Y-82139840D02*
G01*
X127134579Y-82216653D01*
X127138071Y-82333391D01*
X127140315Y-82480821D01*
X127141035Y-82635455D01*
X127141035Y-83158727D01*
X127048645Y-83251117D01*
X126984978Y-83308047D01*
X126929089Y-83331107D01*
X126852702Y-83329647D01*
X126822380Y-83325934D01*
X126727610Y-83315126D01*
X126649222Y-83308933D01*
X126630115Y-83308361D01*
X126565699Y-83312102D01*
X126473571Y-83321494D01*
X126437850Y-83325934D01*
X126350114Y-83332801D01*
X126291153Y-83317885D01*
X126232690Y-83271835D01*
X126211585Y-83251117D01*
X126119195Y-83158727D01*
X126119195Y-82179947D01*
X126193558Y-82146066D01*
X126257590Y-82120970D01*
X126295052Y-82112184D01*
X126304657Y-82139950D01*
X126313635Y-82217530D01*
X126321386Y-82336348D01*
X126327314Y-82487828D01*
X126330173Y-82615805D01*
X126338161Y-83119425D01*
X126407848Y-83129278D01*
X126471229Y-83122389D01*
X126502286Y-83100083D01*
X126510967Y-83058379D01*
X126518378Y-82969544D01*
X126523931Y-82844834D01*
X126527036Y-82695507D01*
X126527484Y-82618661D01*
X126527931Y-82176287D01*
X126619874Y-82144235D01*
X126684949Y-82122443D01*
X126720347Y-82112281D01*
X126721368Y-82112184D01*
X126724920Y-82139809D01*
X126728823Y-82216411D01*
X126732751Y-82332579D01*
X126736376Y-82478904D01*
X126738908Y-82615805D01*
X126746897Y-83119425D01*
X126922069Y-83119425D01*
X126930107Y-82659965D01*
X126938146Y-82200505D01*
X127023543Y-82156344D01*
X127086593Y-82126019D01*
X127123910Y-82112258D01*
X127124987Y-82112184D01*
X127130124Y-82139840D01*
G37*
X127130124Y-82139840D02*
X127134579Y-82216653D01*
X127138071Y-82333391D01*
X127140315Y-82480821D01*
X127141035Y-82635455D01*
X127141035Y-83158727D01*
X127048645Y-83251117D01*
X126984978Y-83308047D01*
X126929089Y-83331107D01*
X126852702Y-83329647D01*
X126822380Y-83325934D01*
X126727610Y-83315126D01*
X126649222Y-83308933D01*
X126630115Y-83308361D01*
X126565699Y-83312102D01*
X126473571Y-83321494D01*
X126437850Y-83325934D01*
X126350114Y-83332801D01*
X126291153Y-83317885D01*
X126232690Y-83271835D01*
X126211585Y-83251117D01*
X126119195Y-83158727D01*
X126119195Y-82179947D01*
X126193558Y-82146066D01*
X126257590Y-82120970D01*
X126295052Y-82112184D01*
X126304657Y-82139950D01*
X126313635Y-82217530D01*
X126321386Y-82336348D01*
X126327314Y-82487828D01*
X126330173Y-82615805D01*
X126338161Y-83119425D01*
X126407848Y-83129278D01*
X126471229Y-83122389D01*
X126502286Y-83100083D01*
X126510967Y-83058379D01*
X126518378Y-82969544D01*
X126523931Y-82844834D01*
X126527036Y-82695507D01*
X126527484Y-82618661D01*
X126527931Y-82176287D01*
X126619874Y-82144235D01*
X126684949Y-82122443D01*
X126720347Y-82112281D01*
X126721368Y-82112184D01*
X126724920Y-82139809D01*
X126728823Y-82216411D01*
X126732751Y-82332579D01*
X126736376Y-82478904D01*
X126738908Y-82615805D01*
X126746897Y-83119425D01*
X126922069Y-83119425D01*
X126930107Y-82659965D01*
X126938146Y-82200505D01*
X127023543Y-82156344D01*
X127086593Y-82126019D01*
X127123910Y-82112258D01*
X127124987Y-82112184D01*
X127130124Y-82139840D01*
G36*
X122294598Y-81923857D02*
G01*
X122303154Y-82043188D01*
X122312981Y-82113506D01*
X122326599Y-82144179D01*
X122346527Y-82144571D01*
X122352989Y-82140910D01*
X122438940Y-82114398D01*
X122550745Y-82115946D01*
X122664414Y-82143199D01*
X122735510Y-82178455D01*
X122808405Y-82234778D01*
X122861693Y-82298519D01*
X122898275Y-82379510D01*
X122921050Y-82487586D01*
X122932919Y-82632580D01*
X122936782Y-82824326D01*
X122936851Y-82861109D01*
X122936897Y-83274288D01*
X122844954Y-83306339D01*
X122779652Y-83328144D01*
X122743824Y-83338297D01*
X122742770Y-83338391D01*
X122739242Y-83310860D01*
X122736239Y-83234923D01*
X122733990Y-83120565D01*
X122732724Y-82977769D01*
X122732529Y-82890951D01*
X122732123Y-82719773D01*
X122730032Y-82597088D01*
X122724947Y-82513000D01*
X122715560Y-82457614D01*
X122700561Y-82421032D01*
X122678642Y-82393359D01*
X122664957Y-82380032D01*
X122570949Y-82326328D01*
X122468364Y-82322307D01*
X122375290Y-82367725D01*
X122358078Y-82384123D01*
X122332832Y-82414957D01*
X122315320Y-82451531D01*
X122304142Y-82504415D01*
X122297896Y-82584177D01*
X122295182Y-82701385D01*
X122294598Y-82862991D01*
X122294598Y-83274288D01*
X122202655Y-83306339D01*
X122137353Y-83328144D01*
X122101525Y-83338297D01*
X122100471Y-83338391D01*
X122097775Y-83310448D01*
X122095345Y-83231630D01*
X122093278Y-83109453D01*
X122091671Y-82951432D01*
X122090623Y-82765083D01*
X122090231Y-82557920D01*
X122090230Y-82548706D01*
X122090230Y-81759020D01*
X122185115Y-81718997D01*
X122280000Y-81678973D01*
X122294598Y-81923857D01*
G37*
X122294598Y-81923857D02*
X122303154Y-82043188D01*
X122312981Y-82113506D01*
X122326599Y-82144179D01*
X122346527Y-82144571D01*
X122352989Y-82140910D01*
X122438940Y-82114398D01*
X122550745Y-82115946D01*
X122664414Y-82143199D01*
X122735510Y-82178455D01*
X122808405Y-82234778D01*
X122861693Y-82298519D01*
X122898275Y-82379510D01*
X122921050Y-82487586D01*
X122932919Y-82632580D01*
X122936782Y-82824326D01*
X122936851Y-82861109D01*
X122936897Y-83274288D01*
X122844954Y-83306339D01*
X122779652Y-83328144D01*
X122743824Y-83338297D01*
X122742770Y-83338391D01*
X122739242Y-83310860D01*
X122736239Y-83234923D01*
X122733990Y-83120565D01*
X122732724Y-82977769D01*
X122732529Y-82890951D01*
X122732123Y-82719773D01*
X122730032Y-82597088D01*
X122724947Y-82513000D01*
X122715560Y-82457614D01*
X122700561Y-82421032D01*
X122678642Y-82393359D01*
X122664957Y-82380032D01*
X122570949Y-82326328D01*
X122468364Y-82322307D01*
X122375290Y-82367725D01*
X122358078Y-82384123D01*
X122332832Y-82414957D01*
X122315320Y-82451531D01*
X122304142Y-82504415D01*
X122297896Y-82584177D01*
X122295182Y-82701385D01*
X122294598Y-82862991D01*
X122294598Y-83274288D01*
X122202655Y-83306339D01*
X122137353Y-83328144D01*
X122101525Y-83338297D01*
X122100471Y-83338391D01*
X122097775Y-83310448D01*
X122095345Y-83231630D01*
X122093278Y-83109453D01*
X122091671Y-82951432D01*
X122090623Y-82765083D01*
X122090231Y-82557920D01*
X122090230Y-82548706D01*
X122090230Y-81759020D01*
X122185115Y-81718997D01*
X122280000Y-81678973D01*
X122294598Y-81923857D01*
G36*
X116981107Y-82686019D02*
G01*
X117272989Y-82686019D01*
X117274687Y-82819256D01*
X117281372Y-82907674D01*
X117295425Y-82964785D01*
X117319229Y-83004102D01*
X117331379Y-83017241D01*
X117401236Y-83067172D01*
X117469059Y-83064895D01*
X117537635Y-83021584D01*
X117578535Y-82975346D01*
X117602758Y-82907857D01*
X117616361Y-82801433D01*
X117617294Y-82789020D01*
X117619616Y-82596147D01*
X117595350Y-82452900D01*
X117544824Y-82360160D01*
X117468368Y-82318807D01*
X117441076Y-82316552D01*
X117369411Y-82327893D01*
X117320390Y-82367184D01*
X117290418Y-82442326D01*
X117275899Y-82561222D01*
X117272989Y-82686019D01*
X116981107Y-82686019D01*
X116982122Y-82545659D01*
X116986688Y-82440549D01*
X116996688Y-82367714D01*
X117014079Y-82314108D01*
X117040816Y-82266681D01*
X117046724Y-82257864D01*
X117146032Y-82139007D01*
X117254242Y-82070008D01*
X117385981Y-82042619D01*
X117430717Y-82041281D01*
X117598221Y-82066015D01*
X117735061Y-82137968D01*
X117836051Y-82253766D01*
X117871925Y-82328213D01*
X117899839Y-82439992D01*
X117914129Y-82581227D01*
X117915484Y-82735371D01*
X117904595Y-82885879D01*
X117882153Y-83016205D01*
X117848850Y-83109803D01*
X117838615Y-83125922D01*
X117717382Y-83246249D01*
X117573387Y-83318317D01*
X117417139Y-83339408D01*
X117259148Y-83306802D01*
X117215180Y-83287253D01*
X117129556Y-83227012D01*
X117054408Y-83147135D01*
X117047306Y-83137004D01*
X117018439Y-83088181D01*
X116999357Y-83035990D01*
X116988084Y-82967285D01*
X116982645Y-82868918D01*
X116981062Y-82727744D01*
X116981035Y-82696092D01*
X116981107Y-82686019D01*
G37*
X116981107Y-82686019D02*
X117272989Y-82686019D01*
X117274687Y-82819256D01*
X117281372Y-82907674D01*
X117295425Y-82964785D01*
X117319229Y-83004102D01*
X117331379Y-83017241D01*
X117401236Y-83067172D01*
X117469059Y-83064895D01*
X117537635Y-83021584D01*
X117578535Y-82975346D01*
X117602758Y-82907857D01*
X117616361Y-82801433D01*
X117617294Y-82789020D01*
X117619616Y-82596147D01*
X117595350Y-82452900D01*
X117544824Y-82360160D01*
X117468368Y-82318807D01*
X117441076Y-82316552D01*
X117369411Y-82327893D01*
X117320390Y-82367184D01*
X117290418Y-82442326D01*
X117275899Y-82561222D01*
X117272989Y-82686019D01*
X116981107Y-82686019D01*
X116982122Y-82545659D01*
X116986688Y-82440549D01*
X116996688Y-82367714D01*
X117014079Y-82314108D01*
X117040816Y-82266681D01*
X117046724Y-82257864D01*
X117146032Y-82139007D01*
X117254242Y-82070008D01*
X117385981Y-82042619D01*
X117430717Y-82041281D01*
X117598221Y-82066015D01*
X117735061Y-82137968D01*
X117836051Y-82253766D01*
X117871925Y-82328213D01*
X117899839Y-82439992D01*
X117914129Y-82581227D01*
X117915484Y-82735371D01*
X117904595Y-82885879D01*
X117882153Y-83016205D01*
X117848850Y-83109803D01*
X117838615Y-83125922D01*
X117717382Y-83246249D01*
X117573387Y-83318317D01*
X117417139Y-83339408D01*
X117259148Y-83306802D01*
X117215180Y-83287253D01*
X117129556Y-83227012D01*
X117054408Y-83147135D01*
X117047306Y-83137004D01*
X117018439Y-83088181D01*
X116999357Y-83035990D01*
X116988084Y-82967285D01*
X116982645Y-82868918D01*
X116981062Y-82727744D01*
X116981035Y-82696092D01*
X116981107Y-82686019D01*
G36*
X129303622Y-82637853D02*
G01*
X129479899Y-82637853D01*
X129481944Y-82687896D01*
X129487039Y-82696092D01*
X129520666Y-82684958D01*
X129593030Y-82655493D01*
X129689747Y-82613601D01*
X129709973Y-82604597D01*
X129832203Y-82542442D01*
X129899547Y-82487815D01*
X129914348Y-82436649D01*
X129878947Y-82384876D01*
X129849711Y-82362000D01*
X129744216Y-82316250D01*
X129645476Y-82323808D01*
X129562812Y-82379651D01*
X129505548Y-82478753D01*
X129487188Y-82557414D01*
X129479899Y-82637853D01*
X129303622Y-82637853D01*
X129305459Y-82549351D01*
X129319359Y-82414853D01*
X129346894Y-82316916D01*
X129391572Y-82244811D01*
X129456901Y-82187813D01*
X129485383Y-82169393D01*
X129614763Y-82121422D01*
X129756412Y-82118403D01*
X129893439Y-82156540D01*
X130008950Y-82232034D01*
X130064664Y-82299617D01*
X130108804Y-82422255D01*
X130112309Y-82519298D01*
X130104368Y-82649056D01*
X129805115Y-82780039D01*
X129659611Y-82846958D01*
X129564537Y-82900790D01*
X129515101Y-82947416D01*
X129506511Y-82992720D01*
X129533972Y-83042582D01*
X129564253Y-83075632D01*
X129652363Y-83128633D01*
X129748196Y-83132347D01*
X129836212Y-83091041D01*
X129900869Y-83008983D01*
X129912433Y-82980008D01*
X129967825Y-82889509D01*
X130031553Y-82850940D01*
X130118966Y-82817946D01*
X130118966Y-82943034D01*
X130111238Y-83028156D01*
X130080966Y-83099938D01*
X130017518Y-83182356D01*
X130008088Y-83193066D01*
X129937513Y-83266391D01*
X129876847Y-83305742D01*
X129800950Y-83323845D01*
X129738030Y-83329774D01*
X129625487Y-83331251D01*
X129545370Y-83312535D01*
X129495390Y-83284747D01*
X129416838Y-83223641D01*
X129362463Y-83157554D01*
X129328052Y-83074441D01*
X129309388Y-82962254D01*
X129302256Y-82808946D01*
X129301687Y-82731136D01*
X129303622Y-82637853D01*
G37*
X129303622Y-82637853D02*
X129479899Y-82637853D01*
X129481944Y-82687896D01*
X129487039Y-82696092D01*
X129520666Y-82684958D01*
X129593030Y-82655493D01*
X129689747Y-82613601D01*
X129709973Y-82604597D01*
X129832203Y-82542442D01*
X129899547Y-82487815D01*
X129914348Y-82436649D01*
X129878947Y-82384876D01*
X129849711Y-82362000D01*
X129744216Y-82316250D01*
X129645476Y-82323808D01*
X129562812Y-82379651D01*
X129505548Y-82478753D01*
X129487188Y-82557414D01*
X129479899Y-82637853D01*
X129303622Y-82637853D01*
X129305459Y-82549351D01*
X129319359Y-82414853D01*
X129346894Y-82316916D01*
X129391572Y-82244811D01*
X129456901Y-82187813D01*
X129485383Y-82169393D01*
X129614763Y-82121422D01*
X129756412Y-82118403D01*
X129893439Y-82156540D01*
X130008950Y-82232034D01*
X130064664Y-82299617D01*
X130108804Y-82422255D01*
X130112309Y-82519298D01*
X130104368Y-82649056D01*
X129805115Y-82780039D01*
X129659611Y-82846958D01*
X129564537Y-82900790D01*
X129515101Y-82947416D01*
X129506511Y-82992720D01*
X129533972Y-83042582D01*
X129564253Y-83075632D01*
X129652363Y-83128633D01*
X129748196Y-83132347D01*
X129836212Y-83091041D01*
X129900869Y-83008983D01*
X129912433Y-82980008D01*
X129967825Y-82889509D01*
X130031553Y-82850940D01*
X130118966Y-82817946D01*
X130118966Y-82943034D01*
X130111238Y-83028156D01*
X130080966Y-83099938D01*
X130017518Y-83182356D01*
X130008088Y-83193066D01*
X129937513Y-83266391D01*
X129876847Y-83305742D01*
X129800950Y-83323845D01*
X129738030Y-83329774D01*
X129625487Y-83331251D01*
X129545370Y-83312535D01*
X129495390Y-83284747D01*
X129416838Y-83223641D01*
X129362463Y-83157554D01*
X129328052Y-83074441D01*
X129309388Y-82962254D01*
X129302256Y-82808946D01*
X129301687Y-82731136D01*
X129303622Y-82637853D01*
G36*
X125097761Y-82717106D02*
G01*
X125301724Y-82717106D01*
X125302970Y-82847657D01*
X125308678Y-82934080D01*
X125321804Y-82990618D01*
X125345306Y-83031514D01*
X125373386Y-83062362D01*
X125467688Y-83121905D01*
X125568940Y-83126992D01*
X125664636Y-83077279D01*
X125672084Y-83070543D01*
X125703874Y-83035502D01*
X125723808Y-82993811D01*
X125734600Y-82931762D01*
X125738965Y-82835644D01*
X125739655Y-82729379D01*
X125738159Y-82595880D01*
X125731964Y-82506822D01*
X125718514Y-82448293D01*
X125695251Y-82406382D01*
X125676175Y-82384123D01*
X125587563Y-82327985D01*
X125485508Y-82321235D01*
X125388095Y-82364114D01*
X125369296Y-82380032D01*
X125337293Y-82415382D01*
X125317318Y-82457502D01*
X125306593Y-82520251D01*
X125302339Y-82617487D01*
X125301724Y-82717106D01*
X125097761Y-82717106D01*
X125104504Y-82541947D01*
X125128472Y-82404195D01*
X125173548Y-82300632D01*
X125243928Y-82219856D01*
X125298743Y-82178455D01*
X125398376Y-82133728D01*
X125513855Y-82112967D01*
X125621199Y-82118525D01*
X125681264Y-82140943D01*
X125704835Y-82147323D01*
X125720477Y-82123535D01*
X125731395Y-82059788D01*
X125739655Y-81962687D01*
X125748699Y-81854541D01*
X125761261Y-81789475D01*
X125784119Y-81752268D01*
X125824051Y-81727699D01*
X125849138Y-81716819D01*
X125944023Y-81677072D01*
X125943914Y-82354455D01*
X125943543Y-82572661D01*
X125942108Y-82740519D01*
X125939002Y-82866070D01*
X125933622Y-82957355D01*
X125925362Y-83022415D01*
X125913616Y-83069291D01*
X125897781Y-83106024D01*
X125885790Y-83126991D01*
X125786490Y-83240694D01*
X125660588Y-83311965D01*
X125521291Y-83337538D01*
X125381805Y-83314150D01*
X125298743Y-83272119D01*
X125211545Y-83199411D01*
X125152117Y-83110612D01*
X125116261Y-82994320D01*
X125099781Y-82839135D01*
X125097447Y-82725287D01*
X125097761Y-82717106D01*
G37*
X125097761Y-82717106D02*
X125301724Y-82717106D01*
X125302970Y-82847657D01*
X125308678Y-82934080D01*
X125321804Y-82990618D01*
X125345306Y-83031514D01*
X125373386Y-83062362D01*
X125467688Y-83121905D01*
X125568940Y-83126992D01*
X125664636Y-83077279D01*
X125672084Y-83070543D01*
X125703874Y-83035502D01*
X125723808Y-82993811D01*
X125734600Y-82931762D01*
X125738965Y-82835644D01*
X125739655Y-82729379D01*
X125738159Y-82595880D01*
X125731964Y-82506822D01*
X125718514Y-82448293D01*
X125695251Y-82406382D01*
X125676175Y-82384123D01*
X125587563Y-82327985D01*
X125485508Y-82321235D01*
X125388095Y-82364114D01*
X125369296Y-82380032D01*
X125337293Y-82415382D01*
X125317318Y-82457502D01*
X125306593Y-82520251D01*
X125302339Y-82617487D01*
X125301724Y-82717106D01*
X125097761Y-82717106D01*
X125104504Y-82541947D01*
X125128472Y-82404195D01*
X125173548Y-82300632D01*
X125243928Y-82219856D01*
X125298743Y-82178455D01*
X125398376Y-82133728D01*
X125513855Y-82112967D01*
X125621199Y-82118525D01*
X125681264Y-82140943D01*
X125704835Y-82147323D01*
X125720477Y-82123535D01*
X125731395Y-82059788D01*
X125739655Y-81962687D01*
X125748699Y-81854541D01*
X125761261Y-81789475D01*
X125784119Y-81752268D01*
X125824051Y-81727699D01*
X125849138Y-81716819D01*
X125944023Y-81677072D01*
X125943914Y-82354455D01*
X125943543Y-82572661D01*
X125942108Y-82740519D01*
X125939002Y-82866070D01*
X125933622Y-82957355D01*
X125925362Y-83022415D01*
X125913616Y-83069291D01*
X125897781Y-83106024D01*
X125885790Y-83126991D01*
X125786490Y-83240694D01*
X125660588Y-83311965D01*
X125521291Y-83337538D01*
X125381805Y-83314150D01*
X125298743Y-83272119D01*
X125211545Y-83199411D01*
X125152117Y-83110612D01*
X125116261Y-82994320D01*
X125099781Y-82839135D01*
X125097447Y-82725287D01*
X125097761Y-82717106D01*
G36*
X119211678Y-82510124D02*
G01*
X119491839Y-82510124D01*
X119495479Y-82574503D01*
X119515389Y-82593291D01*
X119565026Y-82579235D01*
X119643267Y-82546009D01*
X119730726Y-82504359D01*
X119732899Y-82503256D01*
X119807030Y-82464265D01*
X119836781Y-82438244D01*
X119829445Y-82410965D01*
X119798553Y-82375121D01*
X119719960Y-82323251D01*
X119635323Y-82319439D01*
X119559403Y-82357189D01*
X119506965Y-82430001D01*
X119491839Y-82510124D01*
X119211678Y-82510124D01*
X119219644Y-82436261D01*
X119268634Y-82295829D01*
X119336836Y-82197447D01*
X119459935Y-82098030D01*
X119595528Y-82048711D01*
X119733955Y-82045568D01*
X119865552Y-82084676D01*
X119980658Y-82162111D01*
X120069611Y-82273949D01*
X120122749Y-82416265D01*
X120133497Y-82521015D01*
X120132276Y-82564726D01*
X120122056Y-82598194D01*
X120093961Y-82628179D01*
X120039116Y-82661440D01*
X119948645Y-82704738D01*
X119813672Y-82764833D01*
X119812989Y-82765134D01*
X119688751Y-82822037D01*
X119586873Y-82872565D01*
X119517767Y-82911280D01*
X119491846Y-82932740D01*
X119491839Y-82932913D01*
X119514685Y-82979644D01*
X119568109Y-83031154D01*
X119629442Y-83068261D01*
X119660515Y-83075632D01*
X119745289Y-83050138D01*
X119818293Y-82986291D01*
X119853913Y-82916094D01*
X119888180Y-82864343D01*
X119955303Y-82805409D01*
X120034208Y-82754496D01*
X120103821Y-82726809D01*
X120118377Y-82725287D01*
X120134763Y-82750321D01*
X120135750Y-82814311D01*
X120123708Y-82900593D01*
X120101007Y-82992501D01*
X120070014Y-83073369D01*
X120068448Y-83076509D01*
X119975181Y-83206734D01*
X119854304Y-83295311D01*
X119717027Y-83338786D01*
X119574560Y-83333706D01*
X119438112Y-83276616D01*
X119432045Y-83272602D01*
X119324710Y-83175326D01*
X119254132Y-83048409D01*
X119215074Y-82881526D01*
X119209832Y-82834639D01*
X119200548Y-82613329D01*
X119211678Y-82510124D01*
G37*
X119211678Y-82510124D02*
X119491839Y-82510124D01*
X119495479Y-82574503D01*
X119515389Y-82593291D01*
X119565026Y-82579235D01*
X119643267Y-82546009D01*
X119730726Y-82504359D01*
X119732899Y-82503256D01*
X119807030Y-82464265D01*
X119836781Y-82438244D01*
X119829445Y-82410965D01*
X119798553Y-82375121D01*
X119719960Y-82323251D01*
X119635323Y-82319439D01*
X119559403Y-82357189D01*
X119506965Y-82430001D01*
X119491839Y-82510124D01*
X119211678Y-82510124D01*
X119219644Y-82436261D01*
X119268634Y-82295829D01*
X119336836Y-82197447D01*
X119459935Y-82098030D01*
X119595528Y-82048711D01*
X119733955Y-82045568D01*
X119865552Y-82084676D01*
X119980658Y-82162111D01*
X120069611Y-82273949D01*
X120122749Y-82416265D01*
X120133497Y-82521015D01*
X120132276Y-82564726D01*
X120122056Y-82598194D01*
X120093961Y-82628179D01*
X120039116Y-82661440D01*
X119948645Y-82704738D01*
X119813672Y-82764833D01*
X119812989Y-82765134D01*
X119688751Y-82822037D01*
X119586873Y-82872565D01*
X119517767Y-82911280D01*
X119491846Y-82932740D01*
X119491839Y-82932913D01*
X119514685Y-82979644D01*
X119568109Y-83031154D01*
X119629442Y-83068261D01*
X119660515Y-83075632D01*
X119745289Y-83050138D01*
X119818293Y-82986291D01*
X119853913Y-82916094D01*
X119888180Y-82864343D01*
X119955303Y-82805409D01*
X120034208Y-82754496D01*
X120103821Y-82726809D01*
X120118377Y-82725287D01*
X120134763Y-82750321D01*
X120135750Y-82814311D01*
X120123708Y-82900593D01*
X120101007Y-82992501D01*
X120070014Y-83073369D01*
X120068448Y-83076509D01*
X119975181Y-83206734D01*
X119854304Y-83295311D01*
X119717027Y-83338786D01*
X119574560Y-83333706D01*
X119438112Y-83276616D01*
X119432045Y-83272602D01*
X119324710Y-83175326D01*
X119254132Y-83048409D01*
X119215074Y-82881526D01*
X119209832Y-82834639D01*
X119200548Y-82613329D01*
X119211678Y-82510124D01*
G36*
X123629944Y-82124360D02*
G01*
X123744343Y-82166842D01*
X123745652Y-82167658D01*
X123816403Y-82219730D01*
X123868636Y-82280584D01*
X123905371Y-82359887D01*
X123929634Y-82467309D01*
X123944445Y-82612517D01*
X123952829Y-82805179D01*
X123953564Y-82832628D01*
X123964120Y-83246521D01*
X123875291Y-83292456D01*
X123811018Y-83323498D01*
X123772210Y-83338206D01*
X123770415Y-83338391D01*
X123763700Y-83311250D01*
X123758365Y-83238041D01*
X123755083Y-83131081D01*
X123754368Y-83044469D01*
X123754351Y-82904162D01*
X123747937Y-82816051D01*
X123725580Y-82774025D01*
X123677732Y-82771975D01*
X123594849Y-82803790D01*
X123469713Y-82862272D01*
X123377697Y-82910845D01*
X123330371Y-82952986D01*
X123316458Y-82998916D01*
X123316437Y-83001189D01*
X123339395Y-83080311D01*
X123407370Y-83123055D01*
X123511398Y-83129246D01*
X123586330Y-83128172D01*
X123625839Y-83149753D01*
X123650478Y-83201591D01*
X123664659Y-83267632D01*
X123644223Y-83305104D01*
X123636528Y-83310467D01*
X123564083Y-83332006D01*
X123462633Y-83335055D01*
X123358157Y-83320778D01*
X123284125Y-83294688D01*
X123181772Y-83207785D01*
X123123591Y-83086816D01*
X123112069Y-82992308D01*
X123120862Y-82907062D01*
X123152680Y-82837476D01*
X123215684Y-82775672D01*
X123318031Y-82713772D01*
X123467882Y-82643897D01*
X123477012Y-82639948D01*
X123611997Y-82577588D01*
X123695294Y-82526446D01*
X123730997Y-82480488D01*
X123723203Y-82433683D01*
X123676007Y-82379998D01*
X123661894Y-82367644D01*
X123567359Y-82319741D01*
X123469406Y-82321758D01*
X123384097Y-82368724D01*
X123327496Y-82455669D01*
X123322237Y-82472734D01*
X123271023Y-82555504D01*
X123206037Y-82595372D01*
X123112069Y-82634882D01*
X123112069Y-82532658D01*
X123140653Y-82384072D01*
X123225495Y-82247784D01*
X123269645Y-82202191D01*
X123370005Y-82143674D01*
X123497635Y-82117184D01*
X123629944Y-82124360D01*
G37*
X123629944Y-82124360D02*
X123744343Y-82166842D01*
X123745652Y-82167658D01*
X123816403Y-82219730D01*
X123868636Y-82280584D01*
X123905371Y-82359887D01*
X123929634Y-82467309D01*
X123944445Y-82612517D01*
X123952829Y-82805179D01*
X123953564Y-82832628D01*
X123964120Y-83246521D01*
X123875291Y-83292456D01*
X123811018Y-83323498D01*
X123772210Y-83338206D01*
X123770415Y-83338391D01*
X123763700Y-83311250D01*
X123758365Y-83238041D01*
X123755083Y-83131081D01*
X123754368Y-83044469D01*
X123754351Y-82904162D01*
X123747937Y-82816051D01*
X123725580Y-82774025D01*
X123677732Y-82771975D01*
X123594849Y-82803790D01*
X123469713Y-82862272D01*
X123377697Y-82910845D01*
X123330371Y-82952986D01*
X123316458Y-82998916D01*
X123316437Y-83001189D01*
X123339395Y-83080311D01*
X123407370Y-83123055D01*
X123511398Y-83129246D01*
X123586330Y-83128172D01*
X123625839Y-83149753D01*
X123650478Y-83201591D01*
X123664659Y-83267632D01*
X123644223Y-83305104D01*
X123636528Y-83310467D01*
X123564083Y-83332006D01*
X123462633Y-83335055D01*
X123358157Y-83320778D01*
X123284125Y-83294688D01*
X123181772Y-83207785D01*
X123123591Y-83086816D01*
X123112069Y-82992308D01*
X123120862Y-82907062D01*
X123152680Y-82837476D01*
X123215684Y-82775672D01*
X123318031Y-82713772D01*
X123467882Y-82643897D01*
X123477012Y-82639948D01*
X123611997Y-82577588D01*
X123695294Y-82526446D01*
X123730997Y-82480488D01*
X123723203Y-82433683D01*
X123676007Y-82379998D01*
X123661894Y-82367644D01*
X123567359Y-82319741D01*
X123469406Y-82321758D01*
X123384097Y-82368724D01*
X123327496Y-82455669D01*
X123322237Y-82472734D01*
X123271023Y-82555504D01*
X123206037Y-82595372D01*
X123112069Y-82634882D01*
X123112069Y-82532658D01*
X123140653Y-82384072D01*
X123225495Y-82247784D01*
X123269645Y-82202191D01*
X123370005Y-82143674D01*
X123497635Y-82117184D01*
X123629944Y-82124360D01*
G36*
X118101812Y-82682821D02*
G01*
X118382414Y-82682821D01*
X118383991Y-82807326D01*
X118391000Y-82888787D01*
X118406858Y-82942515D01*
X118434981Y-82983823D01*
X118454075Y-83003971D01*
X118532135Y-83062921D01*
X118601247Y-83067720D01*
X118672560Y-83019038D01*
X118674368Y-83017241D01*
X118703383Y-82979618D01*
X118721033Y-82928484D01*
X118729936Y-82849738D01*
X118732709Y-82729276D01*
X118732759Y-82702588D01*
X118726058Y-82536583D01*
X118704248Y-82421505D01*
X118664765Y-82351254D01*
X118605044Y-82319729D01*
X118570528Y-82316552D01*
X118488611Y-82331460D01*
X118432421Y-82380548D01*
X118398598Y-82470362D01*
X118383780Y-82607445D01*
X118382414Y-82682821D01*
X118101812Y-82682821D01*
X118102287Y-82655952D01*
X118106247Y-82525382D01*
X118111826Y-82430087D01*
X118119746Y-82362364D01*
X118130731Y-82314507D01*
X118145501Y-82278813D01*
X118164782Y-82247578D01*
X118173049Y-82235824D01*
X118282712Y-82124797D01*
X118421365Y-82061847D01*
X118581754Y-82044297D01*
X118721900Y-82061903D01*
X118833450Y-82117522D01*
X118931908Y-82219931D01*
X118959023Y-82257864D01*
X118988562Y-82307500D01*
X119007728Y-82361412D01*
X119018693Y-82433364D01*
X119023629Y-82537122D01*
X119024713Y-82674101D01*
X119019818Y-82861815D01*
X119002804Y-83002758D01*
X118970177Y-83107908D01*
X118918442Y-83188243D01*
X118844104Y-83254741D01*
X118838642Y-83258678D01*
X118765380Y-83298953D01*
X118677160Y-83318880D01*
X118564962Y-83323793D01*
X118382567Y-83323793D01*
X118382491Y-83500857D01*
X118380793Y-83599470D01*
X118370450Y-83657314D01*
X118343422Y-83692006D01*
X118291668Y-83721164D01*
X118279239Y-83727121D01*
X118221077Y-83755039D01*
X118176044Y-83772672D01*
X118142559Y-83774194D01*
X118119038Y-83753781D01*
X118103900Y-83705607D01*
X118095563Y-83623846D01*
X118092444Y-83502672D01*
X118092960Y-83336260D01*
X118095529Y-83118785D01*
X118096332Y-83053736D01*
X118099222Y-82829502D01*
X118101812Y-82682821D01*
G37*
X118101812Y-82682821D02*
X118382414Y-82682821D01*
X118383991Y-82807326D01*
X118391000Y-82888787D01*
X118406858Y-82942515D01*
X118434981Y-82983823D01*
X118454075Y-83003971D01*
X118532135Y-83062921D01*
X118601247Y-83067720D01*
X118672560Y-83019038D01*
X118674368Y-83017241D01*
X118703383Y-82979618D01*
X118721033Y-82928484D01*
X118729936Y-82849738D01*
X118732709Y-82729276D01*
X118732759Y-82702588D01*
X118726058Y-82536583D01*
X118704248Y-82421505D01*
X118664765Y-82351254D01*
X118605044Y-82319729D01*
X118570528Y-82316552D01*
X118488611Y-82331460D01*
X118432421Y-82380548D01*
X118398598Y-82470362D01*
X118383780Y-82607445D01*
X118382414Y-82682821D01*
X118101812Y-82682821D01*
X118102287Y-82655952D01*
X118106247Y-82525382D01*
X118111826Y-82430087D01*
X118119746Y-82362364D01*
X118130731Y-82314507D01*
X118145501Y-82278813D01*
X118164782Y-82247578D01*
X118173049Y-82235824D01*
X118282712Y-82124797D01*
X118421365Y-82061847D01*
X118581754Y-82044297D01*
X118721900Y-82061903D01*
X118833450Y-82117522D01*
X118931908Y-82219931D01*
X118959023Y-82257864D01*
X118988562Y-82307500D01*
X119007728Y-82361412D01*
X119018693Y-82433364D01*
X119023629Y-82537122D01*
X119024713Y-82674101D01*
X119019818Y-82861815D01*
X119002804Y-83002758D01*
X118970177Y-83107908D01*
X118918442Y-83188243D01*
X118844104Y-83254741D01*
X118838642Y-83258678D01*
X118765380Y-83298953D01*
X118677160Y-83318880D01*
X118564962Y-83323793D01*
X118382567Y-83323793D01*
X118382491Y-83500857D01*
X118380793Y-83599470D01*
X118370450Y-83657314D01*
X118343422Y-83692006D01*
X118291668Y-83721164D01*
X118279239Y-83727121D01*
X118221077Y-83755039D01*
X118176044Y-83772672D01*
X118142559Y-83774194D01*
X118119038Y-83753781D01*
X118103900Y-83705607D01*
X118095563Y-83623846D01*
X118092444Y-83502672D01*
X118092960Y-83336260D01*
X118095529Y-83118785D01*
X118096332Y-83053736D01*
X118099222Y-82829502D01*
X118101812Y-82682821D01*
G36*
X127864406Y-82135156D02*
G01*
X127948469Y-82173393D01*
X128014450Y-82219726D01*
X128062794Y-82271532D01*
X128096172Y-82338363D01*
X128117253Y-82429769D01*
X128128707Y-82555301D01*
X128133203Y-82724508D01*
X128133678Y-82835933D01*
X128133678Y-83270627D01*
X128059316Y-83304509D01*
X128000746Y-83329272D01*
X127971730Y-83338391D01*
X127966179Y-83311257D01*
X127961775Y-83238094D01*
X127959078Y-83131263D01*
X127958506Y-83046437D01*
X127956046Y-82923887D01*
X127949412Y-82826668D01*
X127939726Y-82767134D01*
X127932032Y-82754483D01*
X127880311Y-82767402D01*
X127799117Y-82800539D01*
X127705102Y-82845461D01*
X127614917Y-82893735D01*
X127545215Y-82936928D01*
X127512648Y-82966608D01*
X127512519Y-82966929D01*
X127515320Y-83021857D01*
X127540439Y-83074292D01*
X127584541Y-83116881D01*
X127648909Y-83131126D01*
X127703921Y-83129466D01*
X127781835Y-83128245D01*
X127822732Y-83146498D01*
X127847295Y-83194726D01*
X127850392Y-83203820D01*
X127861040Y-83272598D01*
X127832565Y-83314360D01*
X127758344Y-83334263D01*
X127678168Y-83337944D01*
X127533890Y-83310658D01*
X127459203Y-83271690D01*
X127366963Y-83180148D01*
X127318043Y-83067782D01*
X127313654Y-82949051D01*
X127355001Y-82838411D01*
X127417197Y-82769080D01*
X127479294Y-82730265D01*
X127576895Y-82681125D01*
X127690632Y-82631292D01*
X127709590Y-82623677D01*
X127834521Y-82568545D01*
X127906539Y-82519954D01*
X127929700Y-82471647D01*
X127908064Y-82417370D01*
X127870920Y-82374943D01*
X127783127Y-82322702D01*
X127686530Y-82318784D01*
X127597944Y-82359041D01*
X127534186Y-82439326D01*
X127525817Y-82460040D01*
X127477096Y-82536225D01*
X127405965Y-82592785D01*
X127316207Y-82639201D01*
X127316207Y-82507584D01*
X127321490Y-82427168D01*
X127344142Y-82363786D01*
X127394367Y-82296163D01*
X127442582Y-82244076D01*
X127517554Y-82170322D01*
X127575806Y-82130702D01*
X127638372Y-82114810D01*
X127709193Y-82112184D01*
X127864406Y-82135156D01*
G37*
X127864406Y-82135156D02*
X127948469Y-82173393D01*
X128014450Y-82219726D01*
X128062794Y-82271532D01*
X128096172Y-82338363D01*
X128117253Y-82429769D01*
X128128707Y-82555301D01*
X128133203Y-82724508D01*
X128133678Y-82835933D01*
X128133678Y-83270627D01*
X128059316Y-83304509D01*
X128000746Y-83329272D01*
X127971730Y-83338391D01*
X127966179Y-83311257D01*
X127961775Y-83238094D01*
X127959078Y-83131263D01*
X127958506Y-83046437D01*
X127956046Y-82923887D01*
X127949412Y-82826668D01*
X127939726Y-82767134D01*
X127932032Y-82754483D01*
X127880311Y-82767402D01*
X127799117Y-82800539D01*
X127705102Y-82845461D01*
X127614917Y-82893735D01*
X127545215Y-82936928D01*
X127512648Y-82966608D01*
X127512519Y-82966929D01*
X127515320Y-83021857D01*
X127540439Y-83074292D01*
X127584541Y-83116881D01*
X127648909Y-83131126D01*
X127703921Y-83129466D01*
X127781835Y-83128245D01*
X127822732Y-83146498D01*
X127847295Y-83194726D01*
X127850392Y-83203820D01*
X127861040Y-83272598D01*
X127832565Y-83314360D01*
X127758344Y-83334263D01*
X127678168Y-83337944D01*
X127533890Y-83310658D01*
X127459203Y-83271690D01*
X127366963Y-83180148D01*
X127318043Y-83067782D01*
X127313654Y-82949051D01*
X127355001Y-82838411D01*
X127417197Y-82769080D01*
X127479294Y-82730265D01*
X127576895Y-82681125D01*
X127690632Y-82631292D01*
X127709590Y-82623677D01*
X127834521Y-82568545D01*
X127906539Y-82519954D01*
X127929700Y-82471647D01*
X127908064Y-82417370D01*
X127870920Y-82374943D01*
X127783127Y-82322702D01*
X127686530Y-82318784D01*
X127597944Y-82359041D01*
X127534186Y-82439326D01*
X127525817Y-82460040D01*
X127477096Y-82536225D01*
X127405965Y-82592785D01*
X127316207Y-82639201D01*
X127316207Y-82507584D01*
X127321490Y-82427168D01*
X127344142Y-82363786D01*
X127394367Y-82296163D01*
X127442582Y-82244076D01*
X127517554Y-82170322D01*
X127575806Y-82130702D01*
X127638372Y-82114810D01*
X127709193Y-82112184D01*
X127864406Y-82135156D01*
G36*
X123759014Y-72652998D02*
G01*
X123917006Y-72653863D01*
X124031347Y-72656205D01*
X124109407Y-72660762D01*
X124158554Y-72668270D01*
X124186159Y-72679466D01*
X124199592Y-72695088D01*
X124206221Y-72715873D01*
X124206865Y-72718563D01*
X124216935Y-72767113D01*
X124235575Y-72862905D01*
X124260845Y-72995743D01*
X124290807Y-73155431D01*
X124323522Y-73331774D01*
X124324664Y-73337967D01*
X124357433Y-73510782D01*
X124388093Y-73663469D01*
X124414664Y-73786871D01*
X124435167Y-73871831D01*
X124447626Y-73909190D01*
X124448220Y-73909852D01*
X124484919Y-73928095D01*
X124560586Y-73958497D01*
X124658878Y-73994493D01*
X124659425Y-73994685D01*
X124783233Y-74041222D01*
X124929196Y-74100504D01*
X125066781Y-74160109D01*
X125073293Y-74163056D01*
X125297390Y-74264765D01*
X125793619Y-73925897D01*
X125945846Y-73822592D01*
X126083741Y-73730237D01*
X126199315Y-73654084D01*
X126284579Y-73599385D01*
X126331544Y-73571393D01*
X126336004Y-73569317D01*
X126370134Y-73578560D01*
X126433881Y-73623156D01*
X126529731Y-73705209D01*
X126660169Y-73826821D01*
X126793328Y-73956205D01*
X126921694Y-74083702D01*
X127036581Y-74200046D01*
X127131073Y-74298052D01*
X127198253Y-74370536D01*
X127231206Y-74410313D01*
X127232432Y-74412361D01*
X127236074Y-74439656D01*
X127222350Y-74484234D01*
X127187869Y-74552112D01*
X127129239Y-74649311D01*
X127043070Y-74781851D01*
X126928200Y-74952476D01*
X126826254Y-75102655D01*
X126735123Y-75237350D01*
X126660073Y-75348740D01*
X126606369Y-75429005D01*
X126579280Y-75470325D01*
X126577574Y-75473130D01*
X126580882Y-75512721D01*
X126605953Y-75589669D01*
X126647798Y-75689432D01*
X126662712Y-75721291D01*
X126727786Y-75863226D01*
X126797212Y-76024273D01*
X126853609Y-76163621D01*
X126894247Y-76267044D01*
X126926526Y-76345642D01*
X126945178Y-76386720D01*
X126947497Y-76389885D01*
X126981803Y-76395128D01*
X127062669Y-76409494D01*
X127179343Y-76430937D01*
X127321075Y-76457413D01*
X127477110Y-76486877D01*
X127636698Y-76517283D01*
X127789085Y-76546588D01*
X127923521Y-76572745D01*
X128029252Y-76593710D01*
X128095526Y-76607439D01*
X128111782Y-76611320D01*
X128128573Y-76620900D01*
X128141249Y-76642536D01*
X128150378Y-76683531D01*
X128156531Y-76751189D01*
X128160280Y-76852812D01*
X128162192Y-76995703D01*
X128162840Y-77187165D01*
X128162874Y-77265645D01*
X128162874Y-77903906D01*
X128009598Y-77934160D01*
X127924322Y-77950564D01*
X127797070Y-77974509D01*
X127643315Y-78003107D01*
X127478534Y-78033467D01*
X127432989Y-78041806D01*
X127280932Y-78071370D01*
X127148468Y-78100442D01*
X127046714Y-78126329D01*
X126986788Y-78146337D01*
X126976805Y-78152301D01*
X126952293Y-78194534D01*
X126917148Y-78276370D01*
X126878173Y-78381683D01*
X126870442Y-78404368D01*
X126819360Y-78545018D01*
X126755954Y-78703714D01*
X126693904Y-78846225D01*
X126693598Y-78846886D01*
X126590267Y-79070440D01*
X127269961Y-80070232D01*
X126833621Y-80507300D01*
X126701649Y-80637381D01*
X126581279Y-80752048D01*
X126479273Y-80845181D01*
X126402391Y-80910658D01*
X126357393Y-80942357D01*
X126350938Y-80944368D01*
X126313040Y-80928529D01*
X126235708Y-80884496D01*
X126127389Y-80817490D01*
X125996532Y-80732734D01*
X125855052Y-80637816D01*
X125711461Y-80540998D01*
X125583435Y-80456751D01*
X125479105Y-80390258D01*
X125406600Y-80346702D01*
X125374158Y-80331264D01*
X125334576Y-80344328D01*
X125259519Y-80378750D01*
X125164468Y-80427380D01*
X125154392Y-80432785D01*
X125026391Y-80496980D01*
X124938618Y-80528463D01*
X124884028Y-80528798D01*
X124855575Y-80499548D01*
X124855410Y-80499138D01*
X124841188Y-80464498D01*
X124807269Y-80382269D01*
X124756284Y-80258814D01*
X124690862Y-80100498D01*
X124613634Y-79913686D01*
X124527229Y-79704742D01*
X124443551Y-79502446D01*
X124351588Y-79279200D01*
X124267150Y-79072392D01*
X124192769Y-78888362D01*
X124130974Y-78733451D01*
X124084297Y-78613996D01*
X124055268Y-78536339D01*
X124046322Y-78507356D01*
X124068756Y-78474110D01*
X124127439Y-78421123D01*
X124205689Y-78362704D01*
X124428534Y-78177952D01*
X124602718Y-77966182D01*
X124726154Y-77731856D01*
X124796754Y-77479434D01*
X124812431Y-77213377D01*
X124801036Y-77090575D01*
X124738950Y-76835793D01*
X124632023Y-76610801D01*
X124486889Y-76417817D01*
X124310178Y-76259061D01*
X124108522Y-76136750D01*
X123888554Y-76053105D01*
X123656906Y-76010344D01*
X123420209Y-76010687D01*
X123185095Y-76056352D01*
X122958196Y-76149559D01*
X122746144Y-76292527D01*
X122657636Y-76373383D01*
X122487889Y-76581007D01*
X122369699Y-76807895D01*
X122302278Y-77047433D01*
X122284840Y-77293007D01*
X122316598Y-77538003D01*
X122396765Y-77775808D01*
X122524555Y-77999807D01*
X122699180Y-78203387D01*
X122894312Y-78362704D01*
X122975591Y-78423602D01*
X123033009Y-78476015D01*
X123053678Y-78507406D01*
X123042856Y-78541639D01*
X123012077Y-78623419D01*
X122963874Y-78746407D01*
X122900778Y-78904263D01*
X122825322Y-79090649D01*
X122740038Y-79299226D01*
X122656219Y-79502496D01*
X122563745Y-79725933D01*
X122478089Y-79932984D01*
X122401882Y-80117286D01*
X122337753Y-80272475D01*
X122288332Y-80392188D01*
X122256248Y-80470061D01*
X122244359Y-80499138D01*
X122216274Y-80528677D01*
X122161949Y-80528591D01*
X122074395Y-80497326D01*
X121946619Y-80433329D01*
X121945608Y-80432785D01*
X121849402Y-80383121D01*
X121771631Y-80346945D01*
X121727777Y-80331408D01*
X121725842Y-80331264D01*
X121692829Y-80347024D01*
X121619946Y-80390850D01*
X121515322Y-80457557D01*
X121387090Y-80541964D01*
X121244948Y-80637816D01*
X121100233Y-80734867D01*
X120969804Y-80819270D01*
X120862110Y-80885801D01*
X120785598Y-80929238D01*
X120749062Y-80944368D01*
X120715418Y-80924482D01*
X120647776Y-80868903D01*
X120552893Y-80783754D01*
X120437530Y-80675153D01*
X120308445Y-80549221D01*
X120266229Y-80507149D01*
X119829739Y-80069931D01*
X120161977Y-79582340D01*
X120262946Y-79432605D01*
X120351562Y-79298220D01*
X120422854Y-79186969D01*
X120471850Y-79106639D01*
X120493578Y-79065014D01*
X120494215Y-79062053D01*
X120482760Y-79022818D01*
X120451949Y-78943895D01*
X120407116Y-78838509D01*
X120375647Y-78767954D01*
X120316808Y-78632876D01*
X120261396Y-78496409D01*
X120218436Y-78381103D01*
X120206766Y-78345977D01*
X120173611Y-78252174D01*
X120141201Y-78179694D01*
X120123399Y-78152301D01*
X120084114Y-78135536D01*
X119998374Y-78111770D01*
X119877303Y-78083697D01*
X119732027Y-78054009D01*
X119667012Y-78041806D01*
X119501913Y-78011468D01*
X119343552Y-77982093D01*
X119207404Y-77956569D01*
X119108943Y-77937785D01*
X119090402Y-77934160D01*
X118937127Y-77903906D01*
X118937127Y-77265645D01*
X118937471Y-77055770D01*
X118938884Y-76896980D01*
X118941936Y-76781973D01*
X118947197Y-76703446D01*
X118955237Y-76654096D01*
X118966627Y-76626619D01*
X118981937Y-76613713D01*
X118988218Y-76611320D01*
X119026104Y-76602833D01*
X119109805Y-76585900D01*
X119228567Y-76562566D01*
X119371639Y-76534875D01*
X119528268Y-76504873D01*
X119687703Y-76474604D01*
X119839191Y-76446115D01*
X119971981Y-76421449D01*
X120075319Y-76402651D01*
X120138455Y-76391767D01*
X120152503Y-76389885D01*
X120165230Y-76364704D01*
X120193400Y-76297622D01*
X120231748Y-76201333D01*
X120246391Y-76163621D01*
X120305452Y-76017921D01*
X120375000Y-75856951D01*
X120437288Y-75721291D01*
X120483121Y-75617561D01*
X120513613Y-75532326D01*
X120523792Y-75480126D01*
X120522169Y-75473130D01*
X120500657Y-75440102D01*
X120451535Y-75366643D01*
X120380077Y-75260577D01*
X120291555Y-75129726D01*
X120191241Y-74981912D01*
X120171406Y-74952734D01*
X120055012Y-74779863D01*
X119969452Y-74648226D01*
X119911316Y-74551761D01*
X119877192Y-74484408D01*
X119863669Y-74440106D01*
X119867336Y-74412794D01*
X119867430Y-74412620D01*
X119896293Y-74376746D01*
X119960133Y-74307391D01*
X120052031Y-74211745D01*
X120165067Y-74096999D01*
X120292321Y-73970341D01*
X120306672Y-73956205D01*
X120467043Y-73800903D01*
X120590805Y-73686870D01*
X120680445Y-73612002D01*
X120738448Y-73574196D01*
X120763996Y-73569317D01*
X120801282Y-73590603D01*
X120878657Y-73639773D01*
X120988133Y-73711575D01*
X121121720Y-73800755D01*
X121271430Y-73902063D01*
X121306382Y-73925897D01*
X121802610Y-74264765D01*
X122026707Y-74163056D01*
X122162989Y-74103783D01*
X122309276Y-74044170D01*
X122435035Y-73996640D01*
X122440575Y-73994685D01*
X122538943Y-73958677D01*
X122614771Y-73928229D01*
X122651718Y-73909905D01*
X122651780Y-73909852D01*
X122663504Y-73876729D01*
X122683432Y-73795267D01*
X122709587Y-73674625D01*
X122739990Y-73523959D01*
X122772663Y-73352428D01*
X122775336Y-73337967D01*
X122808110Y-73161235D01*
X122838198Y-73000810D01*
X122863661Y-72866888D01*
X122882559Y-72769663D01*
X122892953Y-72719332D01*
X122893135Y-72718563D01*
X122899461Y-72697153D01*
X122911761Y-72680988D01*
X122937406Y-72669331D01*
X122983765Y-72661445D01*
X123058208Y-72656593D01*
X123168105Y-72654039D01*
X123320825Y-72653045D01*
X123523738Y-72652874D01*
X123550000Y-72652874D01*
X123759014Y-72652998D01*
G37*
X123759014Y-72652998D02*
X123917006Y-72653863D01*
X124031347Y-72656205D01*
X124109407Y-72660762D01*
X124158554Y-72668270D01*
X124186159Y-72679466D01*
X124199592Y-72695088D01*
X124206221Y-72715873D01*
X124206865Y-72718563D01*
X124216935Y-72767113D01*
X124235575Y-72862905D01*
X124260845Y-72995743D01*
X124290807Y-73155431D01*
X124323522Y-73331774D01*
X124324664Y-73337967D01*
X124357433Y-73510782D01*
X124388093Y-73663469D01*
X124414664Y-73786871D01*
X124435167Y-73871831D01*
X124447626Y-73909190D01*
X124448220Y-73909852D01*
X124484919Y-73928095D01*
X124560586Y-73958497D01*
X124658878Y-73994493D01*
X124659425Y-73994685D01*
X124783233Y-74041222D01*
X124929196Y-74100504D01*
X125066781Y-74160109D01*
X125073293Y-74163056D01*
X125297390Y-74264765D01*
X125793619Y-73925897D01*
X125945846Y-73822592D01*
X126083741Y-73730237D01*
X126199315Y-73654084D01*
X126284579Y-73599385D01*
X126331544Y-73571393D01*
X126336004Y-73569317D01*
X126370134Y-73578560D01*
X126433881Y-73623156D01*
X126529731Y-73705209D01*
X126660169Y-73826821D01*
X126793328Y-73956205D01*
X126921694Y-74083702D01*
X127036581Y-74200046D01*
X127131073Y-74298052D01*
X127198253Y-74370536D01*
X127231206Y-74410313D01*
X127232432Y-74412361D01*
X127236074Y-74439656D01*
X127222350Y-74484234D01*
X127187869Y-74552112D01*
X127129239Y-74649311D01*
X127043070Y-74781851D01*
X126928200Y-74952476D01*
X126826254Y-75102655D01*
X126735123Y-75237350D01*
X126660073Y-75348740D01*
X126606369Y-75429005D01*
X126579280Y-75470325D01*
X126577574Y-75473130D01*
X126580882Y-75512721D01*
X126605953Y-75589669D01*
X126647798Y-75689432D01*
X126662712Y-75721291D01*
X126727786Y-75863226D01*
X126797212Y-76024273D01*
X126853609Y-76163621D01*
X126894247Y-76267044D01*
X126926526Y-76345642D01*
X126945178Y-76386720D01*
X126947497Y-76389885D01*
X126981803Y-76395128D01*
X127062669Y-76409494D01*
X127179343Y-76430937D01*
X127321075Y-76457413D01*
X127477110Y-76486877D01*
X127636698Y-76517283D01*
X127789085Y-76546588D01*
X127923521Y-76572745D01*
X128029252Y-76593710D01*
X128095526Y-76607439D01*
X128111782Y-76611320D01*
X128128573Y-76620900D01*
X128141249Y-76642536D01*
X128150378Y-76683531D01*
X128156531Y-76751189D01*
X128160280Y-76852812D01*
X128162192Y-76995703D01*
X128162840Y-77187165D01*
X128162874Y-77265645D01*
X128162874Y-77903906D01*
X128009598Y-77934160D01*
X127924322Y-77950564D01*
X127797070Y-77974509D01*
X127643315Y-78003107D01*
X127478534Y-78033467D01*
X127432989Y-78041806D01*
X127280932Y-78071370D01*
X127148468Y-78100442D01*
X127046714Y-78126329D01*
X126986788Y-78146337D01*
X126976805Y-78152301D01*
X126952293Y-78194534D01*
X126917148Y-78276370D01*
X126878173Y-78381683D01*
X126870442Y-78404368D01*
X126819360Y-78545018D01*
X126755954Y-78703714D01*
X126693904Y-78846225D01*
X126693598Y-78846886D01*
X126590267Y-79070440D01*
X127269961Y-80070232D01*
X126833621Y-80507300D01*
X126701649Y-80637381D01*
X126581279Y-80752048D01*
X126479273Y-80845181D01*
X126402391Y-80910658D01*
X126357393Y-80942357D01*
X126350938Y-80944368D01*
X126313040Y-80928529D01*
X126235708Y-80884496D01*
X126127389Y-80817490D01*
X125996532Y-80732734D01*
X125855052Y-80637816D01*
X125711461Y-80540998D01*
X125583435Y-80456751D01*
X125479105Y-80390258D01*
X125406600Y-80346702D01*
X125374158Y-80331264D01*
X125334576Y-80344328D01*
X125259519Y-80378750D01*
X125164468Y-80427380D01*
X125154392Y-80432785D01*
X125026391Y-80496980D01*
X124938618Y-80528463D01*
X124884028Y-80528798D01*
X124855575Y-80499548D01*
X124855410Y-80499138D01*
X124841188Y-80464498D01*
X124807269Y-80382269D01*
X124756284Y-80258814D01*
X124690862Y-80100498D01*
X124613634Y-79913686D01*
X124527229Y-79704742D01*
X124443551Y-79502446D01*
X124351588Y-79279200D01*
X124267150Y-79072392D01*
X124192769Y-78888362D01*
X124130974Y-78733451D01*
X124084297Y-78613996D01*
X124055268Y-78536339D01*
X124046322Y-78507356D01*
X124068756Y-78474110D01*
X124127439Y-78421123D01*
X124205689Y-78362704D01*
X124428534Y-78177952D01*
X124602718Y-77966182D01*
X124726154Y-77731856D01*
X124796754Y-77479434D01*
X124812431Y-77213377D01*
X124801036Y-77090575D01*
X124738950Y-76835793D01*
X124632023Y-76610801D01*
X124486889Y-76417817D01*
X124310178Y-76259061D01*
X124108522Y-76136750D01*
X123888554Y-76053105D01*
X123656906Y-76010344D01*
X123420209Y-76010687D01*
X123185095Y-76056352D01*
X122958196Y-76149559D01*
X122746144Y-76292527D01*
X122657636Y-76373383D01*
X122487889Y-76581007D01*
X122369699Y-76807895D01*
X122302278Y-77047433D01*
X122284840Y-77293007D01*
X122316598Y-77538003D01*
X122396765Y-77775808D01*
X122524555Y-77999807D01*
X122699180Y-78203387D01*
X122894312Y-78362704D01*
X122975591Y-78423602D01*
X123033009Y-78476015D01*
X123053678Y-78507406D01*
X123042856Y-78541639D01*
X123012077Y-78623419D01*
X122963874Y-78746407D01*
X122900778Y-78904263D01*
X122825322Y-79090649D01*
X122740038Y-79299226D01*
X122656219Y-79502496D01*
X122563745Y-79725933D01*
X122478089Y-79932984D01*
X122401882Y-80117286D01*
X122337753Y-80272475D01*
X122288332Y-80392188D01*
X122256248Y-80470061D01*
X122244359Y-80499138D01*
X122216274Y-80528677D01*
X122161949Y-80528591D01*
X122074395Y-80497326D01*
X121946619Y-80433329D01*
X121945608Y-80432785D01*
X121849402Y-80383121D01*
X121771631Y-80346945D01*
X121727777Y-80331408D01*
X121725842Y-80331264D01*
X121692829Y-80347024D01*
X121619946Y-80390850D01*
X121515322Y-80457557D01*
X121387090Y-80541964D01*
X121244948Y-80637816D01*
X121100233Y-80734867D01*
X120969804Y-80819270D01*
X120862110Y-80885801D01*
X120785598Y-80929238D01*
X120749062Y-80944368D01*
X120715418Y-80924482D01*
X120647776Y-80868903D01*
X120552893Y-80783754D01*
X120437530Y-80675153D01*
X120308445Y-80549221D01*
X120266229Y-80507149D01*
X119829739Y-80069931D01*
X120161977Y-79582340D01*
X120262946Y-79432605D01*
X120351562Y-79298220D01*
X120422854Y-79186969D01*
X120471850Y-79106639D01*
X120493578Y-79065014D01*
X120494215Y-79062053D01*
X120482760Y-79022818D01*
X120451949Y-78943895D01*
X120407116Y-78838509D01*
X120375647Y-78767954D01*
X120316808Y-78632876D01*
X120261396Y-78496409D01*
X120218436Y-78381103D01*
X120206766Y-78345977D01*
X120173611Y-78252174D01*
X120141201Y-78179694D01*
X120123399Y-78152301D01*
X120084114Y-78135536D01*
X119998374Y-78111770D01*
X119877303Y-78083697D01*
X119732027Y-78054009D01*
X119667012Y-78041806D01*
X119501913Y-78011468D01*
X119343552Y-77982093D01*
X119207404Y-77956569D01*
X119108943Y-77937785D01*
X119090402Y-77934160D01*
X118937127Y-77903906D01*
X118937127Y-77265645D01*
X118937471Y-77055770D01*
X118938884Y-76896980D01*
X118941936Y-76781973D01*
X118947197Y-76703446D01*
X118955237Y-76654096D01*
X118966627Y-76626619D01*
X118981937Y-76613713D01*
X118988218Y-76611320D01*
X119026104Y-76602833D01*
X119109805Y-76585900D01*
X119228567Y-76562566D01*
X119371639Y-76534875D01*
X119528268Y-76504873D01*
X119687703Y-76474604D01*
X119839191Y-76446115D01*
X119971981Y-76421449D01*
X120075319Y-76402651D01*
X120138455Y-76391767D01*
X120152503Y-76389885D01*
X120165230Y-76364704D01*
X120193400Y-76297622D01*
X120231748Y-76201333D01*
X120246391Y-76163621D01*
X120305452Y-76017921D01*
X120375000Y-75856951D01*
X120437288Y-75721291D01*
X120483121Y-75617561D01*
X120513613Y-75532326D01*
X120523792Y-75480126D01*
X120522169Y-75473130D01*
X120500657Y-75440102D01*
X120451535Y-75366643D01*
X120380077Y-75260577D01*
X120291555Y-75129726D01*
X120191241Y-74981912D01*
X120171406Y-74952734D01*
X120055012Y-74779863D01*
X119969452Y-74648226D01*
X119911316Y-74551761D01*
X119877192Y-74484408D01*
X119863669Y-74440106D01*
X119867336Y-74412794D01*
X119867430Y-74412620D01*
X119896293Y-74376746D01*
X119960133Y-74307391D01*
X120052031Y-74211745D01*
X120165067Y-74096999D01*
X120292321Y-73970341D01*
X120306672Y-73956205D01*
X120467043Y-73800903D01*
X120590805Y-73686870D01*
X120680445Y-73612002D01*
X120738448Y-73574196D01*
X120763996Y-73569317D01*
X120801282Y-73590603D01*
X120878657Y-73639773D01*
X120988133Y-73711575D01*
X121121720Y-73800755D01*
X121271430Y-73902063D01*
X121306382Y-73925897D01*
X121802610Y-74264765D01*
X122026707Y-74163056D01*
X122162989Y-74103783D01*
X122309276Y-74044170D01*
X122435035Y-73996640D01*
X122440575Y-73994685D01*
X122538943Y-73958677D01*
X122614771Y-73928229D01*
X122651718Y-73909905D01*
X122651780Y-73909852D01*
X122663504Y-73876729D01*
X122683432Y-73795267D01*
X122709587Y-73674625D01*
X122739990Y-73523959D01*
X122772663Y-73352428D01*
X122775336Y-73337967D01*
X122808110Y-73161235D01*
X122838198Y-73000810D01*
X122863661Y-72866888D01*
X122882559Y-72769663D01*
X122892953Y-72719332D01*
X122893135Y-72718563D01*
X122899461Y-72697153D01*
X122911761Y-72680988D01*
X122937406Y-72669331D01*
X122983765Y-72661445D01*
X123058208Y-72656593D01*
X123168105Y-72654039D01*
X123320825Y-72653045D01*
X123523738Y-72652874D01*
X123550000Y-72652874D01*
X123759014Y-72652998D01*
D14*
%TO.C,C3*%
X105065000Y-53161252D02*
X105065000Y-52638748D01*
X106535000Y-53161252D02*
X106535000Y-52638748D01*
%TO.C,R16*%
X98615000Y-55977064D02*
X98615000Y-55522936D01*
X100085000Y-55977064D02*
X100085000Y-55522936D01*
%TO.C,C6*%
X120488748Y-98965000D02*
X121011252Y-98965000D01*
X120488748Y-100435000D02*
X121011252Y-100435000D01*
%TO.C,R7*%
X133872936Y-68315000D02*
X134327064Y-68315000D01*
X133872936Y-69785000D02*
X134327064Y-69785000D01*
%TO.C,R10*%
X105327064Y-68185000D02*
X104872936Y-68185000D01*
X105327064Y-66715000D02*
X104872936Y-66715000D01*
D16*
%TO.C,J1*%
X129085000Y-126320000D02*
X129085000Y-113900000D01*
X129085000Y-110800000D02*
X129085000Y-104920000D01*
X113085000Y-126320000D02*
X129085000Y-126320000D01*
X113085000Y-126320000D02*
X113085000Y-113900000D01*
X113085000Y-110800000D02*
X113085000Y-104920000D01*
X113085000Y-104920000D02*
X129085000Y-104920000D01*
D10*
X112235000Y-109100000D02*
G75*
G03*
X112235000Y-109100000I-150000J0D01*
G01*
D14*
%TO.C,L2*%
X128722936Y-102615000D02*
X129177064Y-102615000D01*
X128722936Y-104085000D02*
X129177064Y-104085000D01*
%TO.C,R1*%
X113627064Y-104085000D02*
X113172936Y-104085000D01*
X113627064Y-102615000D02*
X113172936Y-102615000D01*
%TO.C,R2*%
X117527064Y-104085000D02*
X117072936Y-104085000D01*
X117527064Y-102615000D02*
X117072936Y-102615000D01*
%TO.C,R17*%
X98935000Y-89522936D02*
X98935000Y-89977064D01*
X97465000Y-89522936D02*
X97465000Y-89977064D01*
%TO.C,C12*%
X98388748Y-107915000D02*
X98911252Y-107915000D01*
X98388748Y-109385000D02*
X98911252Y-109385000D01*
%TO.C,C10*%
X118861252Y-97735000D02*
X118338748Y-97735000D01*
X118861252Y-96265000D02*
X118338748Y-96265000D01*
%TO.C,R4*%
X121427064Y-104085000D02*
X120972936Y-104085000D01*
X121427064Y-102615000D02*
X120972936Y-102615000D01*
%TO.C,C5*%
X102188748Y-114915000D02*
X102711252Y-114915000D01*
X102188748Y-116385000D02*
X102711252Y-116385000D01*
%TO.C,R13*%
X105327064Y-62035000D02*
X104872936Y-62035000D01*
X105327064Y-60565000D02*
X104872936Y-60565000D01*
%TO.C,C9*%
X127715000Y-88861252D02*
X127715000Y-88338748D01*
X129185000Y-88861252D02*
X129185000Y-88338748D01*
%TO.C,R12*%
X118372936Y-91715000D02*
X118827064Y-91715000D01*
X118372936Y-93185000D02*
X118827064Y-93185000D01*
%TO.C,C11*%
X118911252Y-95285000D02*
X118388748Y-95285000D01*
X118911252Y-93815000D02*
X118388748Y-93815000D01*
%TO.C,J5*%
X111405000Y-97720000D02*
X111405000Y-99050000D01*
X110075000Y-97720000D02*
X111405000Y-97720000D01*
X108805000Y-97720000D02*
X106205000Y-97720000D01*
X108805000Y-97720000D02*
X108805000Y-100380000D01*
X106205000Y-97720000D02*
X106205000Y-100380000D01*
X108805000Y-100380000D02*
X106205000Y-100380000D01*
%TD*%
M02*
