%
M48
M72
T01C0.0236
T02C0.0276
T03C0.0320
T04C0.0354
T05C0.0394
T06C0.0400
T07C0.0590
T08C0.0650
T09C0.1299
T10C0.1400
%
T01
X927Y572
X2242Y1789
X2242Y3576
X2202Y5128
X2616Y9128
X6218Y11820
X5399Y12809
X4124Y14415
X4143Y14990
X8954Y15742
X9639Y15616
X9305Y15002
X10726Y13702
X10935Y14616
X11950Y15580
X13340Y16088
X13009Y16856
X13675Y17257
X13939Y18368
X13950Y18939
X12891Y19604
X13757Y20691
X13490Y22919
X14332Y23769
X15805Y23513
X18317Y23592
X19801Y23588
X20332Y23580
X20848Y23588
X22305Y22872
X26470Y21391
X24687Y18746
X25572Y17376
X23147Y15809
X22631Y17639
X19848Y18100
X19777Y17045
X18108Y16702
X17757Y17344
X17250Y17340
X16750Y17340
X17757Y18002
X15537Y18159
X15624Y17163
X17659Y15761
X18387Y15683
X18360Y14730
X17277Y12754
X17273Y12250
X17313Y11754
X17336Y11218
X15950Y11907
X15254Y11238
X15824Y10761
X15805Y10214
X15057Y9675
X13824Y10820
X13698Y11718
X13561Y12777
X11994Y11163
X11998Y10273
X10698Y10793
X9057Y12832
X7773Y12061
X6935Y9734
X7293Y5970
X8817Y5458
X12368Y3647
X12832Y5006
X15454Y3982
X16261Y5789
X15474Y7769
X16651Y8143
X18281Y6978
X19167Y5706
X19824Y7069
X18687Y8647
X21179Y9100
X18958Y11281
X19533Y12238
X21104Y12151
X21155Y13376
X27305Y11978
X22167Y2411
X13368Y9533
X12525Y8706
X13608Y15246
X9513Y21820
X8179Y22423
X11210Y24065
T02
X14710Y2438
T03
X3607Y17339
X3607Y18339
X8057Y18689
X9057Y19189
X8057Y19689
X9057Y20189
X8057Y20689
X9057Y21189
X8057Y21689
X3607Y22539
X3607Y21539
X9057Y18189
T04
X23025Y6631
X23021Y7628
X23025Y8628
X23025Y9620
X22009Y10124
X22009Y9108
X22017Y8128
X22025Y7135
T05
X8600Y7017
X9600Y7017
T06
X27407Y4206
X26407Y4206
X25407Y4206
X24407Y4206
X26669Y16182
X26669Y17962
X15974Y7002
X14974Y7002
X13974Y7002
X12974Y7002
X11974Y7002
X10974Y7002
T07
X25689Y18452
X25689Y15692
T08
X6707Y16789
X6707Y23089
T09
X25525Y10628
X25525Y6139
T10
X5557Y17689
X5557Y22189
M30
