G75*
%MOIN*%
%OFA0B0*%
%FSLAX24Y24*%
%IPPOS*%
%LPD*%
%AMOC8*
5,1,8,0,0,1.08239X$1,22.5*
%
%ADD10OC8,0.0560*%
%ADD11C,0.0850*%
%ADD12R,0.0514X0.0514*%
%ADD13C,0.0560*%
%ADD14C,0.0554*%
%ADD15C,0.0600*%
%ADD16R,0.0600X0.0600*%
%ADD17C,0.0480*%
%ADD18C,0.0320*%
%ADD19C,0.0356*%
%ADD20C,0.0240*%
%ADD21C,0.0080*%
%ADD22C,0.0396*%
%ADD23C,0.0120*%
%ADD24R,0.0356X0.0356*%
%ADD25C,0.0100*%
D10*
X002394Y006483D03*
X003394Y006483D03*
X003394Y007483D03*
X002394Y007483D03*
X002394Y008483D03*
X002394Y009483D03*
X003394Y009483D03*
X003394Y008483D03*
X003394Y010483D03*
X002394Y010483D03*
X026668Y016620D03*
X026668Y018400D03*
D11*
X025688Y018890D03*
X025688Y016130D03*
X006705Y017227D03*
X006705Y023527D03*
D12*
X022008Y010562D03*
X022008Y009546D03*
X022016Y008566D03*
X022024Y007573D03*
X023020Y008066D03*
X023024Y007069D03*
X023024Y009066D03*
X023024Y010058D03*
D13*
X024272Y004676D02*
X024272Y004116D01*
X025272Y004116D02*
X025272Y004676D01*
X026272Y004676D02*
X026272Y004116D01*
X027272Y004116D02*
X027272Y004676D01*
X003567Y004031D02*
X003567Y003471D01*
X002567Y003471D02*
X002567Y004031D01*
X001567Y004031D02*
X001567Y003471D01*
X001544Y002105D02*
X001544Y001545D01*
X002544Y001545D02*
X002544Y002105D01*
X003544Y002105D02*
X003544Y001545D01*
D14*
X006142Y007163D02*
X006142Y007716D01*
X007142Y007716D02*
X007142Y007163D01*
X019164Y012404D02*
X019718Y012404D01*
X019718Y013404D02*
X019164Y013404D01*
X019164Y014404D02*
X019718Y014404D01*
X019718Y015404D02*
X019164Y015404D01*
X023366Y015663D02*
X023366Y016216D01*
X024366Y016216D02*
X024366Y015663D01*
D15*
X009055Y018627D03*
X008055Y019127D03*
X009055Y019627D03*
X008055Y020127D03*
X009055Y020627D03*
X008055Y021127D03*
X009055Y021627D03*
X003605Y021977D03*
X003605Y022977D03*
X003605Y018777D03*
X003605Y017777D03*
D16*
X008055Y022127D03*
D17*
X011725Y016058D03*
X011725Y015058D03*
D18*
X022024Y007573D02*
X022528Y007573D01*
X023020Y008066D01*
X023024Y008062D01*
X023024Y007069D01*
X023178Y006916D01*
X023178Y005617D01*
X023217Y005577D01*
X023461Y005404D01*
X025288Y005424D01*
X012366Y004085D02*
X012351Y003786D01*
X012351Y001404D01*
X011989Y000932D01*
X003524Y000932D01*
X001142Y000932D01*
X001083Y000932D01*
X000926Y001010D01*
D19*
X007918Y006991D03*
X009382Y006782D03*
X009977Y007211D03*
X009555Y007959D03*
X010351Y008947D03*
X009213Y009605D03*
X008268Y010353D03*
X008634Y010869D03*
X008508Y012199D03*
X008843Y013274D03*
X007764Y013416D03*
X006847Y013632D03*
X005839Y012522D03*
X006118Y011877D03*
X006611Y011837D03*
X005945Y011148D03*
X006016Y010022D03*
X004906Y009022D03*
X007977Y009290D03*
X004906Y012140D03*
X005174Y013077D03*
X004181Y014916D03*
X003465Y015869D03*
X002926Y014908D03*
X004666Y016361D03*
X004410Y016880D03*
X007181Y014940D03*
X008532Y015026D03*
X010390Y013684D03*
X011764Y013794D03*
X013343Y012943D03*
X014040Y013089D03*
X014548Y012258D03*
X014811Y011833D03*
X014807Y011337D03*
X015922Y011180D03*
X016351Y011392D03*
X015906Y012085D03*
X016331Y012703D03*
X015552Y013388D03*
X015370Y014566D03*
X015973Y014660D03*
X015851Y015361D03*
X016985Y016617D03*
X015244Y018652D03*
X013937Y018806D03*
X013949Y019377D03*
X013937Y018211D03*
X013524Y017597D03*
X012803Y018609D03*
X012890Y020042D03*
X013756Y021129D03*
X013489Y023357D03*
X014331Y024207D03*
X015803Y023951D03*
X018315Y024030D03*
X019800Y024026D03*
X020331Y024018D03*
X020847Y024026D03*
X022303Y023310D03*
X026469Y021829D03*
X019847Y018538D03*
X020059Y017837D03*
X019386Y017900D03*
X019264Y016451D03*
X020244Y013562D03*
X021414Y012030D03*
X018654Y011400D03*
X018674Y010640D03*
X018288Y009073D03*
X016811Y009896D03*
X016075Y010566D03*
X014040Y009471D03*
X013737Y009085D03*
X013500Y009479D03*
X012847Y009660D03*
X012855Y009097D03*
X013229Y008629D03*
X013536Y007995D03*
X014823Y008380D03*
X015520Y008369D03*
X016260Y006227D03*
X015453Y004420D03*
X012831Y005443D03*
X012366Y004085D03*
X018280Y007416D03*
X019166Y006144D03*
X019823Y007506D03*
X023681Y008680D03*
X024508Y007101D03*
X025288Y005424D03*
X022166Y002849D03*
X013024Y010880D03*
X011819Y010317D03*
X011607Y009751D03*
X012863Y012211D03*
X013441Y012148D03*
X014146Y015266D03*
X012638Y016589D03*
X012296Y017093D03*
X010217Y016613D03*
X009536Y022274D03*
X008445Y022983D03*
X011209Y024503D03*
X003717Y019806D03*
X001146Y012424D03*
X026115Y013928D03*
X027957Y015010D03*
D20*
X023178Y005538D02*
X024178Y004538D01*
X024272Y004396D01*
X022166Y002849D02*
X015910Y002849D01*
X014630Y004105D01*
X012831Y004117D01*
X012366Y004085D01*
X003544Y001825D02*
X003544Y000951D01*
X001142Y000932D02*
X001063Y001010D01*
X000926Y001010D01*
D21*
X023178Y005538D02*
X023217Y005577D01*
D22*
X014709Y002876D03*
D23*
X000512Y000794D02*
X000446Y008659D01*
X000685Y008420D01*
X000784Y008321D01*
X001994Y008321D01*
X001994Y008317D01*
X002228Y008083D01*
X002560Y008083D01*
X002790Y008313D01*
X002862Y008313D01*
X002974Y008425D01*
X002974Y008309D01*
X003120Y008163D01*
X002812Y008163D01*
X002706Y008057D01*
X002532Y007883D01*
X002228Y007883D01*
X001994Y007649D01*
X001994Y007317D01*
X002228Y007083D01*
X002560Y007083D01*
X002794Y007317D01*
X002794Y007636D01*
X002961Y007803D01*
X003120Y007803D01*
X002974Y007657D01*
X002974Y007523D01*
X003354Y007523D01*
X003354Y007443D01*
X002974Y007443D01*
X002974Y007309D01*
X003128Y007155D01*
X002804Y007155D01*
X002698Y007050D01*
X002698Y007028D01*
X002554Y006883D01*
X002228Y006883D01*
X001994Y006649D01*
X001994Y006317D01*
X002228Y006083D01*
X002560Y006083D01*
X002794Y006317D01*
X002794Y006642D01*
X002947Y006795D01*
X003140Y006795D01*
X002994Y006649D01*
X002994Y006317D01*
X003228Y006083D01*
X003560Y006083D01*
X003794Y006317D01*
X003794Y006649D01*
X003648Y006795D01*
X003882Y006795D01*
X004394Y007307D01*
X004499Y007412D01*
X004499Y011000D01*
X004500Y011001D01*
X004499Y011074D01*
X004499Y011148D01*
X004498Y011149D01*
X004498Y011150D01*
X004446Y011201D01*
X004394Y011253D01*
X004392Y011253D01*
X003965Y011670D01*
X003913Y011722D01*
X003912Y011722D01*
X003911Y011723D01*
X003838Y011722D01*
X003193Y011722D01*
X003104Y011749D01*
X003115Y013469D01*
X003556Y013923D01*
X011495Y013923D01*
X011466Y013853D01*
X011466Y013735D01*
X011511Y013625D01*
X011595Y013541D01*
X011705Y013496D01*
X011823Y013496D01*
X011933Y013541D01*
X012017Y013625D01*
X012036Y013671D01*
X013396Y013675D01*
X013405Y013671D01*
X013417Y013655D01*
X013253Y013655D01*
X013156Y013558D01*
X013006Y013444D01*
X009094Y013444D01*
X009012Y013527D01*
X008902Y013572D01*
X008784Y013572D01*
X008674Y013527D01*
X008590Y013443D01*
X008545Y013333D01*
X008545Y013215D01*
X008590Y013105D01*
X008668Y013028D01*
X005715Y013039D01*
X005659Y013048D01*
X005647Y013039D01*
X005631Y013039D01*
X005591Y012999D01*
X005378Y012846D01*
X005363Y012846D01*
X005323Y012806D01*
X005277Y012773D01*
X005274Y012757D01*
X005263Y012746D01*
X005263Y012689D01*
X005254Y012633D01*
X005263Y012621D01*
X005275Y004210D01*
X005217Y004210D01*
X005147Y004140D01*
X005147Y003684D01*
X005217Y003614D01*
X005665Y003614D01*
X005664Y003472D01*
X005293Y003101D01*
X005293Y002805D01*
X005245Y002805D01*
X005175Y002734D01*
X005175Y002279D01*
X005245Y002208D01*
X005701Y002208D01*
X005771Y002279D01*
X005771Y002734D01*
X005701Y002805D01*
X005653Y002805D01*
X005653Y002952D01*
X005969Y003268D01*
X006022Y003320D01*
X006022Y003321D01*
X006023Y003322D01*
X006023Y003395D01*
X006050Y006008D01*
X006135Y006065D01*
X006135Y005790D01*
X006206Y005720D01*
X006661Y005720D01*
X006732Y005790D01*
X006732Y005849D01*
X015908Y005860D01*
X015956Y005848D01*
X015976Y005860D01*
X016000Y005860D01*
X016035Y005895D01*
X016137Y005955D01*
X016201Y005929D01*
X016319Y005929D01*
X016429Y005974D01*
X016513Y006058D01*
X016558Y006168D01*
X016558Y006286D01*
X016513Y006396D01*
X016429Y006480D01*
X016319Y006525D01*
X016201Y006525D01*
X016091Y006480D01*
X016007Y006396D01*
X015962Y006286D01*
X015962Y006247D01*
X015883Y006200D01*
X013352Y006197D01*
X013364Y006228D01*
X013371Y006235D01*
X013371Y006246D01*
X014020Y007876D01*
X014227Y008138D01*
X014210Y008287D01*
X014210Y009219D01*
X014292Y009302D01*
X014293Y009303D01*
X014293Y008148D01*
X014279Y008103D01*
X014293Y008076D01*
X014293Y008046D01*
X014326Y008013D01*
X014423Y007828D01*
X014423Y007798D01*
X014456Y007765D01*
X014478Y007723D01*
X014507Y007714D01*
X014528Y007693D01*
X014575Y007693D01*
X014620Y007679D01*
X014647Y007693D01*
X016433Y007693D01*
X016457Y007679D01*
X016505Y007693D01*
X016555Y007693D01*
X016575Y007712D01*
X016601Y007719D01*
X016625Y007763D01*
X016661Y007798D01*
X016661Y007825D01*
X016799Y008070D01*
X016834Y008105D01*
X016834Y008132D01*
X016847Y008156D01*
X016834Y008204D01*
X016834Y008786D01*
X016858Y008811D01*
X018143Y008811D01*
X018228Y008775D01*
X018347Y008775D01*
X018457Y008821D01*
X018540Y008905D01*
X018586Y009014D01*
X018586Y009133D01*
X018540Y009242D01*
X018457Y009326D01*
X018347Y009371D01*
X018228Y009371D01*
X018119Y009326D01*
X018035Y009242D01*
X018005Y009171D01*
X016709Y009171D01*
X016604Y009065D01*
X016474Y008935D01*
X016474Y008227D01*
X016376Y008053D01*
X015924Y008053D01*
X015993Y008208D01*
X016021Y008235D01*
X016021Y008269D01*
X016035Y008301D01*
X016021Y008337D01*
X016021Y008553D01*
X016013Y008561D01*
X015913Y008661D01*
X015886Y008661D01*
X015863Y008683D01*
X015863Y009771D01*
X015895Y009802D01*
X015895Y009943D01*
X015795Y010043D01*
X015740Y010043D01*
X015548Y010234D01*
X015449Y010334D01*
X015225Y010334D01*
X015225Y010770D01*
X014989Y011006D01*
X014961Y011069D01*
X014950Y011073D01*
X014976Y011084D01*
X014986Y011094D01*
X015002Y011078D01*
X015055Y011078D01*
X015107Y011066D01*
X015127Y011079D01*
X015535Y011082D01*
X015535Y011082D01*
X015537Y011082D01*
X015639Y011083D01*
X015669Y011011D01*
X015753Y010927D01*
X015862Y010882D01*
X015981Y010882D01*
X016090Y010927D01*
X016115Y010951D01*
X016151Y010928D01*
X016190Y010889D01*
X016211Y010889D01*
X016229Y010878D01*
X016283Y010889D01*
X018501Y010889D01*
X018430Y010818D01*
X016260Y010802D01*
X016244Y010818D01*
X016134Y010864D01*
X016016Y010864D01*
X015906Y010818D01*
X015822Y010734D01*
X015777Y010625D01*
X015777Y010506D01*
X015822Y010397D01*
X015906Y010313D01*
X016016Y010267D01*
X016134Y010267D01*
X016244Y010313D01*
X016328Y010397D01*
X016347Y010443D01*
X018434Y010459D01*
X018505Y010388D01*
X018614Y010342D01*
X018733Y010342D01*
X018842Y010388D01*
X018926Y010471D01*
X018972Y010581D01*
X018972Y010700D01*
X018926Y010809D01*
X018846Y010889D01*
X021630Y010889D01*
X021621Y010873D01*
X021611Y010837D01*
X021611Y010590D01*
X021980Y010590D01*
X021980Y010533D01*
X022037Y010533D01*
X022037Y010590D01*
X022405Y010590D01*
X022405Y010837D01*
X022396Y010873D01*
X022386Y010889D01*
X024327Y010889D01*
X024432Y010995D01*
X024614Y011177D01*
X024614Y010885D01*
X024753Y010550D01*
X025009Y010294D01*
X025343Y010156D01*
X025705Y010156D01*
X026039Y010294D01*
X026295Y010550D01*
X026434Y010885D01*
X026434Y011246D01*
X026295Y011581D01*
X026077Y011799D01*
X026327Y011799D01*
X026547Y012019D01*
X026653Y012125D01*
X026653Y013644D01*
X026413Y013884D01*
X026413Y013987D01*
X026367Y014097D01*
X026283Y014180D01*
X026174Y014226D01*
X026055Y014226D01*
X025946Y014180D01*
X025862Y014097D01*
X025816Y013987D01*
X025816Y013868D01*
X025862Y013759D01*
X025946Y013675D01*
X026055Y013630D01*
X026158Y013630D01*
X026293Y013495D01*
X026293Y012274D01*
X026178Y012159D01*
X024808Y012159D01*
X024702Y012053D01*
X024368Y011719D01*
X024368Y011439D01*
X024178Y011249D01*
X018914Y011249D01*
X018952Y011341D01*
X018952Y011459D01*
X018914Y011552D01*
X021077Y011561D01*
X021080Y011558D01*
X021147Y011561D01*
X021213Y011561D01*
X021216Y011564D01*
X021221Y011564D01*
X021265Y011614D01*
X021312Y011661D01*
X021312Y011666D01*
X021373Y011732D01*
X021473Y011732D01*
X021583Y011777D01*
X021666Y011861D01*
X021712Y011971D01*
X021712Y012089D01*
X021666Y012199D01*
X021583Y012283D01*
X021473Y012328D01*
X021354Y012328D01*
X021245Y012283D01*
X021161Y012199D01*
X021116Y012089D01*
X021116Y011971D01*
X021120Y011960D01*
X021067Y011901D01*
X020219Y011897D01*
X020324Y012007D01*
X020320Y012156D01*
X020312Y012164D01*
X020312Y013267D01*
X020413Y013309D01*
X020497Y013393D01*
X020543Y013502D01*
X020543Y013621D01*
X020497Y013730D01*
X020496Y013732D01*
X023011Y013732D01*
X023081Y013728D01*
X023085Y013732D01*
X023091Y013732D01*
X023140Y013781D01*
X023620Y014212D01*
X023626Y014212D01*
X023675Y014262D01*
X023727Y014308D01*
X023728Y014314D01*
X023732Y014318D01*
X023732Y014387D01*
X023735Y014457D01*
X023732Y014461D01*
X023732Y015507D01*
X023763Y015584D01*
X023763Y016295D01*
X023703Y016441D01*
X023664Y016480D01*
X024043Y016480D01*
X024010Y016435D01*
X023980Y016376D01*
X023960Y016314D01*
X023950Y016249D01*
X023950Y015978D01*
X024328Y015978D01*
X024328Y015901D01*
X024405Y015901D01*
X024405Y015247D01*
X024464Y015256D01*
X024526Y015276D01*
X024585Y015306D01*
X024638Y015345D01*
X024684Y015391D01*
X024686Y015394D01*
X024686Y015263D01*
X025013Y014936D01*
X025119Y014830D01*
X027663Y014830D01*
X027663Y014822D01*
X027768Y014716D01*
X027888Y014716D01*
X027898Y014712D01*
X028016Y014712D01*
X028094Y014744D01*
X028122Y000806D01*
X012240Y000799D01*
X012562Y001219D01*
X012588Y001245D01*
X012595Y001263D01*
X012607Y001278D01*
X012616Y001314D01*
X012631Y001348D01*
X012631Y001367D01*
X012636Y001386D01*
X012631Y001423D01*
X012631Y003779D01*
X012635Y003863D01*
X012838Y003877D01*
X014531Y003866D01*
X015741Y002679D01*
X015774Y002646D01*
X015775Y002645D01*
X015776Y002644D01*
X015819Y002627D01*
X015862Y002609D01*
X015863Y002609D01*
X015864Y002609D01*
X015911Y002609D01*
X021984Y002609D01*
X021997Y002596D01*
X022106Y002551D01*
X022225Y002551D01*
X022335Y002596D01*
X022418Y002680D01*
X022464Y002790D01*
X022464Y002908D01*
X028118Y002908D01*
X028117Y003026D02*
X022410Y003026D01*
X022418Y003018D02*
X022335Y003102D01*
X022225Y003147D01*
X022106Y003147D01*
X021997Y003102D01*
X021984Y003089D01*
X016008Y003089D01*
X014800Y004275D01*
X014768Y004307D01*
X014766Y004308D01*
X014764Y004310D01*
X014722Y004327D01*
X014680Y004345D01*
X014678Y004345D01*
X014676Y004345D01*
X014630Y004345D01*
X012871Y004356D01*
X012862Y004359D01*
X012824Y004357D01*
X012785Y004357D01*
X012776Y004354D01*
X012536Y004337D01*
X012535Y004338D01*
X012426Y004383D01*
X012307Y004383D01*
X012198Y004338D01*
X012114Y004254D01*
X012068Y004144D01*
X012068Y004026D01*
X012081Y003995D01*
X012074Y003849D01*
X012071Y003842D01*
X012071Y003793D01*
X012068Y003745D01*
X012071Y003738D01*
X012071Y001499D01*
X011850Y001212D01*
X003784Y001212D01*
X003784Y001220D01*
X003883Y001319D01*
X003944Y001466D01*
X003944Y002185D01*
X003883Y002332D01*
X003770Y002444D01*
X003737Y002458D01*
X003737Y003108D01*
X003794Y003131D01*
X003906Y003244D01*
X003967Y003391D01*
X003967Y004110D01*
X003906Y004257D01*
X003794Y004370D01*
X003647Y004431D01*
X003488Y004431D01*
X003341Y004370D01*
X003228Y004257D01*
X003167Y004110D01*
X003167Y003391D01*
X003228Y003244D01*
X003341Y003131D01*
X003397Y003108D01*
X003397Y002478D01*
X003317Y002444D01*
X003205Y002332D01*
X003144Y002185D01*
X003144Y001466D01*
X003205Y001319D01*
X003304Y001220D01*
X003304Y001212D01*
X002776Y001212D01*
X002883Y001319D01*
X002944Y001466D01*
X002944Y002185D01*
X002883Y002332D01*
X002770Y002444D01*
X002623Y002505D01*
X002464Y002505D01*
X002317Y002444D01*
X002205Y002332D01*
X002144Y002185D01*
X002144Y001466D01*
X002205Y001319D01*
X002312Y001212D01*
X001799Y001212D01*
X001817Y001225D01*
X001864Y001272D01*
X001903Y001325D01*
X001933Y001384D01*
X001953Y001447D01*
X001964Y001512D01*
X001964Y001785D01*
X001584Y001785D01*
X001584Y001865D01*
X001964Y001865D01*
X001964Y002138D01*
X001953Y002204D01*
X001933Y002267D01*
X001903Y002325D01*
X001864Y002379D01*
X001817Y002426D01*
X001764Y002465D01*
X001705Y002495D01*
X001642Y002515D01*
X001584Y002524D01*
X001584Y001865D01*
X001504Y001865D01*
X001504Y001785D01*
X001124Y001785D01*
X001124Y001512D01*
X001134Y001447D01*
X001154Y001384D01*
X001184Y001325D01*
X001223Y001272D01*
X001270Y001225D01*
X001288Y001212D01*
X001224Y001212D01*
X001224Y001238D01*
X001153Y001309D01*
X000698Y001309D01*
X000627Y001238D01*
X000627Y000794D01*
X000512Y000794D01*
X000511Y000893D02*
X000627Y000893D01*
X000627Y001012D02*
X000510Y001012D01*
X000509Y001130D02*
X000627Y001130D01*
X000638Y001249D02*
X000508Y001249D01*
X000507Y001367D02*
X001163Y001367D01*
X001128Y001486D02*
X000506Y001486D01*
X000505Y001604D02*
X001124Y001604D01*
X001124Y001723D02*
X000504Y001723D01*
X000503Y001841D02*
X001504Y001841D01*
X001504Y001865D02*
X001124Y001865D01*
X001124Y002138D01*
X001134Y002204D01*
X001154Y002267D01*
X001184Y002325D01*
X001223Y002379D01*
X001270Y002426D01*
X001324Y002465D01*
X001382Y002495D01*
X001445Y002515D01*
X001504Y002524D01*
X001504Y001865D01*
X001584Y001841D02*
X002144Y001841D01*
X002144Y001723D02*
X001964Y001723D01*
X001964Y001604D02*
X002144Y001604D01*
X002144Y001486D02*
X001959Y001486D01*
X001924Y001367D02*
X002184Y001367D01*
X002274Y001249D02*
X001841Y001249D01*
X001246Y001249D02*
X001213Y001249D01*
X001124Y001960D02*
X000502Y001960D01*
X000501Y002078D02*
X001124Y002078D01*
X001133Y002197D02*
X000500Y002197D01*
X000499Y002315D02*
X001179Y002315D01*
X001281Y002434D02*
X000498Y002434D01*
X000497Y002552D02*
X003397Y002552D01*
X003397Y002671D02*
X000496Y002671D01*
X000495Y002789D02*
X003397Y002789D01*
X003397Y002908D02*
X000494Y002908D01*
X000493Y003026D02*
X003397Y003026D01*
X003327Y003145D02*
X002807Y003145D01*
X002794Y003131D02*
X002906Y003244D01*
X002967Y003391D01*
X002967Y004110D01*
X002906Y004257D01*
X002794Y004370D01*
X002647Y004431D01*
X002488Y004431D01*
X002341Y004370D01*
X002228Y004257D01*
X002167Y004110D01*
X002167Y003391D01*
X002228Y003244D01*
X002341Y003131D01*
X002488Y003071D01*
X002647Y003071D01*
X002794Y003131D01*
X002914Y003263D02*
X003220Y003263D01*
X003171Y003382D02*
X002964Y003382D01*
X002967Y003500D02*
X003167Y003500D01*
X003167Y003619D02*
X002967Y003619D01*
X002967Y003737D02*
X003167Y003737D01*
X003167Y003856D02*
X002967Y003856D01*
X002967Y003974D02*
X003167Y003974D01*
X003167Y004093D02*
X002967Y004093D01*
X002925Y004211D02*
X003209Y004211D01*
X003301Y004330D02*
X002834Y004330D01*
X002301Y004330D02*
X001862Y004330D01*
X001841Y004351D02*
X001787Y004390D01*
X001728Y004420D01*
X001666Y004440D01*
X001607Y004449D01*
X001607Y003791D01*
X001527Y003791D01*
X001527Y004449D01*
X001469Y004440D01*
X001406Y004420D01*
X001347Y004390D01*
X001294Y004351D01*
X001247Y004304D01*
X001208Y004251D01*
X001178Y004192D01*
X001158Y004129D01*
X001147Y004064D01*
X001147Y003791D01*
X001527Y003791D01*
X001527Y003711D01*
X001147Y003711D01*
X001147Y003437D01*
X001158Y003372D01*
X001178Y003309D01*
X001208Y003250D01*
X001247Y003197D01*
X001294Y003150D01*
X001347Y003111D01*
X001406Y003081D01*
X001469Y003061D01*
X001527Y003052D01*
X001527Y003711D01*
X001607Y003711D01*
X001607Y003791D01*
X001987Y003791D01*
X001987Y004064D01*
X001977Y004129D01*
X001956Y004192D01*
X001926Y004251D01*
X001888Y004304D01*
X001841Y004351D01*
X001946Y004211D02*
X002209Y004211D01*
X002167Y004093D02*
X001983Y004093D01*
X001987Y003974D02*
X002167Y003974D01*
X002167Y003856D02*
X001987Y003856D01*
X001987Y003711D02*
X001607Y003711D01*
X001607Y003052D01*
X001666Y003061D01*
X001728Y003081D01*
X001787Y003111D01*
X001841Y003150D01*
X001888Y003197D01*
X001926Y003250D01*
X001956Y003309D01*
X001977Y003372D01*
X001987Y003437D01*
X001987Y003711D01*
X001987Y003619D02*
X002167Y003619D01*
X002167Y003737D02*
X001607Y003737D01*
X001527Y003737D02*
X000487Y003737D01*
X000488Y003619D02*
X001147Y003619D01*
X001147Y003500D02*
X000489Y003500D01*
X000490Y003382D02*
X001156Y003382D01*
X001201Y003263D02*
X000491Y003263D01*
X000492Y003145D02*
X001301Y003145D01*
X001527Y003145D02*
X001607Y003145D01*
X001607Y003263D02*
X001527Y003263D01*
X001527Y003382D02*
X001607Y003382D01*
X001607Y003500D02*
X001527Y003500D01*
X001527Y003619D02*
X001607Y003619D01*
X001607Y003856D02*
X001527Y003856D01*
X001527Y003974D02*
X001607Y003974D01*
X001607Y004093D02*
X001527Y004093D01*
X001527Y004211D02*
X001607Y004211D01*
X001607Y004330D02*
X001527Y004330D01*
X001527Y004448D02*
X001607Y004448D01*
X001614Y004448D02*
X005274Y004448D01*
X005275Y004330D02*
X003834Y004330D01*
X003925Y004211D02*
X005275Y004211D01*
X005147Y004093D02*
X003967Y004093D01*
X003967Y003974D02*
X005147Y003974D01*
X005147Y003856D02*
X003967Y003856D01*
X003967Y003737D02*
X005147Y003737D01*
X005212Y003619D02*
X003967Y003619D01*
X003967Y003500D02*
X005664Y003500D01*
X005574Y003382D02*
X003964Y003382D01*
X003914Y003263D02*
X005456Y003263D01*
X005337Y003145D02*
X003807Y003145D01*
X003737Y003026D02*
X005293Y003026D01*
X005293Y002908D02*
X003737Y002908D01*
X003737Y002789D02*
X005230Y002789D01*
X005175Y002671D02*
X003737Y002671D01*
X003737Y002552D02*
X005175Y002552D01*
X005175Y002434D02*
X003781Y002434D01*
X003890Y002315D02*
X005175Y002315D01*
X005473Y002506D02*
X005473Y003026D01*
X005843Y003396D01*
X005870Y006093D01*
X005749Y006226D02*
X005612Y006226D01*
X005691Y006169D02*
X005690Y006058D01*
X005690Y006057D01*
X005671Y004210D01*
X005615Y004210D01*
X005604Y012336D01*
X005670Y012269D01*
X005604Y012269D01*
X005670Y012269D02*
X005780Y012224D01*
X005898Y012224D01*
X006008Y012269D01*
X006092Y012353D01*
X006137Y012463D01*
X006137Y012529D01*
X006572Y012529D01*
X006865Y012449D01*
X006883Y012431D01*
X006930Y012431D01*
X006976Y012418D01*
X006998Y012431D01*
X013336Y012427D01*
X013272Y012401D01*
X013189Y012317D01*
X013143Y012207D01*
X013143Y012089D01*
X013189Y011979D01*
X013272Y011895D01*
X013382Y011850D01*
X013501Y011850D01*
X013610Y011895D01*
X013694Y011979D01*
X013739Y012089D01*
X013739Y012207D01*
X013700Y012303D01*
X013709Y012325D01*
X013849Y012441D01*
X014009Y012567D01*
X014150Y012577D01*
X014203Y012569D01*
X014222Y012583D01*
X014245Y012584D01*
X014280Y012625D01*
X014392Y012706D01*
X014445Y012731D01*
X014451Y012748D01*
X014465Y012759D01*
X014475Y012816D01*
X014553Y013042D01*
X014581Y013103D01*
X014578Y013111D01*
X014581Y013120D01*
X014552Y013180D01*
X014451Y013448D01*
X014455Y013471D01*
X014425Y013515D01*
X014420Y013527D01*
X015630Y013527D01*
X015770Y013432D01*
X015764Y012564D01*
X015757Y012555D01*
X015763Y012495D01*
X015763Y012433D01*
X015770Y012426D01*
X015771Y012415D01*
X015819Y012377D01*
X015822Y012373D01*
X015737Y012338D01*
X015653Y012254D01*
X015608Y012144D01*
X015608Y012026D01*
X015644Y011939D01*
X015176Y011937D01*
X015171Y011942D01*
X015087Y011947D01*
X015064Y012002D01*
X014980Y012086D01*
X014871Y012131D01*
X014818Y012131D01*
X014846Y012199D01*
X014846Y012318D01*
X014800Y012427D01*
X014716Y012511D01*
X014607Y012557D01*
X014488Y012557D01*
X014379Y012511D01*
X014295Y012427D01*
X014249Y012318D01*
X014249Y012199D01*
X014295Y012090D01*
X014328Y012056D01*
X014328Y011083D01*
X014313Y011044D01*
X014328Y011011D01*
X014328Y010975D01*
X014357Y010946D01*
X014374Y010908D01*
X014408Y010895D01*
X014434Y010870D01*
X014475Y010870D01*
X014750Y010765D01*
X014885Y010629D01*
X014885Y010163D01*
X013196Y010163D01*
X013196Y010631D01*
X013277Y010712D01*
X013322Y010821D01*
X013322Y010940D01*
X013277Y011049D01*
X013247Y011079D01*
X013247Y011506D01*
X013142Y011612D01*
X012736Y012017D01*
X006852Y012017D01*
X006779Y012090D01*
X006670Y012135D01*
X006551Y012135D01*
X006442Y012090D01*
X006379Y012027D01*
X006371Y012045D01*
X006287Y012129D01*
X006178Y012175D01*
X006059Y012175D01*
X005950Y012129D01*
X005866Y012045D01*
X005820Y011936D01*
X005820Y011817D01*
X005866Y011708D01*
X005950Y011624D01*
X006059Y011578D01*
X006115Y011578D01*
X006478Y011215D01*
X006530Y011163D01*
X006583Y011110D01*
X006583Y011110D01*
X006584Y011110D01*
X006658Y011110D01*
X006732Y011110D01*
X006733Y011110D01*
X008457Y011113D01*
X008381Y011038D01*
X008336Y010928D01*
X008336Y010809D01*
X008381Y010700D01*
X008454Y010627D01*
X008454Y009223D01*
X009113Y008564D01*
X009122Y008192D01*
X009113Y008179D01*
X009124Y008119D01*
X009125Y008058D01*
X009136Y008047D01*
X009139Y008032D01*
X009189Y007997D01*
X009233Y007955D01*
X009248Y007955D01*
X009257Y007949D01*
X009257Y007900D01*
X009303Y007790D01*
X009378Y007715D01*
X009374Y007609D01*
X009365Y007597D01*
X009371Y007536D01*
X009369Y007475D01*
X009379Y007464D01*
X009425Y007025D01*
X009418Y006973D01*
X009433Y006953D01*
X009436Y006929D01*
X009476Y006896D01*
X009647Y006671D01*
X009647Y006657D01*
X009691Y006612D01*
X009729Y006563D01*
X009742Y006561D01*
X009752Y006551D01*
X009815Y006551D01*
X009876Y006542D01*
X009887Y006551D01*
X012441Y006547D01*
X012442Y006547D01*
X012516Y006547D01*
X012590Y006547D01*
X012590Y006547D01*
X012591Y006547D01*
X012643Y006600D01*
X012696Y006652D01*
X012696Y006652D01*
X012906Y006862D01*
X013011Y006967D01*
X013011Y007259D01*
X013012Y007260D01*
X013011Y007334D01*
X013011Y007408D01*
X013011Y007408D01*
X013004Y008370D01*
X013056Y008380D01*
X013060Y008376D01*
X013169Y008330D01*
X013288Y008330D01*
X013398Y008376D01*
X013481Y008460D01*
X013527Y008569D01*
X013527Y008688D01*
X013481Y008797D01*
X013398Y008881D01*
X013288Y008927D01*
X013169Y008927D01*
X013061Y008882D01*
X013107Y008928D01*
X013153Y009038D01*
X013153Y009156D01*
X013145Y009176D01*
X013151Y009184D01*
X013365Y009181D01*
X013436Y009177D01*
X013439Y009180D01*
X013443Y009180D01*
X013444Y009181D01*
X013453Y009181D01*
X013438Y009144D01*
X013438Y009026D01*
X013484Y008916D01*
X013568Y008832D01*
X013570Y008294D01*
X013569Y008293D01*
X013476Y008293D01*
X013367Y008247D01*
X013283Y008164D01*
X013238Y008054D01*
X013238Y007935D01*
X013283Y007826D01*
X013367Y007742D01*
X013476Y007697D01*
X013561Y007697D01*
X013075Y006476D01*
X006218Y006484D01*
X006165Y006494D01*
X006150Y006484D01*
X006131Y006484D01*
X006093Y006446D01*
X005835Y006273D01*
X005798Y006274D01*
X005718Y006196D01*
X005718Y006195D01*
X005717Y006195D02*
X005691Y006169D01*
X005717Y006195D02*
X005718Y006195D01*
X005691Y006107D02*
X005612Y006107D01*
X005690Y006057D02*
X005690Y006057D01*
X005689Y005989D02*
X005612Y005989D01*
X005613Y005870D02*
X005688Y005870D01*
X005687Y005752D02*
X005613Y005752D01*
X005613Y005633D02*
X005686Y005633D01*
X005684Y005515D02*
X005613Y005515D01*
X005613Y005396D02*
X005683Y005396D01*
X005682Y005278D02*
X005613Y005278D01*
X005614Y005159D02*
X005681Y005159D01*
X005680Y005041D02*
X005614Y005041D01*
X005614Y004922D02*
X005678Y004922D01*
X005677Y004804D02*
X005614Y004804D01*
X005614Y004685D02*
X005676Y004685D01*
X005675Y004567D02*
X005614Y004567D01*
X005614Y004448D02*
X005674Y004448D01*
X005672Y004330D02*
X005615Y004330D01*
X005615Y004211D02*
X005671Y004211D01*
X006031Y004211D02*
X012096Y004211D01*
X012068Y004093D02*
X006030Y004093D01*
X006029Y003974D02*
X012080Y003974D01*
X012074Y003856D02*
X006028Y003856D01*
X006026Y003737D02*
X012071Y003737D01*
X012071Y003619D02*
X006025Y003619D01*
X006024Y003500D02*
X012071Y003500D01*
X012071Y003382D02*
X006023Y003382D01*
X005965Y003263D02*
X012071Y003263D01*
X012071Y003145D02*
X005846Y003145D01*
X005728Y003026D02*
X012071Y003026D01*
X012071Y002908D02*
X005653Y002908D01*
X005716Y002789D02*
X012071Y002789D01*
X012071Y002671D02*
X005771Y002671D01*
X005771Y002552D02*
X012071Y002552D01*
X012071Y002434D02*
X005771Y002434D01*
X005771Y002315D02*
X012071Y002315D01*
X012071Y002197D02*
X003939Y002197D01*
X003944Y002078D02*
X012071Y002078D01*
X012071Y001960D02*
X003944Y001960D01*
X003944Y001841D02*
X012071Y001841D01*
X012071Y001723D02*
X003944Y001723D01*
X003944Y001604D02*
X012071Y001604D01*
X012061Y001486D02*
X003944Y001486D01*
X003903Y001367D02*
X011970Y001367D01*
X011879Y001249D02*
X003813Y001249D01*
X003544Y000951D02*
X003524Y000932D01*
X003274Y001249D02*
X002813Y001249D01*
X002903Y001367D02*
X003184Y001367D01*
X003144Y001486D02*
X002944Y001486D01*
X002944Y001604D02*
X003144Y001604D01*
X003144Y001723D02*
X002944Y001723D01*
X002944Y001841D02*
X003144Y001841D01*
X003144Y001960D02*
X002944Y001960D01*
X002944Y002078D02*
X003144Y002078D01*
X003149Y002197D02*
X002939Y002197D01*
X002890Y002315D02*
X003198Y002315D01*
X003307Y002434D02*
X002781Y002434D01*
X002307Y002434D02*
X001806Y002434D01*
X001908Y002315D02*
X002198Y002315D01*
X002149Y002197D02*
X001954Y002197D01*
X001964Y002078D02*
X002144Y002078D01*
X002144Y001960D02*
X001964Y001960D01*
X001584Y001960D02*
X001504Y001960D01*
X001504Y002078D02*
X001584Y002078D01*
X001584Y002197D02*
X001504Y002197D01*
X001504Y002315D02*
X001584Y002315D01*
X001584Y002434D02*
X001504Y002434D01*
X001834Y003145D02*
X002327Y003145D01*
X002220Y003263D02*
X001933Y003263D01*
X001978Y003382D02*
X002171Y003382D01*
X002167Y003500D02*
X001987Y003500D01*
X001147Y003856D02*
X000486Y003856D01*
X000485Y003974D02*
X001147Y003974D01*
X001152Y004093D02*
X000484Y004093D01*
X000483Y004211D02*
X001188Y004211D01*
X001273Y004330D02*
X000482Y004330D01*
X000481Y004448D02*
X001521Y004448D01*
X000480Y004567D02*
X005274Y004567D01*
X005274Y004685D02*
X000479Y004685D01*
X000478Y004804D02*
X005274Y004804D01*
X005274Y004922D02*
X000477Y004922D01*
X000476Y005041D02*
X005274Y005041D01*
X005274Y005159D02*
X000475Y005159D01*
X000474Y005278D02*
X005273Y005278D01*
X005273Y005396D02*
X000473Y005396D01*
X000472Y005515D02*
X005273Y005515D01*
X005273Y005633D02*
X000471Y005633D01*
X000470Y005752D02*
X005273Y005752D01*
X005273Y005870D02*
X000469Y005870D01*
X000468Y005989D02*
X005272Y005989D01*
X005272Y006107D02*
X003584Y006107D01*
X003703Y006226D02*
X005272Y006226D01*
X005272Y006344D02*
X003794Y006344D01*
X003794Y006463D02*
X005272Y006463D01*
X005272Y006581D02*
X003794Y006581D01*
X003743Y006700D02*
X005271Y006700D01*
X005271Y006818D02*
X003905Y006818D01*
X004024Y006937D02*
X005271Y006937D01*
X005271Y007055D02*
X004142Y007055D01*
X004261Y007174D02*
X005271Y007174D01*
X005271Y007292D02*
X004379Y007292D01*
X004498Y007411D02*
X005270Y007411D01*
X005270Y007529D02*
X004499Y007529D01*
X004499Y007648D02*
X005270Y007648D01*
X005270Y007766D02*
X004499Y007766D01*
X004499Y007885D02*
X005270Y007885D01*
X005270Y008003D02*
X004499Y008003D01*
X004499Y008122D02*
X005270Y008122D01*
X005269Y008240D02*
X004499Y008240D01*
X004499Y008359D02*
X005269Y008359D01*
X005269Y008477D02*
X004499Y008477D01*
X004499Y008596D02*
X005269Y008596D01*
X005269Y008714D02*
X004499Y008714D01*
X004499Y008833D02*
X004673Y008833D01*
X004653Y008853D02*
X004737Y008769D01*
X004847Y008724D01*
X004965Y008724D01*
X005075Y008769D01*
X005159Y008853D01*
X005204Y008963D01*
X005204Y009082D01*
X005159Y009191D01*
X005076Y009274D01*
X005076Y011889D01*
X005159Y011971D01*
X005204Y012081D01*
X005204Y012200D01*
X005159Y012309D01*
X005075Y012393D01*
X004965Y012438D01*
X004847Y012438D01*
X004737Y012393D01*
X004653Y012309D01*
X004608Y012200D01*
X004608Y012081D01*
X004653Y011971D01*
X004736Y011889D01*
X004736Y009274D01*
X004653Y009191D01*
X004608Y009082D01*
X004608Y008963D01*
X004653Y008853D01*
X004612Y008951D02*
X004499Y008951D01*
X004499Y009070D02*
X004608Y009070D01*
X004652Y009188D02*
X004499Y009188D01*
X004499Y009307D02*
X004736Y009307D01*
X004736Y009425D02*
X004499Y009425D01*
X004499Y009544D02*
X004736Y009544D01*
X004736Y009662D02*
X004499Y009662D01*
X004499Y009781D02*
X004736Y009781D01*
X004736Y009899D02*
X004499Y009899D01*
X004499Y010018D02*
X004736Y010018D01*
X004736Y010136D02*
X004499Y010136D01*
X004499Y010255D02*
X004736Y010255D01*
X004736Y010373D02*
X004499Y010373D01*
X004499Y010492D02*
X004736Y010492D01*
X004736Y010610D02*
X004499Y010610D01*
X004499Y010729D02*
X004736Y010729D01*
X004736Y010847D02*
X004499Y010847D01*
X004499Y010966D02*
X004736Y010966D01*
X004736Y011084D02*
X004499Y011084D01*
X004444Y011203D02*
X004736Y011203D01*
X004736Y011321D02*
X004323Y011321D01*
X004201Y011440D02*
X004736Y011440D01*
X004736Y011558D02*
X004080Y011558D01*
X003958Y011677D02*
X004736Y011677D01*
X004736Y011795D02*
X003105Y011795D01*
X003105Y011914D02*
X004711Y011914D01*
X004628Y012032D02*
X003106Y012032D01*
X003107Y012151D02*
X004608Y012151D01*
X004637Y012269D02*
X003107Y012269D01*
X003108Y012388D02*
X004732Y012388D01*
X005080Y012388D02*
X005264Y012388D01*
X005264Y012506D02*
X003109Y012506D01*
X003110Y012625D02*
X005260Y012625D01*
X005263Y012743D02*
X003110Y012743D01*
X003111Y012862D02*
X005401Y012862D01*
X005566Y012980D02*
X003112Y012980D01*
X003113Y013099D02*
X008596Y013099D01*
X008545Y013217D02*
X003113Y013217D01*
X003114Y013336D02*
X008546Y013336D01*
X008602Y013454D02*
X003115Y013454D01*
X003216Y013573D02*
X011563Y013573D01*
X011484Y013691D02*
X003331Y013691D01*
X003447Y013810D02*
X011466Y013810D01*
X011764Y013794D02*
X011776Y013806D01*
X011910Y013841D01*
X011965Y013573D02*
X013171Y013573D01*
X013327Y013475D02*
X014040Y013475D01*
X014264Y013432D01*
X014386Y013109D01*
X014300Y012861D01*
X014158Y012758D01*
X013941Y012743D01*
X013737Y012581D01*
X013559Y012436D01*
X013441Y012148D01*
X013167Y012032D02*
X006837Y012032D01*
X006611Y011837D02*
X012662Y011837D01*
X013067Y011432D01*
X013067Y010924D01*
X013024Y010880D01*
X012922Y010778D01*
X012528Y010778D01*
X012418Y010668D01*
X012418Y007625D01*
X012004Y007211D01*
X009977Y007211D01*
X010199Y007411D02*
X011949Y007411D01*
X011930Y007391D02*
X010218Y007391D01*
X010146Y007464D01*
X010036Y007509D01*
X009917Y007509D01*
X009808Y007464D01*
X009747Y007403D01*
X009732Y007548D01*
X009739Y007721D01*
X009808Y007790D01*
X009854Y007900D01*
X009854Y008019D01*
X009808Y008128D01*
X009724Y008212D01*
X009615Y008257D01*
X009496Y008257D01*
X009481Y008251D01*
X009472Y008609D01*
X009486Y008650D01*
X009471Y008681D01*
X009470Y008715D01*
X009468Y008717D01*
X009468Y008719D01*
X009436Y008751D01*
X009415Y008791D01*
X009385Y008802D01*
X008814Y009372D01*
X008814Y010627D01*
X008867Y010680D01*
X008894Y010653D01*
X008907Y010653D01*
X009070Y010527D01*
X009093Y010481D01*
X009112Y010475D01*
X009136Y010441D01*
X009144Y010439D01*
X009150Y010432D01*
X009166Y010431D01*
X009187Y010408D01*
X009233Y010406D01*
X009885Y010163D01*
X009910Y010137D01*
X009952Y010137D01*
X009991Y010123D01*
X010024Y010137D01*
X011578Y010137D01*
X011650Y010065D01*
X011760Y010019D01*
X011879Y010019D01*
X011988Y010065D01*
X012072Y010149D01*
X012117Y010258D01*
X012117Y010377D01*
X012072Y010486D01*
X011988Y010570D01*
X011879Y010616D01*
X011760Y010616D01*
X011650Y010570D01*
X011578Y010497D01*
X010017Y010497D01*
X009383Y010734D01*
X009382Y010741D01*
X009356Y010761D01*
X009341Y010791D01*
X009326Y010796D01*
X009318Y010809D01*
X009303Y010811D01*
X009294Y010822D01*
X009290Y010822D01*
X009256Y010856D01*
X009234Y010856D01*
X009149Y010922D01*
X009149Y011028D01*
X009160Y011046D01*
X009149Y011100D01*
X009149Y011156D01*
X009134Y011171D01*
X009129Y011191D01*
X009083Y011222D01*
X009043Y011261D01*
X009022Y011261D01*
X008756Y011435D01*
X008716Y011474D01*
X008695Y011474D01*
X008678Y011485D01*
X008623Y011474D01*
X006732Y011470D01*
X006663Y011539D01*
X006670Y011539D01*
X006779Y011584D01*
X006852Y011657D01*
X012587Y011657D01*
X012887Y011357D01*
X012887Y011147D01*
X012855Y011133D01*
X012771Y011049D01*
X012733Y010958D01*
X012453Y010958D01*
X012348Y010853D01*
X012238Y010742D01*
X012238Y007699D01*
X011930Y007391D01*
X012068Y007529D02*
X009734Y007529D01*
X009746Y007411D02*
X009755Y007411D01*
X009736Y007648D02*
X012186Y007648D01*
X012238Y007766D02*
X009784Y007766D01*
X009847Y007885D02*
X012238Y007885D01*
X012238Y008003D02*
X009854Y008003D01*
X009811Y008122D02*
X012238Y008122D01*
X012238Y008240D02*
X009655Y008240D01*
X009478Y008359D02*
X012238Y008359D01*
X012238Y008477D02*
X009475Y008477D01*
X009473Y008596D02*
X012238Y008596D01*
X012238Y008714D02*
X010539Y008714D01*
X010520Y008695D02*
X010603Y008779D01*
X010649Y008888D01*
X010649Y009007D01*
X010603Y009116D01*
X010520Y009200D01*
X010410Y009246D01*
X010291Y009246D01*
X010182Y009200D01*
X010107Y009125D01*
X010059Y009125D01*
X009807Y009377D01*
X009535Y009377D01*
X009469Y009444D01*
X009511Y009546D01*
X009511Y009664D01*
X009466Y009774D01*
X009382Y009858D01*
X009272Y009903D01*
X009154Y009903D01*
X009044Y009858D01*
X008960Y009774D01*
X008915Y009664D01*
X008915Y009546D01*
X008960Y009436D01*
X009044Y009352D01*
X009105Y009327D01*
X009295Y009137D01*
X009394Y009037D01*
X009666Y009037D01*
X009819Y008885D01*
X009918Y008785D01*
X010095Y008785D01*
X010098Y008779D01*
X010182Y008695D01*
X010291Y008649D01*
X010410Y008649D01*
X010520Y008695D01*
X010626Y008833D02*
X012238Y008833D01*
X012238Y008951D02*
X010649Y008951D01*
X010623Y009070D02*
X012238Y009070D01*
X012238Y009188D02*
X010531Y009188D01*
X010170Y009188D02*
X009996Y009188D01*
X009877Y009307D02*
X012238Y009307D01*
X012238Y009425D02*
X009487Y009425D01*
X009510Y009544D02*
X012238Y009544D01*
X012238Y009662D02*
X009511Y009662D01*
X009458Y009781D02*
X012238Y009781D01*
X012238Y009899D02*
X009281Y009899D01*
X009145Y009899D02*
X008814Y009899D01*
X008814Y009781D02*
X008967Y009781D01*
X008915Y009662D02*
X008814Y009662D01*
X008814Y009544D02*
X008915Y009544D01*
X008971Y009425D02*
X008814Y009425D01*
X008880Y009307D02*
X009125Y009307D01*
X009243Y009188D02*
X008998Y009188D01*
X009117Y009070D02*
X009362Y009070D01*
X009235Y008951D02*
X009752Y008951D01*
X009870Y008833D02*
X009354Y008833D01*
X009470Y008714D02*
X010162Y008714D01*
X009292Y008636D02*
X009303Y008136D01*
X009571Y007947D01*
X009555Y007959D01*
X009567Y007940D01*
X009552Y007542D01*
X009607Y007022D01*
X009827Y006731D01*
X012516Y006727D01*
X012831Y007042D01*
X012831Y007333D01*
X012823Y008518D01*
X013189Y008589D01*
X013229Y008629D01*
X013446Y008833D02*
X013567Y008833D01*
X013568Y008832D02*
X013568Y008832D01*
X013568Y008714D02*
X013516Y008714D01*
X013527Y008596D02*
X013569Y008596D01*
X013569Y008477D02*
X013489Y008477D01*
X013570Y008359D02*
X013357Y008359D01*
X013360Y008240D02*
X013005Y008240D01*
X013006Y008122D02*
X013266Y008122D01*
X013238Y008003D02*
X013007Y008003D01*
X013007Y007885D02*
X013259Y007885D01*
X013342Y007766D02*
X013008Y007766D01*
X013009Y007648D02*
X013542Y007648D01*
X013495Y007529D02*
X013010Y007529D01*
X013011Y007411D02*
X013447Y007411D01*
X013400Y007292D02*
X013011Y007292D01*
X013011Y007174D02*
X013353Y007174D01*
X013306Y007055D02*
X013011Y007055D01*
X012981Y006937D02*
X013259Y006937D01*
X013212Y006818D02*
X012862Y006818D01*
X012744Y006700D02*
X013164Y006700D01*
X013117Y006581D02*
X012625Y006581D01*
X013201Y006306D02*
X013863Y007967D01*
X014040Y008191D01*
X014215Y008240D02*
X014293Y008240D01*
X014210Y008287D02*
X014210Y008287D01*
X014210Y008359D02*
X014293Y008359D01*
X014293Y008477D02*
X014210Y008477D01*
X014210Y008596D02*
X014293Y008596D01*
X014293Y008714D02*
X014210Y008714D01*
X014210Y008833D02*
X014293Y008833D01*
X014293Y008951D02*
X014210Y008951D01*
X014210Y009070D02*
X014293Y009070D01*
X014293Y009188D02*
X014210Y009188D01*
X014473Y009688D02*
X014473Y008121D01*
X014603Y007873D01*
X016481Y007873D01*
X016654Y008180D01*
X016654Y008861D01*
X016784Y008991D01*
X018205Y008991D01*
X018288Y009073D01*
X018560Y008951D02*
X022647Y008951D01*
X022647Y008833D02*
X022393Y008833D01*
X022393Y008872D02*
X022323Y008943D01*
X021709Y008943D01*
X021639Y008872D01*
X021639Y008259D01*
X021709Y008188D01*
X022323Y008188D01*
X022393Y008259D01*
X022393Y008872D01*
X022393Y008714D02*
X022691Y008714D01*
X022717Y008688D02*
X023331Y008688D01*
X023401Y008759D01*
X023401Y009372D01*
X023331Y009443D01*
X022717Y009443D01*
X022647Y009372D01*
X022647Y008759D01*
X022717Y008688D01*
X022713Y008443D02*
X022643Y008372D01*
X022643Y008084D01*
X022412Y007853D01*
X022401Y007853D01*
X022401Y007880D01*
X022331Y007951D01*
X021717Y007951D01*
X021647Y007880D01*
X021647Y007267D01*
X021717Y007196D01*
X022331Y007196D01*
X022401Y007267D01*
X022401Y007293D01*
X022584Y007293D01*
X022647Y007320D01*
X022647Y006763D01*
X022717Y006692D01*
X022898Y006692D01*
X022898Y005561D01*
X022940Y005458D01*
X022958Y005440D01*
X022974Y005402D01*
X023872Y004504D01*
X023872Y004037D01*
X023933Y003890D01*
X024045Y003777D01*
X024192Y003716D01*
X024352Y003716D01*
X024499Y003777D01*
X024611Y003890D01*
X024672Y004037D01*
X024672Y004756D01*
X024611Y004903D01*
X024499Y005015D01*
X024352Y005076D01*
X024192Y005076D01*
X024045Y005015D01*
X024042Y005012D01*
X023926Y005129D01*
X025187Y005143D01*
X025228Y005126D01*
X025347Y005126D01*
X025457Y005171D01*
X025540Y005255D01*
X025586Y005364D01*
X025586Y005483D01*
X025540Y005593D01*
X025465Y005668D01*
X025705Y005668D01*
X026039Y005806D01*
X026295Y006062D01*
X026434Y006396D01*
X026434Y006758D01*
X026295Y007093D01*
X026039Y007348D01*
X025705Y007487D01*
X025343Y007487D01*
X025009Y007348D01*
X024753Y007093D01*
X024614Y006758D01*
X024614Y006396D01*
X024753Y006062D01*
X025009Y005806D01*
X025220Y005719D01*
X025182Y005703D01*
X023549Y005685D01*
X023457Y005750D01*
X023457Y006972D01*
X023415Y007075D01*
X023401Y007088D01*
X023401Y007376D01*
X023331Y007447D01*
X023304Y007447D01*
X023304Y007688D01*
X023327Y007688D01*
X023397Y007759D01*
X023397Y008372D01*
X023327Y008443D01*
X022713Y008443D01*
X022643Y008359D02*
X022393Y008359D01*
X022393Y008477D02*
X028106Y008477D01*
X028107Y008359D02*
X023397Y008359D01*
X023397Y008240D02*
X028107Y008240D01*
X028107Y008122D02*
X023397Y008122D01*
X023397Y008003D02*
X028107Y008003D01*
X028108Y007885D02*
X023397Y007885D01*
X023397Y007766D02*
X028108Y007766D01*
X028108Y007648D02*
X023304Y007648D01*
X023304Y007529D02*
X028108Y007529D01*
X028109Y007411D02*
X025888Y007411D01*
X026095Y007292D02*
X028109Y007292D01*
X028109Y007174D02*
X026214Y007174D01*
X026310Y007055D02*
X028109Y007055D01*
X028109Y006937D02*
X026360Y006937D01*
X026409Y006818D02*
X028110Y006818D01*
X028110Y006700D02*
X026434Y006700D01*
X026434Y006581D02*
X028110Y006581D01*
X028110Y006463D02*
X026434Y006463D01*
X026412Y006344D02*
X028111Y006344D01*
X028111Y006226D02*
X026363Y006226D01*
X026314Y006107D02*
X028111Y006107D01*
X028111Y005989D02*
X026222Y005989D01*
X026103Y005870D02*
X028112Y005870D01*
X028112Y005752D02*
X025908Y005752D01*
X025573Y005515D02*
X028112Y005515D01*
X028112Y005633D02*
X025500Y005633D01*
X025586Y005396D02*
X028113Y005396D01*
X028113Y005278D02*
X025550Y005278D01*
X025429Y005159D02*
X028113Y005159D01*
X028113Y005041D02*
X027481Y005041D01*
X027492Y005035D02*
X027433Y005065D01*
X027370Y005086D01*
X027312Y005095D01*
X027312Y004436D01*
X027692Y004436D01*
X027692Y004709D01*
X027682Y004775D01*
X027661Y004837D01*
X027631Y004896D01*
X027592Y004950D01*
X027546Y004997D01*
X027492Y005035D01*
X027612Y004922D02*
X028113Y004922D01*
X028114Y004804D02*
X027672Y004804D01*
X027692Y004685D02*
X028114Y004685D01*
X028114Y004567D02*
X027692Y004567D01*
X027692Y004448D02*
X028114Y004448D01*
X028115Y004330D02*
X027692Y004330D01*
X027692Y004356D02*
X027312Y004356D01*
X027312Y003697D01*
X027370Y003707D01*
X027433Y003727D01*
X027492Y003757D01*
X027546Y003796D01*
X027592Y003843D01*
X027631Y003896D01*
X027661Y003955D01*
X027682Y004018D01*
X027692Y004083D01*
X027692Y004356D01*
X027692Y004211D02*
X028115Y004211D01*
X028115Y004093D02*
X027692Y004093D01*
X027668Y003974D02*
X028115Y003974D01*
X028116Y003856D02*
X027602Y003856D01*
X027454Y003737D02*
X028116Y003737D01*
X028116Y003619D02*
X015468Y003619D01*
X015589Y003500D02*
X028116Y003500D01*
X028117Y003382D02*
X015709Y003382D01*
X015830Y003263D02*
X028117Y003263D01*
X028117Y003145D02*
X022230Y003145D01*
X022101Y003145D02*
X015951Y003145D01*
X015628Y002789D02*
X012631Y002789D01*
X012631Y002671D02*
X015748Y002671D01*
X015507Y002908D02*
X012631Y002908D01*
X012631Y003026D02*
X015386Y003026D01*
X015266Y003145D02*
X012631Y003145D01*
X012631Y003263D02*
X015145Y003263D01*
X015024Y003382D02*
X012631Y003382D01*
X012631Y003500D02*
X014903Y003500D01*
X014783Y003619D02*
X012631Y003619D01*
X012631Y003737D02*
X014662Y003737D01*
X014541Y003856D02*
X012635Y003856D01*
X012190Y004330D02*
X006032Y004330D01*
X006034Y004448D02*
X013318Y004448D01*
X013320Y004447D02*
X015155Y004447D01*
X015155Y004361D01*
X015200Y004251D01*
X015284Y004167D01*
X015394Y004122D01*
X015512Y004122D01*
X015622Y004167D01*
X015706Y004251D01*
X015751Y004361D01*
X015751Y004479D01*
X015706Y004589D01*
X015622Y004673D01*
X015512Y004718D01*
X015395Y004718D01*
X015327Y004787D01*
X013461Y004787D01*
X013028Y005219D01*
X013084Y005275D01*
X013129Y005384D01*
X013129Y005503D01*
X013084Y005612D01*
X013000Y005696D01*
X012890Y005742D01*
X012772Y005742D01*
X012662Y005696D01*
X012578Y005612D01*
X012533Y005503D01*
X012533Y005384D01*
X012578Y005275D01*
X012661Y005192D01*
X012661Y005105D01*
X013220Y004546D01*
X013320Y004447D01*
X013199Y004567D02*
X006035Y004567D01*
X006036Y004685D02*
X013081Y004685D01*
X012962Y004804D02*
X006037Y004804D01*
X006038Y004922D02*
X012844Y004922D01*
X012725Y005041D02*
X006040Y005041D01*
X006041Y005159D02*
X012661Y005159D01*
X012577Y005278D02*
X006042Y005278D01*
X006043Y005396D02*
X012533Y005396D01*
X012538Y005515D02*
X006045Y005515D01*
X006046Y005633D02*
X012599Y005633D01*
X013063Y005633D02*
X022898Y005633D01*
X022898Y005752D02*
X006693Y005752D01*
X006174Y005752D02*
X006047Y005752D01*
X006048Y005870D02*
X006135Y005870D01*
X006135Y005989D02*
X006049Y005989D01*
X005941Y006344D02*
X005612Y006344D01*
X005612Y006463D02*
X006110Y006463D01*
X006063Y006766D02*
X005917Y006826D01*
X005806Y006938D01*
X005745Y007084D01*
X005745Y007795D01*
X005806Y007941D01*
X005917Y008053D01*
X006063Y008113D01*
X006221Y008113D01*
X006367Y008053D01*
X006478Y007941D01*
X006539Y007795D01*
X006539Y007084D01*
X006478Y006938D01*
X006367Y006826D01*
X006221Y006766D01*
X006063Y006766D01*
X005936Y006818D02*
X005611Y006818D01*
X005611Y006700D02*
X009625Y006700D01*
X009714Y006581D02*
X005612Y006581D01*
X005611Y006937D02*
X005807Y006937D01*
X005757Y007055D02*
X005611Y007055D01*
X005611Y007174D02*
X005745Y007174D01*
X005745Y007292D02*
X005611Y007292D01*
X005611Y007411D02*
X005745Y007411D01*
X005745Y007529D02*
X005610Y007529D01*
X005610Y007648D02*
X005745Y007648D01*
X005745Y007766D02*
X005610Y007766D01*
X005610Y007885D02*
X005782Y007885D01*
X005868Y008003D02*
X005610Y008003D01*
X005610Y008122D02*
X009123Y008122D01*
X009121Y008240D02*
X005609Y008240D01*
X005609Y008359D02*
X009118Y008359D01*
X009115Y008477D02*
X005609Y008477D01*
X005609Y008596D02*
X009081Y008596D01*
X008963Y008714D02*
X005609Y008714D01*
X005609Y008833D02*
X008844Y008833D01*
X008726Y008951D02*
X005608Y008951D01*
X005608Y009070D02*
X008607Y009070D01*
X008489Y009188D02*
X005608Y009188D01*
X005608Y009307D02*
X008454Y009307D01*
X008454Y009425D02*
X005608Y009425D01*
X005608Y009544D02*
X008454Y009544D01*
X008454Y009662D02*
X005607Y009662D01*
X005607Y009781D02*
X005836Y009781D01*
X005847Y009769D02*
X005957Y009724D01*
X006075Y009724D01*
X006185Y009769D01*
X006269Y009853D01*
X006314Y009963D01*
X006314Y010082D01*
X006269Y010191D01*
X006185Y010275D01*
X006125Y010300D01*
X006125Y010907D01*
X006198Y010979D01*
X006243Y011089D01*
X006243Y011207D01*
X006198Y011317D01*
X006114Y011401D01*
X006005Y011446D01*
X005886Y011446D01*
X005776Y011401D01*
X005692Y011317D01*
X005647Y011207D01*
X005647Y011089D01*
X005692Y010979D01*
X005765Y010907D01*
X005765Y010227D01*
X005750Y010191D01*
X005757Y010175D01*
X005718Y010082D01*
X005718Y009963D01*
X005763Y009853D01*
X005847Y009769D01*
X005744Y009899D02*
X005607Y009899D01*
X005607Y010018D02*
X005718Y010018D01*
X005741Y010136D02*
X005607Y010136D01*
X005607Y010255D02*
X005765Y010255D01*
X005765Y010373D02*
X005607Y010373D01*
X005606Y010492D02*
X005765Y010492D01*
X005765Y010610D02*
X005606Y010610D01*
X005606Y010729D02*
X005765Y010729D01*
X005765Y010847D02*
X005606Y010847D01*
X005606Y010966D02*
X005706Y010966D01*
X005649Y011084D02*
X005606Y011084D01*
X005605Y011203D02*
X005647Y011203D01*
X005605Y011321D02*
X005697Y011321D01*
X005605Y011440D02*
X005871Y011440D01*
X006020Y011440D02*
X006253Y011440D01*
X006194Y011321D02*
X006372Y011321D01*
X006478Y011215D02*
X006478Y011215D01*
X006490Y011203D02*
X006243Y011203D01*
X006241Y011084D02*
X008428Y011084D01*
X008352Y010966D02*
X006185Y010966D01*
X006125Y010847D02*
X008336Y010847D01*
X008369Y010729D02*
X006125Y010729D01*
X006125Y010610D02*
X008454Y010610D01*
X008454Y010492D02*
X006125Y010492D01*
X006125Y010373D02*
X008454Y010373D01*
X008454Y010255D02*
X006205Y010255D01*
X006291Y010136D02*
X008454Y010136D01*
X008454Y010018D02*
X006314Y010018D01*
X006288Y009899D02*
X008454Y009899D01*
X008454Y009781D02*
X006196Y009781D01*
X006016Y010022D02*
X005945Y010191D01*
X005945Y011148D01*
X006135Y011558D02*
X005605Y011558D01*
X005605Y011677D02*
X005896Y011677D01*
X005829Y011795D02*
X005605Y011795D01*
X005604Y011914D02*
X005820Y011914D01*
X005860Y012032D02*
X005604Y012032D01*
X005604Y012151D02*
X006002Y012151D01*
X006008Y012269D02*
X013169Y012269D01*
X013143Y012151D02*
X006235Y012151D01*
X006377Y012032D02*
X006384Y012032D01*
X006118Y011877D02*
X006118Y011869D01*
X006150Y011798D01*
X006658Y011290D01*
X008642Y011294D01*
X008969Y011081D01*
X008969Y010833D01*
X009213Y010644D01*
X009221Y010629D01*
X009240Y010605D01*
X009213Y010644D01*
X009181Y010676D01*
X009213Y010644D02*
X009268Y010585D01*
X009985Y010317D01*
X011819Y010317D01*
X011579Y010136D02*
X010021Y010136D01*
X009955Y010136D02*
X008814Y010136D01*
X008814Y010018D02*
X012238Y010018D01*
X012238Y010136D02*
X012060Y010136D01*
X012116Y010255D02*
X012238Y010255D01*
X012238Y010373D02*
X012117Y010373D01*
X012066Y010492D02*
X012238Y010492D01*
X012238Y010610D02*
X011891Y010610D01*
X011748Y010610D02*
X009715Y010610D01*
X009398Y010729D02*
X012238Y010729D01*
X012343Y010847D02*
X009264Y010847D01*
X009149Y010966D02*
X012737Y010966D01*
X012806Y011084D02*
X009152Y011084D01*
X009112Y011203D02*
X012887Y011203D01*
X012887Y011321D02*
X008930Y011321D01*
X008750Y011440D02*
X012804Y011440D01*
X012686Y011558D02*
X006717Y011558D01*
X006106Y012388D02*
X013259Y012388D01*
X013433Y012597D02*
X014020Y013066D01*
X014040Y013089D01*
X014532Y012980D02*
X015767Y012980D01*
X015766Y012862D02*
X014491Y012862D01*
X014449Y012743D02*
X015765Y012743D01*
X015764Y012625D02*
X014280Y012625D01*
X014374Y012506D02*
X013932Y012506D01*
X013785Y012388D02*
X014279Y012388D01*
X014249Y012269D02*
X013714Y012269D01*
X013739Y012151D02*
X014269Y012151D01*
X014328Y012032D02*
X013716Y012032D01*
X013629Y011914D02*
X014328Y011914D01*
X014328Y011795D02*
X012958Y011795D01*
X013076Y011677D02*
X014328Y011677D01*
X014328Y011558D02*
X013195Y011558D01*
X013247Y011440D02*
X014328Y011440D01*
X014328Y011321D02*
X013247Y011321D01*
X013247Y011203D02*
X014328Y011203D01*
X014328Y011084D02*
X013247Y011084D01*
X013311Y010966D02*
X014337Y010966D01*
X014508Y011050D02*
X014508Y012160D01*
X014548Y012258D01*
X014826Y012151D02*
X015610Y012151D01*
X015608Y012032D02*
X015034Y012032D01*
X015087Y011766D02*
X014941Y011774D01*
X014811Y011833D01*
X014807Y011337D02*
X014914Y011302D01*
X014811Y011333D01*
X014957Y011286D01*
X015075Y011258D01*
X015571Y011262D01*
X015714Y010966D02*
X015029Y010966D01*
X014995Y011084D02*
X014976Y011084D01*
X014827Y010928D02*
X014508Y011050D01*
X014533Y010847D02*
X013322Y010847D01*
X013284Y010729D02*
X014785Y010729D01*
X014885Y010610D02*
X013196Y010610D01*
X013196Y010492D02*
X014885Y010492D01*
X014885Y010373D02*
X013196Y010373D01*
X013196Y010255D02*
X014885Y010255D01*
X014363Y009798D02*
X014473Y009688D01*
X014363Y009798D02*
X013040Y009798D01*
X012933Y009691D01*
X012847Y009660D01*
X013067Y009365D02*
X013370Y009361D01*
X013500Y009479D01*
X013438Y009070D02*
X013153Y009070D01*
X013117Y008951D02*
X013469Y008951D01*
X012977Y009254D02*
X013067Y009365D01*
X012977Y009254D02*
X012855Y009097D01*
X013004Y008359D02*
X013100Y008359D01*
X014027Y007885D02*
X014393Y007885D01*
X014454Y007766D02*
X013976Y007766D01*
X013929Y007648D02*
X021647Y007648D01*
X021647Y007766D02*
X016629Y007766D01*
X016694Y007885D02*
X021652Y007885D01*
X021647Y007529D02*
X013882Y007529D01*
X013835Y007411D02*
X021647Y007411D01*
X021647Y007292D02*
X013788Y007292D01*
X013741Y007174D02*
X022647Y007174D01*
X022647Y007292D02*
X022401Y007292D01*
X022647Y007055D02*
X013693Y007055D01*
X013646Y006937D02*
X022647Y006937D01*
X022647Y006818D02*
X013599Y006818D01*
X013552Y006700D02*
X022709Y006700D01*
X022898Y006581D02*
X013505Y006581D01*
X013457Y006463D02*
X016075Y006463D01*
X015986Y006344D02*
X013410Y006344D01*
X013363Y006226D02*
X015926Y006226D01*
X016010Y005870D02*
X022898Y005870D01*
X022898Y005989D02*
X016444Y005989D01*
X016533Y006107D02*
X022898Y006107D01*
X022898Y006226D02*
X016558Y006226D01*
X016534Y006344D02*
X022898Y006344D01*
X022898Y006463D02*
X016446Y006463D01*
X016761Y008003D02*
X022562Y008003D01*
X022643Y008122D02*
X016834Y008122D01*
X016834Y008240D02*
X021657Y008240D01*
X021639Y008359D02*
X016834Y008359D01*
X016834Y008477D02*
X021639Y008477D01*
X021639Y008596D02*
X016834Y008596D01*
X016834Y008714D02*
X021639Y008714D01*
X021639Y008833D02*
X018469Y008833D01*
X018586Y009070D02*
X022647Y009070D01*
X022647Y009188D02*
X022363Y009188D01*
X022351Y009177D02*
X022377Y009203D01*
X022396Y009235D01*
X022405Y009270D01*
X022405Y009517D01*
X022037Y009517D01*
X022037Y009574D01*
X022405Y009574D01*
X022405Y009821D01*
X022396Y009857D01*
X022377Y009889D01*
X022351Y009915D01*
X022319Y009933D01*
X022284Y009943D01*
X022037Y009943D01*
X022037Y009574D01*
X021980Y009574D01*
X021980Y009517D01*
X022037Y009517D01*
X022037Y009149D01*
X022284Y009149D01*
X022319Y009158D01*
X022351Y009177D01*
X022405Y009307D02*
X022647Y009307D01*
X022700Y009425D02*
X022405Y009425D01*
X022405Y009662D02*
X022741Y009662D01*
X022748Y009660D02*
X022995Y009660D01*
X022995Y010029D01*
X022627Y010029D01*
X022627Y009782D01*
X022636Y009746D01*
X022655Y009715D01*
X022681Y009688D01*
X022713Y009670D01*
X022748Y009660D01*
X022627Y009781D02*
X022405Y009781D01*
X022367Y009899D02*
X022627Y009899D01*
X022627Y010018D02*
X015820Y010018D01*
X015895Y009899D02*
X021650Y009899D01*
X021639Y009889D02*
X021621Y009857D01*
X021611Y009821D01*
X021611Y009574D01*
X021980Y009574D01*
X021980Y009943D01*
X021733Y009943D01*
X021697Y009933D01*
X021665Y009915D01*
X021639Y009889D01*
X021611Y009781D02*
X015874Y009781D01*
X015863Y009662D02*
X021611Y009662D01*
X021611Y009517D02*
X021611Y009270D01*
X021621Y009235D01*
X021639Y009203D01*
X021665Y009177D01*
X021697Y009158D01*
X021733Y009149D01*
X021980Y009149D01*
X021980Y009517D01*
X021611Y009517D01*
X021611Y009425D02*
X015863Y009425D01*
X015863Y009307D02*
X018100Y009307D01*
X018013Y009188D02*
X015863Y009188D01*
X015863Y009070D02*
X016609Y009070D01*
X016490Y008951D02*
X015863Y008951D01*
X015863Y008833D02*
X016474Y008833D01*
X016474Y008714D02*
X015863Y008714D01*
X015978Y008596D02*
X016474Y008596D01*
X016474Y008477D02*
X016021Y008477D01*
X016021Y008359D02*
X016474Y008359D01*
X016474Y008240D02*
X016021Y008240D01*
X015955Y008122D02*
X016415Y008122D01*
X015520Y008369D02*
X015512Y009762D01*
X015292Y009983D01*
X013099Y009983D01*
X013016Y010066D01*
X013016Y010873D01*
X013024Y010880D01*
X012839Y011914D02*
X013254Y011914D01*
X013181Y012841D02*
X013343Y012943D01*
X013020Y013454D02*
X009084Y013454D01*
X008710Y014783D02*
X008785Y014857D01*
X008830Y014967D01*
X008830Y015070D01*
X008893Y015133D01*
X008893Y016195D01*
X008787Y016301D01*
X008343Y016746D01*
X006968Y016746D01*
X007014Y016765D01*
X007167Y016918D01*
X007250Y017118D01*
X007250Y017335D01*
X007167Y017535D01*
X007014Y017689D01*
X006814Y017772D01*
X006597Y017772D01*
X006417Y017697D01*
X006515Y017936D01*
X006515Y018317D01*
X006369Y018670D01*
X006099Y018940D01*
X005746Y019087D01*
X005364Y019087D01*
X005012Y018940D01*
X004742Y018670D01*
X004595Y018317D01*
X004595Y017936D01*
X004742Y017583D01*
X005012Y017313D01*
X005364Y017167D01*
X005746Y017167D01*
X006099Y017313D01*
X006188Y017401D01*
X006160Y017335D01*
X006160Y017118D01*
X006243Y016918D01*
X006397Y016765D01*
X006443Y016746D01*
X006354Y016746D01*
X006039Y017060D01*
X004651Y017060D01*
X004579Y017133D01*
X004469Y017179D01*
X004350Y017179D01*
X004241Y017133D01*
X004157Y017049D01*
X004112Y016940D01*
X004112Y016821D01*
X004157Y016712D01*
X004241Y016628D01*
X004350Y016582D01*
X004466Y016582D01*
X004413Y016530D01*
X004368Y016420D01*
X004368Y016301D01*
X004413Y016192D01*
X004497Y016108D01*
X004606Y016063D01*
X004725Y016063D01*
X004835Y016108D01*
X004907Y016181D01*
X006725Y016181D01*
X006927Y015979D01*
X006927Y015103D01*
X006883Y014999D01*
X006883Y014880D01*
X006924Y014783D01*
X004449Y014783D01*
X004480Y014857D01*
X004480Y014975D01*
X004434Y015085D01*
X004350Y015169D01*
X004241Y015214D01*
X004138Y015214D01*
X003685Y015667D01*
X003718Y015700D01*
X003763Y015809D01*
X003763Y015928D01*
X003718Y016038D01*
X003634Y016121D01*
X003524Y016167D01*
X003406Y016167D01*
X003296Y016121D01*
X003212Y016038D01*
X003167Y015928D01*
X003167Y015809D01*
X003212Y015700D01*
X003285Y015627D01*
X003285Y015558D01*
X003883Y014959D01*
X003883Y014857D01*
X003914Y014783D01*
X003150Y014783D01*
X003051Y014683D01*
X002224Y013856D01*
X002224Y010879D01*
X001994Y010649D01*
X001994Y010317D01*
X002228Y010083D01*
X002560Y010083D01*
X002740Y010263D01*
X002740Y009703D01*
X002560Y009883D01*
X002228Y009883D01*
X001994Y009649D01*
X001994Y009317D01*
X002228Y009083D01*
X002560Y009083D01*
X002740Y009263D01*
X002740Y008703D01*
X002560Y008883D01*
X002228Y008883D01*
X002006Y008661D01*
X000925Y008661D01*
X000745Y008841D01*
X000745Y018994D01*
X001104Y019636D01*
X003465Y019636D01*
X003548Y019553D01*
X003658Y019508D01*
X003776Y019508D01*
X003886Y019553D01*
X003970Y019637D01*
X004015Y019746D01*
X004015Y019865D01*
X003970Y019975D01*
X003886Y020058D01*
X003776Y020104D01*
X003658Y020104D01*
X003548Y020058D01*
X003465Y019976D01*
X001049Y019976D01*
X001026Y019988D01*
X000981Y019976D01*
X000934Y019976D01*
X000915Y019957D01*
X000890Y019950D01*
X000867Y019909D01*
X000834Y019876D01*
X000834Y019850D01*
X000445Y019154D01*
X000449Y025892D01*
X011838Y025894D01*
X011206Y025262D01*
X011206Y024801D01*
X011150Y024801D01*
X011040Y024755D01*
X010956Y024671D01*
X010911Y024562D01*
X010911Y024443D01*
X010956Y024334D01*
X011040Y024250D01*
X011150Y024204D01*
X011268Y024204D01*
X011378Y024250D01*
X011462Y024334D01*
X011507Y024443D01*
X011507Y024546D01*
X011566Y024605D01*
X011566Y025113D01*
X012091Y025637D01*
X013745Y025637D01*
X014151Y025231D01*
X014151Y024449D01*
X014078Y024376D01*
X014033Y024267D01*
X014033Y024148D01*
X014078Y024038D01*
X014162Y023955D01*
X014272Y023909D01*
X014390Y023909D01*
X014500Y023955D01*
X014584Y024038D01*
X014629Y024148D01*
X014629Y024267D01*
X014584Y024376D01*
X014511Y024449D01*
X014511Y025380D01*
X013999Y025892D01*
X013997Y025894D01*
X016000Y025894D01*
X015650Y025545D01*
X015545Y025439D01*
X015545Y024106D01*
X015505Y024011D01*
X015505Y023892D01*
X015551Y023782D01*
X015619Y023714D01*
X014299Y023714D01*
X013999Y024014D01*
X013894Y024120D01*
X010981Y024120D01*
X010705Y023844D01*
X010600Y023738D01*
X010600Y022172D01*
X010343Y021915D01*
X009361Y021915D01*
X009293Y021983D01*
X009139Y022047D01*
X008972Y022047D01*
X008818Y021983D01*
X008699Y021864D01*
X008635Y021710D01*
X008635Y021543D01*
X008699Y021389D01*
X008780Y021309D01*
X008435Y021309D01*
X008412Y021364D01*
X008293Y021483D01*
X008139Y021547D01*
X007972Y021547D01*
X007818Y021483D01*
X007699Y021364D01*
X007635Y021210D01*
X007635Y021043D01*
X007690Y020912D01*
X007554Y021066D01*
X007554Y021837D01*
X007635Y021919D01*
X007635Y021777D01*
X007706Y021707D01*
X008405Y021707D01*
X008475Y021777D01*
X008475Y022104D01*
X009284Y022104D01*
X009367Y022021D01*
X009476Y021976D01*
X009595Y021976D01*
X009705Y022021D01*
X009788Y022105D01*
X010533Y022105D01*
X010600Y022223D02*
X009834Y022223D01*
X009834Y022215D02*
X009834Y022333D01*
X009788Y022443D01*
X009705Y022527D01*
X009595Y022572D01*
X009476Y022572D01*
X009367Y022527D01*
X009284Y022444D01*
X008475Y022444D01*
X008475Y022476D01*
X008405Y022547D01*
X007706Y022547D01*
X007635Y022476D01*
X007635Y022320D01*
X007528Y022320D01*
X007423Y022215D01*
X007194Y021987D01*
X007194Y021004D01*
X007190Y020936D01*
X007194Y020931D01*
X007194Y020924D01*
X007243Y020875D01*
X007505Y020576D01*
X007505Y020570D01*
X007554Y020521D01*
X007599Y020469D01*
X007606Y020469D01*
X007611Y020464D01*
X007680Y020464D01*
X007748Y020460D01*
X007753Y020464D01*
X007799Y020464D01*
X007699Y020364D01*
X007635Y020210D01*
X007635Y020043D01*
X007699Y019889D01*
X007818Y019770D01*
X007972Y019707D01*
X008139Y019707D01*
X008293Y019770D01*
X008412Y019889D01*
X008475Y020043D01*
X008475Y020119D01*
X008497Y020098D01*
X008627Y019968D01*
X008803Y019968D01*
X008699Y019864D01*
X008635Y019710D01*
X008635Y019543D01*
X008699Y019389D01*
X008818Y019270D01*
X008972Y019207D01*
X009139Y019207D01*
X009197Y019231D01*
X009231Y019197D01*
X013708Y019197D01*
X013780Y019124D01*
X013853Y019094D01*
X013768Y019058D01*
X013685Y018975D01*
X013639Y018865D01*
X013639Y018746D01*
X013685Y018637D01*
X013768Y018553D01*
X013876Y018508D01*
X013768Y018464D01*
X013685Y018380D01*
X013684Y018379D01*
X013421Y018377D01*
X012993Y018377D01*
X013056Y018440D01*
X013102Y018550D01*
X013776Y018550D01*
X013736Y018431D02*
X013048Y018431D01*
X013102Y018550D02*
X013102Y018668D01*
X013056Y018778D01*
X012972Y018862D01*
X012863Y018907D01*
X012744Y018907D01*
X012635Y018862D01*
X012551Y018778D01*
X012505Y018668D01*
X012505Y018550D01*
X009489Y018550D01*
X009485Y018524D02*
X009495Y018592D01*
X009495Y018607D01*
X009075Y018607D01*
X009075Y018187D01*
X009090Y018187D01*
X009158Y018197D01*
X009224Y018219D01*
X009286Y018250D01*
X009342Y018291D01*
X009391Y018340D01*
X009432Y018396D01*
X009463Y018458D01*
X009485Y018524D01*
X009450Y018431D02*
X012559Y018431D01*
X012551Y018440D02*
X012613Y018377D01*
X012143Y018377D01*
X012043Y018278D01*
X011748Y017982D01*
X011748Y016668D01*
X011847Y016569D01*
X012130Y016286D01*
X012130Y015432D01*
X012229Y015333D01*
X012465Y015096D01*
X013894Y015096D01*
X013977Y015014D01*
X014087Y014968D01*
X014205Y014968D01*
X014315Y015014D01*
X014399Y015097D01*
X014444Y015207D01*
X014444Y015326D01*
X014399Y015435D01*
X014315Y015519D01*
X014205Y015564D01*
X014087Y015564D01*
X013977Y015519D01*
X013894Y015436D01*
X012606Y015436D01*
X012470Y015573D01*
X012470Y016336D01*
X012579Y016291D01*
X012697Y016291D01*
X012807Y016336D01*
X012880Y016409D01*
X016771Y016409D01*
X016816Y016364D01*
X016925Y016319D01*
X017044Y016319D01*
X017153Y016364D01*
X017237Y016448D01*
X017283Y016557D01*
X017283Y016676D01*
X017237Y016786D01*
X017153Y016869D01*
X017044Y016915D01*
X016925Y016915D01*
X016816Y016869D01*
X016732Y016786D01*
X016725Y016769D01*
X012880Y016769D01*
X012807Y016842D01*
X012697Y016887D01*
X012579Y016887D01*
X012469Y016842D01*
X012385Y016758D01*
X012340Y016648D01*
X012340Y016557D01*
X012088Y016809D01*
X012088Y016879D01*
X012127Y016840D01*
X012236Y016795D01*
X012355Y016795D01*
X012464Y016840D01*
X012537Y016913D01*
X015276Y016913D01*
X015319Y016956D01*
X015424Y017062D01*
X015424Y018411D01*
X015497Y018483D01*
X015543Y018593D01*
X015543Y018711D01*
X015497Y018821D01*
X015413Y018905D01*
X015304Y018950D01*
X015185Y018950D01*
X015076Y018905D01*
X014992Y018821D01*
X014946Y018711D01*
X014946Y018593D01*
X014992Y018483D01*
X015064Y018411D01*
X015064Y017273D01*
X012537Y017273D01*
X012464Y017346D01*
X012355Y017391D01*
X012236Y017391D01*
X012127Y017346D01*
X012088Y017307D01*
X012088Y017842D01*
X012283Y018037D01*
X013352Y018037D01*
X013352Y018037D01*
X013422Y018037D01*
X013492Y018037D01*
X013493Y018038D01*
X013688Y018039D01*
X013768Y017958D01*
X013878Y017913D01*
X013997Y017913D01*
X014106Y017958D01*
X014190Y018042D01*
X014235Y018152D01*
X014235Y018270D01*
X014190Y018380D01*
X014106Y018464D01*
X013999Y018508D01*
X014106Y018553D01*
X014179Y018626D01*
X014441Y018626D01*
X014776Y018960D01*
X021606Y018960D01*
X023118Y020472D01*
X023224Y020578D01*
X023224Y025227D01*
X022555Y025895D01*
X028072Y025896D01*
X028093Y015277D01*
X028016Y015309D01*
X027898Y015309D01*
X027788Y015263D01*
X027715Y015190D01*
X025268Y015190D01*
X025046Y015412D01*
X025046Y016203D01*
X025061Y016238D01*
X025046Y016274D01*
X025046Y016313D01*
X025019Y016341D01*
X024873Y016696D01*
X024873Y016735D01*
X024846Y016762D01*
X024831Y016797D01*
X024795Y016812D01*
X024768Y016840D01*
X024729Y016840D01*
X024694Y016855D01*
X024658Y016840D01*
X023180Y016840D01*
X023155Y016854D01*
X023108Y016840D01*
X023060Y016840D01*
X023039Y016820D01*
X023012Y016812D01*
X022989Y016769D01*
X022954Y016735D01*
X022954Y016706D01*
X022701Y016241D01*
X022667Y016207D01*
X022667Y016178D01*
X022653Y016153D01*
X022667Y016106D01*
X022667Y015666D01*
X022652Y015623D01*
X022667Y015594D01*
X022667Y015562D01*
X022699Y015530D01*
X022746Y015435D01*
X022751Y015393D01*
X022778Y015371D01*
X022794Y015340D01*
X022834Y015326D01*
X022880Y015289D01*
X022916Y015254D01*
X022926Y014362D01*
X022807Y014289D01*
X020780Y014289D01*
X020775Y014294D01*
X020775Y014990D01*
X020669Y015096D01*
X020520Y015096D01*
X020501Y015076D01*
X019976Y015076D01*
X019990Y015086D01*
X020036Y015133D01*
X020075Y015186D01*
X020104Y015244D01*
X020125Y015306D01*
X020134Y015366D01*
X019480Y015366D01*
X019480Y015443D01*
X019403Y015443D01*
X019403Y015821D01*
X019132Y015821D01*
X019067Y015811D01*
X019004Y015790D01*
X018946Y015761D01*
X018893Y015722D01*
X018846Y015676D01*
X018808Y015623D01*
X018778Y015564D01*
X018758Y015502D01*
X018748Y015443D01*
X019403Y015443D01*
X019403Y015366D01*
X018748Y015366D01*
X018758Y015306D01*
X018778Y015244D01*
X018808Y015186D01*
X018846Y015133D01*
X018893Y015086D01*
X018931Y015058D01*
X018844Y014971D01*
X018844Y014971D01*
X018713Y014840D01*
X016214Y014840D01*
X016142Y014913D01*
X016032Y014958D01*
X015913Y014958D01*
X015804Y014913D01*
X015720Y014829D01*
X015675Y014719D01*
X015675Y014601D01*
X015720Y014491D01*
X015804Y014407D01*
X015913Y014362D01*
X016032Y014362D01*
X016142Y014407D01*
X016214Y014480D01*
X018768Y014480D01*
X018768Y014325D01*
X018828Y014179D01*
X018915Y014092D01*
X016770Y014092D01*
X016740Y014106D01*
X016698Y014092D01*
X016654Y014092D01*
X016630Y014068D01*
X016599Y014057D01*
X016580Y014018D01*
X016549Y013987D01*
X016549Y013953D01*
X016515Y013884D01*
X016507Y013876D01*
X016507Y013867D01*
X016483Y013817D01*
X016508Y013746D01*
X016510Y012946D01*
X016500Y012956D01*
X016390Y013001D01*
X016385Y013001D01*
X016385Y013553D01*
X016387Y013555D01*
X016385Y013627D01*
X016385Y013699D01*
X016383Y013701D01*
X016383Y013704D01*
X016331Y013754D01*
X016280Y013805D01*
X016277Y013805D01*
X015983Y014082D01*
X015834Y014078D01*
X015827Y014070D01*
X015383Y014070D01*
X015460Y014121D01*
X015497Y014295D01*
X015539Y014313D01*
X015623Y014397D01*
X015669Y014506D01*
X015669Y014625D01*
X015623Y014734D01*
X015539Y014818D01*
X015430Y014864D01*
X015311Y014864D01*
X015202Y014818D01*
X015118Y014734D01*
X015072Y014625D01*
X015072Y014506D01*
X015118Y014397D01*
X015145Y014369D01*
X015140Y014347D01*
X014970Y014274D01*
X014589Y014259D01*
X013890Y014266D01*
X013727Y014394D01*
X013685Y014436D01*
X013673Y014436D01*
X013665Y014443D01*
X013938Y014443D01*
X013938Y014342D01*
X014009Y014271D01*
X014464Y014271D01*
X014535Y014342D01*
X014535Y014797D01*
X014464Y014868D01*
X014009Y014868D01*
X013938Y014797D01*
X013938Y014783D01*
X011959Y014783D01*
X012030Y014854D01*
X012085Y014986D01*
X012085Y015129D01*
X012030Y015262D01*
X011929Y015363D01*
X011796Y015418D01*
X011653Y015418D01*
X011521Y015363D01*
X011420Y015262D01*
X011365Y015129D01*
X011365Y014986D01*
X011420Y014854D01*
X011491Y014783D01*
X008710Y014783D01*
X008793Y014876D02*
X011410Y014876D01*
X011365Y014995D02*
X008830Y014995D01*
X008874Y015113D02*
X011365Y015113D01*
X011407Y015232D02*
X008893Y015232D01*
X008893Y015350D02*
X011508Y015350D01*
X011653Y015698D02*
X011796Y015698D01*
X011929Y015752D01*
X012030Y015854D01*
X012085Y015986D01*
X012085Y016129D01*
X012030Y016262D01*
X011929Y016363D01*
X011796Y016418D01*
X011653Y016418D01*
X011521Y016363D01*
X011420Y016262D01*
X011365Y016129D01*
X011365Y015986D01*
X011420Y015854D01*
X011521Y015752D01*
X011653Y015698D01*
X011633Y015706D02*
X008893Y015706D01*
X008893Y015824D02*
X011449Y015824D01*
X011383Y015943D02*
X008893Y015943D01*
X008893Y016061D02*
X011365Y016061D01*
X011386Y016180D02*
X008893Y016180D01*
X008790Y016298D02*
X011456Y016298D01*
X011652Y016417D02*
X008671Y016417D01*
X008553Y016535D02*
X011880Y016535D01*
X011798Y016417D02*
X011999Y016417D01*
X011993Y016298D02*
X012117Y016298D01*
X012130Y016180D02*
X012064Y016180D01*
X012085Y016061D02*
X012130Y016061D01*
X012130Y015943D02*
X012067Y015943D01*
X012130Y015824D02*
X012001Y015824D01*
X012130Y015706D02*
X011817Y015706D01*
X012130Y015587D02*
X008893Y015587D01*
X008893Y015469D02*
X012130Y015469D01*
X012211Y015350D02*
X011941Y015350D01*
X012042Y015232D02*
X012330Y015232D01*
X012448Y015113D02*
X012085Y015113D01*
X012085Y014995D02*
X014022Y014995D01*
X014270Y014995D02*
X018868Y014995D01*
X018866Y015113D02*
X014405Y015113D01*
X014444Y015232D02*
X018784Y015232D01*
X018751Y015350D02*
X014434Y015350D01*
X014365Y015469D02*
X018753Y015469D01*
X018790Y015587D02*
X012470Y015587D01*
X012470Y015706D02*
X018877Y015706D01*
X019403Y015706D02*
X019480Y015706D01*
X019480Y015821D02*
X019480Y015443D01*
X020134Y015443D01*
X020125Y015502D01*
X020104Y015564D01*
X020075Y015623D01*
X020036Y015676D01*
X019990Y015722D01*
X019937Y015761D01*
X019878Y015790D01*
X019816Y015811D01*
X019751Y015821D01*
X019480Y015821D01*
X019480Y015587D02*
X019403Y015587D01*
X019403Y015469D02*
X019480Y015469D01*
X020006Y015706D02*
X022667Y015706D01*
X022667Y015824D02*
X012470Y015824D01*
X012470Y015943D02*
X022667Y015943D01*
X022667Y016061D02*
X012470Y016061D01*
X012470Y016180D02*
X022667Y016180D01*
X022732Y016298D02*
X012715Y016298D01*
X012561Y016298D02*
X012470Y016298D01*
X012638Y016589D02*
X016957Y016589D01*
X016985Y016617D01*
X017101Y016891D02*
X026372Y016891D01*
X026268Y016786D02*
X026268Y016455D01*
X026502Y016220D01*
X026833Y016220D01*
X027067Y016455D01*
X027067Y016786D01*
X026833Y017020D01*
X026502Y017020D01*
X026268Y016786D01*
X026268Y016772D02*
X024842Y016772D01*
X024890Y016654D02*
X025527Y016654D01*
X025579Y016675D02*
X025379Y016592D01*
X025225Y016439D01*
X025143Y016239D01*
X025143Y016022D01*
X025225Y015822D01*
X025379Y015668D01*
X025579Y015585D01*
X025796Y015585D01*
X025996Y015668D01*
X026150Y015822D01*
X026232Y016022D01*
X026232Y016239D01*
X026150Y016439D01*
X025996Y016592D01*
X025796Y016675D01*
X025579Y016675D01*
X025848Y016654D02*
X026268Y016654D01*
X026268Y016535D02*
X026053Y016535D01*
X026159Y016417D02*
X026305Y016417D01*
X026208Y016298D02*
X026424Y016298D01*
X026232Y016180D02*
X028091Y016180D01*
X028091Y016298D02*
X026911Y016298D01*
X027030Y016417D02*
X028091Y016417D01*
X028090Y016535D02*
X027067Y016535D01*
X027067Y016654D02*
X028090Y016654D01*
X028090Y016772D02*
X027067Y016772D01*
X026963Y016891D02*
X028090Y016891D01*
X028089Y017009D02*
X026844Y017009D01*
X026491Y017009D02*
X015372Y017009D01*
X015424Y017128D02*
X028089Y017128D01*
X028089Y017246D02*
X015424Y017246D01*
X015424Y017365D02*
X028089Y017365D01*
X028088Y017483D02*
X015424Y017483D01*
X015424Y017602D02*
X019873Y017602D01*
X019891Y017584D02*
X020000Y017539D01*
X020119Y017539D01*
X020228Y017584D01*
X020312Y017668D01*
X020357Y017778D01*
X020357Y017896D01*
X020312Y018006D01*
X020228Y018090D01*
X020119Y018135D01*
X020000Y018135D01*
X019891Y018090D01*
X019881Y018080D01*
X019628Y018080D01*
X019555Y018153D01*
X019445Y018198D01*
X019327Y018198D01*
X019217Y018153D01*
X019133Y018069D01*
X019088Y017959D01*
X019088Y017841D01*
X019133Y017731D01*
X019217Y017647D01*
X019327Y017602D01*
X019445Y017602D01*
X019555Y017647D01*
X019628Y017720D01*
X019785Y017720D01*
X019807Y017668D01*
X019891Y017584D01*
X020059Y017837D02*
X019996Y017900D01*
X019386Y017900D01*
X019144Y017720D02*
X015424Y017720D01*
X015424Y017839D02*
X019089Y017839D01*
X019088Y017957D02*
X015424Y017957D01*
X015424Y018076D02*
X019140Y018076D01*
X019318Y018194D02*
X015424Y018194D01*
X015424Y018313D02*
X026248Y018313D01*
X026248Y018360D02*
X026248Y018226D01*
X026494Y017980D01*
X026627Y017980D01*
X026627Y018360D01*
X026248Y018360D01*
X026248Y018440D02*
X026627Y018440D01*
X026627Y018360D01*
X026708Y018360D01*
X026708Y018440D01*
X027087Y018440D01*
X027087Y018574D01*
X026841Y018820D01*
X026708Y018820D01*
X026708Y018440D01*
X026627Y018440D01*
X026627Y018820D01*
X026494Y018820D01*
X026248Y018574D01*
X026248Y018440D01*
X026248Y018550D02*
X026118Y018550D01*
X026150Y018582D02*
X026232Y018782D01*
X026232Y018999D01*
X026150Y019199D01*
X025996Y019352D01*
X025796Y019435D01*
X025579Y019435D01*
X025379Y019352D01*
X025225Y019199D01*
X025143Y018999D01*
X025143Y018782D01*
X025225Y018582D01*
X025379Y018428D01*
X025579Y018345D01*
X025796Y018345D01*
X025996Y018428D01*
X026150Y018582D01*
X026185Y018668D02*
X026342Y018668D01*
X026232Y018787D02*
X026460Y018787D01*
X026627Y018787D02*
X026708Y018787D01*
X026708Y018668D02*
X026627Y018668D01*
X026627Y018550D02*
X026708Y018550D01*
X026708Y018431D02*
X028086Y018431D01*
X028087Y018313D02*
X027087Y018313D01*
X027087Y018360D02*
X026708Y018360D01*
X026708Y017980D01*
X026841Y017980D01*
X027087Y018226D01*
X027087Y018360D01*
X027056Y018194D02*
X028087Y018194D01*
X028087Y018076D02*
X026937Y018076D01*
X026708Y018076D02*
X026627Y018076D01*
X026627Y018194D02*
X026708Y018194D01*
X026708Y018313D02*
X026627Y018313D01*
X026627Y018431D02*
X025999Y018431D01*
X026279Y018194D02*
X019455Y018194D01*
X020242Y018076D02*
X026398Y018076D01*
X027087Y018550D02*
X028086Y018550D01*
X028086Y018668D02*
X026993Y018668D01*
X026875Y018787D02*
X028086Y018787D01*
X028086Y018905D02*
X026232Y018905D01*
X026222Y019024D02*
X028085Y019024D01*
X028085Y019142D02*
X026173Y019142D01*
X026088Y019261D02*
X028085Y019261D01*
X028085Y019379D02*
X025931Y019379D01*
X025444Y019379D02*
X022026Y019379D01*
X021907Y019261D02*
X025287Y019261D01*
X025202Y019142D02*
X021789Y019142D01*
X021670Y019024D02*
X025153Y019024D01*
X025143Y018905D02*
X015412Y018905D01*
X015511Y018787D02*
X025143Y018787D01*
X025190Y018668D02*
X015543Y018668D01*
X015525Y018550D02*
X025257Y018550D01*
X025376Y018431D02*
X015445Y018431D01*
X015244Y018652D02*
X015244Y018668D01*
X015244Y018652D02*
X015244Y017136D01*
X015201Y017093D01*
X012296Y017093D01*
X012515Y016891D02*
X016868Y016891D01*
X016726Y016772D02*
X012876Y016772D01*
X012400Y016772D02*
X012124Y016772D01*
X012243Y016654D02*
X012342Y016654D01*
X011762Y016654D02*
X008434Y016654D01*
X008268Y016566D02*
X008713Y016121D01*
X008713Y015207D01*
X008532Y015026D01*
X007181Y014940D02*
X007107Y014959D01*
X007107Y016054D01*
X006800Y016361D01*
X004666Y016361D01*
X004906Y016180D02*
X006726Y016180D01*
X006844Y016061D02*
X003694Y016061D01*
X003757Y015943D02*
X006927Y015943D01*
X006927Y015824D02*
X003763Y015824D01*
X003720Y015706D02*
X006927Y015706D01*
X006927Y015587D02*
X003764Y015587D01*
X003883Y015469D02*
X006927Y015469D01*
X006927Y015350D02*
X004001Y015350D01*
X004120Y015232D02*
X006927Y015232D01*
X006927Y015113D02*
X004405Y015113D01*
X004471Y014995D02*
X006883Y014995D01*
X006885Y014876D02*
X004480Y014876D01*
X004181Y014916D02*
X003465Y015632D01*
X003465Y015869D01*
X003236Y016061D02*
X000745Y016061D01*
X000745Y015943D02*
X003173Y015943D01*
X003167Y015824D02*
X000745Y015824D01*
X000745Y015706D02*
X003210Y015706D01*
X003285Y015587D02*
X000745Y015587D01*
X000745Y015469D02*
X003374Y015469D01*
X003492Y015350D02*
X000745Y015350D01*
X000745Y015232D02*
X003611Y015232D01*
X003729Y015113D02*
X000745Y015113D01*
X000745Y014995D02*
X003848Y014995D01*
X003883Y014876D02*
X000745Y014876D01*
X000745Y014758D02*
X003126Y014758D01*
X003007Y014639D02*
X000745Y014639D01*
X000745Y014521D02*
X002889Y014521D01*
X002770Y014402D02*
X000745Y014402D01*
X000745Y014284D02*
X002652Y014284D01*
X002533Y014165D02*
X000745Y014165D01*
X000745Y014047D02*
X002415Y014047D01*
X002296Y013928D02*
X000745Y013928D01*
X000745Y013810D02*
X002224Y013810D01*
X002224Y013691D02*
X000745Y013691D01*
X000745Y013573D02*
X002224Y013573D01*
X002224Y013454D02*
X000745Y013454D01*
X000745Y013336D02*
X002224Y013336D01*
X002224Y013217D02*
X000745Y013217D01*
X000745Y013099D02*
X002224Y013099D01*
X002224Y012980D02*
X000745Y012980D01*
X000745Y012862D02*
X002224Y012862D01*
X002224Y012743D02*
X000745Y012743D01*
X000745Y012625D02*
X002224Y012625D01*
X002224Y012506D02*
X000745Y012506D01*
X000745Y012388D02*
X002224Y012388D01*
X002224Y012269D02*
X000745Y012269D01*
X000745Y012151D02*
X002224Y012151D01*
X002224Y012032D02*
X000745Y012032D01*
X000745Y011914D02*
X002224Y011914D01*
X002224Y011795D02*
X000745Y011795D01*
X000745Y011677D02*
X002224Y011677D01*
X002224Y011558D02*
X000745Y011558D01*
X000745Y011440D02*
X002224Y011440D01*
X002224Y011321D02*
X000745Y011321D01*
X000745Y011203D02*
X002224Y011203D01*
X002224Y011084D02*
X000745Y011084D01*
X000745Y010966D02*
X002224Y010966D01*
X002193Y010847D02*
X000745Y010847D01*
X000745Y010729D02*
X002074Y010729D01*
X001994Y010610D02*
X000745Y010610D01*
X000745Y010492D02*
X001994Y010492D01*
X001994Y010373D02*
X000745Y010373D01*
X000745Y010255D02*
X002056Y010255D01*
X002175Y010136D02*
X000745Y010136D01*
X000745Y010018D02*
X002740Y010018D01*
X002740Y010136D02*
X002613Y010136D01*
X002732Y010255D02*
X002740Y010255D01*
X003080Y010203D02*
X003080Y009763D01*
X003220Y009903D01*
X003354Y009903D01*
X003354Y009523D01*
X003434Y009523D01*
X003434Y009903D01*
X003568Y009903D01*
X003814Y009657D01*
X003814Y009523D01*
X003434Y009523D01*
X003434Y009443D01*
X003814Y009443D01*
X003814Y009309D01*
X003568Y009063D01*
X003434Y009063D01*
X003434Y009443D01*
X003354Y009443D01*
X003354Y009063D01*
X003220Y009063D01*
X003080Y009203D01*
X003080Y008763D01*
X003220Y008903D01*
X003354Y008903D01*
X003354Y008523D01*
X003434Y008523D01*
X003434Y008903D01*
X003568Y008903D01*
X003814Y008657D01*
X003814Y008523D01*
X003434Y008523D01*
X003434Y008443D01*
X003814Y008443D01*
X003814Y008309D01*
X003668Y008163D01*
X003843Y008163D01*
X003891Y008211D01*
X003891Y010960D01*
X003669Y011169D01*
X003148Y011169D01*
X003119Y011155D01*
X003077Y011169D01*
X003032Y011169D01*
X003009Y011192D01*
X002700Y011297D01*
X002689Y011297D01*
X002683Y011303D01*
X002632Y011321D01*
X002598Y011390D01*
X002590Y011398D01*
X002590Y011406D01*
X002566Y011455D01*
X002591Y011527D01*
X002602Y013644D01*
X002601Y013713D01*
X002602Y013714D01*
X002602Y013716D01*
X002652Y013764D01*
X003216Y014340D01*
X003216Y014341D01*
X003265Y014390D01*
X003314Y014440D01*
X003315Y014440D01*
X003316Y014440D01*
X003385Y014440D01*
X003455Y014441D01*
X003456Y014440D01*
X013604Y014436D01*
X013657Y014443D01*
X003291Y014443D01*
X002564Y013716D01*
X002564Y010879D01*
X002740Y010703D01*
X002740Y011061D01*
X002867Y011188D01*
X003008Y011188D01*
X003107Y011089D01*
X003107Y010948D01*
X003080Y010920D01*
X003080Y010763D01*
X003220Y010903D01*
X003354Y010903D01*
X003354Y010523D01*
X003434Y010523D01*
X003434Y010903D01*
X003568Y010903D01*
X003814Y010657D01*
X003814Y010523D01*
X003434Y010523D01*
X003434Y010443D01*
X003814Y010443D01*
X003814Y010309D01*
X003568Y010063D01*
X003434Y010063D01*
X003434Y010443D01*
X003354Y010443D01*
X003354Y010063D01*
X003220Y010063D01*
X003080Y010203D01*
X003080Y010136D02*
X003146Y010136D01*
X003080Y010018D02*
X003891Y010018D01*
X003891Y010136D02*
X003642Y010136D01*
X003760Y010255D02*
X003891Y010255D01*
X003891Y010373D02*
X003814Y010373D01*
X003891Y010492D02*
X003434Y010492D01*
X003434Y010610D02*
X003354Y010610D01*
X003354Y010729D02*
X003434Y010729D01*
X003434Y010847D02*
X003354Y010847D01*
X003165Y010847D02*
X003080Y010847D01*
X003107Y010966D02*
X003885Y010966D01*
X003891Y010847D02*
X003623Y010847D01*
X003742Y010729D02*
X003891Y010729D01*
X003891Y010610D02*
X003814Y010610D01*
X004071Y011038D02*
X003740Y011349D01*
X003107Y011349D01*
X002760Y011467D01*
X002573Y011440D02*
X002564Y011440D01*
X002564Y011558D02*
X002591Y011558D01*
X002591Y011677D02*
X002564Y011677D01*
X002564Y011795D02*
X002592Y011795D01*
X002593Y011914D02*
X002564Y011914D01*
X002564Y012032D02*
X002593Y012032D01*
X002594Y012151D02*
X002564Y012151D01*
X002564Y012269D02*
X002595Y012269D01*
X002595Y012388D02*
X002564Y012388D01*
X002564Y012506D02*
X002596Y012506D01*
X002596Y012625D02*
X002564Y012625D01*
X002564Y012743D02*
X002597Y012743D01*
X002598Y012862D02*
X002564Y012862D01*
X002564Y012980D02*
X002598Y012980D01*
X002599Y013099D02*
X002564Y013099D01*
X002564Y013217D02*
X002600Y013217D01*
X002600Y013336D02*
X002564Y013336D01*
X002564Y013454D02*
X002601Y013454D01*
X002602Y013573D02*
X002564Y013573D01*
X002564Y013691D02*
X002602Y013691D01*
X002658Y013810D02*
X002696Y013810D01*
X002777Y013928D02*
X002813Y013928D01*
X002895Y014047D02*
X002929Y014047D01*
X003014Y014165D02*
X003045Y014165D01*
X003132Y014284D02*
X003161Y014284D01*
X003251Y014402D02*
X003278Y014402D01*
X004425Y016180D02*
X000745Y016180D01*
X000745Y016298D02*
X004369Y016298D01*
X004368Y016417D02*
X000745Y016417D01*
X000745Y016535D02*
X004419Y016535D01*
X004215Y016654D02*
X000745Y016654D01*
X000745Y016772D02*
X004132Y016772D01*
X004112Y016891D02*
X000745Y016891D01*
X000745Y017009D02*
X004141Y017009D01*
X004236Y017128D02*
X000745Y017128D01*
X000745Y017246D02*
X005171Y017246D01*
X004959Y017365D02*
X003709Y017365D01*
X003689Y017357D02*
X003843Y017420D01*
X003962Y017539D01*
X004025Y017693D01*
X004025Y017860D01*
X003962Y018014D01*
X003843Y018133D01*
X003689Y018197D01*
X003522Y018197D01*
X003368Y018133D01*
X003249Y018014D01*
X003185Y017860D01*
X003185Y017693D01*
X003249Y017539D01*
X003368Y017420D01*
X003522Y017357D01*
X003689Y017357D01*
X003502Y017365D02*
X000745Y017365D01*
X000745Y017483D02*
X003305Y017483D01*
X003223Y017602D02*
X000745Y017602D01*
X000745Y017720D02*
X003185Y017720D01*
X003185Y017839D02*
X000745Y017839D01*
X000745Y017957D02*
X003226Y017957D01*
X003311Y018076D02*
X000745Y018076D01*
X000745Y018194D02*
X003517Y018194D01*
X003571Y018337D02*
X003502Y018347D01*
X003437Y018369D01*
X003375Y018400D01*
X003319Y018441D01*
X003270Y018490D01*
X003229Y018546D01*
X003198Y018608D01*
X003176Y018674D01*
X003165Y018742D01*
X003165Y018757D01*
X003585Y018757D01*
X003585Y018797D01*
X003585Y019217D01*
X003571Y019217D01*
X003502Y019206D01*
X003437Y019184D01*
X003375Y019153D01*
X003319Y019112D01*
X003270Y019063D01*
X003229Y019007D01*
X003198Y018945D01*
X003176Y018880D01*
X003165Y018811D01*
X003165Y018797D01*
X003585Y018797D01*
X003625Y018797D01*
X003625Y019217D01*
X003640Y019217D01*
X003708Y019206D01*
X003774Y019184D01*
X003836Y019153D01*
X003892Y019112D01*
X003941Y019063D01*
X003982Y019007D01*
X004013Y018945D01*
X004035Y018880D01*
X004045Y018811D01*
X004045Y018797D01*
X003625Y018797D01*
X003625Y018757D01*
X003625Y018337D01*
X003640Y018337D01*
X003708Y018347D01*
X003774Y018369D01*
X003836Y018400D01*
X003892Y018441D01*
X003941Y018490D01*
X003982Y018546D01*
X004013Y018608D01*
X004035Y018674D01*
X004045Y018742D01*
X004045Y018757D01*
X003625Y018757D01*
X003585Y018757D01*
X003585Y018337D01*
X003571Y018337D01*
X003585Y018431D02*
X003625Y018431D01*
X003625Y018550D02*
X003585Y018550D01*
X003585Y018668D02*
X003625Y018668D01*
X003625Y018787D02*
X004858Y018787D01*
X004741Y018668D02*
X004033Y018668D01*
X003984Y018550D02*
X004692Y018550D01*
X004643Y018431D02*
X003879Y018431D01*
X003694Y018194D02*
X004595Y018194D01*
X004595Y018076D02*
X003900Y018076D01*
X003985Y017957D02*
X004595Y017957D01*
X004635Y017839D02*
X004025Y017839D01*
X004025Y017720D02*
X004685Y017720D01*
X004734Y017602D02*
X003988Y017602D01*
X003906Y017483D02*
X004841Y017483D01*
X004584Y017128D02*
X006160Y017128D01*
X006160Y017246D02*
X005939Y017246D01*
X006152Y017365D02*
X006173Y017365D01*
X006205Y017009D02*
X006090Y017009D01*
X006209Y016891D02*
X006270Y016891D01*
X006327Y016772D02*
X006389Y016772D01*
X006280Y016566D02*
X008268Y016566D01*
X007205Y017009D02*
X011748Y017009D01*
X011748Y016891D02*
X007141Y016891D01*
X007022Y016772D02*
X011748Y016772D01*
X011748Y017128D02*
X007250Y017128D01*
X007250Y017246D02*
X011748Y017246D01*
X011748Y017365D02*
X007238Y017365D01*
X007189Y017483D02*
X011748Y017483D01*
X011748Y017602D02*
X007101Y017602D01*
X006937Y017720D02*
X011748Y017720D01*
X011748Y017839D02*
X006475Y017839D01*
X006474Y017720D02*
X006426Y017720D01*
X006515Y017957D02*
X011748Y017957D01*
X011841Y018076D02*
X006515Y018076D01*
X006515Y018194D02*
X008971Y018194D01*
X008952Y018197D02*
X009021Y018187D01*
X009035Y018187D01*
X009035Y018607D01*
X008615Y018607D01*
X008615Y018592D01*
X008626Y018524D01*
X008648Y018458D01*
X008679Y018396D01*
X008720Y018340D01*
X008769Y018291D01*
X008825Y018250D01*
X008887Y018219D01*
X008952Y018197D01*
X009035Y018194D02*
X009075Y018194D01*
X009140Y018194D02*
X011960Y018194D01*
X012078Y018313D02*
X009364Y018313D01*
X009075Y018313D02*
X009035Y018313D01*
X009035Y018431D02*
X009075Y018431D01*
X009075Y018550D02*
X009035Y018550D01*
X009035Y018607D02*
X009075Y018607D01*
X009075Y018647D01*
X009035Y018647D01*
X009035Y019067D01*
X009021Y019067D01*
X008952Y019056D01*
X008887Y019034D01*
X008825Y019003D01*
X008769Y018962D01*
X008720Y018913D01*
X008679Y018857D01*
X008648Y018795D01*
X008626Y018730D01*
X008615Y018661D01*
X008615Y018647D01*
X009035Y018647D01*
X009035Y018607D01*
X009075Y018647D02*
X009075Y019067D01*
X009090Y019067D01*
X009158Y019056D01*
X009224Y019034D01*
X009286Y019003D01*
X009342Y018962D01*
X009391Y018913D01*
X009432Y018857D01*
X009463Y018795D01*
X009485Y018730D01*
X009495Y018661D01*
X009495Y018647D01*
X009075Y018647D01*
X009075Y018668D02*
X009035Y018668D01*
X009035Y018787D02*
X009075Y018787D01*
X009075Y018905D02*
X009035Y018905D01*
X009035Y019024D02*
X009075Y019024D01*
X009245Y019024D02*
X013734Y019024D01*
X013762Y019142D02*
X008475Y019142D01*
X008475Y019210D02*
X008412Y019364D01*
X008293Y019483D01*
X008139Y019547D01*
X007972Y019547D01*
X007818Y019483D01*
X007699Y019364D01*
X007635Y019210D01*
X007635Y019043D01*
X007699Y018889D01*
X007818Y018770D01*
X007972Y018707D01*
X008139Y018707D01*
X008293Y018770D01*
X008412Y018889D01*
X008475Y019043D01*
X008475Y019210D01*
X008454Y019261D02*
X008840Y019261D01*
X008709Y019379D02*
X008396Y019379D01*
X008256Y019498D02*
X008654Y019498D01*
X008635Y019616D02*
X003949Y019616D01*
X004010Y019735D02*
X007903Y019735D01*
X007735Y019853D02*
X004015Y019853D01*
X003971Y019972D02*
X007665Y019972D01*
X007635Y020090D02*
X003808Y020090D01*
X003625Y020090D02*
X000446Y020090D01*
X000446Y019972D02*
X000930Y019972D01*
X000834Y019853D02*
X000445Y019853D01*
X000445Y019735D02*
X000770Y019735D01*
X000704Y019616D02*
X000445Y019616D01*
X000445Y019498D02*
X000638Y019498D01*
X000571Y019379D02*
X000445Y019379D01*
X000445Y019261D02*
X000505Y019261D01*
X000828Y019142D02*
X003361Y019142D01*
X003241Y019024D02*
X000762Y019024D01*
X000745Y018905D02*
X003185Y018905D01*
X003178Y018668D02*
X000745Y018668D01*
X000745Y018550D02*
X003227Y018550D01*
X003332Y018431D02*
X000745Y018431D01*
X000745Y018313D02*
X004595Y018313D01*
X004977Y018905D02*
X004026Y018905D01*
X003970Y019024D02*
X005214Y019024D01*
X005897Y019024D02*
X007643Y019024D01*
X007635Y019142D02*
X003850Y019142D01*
X003625Y019142D02*
X003585Y019142D01*
X003585Y019024D02*
X003625Y019024D01*
X003625Y018905D02*
X003585Y018905D01*
X003585Y018787D02*
X000745Y018787D01*
X000895Y019261D02*
X007657Y019261D01*
X007714Y019379D02*
X000961Y019379D01*
X001027Y019498D02*
X007855Y019498D01*
X008208Y019735D02*
X008646Y019735D01*
X008695Y019853D02*
X008376Y019853D01*
X008446Y019972D02*
X008623Y019972D01*
X008504Y020090D02*
X008475Y020090D01*
X008571Y020278D02*
X008571Y020506D01*
X008390Y020644D01*
X007685Y020644D01*
X007374Y020999D01*
X007374Y021912D01*
X007603Y022140D01*
X008042Y022140D01*
X008055Y022127D01*
X008475Y021986D02*
X008827Y021986D01*
X008703Y021868D02*
X008475Y021868D01*
X008448Y021749D02*
X008652Y021749D01*
X008635Y021631D02*
X007554Y021631D01*
X007554Y021749D02*
X007663Y021749D01*
X007635Y021868D02*
X007585Y021868D01*
X007554Y021512D02*
X007890Y021512D01*
X007729Y021394D02*
X007554Y021394D01*
X007554Y021275D02*
X007663Y021275D01*
X007635Y021157D02*
X007554Y021157D01*
X007579Y021038D02*
X007637Y021038D01*
X007683Y020920D02*
X007686Y020920D01*
X007412Y020683D02*
X000446Y020683D01*
X000446Y020801D02*
X007308Y020801D01*
X007198Y020920D02*
X000446Y020920D01*
X000446Y021038D02*
X007194Y021038D01*
X007194Y021157D02*
X000446Y021157D01*
X000446Y021275D02*
X007194Y021275D01*
X007194Y021394D02*
X000446Y021394D01*
X000446Y021512D02*
X007194Y021512D01*
X007194Y021631D02*
X003878Y021631D01*
X003892Y021641D02*
X003941Y021690D01*
X003982Y021746D01*
X004013Y021808D01*
X004035Y021874D01*
X004045Y021942D01*
X004045Y021957D01*
X003625Y021957D01*
X003625Y021537D01*
X003640Y021537D01*
X003708Y021547D01*
X003774Y021569D01*
X003836Y021600D01*
X003892Y021641D01*
X003984Y021749D02*
X005164Y021749D01*
X005012Y021813D02*
X005364Y021667D01*
X005746Y021667D01*
X006099Y021813D01*
X006369Y022083D01*
X006515Y022436D01*
X006515Y022817D01*
X006417Y023056D01*
X006597Y022982D01*
X006814Y022982D01*
X007014Y023065D01*
X007167Y023218D01*
X007250Y023418D01*
X007250Y023635D01*
X007167Y023835D01*
X007014Y023989D01*
X006814Y024072D01*
X006597Y024072D01*
X006397Y023989D01*
X006243Y023835D01*
X006160Y023635D01*
X006160Y023418D01*
X006188Y023352D01*
X006099Y023440D01*
X005746Y023587D01*
X005364Y023587D01*
X005012Y023440D01*
X004742Y023170D01*
X004595Y022817D01*
X004595Y022436D01*
X004742Y022083D01*
X005012Y021813D01*
X004956Y021868D02*
X004033Y021868D01*
X004045Y021997D02*
X004045Y022011D01*
X004035Y022080D01*
X004013Y022145D01*
X003982Y022207D01*
X003941Y022263D01*
X003892Y022312D01*
X003836Y022353D01*
X003774Y022384D01*
X003708Y022406D01*
X003640Y022417D01*
X003625Y022417D01*
X003625Y021997D01*
X003585Y021997D01*
X003585Y022417D01*
X003571Y022417D01*
X003502Y022406D01*
X003437Y022384D01*
X003375Y022353D01*
X003319Y022312D01*
X003270Y022263D01*
X003229Y022207D01*
X003198Y022145D01*
X003176Y022080D01*
X003165Y022011D01*
X003165Y021997D01*
X003585Y021997D01*
X003585Y021957D01*
X003165Y021957D01*
X003165Y021942D01*
X003176Y021874D01*
X003198Y021808D01*
X003229Y021746D01*
X003270Y021690D01*
X003319Y021641D01*
X003375Y021600D01*
X003437Y021569D01*
X003502Y021547D01*
X003571Y021537D01*
X003585Y021537D01*
X003585Y021957D01*
X003625Y021957D01*
X003625Y021997D01*
X004045Y021997D01*
X004026Y022105D02*
X004732Y022105D01*
X004683Y022223D02*
X003970Y022223D01*
X003851Y022342D02*
X004634Y022342D01*
X004595Y022460D02*
X000447Y022460D01*
X000447Y022342D02*
X003360Y022342D01*
X003241Y022223D02*
X000447Y022223D01*
X000447Y022105D02*
X003185Y022105D01*
X003178Y021868D02*
X000447Y021868D01*
X000447Y021986D02*
X003585Y021986D01*
X003625Y021986D02*
X004838Y021986D01*
X004595Y022579D02*
X003743Y022579D01*
X003689Y022557D02*
X003843Y022620D01*
X003962Y022739D01*
X004025Y022893D01*
X004025Y023060D01*
X003962Y023214D01*
X003843Y023333D01*
X003689Y023397D01*
X003522Y023397D01*
X003368Y023333D01*
X003249Y023214D01*
X003185Y023060D01*
X003185Y022893D01*
X003249Y022739D01*
X003368Y022620D01*
X003522Y022557D01*
X003689Y022557D01*
X003468Y022579D02*
X000447Y022579D01*
X000447Y022697D02*
X003291Y022697D01*
X003217Y022816D02*
X000447Y022816D01*
X000447Y022934D02*
X003185Y022934D01*
X003185Y023053D02*
X000447Y023053D01*
X000447Y023171D02*
X003232Y023171D01*
X003325Y023290D02*
X000448Y023290D01*
X000448Y023409D02*
X004980Y023409D01*
X004861Y023290D02*
X003886Y023290D01*
X003979Y023171D02*
X004743Y023171D01*
X004693Y023053D02*
X004025Y023053D01*
X004025Y022934D02*
X004644Y022934D01*
X004595Y022816D02*
X003994Y022816D01*
X003920Y022697D02*
X004595Y022697D01*
X005221Y023527D02*
X000448Y023527D01*
X000448Y023646D02*
X006165Y023646D01*
X006160Y023527D02*
X005890Y023527D01*
X006131Y023409D02*
X006164Y023409D01*
X006418Y023053D02*
X006425Y023053D01*
X006467Y022934D02*
X010600Y022934D01*
X010600Y022816D02*
X006515Y022816D01*
X006515Y022697D02*
X010600Y022697D01*
X010600Y022579D02*
X006515Y022579D01*
X006515Y022460D02*
X007635Y022460D01*
X007635Y022342D02*
X006477Y022342D01*
X006428Y022223D02*
X007431Y022223D01*
X007313Y022105D02*
X006379Y022105D01*
X006273Y021986D02*
X007194Y021986D01*
X007194Y021868D02*
X006155Y021868D01*
X005947Y021749D02*
X007194Y021749D01*
X008221Y021512D02*
X008648Y021512D01*
X008697Y021394D02*
X008382Y021394D01*
X008057Y021129D02*
X008055Y021127D01*
X008057Y021129D02*
X013756Y021129D01*
X013543Y020920D02*
X009356Y020920D01*
X009327Y020949D02*
X013515Y020949D01*
X013587Y020876D01*
X013697Y020830D01*
X013816Y020830D01*
X013925Y020876D01*
X014009Y020960D01*
X014054Y021069D01*
X014054Y021188D01*
X014009Y021297D01*
X013925Y021381D01*
X013816Y021427D01*
X013697Y021427D01*
X013587Y021381D01*
X013515Y021309D01*
X009331Y021309D01*
X009412Y021389D01*
X009475Y021543D01*
X009475Y021555D01*
X010492Y021555D01*
X010598Y021660D01*
X010960Y022022D01*
X010960Y023589D01*
X011130Y023760D01*
X013745Y023760D01*
X014150Y023354D01*
X016724Y023354D01*
X016830Y023459D01*
X017011Y023641D01*
X017011Y023983D01*
X017248Y024220D01*
X020111Y024220D01*
X020078Y024187D01*
X020033Y024078D01*
X020033Y023959D01*
X020078Y023849D01*
X020151Y023777D01*
X020151Y022821D01*
X019784Y022454D01*
X014760Y022454D01*
X014237Y021931D01*
X014237Y021931D01*
X014131Y021825D01*
X014131Y020939D01*
X013894Y020702D01*
X009800Y020702D01*
X009426Y020328D01*
X009351Y020328D01*
X009412Y020389D01*
X009475Y020543D01*
X009475Y020710D01*
X009412Y020864D01*
X009327Y020949D01*
X009438Y020801D02*
X013994Y020801D01*
X013969Y020920D02*
X014112Y020920D01*
X014131Y021038D02*
X014042Y021038D01*
X014054Y021157D02*
X014131Y021157D01*
X014131Y021275D02*
X014018Y021275D01*
X014131Y021394D02*
X013894Y021394D01*
X014131Y021512D02*
X009463Y021512D01*
X009414Y021394D02*
X013618Y021394D01*
X014131Y021631D02*
X010568Y021631D01*
X010687Y021749D02*
X014131Y021749D01*
X014174Y021868D02*
X010805Y021868D01*
X010924Y021986D02*
X014293Y021986D01*
X014411Y022105D02*
X010960Y022105D01*
X010960Y022223D02*
X014530Y022223D01*
X014648Y022342D02*
X010960Y022342D01*
X010960Y022460D02*
X019790Y022460D01*
X019909Y022579D02*
X010960Y022579D01*
X010960Y022697D02*
X020027Y022697D01*
X020146Y022816D02*
X010960Y022816D01*
X010960Y022934D02*
X020151Y022934D01*
X020151Y023053D02*
X010960Y023053D01*
X010960Y023171D02*
X020151Y023171D01*
X020151Y023290D02*
X010960Y023290D01*
X010960Y023409D02*
X014096Y023409D01*
X013977Y023527D02*
X010960Y023527D01*
X011016Y023646D02*
X013859Y023646D01*
X013819Y023940D02*
X011055Y023940D01*
X010780Y023664D01*
X010780Y022097D01*
X010418Y021735D01*
X009164Y021735D01*
X009055Y021627D01*
X009284Y021986D02*
X009451Y021986D01*
X009620Y021986D02*
X010415Y021986D01*
X010600Y022342D02*
X009830Y022342D01*
X009834Y022215D02*
X009788Y022105D01*
X009771Y022460D02*
X010600Y022460D01*
X010600Y023053D02*
X006986Y023053D01*
X007121Y023171D02*
X010600Y023171D01*
X010600Y023290D02*
X007197Y023290D01*
X007246Y023409D02*
X010600Y023409D01*
X010600Y023527D02*
X007250Y023527D01*
X007246Y023646D02*
X010600Y023646D01*
X010625Y023764D02*
X007197Y023764D01*
X007120Y023883D02*
X010744Y023883D01*
X010862Y024001D02*
X006984Y024001D01*
X006427Y024001D02*
X000448Y024001D01*
X000448Y023883D02*
X006291Y023883D01*
X006214Y023764D02*
X000448Y023764D01*
X000448Y024120D02*
X010981Y024120D01*
X011069Y024238D02*
X000448Y024238D01*
X000448Y024357D02*
X010947Y024357D01*
X010911Y024475D02*
X000448Y024475D01*
X000448Y024594D02*
X010924Y024594D01*
X010997Y024712D02*
X000448Y024712D01*
X000448Y024831D02*
X011206Y024831D01*
X011206Y024949D02*
X000449Y024949D01*
X000449Y025068D02*
X011206Y025068D01*
X011206Y025186D02*
X000449Y025186D01*
X000449Y025305D02*
X011249Y025305D01*
X011367Y025423D02*
X000449Y025423D01*
X000449Y025542D02*
X011486Y025542D01*
X011604Y025660D02*
X000449Y025660D01*
X000449Y025779D02*
X011723Y025779D01*
X012016Y025817D02*
X011386Y025188D01*
X011386Y024680D01*
X011209Y024503D01*
X011507Y024475D02*
X014151Y024475D01*
X014151Y024594D02*
X011555Y024594D01*
X011566Y024712D02*
X014151Y024712D01*
X014151Y024831D02*
X011566Y024831D01*
X011566Y024949D02*
X014151Y024949D01*
X014151Y025068D02*
X011566Y025068D01*
X011639Y025186D02*
X014151Y025186D01*
X014078Y025305D02*
X011758Y025305D01*
X011876Y025423D02*
X013959Y025423D01*
X013841Y025542D02*
X011995Y025542D01*
X012016Y025817D02*
X013819Y025817D01*
X014331Y025306D01*
X014331Y024207D01*
X014116Y024001D02*
X014012Y024001D01*
X014045Y024120D02*
X013894Y024120D01*
X014033Y024238D02*
X011349Y024238D01*
X011471Y024357D02*
X014070Y024357D01*
X014511Y024475D02*
X015545Y024475D01*
X015545Y024357D02*
X014592Y024357D01*
X014629Y024238D02*
X015545Y024238D01*
X015545Y024120D02*
X014617Y024120D01*
X014546Y024001D02*
X015505Y024001D01*
X015509Y023883D02*
X014131Y023883D01*
X014249Y023764D02*
X015569Y023764D01*
X015803Y023951D02*
X015725Y024030D01*
X015725Y025365D01*
X016237Y025877D01*
X022319Y025877D01*
X023044Y025152D01*
X023044Y020652D01*
X021532Y019140D01*
X014701Y019140D01*
X014366Y018806D01*
X013937Y018806D01*
X013656Y018905D02*
X012866Y018905D01*
X012741Y018905D02*
X009397Y018905D01*
X009466Y018787D02*
X012560Y018787D01*
X012506Y018668D02*
X009494Y018668D01*
X008866Y019024D02*
X008468Y019024D01*
X008418Y018905D02*
X008714Y018905D01*
X008645Y018787D02*
X008310Y018787D01*
X007801Y018787D02*
X006253Y018787D01*
X006370Y018668D02*
X008617Y018668D01*
X008622Y018550D02*
X006419Y018550D01*
X006468Y018431D02*
X008661Y018431D01*
X008747Y018313D02*
X006515Y018313D01*
X006134Y018905D02*
X007692Y018905D01*
X007635Y020209D02*
X000446Y020209D01*
X000446Y020327D02*
X007684Y020327D01*
X007781Y020446D02*
X000446Y020446D01*
X000446Y020564D02*
X007511Y020564D01*
X008571Y020278D02*
X008701Y020148D01*
X009500Y020148D01*
X009874Y020522D01*
X013969Y020522D01*
X014311Y020865D01*
X014311Y021751D01*
X014835Y022274D01*
X019859Y022274D01*
X020331Y022747D01*
X020331Y024018D01*
X020050Y024120D02*
X017147Y024120D01*
X017029Y024001D02*
X020033Y024001D01*
X020065Y023883D02*
X017011Y023883D01*
X017011Y023764D02*
X020151Y023764D01*
X020151Y023646D02*
X017011Y023646D01*
X016897Y023527D02*
X020151Y023527D01*
X020151Y023409D02*
X016779Y023409D01*
X016650Y023534D02*
X014225Y023534D01*
X013819Y023940D01*
X014511Y024594D02*
X015545Y024594D01*
X015545Y024712D02*
X014511Y024712D01*
X014511Y024831D02*
X015545Y024831D01*
X015545Y024949D02*
X014511Y024949D01*
X014511Y025068D02*
X015545Y025068D01*
X015545Y025186D02*
X014511Y025186D01*
X014511Y025305D02*
X015545Y025305D01*
X015545Y025423D02*
X014468Y025423D01*
X014350Y025542D02*
X015647Y025542D01*
X015765Y025660D02*
X014231Y025660D01*
X014113Y025779D02*
X015884Y025779D01*
X016156Y025542D02*
X022400Y025542D01*
X022281Y025660D02*
X016275Y025660D01*
X016311Y025697D02*
X022245Y025697D01*
X022864Y025078D01*
X022864Y020727D01*
X021457Y019320D01*
X014627Y019320D01*
X014521Y019215D01*
X014292Y018986D01*
X014179Y018986D01*
X014106Y019058D01*
X014033Y019089D01*
X014118Y019124D01*
X014202Y019208D01*
X014247Y019317D01*
X014247Y019436D01*
X014202Y019545D01*
X014118Y019629D01*
X014008Y019675D01*
X013890Y019675D01*
X013780Y019629D01*
X013708Y019557D01*
X009475Y019557D01*
X009475Y019710D01*
X009412Y019864D01*
X009308Y019968D01*
X009575Y019968D01*
X009680Y020074D01*
X009949Y020342D01*
X014043Y020342D01*
X014149Y020448D01*
X014491Y020790D01*
X014491Y021676D01*
X014910Y022094D01*
X019933Y022094D01*
X020511Y022672D01*
X020511Y023777D01*
X020584Y023849D01*
X020591Y023866D01*
X020594Y023857D01*
X020678Y023773D01*
X020787Y023728D01*
X020906Y023728D01*
X021016Y023773D01*
X021100Y023857D01*
X021145Y023967D01*
X021145Y024085D01*
X021100Y024195D01*
X021016Y024279D01*
X020906Y024324D01*
X020846Y024443D01*
X020846Y024475D01*
X020813Y024507D01*
X020793Y024548D01*
X020763Y024558D01*
X020740Y024580D01*
X020694Y024580D01*
X020651Y024594D01*
X020623Y024580D01*
X017099Y024580D01*
X016756Y024238D01*
X016651Y024132D01*
X016651Y023790D01*
X016575Y023714D01*
X015988Y023714D01*
X016056Y023782D01*
X016102Y023892D01*
X016102Y024011D01*
X016056Y024120D01*
X015972Y024204D01*
X015905Y024232D01*
X015905Y025290D01*
X016311Y025697D01*
X016038Y025423D02*
X022518Y025423D01*
X022637Y025305D02*
X015919Y025305D01*
X015905Y025186D02*
X022755Y025186D01*
X022864Y025068D02*
X015905Y025068D01*
X015905Y024949D02*
X022864Y024949D01*
X022864Y024831D02*
X015905Y024831D01*
X015905Y024712D02*
X022864Y024712D01*
X022864Y024594D02*
X020654Y024594D01*
X020649Y024594D02*
X015905Y024594D01*
X015905Y024475D02*
X016994Y024475D01*
X016875Y024357D02*
X015905Y024357D01*
X015905Y024238D02*
X016757Y024238D01*
X016651Y024120D02*
X016057Y024120D01*
X016102Y024001D02*
X016651Y024001D01*
X016651Y023883D02*
X016098Y023883D01*
X016038Y023764D02*
X016625Y023764D01*
X016831Y023715D02*
X016650Y023534D01*
X016831Y023715D02*
X016831Y024058D01*
X017174Y024400D01*
X020666Y024400D01*
X020807Y024121D01*
X020847Y024026D01*
X021057Y024238D02*
X022864Y024238D01*
X022864Y024120D02*
X021131Y024120D01*
X021145Y024001D02*
X022864Y024001D01*
X022864Y023883D02*
X021110Y023883D01*
X020993Y023764D02*
X022864Y023764D01*
X022864Y023646D02*
X020511Y023646D01*
X020511Y023764D02*
X020701Y023764D01*
X020511Y023527D02*
X022864Y023527D01*
X022864Y023409D02*
X020511Y023409D01*
X020511Y023290D02*
X022864Y023290D01*
X022864Y023171D02*
X020511Y023171D01*
X020511Y023053D02*
X022864Y023053D01*
X022864Y022934D02*
X020511Y022934D01*
X020511Y022816D02*
X022864Y022816D01*
X022864Y022697D02*
X020511Y022697D01*
X020418Y022579D02*
X022864Y022579D01*
X022864Y022460D02*
X020299Y022460D01*
X020181Y022342D02*
X022864Y022342D01*
X022864Y022223D02*
X020062Y022223D01*
X019944Y022105D02*
X022864Y022105D01*
X022864Y021986D02*
X014802Y021986D01*
X014683Y021868D02*
X022864Y021868D01*
X022864Y021749D02*
X014565Y021749D01*
X014491Y021631D02*
X022864Y021631D01*
X022864Y021512D02*
X014491Y021512D01*
X014491Y021394D02*
X022864Y021394D01*
X022864Y021275D02*
X014491Y021275D01*
X014491Y021157D02*
X022864Y021157D01*
X022864Y021038D02*
X014491Y021038D01*
X014491Y020920D02*
X022864Y020920D01*
X022864Y020801D02*
X014491Y020801D01*
X014384Y020683D02*
X022820Y020683D01*
X022701Y020564D02*
X014266Y020564D01*
X014147Y020446D02*
X022583Y020446D01*
X022464Y020327D02*
X009934Y020327D01*
X009816Y020209D02*
X022346Y020209D01*
X022227Y020090D02*
X009697Y020090D01*
X009579Y019972D02*
X022109Y019972D01*
X021990Y019853D02*
X009416Y019853D01*
X009465Y019735D02*
X021872Y019735D01*
X021753Y019616D02*
X014131Y019616D01*
X014222Y019498D02*
X021635Y019498D01*
X021516Y019379D02*
X014247Y019379D01*
X014224Y019261D02*
X014567Y019261D01*
X014449Y019142D02*
X014137Y019142D01*
X014141Y019024D02*
X014330Y019024D01*
X014602Y018787D02*
X014978Y018787D01*
X014946Y018668D02*
X014484Y018668D01*
X014721Y018905D02*
X015077Y018905D01*
X014964Y018550D02*
X014099Y018550D01*
X014139Y018431D02*
X015043Y018431D01*
X015064Y018313D02*
X014218Y018313D01*
X014235Y018194D02*
X015064Y018194D01*
X015064Y018076D02*
X014204Y018076D01*
X014104Y017957D02*
X015064Y017957D01*
X015064Y017839D02*
X012088Y017839D01*
X012088Y017720D02*
X015064Y017720D01*
X015064Y017602D02*
X012088Y017602D01*
X012088Y017483D02*
X015064Y017483D01*
X015064Y017365D02*
X012418Y017365D01*
X012173Y017365D02*
X012088Y017365D01*
X012204Y017957D02*
X013771Y017957D01*
X013671Y018668D02*
X013101Y018668D01*
X013047Y018787D02*
X013639Y018787D01*
X013949Y019377D02*
X009305Y019377D01*
X009055Y019627D01*
X009475Y019616D02*
X013768Y019616D01*
X012505Y018550D02*
X012551Y018440D01*
X009781Y020683D02*
X009475Y020683D01*
X009475Y020564D02*
X009662Y020564D01*
X009544Y020446D02*
X009435Y020446D01*
X009301Y022460D02*
X008475Y022460D01*
X003625Y022342D02*
X003585Y022342D01*
X003585Y022223D02*
X003625Y022223D01*
X003625Y022105D02*
X003585Y022105D01*
X003585Y021868D02*
X003625Y021868D01*
X003625Y021749D02*
X003585Y021749D01*
X003585Y021631D02*
X003625Y021631D01*
X003332Y021631D02*
X000447Y021631D01*
X000447Y021749D02*
X003227Y021749D01*
X003484Y019616D02*
X001093Y019616D01*
X004410Y016880D02*
X005965Y016880D01*
X006280Y016566D01*
X006137Y012506D02*
X006655Y012506D01*
X005264Y012269D02*
X005175Y012269D01*
X005204Y012151D02*
X005264Y012151D01*
X005264Y012032D02*
X005184Y012032D01*
X005264Y011914D02*
X005101Y011914D01*
X005076Y011795D02*
X005265Y011795D01*
X005265Y011677D02*
X005076Y011677D01*
X005076Y011558D02*
X005265Y011558D01*
X005265Y011440D02*
X005076Y011440D01*
X005076Y011321D02*
X005265Y011321D01*
X005265Y011203D02*
X005076Y011203D01*
X005076Y011084D02*
X005266Y011084D01*
X005266Y010966D02*
X005076Y010966D01*
X005076Y010847D02*
X005266Y010847D01*
X005266Y010729D02*
X005076Y010729D01*
X005076Y010610D02*
X005266Y010610D01*
X005266Y010492D02*
X005076Y010492D01*
X005076Y010373D02*
X005267Y010373D01*
X005267Y010255D02*
X005076Y010255D01*
X005076Y010136D02*
X005267Y010136D01*
X005267Y010018D02*
X005076Y010018D01*
X005076Y009899D02*
X005267Y009899D01*
X005267Y009781D02*
X005076Y009781D01*
X005076Y009662D02*
X005267Y009662D01*
X005268Y009544D02*
X005076Y009544D01*
X005076Y009425D02*
X005268Y009425D01*
X005268Y009307D02*
X005076Y009307D01*
X005160Y009188D02*
X005268Y009188D01*
X005268Y009070D02*
X005204Y009070D01*
X005199Y008951D02*
X005268Y008951D01*
X005269Y008833D02*
X005138Y008833D01*
X004071Y008136D02*
X004071Y011038D01*
X004319Y011073D02*
X003839Y011542D01*
X003166Y011542D01*
X002933Y011613D01*
X002977Y011203D02*
X002564Y011203D01*
X002564Y011321D02*
X002631Y011321D01*
X002564Y011084D02*
X002763Y011084D01*
X002740Y010966D02*
X002564Y010966D01*
X002595Y010847D02*
X002740Y010847D01*
X002740Y010729D02*
X002714Y010729D01*
X003107Y011084D02*
X003759Y011084D01*
X004319Y011073D02*
X004319Y007487D01*
X003807Y006975D01*
X002878Y006975D01*
X002704Y007055D02*
X000459Y007055D01*
X000460Y006937D02*
X002608Y006937D01*
X002651Y007174D02*
X003109Y007174D01*
X002990Y007292D02*
X002769Y007292D01*
X002794Y007411D02*
X002974Y007411D01*
X002974Y007529D02*
X002794Y007529D01*
X002806Y007648D02*
X002974Y007648D01*
X002924Y007766D02*
X003084Y007766D01*
X002886Y007983D02*
X003918Y007983D01*
X004071Y008136D01*
X004139Y007950D02*
X004139Y007561D01*
X003733Y007155D01*
X003660Y007155D01*
X003814Y007309D01*
X003814Y007443D01*
X003434Y007443D01*
X003434Y007523D01*
X003814Y007523D01*
X003814Y007657D01*
X003668Y007803D01*
X003992Y007803D01*
X004139Y007950D01*
X004139Y007885D02*
X004074Y007885D01*
X004139Y007766D02*
X003704Y007766D01*
X003814Y007648D02*
X004139Y007648D01*
X004107Y007529D02*
X003814Y007529D01*
X003814Y007411D02*
X003989Y007411D01*
X003870Y007292D02*
X003798Y007292D01*
X003752Y007174D02*
X003679Y007174D01*
X003045Y006700D02*
X002852Y006700D01*
X002794Y006581D02*
X002994Y006581D01*
X002994Y006463D02*
X002794Y006463D01*
X002794Y006344D02*
X002994Y006344D01*
X003085Y006226D02*
X002703Y006226D01*
X002584Y006107D02*
X003204Y006107D01*
X002204Y006107D02*
X000467Y006107D01*
X000466Y006226D02*
X002085Y006226D01*
X001994Y006344D02*
X000465Y006344D01*
X000464Y006463D02*
X001994Y006463D01*
X001994Y006581D02*
X000463Y006581D01*
X000462Y006700D02*
X002045Y006700D01*
X002164Y006818D02*
X000461Y006818D01*
X000458Y007174D02*
X002137Y007174D01*
X002019Y007292D02*
X000457Y007292D01*
X000456Y007411D02*
X001994Y007411D01*
X001994Y007529D02*
X000455Y007529D01*
X000454Y007648D02*
X001994Y007648D01*
X002112Y007766D02*
X000453Y007766D01*
X000452Y007885D02*
X002534Y007885D01*
X002652Y008003D02*
X000451Y008003D01*
X000450Y008122D02*
X002189Y008122D01*
X002071Y008240D02*
X000449Y008240D01*
X000448Y008359D02*
X000746Y008359D01*
X000627Y008477D02*
X000447Y008477D01*
X000446Y008596D02*
X000509Y008596D01*
X000753Y008833D02*
X002178Y008833D01*
X002060Y008714D02*
X000871Y008714D01*
X000745Y008951D02*
X002740Y008951D01*
X002740Y008833D02*
X002610Y008833D01*
X002728Y008714D02*
X002740Y008714D01*
X002740Y009070D02*
X000745Y009070D01*
X000745Y009188D02*
X002123Y009188D01*
X002004Y009307D02*
X000745Y009307D01*
X000745Y009425D02*
X001994Y009425D01*
X001994Y009544D02*
X000745Y009544D01*
X000745Y009662D02*
X002008Y009662D01*
X002126Y009781D02*
X000745Y009781D01*
X000745Y009899D02*
X002740Y009899D01*
X002740Y009781D02*
X002662Y009781D01*
X003080Y009781D02*
X003098Y009781D01*
X003080Y009899D02*
X003217Y009899D01*
X003354Y009899D02*
X003434Y009899D01*
X003434Y009781D02*
X003354Y009781D01*
X003354Y009662D02*
X003434Y009662D01*
X003434Y009544D02*
X003354Y009544D01*
X003354Y009425D02*
X003434Y009425D01*
X003434Y009307D02*
X003354Y009307D01*
X003354Y009188D02*
X003434Y009188D01*
X003434Y009070D02*
X003354Y009070D01*
X003213Y009070D02*
X003080Y009070D01*
X003080Y009188D02*
X003094Y009188D01*
X003080Y008951D02*
X003891Y008951D01*
X003891Y008833D02*
X003638Y008833D01*
X003756Y008714D02*
X003891Y008714D01*
X003891Y008596D02*
X003814Y008596D01*
X003891Y008477D02*
X003434Y008477D01*
X003434Y008596D02*
X003354Y008596D01*
X003354Y008714D02*
X003434Y008714D01*
X003434Y008833D02*
X003354Y008833D01*
X003150Y008833D02*
X003080Y008833D01*
X002740Y009188D02*
X002665Y009188D01*
X002394Y008483D02*
X002394Y008471D01*
X002717Y008240D02*
X003042Y008240D01*
X002974Y008359D02*
X002908Y008359D01*
X002771Y008122D02*
X002599Y008122D01*
X002886Y007983D02*
X002394Y007491D01*
X002394Y007483D01*
X003746Y008240D02*
X003891Y008240D01*
X003891Y008359D02*
X003814Y008359D01*
X003891Y009070D02*
X003575Y009070D01*
X003694Y009188D02*
X003891Y009188D01*
X003891Y009307D02*
X003812Y009307D01*
X003814Y009425D02*
X003891Y009425D01*
X003891Y009544D02*
X003814Y009544D01*
X003808Y009662D02*
X003891Y009662D01*
X003891Y009781D02*
X003690Y009781D01*
X003571Y009899D02*
X003891Y009899D01*
X003434Y010136D02*
X003354Y010136D01*
X003354Y010255D02*
X003434Y010255D01*
X003434Y010373D02*
X003354Y010373D01*
X006416Y008003D02*
X006868Y008003D01*
X006917Y008053D02*
X006806Y007941D01*
X006745Y007795D01*
X006745Y007084D01*
X006806Y006938D01*
X006917Y006826D01*
X007063Y006766D01*
X007221Y006766D01*
X007367Y006826D01*
X007478Y006938D01*
X007539Y007084D01*
X007539Y007795D01*
X007478Y007941D01*
X007367Y008053D01*
X007221Y008113D01*
X007063Y008113D01*
X006917Y008053D01*
X006782Y007885D02*
X006502Y007885D01*
X006539Y007766D02*
X006745Y007766D01*
X006745Y007648D02*
X006539Y007648D01*
X006539Y007529D02*
X006745Y007529D01*
X006745Y007411D02*
X006539Y007411D01*
X006539Y007292D02*
X006745Y007292D01*
X006745Y007174D02*
X006539Y007174D01*
X006527Y007055D02*
X006757Y007055D01*
X006807Y006937D02*
X006478Y006937D01*
X006348Y006818D02*
X006936Y006818D01*
X007348Y006818D02*
X009535Y006818D01*
X009435Y006937D02*
X007478Y006937D01*
X007527Y007055D02*
X009422Y007055D01*
X009410Y007174D02*
X007539Y007174D01*
X007539Y007292D02*
X009397Y007292D01*
X009384Y007411D02*
X007539Y007411D01*
X007539Y007529D02*
X009371Y007529D01*
X009376Y007648D02*
X007539Y007648D01*
X007539Y007766D02*
X009327Y007766D01*
X009264Y007885D02*
X007502Y007885D01*
X007416Y008003D02*
X009180Y008003D01*
X009292Y008636D02*
X009288Y008644D01*
X008634Y009298D01*
X008634Y010869D01*
X008814Y010610D02*
X008963Y010610D01*
X009088Y010492D02*
X008814Y010492D01*
X008814Y010373D02*
X009320Y010373D01*
X009638Y010255D02*
X008814Y010255D01*
X013536Y013798D02*
X013559Y013794D01*
X013678Y013707D01*
X015685Y013707D01*
X015941Y013534D01*
X015738Y013454D02*
X014452Y013454D01*
X014493Y013336D02*
X015770Y013336D01*
X015769Y013217D02*
X014538Y013217D01*
X014579Y013099D02*
X015768Y013099D01*
X016205Y012695D02*
X016331Y012703D01*
X016205Y012695D02*
X016205Y013625D01*
X015914Y013900D01*
X016020Y014047D02*
X016594Y014047D01*
X016537Y013928D02*
X016146Y013928D01*
X016271Y013810D02*
X016485Y013810D01*
X016508Y013691D02*
X016385Y013691D01*
X016387Y013573D02*
X016508Y013573D01*
X016509Y013454D02*
X016385Y013454D01*
X016385Y013336D02*
X016509Y013336D01*
X016509Y013217D02*
X016385Y013217D01*
X016385Y013099D02*
X016510Y013099D01*
X016510Y012980D02*
X016441Y012980D01*
X015762Y012506D02*
X014721Y012506D01*
X014817Y012388D02*
X015805Y012388D01*
X015669Y012269D02*
X014846Y012269D01*
X015922Y011180D02*
X016154Y011140D01*
X016264Y011069D01*
X024252Y011069D01*
X024548Y011365D01*
X024548Y011644D01*
X024882Y011979D01*
X026252Y011979D01*
X026473Y012199D01*
X026473Y013569D01*
X026115Y013928D01*
X026388Y014047D02*
X028095Y014047D01*
X028095Y014165D02*
X026298Y014165D01*
X026413Y013928D02*
X028095Y013928D01*
X028096Y013810D02*
X026487Y013810D01*
X026605Y013691D02*
X028096Y013691D01*
X028096Y013573D02*
X026653Y013573D01*
X026653Y013454D02*
X028096Y013454D01*
X028097Y013336D02*
X026653Y013336D01*
X026653Y013217D02*
X028097Y013217D01*
X028097Y013099D02*
X026653Y013099D01*
X026653Y012980D02*
X028097Y012980D01*
X028098Y012862D02*
X026653Y012862D01*
X026653Y012743D02*
X028098Y012743D01*
X028098Y012625D02*
X026653Y012625D01*
X026653Y012506D02*
X028098Y012506D01*
X028099Y012388D02*
X026653Y012388D01*
X026653Y012269D02*
X028099Y012269D01*
X028099Y012151D02*
X026653Y012151D01*
X026560Y012032D02*
X028099Y012032D01*
X028100Y011914D02*
X026442Y011914D01*
X026199Y011677D02*
X028100Y011677D01*
X028100Y011795D02*
X026080Y011795D01*
X026304Y011558D02*
X028100Y011558D01*
X028100Y011440D02*
X026353Y011440D01*
X026402Y011321D02*
X028101Y011321D01*
X028101Y011203D02*
X026434Y011203D01*
X026434Y011084D02*
X028101Y011084D01*
X028101Y010966D02*
X026434Y010966D01*
X026418Y010847D02*
X028102Y010847D01*
X028102Y010729D02*
X026369Y010729D01*
X026320Y010610D02*
X028102Y010610D01*
X028102Y010492D02*
X026237Y010492D01*
X026118Y010373D02*
X028103Y010373D01*
X028103Y010255D02*
X025944Y010255D01*
X025104Y010255D02*
X023421Y010255D01*
X023421Y010333D02*
X023421Y010086D01*
X023053Y010086D01*
X023053Y010029D01*
X023421Y010029D01*
X023421Y009782D01*
X023412Y009746D01*
X023393Y009715D01*
X023367Y009688D01*
X023335Y009670D01*
X023300Y009660D01*
X023053Y009660D01*
X023053Y010029D01*
X022995Y010029D01*
X022995Y010086D01*
X022627Y010086D01*
X022627Y010333D01*
X022636Y010369D01*
X022655Y010401D01*
X022681Y010427D01*
X022713Y010445D01*
X022748Y010455D01*
X022995Y010455D01*
X022995Y010086D01*
X023053Y010086D01*
X023053Y010455D01*
X023300Y010455D01*
X023335Y010445D01*
X023367Y010427D01*
X023393Y010401D01*
X023412Y010369D01*
X023421Y010333D01*
X023409Y010373D02*
X024930Y010373D01*
X024811Y010492D02*
X022405Y010492D01*
X022405Y010533D02*
X022037Y010533D01*
X022037Y010164D01*
X022284Y010164D01*
X022319Y010174D01*
X022351Y010192D01*
X022377Y010218D01*
X022396Y010250D01*
X022405Y010286D01*
X022405Y010533D01*
X022405Y010610D02*
X024728Y010610D01*
X024679Y010729D02*
X022405Y010729D01*
X022403Y010847D02*
X024630Y010847D01*
X024614Y010966D02*
X024403Y010966D01*
X024432Y010995D02*
X024432Y010995D01*
X024522Y011084D02*
X024614Y011084D01*
X024368Y011440D02*
X018952Y011440D01*
X018944Y011321D02*
X024250Y011321D01*
X024368Y011558D02*
X021097Y011558D01*
X021079Y011558D02*
X020558Y011558D01*
X020235Y011914D02*
X021079Y011914D01*
X021116Y012032D02*
X020323Y012032D01*
X020320Y012151D02*
X021141Y012151D01*
X021232Y012269D02*
X020312Y012269D01*
X020312Y012388D02*
X026293Y012388D01*
X026293Y012506D02*
X020312Y012506D01*
X020312Y012625D02*
X026293Y012625D01*
X026293Y012743D02*
X020312Y012743D01*
X020312Y012862D02*
X026293Y012862D01*
X026293Y012980D02*
X020312Y012980D01*
X020312Y013099D02*
X026293Y013099D01*
X026293Y013217D02*
X020312Y013217D01*
X020440Y013336D02*
X026293Y013336D01*
X026293Y013454D02*
X020523Y013454D01*
X020543Y013573D02*
X026215Y013573D01*
X025929Y013691D02*
X020513Y013691D01*
X020705Y014109D02*
X020595Y014219D01*
X020595Y014916D01*
X020575Y014896D01*
X019024Y014896D01*
X018788Y014660D01*
X015973Y014660D01*
X016178Y014876D02*
X018750Y014876D01*
X018768Y014402D02*
X016130Y014402D01*
X015815Y014402D02*
X015626Y014402D01*
X015669Y014521D02*
X015708Y014521D01*
X015675Y014639D02*
X015662Y014639D01*
X015691Y014758D02*
X015600Y014758D01*
X015768Y014876D02*
X012039Y014876D01*
X012573Y015469D02*
X013927Y015469D01*
X014240Y014613D02*
X014237Y014569D01*
X014535Y014521D02*
X015072Y014521D01*
X015078Y014639D02*
X014535Y014639D01*
X014535Y014758D02*
X015141Y014758D01*
X015370Y014566D02*
X015300Y014231D01*
X015470Y014165D02*
X018842Y014165D01*
X018785Y014284D02*
X015495Y014284D01*
X015115Y014402D02*
X014535Y014402D01*
X014477Y014284D02*
X014994Y014284D01*
X013996Y014284D02*
X013868Y014284D01*
X013938Y014402D02*
X013719Y014402D01*
X016678Y013806D02*
X016729Y013912D01*
X023016Y013912D01*
X023552Y014392D01*
X023552Y015754D01*
X023366Y015940D01*
X023763Y015943D02*
X024328Y015943D01*
X024328Y015901D02*
X023950Y015901D01*
X023950Y015630D01*
X023960Y015565D01*
X023980Y015503D01*
X024010Y015444D01*
X024049Y015391D01*
X024095Y015345D01*
X024148Y015306D01*
X024206Y015276D01*
X024269Y015256D01*
X024328Y015247D01*
X024328Y015901D01*
X024328Y015824D02*
X024405Y015824D01*
X024405Y015706D02*
X024328Y015706D01*
X024328Y015587D02*
X024405Y015587D01*
X024405Y015469D02*
X024328Y015469D01*
X024328Y015350D02*
X024405Y015350D01*
X024644Y015350D02*
X024686Y015350D01*
X024717Y015232D02*
X023732Y015232D01*
X023732Y015350D02*
X024089Y015350D01*
X023997Y015469D02*
X023732Y015469D01*
X023763Y015587D02*
X023956Y015587D01*
X023950Y015706D02*
X023763Y015706D01*
X023763Y015824D02*
X023950Y015824D01*
X023950Y016061D02*
X023763Y016061D01*
X023763Y016180D02*
X023950Y016180D01*
X023957Y016298D02*
X023762Y016298D01*
X023713Y016417D02*
X024001Y016417D01*
X024693Y016660D02*
X024866Y016239D01*
X024866Y015337D01*
X025193Y015010D01*
X027957Y015010D01*
X027843Y014896D01*
X027727Y014758D02*
X023732Y014758D01*
X023732Y014876D02*
X025073Y014876D01*
X024954Y014995D02*
X023732Y014995D01*
X023732Y015113D02*
X024836Y015113D01*
X025108Y015350D02*
X028093Y015350D01*
X028092Y015469D02*
X025046Y015469D01*
X025046Y015587D02*
X025574Y015587D01*
X025801Y015587D02*
X028092Y015587D01*
X028092Y015706D02*
X026034Y015706D01*
X026151Y015824D02*
X028092Y015824D01*
X028091Y015943D02*
X026200Y015943D01*
X026232Y016061D02*
X028091Y016061D01*
X027757Y015232D02*
X025226Y015232D01*
X025341Y015706D02*
X025046Y015706D01*
X025046Y015824D02*
X025224Y015824D01*
X025175Y015943D02*
X025046Y015943D01*
X025046Y016061D02*
X025143Y016061D01*
X025143Y016180D02*
X025046Y016180D01*
X025046Y016298D02*
X025167Y016298D01*
X025216Y016417D02*
X024988Y016417D01*
X024939Y016535D02*
X025322Y016535D01*
X024693Y016660D02*
X023134Y016660D01*
X022847Y016132D01*
X022847Y015636D01*
X022922Y015487D01*
X023000Y015424D01*
X023095Y015329D01*
X023107Y014262D01*
X022859Y014109D01*
X020705Y014109D01*
X020775Y014402D02*
X022925Y014402D01*
X022924Y014521D02*
X020775Y014521D01*
X020775Y014639D02*
X022922Y014639D01*
X022921Y014758D02*
X020775Y014758D01*
X020775Y014876D02*
X022920Y014876D01*
X022919Y014995D02*
X020770Y014995D01*
X020098Y015232D02*
X022916Y015232D01*
X022917Y015113D02*
X020017Y015113D01*
X020132Y015350D02*
X022788Y015350D01*
X022729Y015469D02*
X020130Y015469D01*
X020093Y015587D02*
X022667Y015587D01*
X022797Y016417D02*
X017206Y016417D01*
X017274Y016535D02*
X022861Y016535D01*
X022926Y016654D02*
X017283Y016654D01*
X017243Y016772D02*
X022990Y016772D01*
X023732Y014639D02*
X028094Y014639D01*
X028094Y014521D02*
X023732Y014521D01*
X023732Y014402D02*
X028095Y014402D01*
X028095Y014284D02*
X023700Y014284D01*
X023568Y014165D02*
X025931Y014165D01*
X025841Y014047D02*
X023436Y014047D01*
X023304Y013928D02*
X025816Y013928D01*
X025841Y013810D02*
X023172Y013810D01*
X021596Y012269D02*
X026288Y012269D01*
X024800Y012151D02*
X021686Y012151D01*
X021712Y012032D02*
X024681Y012032D01*
X024563Y011914D02*
X021688Y011914D01*
X021601Y011795D02*
X024444Y011795D01*
X024368Y011677D02*
X021323Y011677D01*
X021614Y010847D02*
X018888Y010847D01*
X018960Y010729D02*
X021611Y010729D01*
X021611Y010610D02*
X018972Y010610D01*
X018935Y010492D02*
X021611Y010492D01*
X021611Y010533D02*
X021611Y010286D01*
X021621Y010250D01*
X021639Y010218D01*
X021665Y010192D01*
X021697Y010174D01*
X021733Y010164D01*
X021980Y010164D01*
X021980Y010533D01*
X021611Y010533D01*
X021611Y010373D02*
X018808Y010373D01*
X018539Y010373D02*
X016305Y010373D01*
X016075Y010566D02*
X016063Y010621D01*
X018674Y010640D01*
X018459Y010847D02*
X016173Y010847D01*
X015977Y010847D02*
X015148Y010847D01*
X015225Y010729D02*
X015820Y010729D01*
X015777Y010610D02*
X015225Y010610D01*
X015225Y010492D02*
X015783Y010492D01*
X015846Y010373D02*
X015225Y010373D01*
X015528Y010255D02*
X021619Y010255D01*
X021980Y010255D02*
X022037Y010255D01*
X022037Y010373D02*
X021980Y010373D01*
X021980Y010492D02*
X022037Y010492D01*
X022405Y010373D02*
X022639Y010373D01*
X022627Y010255D02*
X022397Y010255D01*
X022627Y010136D02*
X015646Y010136D01*
X015863Y009544D02*
X021980Y009544D01*
X022037Y009544D02*
X028104Y009544D01*
X028104Y009662D02*
X023307Y009662D01*
X023421Y009781D02*
X028104Y009781D01*
X028104Y009899D02*
X023421Y009899D01*
X023421Y010018D02*
X028103Y010018D01*
X028103Y010136D02*
X023421Y010136D01*
X023053Y010136D02*
X022995Y010136D01*
X022995Y010018D02*
X023053Y010018D01*
X023053Y009899D02*
X022995Y009899D01*
X022995Y009781D02*
X023053Y009781D01*
X023053Y009662D02*
X022995Y009662D01*
X023348Y009425D02*
X028104Y009425D01*
X028105Y009307D02*
X023401Y009307D01*
X023401Y009188D02*
X028105Y009188D01*
X028105Y009070D02*
X023401Y009070D01*
X023401Y008951D02*
X028105Y008951D01*
X028106Y008833D02*
X023401Y008833D01*
X023357Y008714D02*
X028106Y008714D01*
X028106Y008596D02*
X022393Y008596D01*
X022375Y008240D02*
X022643Y008240D01*
X022443Y007885D02*
X022396Y007885D01*
X023366Y007411D02*
X025160Y007411D01*
X024953Y007292D02*
X023401Y007292D01*
X023401Y007174D02*
X024834Y007174D01*
X024737Y007055D02*
X023423Y007055D01*
X023457Y006937D02*
X024688Y006937D01*
X024639Y006818D02*
X023457Y006818D01*
X023457Y006700D02*
X024614Y006700D01*
X024614Y006581D02*
X023457Y006581D01*
X023457Y006463D02*
X024614Y006463D01*
X024636Y006344D02*
X023457Y006344D01*
X023457Y006226D02*
X024685Y006226D01*
X024734Y006107D02*
X023457Y006107D01*
X023457Y005989D02*
X024826Y005989D01*
X024944Y005870D02*
X023457Y005870D01*
X023457Y005752D02*
X025140Y005752D01*
X025192Y005076D02*
X025045Y005015D01*
X024933Y004903D01*
X024872Y004756D01*
X024872Y004037D01*
X024933Y003890D01*
X025045Y003777D01*
X025192Y003716D01*
X025352Y003716D01*
X025499Y003777D01*
X025611Y003890D01*
X025672Y004037D01*
X025672Y004756D01*
X025611Y004903D01*
X025499Y005015D01*
X025352Y005076D01*
X025192Y005076D01*
X025107Y005041D02*
X024437Y005041D01*
X024591Y004922D02*
X024953Y004922D01*
X024892Y004804D02*
X024652Y004804D01*
X024672Y004685D02*
X024872Y004685D01*
X024872Y004567D02*
X024672Y004567D01*
X024672Y004448D02*
X024872Y004448D01*
X024872Y004330D02*
X024672Y004330D01*
X024672Y004211D02*
X024872Y004211D01*
X024872Y004093D02*
X024672Y004093D01*
X024646Y003974D02*
X024898Y003974D01*
X024967Y003856D02*
X024577Y003856D01*
X024403Y003737D02*
X025141Y003737D01*
X025403Y003737D02*
X026141Y003737D01*
X026192Y003716D02*
X026352Y003716D01*
X026499Y003777D01*
X026611Y003890D01*
X026672Y004037D01*
X026672Y004756D01*
X026611Y004903D01*
X026499Y005015D01*
X026352Y005076D01*
X026192Y005076D01*
X026045Y005015D01*
X025933Y004903D01*
X025872Y004756D01*
X025872Y004037D01*
X025933Y003890D01*
X026045Y003777D01*
X026192Y003716D01*
X026403Y003737D02*
X027090Y003737D01*
X027111Y003727D02*
X027174Y003707D01*
X027232Y003697D01*
X027232Y004356D01*
X027312Y004356D01*
X027312Y004436D01*
X027232Y004436D01*
X027232Y004356D01*
X026852Y004356D01*
X026852Y004083D01*
X026862Y004018D01*
X026883Y003955D01*
X026913Y003896D01*
X026952Y003843D01*
X026998Y003796D01*
X027052Y003757D01*
X027111Y003727D01*
X027232Y003737D02*
X027312Y003737D01*
X027312Y003856D02*
X027232Y003856D01*
X027232Y003974D02*
X027312Y003974D01*
X027312Y004093D02*
X027232Y004093D01*
X027232Y004211D02*
X027312Y004211D01*
X027312Y004330D02*
X027232Y004330D01*
X027272Y004396D02*
X027406Y004640D01*
X027446Y004604D01*
X027312Y004567D02*
X027232Y004567D01*
X027232Y004685D02*
X027312Y004685D01*
X027312Y004804D02*
X027232Y004804D01*
X027232Y004922D02*
X027312Y004922D01*
X027312Y005041D02*
X027232Y005041D01*
X027232Y005095D02*
X027174Y005086D01*
X027111Y005065D01*
X027052Y005035D01*
X026998Y004997D01*
X026952Y004950D01*
X026913Y004896D01*
X026883Y004837D01*
X026862Y004775D01*
X026852Y004709D01*
X026852Y004436D01*
X027232Y004436D01*
X027232Y005095D01*
X027063Y005041D02*
X026437Y005041D01*
X026591Y004922D02*
X026932Y004922D01*
X026872Y004804D02*
X026652Y004804D01*
X026672Y004685D02*
X026852Y004685D01*
X026852Y004567D02*
X026672Y004567D01*
X026672Y004448D02*
X026852Y004448D01*
X026852Y004330D02*
X026672Y004330D01*
X026672Y004211D02*
X026852Y004211D01*
X026852Y004093D02*
X026672Y004093D01*
X026646Y003974D02*
X026876Y003974D01*
X026942Y003856D02*
X026577Y003856D01*
X025967Y003856D02*
X025577Y003856D01*
X025646Y003974D02*
X025898Y003974D01*
X025872Y004093D02*
X025672Y004093D01*
X025672Y004211D02*
X025872Y004211D01*
X025872Y004330D02*
X025672Y004330D01*
X025672Y004448D02*
X025872Y004448D01*
X025872Y004567D02*
X025672Y004567D01*
X025672Y004685D02*
X025872Y004685D01*
X025892Y004804D02*
X025652Y004804D01*
X025591Y004922D02*
X025953Y004922D01*
X026107Y005041D02*
X025437Y005041D01*
X024107Y005041D02*
X024014Y005041D01*
X023572Y004804D02*
X013443Y004804D01*
X013325Y004922D02*
X023454Y004922D01*
X023335Y005041D02*
X013206Y005041D01*
X013088Y005159D02*
X023217Y005159D01*
X023098Y005278D02*
X013085Y005278D01*
X013129Y005396D02*
X022980Y005396D01*
X022917Y005515D02*
X013124Y005515D01*
X014714Y004330D02*
X015168Y004330D01*
X015240Y004211D02*
X014864Y004211D01*
X014985Y004093D02*
X023872Y004093D01*
X023872Y004211D02*
X015666Y004211D01*
X015739Y004330D02*
X023872Y004330D01*
X023872Y004448D02*
X015751Y004448D01*
X015715Y004567D02*
X023809Y004567D01*
X023691Y004685D02*
X015591Y004685D01*
X015106Y003974D02*
X023898Y003974D01*
X023967Y003856D02*
X015226Y003856D01*
X015347Y003737D02*
X024141Y003737D01*
X022418Y003018D02*
X022464Y002908D01*
X022464Y002789D02*
X028118Y002789D01*
X028118Y002671D02*
X022409Y002671D01*
X022229Y002552D02*
X028118Y002552D01*
X028118Y002434D02*
X012631Y002434D01*
X012631Y002552D02*
X022103Y002552D01*
X027232Y004448D02*
X027312Y004448D01*
X028119Y002315D02*
X012631Y002315D01*
X012631Y002197D02*
X028119Y002197D01*
X028119Y002078D02*
X012631Y002078D01*
X012631Y001960D02*
X028119Y001960D01*
X028120Y001841D02*
X012631Y001841D01*
X012631Y001723D02*
X028120Y001723D01*
X028120Y001604D02*
X012631Y001604D01*
X012631Y001486D02*
X028120Y001486D01*
X028121Y001367D02*
X012631Y001367D01*
X012590Y001249D02*
X028121Y001249D01*
X028121Y001130D02*
X012494Y001130D01*
X012403Y001012D02*
X028121Y001012D01*
X028122Y000893D02*
X012312Y000893D01*
X014121Y008003D02*
X014331Y008003D01*
X014285Y008122D02*
X014214Y008122D01*
X016351Y011392D02*
X018642Y011392D01*
X018654Y011400D01*
X018654Y012451D02*
X018654Y013243D01*
X019122Y013436D01*
X019410Y013436D01*
X019441Y013404D01*
X020142Y012077D02*
X019992Y011920D01*
X021980Y009899D02*
X022037Y009899D01*
X022037Y009781D02*
X021980Y009781D01*
X021980Y009662D02*
X022037Y009662D01*
X022037Y009425D02*
X021980Y009425D01*
X021980Y009307D02*
X022037Y009307D01*
X022037Y009188D02*
X021980Y009188D01*
X021653Y009188D02*
X018563Y009188D01*
X018476Y009307D02*
X021611Y009307D01*
X022995Y010255D02*
X023053Y010255D01*
X023053Y010373D02*
X022995Y010373D01*
X020246Y017602D02*
X028088Y017602D01*
X028088Y017720D02*
X020334Y017720D01*
X020357Y017839D02*
X028088Y017839D01*
X028087Y017957D02*
X020332Y017957D01*
X022144Y019498D02*
X028084Y019498D01*
X028084Y019616D02*
X022263Y019616D01*
X022381Y019735D02*
X028084Y019735D01*
X028084Y019853D02*
X022500Y019853D01*
X022618Y019972D02*
X028083Y019972D01*
X028083Y020090D02*
X022737Y020090D01*
X022855Y020209D02*
X028083Y020209D01*
X028083Y020327D02*
X022974Y020327D01*
X023092Y020446D02*
X028082Y020446D01*
X028082Y020564D02*
X023211Y020564D01*
X023224Y020683D02*
X028082Y020683D01*
X028082Y020801D02*
X023224Y020801D01*
X023224Y020920D02*
X028082Y020920D01*
X028081Y021038D02*
X023224Y021038D01*
X023224Y021157D02*
X028081Y021157D01*
X028081Y021275D02*
X023224Y021275D01*
X023224Y021394D02*
X028081Y021394D01*
X028080Y021512D02*
X023224Y021512D01*
X023224Y021631D02*
X028080Y021631D01*
X028080Y021749D02*
X023224Y021749D01*
X023224Y021868D02*
X028080Y021868D01*
X028079Y021986D02*
X023224Y021986D01*
X023224Y022105D02*
X028079Y022105D01*
X028079Y022223D02*
X023224Y022223D01*
X023224Y022342D02*
X028079Y022342D01*
X028078Y022460D02*
X023224Y022460D01*
X023224Y022579D02*
X028078Y022579D01*
X028078Y022697D02*
X023224Y022697D01*
X023224Y022816D02*
X028078Y022816D01*
X028077Y022934D02*
X023224Y022934D01*
X023224Y023053D02*
X028077Y023053D01*
X028077Y023171D02*
X023224Y023171D01*
X023224Y023290D02*
X028077Y023290D01*
X028077Y023409D02*
X023224Y023409D01*
X023224Y023527D02*
X028076Y023527D01*
X028076Y023646D02*
X023224Y023646D01*
X023224Y023764D02*
X028076Y023764D01*
X028076Y023883D02*
X023224Y023883D01*
X023224Y024001D02*
X028075Y024001D01*
X028075Y024120D02*
X023224Y024120D01*
X023224Y024238D02*
X028075Y024238D01*
X028075Y024357D02*
X023224Y024357D01*
X023224Y024475D02*
X028074Y024475D01*
X028074Y024594D02*
X023224Y024594D01*
X023224Y024712D02*
X028074Y024712D01*
X028074Y024831D02*
X023224Y024831D01*
X023224Y024949D02*
X028073Y024949D01*
X028073Y025068D02*
X023224Y025068D01*
X023224Y025186D02*
X028073Y025186D01*
X028073Y025305D02*
X023146Y025305D01*
X023027Y025423D02*
X028073Y025423D01*
X028072Y025542D02*
X022909Y025542D01*
X022790Y025660D02*
X028072Y025660D01*
X028072Y025779D02*
X022672Y025779D01*
X022864Y024475D02*
X020845Y024475D01*
X020890Y024357D02*
X022864Y024357D01*
X020906Y024324D02*
X020906Y024324D01*
X003567Y001849D02*
X003544Y001825D01*
D24*
X005473Y002506D03*
X005445Y003912D03*
X006433Y006018D03*
X000926Y001010D03*
X014237Y014569D03*
D25*
X014240Y014613D02*
X003221Y014613D01*
X002394Y013786D01*
X002394Y010483D01*
X002910Y010991D02*
X002937Y011018D01*
X002910Y010991D02*
X002910Y008601D01*
X002792Y008483D01*
X002394Y008483D01*
X002386Y008491D01*
X000855Y008491D01*
X000575Y008770D01*
X000575Y019038D01*
X001004Y019806D01*
X003717Y019806D01*
X008055Y022127D02*
X008203Y022274D01*
X009536Y022274D01*
X012803Y018609D02*
X012803Y018231D01*
X012827Y018207D01*
X013422Y018207D01*
X013937Y018211D01*
X012827Y018207D02*
X012213Y018207D01*
X011918Y017912D01*
X011918Y016739D01*
X012300Y016357D01*
X012300Y015503D01*
X012536Y015266D01*
X014146Y015266D01*
X013615Y014266D02*
X013831Y014097D01*
X014591Y014089D01*
X015008Y014105D01*
X015300Y014231D01*
X015914Y013900D02*
X013709Y013900D01*
X013532Y014093D01*
X003485Y014093D01*
X002945Y013538D01*
X002933Y011613D01*
X002760Y011467D02*
X002772Y013644D01*
X003386Y014270D01*
X013615Y014266D01*
X013433Y013845D02*
X013536Y013798D01*
X013433Y013845D02*
X011910Y013841D01*
X013063Y013274D02*
X013327Y013475D01*
X013063Y013274D02*
X008843Y013274D01*
X006953Y012601D02*
X006595Y012699D01*
X005906Y012699D01*
X005839Y012522D01*
X005701Y012869D02*
X013181Y012841D01*
X013433Y012597D02*
X006953Y012601D01*
X005701Y012869D02*
X005433Y012676D01*
X005445Y003912D01*
X003567Y003751D02*
X003567Y001849D01*
X006433Y006018D02*
X015929Y006030D01*
X016260Y006227D01*
X015256Y004617D02*
X015453Y004420D01*
X015256Y004617D02*
X013390Y004617D01*
X012831Y005176D01*
X012831Y005443D01*
X013201Y006306D02*
X006201Y006314D01*
X005870Y006093D01*
X002878Y006967D02*
X002394Y006483D01*
X002878Y006967D02*
X002878Y006975D01*
X004906Y009022D02*
X004906Y012140D01*
X009213Y009605D02*
X009213Y009459D01*
X009465Y009207D01*
X009737Y009207D01*
X009989Y008955D01*
X010343Y008955D01*
X010351Y008947D01*
X013536Y007995D02*
X013740Y008231D01*
X013737Y009093D01*
X013737Y009085D01*
X014040Y009471D02*
X014040Y008191D01*
X014823Y008380D02*
X015008Y008384D01*
X015166Y008294D01*
X015268Y008050D01*
X015737Y008050D01*
X015851Y008306D01*
X015851Y008483D01*
X015843Y008491D01*
X015815Y008491D01*
X015693Y008613D01*
X015693Y009841D01*
X015725Y009873D01*
X015670Y009873D01*
X015378Y010164D01*
X015087Y010164D01*
X015055Y010195D01*
X015055Y010699D01*
X014827Y010928D01*
X015571Y011262D02*
X015591Y011266D01*
X015748Y011412D01*
X015894Y011566D01*
X016012Y011589D01*
X016083Y011605D01*
X016335Y011711D01*
X021142Y011731D01*
X021414Y012030D01*
X020142Y012077D02*
X020142Y013459D01*
X020244Y013562D01*
X018654Y012451D02*
X018579Y012081D01*
X015906Y012085D01*
X015973Y011770D02*
X016276Y011908D01*
X019992Y011920D01*
X016681Y012471D02*
X016678Y013806D01*
X015941Y013534D02*
X015933Y012503D01*
X016083Y012380D01*
X016591Y012377D01*
X016681Y012471D01*
X015973Y011770D02*
X015087Y011766D01*
M02*
