G75*
%MOIN*%
%OFA0B0*%
%FSLAX24Y24*%
%IPPOS*%
%LPD*%
%AMOC8*
5,1,8,0,0,1.08239X$1,22.5*
%
%ADD10C,0.0600*%
%ADD11C,0.0885*%
%ADD12C,0.0531*%
%ADD13C,0.0591*%
%ADD14C,0.0975*%
%ADD15C,0.0240*%
%ADD16C,0.0320*%
%ADD17C,0.0080*%
%ADD18C,0.0396*%
%ADD19C,0.0436*%
%ADD20R,0.0396X0.0396*%
%ADD21C,0.0120*%
%ADD22C,0.0100*%
D10*
X010974Y007002D03*
X011974Y007002D03*
X012974Y007002D03*
X013974Y007002D03*
X014974Y007002D03*
X015974Y007002D03*
X024407Y004206D03*
X025407Y004206D03*
X026407Y004206D03*
X027407Y004206D03*
X026669Y016182D03*
X026669Y017962D03*
X009057Y018189D03*
X008057Y018689D03*
X009057Y019189D03*
X008057Y019689D03*
X009057Y020189D03*
X008057Y020689D03*
X009057Y021189D03*
X008057Y021689D03*
X003607Y021539D03*
X003607Y022539D03*
X003607Y018339D03*
X003607Y017339D03*
D11*
X025689Y018452D03*
X025689Y015692D03*
D12*
X022009Y010124D03*
X022009Y009108D03*
X022017Y008128D03*
X022025Y007135D03*
X023021Y007628D03*
X023025Y006631D03*
X023025Y008628D03*
X023025Y009620D03*
D13*
X009600Y007017D03*
X008600Y007017D03*
D14*
X006707Y016789D03*
X006707Y023089D03*
D15*
X021179Y009100D02*
X021179Y007100D01*
X021179Y006600D01*
X023986Y005391D01*
X024407Y004206D01*
X022167Y002411D02*
X015911Y002411D01*
X014631Y003667D01*
X012832Y003679D01*
X012368Y003647D01*
X001143Y000494D02*
X001065Y000572D01*
X000927Y000572D01*
D16*
X001084Y000494D01*
X001143Y000494D01*
X011990Y000494D01*
X012352Y000966D01*
X012352Y003348D01*
X012368Y003647D01*
X021179Y007100D02*
X022179Y007100D01*
D17*
X022025Y007135D01*
D18*
X021179Y009100D03*
X021104Y012151D03*
X015624Y017163D03*
X013675Y017257D03*
X013561Y012777D03*
X013698Y011718D03*
X015057Y009675D03*
X012525Y008706D03*
D19*
X014710Y002438D03*
D20*
X015454Y003982D03*
X016261Y005789D03*
X015474Y007769D03*
X016651Y008143D03*
X018281Y006978D03*
X019167Y005706D03*
X019824Y007069D03*
X018687Y008647D03*
X018958Y011281D03*
X019533Y012238D03*
X021155Y013376D03*
X018360Y014730D03*
X018387Y015683D03*
X017659Y015761D03*
X018108Y016702D03*
X017757Y017344D03*
X017250Y017340D03*
X016750Y017340D03*
X017757Y018002D03*
X015537Y018159D03*
X013939Y018368D03*
X013950Y018939D03*
X012891Y019604D03*
X013757Y020691D03*
X013490Y022919D03*
X014332Y023769D03*
X015805Y023513D03*
X018317Y023592D03*
X019801Y023588D03*
X020332Y023580D03*
X020848Y023588D03*
X022305Y022872D03*
X026470Y021391D03*
X024687Y018746D03*
X025572Y017376D03*
X023147Y015809D03*
X022631Y017639D03*
X019848Y018100D03*
X019777Y017045D03*
X017277Y012754D03*
X017273Y012250D03*
X017313Y011754D03*
X017336Y011218D03*
X015950Y011907D03*
X015254Y011238D03*
X015824Y010761D03*
X015805Y010214D03*
X013824Y010820D03*
X013368Y009533D03*
X011998Y010273D03*
X011994Y011163D03*
X010698Y010793D03*
X009057Y012832D03*
X007773Y012061D03*
X006218Y011820D03*
X005399Y012809D03*
X004124Y014415D03*
X004143Y014990D03*
X008954Y015742D03*
X009639Y015616D03*
X009305Y015002D03*
X010726Y013702D03*
X010935Y014616D03*
X011950Y015580D03*
X013340Y016088D03*
X013009Y016856D03*
X013608Y015246D03*
X006935Y009734D03*
X007293Y005970D03*
X008817Y005458D03*
X012368Y003647D03*
X012832Y005006D03*
X022167Y002411D03*
X027305Y011978D03*
X011210Y024065D03*
X009513Y021820D03*
X008179Y022423D03*
X002616Y009128D03*
X002202Y005128D03*
X002242Y003576D03*
X002242Y001789D03*
X000927Y000572D03*
D21*
X000513Y000360D02*
X000395Y014501D01*
X000361Y025627D01*
X016144Y025627D01*
X015643Y025127D01*
X015526Y025010D01*
X015526Y023829D01*
X015467Y023769D01*
X015467Y023296D01*
X014309Y023296D01*
X014174Y023431D01*
X014588Y023431D01*
X014670Y023513D01*
X014670Y024025D01*
X014588Y024107D01*
X014532Y024107D01*
X014532Y024951D01*
X013903Y025580D01*
X011934Y025580D01*
X011305Y024950D01*
X011305Y024950D01*
X011187Y024832D01*
X011187Y024403D01*
X010954Y024403D01*
X010872Y024321D01*
X010872Y023808D01*
X010954Y023726D01*
X011466Y023726D01*
X011548Y023808D01*
X011548Y024120D01*
X011587Y024159D01*
X011587Y024667D01*
X012100Y025180D01*
X013738Y025180D01*
X014132Y024785D01*
X014132Y024107D01*
X014076Y024107D01*
X013994Y024025D01*
X013994Y023611D01*
X013903Y023702D01*
X010974Y023702D01*
X010698Y023426D01*
X010581Y023309D01*
X010581Y021742D01*
X010336Y021497D01*
X009784Y021497D01*
X009851Y021564D01*
X009851Y021636D01*
X009923Y021636D01*
X009927Y021640D01*
X009933Y021640D01*
X009985Y021698D01*
X010040Y021753D01*
X010040Y021759D01*
X010044Y021763D01*
X010040Y021841D01*
X010040Y022222D01*
X009923Y022339D01*
X009640Y022623D01*
X008517Y022623D01*
X008517Y022679D01*
X008435Y022761D01*
X007923Y022761D01*
X007841Y022679D01*
X007841Y022167D01*
X007905Y022102D01*
X007807Y022062D01*
X007684Y021938D01*
X007669Y021902D01*
X007521Y021902D01*
X007404Y021785D01*
X007176Y021557D01*
X007176Y020567D01*
X007171Y020491D01*
X007176Y020485D01*
X007176Y020478D01*
X007230Y020424D01*
X007487Y020131D01*
X007487Y020123D01*
X007541Y020069D01*
X007591Y020012D01*
X007598Y020012D01*
X007604Y020006D01*
X007680Y020006D01*
X007748Y020002D01*
X007684Y019938D01*
X007617Y019776D01*
X007617Y019601D01*
X007684Y019439D01*
X007807Y019316D01*
X007969Y019249D01*
X008144Y019249D01*
X008306Y019316D01*
X008430Y019439D01*
X008497Y019601D01*
X008497Y019633D01*
X008620Y019510D01*
X008756Y019510D01*
X008684Y019438D01*
X008617Y019276D01*
X008617Y019101D01*
X008684Y018939D01*
X008807Y018816D01*
X008969Y018749D01*
X009144Y018749D01*
X009193Y018769D01*
X009224Y018739D01*
X013612Y018739D01*
X013612Y018682D01*
X013636Y018659D01*
X013600Y018624D01*
X013600Y018112D01*
X009510Y018112D01*
X009505Y018081D02*
X009517Y018152D01*
X009517Y018169D01*
X009077Y018169D01*
X009077Y018209D01*
X009037Y018209D01*
X009037Y018649D01*
X009020Y018649D01*
X008949Y018637D01*
X008880Y018615D01*
X008816Y018582D01*
X008757Y018539D01*
X008706Y018488D01*
X008663Y018430D01*
X008630Y018365D01*
X008608Y018296D01*
X008597Y018225D01*
X008597Y018209D01*
X009037Y018209D01*
X009037Y018169D01*
X008597Y018169D01*
X008597Y018152D01*
X008608Y018081D01*
X008630Y018012D01*
X008663Y017947D01*
X008706Y017889D01*
X008757Y017838D01*
X008816Y017795D01*
X008880Y017762D01*
X008949Y017740D01*
X009020Y017729D01*
X009037Y017729D01*
X009037Y018169D01*
X009077Y018169D01*
X009077Y017729D01*
X009093Y017729D01*
X009164Y017740D01*
X009233Y017762D01*
X009298Y017795D01*
X009356Y017838D01*
X009408Y017889D01*
X009450Y017947D01*
X009483Y018012D01*
X009505Y018081D01*
X009474Y017994D02*
X017419Y017994D01*
X017419Y017934D02*
X012415Y017934D01*
X012298Y017817D01*
X011868Y017387D01*
X010726Y017387D01*
X010013Y016674D01*
X008564Y016674D01*
X008324Y016434D01*
X008207Y016317D01*
X008207Y015561D01*
X008192Y015533D01*
X008207Y015481D01*
X008207Y015427D01*
X008229Y015404D01*
X008238Y015374D01*
X008286Y015348D01*
X008324Y015309D01*
X008356Y015309D01*
X008484Y015239D01*
X004481Y015239D01*
X004481Y015246D01*
X004399Y015328D01*
X003887Y015328D01*
X003805Y015246D01*
X003805Y014734D01*
X003827Y014712D01*
X003786Y014671D01*
X003786Y014159D01*
X003868Y014077D01*
X004380Y014077D01*
X004462Y014159D01*
X004462Y014256D01*
X008384Y014256D01*
X008867Y013773D01*
X008867Y013170D01*
X008801Y013170D01*
X008719Y013088D01*
X008719Y012576D01*
X008778Y012517D01*
X008655Y012517D01*
X008360Y012812D01*
X005954Y012812D01*
X005837Y012695D01*
X005002Y011860D01*
X005002Y006494D01*
X005120Y006376D01*
X005726Y005770D01*
X006955Y005770D01*
X006955Y005714D01*
X007037Y005632D01*
X007549Y005632D01*
X007631Y005714D01*
X007631Y006226D01*
X007549Y006308D01*
X007037Y006308D01*
X006955Y006226D01*
X006955Y006170D01*
X005892Y006170D01*
X005402Y006659D01*
X005402Y011694D01*
X006120Y012412D01*
X008194Y012412D01*
X008372Y012234D01*
X008490Y012117D01*
X015458Y012117D01*
X015612Y011962D01*
X015612Y011651D01*
X015694Y011569D01*
X016206Y011569D01*
X016289Y011651D01*
X016289Y012163D01*
X016206Y012245D01*
X015895Y012245D01*
X015624Y012517D01*
X009335Y012517D01*
X009395Y012576D01*
X009395Y013088D01*
X009313Y013170D01*
X009247Y013170D01*
X009247Y013931D01*
X008652Y014525D01*
X008541Y014636D01*
X004462Y014636D01*
X004462Y014671D01*
X004440Y014693D01*
X004481Y014734D01*
X004481Y014859D01*
X008521Y014859D01*
X008954Y014426D01*
X010597Y014426D01*
X010597Y014360D01*
X010679Y014278D01*
X011191Y014278D01*
X011273Y014360D01*
X011273Y014840D01*
X012531Y014859D01*
X012608Y014859D01*
X012609Y014860D01*
X012611Y014860D01*
X012664Y014915D01*
X012820Y015071D01*
X012932Y015183D01*
X012932Y015439D01*
X012998Y015504D01*
X013272Y015504D01*
X013270Y015502D01*
X013270Y014990D01*
X013352Y014908D01*
X013864Y014908D01*
X013946Y014990D01*
X013946Y015046D01*
X018081Y015046D01*
X018022Y014986D01*
X018022Y014474D01*
X018104Y014392D01*
X018616Y014392D01*
X018698Y014474D01*
X018698Y014530D01*
X020068Y014530D01*
X020518Y014080D01*
X020518Y013525D01*
X020503Y013472D01*
X020518Y013445D01*
X020518Y013415D01*
X020557Y013376D01*
X020585Y013327D01*
X020614Y013319D01*
X020635Y013298D01*
X020691Y013298D01*
X020817Y013262D01*
X020817Y013186D01*
X019171Y013186D01*
X019054Y013069D01*
X018434Y012450D01*
X017611Y012450D01*
X017611Y012506D01*
X017529Y012588D01*
X017017Y012588D01*
X016935Y012506D01*
X016935Y011994D01*
X016974Y011954D01*
X016974Y011497D01*
X016998Y011474D01*
X016998Y011418D01*
X015592Y011418D01*
X015592Y011494D01*
X015510Y011576D01*
X014997Y011576D01*
X014915Y011494D01*
X014915Y011020D01*
X014163Y011020D01*
X014163Y011077D01*
X014081Y011159D01*
X013568Y011159D01*
X013486Y011077D01*
X013486Y010564D01*
X013568Y010482D01*
X014081Y010482D01*
X014163Y010564D01*
X014163Y010620D01*
X015486Y010620D01*
X015486Y010505D01*
X015494Y010498D01*
X015470Y010473D01*
X012336Y010473D01*
X012336Y010529D01*
X012254Y010611D01*
X011835Y010611D01*
X011835Y010825D01*
X012250Y010825D01*
X012332Y010907D01*
X012332Y011419D01*
X012250Y011501D01*
X011738Y011501D01*
X011656Y011419D01*
X011656Y011359D01*
X011634Y011359D01*
X011553Y011359D01*
X011552Y011358D01*
X011550Y011358D01*
X011493Y011300D01*
X011435Y011242D01*
X011435Y011241D01*
X011435Y011240D01*
X011435Y011158D01*
X011435Y009722D01*
X011345Y009813D01*
X011234Y009924D01*
X007273Y009924D01*
X007273Y009990D01*
X007191Y010072D01*
X006679Y010072D01*
X006597Y009990D01*
X006597Y009478D01*
X006679Y009396D01*
X007191Y009396D01*
X007273Y009478D01*
X007273Y009544D01*
X011076Y009544D01*
X011095Y009525D01*
X011095Y008297D01*
X011206Y008186D01*
X011813Y007579D01*
X015136Y007579D01*
X015136Y007513D01*
X015218Y007431D01*
X015730Y007431D01*
X015812Y007513D01*
X015812Y007950D01*
X016313Y007946D01*
X016313Y007887D01*
X016395Y007805D01*
X016907Y007805D01*
X016989Y007887D01*
X016989Y008399D01*
X016943Y008446D01*
X018349Y008447D01*
X018349Y008391D01*
X018431Y008309D01*
X018943Y008309D01*
X019025Y008391D01*
X019025Y008903D01*
X018943Y008985D01*
X018431Y008985D01*
X018349Y008903D01*
X018349Y008847D01*
X014522Y008843D01*
X013706Y009514D01*
X013706Y009789D01*
X013624Y009871D01*
X013112Y009871D01*
X013030Y009789D01*
X013030Y009277D01*
X013112Y009195D01*
X013464Y009195D01*
X014316Y008495D01*
X014368Y008443D01*
X014379Y008443D01*
X014387Y008436D01*
X014460Y008443D01*
X016359Y008445D01*
X016313Y008399D01*
X016313Y008346D01*
X012569Y008374D01*
X011835Y008770D01*
X011835Y009935D01*
X012254Y009935D01*
X012336Y010017D01*
X012336Y010073D01*
X015467Y010073D01*
X015467Y009958D01*
X015549Y009876D01*
X016061Y009876D01*
X016143Y009958D01*
X016143Y010470D01*
X016135Y010478D01*
X016163Y010505D01*
X016163Y011018D01*
X016162Y011018D01*
X016998Y011018D01*
X016998Y010962D01*
X017080Y010880D01*
X017592Y010880D01*
X017674Y010962D01*
X017674Y011474D01*
X017651Y011498D01*
X017651Y011564D01*
X019777Y011564D01*
X020171Y011957D01*
X020820Y011957D01*
X020912Y011865D01*
X021037Y011813D01*
X021171Y011813D01*
X021295Y011865D01*
X021391Y011960D01*
X021442Y012084D01*
X021442Y012218D01*
X021391Y012343D01*
X021295Y012438D01*
X021171Y012489D01*
X021037Y012489D01*
X020912Y012438D01*
X020817Y012343D01*
X020815Y012337D01*
X020013Y012337D01*
X019902Y012226D01*
X019620Y011944D01*
X017651Y011944D01*
X017651Y012010D01*
X017611Y012049D01*
X017611Y012050D01*
X018600Y012050D01*
X019336Y012786D01*
X023852Y012786D01*
X024801Y013735D01*
X024918Y013852D01*
X024918Y018408D01*
X024943Y018408D01*
X025025Y018490D01*
X025025Y019002D01*
X024943Y019084D01*
X024431Y019084D01*
X024349Y019002D01*
X024349Y018490D01*
X024431Y018408D01*
X024518Y018408D01*
X024518Y014017D01*
X023686Y013186D01*
X021493Y013186D01*
X021493Y013632D01*
X021411Y013714D01*
X020918Y013714D01*
X020918Y014246D01*
X020801Y014363D01*
X020234Y014930D01*
X018698Y014930D01*
X018698Y014986D01*
X018638Y015046D01*
X019321Y015046D01*
X019860Y015585D01*
X019977Y015702D01*
X019977Y016707D01*
X020033Y016707D01*
X020115Y016789D01*
X020115Y017301D01*
X020033Y017383D01*
X019521Y017383D01*
X019439Y017301D01*
X019439Y016789D01*
X019521Y016707D01*
X019577Y016707D01*
X019577Y015868D01*
X019155Y015446D01*
X018726Y015446D01*
X018726Y015939D01*
X018644Y016021D01*
X018564Y016021D01*
X018363Y016222D01*
X018363Y016364D01*
X018364Y016364D01*
X018446Y016446D01*
X018446Y016958D01*
X018364Y017040D01*
X018048Y017040D01*
X018096Y017088D01*
X018096Y017600D01*
X018023Y017673D01*
X018096Y017745D01*
X018096Y018258D01*
X018014Y018340D01*
X017501Y018340D01*
X017419Y018258D01*
X017419Y017934D01*
X017419Y018112D02*
X014277Y018112D01*
X014277Y018168D01*
X014451Y018168D01*
X014785Y018502D01*
X021616Y018502D01*
X023128Y020014D01*
X023245Y020131D01*
X023245Y024797D01*
X022520Y025521D01*
X022414Y025627D01*
X028242Y025627D01*
X028265Y000360D01*
X012265Y000360D01*
X012578Y000768D01*
X012606Y000796D01*
X012614Y000815D01*
X012626Y000831D01*
X012637Y000870D01*
X012652Y000906D01*
X012652Y000927D01*
X012657Y000946D01*
X012652Y000986D01*
X012652Y003337D01*
X012706Y003391D01*
X012706Y003410D01*
X012840Y003419D01*
X014525Y003408D01*
X015728Y002226D01*
X015764Y002191D01*
X015765Y002190D01*
X015766Y002189D01*
X015813Y002170D01*
X015859Y002151D01*
X015861Y002151D01*
X015862Y002151D01*
X015912Y002151D01*
X021833Y002151D01*
X021911Y002073D01*
X022423Y002073D01*
X022505Y002155D01*
X022505Y002667D01*
X022423Y002749D01*
X021911Y002749D01*
X021833Y002671D01*
X016017Y002671D01*
X014815Y003851D01*
X014780Y003886D01*
X014778Y003887D01*
X014777Y003889D01*
X014731Y003907D01*
X014685Y003927D01*
X014683Y003927D01*
X014681Y003927D01*
X014631Y003927D01*
X012876Y003938D01*
X012866Y003942D01*
X012824Y003939D01*
X012782Y003939D01*
X012773Y003935D01*
X012680Y003929D01*
X012624Y003985D01*
X012112Y003985D01*
X012030Y003903D01*
X012030Y003391D01*
X012052Y003369D01*
X012052Y003356D01*
X012049Y003304D01*
X012052Y003297D01*
X012052Y001068D01*
X011842Y000794D01*
X001265Y000794D01*
X001265Y000829D01*
X001183Y000911D01*
X000671Y000911D01*
X000589Y000829D01*
X000589Y000360D01*
X000513Y000360D01*
X000512Y000456D02*
X000589Y000456D01*
X000589Y000574D02*
X000511Y000574D01*
X000510Y000693D02*
X000589Y000693D01*
X000589Y000811D02*
X000509Y000811D01*
X000508Y000930D02*
X011946Y000930D01*
X012037Y001048D02*
X000507Y001048D01*
X000506Y001167D02*
X012052Y001167D01*
X012052Y001285D02*
X000505Y001285D01*
X000504Y001404D02*
X012052Y001404D01*
X012052Y001522D02*
X000503Y001522D01*
X000502Y001641D02*
X012052Y001641D01*
X012052Y001759D02*
X000501Y001759D01*
X000500Y001878D02*
X012052Y001878D01*
X012052Y001996D02*
X000499Y001996D01*
X000498Y002115D02*
X012052Y002115D01*
X012052Y002233D02*
X000497Y002233D01*
X000496Y002352D02*
X012052Y002352D01*
X012052Y002470D02*
X000495Y002470D01*
X000494Y002589D02*
X012052Y002589D01*
X012052Y002707D02*
X000493Y002707D01*
X000492Y002826D02*
X012052Y002826D01*
X012052Y002944D02*
X000491Y002944D01*
X000490Y003063D02*
X012052Y003063D01*
X012052Y003181D02*
X000489Y003181D01*
X000488Y003300D02*
X012051Y003300D01*
X012030Y003418D02*
X000487Y003418D01*
X000486Y003537D02*
X012030Y003537D01*
X012030Y003655D02*
X000485Y003655D01*
X000484Y003774D02*
X012030Y003774D01*
X012030Y003892D02*
X000483Y003892D01*
X000482Y004011D02*
X013291Y004011D01*
X013313Y003989D02*
X015116Y003989D01*
X015116Y003726D01*
X015198Y003644D01*
X015710Y003644D01*
X015792Y003726D01*
X015792Y004238D01*
X015710Y004320D01*
X015385Y004320D01*
X015336Y004369D01*
X013470Y004369D01*
X013130Y004709D01*
X013170Y004749D01*
X013170Y005262D01*
X013164Y005268D01*
X016009Y005268D01*
X016192Y005451D01*
X016518Y005451D01*
X016600Y005533D01*
X016600Y006045D01*
X016518Y006127D01*
X016005Y006127D01*
X015923Y006045D01*
X015923Y005720D01*
X015852Y005648D01*
X009155Y005648D01*
X009155Y005714D01*
X009073Y005796D01*
X008560Y005796D01*
X008478Y005714D01*
X008478Y005202D01*
X008560Y005120D01*
X009073Y005120D01*
X009155Y005202D01*
X009155Y005268D01*
X012501Y005268D01*
X012494Y005262D01*
X012494Y004749D01*
X012576Y004667D01*
X012642Y004667D01*
X012642Y004659D01*
X013201Y004100D01*
X013313Y003989D01*
X013172Y004129D02*
X000481Y004129D01*
X000480Y004248D02*
X013054Y004248D01*
X012935Y004366D02*
X000479Y004366D01*
X000478Y004485D02*
X012817Y004485D01*
X012698Y004603D02*
X000477Y004603D01*
X000476Y004722D02*
X012522Y004722D01*
X012494Y004840D02*
X000475Y004840D01*
X000474Y004959D02*
X012494Y004959D01*
X012494Y005077D02*
X000473Y005077D01*
X000472Y005196D02*
X008485Y005196D01*
X008478Y005314D02*
X000471Y005314D01*
X000470Y005433D02*
X008478Y005433D01*
X008478Y005551D02*
X000469Y005551D01*
X000468Y005670D02*
X006999Y005670D01*
X007293Y005970D02*
X005809Y005970D01*
X005202Y006576D01*
X005202Y011777D01*
X006037Y012612D01*
X008277Y012612D01*
X008572Y012317D01*
X015541Y012317D01*
X015950Y011907D01*
X015612Y011950D02*
X008111Y011950D01*
X008111Y011832D02*
X015612Y011832D01*
X015612Y011713D02*
X007708Y011713D01*
X007718Y011723D02*
X008029Y011723D01*
X008111Y011805D01*
X008111Y012317D01*
X008029Y012399D01*
X007517Y012399D01*
X007435Y012317D01*
X007435Y012020D01*
X006556Y012020D01*
X006556Y012077D01*
X006474Y012159D01*
X005962Y012159D01*
X005880Y012077D01*
X005880Y011564D01*
X005962Y011482D01*
X006474Y011482D01*
X006556Y011564D01*
X006556Y011620D01*
X007616Y011620D01*
X007718Y011723D01*
X007533Y011820D02*
X007773Y012061D01*
X008111Y012069D02*
X015506Y012069D01*
X015835Y012306D02*
X016935Y012306D01*
X016935Y012424D02*
X015716Y012424D01*
X016265Y012187D02*
X016935Y012187D01*
X016935Y012069D02*
X016289Y012069D01*
X016289Y011950D02*
X016974Y011950D01*
X016974Y011832D02*
X016289Y011832D01*
X016289Y011713D02*
X016974Y011713D01*
X016974Y011595D02*
X016232Y011595D01*
X015669Y011595D02*
X006556Y011595D01*
X006218Y011820D02*
X007533Y011820D01*
X007435Y012069D02*
X006556Y012069D01*
X006014Y012306D02*
X007435Y012306D01*
X007435Y012187D02*
X005895Y012187D01*
X005880Y012069D02*
X005777Y012069D01*
X005880Y011950D02*
X005658Y011950D01*
X005540Y011832D02*
X005880Y011832D01*
X005880Y011713D02*
X005421Y011713D01*
X005402Y011595D02*
X005880Y011595D01*
X005402Y011476D02*
X011713Y011476D01*
X011550Y011358D02*
X005402Y011358D01*
X005402Y011239D02*
X011435Y011239D01*
X011435Y011121D02*
X005402Y011121D01*
X005402Y011002D02*
X011435Y011002D01*
X011435Y010884D02*
X005402Y010884D01*
X005402Y010765D02*
X011435Y010765D01*
X011435Y010647D02*
X005402Y010647D01*
X005402Y010528D02*
X011435Y010528D01*
X011435Y010410D02*
X005402Y010410D01*
X005402Y010291D02*
X011435Y010291D01*
X011435Y010173D02*
X005402Y010173D01*
X005402Y010054D02*
X006661Y010054D01*
X006597Y009936D02*
X005402Y009936D01*
X005402Y009817D02*
X006597Y009817D01*
X006597Y009699D02*
X005402Y009699D01*
X005402Y009580D02*
X006597Y009580D01*
X006613Y009462D02*
X005402Y009462D01*
X005402Y009343D02*
X011095Y009343D01*
X011095Y009225D02*
X005402Y009225D01*
X005402Y009106D02*
X011095Y009106D01*
X011095Y008988D02*
X005402Y008988D01*
X005402Y008869D02*
X011095Y008869D01*
X011095Y008751D02*
X005402Y008751D01*
X005402Y008632D02*
X011095Y008632D01*
X011095Y008514D02*
X005402Y008514D01*
X005402Y008395D02*
X011095Y008395D01*
X011115Y008277D02*
X005402Y008277D01*
X005402Y008158D02*
X011234Y008158D01*
X011352Y008040D02*
X005402Y008040D01*
X005402Y007921D02*
X011471Y007921D01*
X011589Y007803D02*
X005402Y007803D01*
X005402Y007684D02*
X011708Y007684D01*
X011886Y007442D02*
X011725Y007375D01*
X011601Y007251D01*
X011534Y007089D01*
X011534Y006914D01*
X011601Y006752D01*
X011725Y006629D01*
X011886Y006562D01*
X012062Y006562D01*
X012223Y006629D01*
X012347Y006752D01*
X012414Y006914D01*
X012414Y007089D01*
X012347Y007251D01*
X012223Y007375D01*
X012062Y007442D01*
X011886Y007442D01*
X011679Y007329D02*
X011269Y007329D01*
X011223Y007375D02*
X011062Y007442D01*
X010886Y007442D01*
X010725Y007375D01*
X010601Y007251D01*
X010534Y007089D01*
X010534Y006914D01*
X010601Y006752D01*
X010725Y006629D01*
X010886Y006562D01*
X011062Y006562D01*
X011223Y006629D01*
X011347Y006752D01*
X011414Y006914D01*
X011414Y007089D01*
X011347Y007251D01*
X011223Y007375D01*
X011364Y007210D02*
X011584Y007210D01*
X011535Y007092D02*
X011413Y007092D01*
X011414Y006973D02*
X011534Y006973D01*
X011559Y006855D02*
X011389Y006855D01*
X011331Y006736D02*
X011617Y006736D01*
X011751Y006618D02*
X011197Y006618D01*
X010751Y006618D02*
X009772Y006618D01*
X009847Y006648D02*
X009969Y006771D01*
X010035Y006931D01*
X010035Y007104D01*
X009969Y007264D01*
X009847Y007386D01*
X009687Y007453D01*
X009513Y007453D01*
X009353Y007386D01*
X009231Y007264D01*
X009165Y007104D01*
X009165Y006931D01*
X009231Y006771D01*
X009353Y006648D01*
X009513Y006582D01*
X009687Y006582D01*
X009847Y006648D01*
X009934Y006736D02*
X010617Y006736D01*
X010559Y006855D02*
X010004Y006855D01*
X010035Y006973D02*
X010534Y006973D01*
X010535Y007092D02*
X010035Y007092D01*
X009991Y007210D02*
X010584Y007210D01*
X010679Y007329D02*
X009904Y007329D01*
X009700Y007447D02*
X013856Y007447D01*
X013866Y007450D02*
X013797Y007428D01*
X013733Y007395D01*
X013674Y007352D01*
X013623Y007301D01*
X013581Y007243D01*
X013548Y007178D01*
X013525Y007109D01*
X013515Y007042D01*
X013934Y007042D01*
X013934Y007461D01*
X013866Y007450D01*
X013934Y007447D02*
X014014Y007447D01*
X014014Y007461D02*
X014014Y007042D01*
X013934Y007042D01*
X013934Y006962D01*
X013515Y006962D01*
X013525Y006894D01*
X013548Y006825D01*
X013581Y006760D01*
X013623Y006702D01*
X013674Y006651D01*
X013733Y006608D01*
X013797Y006575D01*
X013866Y006553D01*
X013934Y006542D01*
X013934Y006962D01*
X014014Y006962D01*
X014014Y007042D01*
X014433Y007042D01*
X014423Y007109D01*
X014400Y007178D01*
X014367Y007243D01*
X014325Y007301D01*
X014274Y007352D01*
X014215Y007395D01*
X014151Y007428D01*
X014082Y007450D01*
X014014Y007461D01*
X014092Y007447D02*
X015202Y007447D01*
X015223Y007375D02*
X015062Y007442D01*
X014886Y007442D01*
X014725Y007375D01*
X014601Y007251D01*
X014534Y007089D01*
X014534Y006914D01*
X014601Y006752D01*
X014725Y006629D01*
X014886Y006562D01*
X015062Y006562D01*
X015223Y006629D01*
X015347Y006752D01*
X015414Y006914D01*
X015414Y007089D01*
X015347Y007251D01*
X015223Y007375D01*
X015269Y007329D02*
X015679Y007329D01*
X015725Y007375D02*
X015601Y007251D01*
X015534Y007089D01*
X015534Y006914D01*
X015601Y006752D01*
X015725Y006629D01*
X015886Y006562D01*
X016062Y006562D01*
X016223Y006629D01*
X016347Y006752D01*
X016414Y006914D01*
X016414Y007089D01*
X016347Y007251D01*
X016223Y007375D01*
X016062Y007442D01*
X015886Y007442D01*
X015725Y007375D01*
X015746Y007447D02*
X020919Y007447D01*
X020919Y007329D02*
X016269Y007329D01*
X016364Y007210D02*
X020900Y007210D01*
X020919Y007256D02*
X020879Y007160D01*
X020879Y007040D01*
X020919Y006944D01*
X020919Y006602D01*
X020918Y006552D01*
X020919Y006550D01*
X020919Y006548D01*
X020938Y006502D01*
X020956Y006456D01*
X020958Y006454D01*
X020958Y006453D01*
X020994Y006417D01*
X021028Y006382D01*
X021030Y006381D01*
X021031Y006380D01*
X021078Y006360D01*
X023779Y005197D01*
X024040Y004462D01*
X024034Y004456D01*
X023967Y004294D01*
X023967Y004119D01*
X024034Y003957D01*
X024158Y003833D01*
X024320Y003766D01*
X024495Y003766D01*
X024656Y003833D01*
X024780Y003957D01*
X024847Y004119D01*
X024847Y004294D01*
X024780Y004456D01*
X024656Y004579D01*
X024532Y004631D01*
X024246Y005434D01*
X024247Y005439D01*
X024229Y005483D01*
X024213Y005527D01*
X024210Y005531D01*
X024208Y005536D01*
X024176Y005569D01*
X024144Y005604D01*
X024140Y005606D01*
X024136Y005610D01*
X024093Y005628D01*
X024051Y005648D01*
X024046Y005649D01*
X021439Y006771D01*
X021439Y006800D01*
X021787Y006800D01*
X021795Y006791D01*
X021944Y006730D01*
X022106Y006730D01*
X022255Y006791D01*
X022281Y006818D01*
X022349Y006846D01*
X022433Y006930D01*
X022479Y007040D01*
X022479Y007160D01*
X022433Y007270D01*
X022391Y007312D01*
X022369Y007365D01*
X022255Y007479D01*
X022106Y007541D01*
X021944Y007541D01*
X021795Y007479D01*
X021716Y007400D01*
X021439Y007400D01*
X021439Y008882D01*
X021465Y008908D01*
X021517Y009033D01*
X021517Y009167D01*
X021465Y009292D01*
X021370Y009387D01*
X021246Y009438D01*
X021111Y009438D01*
X020987Y009387D01*
X020892Y009292D01*
X020841Y009167D01*
X020841Y009033D01*
X020892Y008908D01*
X020919Y008882D01*
X020919Y007256D01*
X020879Y007092D02*
X016413Y007092D01*
X016414Y006973D02*
X020907Y006973D01*
X020919Y006855D02*
X016389Y006855D01*
X016331Y006736D02*
X020919Y006736D01*
X020919Y006618D02*
X016197Y006618D01*
X015751Y006618D02*
X015197Y006618D01*
X015331Y006736D02*
X015617Y006736D01*
X015559Y006855D02*
X015389Y006855D01*
X015414Y006973D02*
X015534Y006973D01*
X015535Y007092D02*
X015413Y007092D01*
X015364Y007210D02*
X015584Y007210D01*
X015812Y007566D02*
X020919Y007566D01*
X020919Y007684D02*
X015812Y007684D01*
X015812Y007803D02*
X020919Y007803D01*
X020919Y007921D02*
X016989Y007921D01*
X016989Y008040D02*
X020919Y008040D01*
X020919Y008158D02*
X016989Y008158D01*
X016989Y008277D02*
X020919Y008277D01*
X020919Y008395D02*
X019025Y008395D01*
X019025Y008514D02*
X020919Y008514D01*
X020919Y008632D02*
X019025Y008632D01*
X019025Y008751D02*
X020919Y008751D01*
X020919Y008869D02*
X019025Y008869D01*
X018687Y008647D02*
X014450Y008643D01*
X013368Y009533D01*
X013706Y009580D02*
X022600Y009580D01*
X022599Y009586D02*
X022610Y009520D01*
X022631Y009456D01*
X022661Y009397D01*
X022700Y009342D01*
X022748Y009295D01*
X022802Y009256D01*
X022862Y009225D01*
X022925Y009204D01*
X022992Y009194D01*
X022997Y009194D01*
X022997Y009591D01*
X023054Y009591D01*
X023054Y009648D01*
X023451Y009648D01*
X023451Y009653D01*
X023440Y009719D01*
X023420Y009783D01*
X023389Y009843D01*
X023350Y009897D01*
X023303Y009944D01*
X023248Y009984D01*
X023189Y010014D01*
X023125Y010035D01*
X023059Y010045D01*
X023054Y010045D01*
X023054Y009648D01*
X022997Y009648D01*
X022997Y010045D01*
X022992Y010045D01*
X022925Y010035D01*
X022862Y010014D01*
X022802Y009984D01*
X022748Y009944D01*
X022700Y009897D01*
X022661Y009843D01*
X022631Y009783D01*
X022610Y009719D01*
X022599Y009653D01*
X022599Y009648D01*
X022997Y009648D01*
X022997Y009591D01*
X022599Y009591D01*
X022599Y009586D01*
X022607Y009699D02*
X022047Y009699D01*
X022043Y009698D02*
X022109Y009708D01*
X022173Y009729D01*
X022233Y009759D01*
X022287Y009799D01*
X022334Y009846D01*
X022374Y009900D01*
X022404Y009960D01*
X022425Y010024D01*
X022435Y010090D01*
X022435Y010095D01*
X022038Y010095D01*
X022038Y009698D01*
X022043Y009698D01*
X022038Y009699D02*
X021981Y009699D01*
X021981Y009698D02*
X021981Y010095D01*
X022038Y010095D01*
X022038Y010152D01*
X022435Y010152D01*
X022435Y010157D01*
X022425Y010223D01*
X022404Y010287D01*
X022374Y010347D01*
X022334Y010401D01*
X022287Y010448D01*
X022233Y010488D01*
X022173Y010518D01*
X022109Y010539D01*
X022043Y010549D01*
X022038Y010549D01*
X022038Y010152D01*
X021981Y010152D01*
X021981Y010095D01*
X021584Y010095D01*
X021584Y010090D01*
X021594Y010024D01*
X021615Y009960D01*
X021645Y009900D01*
X021685Y009846D01*
X021732Y009799D01*
X021786Y009759D01*
X021846Y009729D01*
X021910Y009708D01*
X021976Y009698D01*
X021981Y009698D01*
X021972Y009699D02*
X013706Y009699D01*
X013678Y009817D02*
X021714Y009817D01*
X021627Y009936D02*
X016120Y009936D01*
X016143Y010054D02*
X021589Y010054D01*
X021584Y010152D02*
X021981Y010152D01*
X021981Y010549D01*
X021976Y010549D01*
X021910Y010539D01*
X021846Y010518D01*
X021786Y010488D01*
X021732Y010448D01*
X021685Y010401D01*
X021645Y010347D01*
X021615Y010287D01*
X021594Y010223D01*
X021584Y010157D01*
X021584Y010152D01*
X021586Y010173D02*
X016143Y010173D01*
X016143Y010291D02*
X021617Y010291D01*
X021693Y010410D02*
X016143Y010410D01*
X016163Y010528D02*
X021876Y010528D01*
X021981Y010528D02*
X022038Y010528D01*
X022143Y010528D02*
X024616Y010528D01*
X024616Y010447D02*
X024754Y010112D01*
X025010Y009856D01*
X025344Y009718D01*
X025706Y009718D01*
X026040Y009856D01*
X026296Y010112D01*
X026435Y010447D01*
X026435Y010808D01*
X026296Y011143D01*
X026040Y011399D01*
X025706Y011537D01*
X025344Y011537D01*
X025010Y011399D01*
X024754Y011143D01*
X024616Y010808D01*
X024616Y010447D01*
X024631Y010410D02*
X022326Y010410D01*
X022402Y010291D02*
X024680Y010291D01*
X024729Y010173D02*
X022433Y010173D01*
X022429Y010054D02*
X024812Y010054D01*
X024931Y009936D02*
X023311Y009936D01*
X023402Y009817D02*
X025105Y009817D01*
X025945Y009817D02*
X028256Y009817D01*
X028256Y009699D02*
X023444Y009699D01*
X023451Y009591D02*
X023054Y009591D01*
X023054Y009194D01*
X023059Y009194D01*
X023125Y009204D01*
X023189Y009225D01*
X023248Y009256D01*
X023303Y009295D01*
X023350Y009342D01*
X023389Y009397D01*
X023420Y009456D01*
X023440Y009520D01*
X023451Y009586D01*
X023451Y009591D01*
X023450Y009580D02*
X028257Y009580D01*
X028257Y009462D02*
X023421Y009462D01*
X023350Y009343D02*
X028257Y009343D01*
X028257Y009225D02*
X023187Y009225D01*
X023054Y009225D02*
X022997Y009225D01*
X022997Y009343D02*
X023054Y009343D01*
X023054Y009462D02*
X022997Y009462D01*
X022997Y009580D02*
X023054Y009580D01*
X023054Y009699D02*
X022997Y009699D01*
X022997Y009817D02*
X023054Y009817D01*
X023054Y009936D02*
X022997Y009936D01*
X022739Y009936D02*
X022391Y009936D01*
X022305Y009817D02*
X022648Y009817D01*
X022629Y009462D02*
X022247Y009462D01*
X022233Y009472D02*
X022173Y009502D01*
X022109Y009523D01*
X022043Y009534D01*
X022038Y009534D01*
X022038Y009136D01*
X022435Y009136D01*
X022435Y009141D01*
X022425Y009208D01*
X022404Y009271D01*
X022374Y009331D01*
X022334Y009385D01*
X022287Y009433D01*
X022233Y009472D01*
X022365Y009343D02*
X022700Y009343D01*
X022864Y009225D02*
X022419Y009225D01*
X022435Y009079D02*
X022038Y009079D01*
X022038Y008682D01*
X022043Y008682D01*
X022109Y008693D01*
X022173Y008713D01*
X022233Y008744D01*
X022287Y008783D01*
X022334Y008831D01*
X022374Y008885D01*
X022404Y008944D01*
X022425Y009008D01*
X022435Y009074D01*
X022435Y009079D01*
X022418Y008988D02*
X022834Y008988D01*
X022795Y008972D02*
X022681Y008857D01*
X022619Y008708D01*
X022619Y008547D01*
X022681Y008398D01*
X022795Y008284D01*
X022944Y008222D01*
X023106Y008222D01*
X023255Y008284D01*
X023369Y008398D01*
X023431Y008547D01*
X023431Y008708D01*
X023369Y008857D01*
X023255Y008972D01*
X023106Y009033D01*
X022944Y009033D01*
X022795Y008972D01*
X022693Y008869D02*
X022362Y008869D01*
X022242Y008751D02*
X022637Y008751D01*
X022619Y008632D02*
X021439Y008632D01*
X021439Y008514D02*
X021889Y008514D01*
X021937Y008533D02*
X021787Y008472D01*
X021673Y008357D01*
X021612Y008208D01*
X021612Y008047D01*
X021673Y007898D01*
X021787Y007784D01*
X021937Y007722D01*
X022098Y007722D01*
X022247Y007784D01*
X022361Y007898D01*
X022423Y008047D01*
X022423Y008208D01*
X022361Y008357D01*
X022247Y008472D01*
X022098Y008533D01*
X021937Y008533D01*
X021976Y008682D02*
X021910Y008693D01*
X021846Y008713D01*
X021786Y008744D01*
X021732Y008783D01*
X021685Y008831D01*
X021645Y008885D01*
X021615Y008944D01*
X021594Y009008D01*
X021584Y009074D01*
X021584Y009079D01*
X021981Y009079D01*
X022038Y009079D01*
X022038Y009136D01*
X021981Y009136D01*
X021981Y009079D01*
X021981Y008682D01*
X021976Y008682D01*
X021981Y008751D02*
X022038Y008751D01*
X022038Y008869D02*
X021981Y008869D01*
X021981Y008988D02*
X022038Y008988D01*
X022038Y009106D02*
X028257Y009106D01*
X028257Y008988D02*
X023216Y008988D01*
X023358Y008869D02*
X028257Y008869D01*
X028257Y008751D02*
X023413Y008751D01*
X023431Y008632D02*
X028257Y008632D01*
X028257Y008514D02*
X023417Y008514D01*
X023366Y008395D02*
X028258Y008395D01*
X028258Y008277D02*
X023238Y008277D01*
X023102Y008033D02*
X022941Y008033D01*
X022791Y007972D01*
X022677Y007857D01*
X022616Y007708D01*
X022616Y007547D01*
X022677Y007398D01*
X022791Y007284D01*
X022941Y007222D01*
X023102Y007222D01*
X023251Y007284D01*
X023365Y007398D01*
X023427Y007547D01*
X023427Y007708D01*
X023365Y007857D01*
X023251Y007972D01*
X023102Y008033D01*
X023302Y007921D02*
X028258Y007921D01*
X028258Y007803D02*
X023388Y007803D01*
X023427Y007684D02*
X028258Y007684D01*
X028258Y007566D02*
X023427Y007566D01*
X023386Y007447D02*
X028258Y007447D01*
X028259Y007329D02*
X023296Y007329D01*
X023106Y007037D02*
X022944Y007037D01*
X022795Y006975D01*
X022681Y006861D01*
X022619Y006712D01*
X022619Y006551D01*
X022681Y006402D01*
X022795Y006288D01*
X022944Y006226D01*
X023106Y006226D01*
X023255Y006288D01*
X023369Y006402D01*
X023431Y006551D01*
X023431Y006712D01*
X023369Y006861D01*
X023255Y006975D01*
X023106Y007037D01*
X023257Y006973D02*
X025161Y006973D01*
X025010Y006910D02*
X024754Y006655D01*
X024616Y006320D01*
X024616Y005958D01*
X024754Y005624D01*
X025010Y005368D01*
X025344Y005230D01*
X025706Y005230D01*
X026040Y005368D01*
X026296Y005624D01*
X026435Y005958D01*
X026435Y006320D01*
X026296Y006655D01*
X026040Y006910D01*
X025706Y007049D01*
X025344Y007049D01*
X025010Y006910D01*
X024954Y006855D02*
X023372Y006855D01*
X023421Y006736D02*
X024835Y006736D01*
X024739Y006618D02*
X023431Y006618D01*
X023409Y006499D02*
X024690Y006499D01*
X024641Y006381D02*
X023348Y006381D01*
X023193Y006262D02*
X024616Y006262D01*
X024616Y006144D02*
X022896Y006144D01*
X022857Y006262D02*
X022621Y006262D01*
X022702Y006381D02*
X022346Y006381D01*
X022071Y006499D02*
X022641Y006499D01*
X022619Y006618D02*
X021796Y006618D01*
X021929Y006736D02*
X021520Y006736D01*
X021306Y006262D02*
X007595Y006262D01*
X007631Y006144D02*
X021581Y006144D01*
X021857Y006025D02*
X016600Y006025D01*
X016600Y005907D02*
X022132Y005907D01*
X022407Y005788D02*
X016600Y005788D01*
X016600Y005670D02*
X022682Y005670D01*
X022958Y005551D02*
X016600Y005551D01*
X016174Y005433D02*
X023233Y005433D01*
X023508Y005314D02*
X016055Y005314D01*
X015873Y005670D02*
X009155Y005670D01*
X009081Y005788D02*
X015923Y005788D01*
X015923Y005907D02*
X007631Y005907D01*
X007631Y006025D02*
X015923Y006025D01*
X014751Y006618D02*
X014228Y006618D01*
X014215Y006608D02*
X014274Y006651D01*
X014325Y006702D01*
X014367Y006760D01*
X014400Y006825D01*
X014423Y006894D01*
X014433Y006962D01*
X014014Y006962D01*
X014014Y006542D01*
X014082Y006553D01*
X014151Y006575D01*
X014215Y006608D01*
X014350Y006736D02*
X014617Y006736D01*
X014559Y006855D02*
X014410Y006855D01*
X014534Y006973D02*
X014014Y006973D01*
X013934Y006973D02*
X013414Y006973D01*
X013414Y006914D02*
X013347Y006752D01*
X013223Y006629D01*
X013062Y006562D01*
X012886Y006562D01*
X012725Y006629D01*
X012601Y006752D01*
X012534Y006914D01*
X012534Y007089D01*
X012601Y007251D01*
X012725Y007375D01*
X012886Y007442D01*
X013062Y007442D01*
X013223Y007375D01*
X013347Y007251D01*
X013414Y007089D01*
X013414Y006914D01*
X013389Y006855D02*
X013538Y006855D01*
X013598Y006736D02*
X013331Y006736D01*
X013197Y006618D02*
X013720Y006618D01*
X013934Y006618D02*
X014014Y006618D01*
X014014Y006736D02*
X013934Y006736D01*
X013934Y006855D02*
X014014Y006855D01*
X014014Y007092D02*
X013934Y007092D01*
X013934Y007210D02*
X014014Y007210D01*
X014014Y007329D02*
X013934Y007329D01*
X013650Y007329D02*
X013269Y007329D01*
X013364Y007210D02*
X013564Y007210D01*
X013523Y007092D02*
X013413Y007092D01*
X012679Y007329D02*
X012269Y007329D01*
X012364Y007210D02*
X012584Y007210D01*
X012535Y007092D02*
X012413Y007092D01*
X012414Y006973D02*
X012534Y006973D01*
X012559Y006855D02*
X012389Y006855D01*
X012331Y006736D02*
X012617Y006736D01*
X012751Y006618D02*
X012197Y006618D01*
X012494Y005196D02*
X009148Y005196D01*
X008478Y005670D02*
X007587Y005670D01*
X007631Y005788D02*
X008552Y005788D01*
X008513Y006582D02*
X008687Y006582D01*
X008847Y006648D01*
X008969Y006771D01*
X009035Y006931D01*
X009035Y007104D01*
X008969Y007264D01*
X008847Y007386D01*
X008687Y007453D01*
X008513Y007453D01*
X008353Y007386D01*
X008231Y007264D01*
X008165Y007104D01*
X008165Y006931D01*
X008231Y006771D01*
X008353Y006648D01*
X008513Y006582D01*
X008428Y006618D02*
X005444Y006618D01*
X005402Y006736D02*
X008266Y006736D01*
X008196Y006855D02*
X005402Y006855D01*
X005402Y006973D02*
X008165Y006973D01*
X008165Y007092D02*
X005402Y007092D01*
X005402Y007210D02*
X008209Y007210D01*
X008296Y007329D02*
X005402Y007329D01*
X005402Y007447D02*
X008500Y007447D01*
X008700Y007447D02*
X009500Y007447D01*
X009296Y007329D02*
X008904Y007329D01*
X008991Y007210D02*
X009209Y007210D01*
X009165Y007092D02*
X009035Y007092D01*
X009035Y006973D02*
X009165Y006973D01*
X009196Y006855D02*
X009004Y006855D01*
X008934Y006736D02*
X009266Y006736D01*
X009428Y006618D02*
X008772Y006618D01*
X006991Y006262D02*
X005800Y006262D01*
X005681Y006381D02*
X021031Y006381D01*
X020939Y006499D02*
X005563Y006499D01*
X005234Y006262D02*
X000464Y006262D01*
X000465Y006144D02*
X005352Y006144D01*
X005471Y006025D02*
X000466Y006025D01*
X000467Y005907D02*
X005589Y005907D01*
X005708Y005788D02*
X000468Y005788D01*
X000463Y006381D02*
X005115Y006381D01*
X005002Y006499D02*
X000462Y006499D01*
X000461Y006618D02*
X005002Y006618D01*
X005002Y006736D02*
X000460Y006736D01*
X000459Y006855D02*
X005002Y006855D01*
X005002Y006973D02*
X000458Y006973D01*
X000457Y007092D02*
X005002Y007092D01*
X005002Y007210D02*
X000456Y007210D01*
X000455Y007329D02*
X005002Y007329D01*
X005002Y007447D02*
X000454Y007447D01*
X000453Y007566D02*
X005002Y007566D01*
X005002Y007684D02*
X000452Y007684D01*
X000451Y007803D02*
X005002Y007803D01*
X005002Y007921D02*
X000450Y007921D01*
X000449Y008040D02*
X005002Y008040D01*
X005002Y008158D02*
X000448Y008158D01*
X000447Y008277D02*
X005002Y008277D01*
X005002Y008395D02*
X000446Y008395D01*
X000445Y008514D02*
X005002Y008514D01*
X005002Y008632D02*
X000444Y008632D01*
X000443Y008751D02*
X005002Y008751D01*
X005002Y008869D02*
X000442Y008869D01*
X000441Y008988D02*
X005002Y008988D01*
X005002Y009106D02*
X000440Y009106D01*
X000439Y009225D02*
X005002Y009225D01*
X005002Y009343D02*
X000438Y009343D01*
X000437Y009462D02*
X005002Y009462D01*
X005002Y009580D02*
X000436Y009580D01*
X000435Y009699D02*
X005002Y009699D01*
X005002Y009817D02*
X000434Y009817D01*
X000433Y009936D02*
X005002Y009936D01*
X005002Y010054D02*
X000432Y010054D01*
X000431Y010173D02*
X005002Y010173D01*
X005002Y010291D02*
X000430Y010291D01*
X000429Y010410D02*
X005002Y010410D01*
X005002Y010528D02*
X000428Y010528D01*
X000427Y010647D02*
X005002Y010647D01*
X005002Y010765D02*
X000426Y010765D01*
X000425Y010884D02*
X005002Y010884D01*
X005002Y011002D02*
X000424Y011002D01*
X000423Y011121D02*
X005002Y011121D01*
X005002Y011239D02*
X000422Y011239D01*
X000421Y011358D02*
X005002Y011358D01*
X005002Y011476D02*
X000420Y011476D01*
X000419Y011595D02*
X005002Y011595D01*
X005002Y011713D02*
X000418Y011713D01*
X000417Y011832D02*
X005002Y011832D01*
X005092Y011950D02*
X000416Y011950D01*
X000415Y012069D02*
X005211Y012069D01*
X005329Y012187D02*
X000414Y012187D01*
X000413Y012306D02*
X005448Y012306D01*
X005566Y012424D02*
X000412Y012424D01*
X000411Y012543D02*
X005685Y012543D01*
X005803Y012661D02*
X000410Y012661D01*
X000409Y012780D02*
X005922Y012780D01*
X004386Y014083D02*
X008557Y014083D01*
X008675Y013965D02*
X000399Y013965D01*
X000398Y014083D02*
X003861Y014083D01*
X003786Y014202D02*
X000397Y014202D01*
X000396Y014320D02*
X003786Y014320D01*
X003786Y014439D02*
X000395Y014439D01*
X000395Y014557D02*
X003786Y014557D01*
X003790Y014676D02*
X000394Y014676D01*
X000394Y014794D02*
X003805Y014794D01*
X003805Y014913D02*
X000394Y014913D01*
X000393Y015031D02*
X003805Y015031D01*
X003805Y015150D02*
X000393Y015150D01*
X000392Y015268D02*
X003827Y015268D01*
X004459Y015268D02*
X008431Y015268D01*
X008234Y015387D02*
X000392Y015387D01*
X000392Y015505D02*
X008200Y015505D01*
X008207Y015624D02*
X000391Y015624D01*
X000391Y015742D02*
X008207Y015742D01*
X008207Y015861D02*
X000391Y015861D01*
X000390Y015979D02*
X008207Y015979D01*
X008207Y016098D02*
X000390Y016098D01*
X000390Y016216D02*
X006449Y016216D01*
X006351Y016257D02*
X006582Y016161D01*
X006832Y016161D01*
X007062Y016257D01*
X007239Y016433D01*
X007334Y016664D01*
X007334Y016913D01*
X007239Y017144D01*
X007062Y017321D01*
X006832Y017416D01*
X006582Y017416D01*
X006462Y017367D01*
X006517Y017498D01*
X006517Y017880D01*
X006371Y018232D01*
X006100Y018502D01*
X005748Y018649D01*
X005366Y018649D01*
X005013Y018502D01*
X004743Y018232D01*
X004597Y017880D01*
X004597Y017498D01*
X004743Y017145D01*
X005013Y016875D01*
X005366Y016729D01*
X005748Y016729D01*
X006079Y016866D01*
X006079Y016664D01*
X006175Y016433D01*
X006351Y016257D01*
X006273Y016335D02*
X000389Y016335D01*
X000389Y016453D02*
X006166Y016453D01*
X006117Y016572D02*
X000388Y016572D01*
X000388Y016690D02*
X006079Y016690D01*
X006079Y016809D02*
X005941Y016809D01*
X005173Y016809D02*
X000388Y016809D01*
X000387Y016927D02*
X003450Y016927D01*
X003519Y016899D02*
X003694Y016899D01*
X003856Y016966D01*
X003980Y017089D01*
X004047Y017251D01*
X004047Y017426D01*
X003980Y017588D01*
X003856Y017712D01*
X003694Y017779D01*
X003519Y017779D01*
X003357Y017712D01*
X003234Y017588D01*
X003167Y017426D01*
X003167Y017251D01*
X003234Y017089D01*
X003357Y016966D01*
X003519Y016899D01*
X003763Y016927D02*
X004961Y016927D01*
X004842Y017046D02*
X003936Y017046D01*
X004011Y017164D02*
X004735Y017164D01*
X004686Y017283D02*
X004047Y017283D01*
X004047Y017401D02*
X004637Y017401D01*
X004597Y017520D02*
X004008Y017520D01*
X003929Y017638D02*
X004597Y017638D01*
X004597Y017757D02*
X003747Y017757D01*
X003714Y017890D02*
X003783Y017912D01*
X003848Y017945D01*
X003906Y017988D01*
X003958Y018039D01*
X004000Y018097D01*
X004033Y018162D01*
X004055Y018231D01*
X004067Y018302D01*
X004067Y018319D01*
X003627Y018319D01*
X003627Y018359D01*
X003587Y018359D01*
X003587Y018799D01*
X003570Y018799D01*
X003499Y018787D01*
X003430Y018765D01*
X003366Y018732D01*
X003307Y018689D01*
X003256Y018638D01*
X003213Y018580D01*
X003180Y018515D01*
X003158Y018446D01*
X003147Y018375D01*
X003147Y018359D01*
X003587Y018359D01*
X003587Y018319D01*
X003147Y018319D01*
X003147Y018302D01*
X003158Y018231D01*
X003180Y018162D01*
X003213Y018097D01*
X003256Y018039D01*
X003307Y017988D01*
X003366Y017945D01*
X003430Y017912D01*
X003499Y017890D01*
X003570Y017879D01*
X003587Y017879D01*
X003587Y018319D01*
X003627Y018319D01*
X003627Y017879D01*
X003643Y017879D01*
X003714Y017890D01*
X003627Y017994D02*
X003587Y017994D01*
X003587Y018112D02*
X003627Y018112D01*
X003627Y018231D02*
X003587Y018231D01*
X003587Y018349D02*
X000383Y018349D01*
X000383Y018231D02*
X003158Y018231D01*
X003206Y018112D02*
X000384Y018112D01*
X000384Y017994D02*
X003301Y017994D01*
X003466Y017757D02*
X000385Y017757D01*
X000384Y017875D02*
X004597Y017875D01*
X004644Y017994D02*
X003912Y017994D01*
X004008Y018112D02*
X004693Y018112D01*
X004742Y018231D02*
X004055Y018231D01*
X004067Y018359D02*
X004067Y018375D01*
X004055Y018446D01*
X004033Y018515D01*
X004000Y018580D01*
X003958Y018638D01*
X003906Y018689D01*
X003848Y018732D01*
X003783Y018765D01*
X003714Y018787D01*
X003643Y018799D01*
X003627Y018799D01*
X003627Y018359D01*
X004067Y018359D01*
X004048Y018468D02*
X004978Y018468D01*
X004860Y018349D02*
X003627Y018349D01*
X003627Y018468D02*
X003587Y018468D01*
X003587Y018586D02*
X003627Y018586D01*
X003627Y018705D02*
X003587Y018705D01*
X003328Y018705D02*
X000382Y018705D01*
X000382Y018823D02*
X007636Y018823D01*
X007617Y018776D02*
X007617Y018601D01*
X007684Y018439D01*
X007807Y018316D01*
X007969Y018249D01*
X008144Y018249D01*
X008306Y018316D01*
X008430Y018439D01*
X008497Y018601D01*
X008497Y018776D01*
X008430Y018938D01*
X008306Y019062D01*
X008144Y019129D01*
X007969Y019129D01*
X007807Y019062D01*
X007684Y018938D01*
X007617Y018776D01*
X007617Y018705D02*
X003886Y018705D01*
X003995Y018586D02*
X005215Y018586D01*
X005899Y018586D02*
X007623Y018586D01*
X007672Y018468D02*
X006135Y018468D01*
X006254Y018349D02*
X007774Y018349D01*
X008339Y018349D02*
X008625Y018349D01*
X008598Y018231D02*
X006371Y018231D01*
X006420Y018112D02*
X008603Y018112D01*
X008640Y017994D02*
X006469Y017994D01*
X006517Y017875D02*
X008720Y017875D01*
X008898Y017757D02*
X006517Y017757D01*
X006517Y017638D02*
X012119Y017638D01*
X012000Y017520D02*
X006517Y017520D01*
X006546Y017401D02*
X006477Y017401D01*
X006868Y017401D02*
X011882Y017401D01*
X011950Y017187D02*
X010809Y017187D01*
X010096Y016474D01*
X008647Y016474D01*
X008407Y016234D01*
X008407Y015509D01*
X008679Y015360D01*
X009246Y015360D01*
X009403Y015576D01*
X009600Y015576D01*
X009639Y015616D01*
X010222Y016318D02*
X010296Y016391D01*
X010892Y016987D01*
X012033Y016987D01*
X012150Y017104D01*
X012580Y017534D01*
X016411Y017534D01*
X016411Y017084D01*
X016494Y017002D01*
X016495Y017002D01*
X016440Y016651D01*
X013756Y016654D01*
X013631Y016861D01*
X013633Y016879D01*
X013590Y016930D01*
X013555Y016987D01*
X013537Y016991D01*
X013526Y017005D01*
X013459Y017011D01*
X013394Y017027D01*
X013379Y017017D01*
X013348Y017020D01*
X013348Y017112D01*
X013266Y017194D01*
X012753Y017194D01*
X012671Y017112D01*
X012671Y016600D01*
X012753Y016518D01*
X013266Y016518D01*
X013331Y016584D01*
X013427Y016426D01*
X013084Y016426D01*
X013002Y016344D01*
X013002Y016318D01*
X010222Y016318D01*
X010239Y016335D02*
X013002Y016335D01*
X012700Y016572D02*
X010476Y016572D01*
X010595Y016690D02*
X012671Y016690D01*
X012671Y016809D02*
X010713Y016809D01*
X010832Y016927D02*
X012671Y016927D01*
X012671Y017046D02*
X012092Y017046D01*
X012150Y017104D02*
X012150Y017104D01*
X012211Y017164D02*
X012723Y017164D01*
X012448Y017401D02*
X016411Y017401D01*
X016411Y017283D02*
X012329Y017283D01*
X012566Y017520D02*
X016411Y017520D01*
X016750Y017340D02*
X016612Y016450D01*
X013643Y016454D01*
X013427Y016813D01*
X013041Y016844D01*
X013009Y016856D01*
X013348Y017046D02*
X016450Y017046D01*
X016483Y016927D02*
X013592Y016927D01*
X013663Y016809D02*
X016465Y016809D01*
X016447Y016690D02*
X013735Y016690D01*
X013410Y016453D02*
X010358Y016453D01*
X010148Y016809D02*
X007334Y016809D01*
X007329Y016927D02*
X010266Y016927D01*
X010385Y017046D02*
X007279Y017046D01*
X007219Y017164D02*
X010503Y017164D01*
X010622Y017283D02*
X007100Y017283D01*
X007334Y016690D02*
X010029Y016690D01*
X009216Y017757D02*
X012237Y017757D01*
X012356Y017875D02*
X009394Y017875D01*
X009077Y017875D02*
X009037Y017875D01*
X009037Y017757D02*
X009077Y017757D01*
X009077Y017994D02*
X009037Y017994D01*
X009037Y018112D02*
X009077Y018112D01*
X009077Y018209D02*
X009517Y018209D01*
X009517Y018225D01*
X009505Y018296D01*
X009483Y018365D01*
X009450Y018430D01*
X009408Y018488D01*
X009356Y018539D01*
X009298Y018582D01*
X009233Y018615D01*
X009164Y018637D01*
X009093Y018649D01*
X009077Y018649D01*
X009077Y018209D01*
X009077Y018231D02*
X009037Y018231D01*
X009037Y018349D02*
X009077Y018349D01*
X009077Y018468D02*
X009037Y018468D01*
X009037Y018586D02*
X009077Y018586D01*
X009290Y018586D02*
X013600Y018586D01*
X013600Y018468D02*
X009423Y018468D01*
X009488Y018349D02*
X013600Y018349D01*
X013600Y018231D02*
X009516Y018231D01*
X009307Y018939D02*
X009057Y019189D01*
X009307Y018939D02*
X013950Y018939D01*
X014289Y018942D02*
X021489Y018942D01*
X021450Y018902D02*
X014620Y018902D01*
X014502Y018785D01*
X014285Y018568D01*
X014277Y018568D01*
X014277Y018624D01*
X014253Y018647D01*
X014289Y018682D01*
X014289Y019195D01*
X014206Y019277D01*
X013694Y019277D01*
X013612Y019195D01*
X013612Y019139D01*
X009497Y019139D01*
X009497Y019276D01*
X009430Y019438D01*
X009357Y019510D01*
X009584Y019510D01*
X009702Y019627D01*
X009958Y019884D01*
X014053Y019884D01*
X014170Y020001D01*
X014513Y020344D01*
X014513Y021230D01*
X014919Y021636D01*
X019943Y021636D01*
X020060Y021753D01*
X020415Y022109D01*
X020415Y022109D01*
X020532Y022226D01*
X020532Y023242D01*
X020588Y023242D01*
X020596Y023250D01*
X021104Y023250D01*
X021186Y023332D01*
X021186Y023844D01*
X021104Y023926D01*
X020909Y023926D01*
X020867Y024010D01*
X020867Y024045D01*
X020831Y024081D01*
X020808Y024127D01*
X020775Y024137D01*
X020750Y024162D01*
X020699Y024162D01*
X020650Y024178D01*
X020619Y024162D01*
X017092Y024162D01*
X016749Y023820D01*
X016632Y023703D01*
X016632Y023360D01*
X016568Y023296D01*
X016143Y023296D01*
X016143Y023769D01*
X016061Y023851D01*
X015926Y023851D01*
X015926Y024844D01*
X016321Y025239D01*
X022238Y025239D01*
X022845Y024631D01*
X022845Y020297D01*
X021450Y018902D01*
X021533Y018702D02*
X023045Y020214D01*
X023045Y024714D01*
X022320Y025439D01*
X016238Y025439D01*
X015726Y024927D01*
X015726Y023592D01*
X015805Y023513D01*
X016143Y023563D02*
X016632Y023563D01*
X016632Y023445D02*
X016143Y023445D01*
X016143Y023326D02*
X016598Y023326D01*
X016651Y023096D02*
X014226Y023096D01*
X013820Y023502D01*
X011057Y023502D01*
X010781Y023226D01*
X010781Y021659D01*
X010419Y021297D01*
X009165Y021297D01*
X009057Y021189D01*
X009381Y020891D02*
X009430Y020939D01*
X009495Y021097D01*
X010502Y021097D01*
X010619Y021214D01*
X010981Y021576D01*
X010981Y023143D01*
X011140Y023302D01*
X013738Y023302D01*
X014143Y022896D01*
X016734Y022896D01*
X016851Y023013D01*
X017032Y023194D01*
X017032Y023537D01*
X017258Y023762D01*
X019994Y023762D01*
X019994Y023324D01*
X020076Y023242D01*
X020132Y023242D01*
X020132Y022392D01*
X019777Y022036D01*
X014753Y022036D01*
X014230Y021513D01*
X014113Y021395D01*
X014113Y020510D01*
X014096Y020493D01*
X014096Y020947D01*
X014014Y021029D01*
X013501Y021029D01*
X013419Y020947D01*
X013419Y020891D01*
X009381Y020891D01*
X009437Y020956D02*
X013429Y020956D01*
X013757Y020691D02*
X008059Y020691D01*
X008057Y020689D01*
X008391Y020206D02*
X007687Y020206D01*
X007376Y020561D01*
X007376Y021474D01*
X007604Y021702D01*
X008043Y021702D01*
X008057Y021689D01*
X007768Y022023D02*
X006517Y022023D01*
X006517Y021998D02*
X006517Y022380D01*
X006462Y022511D01*
X006582Y022461D01*
X006832Y022461D01*
X007062Y022557D01*
X007239Y022733D01*
X007334Y022964D01*
X007334Y023213D01*
X007239Y023444D01*
X007062Y023621D01*
X006832Y023716D01*
X006582Y023716D01*
X006351Y023621D01*
X006175Y023444D01*
X006079Y023213D01*
X006079Y023011D01*
X005748Y023149D01*
X005366Y023149D01*
X005013Y023002D01*
X004743Y022732D01*
X004597Y022380D01*
X004597Y021998D01*
X004743Y021645D01*
X005013Y021375D01*
X005366Y021229D01*
X005748Y021229D01*
X006100Y021375D01*
X006371Y021645D01*
X006517Y021998D01*
X006478Y021904D02*
X007670Y021904D01*
X007404Y021786D02*
X006429Y021786D01*
X006380Y021667D02*
X007286Y021667D01*
X007176Y021549D02*
X006274Y021549D01*
X006156Y021430D02*
X007176Y021430D01*
X007176Y021312D02*
X005948Y021312D01*
X005165Y021312D02*
X004007Y021312D01*
X004000Y021297D02*
X004033Y021362D01*
X004055Y021431D01*
X004067Y021502D01*
X004067Y021519D01*
X003627Y021519D01*
X003627Y021559D01*
X003587Y021559D01*
X003587Y021999D01*
X003570Y021999D01*
X003499Y021987D01*
X003430Y021965D01*
X003366Y021932D01*
X003307Y021889D01*
X003256Y021838D01*
X003213Y021780D01*
X003180Y021715D01*
X003158Y021646D01*
X003147Y021575D01*
X003147Y021559D01*
X003587Y021559D01*
X003587Y021519D01*
X003147Y021519D01*
X003147Y021502D01*
X003158Y021431D01*
X003180Y021362D01*
X003213Y021297D01*
X003256Y021239D01*
X003307Y021188D01*
X003366Y021145D01*
X003430Y021112D01*
X003499Y021090D01*
X003570Y021079D01*
X003587Y021079D01*
X003587Y021519D01*
X003627Y021519D01*
X003627Y021079D01*
X003643Y021079D01*
X003714Y021090D01*
X003783Y021112D01*
X003848Y021145D01*
X003906Y021188D01*
X003958Y021239D01*
X004000Y021297D01*
X003912Y021193D02*
X007176Y021193D01*
X007176Y021075D02*
X000375Y021075D01*
X000374Y021193D02*
X003302Y021193D01*
X003206Y021312D02*
X000374Y021312D01*
X000374Y021430D02*
X003158Y021430D01*
X003165Y021667D02*
X000373Y021667D01*
X000373Y021549D02*
X003587Y021549D01*
X003627Y021549D02*
X004839Y021549D01*
X004734Y021667D02*
X004049Y021667D01*
X004055Y021646D02*
X004033Y021715D01*
X004000Y021780D01*
X003958Y021838D01*
X003906Y021889D01*
X003848Y021932D01*
X003783Y021965D01*
X003714Y021987D01*
X003643Y021999D01*
X003627Y021999D01*
X003627Y021559D01*
X004067Y021559D01*
X004067Y021575D01*
X004055Y021646D01*
X003996Y021786D02*
X004685Y021786D01*
X004635Y021904D02*
X003886Y021904D01*
X003797Y022141D02*
X004597Y022141D01*
X004597Y022023D02*
X000372Y022023D01*
X000371Y022141D02*
X003417Y022141D01*
X003357Y022166D02*
X003519Y022099D01*
X003694Y022099D01*
X003856Y022166D01*
X003980Y022289D01*
X004047Y022451D01*
X004047Y022626D01*
X003980Y022788D01*
X003856Y022912D01*
X003694Y022979D01*
X003519Y022979D01*
X003357Y022912D01*
X003234Y022788D01*
X003167Y022626D01*
X003167Y022451D01*
X003234Y022289D01*
X003357Y022166D01*
X003263Y022260D02*
X000371Y022260D01*
X000371Y022378D02*
X003197Y022378D01*
X003167Y022497D02*
X000370Y022497D01*
X000370Y022615D02*
X003167Y022615D01*
X003211Y022734D02*
X000370Y022734D01*
X000369Y022852D02*
X003298Y022852D01*
X003500Y022971D02*
X000369Y022971D01*
X000369Y023089D02*
X005222Y023089D01*
X004981Y022971D02*
X003714Y022971D01*
X003915Y022852D02*
X004863Y022852D01*
X004744Y022734D02*
X004002Y022734D01*
X004047Y022615D02*
X004694Y022615D01*
X004645Y022497D02*
X004047Y022497D01*
X004016Y022378D02*
X004597Y022378D01*
X004597Y022260D02*
X003950Y022260D01*
X003627Y021904D02*
X003587Y021904D01*
X003587Y021786D02*
X003627Y021786D01*
X003627Y021667D02*
X003587Y021667D01*
X003587Y021430D02*
X003627Y021430D01*
X003627Y021312D02*
X003587Y021312D01*
X003587Y021193D02*
X003627Y021193D01*
X004055Y021430D02*
X004958Y021430D01*
X006517Y022141D02*
X007866Y022141D01*
X007841Y022260D02*
X006517Y022260D01*
X006517Y022378D02*
X007841Y022378D01*
X007841Y022497D02*
X006917Y022497D01*
X007121Y022615D02*
X007841Y022615D01*
X007895Y022734D02*
X007239Y022734D01*
X007288Y022852D02*
X010581Y022852D01*
X010581Y022734D02*
X008462Y022734D01*
X008179Y022423D02*
X009557Y022423D01*
X009840Y022139D01*
X009840Y021836D01*
X009513Y021820D01*
X009836Y021549D02*
X010388Y021549D01*
X010506Y021667D02*
X009957Y021667D01*
X010043Y021786D02*
X010581Y021786D01*
X010581Y021904D02*
X010040Y021904D01*
X010040Y022023D02*
X010581Y022023D01*
X010581Y022141D02*
X010040Y022141D01*
X010003Y022260D02*
X010581Y022260D01*
X010581Y022378D02*
X009884Y022378D01*
X009766Y022497D02*
X010581Y022497D01*
X010581Y022615D02*
X009647Y022615D01*
X010581Y022971D02*
X007334Y022971D01*
X007334Y023089D02*
X010581Y023089D01*
X010581Y023208D02*
X007334Y023208D01*
X007288Y023326D02*
X010598Y023326D01*
X010717Y023445D02*
X007238Y023445D01*
X007120Y023563D02*
X010835Y023563D01*
X010954Y023682D02*
X006915Y023682D01*
X006499Y023682D02*
X000367Y023682D01*
X000366Y023800D02*
X010881Y023800D01*
X010872Y023919D02*
X000366Y023919D01*
X000366Y024037D02*
X010872Y024037D01*
X010872Y024156D02*
X000365Y024156D01*
X000365Y024274D02*
X010872Y024274D01*
X010944Y024393D02*
X000365Y024393D01*
X000364Y024511D02*
X011187Y024511D01*
X011187Y024630D02*
X000364Y024630D01*
X000363Y024748D02*
X011187Y024748D01*
X011222Y024867D02*
X000363Y024867D01*
X000363Y024985D02*
X011340Y024985D01*
X011459Y025104D02*
X000362Y025104D01*
X000362Y025222D02*
X011577Y025222D01*
X011696Y025341D02*
X000362Y025341D01*
X000361Y025459D02*
X011814Y025459D01*
X011933Y025578D02*
X000361Y025578D01*
X000367Y023563D02*
X006294Y023563D01*
X006175Y023445D02*
X000367Y023445D01*
X000368Y023326D02*
X006126Y023326D01*
X006079Y023208D02*
X000368Y023208D01*
X000372Y021904D02*
X003327Y021904D01*
X003218Y021786D02*
X000373Y021786D01*
X000375Y020956D02*
X007176Y020956D01*
X007176Y020838D02*
X000375Y020838D01*
X000376Y020719D02*
X007176Y020719D01*
X007176Y020601D02*
X000376Y020601D01*
X000377Y020482D02*
X007176Y020482D01*
X007282Y020364D02*
X000377Y020364D01*
X000377Y020245D02*
X007386Y020245D01*
X007487Y020127D02*
X000378Y020127D01*
X000378Y020008D02*
X007602Y020008D01*
X007664Y019890D02*
X000378Y019890D01*
X000379Y019771D02*
X007617Y019771D01*
X007617Y019653D02*
X000379Y019653D01*
X000379Y019534D02*
X007644Y019534D01*
X007707Y019416D02*
X000380Y019416D01*
X000380Y019297D02*
X007852Y019297D01*
X007806Y019060D02*
X000381Y019060D01*
X000381Y018942D02*
X007687Y018942D01*
X008307Y019060D02*
X008634Y019060D01*
X008617Y019179D02*
X000380Y019179D01*
X000382Y018586D02*
X003218Y018586D01*
X003165Y018468D02*
X000383Y018468D01*
X000385Y017638D02*
X003284Y017638D01*
X003205Y017520D02*
X000386Y017520D01*
X000386Y017401D02*
X003167Y017401D01*
X003167Y017283D02*
X000386Y017283D01*
X000387Y017164D02*
X003203Y017164D01*
X003277Y017046D02*
X000387Y017046D01*
X000400Y013846D02*
X008794Y013846D01*
X008867Y013728D02*
X000401Y013728D01*
X000402Y013609D02*
X008867Y013609D01*
X008867Y013491D02*
X000403Y013491D01*
X000404Y013372D02*
X008867Y013372D01*
X008867Y013254D02*
X000405Y013254D01*
X000406Y013135D02*
X008765Y013135D01*
X008719Y013017D02*
X000407Y013017D01*
X000408Y012898D02*
X008719Y012898D01*
X008719Y012780D02*
X008392Y012780D01*
X008511Y012661D02*
X008719Y012661D01*
X008752Y012543D02*
X008629Y012543D01*
X008301Y012306D02*
X008111Y012306D01*
X008111Y012187D02*
X008419Y012187D01*
X009361Y012543D02*
X016972Y012543D01*
X017273Y012250D02*
X018517Y012250D01*
X019254Y012986D01*
X023769Y012986D01*
X024718Y013935D01*
X024718Y018714D01*
X024687Y018746D01*
X025025Y018705D02*
X025163Y018705D01*
X025195Y018782D02*
X025106Y018568D01*
X025106Y018337D01*
X025195Y018122D01*
X025359Y017959D01*
X025573Y017870D01*
X025805Y017870D01*
X026019Y017959D01*
X026183Y018122D01*
X026271Y018337D01*
X026271Y018568D01*
X026183Y018782D01*
X026019Y018946D01*
X025805Y019035D01*
X025573Y019035D01*
X025359Y018946D01*
X025195Y018782D01*
X025236Y018823D02*
X025025Y018823D01*
X025025Y018942D02*
X025354Y018942D01*
X024966Y019060D02*
X028248Y019060D01*
X028248Y018942D02*
X026023Y018942D01*
X026142Y018823D02*
X028248Y018823D01*
X028248Y018705D02*
X026215Y018705D01*
X026264Y018586D02*
X028248Y018586D01*
X028248Y018468D02*
X026271Y018468D01*
X026271Y018349D02*
X026418Y018349D01*
X026428Y018356D02*
X026369Y018313D01*
X026318Y018262D01*
X026275Y018204D01*
X026242Y018139D01*
X026220Y018070D01*
X026209Y018002D01*
X026629Y018002D01*
X026629Y017922D01*
X026709Y017922D01*
X026709Y017503D01*
X026776Y017514D01*
X026845Y017536D01*
X026910Y017569D01*
X026968Y017612D01*
X027020Y017663D01*
X027062Y017721D01*
X027095Y017786D01*
X027117Y017855D01*
X027128Y017922D01*
X026709Y017922D01*
X026709Y018002D01*
X027128Y018002D01*
X027117Y018070D01*
X027095Y018139D01*
X027062Y018204D01*
X027020Y018262D01*
X026968Y018313D01*
X026910Y018356D01*
X026845Y018389D01*
X026776Y018411D01*
X026709Y018422D01*
X026709Y018002D01*
X026629Y018002D01*
X026629Y018422D01*
X026561Y018411D01*
X026492Y018389D01*
X026428Y018356D01*
X026295Y018231D02*
X026227Y018231D01*
X026234Y018112D02*
X026172Y018112D01*
X026054Y017994D02*
X026629Y017994D01*
X026629Y017922D02*
X026209Y017922D01*
X026220Y017855D01*
X026242Y017786D01*
X026275Y017721D01*
X026318Y017663D01*
X026369Y017612D01*
X026428Y017569D01*
X026492Y017536D01*
X026561Y017514D01*
X026629Y017503D01*
X026629Y017922D01*
X026629Y017875D02*
X026709Y017875D01*
X026709Y017757D02*
X026629Y017757D01*
X026629Y017638D02*
X026709Y017638D01*
X026709Y017520D02*
X026629Y017520D01*
X026543Y017520D02*
X024918Y017520D01*
X024918Y017638D02*
X026343Y017638D01*
X026257Y017757D02*
X024918Y017757D01*
X024918Y017875D02*
X025561Y017875D01*
X025817Y017875D02*
X026217Y017875D01*
X026629Y018112D02*
X026709Y018112D01*
X026709Y017994D02*
X028249Y017994D01*
X028249Y018112D02*
X027104Y018112D01*
X027043Y018231D02*
X028249Y018231D01*
X028248Y018349D02*
X026919Y018349D01*
X026709Y018349D02*
X026629Y018349D01*
X026629Y018231D02*
X026709Y018231D01*
X027121Y017875D02*
X028249Y017875D01*
X028249Y017757D02*
X027080Y017757D01*
X026995Y017638D02*
X028249Y017638D01*
X028249Y017520D02*
X026794Y017520D01*
X026756Y016622D02*
X026581Y016622D01*
X026419Y016555D01*
X026296Y016432D01*
X026229Y016270D01*
X026229Y016095D01*
X026296Y015933D01*
X026419Y015809D01*
X026581Y015742D01*
X026756Y015742D01*
X026918Y015809D01*
X027042Y015933D01*
X027109Y016095D01*
X027109Y016270D01*
X027042Y016432D01*
X026918Y016555D01*
X026756Y016622D01*
X026879Y016572D02*
X028250Y016572D01*
X028250Y016690D02*
X024918Y016690D01*
X024918Y016572D02*
X026458Y016572D01*
X026317Y016453D02*
X024918Y016453D01*
X024918Y016335D02*
X026255Y016335D01*
X026229Y016216D02*
X025947Y016216D01*
X026019Y016186D02*
X025805Y016275D01*
X025573Y016275D01*
X025359Y016186D01*
X025195Y016022D01*
X025106Y015808D01*
X025106Y015577D01*
X025195Y015362D01*
X025359Y015199D01*
X025573Y015110D01*
X025805Y015110D01*
X026019Y015199D01*
X026183Y015362D01*
X026271Y015577D01*
X026271Y015808D01*
X026183Y016022D01*
X026019Y016186D01*
X026107Y016098D02*
X026229Y016098D01*
X026201Y015979D02*
X026277Y015979D01*
X026250Y015861D02*
X026368Y015861D01*
X026271Y015742D02*
X028251Y015742D01*
X028251Y015624D02*
X026271Y015624D01*
X026242Y015505D02*
X028251Y015505D01*
X028251Y015387D02*
X026193Y015387D01*
X026088Y015268D02*
X028251Y015268D01*
X028251Y015150D02*
X025900Y015150D01*
X025477Y015150D02*
X024918Y015150D01*
X024918Y015268D02*
X025289Y015268D01*
X025185Y015387D02*
X024918Y015387D01*
X024918Y015505D02*
X025136Y015505D01*
X025106Y015624D02*
X024918Y015624D01*
X024918Y015742D02*
X025106Y015742D01*
X025128Y015861D02*
X024918Y015861D01*
X024918Y015979D02*
X025177Y015979D01*
X025270Y016098D02*
X024918Y016098D01*
X024918Y016216D02*
X025431Y016216D01*
X024918Y016809D02*
X028250Y016809D01*
X028250Y016927D02*
X024918Y016927D01*
X024918Y017046D02*
X028250Y017046D01*
X028250Y017164D02*
X024918Y017164D01*
X024918Y017283D02*
X028249Y017283D01*
X028249Y017401D02*
X024918Y017401D01*
X024518Y017401D02*
X018096Y017401D01*
X018096Y017283D02*
X019439Y017283D01*
X019439Y017164D02*
X018096Y017164D01*
X018053Y017046D02*
X019439Y017046D01*
X019439Y016927D02*
X018446Y016927D01*
X018446Y016809D02*
X019439Y016809D01*
X019577Y016690D02*
X018446Y016690D01*
X018446Y016572D02*
X019577Y016572D01*
X019577Y016453D02*
X018446Y016453D01*
X018363Y016335D02*
X019577Y016335D01*
X019577Y016216D02*
X018369Y016216D01*
X018488Y016098D02*
X019577Y016098D01*
X019577Y015979D02*
X018685Y015979D01*
X018726Y015861D02*
X019570Y015861D01*
X019451Y015742D02*
X018726Y015742D01*
X018726Y015624D02*
X019333Y015624D01*
X019214Y015505D02*
X018726Y015505D01*
X018387Y015683D02*
X018387Y015915D01*
X018163Y016139D01*
X018163Y016647D01*
X018108Y016702D01*
X017757Y017344D02*
X017757Y015915D01*
X017659Y015761D01*
X017037Y016088D02*
X017246Y016631D01*
X017250Y017340D01*
X017631Y017734D02*
X017757Y018002D01*
X017631Y017734D02*
X012498Y017734D01*
X011950Y017187D01*
X013296Y017164D02*
X016411Y017164D01*
X017037Y016088D02*
X013340Y016088D01*
X013319Y016572D02*
X013339Y016572D01*
X013270Y015387D02*
X012932Y015387D01*
X012932Y015268D02*
X013270Y015268D01*
X013270Y015150D02*
X012899Y015150D01*
X012780Y015031D02*
X013270Y015031D01*
X013347Y014913D02*
X012662Y014913D01*
X013608Y015246D02*
X019238Y015246D01*
X019777Y015785D01*
X019777Y017045D01*
X019977Y016690D02*
X024518Y016690D01*
X024518Y016572D02*
X019977Y016572D01*
X019977Y016453D02*
X024518Y016453D01*
X024518Y016335D02*
X019977Y016335D01*
X019977Y016216D02*
X024518Y016216D01*
X024518Y016098D02*
X019977Y016098D01*
X019977Y015979D02*
X024518Y015979D01*
X024518Y015861D02*
X019977Y015861D01*
X019977Y015742D02*
X024518Y015742D01*
X024518Y015624D02*
X019899Y015624D01*
X019780Y015505D02*
X024518Y015505D01*
X024518Y015387D02*
X019661Y015387D01*
X019543Y015268D02*
X024518Y015268D01*
X024518Y015150D02*
X019424Y015150D01*
X018653Y015031D02*
X024518Y015031D01*
X024518Y014913D02*
X020251Y014913D01*
X020370Y014794D02*
X024518Y014794D01*
X024518Y014676D02*
X020488Y014676D01*
X020607Y014557D02*
X024518Y014557D01*
X024518Y014439D02*
X020725Y014439D01*
X020844Y014320D02*
X024518Y014320D01*
X024518Y014202D02*
X020918Y014202D01*
X020918Y014083D02*
X024518Y014083D01*
X024465Y013965D02*
X020918Y013965D01*
X020918Y013846D02*
X024347Y013846D01*
X024228Y013728D02*
X020918Y013728D01*
X020718Y013498D02*
X021155Y013376D01*
X021493Y013372D02*
X023873Y013372D01*
X023991Y013491D02*
X021493Y013491D01*
X021493Y013609D02*
X024110Y013609D01*
X024438Y013372D02*
X028253Y013372D01*
X028253Y013254D02*
X024320Y013254D01*
X024201Y013135D02*
X028253Y013135D01*
X028253Y013017D02*
X024083Y013017D01*
X023964Y012898D02*
X028253Y012898D01*
X028254Y012780D02*
X019330Y012780D01*
X019212Y012661D02*
X028254Y012661D01*
X028254Y012543D02*
X019093Y012543D01*
X018975Y012424D02*
X020899Y012424D01*
X021309Y012424D02*
X028254Y012424D01*
X028254Y012306D02*
X021406Y012306D01*
X021442Y012187D02*
X028254Y012187D01*
X028254Y012069D02*
X021436Y012069D01*
X021381Y011950D02*
X028254Y011950D01*
X028254Y011832D02*
X021216Y011832D01*
X020992Y011832D02*
X020045Y011832D01*
X020164Y011950D02*
X020827Y011950D01*
X019982Y012306D02*
X018856Y012306D01*
X018738Y012187D02*
X019863Y012187D01*
X019745Y012069D02*
X018619Y012069D01*
X018527Y012543D02*
X017575Y012543D01*
X017651Y011950D02*
X019626Y011950D01*
X019927Y011713D02*
X028255Y011713D01*
X028255Y011595D02*
X019808Y011595D01*
X018646Y012661D02*
X009395Y012661D01*
X009395Y012780D02*
X018764Y012780D01*
X018883Y012898D02*
X009395Y012898D01*
X009395Y013017D02*
X019001Y013017D01*
X019120Y013135D02*
X009348Y013135D01*
X009247Y013254D02*
X020817Y013254D01*
X020718Y013498D02*
X020718Y014163D01*
X020151Y014730D01*
X018360Y014730D01*
X018663Y014439D02*
X020160Y014439D01*
X020278Y014320D02*
X011233Y014320D01*
X011273Y014439D02*
X018057Y014439D01*
X018022Y014557D02*
X011273Y014557D01*
X011273Y014676D02*
X018022Y014676D01*
X018022Y014794D02*
X011273Y014794D01*
X010636Y014320D02*
X008857Y014320D01*
X008942Y014439D02*
X008739Y014439D01*
X008823Y014557D02*
X008620Y014557D01*
X008705Y014676D02*
X004457Y014676D01*
X004481Y014794D02*
X008586Y014794D01*
X008438Y014202D02*
X004462Y014202D01*
X006964Y016216D02*
X008207Y016216D01*
X008225Y016335D02*
X007140Y016335D01*
X007247Y016453D02*
X008343Y016453D01*
X008462Y016572D02*
X007296Y016572D01*
X008441Y018468D02*
X008691Y018468D01*
X008824Y018586D02*
X008490Y018586D01*
X008497Y018705D02*
X013612Y018705D01*
X013939Y018368D02*
X014368Y018368D01*
X014702Y018702D01*
X021533Y018702D01*
X021700Y018586D02*
X024349Y018586D01*
X024349Y018705D02*
X021818Y018705D01*
X021937Y018823D02*
X024349Y018823D01*
X024349Y018942D02*
X022055Y018942D01*
X022174Y019060D02*
X024407Y019060D01*
X025025Y018586D02*
X025114Y018586D01*
X025106Y018468D02*
X025003Y018468D01*
X024918Y018349D02*
X025106Y018349D01*
X025150Y018231D02*
X024918Y018231D01*
X024918Y018112D02*
X025205Y018112D01*
X025324Y017994D02*
X024918Y017994D01*
X024518Y017994D02*
X018096Y017994D01*
X018096Y018112D02*
X024518Y018112D01*
X024518Y018231D02*
X018096Y018231D01*
X018096Y017875D02*
X024518Y017875D01*
X024518Y017757D02*
X018096Y017757D01*
X018058Y017638D02*
X024518Y017638D01*
X024518Y017520D02*
X018096Y017520D01*
X017419Y018231D02*
X014513Y018231D01*
X014632Y018349D02*
X024518Y018349D01*
X024371Y018468D02*
X014750Y018468D01*
X014422Y018705D02*
X014289Y018705D01*
X014289Y018823D02*
X014540Y018823D01*
X014303Y018586D02*
X014277Y018586D01*
X014289Y019060D02*
X021608Y019060D01*
X021726Y019179D02*
X014289Y019179D01*
X013612Y019179D02*
X009497Y019179D01*
X009488Y019297D02*
X021845Y019297D01*
X021963Y019416D02*
X009439Y019416D01*
X009608Y019534D02*
X022082Y019534D01*
X022200Y019653D02*
X009727Y019653D01*
X009845Y019771D02*
X022319Y019771D01*
X022437Y019890D02*
X014058Y019890D01*
X014177Y020008D02*
X022556Y020008D01*
X022674Y020127D02*
X014295Y020127D01*
X014414Y020245D02*
X022793Y020245D01*
X022845Y020364D02*
X014513Y020364D01*
X014513Y020482D02*
X022845Y020482D01*
X022845Y020601D02*
X014513Y020601D01*
X014513Y020719D02*
X022845Y020719D01*
X022845Y020838D02*
X014513Y020838D01*
X014513Y020956D02*
X022845Y020956D01*
X022845Y021075D02*
X014513Y021075D01*
X014513Y021193D02*
X022845Y021193D01*
X022845Y021312D02*
X014594Y021312D01*
X014713Y021430D02*
X022845Y021430D01*
X022845Y021549D02*
X014831Y021549D01*
X014836Y021836D02*
X014313Y021313D01*
X014313Y020427D01*
X013970Y020084D01*
X009876Y020084D01*
X009502Y019710D01*
X008702Y019710D01*
X008572Y019840D01*
X008572Y020069D01*
X008391Y020206D01*
X008469Y019534D02*
X008596Y019534D01*
X008674Y019416D02*
X008406Y019416D01*
X008261Y019297D02*
X008625Y019297D01*
X008683Y018942D02*
X008426Y018942D01*
X008477Y018823D02*
X008800Y018823D01*
X009486Y021075D02*
X014113Y021075D01*
X014113Y021193D02*
X010598Y021193D01*
X010716Y021312D02*
X014113Y021312D01*
X014147Y021430D02*
X010835Y021430D01*
X010953Y021549D02*
X014266Y021549D01*
X014384Y021667D02*
X010981Y021667D01*
X010981Y021786D02*
X014503Y021786D01*
X014621Y021904D02*
X010981Y021904D01*
X010981Y022023D02*
X014740Y022023D01*
X014836Y021836D02*
X019860Y021836D01*
X020332Y022309D01*
X020332Y023580D01*
X019994Y023563D02*
X017058Y023563D01*
X017032Y023445D02*
X019994Y023445D01*
X019994Y023326D02*
X017032Y023326D01*
X017032Y023208D02*
X020132Y023208D01*
X020132Y023089D02*
X016927Y023089D01*
X016809Y022971D02*
X020132Y022971D01*
X020132Y022852D02*
X010981Y022852D01*
X010981Y022734D02*
X020132Y022734D01*
X020132Y022615D02*
X010981Y022615D01*
X010981Y022497D02*
X020132Y022497D01*
X020119Y022378D02*
X010981Y022378D01*
X010981Y022260D02*
X020000Y022260D01*
X019882Y022141D02*
X010981Y022141D01*
X010981Y022971D02*
X014069Y022971D01*
X013950Y023089D02*
X010981Y023089D01*
X011046Y023208D02*
X013832Y023208D01*
X014279Y023326D02*
X015467Y023326D01*
X015467Y023445D02*
X014602Y023445D01*
X014670Y023563D02*
X015467Y023563D01*
X015467Y023682D02*
X014670Y023682D01*
X014670Y023800D02*
X015497Y023800D01*
X015526Y023919D02*
X014670Y023919D01*
X014659Y024037D02*
X015526Y024037D01*
X015526Y024156D02*
X014532Y024156D01*
X014532Y024274D02*
X015526Y024274D01*
X015526Y024393D02*
X014532Y024393D01*
X014532Y024511D02*
X015526Y024511D01*
X015526Y024630D02*
X014532Y024630D01*
X014532Y024748D02*
X015526Y024748D01*
X015526Y024867D02*
X014532Y024867D01*
X014498Y024985D02*
X015526Y024985D01*
X015620Y025104D02*
X014379Y025104D01*
X014261Y025222D02*
X015738Y025222D01*
X015857Y025341D02*
X014142Y025341D01*
X014024Y025459D02*
X015975Y025459D01*
X016094Y025578D02*
X013905Y025578D01*
X013820Y025380D02*
X012017Y025380D01*
X011387Y024750D01*
X011387Y024242D01*
X011210Y024065D01*
X011548Y024037D02*
X014006Y024037D01*
X013994Y023919D02*
X011548Y023919D01*
X011540Y023800D02*
X013994Y023800D01*
X013994Y023682D02*
X013923Y023682D01*
X014332Y023769D02*
X014332Y024868D01*
X013820Y025380D01*
X013814Y025104D02*
X012024Y025104D01*
X011906Y024985D02*
X013932Y024985D01*
X014051Y024867D02*
X011787Y024867D01*
X011669Y024748D02*
X014132Y024748D01*
X014132Y024630D02*
X011587Y024630D01*
X011587Y024511D02*
X014132Y024511D01*
X014132Y024393D02*
X011587Y024393D01*
X011587Y024274D02*
X014132Y024274D01*
X014132Y024156D02*
X011584Y024156D01*
X014086Y020956D02*
X014113Y020956D01*
X014113Y020838D02*
X014096Y020838D01*
X014096Y020719D02*
X014113Y020719D01*
X014113Y020601D02*
X014096Y020601D01*
X016651Y023096D02*
X016832Y023277D01*
X016832Y023620D01*
X017175Y023962D01*
X020667Y023962D01*
X020809Y023683D01*
X020848Y023588D01*
X021186Y023563D02*
X022845Y023563D01*
X022845Y023445D02*
X021186Y023445D01*
X021180Y023326D02*
X022845Y023326D01*
X022845Y023208D02*
X020532Y023208D01*
X020532Y023089D02*
X022845Y023089D01*
X022845Y022971D02*
X020532Y022971D01*
X020532Y022852D02*
X022845Y022852D01*
X022845Y022734D02*
X020532Y022734D01*
X020532Y022615D02*
X022845Y022615D01*
X022845Y022497D02*
X020532Y022497D01*
X020532Y022378D02*
X022845Y022378D01*
X022845Y022260D02*
X020532Y022260D01*
X020448Y022141D02*
X022845Y022141D01*
X022845Y022023D02*
X020329Y022023D01*
X020211Y021904D02*
X022845Y021904D01*
X022845Y021786D02*
X020092Y021786D01*
X020060Y021753D02*
X020060Y021753D01*
X019974Y021667D02*
X022845Y021667D01*
X023245Y021667D02*
X028245Y021667D01*
X028246Y021549D02*
X023245Y021549D01*
X023245Y021430D02*
X028246Y021430D01*
X028246Y021312D02*
X023245Y021312D01*
X023245Y021193D02*
X028246Y021193D01*
X028246Y021075D02*
X023245Y021075D01*
X023245Y020956D02*
X028246Y020956D01*
X028246Y020838D02*
X023245Y020838D01*
X023245Y020719D02*
X028246Y020719D01*
X028246Y020601D02*
X023245Y020601D01*
X023245Y020482D02*
X028247Y020482D01*
X028247Y020364D02*
X023245Y020364D01*
X023245Y020245D02*
X028247Y020245D01*
X028247Y020127D02*
X023240Y020127D01*
X023122Y020008D02*
X028247Y020008D01*
X028247Y019890D02*
X023003Y019890D01*
X022885Y019771D02*
X028247Y019771D01*
X028247Y019653D02*
X022766Y019653D01*
X022648Y019534D02*
X028247Y019534D01*
X028248Y019416D02*
X022529Y019416D01*
X022411Y019297D02*
X028248Y019297D01*
X028248Y019179D02*
X022292Y019179D01*
X020115Y017283D02*
X024518Y017283D01*
X024518Y017164D02*
X020115Y017164D01*
X020115Y017046D02*
X024518Y017046D01*
X024518Y016927D02*
X020115Y016927D01*
X020115Y016809D02*
X024518Y016809D01*
X024918Y015031D02*
X028252Y015031D01*
X028252Y014913D02*
X024918Y014913D01*
X024918Y014794D02*
X028252Y014794D01*
X028252Y014676D02*
X024918Y014676D01*
X024918Y014557D02*
X028252Y014557D01*
X028252Y014439D02*
X024918Y014439D01*
X024918Y014320D02*
X028252Y014320D01*
X028252Y014202D02*
X024918Y014202D01*
X024918Y014083D02*
X028252Y014083D01*
X028252Y013965D02*
X024918Y013965D01*
X024912Y013846D02*
X028253Y013846D01*
X028253Y013728D02*
X024794Y013728D01*
X024675Y013609D02*
X028253Y013609D01*
X028253Y013491D02*
X024557Y013491D01*
X023754Y013254D02*
X021493Y013254D01*
X020559Y013372D02*
X009247Y013372D01*
X009247Y013491D02*
X020508Y013491D01*
X020518Y013609D02*
X009247Y013609D01*
X009247Y013728D02*
X020518Y013728D01*
X020518Y013846D02*
X009247Y013846D01*
X009213Y013965D02*
X020518Y013965D01*
X020515Y014083D02*
X009094Y014083D01*
X008976Y014202D02*
X020397Y014202D01*
X018067Y015031D02*
X013946Y015031D01*
X013869Y014913D02*
X018022Y014913D01*
X017673Y011476D02*
X025197Y011476D01*
X024969Y011358D02*
X017674Y011358D01*
X017674Y011239D02*
X024850Y011239D01*
X024745Y011121D02*
X017674Y011121D01*
X017674Y011002D02*
X024696Y011002D01*
X024647Y010884D02*
X017596Y010884D01*
X017336Y011218D02*
X015549Y011218D01*
X015254Y011238D01*
X014915Y011239D02*
X012332Y011239D01*
X012332Y011121D02*
X013530Y011121D01*
X013486Y011002D02*
X012332Y011002D01*
X012308Y010884D02*
X013486Y010884D01*
X013486Y010765D02*
X011835Y010765D01*
X011835Y010647D02*
X013486Y010647D01*
X013523Y010528D02*
X012336Y010528D01*
X011998Y010273D02*
X015746Y010273D01*
X015805Y010214D01*
X015489Y009936D02*
X012254Y009936D01*
X012336Y010054D02*
X015467Y010054D01*
X015486Y010528D02*
X014126Y010528D01*
X013824Y010820D02*
X015765Y010820D01*
X015824Y010761D01*
X016163Y010765D02*
X024616Y010765D01*
X024616Y010647D02*
X016163Y010647D01*
X016163Y010884D02*
X017077Y010884D01*
X016998Y011002D02*
X016163Y011002D01*
X015592Y011476D02*
X016996Y011476D01*
X014915Y011476D02*
X012275Y011476D01*
X012332Y011358D02*
X014915Y011358D01*
X014915Y011121D02*
X014119Y011121D01*
X013057Y009817D02*
X011835Y009817D01*
X011835Y009699D02*
X013030Y009699D01*
X013030Y009580D02*
X011835Y009580D01*
X011835Y009462D02*
X013030Y009462D01*
X013030Y009343D02*
X011835Y009343D01*
X011835Y009225D02*
X013082Y009225D01*
X013572Y009106D02*
X011835Y009106D01*
X011835Y008988D02*
X013717Y008988D01*
X013861Y008869D02*
X011835Y008869D01*
X011872Y008751D02*
X014005Y008751D01*
X014149Y008632D02*
X012092Y008632D01*
X012311Y008514D02*
X014293Y008514D01*
X014491Y008869D02*
X018349Y008869D01*
X018349Y008395D02*
X016989Y008395D01*
X016651Y008143D02*
X012517Y008175D01*
X011635Y008651D01*
X011635Y011159D01*
X011994Y011163D01*
X011435Y010054D02*
X007209Y010054D01*
X007273Y009936D02*
X011435Y009936D01*
X011435Y009817D02*
X011341Y009817D01*
X011095Y009462D02*
X007257Y009462D01*
X005402Y007566D02*
X015136Y007566D01*
X014679Y007329D02*
X014298Y007329D01*
X014384Y007210D02*
X014584Y007210D01*
X014535Y007092D02*
X014426Y007092D01*
X015812Y007921D02*
X016313Y007921D01*
X016313Y008395D02*
X012530Y008395D01*
X013770Y009462D02*
X021772Y009462D01*
X021786Y009472D02*
X021732Y009433D01*
X021685Y009385D01*
X021645Y009331D01*
X021615Y009271D01*
X021594Y009208D01*
X021584Y009141D01*
X021584Y009136D01*
X021981Y009136D01*
X021981Y009534D01*
X021976Y009534D01*
X021910Y009523D01*
X021846Y009502D01*
X021786Y009472D01*
X021654Y009343D02*
X021414Y009343D01*
X021493Y009225D02*
X021600Y009225D01*
X021517Y009106D02*
X021981Y009106D01*
X021981Y009225D02*
X022038Y009225D01*
X022038Y009343D02*
X021981Y009343D01*
X021981Y009462D02*
X022038Y009462D01*
X022038Y009817D02*
X021981Y009817D01*
X021981Y009936D02*
X022038Y009936D01*
X022038Y010054D02*
X021981Y010054D01*
X021981Y010173D02*
X022038Y010173D01*
X022038Y010291D02*
X021981Y010291D01*
X021981Y010410D02*
X022038Y010410D01*
X020944Y009343D02*
X013914Y009343D01*
X014058Y009225D02*
X020864Y009225D01*
X020841Y009106D02*
X014202Y009106D01*
X014347Y008988D02*
X020859Y008988D01*
X021439Y008869D02*
X021657Y008869D01*
X021601Y008988D02*
X021498Y008988D01*
X021439Y008751D02*
X021777Y008751D01*
X021711Y008395D02*
X021439Y008395D01*
X021439Y008277D02*
X021640Y008277D01*
X021612Y008158D02*
X021439Y008158D01*
X021439Y008040D02*
X021615Y008040D01*
X021664Y007921D02*
X021439Y007921D01*
X021439Y007803D02*
X021769Y007803D01*
X021439Y007684D02*
X022616Y007684D01*
X022616Y007566D02*
X021439Y007566D01*
X021439Y007447D02*
X021763Y007447D01*
X022287Y007447D02*
X022657Y007447D01*
X022746Y007329D02*
X022384Y007329D01*
X022458Y007210D02*
X028259Y007210D01*
X028259Y007092D02*
X022479Y007092D01*
X022451Y006973D02*
X022793Y006973D01*
X022678Y006855D02*
X022358Y006855D01*
X022121Y006736D02*
X022629Y006736D01*
X023172Y006025D02*
X024616Y006025D01*
X024637Y005907D02*
X023447Y005907D01*
X023722Y005788D02*
X024686Y005788D01*
X024735Y005670D02*
X023997Y005670D01*
X024193Y005551D02*
X024827Y005551D01*
X024946Y005433D02*
X024247Y005433D01*
X024289Y005314D02*
X025141Y005314D01*
X024374Y005077D02*
X028261Y005077D01*
X028261Y004959D02*
X024416Y004959D01*
X024458Y004840D02*
X028261Y004840D01*
X028261Y004722D02*
X024500Y004722D01*
X024599Y004603D02*
X025215Y004603D01*
X025158Y004579D02*
X025034Y004456D01*
X024967Y004294D01*
X024967Y004119D01*
X025034Y003957D01*
X025158Y003833D01*
X025320Y003766D01*
X025495Y003766D01*
X025656Y003833D01*
X025780Y003957D01*
X025847Y004119D01*
X025847Y004294D01*
X025780Y004456D01*
X025656Y004579D01*
X025495Y004646D01*
X025320Y004646D01*
X025158Y004579D01*
X025063Y004485D02*
X024751Y004485D01*
X024817Y004366D02*
X024997Y004366D01*
X024967Y004248D02*
X024847Y004248D01*
X024847Y004129D02*
X024967Y004129D01*
X025012Y004011D02*
X024802Y004011D01*
X024715Y003892D02*
X025099Y003892D01*
X025302Y003774D02*
X024512Y003774D01*
X024302Y003774D02*
X015792Y003774D01*
X015792Y003892D02*
X024099Y003892D01*
X024012Y004011D02*
X015792Y004011D01*
X015792Y004129D02*
X023967Y004129D01*
X023967Y004248D02*
X015783Y004248D01*
X015339Y004366D02*
X023997Y004366D01*
X024032Y004485D02*
X013354Y004485D01*
X013236Y004603D02*
X023990Y004603D01*
X023948Y004722D02*
X013142Y004722D01*
X013170Y004840D02*
X023906Y004840D01*
X023864Y004959D02*
X013170Y004959D01*
X013170Y005077D02*
X023822Y005077D01*
X023780Y005196D02*
X013170Y005196D01*
X012943Y003418D02*
X012830Y003418D01*
X012652Y003300D02*
X014635Y003300D01*
X014755Y003181D02*
X012652Y003181D01*
X012652Y003063D02*
X014876Y003063D01*
X014997Y002944D02*
X012652Y002944D01*
X012652Y002826D02*
X015118Y002826D01*
X015238Y002707D02*
X012652Y002707D01*
X012652Y002589D02*
X015359Y002589D01*
X015480Y002470D02*
X012652Y002470D01*
X012652Y002352D02*
X015600Y002352D01*
X015721Y002233D02*
X012652Y002233D01*
X012652Y002115D02*
X021869Y002115D01*
X021869Y002707D02*
X015981Y002707D01*
X015860Y002826D02*
X028263Y002826D01*
X028263Y002944D02*
X015739Y002944D01*
X015618Y003063D02*
X028262Y003063D01*
X028262Y003181D02*
X015498Y003181D01*
X015377Y003300D02*
X028262Y003300D01*
X028262Y003418D02*
X015256Y003418D01*
X015136Y003537D02*
X028262Y003537D01*
X028262Y003655D02*
X015722Y003655D01*
X015187Y003655D02*
X015015Y003655D01*
X015116Y003774D02*
X014894Y003774D01*
X014769Y003892D02*
X015116Y003892D01*
X012652Y001996D02*
X028263Y001996D01*
X028264Y001878D02*
X012652Y001878D01*
X012652Y001759D02*
X028264Y001759D01*
X028264Y001641D02*
X012652Y001641D01*
X012652Y001522D02*
X028264Y001522D01*
X028264Y001404D02*
X012652Y001404D01*
X012652Y001285D02*
X028264Y001285D01*
X028264Y001167D02*
X012652Y001167D01*
X012652Y001048D02*
X028264Y001048D01*
X028264Y000930D02*
X012653Y000930D01*
X012612Y000811D02*
X028265Y000811D01*
X028265Y000693D02*
X012520Y000693D01*
X012429Y000574D02*
X028265Y000574D01*
X028265Y000456D02*
X012338Y000456D01*
X011855Y000811D02*
X001265Y000811D01*
X013682Y018030D02*
X014195Y018030D01*
X014277Y018112D01*
X013682Y018030D02*
X013600Y018112D01*
X016143Y023682D02*
X016632Y023682D01*
X016730Y023800D02*
X016112Y023800D01*
X015926Y023919D02*
X016848Y023919D01*
X016967Y024037D02*
X015926Y024037D01*
X015926Y024156D02*
X017085Y024156D01*
X017177Y023682D02*
X019994Y023682D01*
X020756Y024156D02*
X022845Y024156D01*
X022845Y024274D02*
X015926Y024274D01*
X015926Y024393D02*
X022845Y024393D01*
X022845Y024511D02*
X015926Y024511D01*
X015926Y024630D02*
X022845Y024630D01*
X022728Y024748D02*
X015926Y024748D01*
X015949Y024867D02*
X022610Y024867D01*
X022491Y024985D02*
X016067Y024985D01*
X016186Y025104D02*
X022373Y025104D01*
X022254Y025222D02*
X016304Y025222D01*
X020867Y024037D02*
X022845Y024037D01*
X022845Y023919D02*
X021112Y023919D01*
X021186Y023800D02*
X022845Y023800D01*
X022845Y023682D02*
X021186Y023682D01*
X022820Y025222D02*
X028242Y025222D01*
X028242Y025104D02*
X022938Y025104D01*
X023057Y024985D02*
X028242Y024985D01*
X028243Y024867D02*
X023175Y024867D01*
X023245Y024748D02*
X028243Y024748D01*
X028243Y024630D02*
X023245Y024630D01*
X023245Y024511D02*
X028243Y024511D01*
X028243Y024393D02*
X023245Y024393D01*
X023245Y024274D02*
X028243Y024274D01*
X028243Y024156D02*
X023245Y024156D01*
X023245Y024037D02*
X028243Y024037D01*
X028243Y023919D02*
X023245Y023919D01*
X023245Y023800D02*
X028243Y023800D01*
X028244Y023682D02*
X023245Y023682D01*
X023245Y023563D02*
X028244Y023563D01*
X028244Y023445D02*
X023245Y023445D01*
X023245Y023326D02*
X028244Y023326D01*
X028244Y023208D02*
X023245Y023208D01*
X023245Y023089D02*
X028244Y023089D01*
X028244Y022971D02*
X023245Y022971D01*
X023245Y022852D02*
X028244Y022852D01*
X028244Y022734D02*
X023245Y022734D01*
X023245Y022615D02*
X028245Y022615D01*
X028245Y022497D02*
X023245Y022497D01*
X023245Y022378D02*
X028245Y022378D01*
X028245Y022260D02*
X023245Y022260D01*
X023245Y022141D02*
X028245Y022141D01*
X028245Y022023D02*
X023245Y022023D01*
X023245Y021904D02*
X028245Y021904D01*
X028245Y021786D02*
X023245Y021786D01*
X022701Y025341D02*
X028242Y025341D01*
X028242Y025459D02*
X022583Y025459D01*
X022464Y025578D02*
X028242Y025578D01*
X028250Y016453D02*
X027020Y016453D01*
X027082Y016335D02*
X028250Y016335D01*
X028250Y016216D02*
X027109Y016216D01*
X027109Y016098D02*
X028251Y016098D01*
X028251Y015979D02*
X027061Y015979D01*
X026969Y015861D02*
X028251Y015861D01*
X028255Y011476D02*
X025854Y011476D01*
X026082Y011358D02*
X028255Y011358D01*
X028255Y011239D02*
X026200Y011239D01*
X026306Y011121D02*
X028255Y011121D01*
X028255Y011002D02*
X026355Y011002D01*
X026404Y010884D02*
X028255Y010884D01*
X028255Y010765D02*
X026435Y010765D01*
X026435Y010647D02*
X028256Y010647D01*
X028256Y010528D02*
X026435Y010528D01*
X026419Y010410D02*
X028256Y010410D01*
X028256Y010291D02*
X026370Y010291D01*
X026321Y010173D02*
X028256Y010173D01*
X028256Y010054D02*
X026238Y010054D01*
X026120Y009936D02*
X028256Y009936D01*
X028258Y008158D02*
X022423Y008158D01*
X022420Y008040D02*
X028258Y008040D01*
X028259Y006973D02*
X025890Y006973D01*
X026096Y006855D02*
X028259Y006855D01*
X028259Y006736D02*
X026215Y006736D01*
X026312Y006618D02*
X028259Y006618D01*
X028259Y006499D02*
X026361Y006499D01*
X026410Y006381D02*
X028259Y006381D01*
X028260Y006262D02*
X026435Y006262D01*
X026435Y006144D02*
X028260Y006144D01*
X028260Y006025D02*
X026435Y006025D01*
X026413Y005907D02*
X028260Y005907D01*
X028260Y005788D02*
X026364Y005788D01*
X026315Y005670D02*
X028260Y005670D01*
X028260Y005551D02*
X026223Y005551D01*
X026105Y005433D02*
X028260Y005433D01*
X028260Y005314D02*
X025910Y005314D01*
X026215Y004603D02*
X025599Y004603D01*
X025751Y004485D02*
X026063Y004485D01*
X026034Y004456D02*
X025967Y004294D01*
X025967Y004119D01*
X026034Y003957D01*
X026158Y003833D01*
X026320Y003766D01*
X026495Y003766D01*
X026656Y003833D01*
X026780Y003957D01*
X026847Y004119D01*
X026847Y004294D01*
X026780Y004456D01*
X026656Y004579D01*
X026495Y004646D01*
X026320Y004646D01*
X026158Y004579D01*
X026034Y004456D01*
X025997Y004366D02*
X025817Y004366D01*
X025847Y004248D02*
X025967Y004248D01*
X025967Y004129D02*
X025847Y004129D01*
X025802Y004011D02*
X026012Y004011D01*
X026099Y003892D02*
X025715Y003892D01*
X025512Y003774D02*
X026302Y003774D01*
X026512Y003774D02*
X027250Y003774D01*
X027231Y003780D02*
X027299Y003758D01*
X027367Y003747D01*
X027367Y004166D01*
X027447Y004166D01*
X027447Y003747D01*
X027515Y003758D01*
X027584Y003780D01*
X027648Y003813D01*
X027707Y003855D01*
X027758Y003907D01*
X027801Y003965D01*
X027833Y004030D01*
X027856Y004099D01*
X027866Y004166D01*
X027447Y004166D01*
X027407Y004202D01*
X027407Y004206D01*
X027367Y004246D02*
X027367Y004166D01*
X026948Y004166D01*
X026958Y004099D01*
X026981Y004030D01*
X027014Y003965D01*
X027056Y003907D01*
X027107Y003855D01*
X027166Y003813D01*
X027231Y003780D01*
X027367Y003774D02*
X027447Y003774D01*
X027564Y003774D02*
X028262Y003774D01*
X028262Y003892D02*
X027743Y003892D01*
X027824Y004011D02*
X028262Y004011D01*
X028262Y004129D02*
X027861Y004129D01*
X027866Y004246D02*
X027856Y004314D01*
X027833Y004383D01*
X027801Y004447D01*
X027758Y004506D01*
X027707Y004557D01*
X027648Y004600D01*
X027584Y004633D01*
X027515Y004655D01*
X027447Y004666D01*
X027447Y004246D01*
X027866Y004246D01*
X027866Y004248D02*
X028261Y004248D01*
X028261Y004366D02*
X027839Y004366D01*
X027774Y004485D02*
X028261Y004485D01*
X028261Y004603D02*
X027642Y004603D01*
X027447Y004603D02*
X027367Y004603D01*
X027367Y004666D02*
X027299Y004655D01*
X027231Y004633D01*
X027166Y004600D01*
X027107Y004557D01*
X027056Y004506D01*
X027014Y004447D01*
X026981Y004383D01*
X026958Y004314D01*
X026948Y004246D01*
X027367Y004246D01*
X027367Y004666D01*
X027367Y004485D02*
X027447Y004485D01*
X027447Y004366D02*
X027367Y004366D01*
X027367Y004248D02*
X027447Y004248D01*
X027447Y004246D02*
X027367Y004246D01*
X027447Y004246D02*
X027447Y004166D01*
X027447Y004129D02*
X027367Y004129D01*
X027367Y004011D02*
X027447Y004011D01*
X027447Y003892D02*
X027367Y003892D01*
X027071Y003892D02*
X026715Y003892D01*
X026802Y004011D02*
X026991Y004011D01*
X026954Y004129D02*
X026847Y004129D01*
X026847Y004248D02*
X026948Y004248D01*
X026975Y004366D02*
X026817Y004366D01*
X026751Y004485D02*
X027041Y004485D01*
X027172Y004603D02*
X026599Y004603D01*
X028261Y005196D02*
X024331Y005196D01*
X022465Y002707D02*
X028263Y002707D01*
X028263Y002589D02*
X022505Y002589D01*
X022505Y002470D02*
X028263Y002470D01*
X028263Y002352D02*
X022505Y002352D01*
X022505Y002233D02*
X028263Y002233D01*
X028263Y002115D02*
X022465Y002115D01*
X022266Y007803D02*
X022655Y007803D01*
X022741Y007921D02*
X022371Y007921D01*
X022395Y008277D02*
X022812Y008277D01*
X022684Y008395D02*
X022324Y008395D01*
X022146Y008514D02*
X022633Y008514D01*
X006496Y022497D02*
X006468Y022497D01*
X006079Y023089D02*
X005891Y023089D01*
D22*
X009187Y016128D02*
X013301Y016128D01*
X013340Y016088D01*
X012919Y015694D02*
X017592Y015694D01*
X017659Y015761D01*
X020092Y012147D02*
X021100Y012147D01*
X021104Y012151D01*
X020092Y012147D02*
X019698Y011754D01*
X017313Y011754D01*
X012919Y015694D02*
X012742Y015517D01*
X012742Y015261D01*
X012529Y015049D01*
X009305Y015002D01*
X009033Y014616D02*
X008600Y015049D01*
X004202Y015049D01*
X004143Y014990D01*
X004281Y014446D02*
X004124Y014415D01*
X004281Y014446D02*
X008462Y014446D01*
X009057Y013852D01*
X009057Y012832D01*
X009033Y014616D02*
X010935Y014616D01*
X011950Y015580D02*
X011915Y015616D01*
X009639Y015616D01*
X009187Y016128D02*
X008954Y015895D01*
X008954Y015742D01*
X006935Y009734D02*
X011155Y009734D01*
X011285Y009604D01*
X011285Y008376D01*
X011891Y007769D01*
X015474Y007769D01*
X016261Y005789D02*
X015931Y005458D01*
X008817Y005458D01*
X012832Y005006D02*
X012832Y004738D01*
X013391Y004179D01*
X015257Y004179D01*
X015454Y003982D01*
M02*
