G75*
%MOIN*%
%OFA0B0*%
%FSLAX24Y24*%
%IPPOS*%
%LPD*%
%AMOC8*
5,1,8,0,0,1.08239X$1,22.5*
%
%ADD10C,0.0060*%
%ADD11C,0.0030*%
%ADD12C,0.0000*%
%ADD13C,0.0320*%
%ADD14C,0.0040*%
%ADD15C,0.0010*%
%ADD16C,0.0020*%
%ADD17C,0.0080*%
%ADD18R,0.0660X0.0380*%
%ADD19C,0.0100*%
%ADD20C,0.0050*%
%ADD21R,0.0059X0.0118*%
%ADD22R,0.0118X0.0118*%
%ADD23R,0.0080X0.0010*%
%ADD24R,0.0100X0.0010*%
%ADD25R,0.0140X0.0010*%
%ADD26R,0.0170X0.0010*%
%ADD27R,0.0150X0.0010*%
%ADD28R,0.0200X0.0010*%
%ADD29R,0.0220X0.0010*%
%ADD30R,0.0250X0.0010*%
%ADD31R,0.0300X0.0010*%
%ADD32R,0.0280X0.0010*%
%ADD33R,0.0330X0.0010*%
%ADD34R,0.0340X0.0010*%
%ADD35R,0.0180X0.0010*%
%ADD36R,0.0320X0.0010*%
%ADD37R,0.0360X0.0010*%
%ADD38R,0.0380X0.0010*%
%ADD39R,0.0390X0.0010*%
%ADD40R,0.0400X0.0010*%
%ADD41R,0.0410X0.0010*%
%ADD42R,0.0160X0.0010*%
%ADD43R,0.0130X0.0010*%
%ADD44R,0.0050X0.0010*%
%ADD45R,0.0350X0.0010*%
%ADD46R,0.0470X0.0010*%
%ADD47R,0.0370X0.0010*%
%ADD48R,0.0270X0.0010*%
%ADD49R,0.0460X0.0010*%
%ADD50R,0.0310X0.0010*%
%ADD51R,0.0430X0.0010*%
%ADD52R,0.0290X0.0010*%
%ADD53R,0.0260X0.0010*%
%ADD54R,0.0230X0.0010*%
%ADD55R,0.0240X0.0010*%
%ADD56R,0.0210X0.0010*%
%ADD57R,0.0040X0.0010*%
%ADD58R,0.0440X0.0010*%
%ADD59R,0.0420X0.0010*%
%ADD60R,0.0010X0.0010*%
%ADD61R,0.0030X0.0010*%
%ADD62R,0.0060X0.0010*%
%ADD63R,0.0070X0.0010*%
%ADD64R,0.0090X0.0010*%
%ADD65R,0.0110X0.0010*%
%ADD66R,0.0190X0.0010*%
%ADD67R,0.0450X0.0010*%
%ADD68R,0.0490X0.0010*%
%ADD69R,0.0500X0.0010*%
%ADD70R,0.0520X0.0010*%
%ADD71R,0.0540X0.0010*%
%ADD72R,0.0560X0.0010*%
%ADD73R,0.0570X0.0010*%
%ADD74R,0.0590X0.0010*%
%ADD75R,0.0620X0.0010*%
%ADD76R,0.0630X0.0010*%
%ADD77R,0.0650X0.0010*%
%ADD78R,0.0670X0.0010*%
%ADD79R,0.0690X0.0010*%
%ADD80R,0.0710X0.0010*%
%ADD81R,0.0730X0.0010*%
%ADD82R,0.0750X0.0010*%
%ADD83R,0.0770X0.0010*%
%ADD84R,0.0790X0.0010*%
%ADD85R,0.0810X0.0010*%
%ADD86R,0.0830X0.0010*%
%ADD87R,0.0850X0.0010*%
%ADD88R,0.0870X0.0010*%
%ADD89R,0.0890X0.0010*%
%ADD90R,0.0920X0.0010*%
%ADD91R,0.0510X0.0010*%
%ADD92R,0.0530X0.0010*%
%ADD93R,0.0550X0.0010*%
%ADD94R,0.0580X0.0010*%
%ADD95R,0.0600X0.0010*%
%ADD96R,0.0610X0.0010*%
%ADD97R,0.0640X0.0010*%
%ADD98R,0.0660X0.0010*%
%ADD99R,0.0680X0.0010*%
%ADD100R,0.0700X0.0010*%
%ADD101R,0.0720X0.0010*%
%ADD102R,0.0480X0.0010*%
%ADD103R,0.0740X0.0010*%
%ADD104R,0.0120X0.0010*%
%ADD105R,0.0020X0.0010*%
%ADD106R,0.0760X0.0010*%
%ADD107R,0.0780X0.0010*%
%ADD108C,0.0160*%
%ADD109R,0.0230X0.0160*%
D10*
X001044Y001575D02*
X001294Y001325D01*
X001794Y001325D01*
X002044Y001575D01*
X002294Y001325D01*
X002794Y001325D01*
X003044Y001575D01*
X003294Y001325D01*
X003794Y001325D01*
X004044Y001575D01*
X004044Y002075D01*
X003794Y002325D01*
X003294Y002325D01*
X003044Y002075D01*
X002794Y002325D01*
X002294Y002325D01*
X002044Y002075D01*
X001794Y002325D01*
X001294Y002325D01*
X001044Y002075D01*
X001044Y001575D01*
X001317Y003251D02*
X001817Y003251D01*
X002067Y003501D01*
X002317Y003251D01*
X002817Y003251D01*
X003067Y003501D01*
X003317Y003251D01*
X003817Y003251D01*
X004067Y003501D01*
X004067Y004001D01*
X003817Y004251D01*
X003317Y004251D01*
X003067Y004001D01*
X002817Y004251D01*
X002317Y004251D01*
X002067Y004001D01*
X001817Y004251D01*
X001317Y004251D01*
X001067Y004001D01*
X001067Y003501D01*
X001317Y003251D01*
X002144Y005983D02*
X003644Y005983D01*
X003894Y006233D01*
X003894Y006733D01*
X003644Y006983D01*
X003894Y007233D01*
X003894Y007733D01*
X003644Y007983D01*
X003894Y008233D01*
X003894Y008733D01*
X003644Y008983D01*
X003894Y009233D01*
X003894Y009733D01*
X003644Y009983D01*
X003894Y010233D01*
X003894Y010733D01*
X003644Y010983D01*
X002144Y010983D01*
X001894Y010733D01*
X001894Y010233D01*
X002144Y009983D01*
X001894Y009733D01*
X001894Y009233D01*
X002144Y008983D01*
X001894Y008733D01*
X001894Y008233D01*
X002144Y007983D01*
X001894Y007733D01*
X001894Y007233D01*
X002144Y006983D01*
X001894Y006733D01*
X001894Y006233D01*
X002144Y005983D01*
X004594Y009892D02*
X005194Y009892D01*
X005211Y009894D01*
X005228Y009898D01*
X005244Y009905D01*
X005258Y009915D01*
X005271Y009928D01*
X005281Y009942D01*
X005288Y009958D01*
X005292Y009975D01*
X005294Y009992D01*
X005294Y011092D01*
X005292Y011109D01*
X005288Y011126D01*
X005281Y011142D01*
X005271Y011156D01*
X005258Y011169D01*
X005244Y011179D01*
X005228Y011186D01*
X005211Y011190D01*
X005194Y011192D01*
X004594Y011192D01*
X004577Y011190D01*
X004560Y011186D01*
X004544Y011179D01*
X004530Y011169D01*
X004517Y011156D01*
X004507Y011142D01*
X004500Y011126D01*
X004496Y011109D01*
X004494Y011092D01*
X004494Y009992D01*
X004496Y009975D01*
X004500Y009958D01*
X004507Y009942D01*
X004517Y009928D01*
X004530Y009915D01*
X004544Y009905D01*
X004560Y009898D01*
X004577Y009894D01*
X004594Y009892D01*
X012349Y010579D02*
X012349Y010709D01*
X012349Y010579D02*
X012479Y010579D01*
X012419Y012909D02*
X012779Y013269D01*
X012479Y013339D02*
X012349Y013339D01*
X012349Y013209D01*
X012525Y015158D02*
X012525Y015208D01*
X012525Y015908D01*
X012525Y015958D01*
X014675Y015958D01*
X014692Y015956D01*
X014709Y015952D01*
X014725Y015945D01*
X014739Y015935D01*
X014752Y015922D01*
X014762Y015908D01*
X014769Y015892D01*
X014773Y015875D01*
X014775Y015858D01*
X014775Y015258D01*
X014773Y015241D01*
X014769Y015224D01*
X014762Y015208D01*
X014752Y015194D01*
X014739Y015181D01*
X014725Y015171D01*
X014709Y015164D01*
X014692Y015160D01*
X014675Y015158D01*
X012525Y015158D01*
X012525Y015208D02*
X012375Y015208D01*
X012375Y015908D01*
X012525Y015908D01*
X013175Y015558D02*
X013375Y015558D01*
X013375Y015358D01*
X013525Y015358D02*
X013525Y015758D01*
X013675Y015758D01*
X013675Y015358D01*
X013525Y015358D01*
X013375Y015558D02*
X013375Y015758D01*
X013825Y015758D02*
X013825Y015558D01*
X013825Y015358D01*
X013825Y015558D02*
X014025Y015558D01*
X014979Y013339D02*
X015109Y013339D01*
X015109Y013209D01*
X015109Y010709D02*
X015109Y010579D01*
X014979Y010579D01*
X015551Y005854D02*
X015551Y005634D01*
X015551Y005854D02*
X015871Y005854D01*
X015551Y004954D02*
X015551Y004734D01*
X015871Y004734D01*
X023772Y004646D02*
X023772Y004146D01*
X024022Y003896D01*
X024522Y003896D01*
X024772Y004146D01*
X025022Y003896D01*
X025522Y003896D01*
X025772Y004146D01*
X026022Y003896D01*
X026522Y003896D01*
X026772Y004146D01*
X027022Y003896D01*
X027522Y003896D01*
X027772Y004146D01*
X027772Y004646D01*
X027522Y004896D01*
X027022Y004896D01*
X026772Y004646D01*
X026522Y004896D01*
X026022Y004896D01*
X025772Y004646D01*
X025522Y004896D01*
X025022Y004896D01*
X024772Y004646D01*
X024522Y004896D01*
X024022Y004896D01*
X023772Y004646D01*
X026178Y016060D02*
X027578Y016060D01*
X027578Y018510D01*
X027678Y018510D01*
X027678Y018010D01*
X027828Y018010D01*
X027828Y017010D01*
X027678Y017010D01*
X027678Y018010D01*
X027478Y017760D02*
X027478Y018860D01*
X026978Y018860D01*
X026378Y018860D02*
X026178Y018860D01*
X026178Y018560D01*
X026078Y018560D01*
X026078Y018210D01*
X026178Y018210D01*
X026178Y017810D01*
X026278Y017810D01*
X026278Y017210D01*
X026178Y017210D01*
X026178Y016760D01*
X026078Y016760D01*
X026078Y016460D01*
X026178Y016460D01*
X026178Y016160D01*
X026378Y016160D01*
X026978Y016160D02*
X027478Y016160D01*
X027478Y017260D01*
X027478Y017760D01*
X027078Y017760D01*
X027078Y017260D01*
X027478Y017260D01*
X027678Y017010D02*
X027678Y016510D01*
X027578Y016510D01*
X027578Y018510D02*
X027578Y018960D01*
X026178Y018960D01*
X007625Y025338D02*
X007625Y025658D01*
X007519Y025765D01*
X007305Y025765D01*
X007198Y025658D01*
X006982Y025765D02*
X006769Y025765D01*
X006875Y025872D02*
X006875Y025445D01*
X006982Y025338D01*
X007198Y025338D02*
X007198Y025978D01*
X006551Y025978D02*
X006124Y025978D01*
X006124Y025338D01*
X006551Y025338D01*
X006338Y025658D02*
X006124Y025658D01*
X005263Y025765D02*
X005050Y025765D01*
X005157Y025872D02*
X005157Y025445D01*
X005263Y025338D01*
X004833Y025765D02*
X004726Y025765D01*
X004513Y025551D01*
X004513Y025338D02*
X004513Y025765D01*
X004295Y025765D02*
X004295Y025338D01*
X003975Y025338D01*
X003868Y025445D01*
X003868Y025765D01*
X003652Y025658D02*
X003438Y025658D01*
X003545Y025872D02*
X003545Y025338D01*
X003222Y025338D02*
X002901Y025551D01*
X003222Y025765D01*
X003545Y025872D02*
X003652Y025978D01*
X002901Y025978D02*
X002901Y025338D01*
X002684Y025338D02*
X002684Y025658D01*
X002577Y025765D01*
X002257Y025765D01*
X002257Y025338D01*
X002039Y025338D02*
X001719Y025338D01*
X001612Y025445D01*
X001719Y025551D01*
X002039Y025551D01*
X002039Y025658D02*
X002039Y025338D01*
X002039Y025658D02*
X001932Y025765D01*
X001719Y025765D01*
X001395Y025765D02*
X001289Y025765D01*
X001075Y025551D01*
X001075Y025338D02*
X001075Y025765D01*
X000858Y025978D02*
X000430Y025978D01*
X000430Y025338D01*
X000430Y025658D02*
X000644Y025658D01*
D11*
X000655Y025124D02*
X000655Y024877D01*
X000655Y025000D02*
X000778Y025124D01*
X000840Y025124D01*
X000962Y025062D02*
X000962Y024939D01*
X001023Y024877D01*
X001147Y024877D01*
X001209Y025000D02*
X000962Y025000D01*
X000962Y025062D02*
X001023Y025124D01*
X001147Y025124D01*
X001209Y025062D01*
X001209Y025000D01*
X001330Y025124D02*
X001453Y024877D01*
X001577Y025124D01*
X002067Y025124D02*
X002067Y024877D01*
X002067Y025062D02*
X002313Y025062D01*
X002313Y025124D02*
X002313Y024877D01*
X002313Y025124D02*
X002190Y025247D01*
X002067Y025124D01*
X002117Y024580D02*
X002178Y024580D01*
X002117Y024580D02*
X001993Y024457D01*
X001993Y024580D02*
X001993Y024333D01*
X001872Y024333D02*
X001687Y024333D01*
X001625Y024395D01*
X001625Y024518D01*
X001687Y024580D01*
X001872Y024580D01*
X001872Y024272D01*
X001810Y024210D01*
X001748Y024210D01*
X001502Y024333D02*
X001441Y024333D01*
X001441Y024395D01*
X001502Y024395D01*
X001502Y024333D01*
X001319Y024395D02*
X001319Y024580D01*
X001319Y024395D02*
X001258Y024333D01*
X001196Y024395D01*
X001134Y024333D01*
X001072Y024395D01*
X001072Y024580D01*
X000951Y024580D02*
X000951Y024395D01*
X000889Y024333D01*
X000827Y024395D01*
X000766Y024333D01*
X000704Y024395D01*
X000704Y024580D01*
X000583Y024580D02*
X000583Y024395D01*
X000521Y024333D01*
X000459Y024395D01*
X000397Y024333D01*
X000336Y024395D01*
X000336Y024580D01*
X002300Y024518D02*
X002300Y024395D01*
X002362Y024333D01*
X002485Y024333D01*
X002547Y024395D01*
X002547Y024518D01*
X002485Y024580D01*
X002362Y024580D01*
X002300Y024518D01*
X002668Y024518D02*
X002668Y024395D01*
X002730Y024333D01*
X002915Y024333D01*
X002915Y024704D01*
X002915Y024580D02*
X002730Y024580D01*
X002668Y024518D01*
X003037Y024395D02*
X003098Y024457D01*
X003284Y024457D01*
X003284Y024518D02*
X003284Y024333D01*
X003098Y024333D01*
X003037Y024395D01*
X003098Y024580D02*
X003222Y024580D01*
X003284Y024518D01*
X003405Y024580D02*
X003590Y024580D01*
X003652Y024518D01*
X003652Y024333D01*
X003773Y024333D02*
X003958Y024333D01*
X004020Y024395D01*
X003958Y024457D01*
X003835Y024457D01*
X003773Y024518D01*
X003835Y024580D01*
X004020Y024580D01*
X004142Y024580D02*
X004327Y024580D01*
X004389Y024518D01*
X004389Y024395D01*
X004327Y024333D01*
X004142Y024333D01*
X004142Y024210D02*
X004142Y024580D01*
X004510Y024395D02*
X004572Y024457D01*
X004757Y024457D01*
X004757Y024518D02*
X004757Y024333D01*
X004572Y024333D01*
X004510Y024395D01*
X004572Y024580D02*
X004695Y024580D01*
X004757Y024518D01*
X004878Y024457D02*
X005002Y024580D01*
X005063Y024580D01*
X005247Y024580D02*
X005370Y024580D01*
X005432Y024518D01*
X005432Y024333D01*
X005247Y024333D01*
X005185Y024395D01*
X005247Y024457D01*
X005432Y024457D01*
X005554Y024518D02*
X005615Y024580D01*
X005800Y024580D01*
X005922Y024580D02*
X005984Y024580D01*
X005984Y024333D01*
X006045Y024333D02*
X005922Y024333D01*
X005800Y024333D02*
X005615Y024333D01*
X005554Y024395D01*
X005554Y024518D01*
X005800Y024333D02*
X005800Y024704D01*
X005984Y024704D02*
X005984Y024765D01*
X006229Y024580D02*
X006414Y024580D01*
X006353Y024457D02*
X006229Y024457D01*
X006167Y024518D01*
X006229Y024580D01*
X006353Y024457D02*
X006414Y024395D01*
X006353Y024333D01*
X006167Y024333D01*
X006536Y024333D02*
X006597Y024333D01*
X006597Y024395D01*
X006536Y024395D01*
X006536Y024333D01*
X006720Y024395D02*
X006720Y024518D01*
X006782Y024580D01*
X006967Y024580D01*
X007088Y024518D02*
X007088Y024395D01*
X007150Y024333D01*
X007273Y024333D01*
X007335Y024395D01*
X007335Y024518D01*
X007273Y024580D01*
X007150Y024580D01*
X007088Y024518D01*
X006967Y024333D02*
X006782Y024333D01*
X006720Y024395D01*
X007456Y024333D02*
X007456Y024580D01*
X007518Y024580D01*
X007580Y024518D01*
X007642Y024580D01*
X007703Y024518D01*
X007703Y024333D01*
X007580Y024333D02*
X007580Y024518D01*
X004878Y024580D02*
X004878Y024333D01*
X003405Y024333D02*
X003405Y024580D01*
X011414Y013446D02*
X011727Y013133D01*
X011414Y013446D01*
X011570Y013446D02*
X011570Y013133D01*
X011570Y013446D01*
X011727Y013446D02*
X011414Y013133D01*
X011727Y013446D01*
X011727Y013289D02*
X011414Y013289D01*
X011727Y013289D01*
X019562Y007074D02*
X019562Y006784D01*
X019562Y006881D02*
X019707Y006881D01*
X019755Y006929D01*
X019755Y007026D01*
X019707Y007074D01*
X019562Y007074D01*
X019856Y007026D02*
X019856Y006833D01*
X019905Y006784D01*
X020002Y006784D01*
X020050Y006833D01*
X020050Y007026D01*
X020002Y007074D01*
X019905Y007074D01*
X019856Y007026D01*
X020151Y007074D02*
X020151Y006784D01*
X020248Y006881D01*
X020345Y006784D01*
X020345Y007074D01*
X020446Y007074D02*
X020446Y006784D01*
X020639Y006784D01*
X020740Y006784D02*
X020740Y007074D01*
X020885Y007074D01*
X020934Y007026D01*
X020934Y006929D01*
X020885Y006881D01*
X020740Y006881D01*
X020837Y006881D02*
X020934Y006784D01*
X020639Y007074D02*
X020446Y007074D01*
X020446Y006929D02*
X020542Y006929D01*
X026421Y012421D02*
X026545Y012421D01*
X026483Y012421D02*
X026483Y012791D01*
X026421Y012791D02*
X026545Y012791D01*
X026667Y012791D02*
X026914Y012421D01*
X026914Y012791D01*
X027035Y012791D02*
X027159Y012791D01*
X027097Y012791D02*
X027097Y012421D01*
X027035Y012421D02*
X027159Y012421D01*
X027404Y012421D02*
X027404Y012791D01*
X027281Y012791D02*
X027528Y012791D01*
X026667Y012791D02*
X026667Y012421D01*
D12*
X028382Y000546D02*
X000174Y000534D01*
X000189Y026152D01*
X028331Y026156D01*
X028382Y000546D01*
X024874Y006577D02*
X024876Y006627D01*
X024882Y006677D01*
X024892Y006727D01*
X024905Y006775D01*
X024922Y006823D01*
X024943Y006869D01*
X024967Y006913D01*
X024995Y006955D01*
X025026Y006995D01*
X025060Y007032D01*
X025097Y007067D01*
X025136Y007098D01*
X025177Y007127D01*
X025221Y007152D01*
X025267Y007174D01*
X025314Y007192D01*
X025362Y007206D01*
X025411Y007217D01*
X025461Y007224D01*
X025511Y007227D01*
X025562Y007226D01*
X025612Y007221D01*
X025662Y007212D01*
X025710Y007200D01*
X025758Y007183D01*
X025804Y007163D01*
X025849Y007140D01*
X025892Y007113D01*
X025932Y007083D01*
X025970Y007050D01*
X026005Y007014D01*
X026038Y006975D01*
X026067Y006934D01*
X026093Y006891D01*
X026116Y006846D01*
X026135Y006799D01*
X026150Y006751D01*
X026162Y006702D01*
X026170Y006652D01*
X026174Y006602D01*
X026174Y006552D01*
X026170Y006502D01*
X026162Y006452D01*
X026150Y006403D01*
X026135Y006355D01*
X026116Y006308D01*
X026093Y006263D01*
X026067Y006220D01*
X026038Y006179D01*
X026005Y006140D01*
X025970Y006104D01*
X025932Y006071D01*
X025892Y006041D01*
X025849Y006014D01*
X025804Y005991D01*
X025758Y005971D01*
X025710Y005954D01*
X025662Y005942D01*
X025612Y005933D01*
X025562Y005928D01*
X025511Y005927D01*
X025461Y005930D01*
X025411Y005937D01*
X025362Y005948D01*
X025314Y005962D01*
X025267Y005980D01*
X025221Y006002D01*
X025177Y006027D01*
X025136Y006056D01*
X025097Y006087D01*
X025060Y006122D01*
X025026Y006159D01*
X024995Y006199D01*
X024967Y006241D01*
X024943Y006285D01*
X024922Y006331D01*
X024905Y006379D01*
X024892Y006427D01*
X024882Y006477D01*
X024876Y006527D01*
X024874Y006577D01*
X024874Y011066D02*
X024876Y011116D01*
X024882Y011166D01*
X024892Y011216D01*
X024905Y011264D01*
X024922Y011312D01*
X024943Y011358D01*
X024967Y011402D01*
X024995Y011444D01*
X025026Y011484D01*
X025060Y011521D01*
X025097Y011556D01*
X025136Y011587D01*
X025177Y011616D01*
X025221Y011641D01*
X025267Y011663D01*
X025314Y011681D01*
X025362Y011695D01*
X025411Y011706D01*
X025461Y011713D01*
X025511Y011716D01*
X025562Y011715D01*
X025612Y011710D01*
X025662Y011701D01*
X025710Y011689D01*
X025758Y011672D01*
X025804Y011652D01*
X025849Y011629D01*
X025892Y011602D01*
X025932Y011572D01*
X025970Y011539D01*
X026005Y011503D01*
X026038Y011464D01*
X026067Y011423D01*
X026093Y011380D01*
X026116Y011335D01*
X026135Y011288D01*
X026150Y011240D01*
X026162Y011191D01*
X026170Y011141D01*
X026174Y011091D01*
X026174Y011041D01*
X026170Y010991D01*
X026162Y010941D01*
X026150Y010892D01*
X026135Y010844D01*
X026116Y010797D01*
X026093Y010752D01*
X026067Y010709D01*
X026038Y010668D01*
X026005Y010629D01*
X025970Y010593D01*
X025932Y010560D01*
X025892Y010530D01*
X025849Y010503D01*
X025804Y010480D01*
X025758Y010460D01*
X025710Y010443D01*
X025662Y010431D01*
X025612Y010422D01*
X025562Y010417D01*
X025511Y010416D01*
X025461Y010419D01*
X025411Y010426D01*
X025362Y010437D01*
X025314Y010451D01*
X025267Y010469D01*
X025221Y010491D01*
X025177Y010516D01*
X025136Y010545D01*
X025097Y010576D01*
X025060Y010611D01*
X025026Y010648D01*
X024995Y010688D01*
X024967Y010730D01*
X024943Y010774D01*
X024922Y010820D01*
X024905Y010868D01*
X024892Y010916D01*
X024882Y010966D01*
X024876Y011016D01*
X024874Y011066D01*
X004855Y018127D02*
X004857Y018179D01*
X004863Y018231D01*
X004873Y018283D01*
X004886Y018333D01*
X004903Y018383D01*
X004924Y018431D01*
X004949Y018477D01*
X004977Y018521D01*
X005008Y018563D01*
X005042Y018603D01*
X005079Y018640D01*
X005119Y018674D01*
X005161Y018705D01*
X005205Y018733D01*
X005251Y018758D01*
X005299Y018779D01*
X005349Y018796D01*
X005399Y018809D01*
X005451Y018819D01*
X005503Y018825D01*
X005555Y018827D01*
X005607Y018825D01*
X005659Y018819D01*
X005711Y018809D01*
X005761Y018796D01*
X005811Y018779D01*
X005859Y018758D01*
X005905Y018733D01*
X005949Y018705D01*
X005991Y018674D01*
X006031Y018640D01*
X006068Y018603D01*
X006102Y018563D01*
X006133Y018521D01*
X006161Y018477D01*
X006186Y018431D01*
X006207Y018383D01*
X006224Y018333D01*
X006237Y018283D01*
X006247Y018231D01*
X006253Y018179D01*
X006255Y018127D01*
X006253Y018075D01*
X006247Y018023D01*
X006237Y017971D01*
X006224Y017921D01*
X006207Y017871D01*
X006186Y017823D01*
X006161Y017777D01*
X006133Y017733D01*
X006102Y017691D01*
X006068Y017651D01*
X006031Y017614D01*
X005991Y017580D01*
X005949Y017549D01*
X005905Y017521D01*
X005859Y017496D01*
X005811Y017475D01*
X005761Y017458D01*
X005711Y017445D01*
X005659Y017435D01*
X005607Y017429D01*
X005555Y017427D01*
X005503Y017429D01*
X005451Y017435D01*
X005399Y017445D01*
X005349Y017458D01*
X005299Y017475D01*
X005251Y017496D01*
X005205Y017521D01*
X005161Y017549D01*
X005119Y017580D01*
X005079Y017614D01*
X005042Y017651D01*
X005008Y017691D01*
X004977Y017733D01*
X004949Y017777D01*
X004924Y017823D01*
X004903Y017871D01*
X004886Y017921D01*
X004873Y017971D01*
X004863Y018023D01*
X004857Y018075D01*
X004855Y018127D01*
X004855Y022627D02*
X004857Y022679D01*
X004863Y022731D01*
X004873Y022783D01*
X004886Y022833D01*
X004903Y022883D01*
X004924Y022931D01*
X004949Y022977D01*
X004977Y023021D01*
X005008Y023063D01*
X005042Y023103D01*
X005079Y023140D01*
X005119Y023174D01*
X005161Y023205D01*
X005205Y023233D01*
X005251Y023258D01*
X005299Y023279D01*
X005349Y023296D01*
X005399Y023309D01*
X005451Y023319D01*
X005503Y023325D01*
X005555Y023327D01*
X005607Y023325D01*
X005659Y023319D01*
X005711Y023309D01*
X005761Y023296D01*
X005811Y023279D01*
X005859Y023258D01*
X005905Y023233D01*
X005949Y023205D01*
X005991Y023174D01*
X006031Y023140D01*
X006068Y023103D01*
X006102Y023063D01*
X006133Y023021D01*
X006161Y022977D01*
X006186Y022931D01*
X006207Y022883D01*
X006224Y022833D01*
X006237Y022783D01*
X006247Y022731D01*
X006253Y022679D01*
X006255Y022627D01*
X006253Y022575D01*
X006247Y022523D01*
X006237Y022471D01*
X006224Y022421D01*
X006207Y022371D01*
X006186Y022323D01*
X006161Y022277D01*
X006133Y022233D01*
X006102Y022191D01*
X006068Y022151D01*
X006031Y022114D01*
X005991Y022080D01*
X005949Y022049D01*
X005905Y022021D01*
X005859Y021996D01*
X005811Y021975D01*
X005761Y021958D01*
X005711Y021945D01*
X005659Y021935D01*
X005607Y021929D01*
X005555Y021927D01*
X005503Y021929D01*
X005451Y021935D01*
X005399Y021945D01*
X005349Y021958D01*
X005299Y021975D01*
X005251Y021996D01*
X005205Y022021D01*
X005161Y022049D01*
X005119Y022080D01*
X005079Y022114D01*
X005042Y022151D01*
X005008Y022191D01*
X004977Y022233D01*
X004949Y022277D01*
X004924Y022323D01*
X004903Y022371D01*
X004886Y022421D01*
X004873Y022471D01*
X004863Y022523D01*
X004857Y022575D01*
X004855Y022627D01*
D13*
X014669Y020436D02*
X014671Y020450D01*
X014677Y020462D01*
X014686Y020472D01*
X014697Y020480D01*
X014710Y020484D01*
X014724Y020484D01*
X014737Y020480D01*
X014748Y020472D01*
X014757Y020462D01*
X014763Y020450D01*
X014765Y020436D01*
X014763Y020422D01*
X014757Y020410D01*
X014748Y020400D01*
X014737Y020392D01*
X014724Y020388D01*
X014710Y020388D01*
X014697Y020392D01*
X014686Y020400D01*
X014677Y020410D01*
X014671Y020422D01*
X014669Y020436D01*
D14*
X017561Y013517D02*
X017921Y013517D01*
X017921Y013397D02*
X017921Y013638D01*
X017681Y013397D02*
X017561Y013517D01*
X017561Y013269D02*
X017561Y013029D01*
X017561Y013149D02*
X017921Y013149D01*
X017921Y012901D02*
X017801Y012781D01*
X017801Y012841D02*
X017801Y012661D01*
X017921Y012661D02*
X017561Y012661D01*
X017561Y012841D01*
X017621Y012901D01*
X017741Y012901D01*
X017801Y012841D01*
X017741Y012533D02*
X017741Y012292D01*
X017681Y012292D02*
X017561Y012413D01*
X017681Y012533D01*
X017921Y012533D01*
X017921Y012292D02*
X017681Y012292D01*
X017561Y012164D02*
X017861Y012164D01*
X017921Y012104D01*
X017921Y011984D01*
X017861Y011924D01*
X017561Y011924D01*
X014976Y003921D02*
X014070Y003921D01*
X013322Y003921D02*
X012417Y003921D01*
X012417Y002032D01*
X013086Y001362D01*
X013322Y001362D01*
X014070Y001362D02*
X014307Y001362D01*
X014976Y002032D01*
X014976Y003921D01*
X013322Y003803D02*
X013258Y003781D01*
X013195Y003754D01*
X013133Y003724D01*
X013074Y003691D01*
X013016Y003655D01*
X012960Y003615D01*
X012907Y003572D01*
X012856Y003527D01*
X012808Y003479D01*
X012763Y003428D01*
X012720Y003374D01*
X012681Y003318D01*
X012644Y003261D01*
X012611Y003201D01*
X012582Y003139D01*
X012556Y003076D01*
X012533Y003012D01*
X012514Y002946D01*
X012499Y002879D01*
X012488Y002812D01*
X012480Y002744D01*
X012476Y002676D01*
X012476Y002608D01*
X012480Y002540D01*
X012488Y002472D01*
X012499Y002405D01*
X012514Y002338D01*
X012533Y002272D01*
X012556Y002208D01*
X012582Y002145D01*
X012611Y002083D01*
X012644Y002023D01*
X012681Y001966D01*
X012720Y001910D01*
X012763Y001856D01*
X012808Y001805D01*
X012856Y001757D01*
X012907Y001712D01*
X012960Y001669D01*
X013016Y001629D01*
X013074Y001593D01*
X013133Y001560D01*
X013195Y001530D01*
X013258Y001503D01*
X013322Y001481D01*
X014070Y001481D02*
X014134Y001503D01*
X014197Y001530D01*
X014259Y001560D01*
X014318Y001593D01*
X014376Y001629D01*
X014432Y001669D01*
X014485Y001712D01*
X014536Y001757D01*
X014584Y001805D01*
X014629Y001856D01*
X014672Y001910D01*
X014711Y001966D01*
X014748Y002023D01*
X014781Y002083D01*
X014810Y002145D01*
X014836Y002208D01*
X014859Y002272D01*
X014878Y002338D01*
X014893Y002405D01*
X014904Y002472D01*
X014912Y002540D01*
X014916Y002608D01*
X014916Y002676D01*
X014912Y002744D01*
X014904Y002812D01*
X014893Y002879D01*
X014878Y002946D01*
X014859Y003012D01*
X014836Y003076D01*
X014810Y003139D01*
X014781Y003201D01*
X014748Y003261D01*
X014711Y003318D01*
X014672Y003374D01*
X014629Y003428D01*
X014584Y003479D01*
X014536Y003527D01*
X014485Y003572D01*
X014432Y003615D01*
X014376Y003655D01*
X014318Y003691D01*
X014259Y003724D01*
X014197Y003754D01*
X014134Y003781D01*
X014070Y003803D01*
X007145Y008837D02*
X007145Y009198D01*
X007025Y009078D01*
X006905Y009198D01*
X006905Y008837D01*
X006777Y008837D02*
X006657Y008958D01*
X006717Y008958D02*
X006536Y008958D01*
X006536Y008837D02*
X006536Y009198D01*
X006717Y009198D01*
X006777Y009138D01*
X006777Y009018D01*
X006717Y008958D01*
X006408Y008837D02*
X006168Y008837D01*
X006168Y009198D01*
X006408Y009198D01*
X006288Y009018D02*
X006168Y009018D01*
X006040Y009198D02*
X005800Y009198D01*
X005920Y009198D02*
X005920Y008837D01*
X024629Y003052D02*
X024629Y002816D01*
X024629Y003052D02*
X025299Y003721D01*
X027188Y003721D01*
X027188Y002816D01*
X027188Y002068D02*
X027188Y001162D01*
X025299Y001162D01*
X024629Y001832D01*
X024629Y002068D01*
X024748Y002816D02*
X024770Y002880D01*
X024797Y002943D01*
X024827Y003005D01*
X024860Y003064D01*
X024896Y003122D01*
X024936Y003178D01*
X024979Y003231D01*
X025024Y003282D01*
X025072Y003330D01*
X025123Y003375D01*
X025177Y003418D01*
X025233Y003457D01*
X025290Y003494D01*
X025350Y003527D01*
X025412Y003556D01*
X025475Y003582D01*
X025539Y003605D01*
X025605Y003624D01*
X025672Y003639D01*
X025739Y003650D01*
X025807Y003658D01*
X025875Y003662D01*
X025943Y003662D01*
X026011Y003658D01*
X026079Y003650D01*
X026146Y003639D01*
X026213Y003624D01*
X026279Y003605D01*
X026343Y003582D01*
X026406Y003556D01*
X026468Y003527D01*
X026528Y003494D01*
X026585Y003457D01*
X026641Y003418D01*
X026695Y003375D01*
X026746Y003330D01*
X026794Y003282D01*
X026839Y003231D01*
X026882Y003178D01*
X026922Y003122D01*
X026958Y003064D01*
X026991Y003005D01*
X027021Y002943D01*
X027048Y002880D01*
X027070Y002816D01*
X027070Y002068D02*
X027048Y002004D01*
X027021Y001941D01*
X026991Y001879D01*
X026958Y001820D01*
X026922Y001762D01*
X026882Y001706D01*
X026839Y001653D01*
X026794Y001602D01*
X026746Y001554D01*
X026695Y001509D01*
X026641Y001466D01*
X026585Y001427D01*
X026528Y001390D01*
X026468Y001357D01*
X026406Y001328D01*
X026343Y001302D01*
X026279Y001279D01*
X026213Y001260D01*
X026146Y001245D01*
X026079Y001234D01*
X026011Y001226D01*
X025943Y001222D01*
X025875Y001222D01*
X025807Y001226D01*
X025739Y001234D01*
X025672Y001245D01*
X025605Y001260D01*
X025539Y001279D01*
X025475Y001302D01*
X025412Y001328D01*
X025350Y001357D01*
X025290Y001390D01*
X025233Y001427D01*
X025177Y001466D01*
X025123Y001509D01*
X025072Y001554D01*
X025024Y001602D01*
X024979Y001653D01*
X024936Y001706D01*
X024896Y001762D01*
X024860Y001820D01*
X024827Y001879D01*
X024797Y001941D01*
X024770Y002004D01*
X024748Y002068D01*
D15*
X024613Y001404D02*
X024563Y001404D01*
X024538Y001379D01*
X024491Y001379D02*
X024466Y001404D01*
X024416Y001404D01*
X024391Y001379D01*
X024391Y001279D01*
X024416Y001254D01*
X024466Y001254D01*
X024491Y001279D01*
X024538Y001254D02*
X024638Y001354D01*
X024638Y001379D01*
X024613Y001404D01*
X024638Y001254D02*
X024538Y001254D01*
X021286Y001335D02*
X021186Y001335D01*
X021139Y001335D02*
X021038Y001335D01*
X021038Y001486D01*
X021186Y001435D02*
X021236Y001486D01*
X021236Y001335D01*
X016417Y004475D02*
X016317Y004475D01*
X016417Y004576D01*
X016417Y004601D01*
X016392Y004626D01*
X016342Y004626D01*
X016317Y004601D01*
X016269Y004601D02*
X016244Y004626D01*
X016169Y004626D01*
X016169Y004475D01*
X016244Y004475D01*
X016269Y004500D01*
X016269Y004601D01*
X016776Y007021D02*
X016776Y007071D01*
X016776Y007046D02*
X016926Y007046D01*
X016926Y007021D02*
X016926Y007071D01*
X016901Y007120D02*
X016926Y007145D01*
X016926Y007195D01*
X016901Y007220D01*
X016901Y007267D02*
X016926Y007292D01*
X016926Y007342D01*
X016901Y007367D01*
X016876Y007367D01*
X016851Y007342D01*
X016851Y007317D01*
X016851Y007342D02*
X016826Y007367D01*
X016801Y007367D01*
X016776Y007342D01*
X016776Y007292D01*
X016801Y007267D01*
X016801Y007220D02*
X016776Y007195D01*
X016776Y007145D01*
X016801Y007120D01*
X016901Y007120D01*
X015599Y008909D02*
X015599Y008934D01*
X015699Y009034D01*
X015699Y009059D01*
X015599Y009059D01*
X015502Y009059D02*
X015502Y008909D01*
X015452Y008909D02*
X015552Y008909D01*
X015452Y009009D02*
X015502Y009059D01*
X015405Y009034D02*
X015380Y009059D01*
X015330Y009059D01*
X015305Y009034D01*
X015305Y008934D01*
X015330Y008909D01*
X015380Y008909D01*
X015405Y008934D01*
X012123Y006697D02*
X012123Y006672D01*
X012098Y006647D01*
X012123Y006622D01*
X012123Y006597D01*
X012098Y006572D01*
X012048Y006572D01*
X012023Y006597D01*
X011976Y006572D02*
X011876Y006572D01*
X011926Y006572D02*
X011926Y006722D01*
X011876Y006672D01*
X011829Y006697D02*
X011804Y006722D01*
X011754Y006722D01*
X011729Y006697D01*
X011729Y006597D01*
X011754Y006572D01*
X011804Y006572D01*
X011829Y006597D01*
X012023Y006697D02*
X012048Y006722D01*
X012098Y006722D01*
X012123Y006697D01*
X012098Y006647D02*
X012073Y006647D01*
X011957Y005264D02*
X011957Y005239D01*
X011857Y005139D01*
X011857Y005114D01*
X011810Y005114D02*
X011710Y005114D01*
X011663Y005114D02*
X011612Y005164D01*
X011637Y005164D02*
X011562Y005164D01*
X011562Y005114D02*
X011562Y005264D01*
X011637Y005264D01*
X011663Y005239D01*
X011663Y005189D01*
X011637Y005164D01*
X011710Y005214D02*
X011760Y005264D01*
X011760Y005114D01*
X011857Y005264D02*
X011957Y005264D01*
X008720Y005786D02*
X008620Y005786D01*
X008695Y005861D01*
X008695Y005711D01*
X008573Y005736D02*
X008548Y005711D01*
X008498Y005711D01*
X008473Y005736D01*
X008473Y005836D01*
X008498Y005861D01*
X008548Y005861D01*
X008573Y005836D01*
X008424Y005861D02*
X008374Y005861D01*
X008399Y005861D02*
X008399Y005711D01*
X008374Y005711D02*
X008424Y005711D01*
X009460Y008514D02*
X009510Y008514D01*
X009485Y008514D02*
X009485Y008664D01*
X009460Y008664D02*
X009510Y008664D01*
X009558Y008639D02*
X009558Y008539D01*
X009583Y008514D01*
X009633Y008514D01*
X009658Y008539D01*
X009706Y008539D02*
X009731Y008514D01*
X009781Y008514D01*
X009806Y008539D01*
X009806Y008564D01*
X009781Y008589D01*
X009706Y008589D01*
X009706Y008539D01*
X009706Y008589D02*
X009756Y008639D01*
X009806Y008664D01*
X009658Y008639D02*
X009633Y008664D01*
X009583Y008664D01*
X009558Y008639D01*
X009567Y009249D02*
X009667Y009249D01*
X009617Y009249D02*
X009617Y009399D01*
X009567Y009349D01*
X009519Y009399D02*
X009419Y009249D01*
X009519Y009249D02*
X009419Y009399D01*
X010706Y009464D02*
X010731Y009439D01*
X010781Y009439D01*
X010806Y009464D01*
X010853Y009464D02*
X010878Y009439D01*
X010928Y009439D01*
X010953Y009464D01*
X010953Y009489D01*
X010928Y009514D01*
X010853Y009514D01*
X010853Y009464D01*
X010853Y009514D02*
X010903Y009564D01*
X010953Y009589D01*
X010806Y009564D02*
X010781Y009589D01*
X010731Y009589D01*
X010706Y009564D01*
X010706Y009464D01*
X010735Y009956D02*
X010785Y009956D01*
X010810Y009981D01*
X010857Y009956D02*
X010957Y009956D01*
X010907Y009956D02*
X010907Y010106D01*
X010857Y010056D01*
X010810Y010081D02*
X010785Y010106D01*
X010735Y010106D01*
X010710Y010081D01*
X010710Y009981D01*
X010735Y009956D01*
X011005Y009981D02*
X011030Y009956D01*
X011080Y009956D01*
X011105Y009981D01*
X011105Y010031D01*
X011080Y010056D01*
X011055Y010056D01*
X011005Y010031D01*
X011005Y010106D01*
X011105Y010106D01*
X011105Y012749D02*
X011105Y012899D01*
X011055Y012849D01*
X011008Y012849D02*
X011008Y012874D01*
X010983Y012899D01*
X010933Y012899D01*
X010908Y012874D01*
X010860Y012874D02*
X010835Y012899D01*
X010785Y012899D01*
X010760Y012874D01*
X010760Y012774D01*
X010785Y012749D01*
X010835Y012749D01*
X010860Y012774D01*
X010908Y012749D02*
X011008Y012849D01*
X011008Y012749D02*
X010908Y012749D01*
X011055Y012749D02*
X011155Y012749D01*
X012260Y014161D02*
X012360Y014161D01*
X012385Y014186D01*
X012385Y014236D01*
X012360Y014261D01*
X012385Y014308D02*
X012385Y014408D01*
X012385Y014358D02*
X012235Y014358D01*
X012285Y014308D01*
X012260Y014261D02*
X012235Y014236D01*
X012235Y014186D01*
X012260Y014161D01*
X012260Y014456D02*
X012285Y014456D01*
X012310Y014481D01*
X012310Y014556D01*
X012260Y014556D02*
X012235Y014531D01*
X012235Y014481D01*
X012260Y014456D01*
X012260Y014556D02*
X012360Y014556D01*
X012385Y014531D01*
X012385Y014481D01*
X012360Y014456D01*
X011079Y016170D02*
X011029Y016170D01*
X011004Y016195D01*
X011104Y016295D01*
X011104Y016195D01*
X011079Y016170D01*
X011004Y016195D02*
X011004Y016295D01*
X011029Y016320D01*
X011079Y016320D01*
X011104Y016295D01*
X010956Y016295D02*
X010931Y016320D01*
X010881Y016320D01*
X010856Y016295D01*
X010809Y016295D02*
X010784Y016320D01*
X010734Y016320D01*
X010709Y016295D01*
X010709Y016195D01*
X010734Y016170D01*
X010784Y016170D01*
X010809Y016195D01*
X010856Y016170D02*
X010956Y016270D01*
X010956Y016295D01*
X010956Y016170D02*
X010856Y016170D01*
X011039Y016531D02*
X011089Y016531D01*
X011114Y016556D01*
X011161Y016606D02*
X011261Y016606D01*
X011236Y016531D02*
X011236Y016681D01*
X011161Y016606D01*
X011114Y016656D02*
X011089Y016681D01*
X011039Y016681D01*
X011014Y016656D01*
X011014Y016556D01*
X011039Y016531D01*
X011029Y017702D02*
X010979Y017752D01*
X011004Y017752D02*
X010929Y017752D01*
X010929Y017702D02*
X010929Y017852D01*
X011004Y017852D01*
X011029Y017827D01*
X011029Y017777D01*
X011004Y017752D01*
X011077Y017777D02*
X011127Y017802D01*
X011152Y017802D01*
X011177Y017777D01*
X011177Y017727D01*
X011152Y017702D01*
X011102Y017702D01*
X011077Y017727D01*
X011077Y017777D02*
X011077Y017852D01*
X011177Y017852D01*
X011125Y019023D02*
X011075Y019023D01*
X011050Y019048D01*
X011003Y019023D02*
X010903Y019023D01*
X010855Y019023D02*
X010805Y019073D01*
X010830Y019073D02*
X010755Y019073D01*
X010755Y019023D02*
X010755Y019173D01*
X010830Y019173D01*
X010855Y019148D01*
X010855Y019098D01*
X010830Y019073D01*
X010903Y019123D02*
X010953Y019173D01*
X010953Y019023D01*
X011050Y019148D02*
X011075Y019173D01*
X011125Y019173D01*
X011150Y019148D01*
X011150Y019123D01*
X011125Y019098D01*
X011150Y019073D01*
X011150Y019048D01*
X011125Y019023D01*
X011125Y019098D02*
X011100Y019098D01*
X012134Y019747D02*
X012159Y019722D01*
X012209Y019722D01*
X012234Y019747D01*
X012282Y019722D02*
X012382Y019722D01*
X012429Y019722D02*
X012529Y019822D01*
X012529Y019847D01*
X012504Y019872D01*
X012454Y019872D01*
X012429Y019847D01*
X012332Y019872D02*
X012332Y019722D01*
X012429Y019722D02*
X012529Y019722D01*
X012332Y019872D02*
X012282Y019822D01*
X012234Y019847D02*
X012209Y019872D01*
X012159Y019872D01*
X012134Y019847D01*
X012134Y019747D01*
X011142Y020535D02*
X011042Y020535D01*
X011142Y020635D01*
X011142Y020660D01*
X011117Y020685D01*
X011067Y020685D01*
X011042Y020660D01*
X010945Y020685D02*
X010945Y020535D01*
X010895Y020535D02*
X010995Y020535D01*
X010895Y020635D02*
X010945Y020685D01*
X010848Y020660D02*
X010848Y020610D01*
X010823Y020585D01*
X010747Y020585D01*
X010747Y020535D02*
X010747Y020685D01*
X010823Y020685D01*
X010848Y020660D01*
X010798Y020585D02*
X010848Y020535D01*
X010885Y021689D02*
X010885Y021839D01*
X010960Y021839D01*
X010985Y021814D01*
X010985Y021764D01*
X010960Y021739D01*
X010885Y021739D01*
X010935Y021739D02*
X010985Y021689D01*
X011033Y021714D02*
X011058Y021689D01*
X011108Y021689D01*
X011133Y021714D01*
X011133Y021814D01*
X011108Y021839D01*
X011058Y021839D01*
X011033Y021814D01*
X011033Y021789D01*
X011058Y021764D01*
X011133Y021764D01*
X012719Y022002D02*
X012744Y021977D01*
X012794Y021977D01*
X012819Y022002D01*
X012866Y022002D02*
X012891Y021977D01*
X012941Y021977D01*
X012966Y022002D01*
X012966Y022103D01*
X012941Y022128D01*
X012891Y022128D01*
X012866Y022103D01*
X012866Y022078D01*
X012891Y022053D01*
X012966Y022053D01*
X012819Y022103D02*
X012794Y022128D01*
X012744Y022128D01*
X012719Y022103D01*
X012719Y022002D01*
X014118Y020276D02*
X014093Y020251D01*
X014093Y020201D01*
X014118Y020176D01*
X014118Y020129D02*
X014093Y020104D01*
X014093Y020054D01*
X014118Y020029D01*
X014218Y020029D01*
X014243Y020054D01*
X014243Y020104D01*
X014218Y020129D01*
X014243Y020176D02*
X014143Y020276D01*
X014118Y020276D01*
X014243Y020276D02*
X014243Y020176D01*
X014243Y019981D02*
X014243Y019931D01*
X014243Y019956D02*
X014093Y019956D01*
X014093Y019931D02*
X014093Y019981D01*
X014665Y016962D02*
X014640Y016937D01*
X014640Y016837D01*
X014665Y016812D01*
X014715Y016812D01*
X014740Y016837D01*
X014787Y016837D02*
X014787Y016862D01*
X014812Y016887D01*
X014862Y016887D01*
X014887Y016862D01*
X014887Y016837D01*
X014862Y016812D01*
X014812Y016812D01*
X014787Y016837D01*
X014812Y016887D02*
X014787Y016912D01*
X014787Y016937D01*
X014812Y016962D01*
X014862Y016962D01*
X014887Y016937D01*
X014887Y016912D01*
X014862Y016887D01*
X014740Y016937D02*
X014715Y016962D01*
X014665Y016962D01*
X015498Y016958D02*
X015498Y016808D01*
X015498Y016858D02*
X015573Y016858D01*
X015598Y016883D01*
X015598Y016933D01*
X015573Y016958D01*
X015498Y016958D01*
X015548Y016858D02*
X015598Y016808D01*
X015646Y016808D02*
X015746Y016908D01*
X015746Y016933D01*
X015721Y016958D01*
X015671Y016958D01*
X015646Y016933D01*
X015646Y016808D02*
X015746Y016808D01*
X015793Y016883D02*
X015893Y016883D01*
X015868Y016808D02*
X015868Y016958D01*
X015793Y016883D01*
X016396Y016874D02*
X016471Y016874D01*
X016496Y016899D01*
X016496Y016949D01*
X016471Y016974D01*
X016396Y016974D01*
X016396Y016824D01*
X016446Y016874D02*
X016496Y016824D01*
X016543Y016824D02*
X016643Y016924D01*
X016643Y016949D01*
X016618Y016974D01*
X016568Y016974D01*
X016543Y016949D01*
X016543Y016824D02*
X016643Y016824D01*
X016691Y016849D02*
X016716Y016824D01*
X016766Y016824D01*
X016791Y016849D01*
X016791Y016949D01*
X016766Y016974D01*
X016716Y016974D01*
X016691Y016949D01*
X016691Y016924D01*
X016716Y016899D01*
X016791Y016899D01*
X018610Y016809D02*
X018685Y016809D01*
X018710Y016784D01*
X018710Y016734D01*
X018685Y016709D01*
X018610Y016709D01*
X018660Y016709D02*
X018710Y016659D01*
X018758Y016684D02*
X018783Y016659D01*
X018833Y016659D01*
X018858Y016684D01*
X018858Y016709D01*
X018833Y016734D01*
X018758Y016734D01*
X018758Y016684D01*
X018758Y016734D02*
X018808Y016784D01*
X018858Y016809D01*
X018610Y016809D02*
X018610Y016659D01*
X020535Y016767D02*
X020535Y016917D01*
X020610Y016917D01*
X020635Y016892D01*
X020635Y016842D01*
X020610Y016817D01*
X020535Y016817D01*
X020585Y016817D02*
X020635Y016767D01*
X020682Y016767D02*
X020682Y016792D01*
X020782Y016892D01*
X020782Y016917D01*
X020682Y016917D01*
X021750Y016364D02*
X021750Y016214D01*
X021750Y016264D02*
X021825Y016264D01*
X021850Y016289D01*
X021850Y016339D01*
X021825Y016364D01*
X021750Y016364D01*
X021800Y016264D02*
X021850Y016214D01*
X021898Y016214D02*
X021998Y016314D01*
X021998Y016339D01*
X021973Y016364D01*
X021923Y016364D01*
X021898Y016339D01*
X021898Y016214D02*
X021998Y016214D01*
X022045Y016239D02*
X022070Y016214D01*
X022120Y016214D01*
X022145Y016239D01*
X022145Y016264D01*
X022120Y016289D01*
X022095Y016289D01*
X022120Y016289D02*
X022145Y016314D01*
X022145Y016339D01*
X022120Y016364D01*
X022070Y016364D01*
X022045Y016339D01*
X022563Y018040D02*
X022563Y018191D01*
X022638Y018191D01*
X022663Y018166D01*
X022663Y018115D01*
X022638Y018090D01*
X022563Y018090D01*
X022613Y018090D02*
X022663Y018040D01*
X022710Y018065D02*
X022710Y018090D01*
X022735Y018115D01*
X022785Y018115D01*
X022810Y018090D01*
X022810Y018065D01*
X022785Y018040D01*
X022735Y018040D01*
X022710Y018065D01*
X022735Y018115D02*
X022710Y018141D01*
X022710Y018166D01*
X022735Y018191D01*
X022785Y018191D01*
X022810Y018166D01*
X022810Y018141D01*
X022785Y018115D01*
X024021Y018296D02*
X024046Y018271D01*
X024096Y018271D01*
X024121Y018296D01*
X024168Y018271D02*
X024268Y018271D01*
X024218Y018271D02*
X024218Y018421D01*
X024168Y018371D01*
X024121Y018396D02*
X024096Y018421D01*
X024046Y018421D01*
X024021Y018396D01*
X024021Y018296D01*
X024316Y018346D02*
X024416Y018346D01*
X024391Y018271D02*
X024391Y018421D01*
X024316Y018346D01*
X024745Y019504D02*
X024745Y019654D01*
X024821Y019654D01*
X024846Y019629D01*
X024846Y019579D01*
X024821Y019554D01*
X024745Y019554D01*
X024796Y019554D02*
X024846Y019504D01*
X024893Y019504D02*
X024993Y019504D01*
X024943Y019504D02*
X024943Y019654D01*
X024893Y019604D01*
X025040Y019604D02*
X025065Y019579D01*
X025140Y019579D01*
X025140Y019629D02*
X025115Y019654D01*
X025065Y019654D01*
X025040Y019629D01*
X025040Y019604D01*
X025040Y019529D02*
X025065Y019504D01*
X025115Y019504D01*
X025140Y019529D01*
X025140Y019629D01*
X026681Y020960D02*
X026731Y020960D01*
X026706Y020960D02*
X026706Y021110D01*
X026681Y021110D02*
X026731Y021110D01*
X026780Y021085D02*
X026805Y021110D01*
X026855Y021110D01*
X026880Y021085D01*
X026927Y021110D02*
X026927Y021035D01*
X026977Y021060D01*
X027002Y021060D01*
X027027Y021035D01*
X027027Y020985D01*
X027002Y020960D01*
X026952Y020960D01*
X026927Y020985D01*
X026880Y020985D02*
X026855Y020960D01*
X026805Y020960D01*
X026780Y020985D01*
X026780Y021085D01*
X026927Y021110D02*
X027027Y021110D01*
X025446Y022369D02*
X025421Y022344D01*
X025371Y022344D01*
X025346Y022369D01*
X025299Y022344D02*
X025199Y022344D01*
X025299Y022444D01*
X025299Y022469D01*
X025274Y022494D01*
X025224Y022494D01*
X025199Y022469D01*
X025152Y022469D02*
X025127Y022494D01*
X025077Y022494D01*
X025052Y022469D01*
X025052Y022369D01*
X025077Y022344D01*
X025127Y022344D01*
X025152Y022369D01*
X025346Y022469D02*
X025371Y022494D01*
X025421Y022494D01*
X025446Y022469D01*
X025446Y022444D01*
X025421Y022419D01*
X025446Y022394D01*
X025446Y022369D01*
X025421Y022419D02*
X025396Y022419D01*
X022407Y025348D02*
X022307Y025348D01*
X022260Y025348D02*
X022160Y025348D01*
X022210Y025348D02*
X022210Y025498D01*
X022160Y025448D01*
X022112Y025473D02*
X022087Y025498D01*
X022037Y025498D01*
X022012Y025473D01*
X022012Y025373D01*
X022037Y025348D01*
X022087Y025348D01*
X022112Y025373D01*
X022307Y025448D02*
X022357Y025498D01*
X022357Y025348D01*
X014173Y024998D02*
X014173Y024948D01*
X014147Y024923D01*
X014173Y024875D02*
X014022Y024775D01*
X014022Y024875D02*
X014173Y024775D01*
X014047Y024923D02*
X014022Y024948D01*
X014022Y024998D01*
X014047Y025023D01*
X014072Y025023D01*
X014097Y024998D01*
X014122Y025023D01*
X014147Y025023D01*
X014173Y024998D01*
X014097Y024998D02*
X014097Y024973D01*
X013675Y025361D02*
X013650Y025336D01*
X013600Y025336D01*
X013575Y025361D01*
X013675Y025461D01*
X013675Y025361D01*
X013675Y025461D02*
X013650Y025486D01*
X013600Y025486D01*
X013575Y025461D01*
X013575Y025361D01*
X013527Y025336D02*
X013427Y025336D01*
X013477Y025336D02*
X013477Y025486D01*
X013427Y025436D01*
X013380Y025461D02*
X013355Y025486D01*
X013305Y025486D01*
X013280Y025461D01*
X013280Y025361D01*
X013305Y025336D01*
X013355Y025336D01*
X013380Y025361D01*
X011193Y023892D02*
X011093Y023792D01*
X011118Y023767D01*
X011168Y023767D01*
X011193Y023792D01*
X011193Y023892D01*
X011168Y023917D01*
X011118Y023917D01*
X011093Y023892D01*
X011093Y023792D01*
X011046Y023767D02*
X010946Y023767D01*
X010899Y023767D02*
X010849Y023817D01*
X010874Y023817D02*
X010799Y023817D01*
X010799Y023767D02*
X010799Y023917D01*
X010874Y023917D01*
X010899Y023892D01*
X010899Y023842D01*
X010874Y023817D01*
X010946Y023867D02*
X010996Y023917D01*
X010996Y023767D01*
X009880Y023975D02*
X009880Y024075D01*
X009880Y024122D02*
X009780Y024222D01*
X009755Y024222D01*
X009730Y024197D01*
X009730Y024147D01*
X009755Y024122D01*
X009880Y024122D02*
X009880Y024222D01*
X009880Y023975D02*
X009730Y023975D01*
X009735Y024899D02*
X009735Y024974D01*
X009760Y024999D01*
X009810Y024999D01*
X009835Y024974D01*
X009835Y024899D01*
X009885Y024899D02*
X009735Y024899D01*
X009835Y024949D02*
X009885Y024999D01*
X009885Y025047D02*
X009885Y025147D01*
X009885Y025097D02*
X009735Y025097D01*
X009785Y025047D01*
X001904Y017057D02*
X001904Y016907D01*
X001854Y016907D02*
X001954Y016907D01*
X001854Y017007D02*
X001904Y017057D01*
X001807Y017057D02*
X001757Y017057D01*
X001782Y017057D02*
X001782Y016932D01*
X001757Y016907D01*
X001732Y016907D01*
X001707Y016932D01*
X001660Y016907D02*
X001609Y016957D01*
X001634Y016957D02*
X001559Y016957D01*
X001559Y016907D02*
X001559Y017057D01*
X001634Y017057D01*
X001660Y017032D01*
X001660Y016982D01*
X001634Y016957D01*
X003647Y016813D02*
X003697Y016813D01*
X003672Y016813D02*
X003672Y016663D01*
X003647Y016663D02*
X003697Y016663D01*
X003745Y016688D02*
X003770Y016663D01*
X003820Y016663D01*
X003845Y016688D01*
X003893Y016688D02*
X003893Y016663D01*
X003893Y016688D02*
X003993Y016788D01*
X003993Y016813D01*
X003893Y016813D01*
X003845Y016788D02*
X003820Y016813D01*
X003770Y016813D01*
X003745Y016788D01*
X003745Y016688D01*
X006923Y016538D02*
X006923Y016438D01*
X006948Y016413D01*
X006998Y016413D01*
X007023Y016438D01*
X007070Y016413D02*
X007170Y016413D01*
X007120Y016413D02*
X007120Y016563D01*
X007070Y016513D01*
X007023Y016538D02*
X006998Y016563D01*
X006948Y016563D01*
X006923Y016538D01*
X007217Y016488D02*
X007292Y016488D01*
X007317Y016463D01*
X007317Y016438D01*
X007292Y016413D01*
X007242Y016413D01*
X007217Y016438D01*
X007217Y016488D01*
X007267Y016538D01*
X007317Y016563D01*
X007439Y013065D02*
X007514Y013065D01*
X007539Y013040D01*
X007539Y012990D01*
X007514Y012964D01*
X007439Y012964D01*
X007439Y012914D02*
X007439Y013065D01*
X007489Y012964D02*
X007539Y012914D01*
X007587Y012914D02*
X007687Y013015D01*
X007687Y013040D01*
X007662Y013065D01*
X007612Y013065D01*
X007587Y013040D01*
X007587Y012914D02*
X007687Y012914D01*
X007734Y012914D02*
X007834Y013015D01*
X007834Y013040D01*
X007809Y013065D01*
X007759Y013065D01*
X007734Y013040D01*
X007734Y012914D02*
X007834Y012914D01*
X006846Y009510D02*
X006796Y009510D01*
X006771Y009485D01*
X006723Y009485D02*
X006723Y009435D01*
X006698Y009410D01*
X006623Y009410D01*
X006673Y009410D02*
X006723Y009360D01*
X006771Y009360D02*
X006871Y009460D01*
X006871Y009485D01*
X006846Y009510D01*
X006723Y009485D02*
X006698Y009510D01*
X006623Y009510D01*
X006623Y009360D01*
X006771Y009360D02*
X006871Y009360D01*
X007435Y009366D02*
X007460Y009341D01*
X007510Y009341D01*
X007535Y009366D01*
X007582Y009366D02*
X007607Y009341D01*
X007657Y009341D01*
X007682Y009366D01*
X007682Y009416D01*
X007657Y009441D01*
X007632Y009441D01*
X007582Y009416D01*
X007582Y009491D01*
X007682Y009491D01*
X007535Y009466D02*
X007510Y009491D01*
X007460Y009491D01*
X007435Y009466D01*
X007435Y009366D01*
X005039Y007071D02*
X005039Y007046D01*
X005014Y007021D01*
X004964Y007021D01*
X004939Y007046D01*
X004939Y007071D01*
X004964Y007096D01*
X005014Y007096D01*
X005039Y007071D01*
X005014Y007021D02*
X005039Y006996D01*
X005039Y006971D01*
X005014Y006946D01*
X004964Y006946D01*
X004939Y006971D01*
X004939Y006996D01*
X004964Y007021D01*
X004891Y007046D02*
X004891Y007071D01*
X004866Y007096D01*
X004816Y007096D01*
X004791Y007071D01*
X004744Y007071D02*
X004744Y007021D01*
X004719Y006996D01*
X004644Y006996D01*
X004644Y006946D02*
X004644Y007096D01*
X004719Y007096D01*
X004744Y007071D01*
X004694Y006996D02*
X004744Y006946D01*
X004791Y006946D02*
X004891Y007046D01*
X004891Y006946D02*
X004791Y006946D01*
X001465Y007891D02*
X001465Y007916D01*
X001440Y007941D01*
X001365Y007941D01*
X001365Y007891D01*
X001390Y007866D01*
X001440Y007866D01*
X001465Y007891D01*
X001415Y007991D02*
X001365Y007941D01*
X001318Y007966D02*
X001318Y007991D01*
X001293Y008016D01*
X001243Y008016D01*
X001218Y007991D01*
X001170Y007991D02*
X001170Y007941D01*
X001145Y007916D01*
X001070Y007916D01*
X001070Y007866D02*
X001070Y008016D01*
X001145Y008016D01*
X001170Y007991D01*
X001120Y007916D02*
X001170Y007866D01*
X001218Y007866D02*
X001318Y007966D01*
X001415Y007991D02*
X001465Y008016D01*
X001318Y007866D02*
X001218Y007866D01*
X001189Y009718D02*
X001289Y009818D01*
X001289Y009843D01*
X001264Y009868D01*
X001214Y009868D01*
X001189Y009843D01*
X001142Y009843D02*
X001142Y009793D01*
X001117Y009768D01*
X001042Y009768D01*
X001092Y009768D02*
X001142Y009718D01*
X001189Y009718D02*
X001289Y009718D01*
X001336Y009718D02*
X001336Y009743D01*
X001436Y009843D01*
X001436Y009868D01*
X001336Y009868D01*
X001142Y009843D02*
X001117Y009868D01*
X001042Y009868D01*
X001042Y009718D01*
X000733Y005773D02*
X000758Y005748D01*
X000758Y005698D01*
X000733Y005673D01*
X000683Y005673D02*
X000658Y005723D01*
X000658Y005748D01*
X000683Y005773D01*
X000733Y005773D01*
X000683Y005673D02*
X000608Y005673D01*
X000608Y005773D01*
X000633Y005626D02*
X000608Y005601D01*
X000608Y005551D01*
X000633Y005526D01*
X000633Y005479D02*
X000683Y005479D01*
X000708Y005454D01*
X000708Y005379D01*
X000708Y005429D02*
X000758Y005479D01*
X000758Y005526D02*
X000658Y005626D01*
X000633Y005626D01*
X000758Y005626D02*
X000758Y005526D01*
X000633Y005479D02*
X000608Y005454D01*
X000608Y005379D01*
X000758Y005379D01*
X004429Y003166D02*
X004429Y003015D01*
X004429Y003065D02*
X004504Y003065D01*
X004529Y003090D01*
X004529Y003140D01*
X004504Y003166D01*
X004429Y003166D01*
X004479Y003065D02*
X004529Y003015D01*
X004576Y003015D02*
X004676Y003115D01*
X004676Y003140D01*
X004651Y003166D01*
X004601Y003166D01*
X004576Y003140D01*
X004576Y003015D02*
X004676Y003015D01*
X004723Y003040D02*
X004823Y003140D01*
X004823Y003040D01*
X004798Y003015D01*
X004748Y003015D01*
X004723Y003040D01*
X004723Y003140D01*
X004748Y003166D01*
X004798Y003166D01*
X004823Y003140D01*
X004801Y001213D02*
X004801Y001063D01*
X004751Y001063D02*
X004851Y001063D01*
X004751Y001163D02*
X004801Y001213D01*
X004704Y001188D02*
X004679Y001213D01*
X004628Y001213D01*
X004603Y001188D01*
X004556Y001188D02*
X004556Y001138D01*
X004531Y001113D01*
X004456Y001113D01*
X004506Y001113D02*
X004556Y001063D01*
X004603Y001063D02*
X004704Y001163D01*
X004704Y001188D01*
X004704Y001063D02*
X004603Y001063D01*
X004556Y001188D02*
X004531Y001213D01*
X004456Y001213D01*
X004456Y001063D01*
X014857Y001526D02*
X014882Y001501D01*
X014932Y001501D01*
X014957Y001526D01*
X015005Y001501D02*
X015105Y001501D01*
X015055Y001501D02*
X015055Y001651D01*
X015005Y001601D01*
X014957Y001626D02*
X014932Y001651D01*
X014882Y001651D01*
X014857Y001626D01*
X014857Y001526D01*
X019948Y009519D02*
X019948Y009669D01*
X020023Y009669D01*
X020048Y009644D01*
X020048Y009594D01*
X020023Y009569D01*
X019948Y009569D01*
X019998Y009569D02*
X020048Y009519D01*
X020096Y009519D02*
X020196Y009519D01*
X020243Y009519D02*
X020343Y009519D01*
X020293Y009519D02*
X020293Y009669D01*
X020243Y009619D01*
X020146Y009669D02*
X020146Y009519D01*
X020096Y009619D02*
X020146Y009669D01*
X024408Y011991D02*
X024433Y011966D01*
X024458Y011966D01*
X024483Y011991D01*
X024483Y012116D01*
X024458Y012116D02*
X024508Y012116D01*
X024555Y012091D02*
X024580Y012116D01*
X024630Y012116D01*
X024655Y012091D01*
X024655Y012066D01*
X024555Y011966D01*
X024655Y011966D01*
X022283Y014285D02*
X022283Y014310D01*
X022383Y014410D01*
X022383Y014435D01*
X022283Y014435D01*
X022236Y014410D02*
X022211Y014435D01*
X022161Y014435D01*
X022136Y014410D01*
X022136Y014310D01*
X022161Y014285D01*
X022211Y014285D01*
X022236Y014310D01*
X021518Y014349D02*
X021418Y014349D01*
X021493Y014424D01*
X021493Y014274D01*
X021371Y014274D02*
X021321Y014324D01*
X021346Y014324D02*
X021271Y014324D01*
X021271Y014274D02*
X021271Y014424D01*
X021346Y014424D01*
X021371Y014399D01*
X021371Y014349D01*
X021346Y014324D01*
X026637Y015487D02*
X026637Y015637D01*
X026712Y015637D01*
X026737Y015612D01*
X026737Y015562D01*
X026712Y015537D01*
X026637Y015537D01*
X026687Y015537D02*
X026737Y015487D01*
X026784Y015512D02*
X026809Y015487D01*
X026859Y015487D01*
X026884Y015512D01*
X026884Y015537D01*
X026859Y015562D01*
X026834Y015562D01*
X026859Y015562D02*
X026884Y015587D01*
X026884Y015612D01*
X026859Y015637D01*
X026809Y015637D01*
X026784Y015612D01*
X027809Y005530D02*
X027884Y005530D01*
X027909Y005505D01*
X027909Y005404D01*
X027884Y005379D01*
X027809Y005379D01*
X027809Y005530D01*
X027956Y005479D02*
X028006Y005530D01*
X028006Y005379D01*
X027956Y005379D02*
X028056Y005379D01*
X001849Y013768D02*
X001749Y013768D01*
X001824Y013843D01*
X001824Y013693D01*
X001702Y013693D02*
X001601Y013693D01*
X001554Y013693D02*
X001504Y013743D01*
X001529Y013743D02*
X001454Y013743D01*
X001454Y013693D02*
X001454Y013843D01*
X001529Y013843D01*
X001554Y013818D01*
X001554Y013768D01*
X001529Y013743D01*
X001601Y013793D02*
X001652Y013843D01*
X001652Y013693D01*
D16*
X002774Y011228D02*
X002821Y011228D01*
X002798Y011228D02*
X002798Y011112D01*
X002774Y011088D01*
X002751Y011088D01*
X002727Y011112D01*
X002875Y011088D02*
X002968Y011088D01*
X002922Y011088D02*
X002922Y011228D01*
X002875Y011182D01*
X004759Y009755D02*
X004806Y009755D01*
X004782Y009755D02*
X004782Y009638D01*
X004759Y009615D01*
X004735Y009615D01*
X004712Y009638D01*
X004859Y009638D02*
X004883Y009615D01*
X004930Y009615D01*
X004953Y009638D01*
X004953Y009662D01*
X004930Y009685D01*
X004906Y009685D01*
X004930Y009685D02*
X004953Y009709D01*
X004953Y009732D01*
X004930Y009755D01*
X004883Y009755D01*
X004859Y009732D01*
X012110Y013493D02*
X012157Y013493D01*
X012134Y013493D02*
X012134Y013634D01*
X012157Y013634D02*
X012110Y013634D01*
X012209Y013610D02*
X012209Y013517D01*
X012232Y013493D01*
X012279Y013493D01*
X012302Y013517D01*
X012356Y013493D02*
X012449Y013493D01*
X012403Y013493D02*
X012403Y013634D01*
X012356Y013587D01*
X012302Y013610D02*
X012279Y013634D01*
X012232Y013634D01*
X012209Y013610D01*
X015092Y015348D02*
X015232Y015441D01*
X015232Y015495D02*
X015138Y015589D01*
X015115Y015589D01*
X015092Y015565D01*
X015092Y015519D01*
X015115Y015495D01*
X015092Y015441D02*
X015232Y015348D01*
X015232Y015495D02*
X015232Y015589D01*
X015912Y012792D02*
X015875Y012755D01*
X015875Y012608D01*
X015912Y012572D01*
X015985Y012572D01*
X016022Y012608D01*
X016096Y012572D02*
X016243Y012572D01*
X016169Y012572D02*
X016169Y012792D01*
X016096Y012719D01*
X016022Y012755D02*
X015985Y012792D01*
X015912Y012792D01*
X016317Y012755D02*
X016317Y012719D01*
X016354Y012682D01*
X016427Y012682D01*
X016464Y012645D01*
X016464Y012608D01*
X016427Y012572D01*
X016354Y012572D01*
X016317Y012608D01*
X016317Y012645D01*
X016354Y012682D01*
X016427Y012682D02*
X016464Y012719D01*
X016464Y012755D01*
X016427Y012792D01*
X016354Y012792D01*
X016317Y012755D01*
X022983Y017367D02*
X023006Y017343D01*
X023029Y017343D01*
X023053Y017367D01*
X023053Y017483D01*
X023076Y017483D02*
X023029Y017483D01*
X023130Y017483D02*
X023130Y017413D01*
X023177Y017437D01*
X023200Y017437D01*
X023224Y017413D01*
X023224Y017367D01*
X023200Y017343D01*
X023153Y017343D01*
X023130Y017367D01*
X023130Y017483D02*
X023224Y017483D01*
X014550Y004469D02*
X014573Y004445D01*
X014573Y004422D01*
X014550Y004399D01*
X014573Y004375D01*
X014573Y004352D01*
X014550Y004328D01*
X014503Y004328D01*
X014480Y004352D01*
X014426Y004352D02*
X014402Y004328D01*
X014356Y004328D01*
X014332Y004352D01*
X014332Y004445D01*
X014356Y004469D01*
X014402Y004469D01*
X014426Y004445D01*
X014480Y004445D02*
X014503Y004469D01*
X014550Y004469D01*
X014550Y004399D02*
X014526Y004399D01*
X023967Y003481D02*
X023990Y003458D01*
X024014Y003458D01*
X024037Y003481D01*
X024037Y003598D01*
X024014Y003598D02*
X024060Y003598D01*
X024114Y003528D02*
X024208Y003528D01*
X024184Y003598D02*
X024114Y003528D01*
X024184Y003458D02*
X024184Y003598D01*
D17*
X010278Y005422D02*
X010278Y001411D01*
X005323Y014664D02*
X002410Y014664D01*
X002410Y016554D02*
X005323Y016554D01*
D18*
X010574Y004757D03*
X010574Y004087D03*
X010574Y003417D03*
X010574Y002747D03*
X010574Y002077D03*
D19*
X007642Y006190D02*
X005642Y006190D01*
X005642Y007940D01*
X007642Y007940D01*
X007642Y006190D01*
X007642Y007940D02*
X007642Y008690D01*
X005642Y008690D01*
X005642Y007940D01*
X003956Y011865D02*
X003716Y012035D01*
X003616Y011975D01*
X003426Y012425D01*
X003976Y012295D02*
X003999Y012336D01*
X004020Y012379D01*
X004038Y012424D01*
X004053Y012469D01*
X004066Y012515D01*
X004076Y012562D01*
X004076Y012565D02*
X004376Y012615D01*
X004376Y012875D01*
X004076Y012935D01*
X003966Y013185D02*
X004146Y013445D01*
X003956Y013625D01*
X003696Y013445D01*
X003446Y013545D02*
X003396Y013865D01*
X003126Y013865D01*
X003076Y013545D01*
X002826Y013445D02*
X002566Y013625D01*
X002376Y013445D01*
X002556Y013185D01*
X002446Y012935D02*
X002146Y012875D01*
X002146Y012615D01*
X002446Y012565D01*
X002546Y012295D02*
X002386Y012055D01*
X002566Y011865D01*
X002806Y012035D01*
X002906Y011975D01*
X003106Y012425D01*
X002550Y012298D02*
X002522Y012348D01*
X002498Y012400D01*
X002477Y012453D01*
X002460Y012508D01*
X002447Y012564D01*
X002829Y013448D02*
X002874Y013473D01*
X002921Y013496D01*
X002969Y013515D01*
X003018Y013532D01*
X003068Y013545D01*
X003106Y012435D02*
X003073Y012453D01*
X003043Y012474D01*
X003014Y012498D01*
X002988Y012525D01*
X002966Y012554D01*
X002946Y012586D01*
X002929Y012619D01*
X002916Y012654D01*
X002907Y012690D01*
X002901Y012727D01*
X002899Y012764D01*
X002901Y012801D01*
X002906Y012838D01*
X002916Y012874D01*
X002928Y012909D01*
X002945Y012943D01*
X002964Y012974D01*
X002987Y013004D01*
X003013Y013031D01*
X003041Y013055D01*
X003072Y013076D01*
X003104Y013094D01*
X003138Y013109D01*
X003174Y013120D01*
X003210Y013128D01*
X003247Y013132D01*
X003285Y013132D01*
X003322Y013128D01*
X003358Y013120D01*
X003394Y013109D01*
X003428Y013094D01*
X003460Y013076D01*
X003491Y013055D01*
X003519Y013031D01*
X003545Y013004D01*
X003568Y012974D01*
X003587Y012943D01*
X003604Y012909D01*
X003616Y012874D01*
X003626Y012838D01*
X003631Y012801D01*
X003633Y012764D01*
X003631Y012727D01*
X003625Y012690D01*
X003616Y012654D01*
X003603Y012619D01*
X003586Y012586D01*
X003566Y012554D01*
X003544Y012525D01*
X003518Y012498D01*
X003489Y012474D01*
X003459Y012453D01*
X003426Y012435D01*
X004075Y012935D02*
X004060Y012987D01*
X004041Y013038D01*
X004019Y013088D01*
X003994Y013136D01*
X003965Y013183D01*
X003700Y013446D02*
X003653Y013473D01*
X003604Y013496D01*
X003554Y013516D01*
X003503Y013533D01*
X003451Y013547D01*
X002557Y013180D02*
X002530Y013133D01*
X002506Y013086D01*
X002485Y013037D01*
X002467Y012986D01*
X002453Y012935D01*
X003976Y012295D02*
X004146Y012055D01*
X003956Y011865D01*
X018191Y011904D02*
X018941Y011904D01*
X018941Y015904D01*
X020691Y015904D01*
X020691Y011904D01*
X018941Y011904D01*
X018191Y011904D02*
X018191Y015904D01*
X018941Y015904D01*
X022866Y016440D02*
X022866Y014690D01*
X024866Y014690D01*
X024866Y016440D01*
X022866Y016440D01*
X022866Y017190D01*
X024866Y017190D01*
X024866Y016440D01*
X021789Y005292D02*
X020289Y005292D01*
X018539Y004242D01*
X018539Y002742D02*
X020289Y001692D01*
X021789Y001692D01*
X023539Y002742D01*
X023539Y004242D02*
X021789Y005292D01*
X022539Y002792D02*
X022503Y002721D01*
X022464Y002651D01*
X022422Y002583D01*
X022377Y002517D01*
X022328Y002454D01*
X022276Y002393D01*
X022222Y002335D01*
X022165Y002279D01*
X022105Y002226D01*
X022043Y002176D01*
X021978Y002129D01*
X021911Y002085D01*
X021842Y002045D01*
X021771Y002008D01*
X021699Y001974D01*
X021625Y001944D01*
X021550Y001918D01*
X021473Y001895D01*
X021396Y001876D01*
X021317Y001861D01*
X021238Y001849D01*
X021159Y001841D01*
X021079Y001837D01*
X020999Y001837D01*
X020919Y001841D01*
X020840Y001849D01*
X020761Y001861D01*
X020682Y001876D01*
X020605Y001895D01*
X020528Y001918D01*
X020453Y001944D01*
X020379Y001974D01*
X020307Y002008D01*
X020236Y002045D01*
X020167Y002085D01*
X020100Y002129D01*
X020035Y002176D01*
X019973Y002226D01*
X019913Y002279D01*
X019856Y002335D01*
X019802Y002393D01*
X019750Y002454D01*
X019701Y002517D01*
X019656Y002583D01*
X019614Y002651D01*
X019575Y002721D01*
X019539Y002792D01*
X019539Y004192D02*
X019575Y004263D01*
X019614Y004333D01*
X019656Y004401D01*
X019701Y004467D01*
X019750Y004530D01*
X019802Y004591D01*
X019856Y004649D01*
X019913Y004705D01*
X019973Y004758D01*
X020035Y004808D01*
X020100Y004855D01*
X020167Y004899D01*
X020236Y004939D01*
X020307Y004976D01*
X020379Y005010D01*
X020453Y005040D01*
X020528Y005066D01*
X020605Y005089D01*
X020682Y005108D01*
X020761Y005123D01*
X020840Y005135D01*
X020919Y005143D01*
X020999Y005147D01*
X021079Y005147D01*
X021159Y005143D01*
X021238Y005135D01*
X021317Y005123D01*
X021396Y005108D01*
X021473Y005089D01*
X021550Y005066D01*
X021625Y005040D01*
X021699Y005010D01*
X021771Y004976D01*
X021842Y004939D01*
X021911Y004899D01*
X021978Y004855D01*
X022043Y004808D01*
X022105Y004758D01*
X022165Y004705D01*
X022222Y004649D01*
X022276Y004591D01*
X022328Y004530D01*
X022377Y004467D01*
X022422Y004401D01*
X022464Y004333D01*
X022503Y004263D01*
X022539Y004192D01*
D20*
X023347Y004171D02*
X023647Y004171D01*
X023497Y004171D02*
X023497Y004622D01*
X023347Y004471D01*
X021185Y005786D02*
X028044Y005786D01*
X028024Y005786D02*
X028024Y011857D01*
X021185Y011857D01*
X021185Y005786D01*
X027897Y004396D02*
X028197Y004396D01*
X028122Y004171D02*
X028122Y004622D01*
X027897Y004396D01*
X009805Y017227D02*
X001305Y017227D01*
X001305Y023527D01*
X009805Y023527D01*
X009805Y017227D01*
X001719Y010993D02*
X001719Y010843D01*
X001644Y010768D01*
X001344Y011068D01*
X001644Y011068D01*
X001719Y010993D01*
X001644Y010768D02*
X001344Y010768D01*
X001269Y010843D01*
X001269Y010993D01*
X001344Y011068D01*
X001719Y010608D02*
X001719Y010308D01*
X001719Y010458D02*
X001269Y010458D01*
X001419Y010308D01*
X004519Y006608D02*
X004519Y006308D01*
X004519Y006458D02*
X004069Y006458D01*
X004219Y006308D01*
X003159Y004876D02*
X003009Y004876D01*
X002934Y004801D01*
X002934Y004501D01*
X003234Y004801D01*
X003234Y004501D01*
X003159Y004426D01*
X003009Y004426D01*
X002934Y004501D01*
X002624Y004426D02*
X002624Y004876D01*
X002774Y004876D02*
X002473Y004876D01*
X002313Y004801D02*
X002238Y004876D01*
X002088Y004876D01*
X002013Y004801D01*
X002013Y004501D01*
X002088Y004426D01*
X002238Y004426D01*
X002313Y004501D01*
X002313Y004801D01*
X001853Y004801D02*
X001853Y004501D01*
X001778Y004426D01*
X001628Y004426D01*
X001553Y004501D01*
X001553Y004801D01*
X001628Y004876D01*
X001778Y004876D01*
X001853Y004801D01*
X001393Y004801D02*
X001393Y004726D01*
X001317Y004651D01*
X001092Y004651D01*
X001092Y004426D02*
X001092Y004876D01*
X001317Y004876D01*
X001393Y004801D01*
X001317Y004651D02*
X001393Y004576D01*
X001393Y004501D01*
X001317Y004426D01*
X001092Y004426D01*
X000742Y003976D02*
X000742Y003526D01*
X000592Y003526D02*
X000893Y003526D01*
X000592Y003826D02*
X000742Y003976D01*
X001069Y002951D02*
X001294Y002951D01*
X001369Y002876D01*
X001369Y002801D01*
X001294Y002726D01*
X001069Y002726D01*
X001069Y002951D02*
X001069Y002500D01*
X001294Y002500D01*
X001369Y002575D01*
X001369Y002650D01*
X001294Y002726D01*
X001529Y002876D02*
X001529Y002575D01*
X001604Y002500D01*
X001754Y002500D01*
X001829Y002575D01*
X001829Y002876D01*
X001754Y002951D01*
X001604Y002951D01*
X001529Y002876D01*
X001989Y002876D02*
X001989Y002575D01*
X002064Y002500D01*
X002215Y002500D01*
X002290Y002575D01*
X002290Y002876D01*
X002215Y002951D01*
X002064Y002951D01*
X001989Y002876D01*
X002450Y002951D02*
X002750Y002951D01*
X002600Y002951D02*
X002600Y002500D01*
X002910Y002500D02*
X003210Y002500D01*
X003060Y002500D02*
X003060Y002951D01*
X002910Y002801D01*
X000869Y001600D02*
X000569Y001600D01*
X000719Y001600D02*
X000719Y002051D01*
X000569Y001901D01*
X003234Y004801D02*
X003159Y004876D01*
D21*
X020197Y007880D03*
X020670Y007880D03*
X027063Y013581D03*
X027536Y013581D03*
D22*
X027300Y013581D03*
X020433Y007880D03*
D23*
X025388Y023320D03*
X025388Y023690D03*
X025068Y024790D03*
X026488Y025700D03*
D24*
X026478Y025690D03*
X026438Y023820D03*
X026438Y023320D03*
X025398Y023830D03*
D25*
X025388Y023860D03*
X025278Y023590D03*
X025268Y023580D03*
X025258Y023550D03*
X025258Y023450D03*
X025268Y023430D03*
X025498Y023420D03*
X025508Y023430D03*
X025518Y023450D03*
X025518Y023560D03*
X025508Y023580D03*
X025738Y023510D03*
X025738Y023470D03*
X025738Y023430D03*
X025738Y023390D03*
X025738Y023350D03*
X025738Y023670D03*
X025738Y023710D03*
X025738Y023750D03*
X025738Y023790D03*
X026298Y023700D03*
X026308Y023720D03*
X026288Y023480D03*
X026288Y023470D03*
X026588Y023470D03*
X026568Y023680D03*
X026568Y023690D03*
X025038Y023660D03*
X025038Y023650D03*
X025038Y023640D03*
X024748Y023650D03*
X024748Y023610D03*
X024748Y023690D03*
X024748Y023490D03*
X024748Y023450D03*
X024748Y023410D03*
X024748Y023370D03*
X024748Y023330D03*
X026448Y025660D03*
D26*
X026433Y025630D03*
X026543Y023730D03*
X026563Y023520D03*
X026313Y023430D03*
X025393Y023330D03*
X025063Y023330D03*
X025063Y023340D03*
X025053Y023350D03*
X025053Y023360D03*
X025043Y023370D03*
X025033Y023390D03*
X025023Y023400D03*
X025023Y023410D03*
X025013Y023420D03*
X025013Y023430D03*
X025003Y023440D03*
X025003Y023450D03*
X024993Y023460D03*
X024993Y023470D03*
X024983Y023480D03*
X024973Y023490D03*
X024963Y023500D03*
X024953Y023510D03*
X025023Y023700D03*
D27*
X025033Y023680D03*
X025043Y023670D03*
X025033Y023630D03*
X025283Y023600D03*
X025273Y023420D03*
X025283Y023410D03*
X025493Y023410D03*
X025503Y023590D03*
X025493Y023600D03*
X025733Y023650D03*
X025733Y023660D03*
X025733Y023680D03*
X025733Y023690D03*
X025733Y023700D03*
X025733Y023720D03*
X025733Y023730D03*
X025733Y023740D03*
X025733Y023760D03*
X025733Y023770D03*
X025733Y023780D03*
X025733Y023800D03*
X025733Y023810D03*
X025733Y023520D03*
X025733Y023500D03*
X025733Y023490D03*
X025733Y023480D03*
X025733Y023460D03*
X025733Y023450D03*
X025733Y023440D03*
X025733Y023420D03*
X025733Y023410D03*
X025733Y023400D03*
X025733Y023380D03*
X025733Y023370D03*
X025733Y023360D03*
X025733Y023340D03*
X025733Y023330D03*
X026053Y023330D03*
X026053Y023340D03*
X026053Y023350D03*
X026053Y023360D03*
X026053Y023370D03*
X026053Y023380D03*
X026053Y023390D03*
X026053Y023400D03*
X026053Y023410D03*
X026053Y023420D03*
X026053Y023430D03*
X026053Y023440D03*
X026053Y023450D03*
X026053Y023460D03*
X026053Y023470D03*
X026053Y023480D03*
X026053Y023490D03*
X026053Y023500D03*
X026053Y023510D03*
X026053Y023520D03*
X026053Y023650D03*
X026053Y023660D03*
X026053Y023670D03*
X026053Y023680D03*
X026053Y023690D03*
X026053Y023700D03*
X026053Y023710D03*
X026053Y023720D03*
X026053Y023730D03*
X026053Y023740D03*
X026053Y023750D03*
X026053Y023760D03*
X026053Y023770D03*
X026053Y023780D03*
X026053Y023790D03*
X026053Y023800D03*
X026053Y023810D03*
X026303Y023680D03*
X026313Y023670D03*
X026293Y023460D03*
X026573Y023440D03*
X026583Y023450D03*
X026583Y023460D03*
X026583Y023480D03*
X026583Y023490D03*
X026583Y023500D03*
X026563Y023700D03*
X026563Y023710D03*
X026553Y023720D03*
X025053Y024760D03*
X024743Y023700D03*
X024743Y023680D03*
X024753Y023670D03*
X024743Y023660D03*
X024743Y023640D03*
X024753Y023630D03*
X024743Y023620D03*
X024753Y023510D03*
X024743Y023500D03*
X024743Y023480D03*
X024753Y023470D03*
X024743Y023460D03*
X024743Y023440D03*
X024753Y023430D03*
X024743Y023420D03*
X024743Y023400D03*
X024753Y023390D03*
X024743Y023380D03*
X024743Y023360D03*
X024753Y023350D03*
X024743Y023340D03*
X026453Y025650D03*
D28*
X026418Y025610D03*
X026438Y023810D03*
X026548Y023530D03*
X026438Y023330D03*
D29*
X025388Y023340D03*
X025388Y023910D03*
D30*
X025383Y023930D03*
X025393Y023350D03*
X026433Y023340D03*
X026523Y023540D03*
X026433Y023800D03*
X025023Y024710D03*
X026383Y025560D03*
X026393Y025570D03*
D31*
X026358Y025520D03*
X025378Y023960D03*
X025388Y023640D03*
X025388Y023370D03*
X024828Y023810D03*
X026438Y023350D03*
X026488Y023560D03*
D32*
X026438Y023790D03*
X025388Y023650D03*
X025388Y023360D03*
X025018Y024700D03*
X026368Y025530D03*
X026368Y025540D03*
D33*
X026343Y025490D03*
X026433Y023770D03*
X026433Y023600D03*
X026453Y023590D03*
X026453Y023580D03*
X026433Y023360D03*
X025373Y023980D03*
D34*
X025388Y023620D03*
X025388Y023610D03*
X025388Y023400D03*
X025388Y023390D03*
X026438Y023370D03*
X024998Y024670D03*
X026328Y025480D03*
D35*
X025388Y023880D03*
X025038Y023380D03*
X026328Y023660D03*
D36*
X026418Y023610D03*
X025388Y023630D03*
X025388Y023380D03*
X024838Y023530D03*
X025378Y023970D03*
X025008Y024680D03*
X026348Y025500D03*
D37*
X026318Y025460D03*
X024998Y024660D03*
X024848Y023800D03*
X026438Y023750D03*
X026438Y023380D03*
D38*
X026438Y023390D03*
X024988Y024650D03*
X024868Y023790D03*
X026308Y025430D03*
X026308Y025440D03*
D39*
X025373Y024010D03*
X024873Y023570D03*
X024863Y023560D03*
X026433Y023400D03*
D40*
X026438Y023410D03*
X025368Y024020D03*
X025578Y024300D03*
X024878Y023770D03*
X024868Y023780D03*
X026298Y025410D03*
X026298Y025420D03*
D41*
X025593Y024320D03*
X024983Y024640D03*
X024883Y023590D03*
X024873Y023580D03*
X026433Y023420D03*
D42*
X026568Y023430D03*
X026578Y023510D03*
X026298Y023450D03*
X026298Y023440D03*
X026318Y023730D03*
X025388Y023680D03*
X025388Y023870D03*
X025038Y023690D03*
X025028Y023620D03*
X025018Y023610D03*
X025048Y024750D03*
X026438Y025640D03*
D43*
X026463Y025670D03*
X025393Y023850D03*
X025513Y023570D03*
X025523Y023550D03*
X025523Y023540D03*
X025523Y023530D03*
X025523Y023520D03*
X025523Y023510D03*
X025523Y023500D03*
X025523Y023490D03*
X025523Y023480D03*
X025523Y023470D03*
X025523Y023460D03*
X025513Y023440D03*
X025263Y023440D03*
X025253Y023460D03*
X025253Y023470D03*
X025253Y023480D03*
X025253Y023490D03*
X025253Y023500D03*
X025253Y023510D03*
X025253Y023520D03*
X025253Y023530D03*
X025253Y023540D03*
X025263Y023560D03*
X025263Y023570D03*
X026303Y023690D03*
X026303Y023710D03*
D44*
X026333Y023490D03*
X026503Y025720D03*
D45*
X026333Y025470D03*
X026433Y023760D03*
X025373Y023990D03*
X024843Y023540D03*
X024843Y023520D03*
D46*
X025363Y024060D03*
X025683Y024460D03*
X025693Y024470D03*
X024973Y024610D03*
X025893Y023640D03*
X025893Y023620D03*
X025893Y023610D03*
X025893Y023600D03*
X025893Y023580D03*
X025893Y023570D03*
X025893Y023550D03*
X025893Y023540D03*
X025893Y023530D03*
X026263Y025340D03*
D47*
X026323Y025450D03*
X025373Y024000D03*
X024863Y023550D03*
X026433Y023740D03*
D48*
X026503Y023550D03*
X025383Y023940D03*
X026383Y025550D03*
D49*
X026268Y025350D03*
X025678Y024450D03*
X025668Y024440D03*
X025668Y024430D03*
X025898Y023630D03*
X025898Y023590D03*
X025898Y023560D03*
D50*
X026403Y023620D03*
X026473Y023570D03*
X026433Y023780D03*
X026353Y025510D03*
D51*
X026283Y025380D03*
X025613Y024350D03*
X024893Y023730D03*
X024883Y023740D03*
X024893Y023710D03*
X024883Y023600D03*
D52*
X025383Y023950D03*
X025013Y024690D03*
X026393Y023630D03*
D53*
X026368Y023640D03*
D54*
X026353Y023650D03*
X025383Y023920D03*
X026403Y025590D03*
D55*
X026398Y025580D03*
X025028Y024720D03*
X025388Y023660D03*
D56*
X025393Y023670D03*
X025383Y023900D03*
X025033Y024730D03*
X026413Y025600D03*
D57*
X025398Y023790D03*
X026518Y023670D03*
D58*
X025628Y024370D03*
X025628Y024380D03*
X025638Y024390D03*
X025368Y024040D03*
X024888Y023720D03*
X026278Y025370D03*
D59*
X026288Y025390D03*
X026288Y025400D03*
X025618Y024360D03*
X025608Y024340D03*
X025598Y024330D03*
X025588Y024310D03*
X025368Y024030D03*
X024888Y023750D03*
X024878Y023760D03*
X024978Y024630D03*
D60*
X025403Y023770D03*
X026523Y025740D03*
D61*
X026513Y025730D03*
X025083Y024810D03*
X025403Y023780D03*
D62*
X025398Y023800D03*
X025078Y024800D03*
X026498Y025710D03*
D63*
X025403Y023810D03*
D64*
X025393Y023820D03*
D65*
X025393Y023840D03*
X025063Y024780D03*
X026473Y025680D03*
D66*
X026423Y025620D03*
X025043Y024740D03*
X025393Y023890D03*
D67*
X025363Y024050D03*
X025643Y024400D03*
X025653Y024410D03*
X025653Y024420D03*
X024973Y024620D03*
X026273Y025360D03*
D68*
X026253Y025320D03*
X025723Y024520D03*
X025723Y024510D03*
X025363Y024070D03*
X024963Y024600D03*
D69*
X025358Y024080D03*
X025738Y024530D03*
X025738Y024540D03*
X025748Y024550D03*
X026248Y025310D03*
D70*
X026238Y025280D03*
X025778Y024590D03*
X025768Y024580D03*
X025358Y024090D03*
X025098Y024310D03*
X024958Y024590D03*
D71*
X024948Y024580D03*
X025078Y024330D03*
X025358Y024100D03*
X025808Y024630D03*
X025818Y024640D03*
X026228Y025260D03*
D72*
X026218Y025240D03*
X025858Y024690D03*
X025848Y024680D03*
X025838Y024670D03*
X025358Y024110D03*
X025058Y024350D03*
X024948Y024570D03*
D73*
X025043Y024360D03*
X025353Y024120D03*
X025863Y024700D03*
X025873Y024710D03*
X026213Y025220D03*
X026223Y025230D03*
D74*
X026213Y025210D03*
X025903Y024750D03*
X025893Y024740D03*
X025353Y024130D03*
X025023Y024380D03*
D75*
X024998Y024410D03*
X024928Y024540D03*
X025348Y024140D03*
X025938Y024790D03*
X025948Y024800D03*
X025958Y024810D03*
D76*
X025963Y024820D03*
X026193Y025160D03*
X026203Y025170D03*
X025353Y024150D03*
D77*
X025343Y024160D03*
X024973Y024430D03*
X024923Y024530D03*
X025993Y024850D03*
X026193Y025140D03*
D78*
X026183Y025120D03*
X026023Y024880D03*
X026013Y024870D03*
X025343Y024170D03*
X024913Y024520D03*
D79*
X024913Y024510D03*
X025343Y024180D03*
X026043Y024900D03*
X026053Y024910D03*
X026183Y025100D03*
D80*
X026173Y025080D03*
X026073Y024930D03*
X026063Y024920D03*
X025343Y024190D03*
X024903Y024500D03*
D81*
X024903Y024480D03*
X025333Y024200D03*
X026173Y025060D03*
D82*
X026113Y024960D03*
X025343Y024210D03*
D83*
X025333Y024220D03*
X026163Y025020D03*
D84*
X026163Y025010D03*
X026163Y025000D03*
X025333Y024230D03*
D85*
X025333Y024240D03*
X026163Y024990D03*
D86*
X025333Y024250D03*
D87*
X025323Y024260D03*
D88*
X025323Y024270D03*
D89*
X025323Y024280D03*
D90*
X025318Y024290D03*
D91*
X025103Y024300D03*
X025753Y024560D03*
X025763Y024570D03*
X026243Y025290D03*
X026243Y025300D03*
D92*
X026233Y025270D03*
X025803Y024620D03*
X025793Y024610D03*
X025783Y024600D03*
X025083Y024320D03*
D93*
X025063Y024340D03*
X025823Y024650D03*
X025833Y024660D03*
X026223Y025250D03*
D94*
X025888Y024730D03*
X025878Y024720D03*
X025038Y024370D03*
X024938Y024560D03*
D95*
X024938Y024550D03*
X025018Y024390D03*
X025908Y024760D03*
X025928Y024780D03*
X026208Y025190D03*
X026208Y025200D03*
D96*
X026203Y025180D03*
X025923Y024770D03*
X025003Y024400D03*
D97*
X024978Y024420D03*
X025978Y024830D03*
X025978Y024840D03*
X026198Y025150D03*
D98*
X026188Y025130D03*
X025998Y024860D03*
X024958Y024440D03*
D99*
X024948Y024450D03*
X026028Y024890D03*
X026188Y025110D03*
D100*
X026178Y025090D03*
X024928Y024460D03*
D101*
X024918Y024470D03*
X026088Y024940D03*
X026178Y025070D03*
D102*
X026258Y025330D03*
X025708Y024500D03*
X025708Y024490D03*
X025698Y024480D03*
D103*
X026098Y024950D03*
X026168Y025050D03*
X024898Y024490D03*
D104*
X025058Y024770D03*
D105*
X025088Y024820D03*
D106*
X026128Y024970D03*
X026168Y025030D03*
X026168Y025040D03*
D107*
X026138Y024980D03*
D108*
X012225Y015758D02*
X012025Y015758D01*
X012025Y015358D02*
X012175Y015358D01*
D109*
X012240Y015358D03*
X012240Y015758D03*
M02*
