G75*
%MOIN*%
%OFA0B0*%
%FSLAX24Y24*%
%IPPOS*%
%LPD*%
%AMOC8*
5,1,8,0,0,1.08239X$1,22.5*
%
%ADD10R,0.0661X0.1291*%
%ADD11R,0.0700X0.0600*%
%ADD12R,0.0661X0.0661*%
%ADD13R,0.0283X0.0913*%
%ADD14C,0.0720*%
%ADD15C,0.1062*%
%ADD16R,0.0450X0.0300*%
%ADD17R,0.0693X0.0614*%
%ADD18R,0.0614X0.0693*%
%ADD19R,0.0630X0.0472*%
%ADD20R,0.4498X0.4652*%
%ADD21R,0.0934X0.0504*%
%ADD22R,0.1369X0.1318*%
%ADD23R,0.1291X0.0661*%
%ADD24C,0.0638*%
%ADD25C,0.1559*%
%ADD26R,0.0945X0.2323*%
%ADD27R,0.0567X0.0567*%
%ADD28C,0.0709*%
%ADD29C,0.1170*%
%ADD30C,0.1680*%
%ADD31R,0.2323X0.0945*%
%ADD32R,0.0472X0.0630*%
%ADD33R,0.0732X0.0614*%
%ADD34R,0.0913X0.0283*%
%ADD35C,0.0475*%
%ADD36C,0.0523*%
%ADD37R,0.0475X0.0475*%
D10*
X013698Y001259D03*
X013698Y003149D03*
D11*
X014486Y004434D03*
X014486Y005184D03*
D12*
X015782Y002428D03*
X017278Y002428D03*
X024368Y012643D03*
X025864Y012643D03*
D13*
X021311Y019002D03*
X020811Y019002D03*
X020311Y019002D03*
X019811Y019002D03*
X019311Y019002D03*
X018811Y019002D03*
X018311Y019002D03*
X017811Y019002D03*
X017311Y019002D03*
X016811Y019002D03*
X016311Y019002D03*
X015811Y019002D03*
X015311Y019002D03*
X014811Y019002D03*
X014811Y022624D03*
X015311Y022624D03*
X015811Y022624D03*
X016311Y022624D03*
X016811Y022624D03*
X017311Y022624D03*
X017811Y022624D03*
X018311Y022624D03*
X018811Y022624D03*
X019311Y022624D03*
X019811Y022624D03*
X020311Y022624D03*
X020811Y022624D03*
X021311Y022624D03*
X018767Y007789D03*
X018267Y007789D03*
X017767Y007789D03*
X017267Y007789D03*
X017267Y005742D03*
X017767Y005742D03*
X018267Y005742D03*
X018767Y005742D03*
D14*
X015974Y007002D03*
X014974Y007002D03*
X013974Y007002D03*
X012974Y007002D03*
X011974Y007002D03*
X010974Y007002D03*
X003607Y017339D03*
X003607Y018339D03*
X003607Y021539D03*
X003607Y022539D03*
X008057Y021689D03*
X009057Y021189D03*
X008057Y020689D03*
X009057Y020189D03*
X008057Y019689D03*
X009057Y019189D03*
X008057Y018689D03*
X009057Y018189D03*
X024407Y004206D03*
X025407Y004206D03*
X026407Y004206D03*
X027407Y004206D03*
X026669Y016182D03*
X026669Y017962D03*
D15*
X025689Y018452D03*
X025689Y015692D03*
D16*
X016643Y015748D03*
X016643Y015248D03*
X016643Y014748D03*
X016643Y014248D03*
X016643Y013748D03*
X016643Y013248D03*
X016643Y012748D03*
X016643Y012248D03*
X016643Y011748D03*
X016643Y011248D03*
X016643Y010748D03*
X016643Y010248D03*
X016643Y009748D03*
X016643Y009248D03*
X012643Y009248D03*
X012643Y009748D03*
X012643Y010248D03*
X012643Y010748D03*
X012643Y011248D03*
X012643Y011748D03*
X012643Y012248D03*
X012643Y012748D03*
X012643Y013248D03*
X012643Y013748D03*
X012643Y014248D03*
X012643Y014748D03*
X012643Y015248D03*
X012643Y015748D03*
D17*
X014761Y017013D03*
X014761Y017761D03*
X012895Y020340D03*
X012895Y021088D03*
X013486Y023683D03*
X013486Y024431D03*
X020628Y017773D03*
X020628Y017025D03*
X021376Y015809D03*
X021376Y015061D03*
X022214Y015069D03*
X022214Y015817D03*
X022608Y018257D03*
X022608Y019006D03*
X018789Y017572D03*
X018789Y016824D03*
X018306Y013466D03*
X018306Y012718D03*
X018294Y012060D03*
X018294Y011312D03*
X017714Y009998D03*
X017714Y009250D03*
X011419Y012891D03*
X011419Y013639D03*
X002647Y010738D03*
X002647Y009990D03*
X022222Y023687D03*
X022222Y024435D03*
D18*
X024911Y021427D03*
X025659Y021427D03*
X026439Y014592D03*
X027187Y014592D03*
X022565Y012155D03*
X021817Y012155D03*
X020439Y008620D03*
X019691Y008620D03*
X011663Y005332D03*
X010915Y005332D03*
X007301Y006824D03*
X006553Y006824D03*
X006557Y007781D03*
X007305Y007781D03*
X007305Y008757D03*
X006557Y008757D03*
X004450Y013592D03*
X003702Y013592D03*
X003742Y016084D03*
X004490Y016084D03*
X010576Y019194D03*
X011324Y019194D03*
X012446Y018840D03*
X013194Y018840D03*
X011336Y020706D03*
X010588Y020706D03*
X010616Y021844D03*
X011364Y021844D03*
X011364Y022887D03*
X010616Y022887D03*
X009218Y023663D03*
X008470Y023663D03*
X008490Y024592D03*
X009238Y024592D03*
D19*
X016246Y005230D03*
X016246Y004482D03*
X015380Y004856D03*
D20*
X008145Y002979D03*
D21*
X011425Y002979D03*
X011425Y003649D03*
X011425Y004319D03*
X011425Y002309D03*
X011425Y001639D03*
D22*
X018961Y003054D03*
X023119Y003054D03*
D23*
X024965Y002004D03*
X026855Y002004D03*
D24*
X023025Y006631D03*
X023021Y007628D03*
X023025Y008628D03*
X023025Y009620D03*
X022009Y010124D03*
X022009Y009108D03*
X022017Y008128D03*
X022025Y007135D03*
D25*
X025525Y006139D03*
X025525Y010628D03*
D26*
X019698Y010679D03*
X019698Y014419D03*
D27*
X020435Y007915D03*
X020435Y007088D03*
X027301Y012789D03*
X027301Y013616D03*
X003832Y005128D03*
X003006Y005128D03*
X002974Y003537D03*
X003801Y003537D03*
X003793Y001761D03*
X002966Y001761D03*
D28*
X008600Y007017D03*
X009600Y007017D03*
D29*
X006707Y016789D03*
X006707Y023089D03*
D30*
X005557Y022189D03*
X005557Y017689D03*
D31*
X015931Y024431D03*
X019671Y024431D03*
D32*
X025856Y019683D03*
X026604Y019683D03*
X026230Y020549D03*
D33*
X024927Y020450D03*
X024927Y019702D03*
X004250Y010702D03*
X004250Y009954D03*
D34*
X006057Y009783D03*
X006057Y010283D03*
X006057Y010783D03*
X006057Y011283D03*
X005730Y013441D03*
X005730Y013941D03*
X005730Y014441D03*
X005730Y014941D03*
X007777Y014941D03*
X007777Y014441D03*
X007777Y013941D03*
X007777Y013441D03*
X009679Y011283D03*
X009679Y010783D03*
X009679Y010283D03*
X009679Y009783D03*
D35*
X012525Y008706D03*
X015057Y009675D03*
X013698Y011718D03*
X013561Y012777D03*
X015624Y017163D03*
X013675Y017257D03*
X021104Y012151D03*
X021179Y009100D03*
D36*
X014710Y002438D03*
D37*
X000927Y000572D03*
X002242Y001789D03*
X002242Y003576D03*
X002202Y005128D03*
X002616Y009128D03*
X006218Y011820D03*
X005399Y012809D03*
X004124Y014415D03*
X004143Y014990D03*
X007773Y012061D03*
X009057Y012832D03*
X010726Y013702D03*
X010935Y014616D03*
X011950Y015580D03*
X013340Y016088D03*
X013009Y016856D03*
X013608Y015246D03*
X015537Y018159D03*
X016750Y017340D03*
X017250Y017340D03*
X017757Y017344D03*
X018108Y016702D03*
X017659Y015761D03*
X018387Y015683D03*
X018360Y014730D03*
X017277Y012754D03*
X017273Y012250D03*
X017313Y011754D03*
X017336Y011218D03*
X015950Y011907D03*
X015254Y011238D03*
X015824Y010761D03*
X015805Y010214D03*
X013824Y010820D03*
X013368Y009533D03*
X011998Y010273D03*
X011994Y011163D03*
X010698Y010793D03*
X006935Y009734D03*
X007293Y005970D03*
X008817Y005458D03*
X012368Y003647D03*
X012832Y005006D03*
X015454Y003982D03*
X016261Y005789D03*
X015474Y007769D03*
X016651Y008143D03*
X018281Y006978D03*
X019167Y005706D03*
X019824Y007069D03*
X018687Y008647D03*
X018958Y011281D03*
X019533Y012238D03*
X021155Y013376D03*
X023147Y015809D03*
X022631Y017639D03*
X024687Y018746D03*
X025572Y017376D03*
X026470Y021391D03*
X022305Y022872D03*
X020848Y023588D03*
X020332Y023580D03*
X019801Y023588D03*
X018317Y023592D03*
X015805Y023513D03*
X014332Y023769D03*
X013490Y022919D03*
X013757Y020691D03*
X012891Y019604D03*
X013950Y018939D03*
X013939Y018368D03*
X017757Y018002D03*
X019777Y017045D03*
X019848Y018100D03*
X027305Y011978D03*
X022167Y002411D03*
X009305Y015002D03*
X009639Y015616D03*
X008954Y015742D03*
X009513Y021820D03*
X008179Y022423D03*
X011210Y024065D03*
M02*
