G75*
%MOIN*%
%OFA0B0*%
%FSLAX24Y24*%
%IPPOS*%
%LPD*%
%AMOC8*
5,1,8,0,0,1.08239X$1,22.5*
%
%ADD10C,0.0000*%
D10*
X000179Y000100D02*
X028525Y000100D01*
X028502Y025887D01*
X000100Y025887D01*
X000179Y000100D01*
X004857Y017689D02*
X004859Y017741D01*
X004865Y017793D01*
X004875Y017845D01*
X004888Y017895D01*
X004905Y017945D01*
X004926Y017993D01*
X004951Y018039D01*
X004979Y018083D01*
X005010Y018125D01*
X005044Y018165D01*
X005081Y018202D01*
X005121Y018236D01*
X005163Y018267D01*
X005207Y018295D01*
X005253Y018320D01*
X005301Y018341D01*
X005351Y018358D01*
X005401Y018371D01*
X005453Y018381D01*
X005505Y018387D01*
X005557Y018389D01*
X005609Y018387D01*
X005661Y018381D01*
X005713Y018371D01*
X005763Y018358D01*
X005813Y018341D01*
X005861Y018320D01*
X005907Y018295D01*
X005951Y018267D01*
X005993Y018236D01*
X006033Y018202D01*
X006070Y018165D01*
X006104Y018125D01*
X006135Y018083D01*
X006163Y018039D01*
X006188Y017993D01*
X006209Y017945D01*
X006226Y017895D01*
X006239Y017845D01*
X006249Y017793D01*
X006255Y017741D01*
X006257Y017689D01*
X006255Y017637D01*
X006249Y017585D01*
X006239Y017533D01*
X006226Y017483D01*
X006209Y017433D01*
X006188Y017385D01*
X006163Y017339D01*
X006135Y017295D01*
X006104Y017253D01*
X006070Y017213D01*
X006033Y017176D01*
X005993Y017142D01*
X005951Y017111D01*
X005907Y017083D01*
X005861Y017058D01*
X005813Y017037D01*
X005763Y017020D01*
X005713Y017007D01*
X005661Y016997D01*
X005609Y016991D01*
X005557Y016989D01*
X005505Y016991D01*
X005453Y016997D01*
X005401Y017007D01*
X005351Y017020D01*
X005301Y017037D01*
X005253Y017058D01*
X005207Y017083D01*
X005163Y017111D01*
X005121Y017142D01*
X005081Y017176D01*
X005044Y017213D01*
X005010Y017253D01*
X004979Y017295D01*
X004951Y017339D01*
X004926Y017385D01*
X004905Y017433D01*
X004888Y017483D01*
X004875Y017533D01*
X004865Y017585D01*
X004859Y017637D01*
X004857Y017689D01*
X004857Y022189D02*
X004859Y022241D01*
X004865Y022293D01*
X004875Y022345D01*
X004888Y022395D01*
X004905Y022445D01*
X004926Y022493D01*
X004951Y022539D01*
X004979Y022583D01*
X005010Y022625D01*
X005044Y022665D01*
X005081Y022702D01*
X005121Y022736D01*
X005163Y022767D01*
X005207Y022795D01*
X005253Y022820D01*
X005301Y022841D01*
X005351Y022858D01*
X005401Y022871D01*
X005453Y022881D01*
X005505Y022887D01*
X005557Y022889D01*
X005609Y022887D01*
X005661Y022881D01*
X005713Y022871D01*
X005763Y022858D01*
X005813Y022841D01*
X005861Y022820D01*
X005907Y022795D01*
X005951Y022767D01*
X005993Y022736D01*
X006033Y022702D01*
X006070Y022665D01*
X006104Y022625D01*
X006135Y022583D01*
X006163Y022539D01*
X006188Y022493D01*
X006209Y022445D01*
X006226Y022395D01*
X006239Y022345D01*
X006249Y022293D01*
X006255Y022241D01*
X006257Y022189D01*
X006255Y022137D01*
X006249Y022085D01*
X006239Y022033D01*
X006226Y021983D01*
X006209Y021933D01*
X006188Y021885D01*
X006163Y021839D01*
X006135Y021795D01*
X006104Y021753D01*
X006070Y021713D01*
X006033Y021676D01*
X005993Y021642D01*
X005951Y021611D01*
X005907Y021583D01*
X005861Y021558D01*
X005813Y021537D01*
X005763Y021520D01*
X005713Y021507D01*
X005661Y021497D01*
X005609Y021491D01*
X005557Y021489D01*
X005505Y021491D01*
X005453Y021497D01*
X005401Y021507D01*
X005351Y021520D01*
X005301Y021537D01*
X005253Y021558D01*
X005207Y021583D01*
X005163Y021611D01*
X005121Y021642D01*
X005081Y021676D01*
X005044Y021713D01*
X005010Y021753D01*
X004979Y021795D01*
X004951Y021839D01*
X004926Y021885D01*
X004905Y021933D01*
X004888Y021983D01*
X004875Y022033D01*
X004865Y022085D01*
X004859Y022137D01*
X004857Y022189D01*
X024875Y010628D02*
X024877Y010678D01*
X024883Y010728D01*
X024893Y010778D01*
X024906Y010826D01*
X024923Y010874D01*
X024944Y010920D01*
X024968Y010964D01*
X024996Y011006D01*
X025027Y011046D01*
X025061Y011083D01*
X025098Y011118D01*
X025137Y011149D01*
X025178Y011178D01*
X025222Y011203D01*
X025268Y011225D01*
X025315Y011243D01*
X025363Y011257D01*
X025412Y011268D01*
X025462Y011275D01*
X025512Y011278D01*
X025563Y011277D01*
X025613Y011272D01*
X025663Y011263D01*
X025711Y011251D01*
X025759Y011234D01*
X025805Y011214D01*
X025850Y011191D01*
X025893Y011164D01*
X025933Y011134D01*
X025971Y011101D01*
X026006Y011065D01*
X026039Y011026D01*
X026068Y010985D01*
X026094Y010942D01*
X026117Y010897D01*
X026136Y010850D01*
X026151Y010802D01*
X026163Y010753D01*
X026171Y010703D01*
X026175Y010653D01*
X026175Y010603D01*
X026171Y010553D01*
X026163Y010503D01*
X026151Y010454D01*
X026136Y010406D01*
X026117Y010359D01*
X026094Y010314D01*
X026068Y010271D01*
X026039Y010230D01*
X026006Y010191D01*
X025971Y010155D01*
X025933Y010122D01*
X025893Y010092D01*
X025850Y010065D01*
X025805Y010042D01*
X025759Y010022D01*
X025711Y010005D01*
X025663Y009993D01*
X025613Y009984D01*
X025563Y009979D01*
X025512Y009978D01*
X025462Y009981D01*
X025412Y009988D01*
X025363Y009999D01*
X025315Y010013D01*
X025268Y010031D01*
X025222Y010053D01*
X025178Y010078D01*
X025137Y010107D01*
X025098Y010138D01*
X025061Y010173D01*
X025027Y010210D01*
X024996Y010250D01*
X024968Y010292D01*
X024944Y010336D01*
X024923Y010382D01*
X024906Y010430D01*
X024893Y010478D01*
X024883Y010528D01*
X024877Y010578D01*
X024875Y010628D01*
X024875Y006139D02*
X024877Y006189D01*
X024883Y006239D01*
X024893Y006289D01*
X024906Y006337D01*
X024923Y006385D01*
X024944Y006431D01*
X024968Y006475D01*
X024996Y006517D01*
X025027Y006557D01*
X025061Y006594D01*
X025098Y006629D01*
X025137Y006660D01*
X025178Y006689D01*
X025222Y006714D01*
X025268Y006736D01*
X025315Y006754D01*
X025363Y006768D01*
X025412Y006779D01*
X025462Y006786D01*
X025512Y006789D01*
X025563Y006788D01*
X025613Y006783D01*
X025663Y006774D01*
X025711Y006762D01*
X025759Y006745D01*
X025805Y006725D01*
X025850Y006702D01*
X025893Y006675D01*
X025933Y006645D01*
X025971Y006612D01*
X026006Y006576D01*
X026039Y006537D01*
X026068Y006496D01*
X026094Y006453D01*
X026117Y006408D01*
X026136Y006361D01*
X026151Y006313D01*
X026163Y006264D01*
X026171Y006214D01*
X026175Y006164D01*
X026175Y006114D01*
X026171Y006064D01*
X026163Y006014D01*
X026151Y005965D01*
X026136Y005917D01*
X026117Y005870D01*
X026094Y005825D01*
X026068Y005782D01*
X026039Y005741D01*
X026006Y005702D01*
X025971Y005666D01*
X025933Y005633D01*
X025893Y005603D01*
X025850Y005576D01*
X025805Y005553D01*
X025759Y005533D01*
X025711Y005516D01*
X025663Y005504D01*
X025613Y005495D01*
X025563Y005490D01*
X025512Y005489D01*
X025462Y005492D01*
X025412Y005499D01*
X025363Y005510D01*
X025315Y005524D01*
X025268Y005542D01*
X025222Y005564D01*
X025178Y005589D01*
X025137Y005618D01*
X025098Y005649D01*
X025061Y005684D01*
X025027Y005721D01*
X024996Y005761D01*
X024968Y005803D01*
X024944Y005847D01*
X024923Y005893D01*
X024906Y005941D01*
X024893Y005989D01*
X024883Y006039D01*
X024877Y006089D01*
X024875Y006139D01*
M02*
