G75*
%MOIN*%
%OFA0B0*%
%FSLAX24Y24*%
%IPPOS*%
%LPD*%
%AMOC8*
5,1,8,0,0,1.08239X$1,22.5*
%
%ADD10R,0.0551X0.1181*%
%ADD11R,0.0600X0.0500*%
%ADD12R,0.0551X0.0551*%
%ADD13R,0.0236X0.0866*%
%ADD14C,0.0600*%
%ADD15C,0.0885*%
%ADD16R,0.0400X0.0250*%
%ADD17R,0.0591X0.0512*%
%ADD18R,0.0512X0.0591*%
%ADD19R,0.0551X0.0394*%
%ADD20R,0.4098X0.4252*%
%ADD21R,0.0850X0.0420*%
%ADD22R,0.1150X0.1098*%
%ADD23R,0.1181X0.0551*%
%ADD24C,0.0531*%
%ADD25R,0.0787X0.2165*%
%ADD26R,0.0472X0.0472*%
%ADD27C,0.0591*%
%ADD28C,0.0975*%
%ADD29R,0.2165X0.0787*%
%ADD30R,0.0394X0.0551*%
%ADD31R,0.0630X0.0512*%
%ADD32R,0.0866X0.0236*%
%ADD33C,0.0320*%
%ADD34C,0.0080*%
%ADD35C,0.0240*%
%ADD36C,0.0396*%
%ADD37C,0.0120*%
%ADD38C,0.0100*%
%ADD39C,0.0160*%
%ADD40C,0.0436*%
%ADD41R,0.0396X0.0396*%
D10*
X013698Y001259D03*
X013698Y003149D03*
D11*
X014486Y004434D03*
X014486Y005184D03*
D12*
X015782Y002428D03*
X017278Y002428D03*
X024368Y012643D03*
X025864Y012643D03*
D13*
X021311Y019002D03*
X020811Y019002D03*
X020311Y019002D03*
X019811Y019002D03*
X019311Y019002D03*
X018811Y019002D03*
X018311Y019002D03*
X017811Y019002D03*
X017311Y019002D03*
X016811Y019002D03*
X016311Y019002D03*
X015811Y019002D03*
X015311Y019002D03*
X014811Y019002D03*
X014811Y022624D03*
X015311Y022624D03*
X015811Y022624D03*
X016311Y022624D03*
X016811Y022624D03*
X017311Y022624D03*
X017811Y022624D03*
X018311Y022624D03*
X018811Y022624D03*
X019311Y022624D03*
X019811Y022624D03*
X020311Y022624D03*
X020811Y022624D03*
X021311Y022624D03*
X018767Y007789D03*
X018267Y007789D03*
X017767Y007789D03*
X017267Y007789D03*
X017267Y005742D03*
X017767Y005742D03*
X018267Y005742D03*
X018767Y005742D03*
D14*
X015974Y007002D03*
X014974Y007002D03*
X013974Y007002D03*
X012974Y007002D03*
X011974Y007002D03*
X010974Y007002D03*
X003607Y017339D03*
X003607Y018339D03*
X003607Y021539D03*
X003607Y022539D03*
X008057Y021689D03*
X009057Y021189D03*
X008057Y020689D03*
X009057Y020189D03*
X008057Y019689D03*
X009057Y019189D03*
X008057Y018689D03*
X009057Y018189D03*
X024407Y004206D03*
X025407Y004206D03*
X026407Y004206D03*
X027407Y004206D03*
X026669Y016182D03*
X026669Y017962D03*
D15*
X025689Y018452D03*
X025689Y015692D03*
D16*
X016643Y015748D03*
X016643Y015248D03*
X016643Y014748D03*
X016643Y014248D03*
X016643Y013748D03*
X016643Y013248D03*
X016643Y012748D03*
X016643Y012248D03*
X016643Y011748D03*
X016643Y011248D03*
X016643Y010748D03*
X016643Y010248D03*
X016643Y009748D03*
X016643Y009248D03*
X012643Y009248D03*
X012643Y009748D03*
X012643Y010248D03*
X012643Y010748D03*
X012643Y011248D03*
X012643Y011748D03*
X012643Y012248D03*
X012643Y012748D03*
X012643Y013248D03*
X012643Y013748D03*
X012643Y014248D03*
X012643Y014748D03*
X012643Y015248D03*
X012643Y015748D03*
D17*
X014761Y017013D03*
X014761Y017761D03*
X012895Y020340D03*
X012895Y021088D03*
X013486Y023683D03*
X013486Y024431D03*
X020628Y017773D03*
X020628Y017025D03*
X021376Y015809D03*
X021376Y015061D03*
X022214Y015069D03*
X022214Y015817D03*
X022608Y018257D03*
X022608Y019006D03*
X018789Y017572D03*
X018789Y016824D03*
X018306Y013466D03*
X018306Y012718D03*
X018294Y012060D03*
X018294Y011312D03*
X017714Y009998D03*
X017714Y009250D03*
X011419Y012891D03*
X011419Y013639D03*
X002647Y010738D03*
X002647Y009990D03*
X022222Y023687D03*
X022222Y024435D03*
D18*
X024911Y021427D03*
X025659Y021427D03*
X026439Y014592D03*
X027187Y014592D03*
X022565Y012155D03*
X021817Y012155D03*
X020439Y008620D03*
X019691Y008620D03*
X011663Y005332D03*
X010915Y005332D03*
X007301Y006824D03*
X006553Y006824D03*
X006557Y007781D03*
X007305Y007781D03*
X007305Y008757D03*
X006557Y008757D03*
X004450Y013592D03*
X003702Y013592D03*
X003742Y016084D03*
X004490Y016084D03*
X010576Y019194D03*
X011324Y019194D03*
X012446Y018840D03*
X013194Y018840D03*
X011336Y020706D03*
X010588Y020706D03*
X010616Y021844D03*
X011364Y021844D03*
X011364Y022887D03*
X010616Y022887D03*
X009218Y023663D03*
X008470Y023663D03*
X008490Y024592D03*
X009238Y024592D03*
D19*
X016246Y005230D03*
X016246Y004482D03*
X015380Y004856D03*
D20*
X008145Y002979D03*
D21*
X011425Y002979D03*
X011425Y003649D03*
X011425Y004319D03*
X011425Y002309D03*
X011425Y001639D03*
D22*
X018961Y003054D03*
X023119Y003054D03*
D23*
X024965Y002004D03*
X026855Y002004D03*
D24*
X023025Y006631D03*
X023021Y007628D03*
X023025Y008628D03*
X023025Y009620D03*
X022009Y010124D03*
X022009Y009108D03*
X022017Y008128D03*
X022025Y007135D03*
D25*
X019698Y010679D03*
X019698Y014419D03*
D26*
X020435Y007915D03*
X020435Y007088D03*
X027301Y012789D03*
X027301Y013616D03*
X003832Y005128D03*
X003006Y005128D03*
X002974Y003537D03*
X003801Y003537D03*
X003793Y001761D03*
X002966Y001761D03*
D27*
X008600Y007017D03*
X009600Y007017D03*
D28*
X006707Y016789D03*
X006707Y023089D03*
D29*
X015931Y024431D03*
X019671Y024431D03*
D30*
X025856Y019683D03*
X026604Y019683D03*
X026230Y020549D03*
D31*
X024927Y020450D03*
X024927Y019702D03*
X004250Y010702D03*
X004250Y009954D03*
D32*
X006057Y009783D03*
X006057Y010283D03*
X006057Y010783D03*
X006057Y011283D03*
X005730Y013441D03*
X005730Y013941D03*
X005730Y014441D03*
X005730Y014941D03*
X007777Y014941D03*
X007777Y014441D03*
X007777Y013941D03*
X007777Y013441D03*
X009679Y011283D03*
X009679Y010783D03*
X009679Y010283D03*
X009679Y009783D03*
D33*
X004313Y010765D02*
X004313Y012128D01*
X004222Y012218D01*
X004143Y012218D02*
X003183Y012218D01*
X002750Y011785D01*
X002750Y010840D01*
X002647Y010738D01*
X001037Y010738D01*
X000651Y011124D01*
X000620Y001218D01*
X000927Y000572D01*
X002242Y001789D02*
X002939Y001789D01*
X002966Y001761D01*
X002974Y003537D02*
X002935Y003576D01*
X002242Y003576D01*
X002202Y005128D02*
X003006Y005128D01*
X002616Y009128D02*
X002647Y009159D01*
X002647Y009990D01*
X000651Y011124D02*
X000651Y013809D01*
X000651Y021088D01*
X000651Y024576D01*
X001427Y025352D01*
X011844Y025352D01*
X012411Y024785D01*
X012411Y022572D01*
X012895Y022088D01*
X012895Y021088D01*
X012903Y021576D02*
X013163Y021836D01*
X014411Y021836D01*
X014443Y021844D02*
X016021Y021848D01*
X018423Y021844D01*
X018458Y021836D02*
X019171Y021864D01*
X018624Y021840D02*
X021128Y021840D01*
X021311Y021996D01*
X021679Y022004D01*
X024752Y021996D01*
X023179Y020600D02*
X023179Y017100D01*
X020679Y017100D01*
X020628Y017025D01*
X018789Y017572D02*
X018789Y018980D01*
X018811Y019002D01*
X021679Y022100D02*
X023179Y020600D01*
X027187Y014592D02*
X027301Y014478D01*
X026446Y012643D02*
X025864Y012643D01*
X026446Y012643D02*
X026655Y012435D01*
X026655Y011431D01*
X026754Y011332D01*
X027395Y011332D01*
X028013Y010781D01*
X028013Y001041D01*
X027592Y000687D01*
X014146Y000687D01*
X013380Y001453D01*
X013704Y001422D01*
X013380Y001453D02*
X011425Y001639D01*
X011444Y002304D02*
X011657Y002324D01*
X011444Y002304D02*
X012351Y002305D01*
X014094Y002112D01*
X014810Y001558D01*
X018130Y001558D01*
X018961Y002389D01*
X018961Y003054D02*
X017278Y002428D01*
X015664Y002414D02*
X015149Y002928D01*
X014600Y002928D01*
X014600Y002498D01*
X013583Y002983D02*
X011425Y002979D01*
X011425Y004319D02*
X013226Y004315D01*
X013750Y003428D01*
X018281Y006978D02*
X018348Y006911D01*
X019155Y005836D02*
X019167Y005706D01*
X022179Y007100D02*
X023179Y007100D01*
X023179Y006600D01*
X023179Y007100D02*
X023179Y007600D01*
X023021Y007628D01*
X022009Y009108D02*
X022009Y010124D01*
X022025Y010139D01*
X022757Y010143D01*
X022738Y010100D01*
X022781Y010096D02*
X022757Y010143D01*
X022781Y010096D02*
X023006Y009840D01*
X023025Y009620D01*
X023214Y009431D01*
X026163Y009431D01*
X027407Y008187D01*
X027407Y004206D01*
X027427Y004100D01*
X027427Y002726D01*
X026855Y002091D01*
X026855Y002004D01*
X025001Y002050D02*
X023119Y003054D01*
X012891Y019604D02*
X012895Y019608D01*
X012895Y020340D01*
D34*
X017714Y010600D02*
X017718Y010561D01*
X019691Y008620D02*
X019679Y008600D01*
X021179Y006600D02*
X021196Y006582D01*
X022025Y007135D02*
X022179Y007100D01*
X023025Y006631D02*
X023179Y006600D01*
D35*
X020435Y007088D02*
X019844Y007088D01*
X020435Y007915D02*
X020439Y007919D01*
X020439Y008620D01*
X021179Y009100D02*
X021179Y011246D01*
X022486Y011387D01*
X023131Y011490D01*
X023537Y012391D01*
X023765Y012620D01*
X024344Y012620D01*
X021179Y015600D02*
X021376Y015809D01*
X021179Y015600D02*
X020679Y016100D01*
X020387Y016183D01*
X018793Y016191D01*
X014376Y016179D01*
X014374Y013100D01*
X014373Y011120D01*
X014372Y008372D01*
X014367Y008384D02*
X014671Y007986D01*
X014706Y007958D01*
X015013Y007651D01*
X015013Y007041D01*
X014974Y007002D02*
X014974Y006348D01*
X014994Y005659D01*
X014953Y005475D01*
X014486Y005184D01*
X014486Y004434D02*
X014475Y003757D01*
X014801Y003470D01*
X015149Y003149D01*
X015149Y002928D01*
X015506Y002642D02*
X015720Y002428D01*
X015782Y002428D01*
X015664Y002414D01*
X015700Y002378D01*
X015720Y002428D02*
X015760Y002388D01*
X014710Y002438D02*
X014600Y002498D01*
X014600Y002928D02*
X013698Y003149D01*
X013737Y002915D01*
X013750Y002928D01*
X013750Y003428D01*
X013698Y003149D02*
X013819Y002928D01*
X013810Y002938D01*
X013695Y002717D01*
X013583Y002983D01*
X013700Y002878D02*
X013737Y002915D01*
X013819Y002928D02*
X013840Y002908D01*
X012366Y003629D02*
X011425Y003649D01*
X011425Y002309D02*
X011657Y002324D01*
X011607Y002303D01*
X018961Y002389D02*
X018961Y003054D01*
X018990Y002428D01*
X019010Y002408D01*
X022167Y002411D02*
X023102Y002411D01*
X014761Y017761D02*
X014817Y018126D01*
X014811Y019002D01*
X015311Y019002D02*
X015311Y018043D01*
X015537Y018159D01*
X012895Y021088D02*
X012903Y021096D01*
X012903Y021576D01*
X014411Y021836D02*
X014443Y021844D01*
X014435Y021836D01*
X014411Y021836D01*
X014443Y021844D02*
X014811Y022212D01*
X014811Y022624D01*
X016021Y021848D02*
X016311Y022063D01*
X016311Y022624D01*
X017811Y022624D02*
X017811Y023484D01*
X017880Y023553D01*
X018277Y023553D01*
X018317Y023592D01*
X018317Y022630D01*
X018311Y022624D01*
X018811Y022624D02*
X018811Y021976D01*
X018624Y021840D01*
X018517Y021840D01*
X018423Y021844D01*
X018458Y021836D01*
X019171Y021864D02*
X019311Y022047D01*
X019311Y022624D01*
X019811Y022624D02*
X019813Y022637D01*
X019817Y022639D02*
X019809Y023446D01*
X019801Y023588D01*
X021311Y022624D02*
X021311Y021996D01*
X019811Y019002D02*
X019811Y018137D01*
X019848Y018100D01*
X024927Y020450D02*
X024927Y021411D01*
X024911Y021427D01*
X024872Y021466D01*
X024872Y021718D01*
X024950Y021797D01*
X024752Y021996D01*
X024950Y021797D02*
X025124Y021970D01*
X026844Y021970D01*
X026970Y021844D01*
X026970Y019994D01*
X026659Y019683D01*
X026604Y019683D01*
X026230Y020549D02*
X026230Y021151D01*
X026470Y021391D01*
X026435Y021427D01*
X025659Y021427D01*
X005730Y013441D02*
X005320Y013441D01*
X005399Y013362D01*
X005399Y012809D01*
X005320Y013441D02*
X004602Y013441D01*
X004450Y013592D01*
X003702Y013592D02*
X000868Y013592D01*
X000651Y013809D01*
D36*
X012525Y008706D03*
X015057Y009675D03*
X013698Y011718D03*
X013561Y012777D03*
X015624Y017163D03*
X013675Y017257D03*
X021104Y012151D03*
X021179Y009100D03*
D37*
X021493Y009225D02*
X021600Y009225D01*
X021594Y009208D02*
X021584Y009141D01*
X021584Y009136D01*
X021981Y009136D01*
X021981Y009079D01*
X021584Y009079D01*
X021584Y009074D01*
X021594Y009008D01*
X021615Y008944D01*
X021645Y008885D01*
X021685Y008831D01*
X021698Y008818D01*
X021443Y008818D01*
X021155Y008530D01*
X021044Y008419D01*
X021044Y006720D01*
X020999Y006675D01*
X020999Y006653D01*
X020974Y006629D01*
X017840Y006629D01*
X017687Y006475D01*
X017575Y006364D01*
X017575Y006299D01*
X017517Y006241D01*
X017443Y006315D01*
X017091Y006315D01*
X017009Y006233D01*
X017009Y005251D01*
X017091Y005169D01*
X017443Y005169D01*
X017517Y005243D01*
X017560Y005200D01*
X017560Y005096D01*
X017537Y005073D01*
X016974Y005073D01*
X016661Y005386D01*
X016661Y005485D01*
X016600Y005546D01*
X016600Y006022D01*
X016651Y006022D01*
X016653Y006024D01*
X016655Y006024D01*
X016711Y006082D01*
X016769Y006139D01*
X016769Y006141D01*
X017394Y006790D01*
X017596Y006790D01*
X017713Y006907D01*
X017967Y007161D01*
X017967Y007240D01*
X018008Y007280D01*
X018021Y007258D01*
X018051Y007228D01*
X018087Y007207D01*
X018128Y007196D01*
X018267Y007196D01*
X018267Y007789D01*
X018267Y008382D01*
X018256Y008382D01*
X018326Y008464D01*
X018349Y008487D01*
X018349Y008391D01*
X018358Y008382D01*
X018267Y008382D01*
X018267Y007789D01*
X018267Y007789D01*
X018267Y007789D01*
X018281Y007775D01*
X018281Y006978D01*
X018267Y007196D02*
X018406Y007196D01*
X018447Y007207D01*
X018484Y007228D01*
X018513Y007258D01*
X018527Y007280D01*
X018591Y007216D01*
X018943Y007216D01*
X019025Y007298D01*
X019025Y008280D01*
X018970Y008336D01*
X019025Y008391D01*
X019025Y008903D01*
X018943Y008985D01*
X018431Y008985D01*
X018379Y008934D01*
X018379Y009589D01*
X019295Y008673D01*
X019295Y008266D01*
X019377Y008184D01*
X020004Y008184D01*
X020065Y008245D01*
X020079Y008230D01*
X020058Y008209D01*
X020058Y007621D01*
X020140Y007539D01*
X020729Y007539D01*
X020811Y007621D01*
X020811Y008209D01*
X020794Y008226D01*
X020834Y008266D01*
X020834Y008973D01*
X020752Y009055D01*
X020125Y009055D01*
X020065Y008995D01*
X020004Y009055D01*
X019535Y009055D01*
X018270Y010320D01*
X018270Y010320D01*
X017914Y010676D01*
X017914Y010923D01*
X017674Y011163D01*
X017674Y011384D01*
X017718Y011341D01*
X017858Y011200D01*
X017858Y010998D01*
X017940Y010916D01*
X018378Y010916D01*
X018836Y010459D01*
X019165Y010459D01*
X019165Y009538D01*
X019247Y009456D01*
X020150Y009456D01*
X020232Y009538D01*
X020232Y011819D01*
X020150Y011901D01*
X019247Y011901D01*
X019165Y011819D01*
X019165Y010899D01*
X019018Y010899D01*
X018729Y011188D01*
X018729Y011626D01*
X018682Y011673D01*
X018687Y011676D01*
X018717Y011706D01*
X018738Y011742D01*
X018749Y011783D01*
X018749Y012000D01*
X018354Y012000D01*
X018354Y012120D01*
X018749Y012120D01*
X018749Y012337D01*
X018738Y012378D01*
X018738Y012378D01*
X018750Y012400D01*
X018761Y012441D01*
X018761Y012658D01*
X018366Y012658D01*
X018366Y012778D01*
X018761Y012778D01*
X018761Y012995D01*
X018750Y013035D01*
X018729Y013072D01*
X018699Y013102D01*
X018694Y013105D01*
X018741Y013152D01*
X018741Y013223D01*
X019207Y013223D01*
X019214Y013229D01*
X019247Y013196D01*
X020150Y013196D01*
X020232Y013278D01*
X020232Y015491D01*
X020368Y015491D01*
X020443Y015415D01*
X020443Y015108D01*
X020560Y014991D01*
X020690Y014861D01*
X020940Y014861D01*
X020940Y014747D01*
X021022Y014665D01*
X021729Y014665D01*
X021799Y014735D01*
X021861Y014673D01*
X022567Y014673D01*
X022649Y014755D01*
X022649Y014869D01*
X024053Y014869D01*
X024655Y015470D01*
X024660Y015471D01*
X024713Y015529D01*
X024769Y015584D01*
X024769Y015589D01*
X025393Y016270D01*
X025502Y016245D01*
X025359Y016186D01*
X025195Y016022D01*
X025106Y015808D01*
X025106Y015577D01*
X025195Y015362D01*
X025359Y015199D01*
X025573Y015110D01*
X025805Y015110D01*
X026019Y015199D01*
X026183Y015362D01*
X026271Y015577D01*
X026271Y015808D01*
X026183Y016022D01*
X026096Y016109D01*
X026236Y016077D01*
X026296Y015933D01*
X026419Y015809D01*
X026581Y015742D01*
X026756Y015742D01*
X026918Y015809D01*
X027042Y015933D01*
X027109Y016095D01*
X027109Y016270D01*
X027042Y016432D01*
X026918Y016555D01*
X026756Y016622D01*
X026581Y016622D01*
X026419Y016555D01*
X026330Y016466D01*
X025421Y016674D01*
X025399Y016695D01*
X025343Y016692D01*
X025288Y016705D01*
X025263Y016689D01*
X025233Y016688D01*
X025195Y016646D01*
X025148Y016617D01*
X025141Y016588D01*
X024424Y015805D01*
X023887Y015269D01*
X022649Y015269D01*
X022649Y015382D01*
X022602Y015430D01*
X022608Y015433D01*
X022637Y015462D01*
X022659Y015499D01*
X022669Y015540D01*
X022669Y015757D01*
X022274Y015757D01*
X022274Y015877D01*
X022154Y015877D01*
X022154Y016232D01*
X021898Y016232D01*
X021857Y016222D01*
X021821Y016200D01*
X021791Y016171D01*
X021781Y016153D01*
X021729Y016205D01*
X021022Y016205D01*
X020982Y016164D01*
X020888Y016258D01*
X020881Y016272D01*
X020852Y016295D01*
X020828Y016319D01*
X020828Y016320D01*
X020840Y016381D01*
X020828Y016400D01*
X020828Y016629D01*
X020981Y016629D01*
X021063Y016711D01*
X021063Y016800D01*
X023238Y016800D01*
X023349Y016846D01*
X023433Y016930D01*
X023479Y017040D01*
X023479Y020660D01*
X023433Y020770D01*
X023349Y020854D01*
X022502Y021701D01*
X024515Y021696D01*
X024515Y021074D01*
X024597Y020991D01*
X024667Y020991D01*
X024667Y020846D01*
X024554Y020846D01*
X024472Y020764D01*
X024472Y020136D01*
X024532Y020076D01*
X024472Y020016D01*
X024472Y019388D01*
X024487Y019374D01*
X024487Y019084D01*
X024431Y019084D01*
X024349Y019002D01*
X024349Y018490D01*
X024431Y018408D01*
X024943Y018408D01*
X025025Y018490D01*
X025025Y019002D01*
X024943Y019084D01*
X024887Y019084D01*
X024887Y019306D01*
X025300Y019306D01*
X025382Y019388D01*
X025382Y019483D01*
X025519Y019483D01*
X025519Y019349D01*
X025601Y019267D01*
X026111Y019267D01*
X026193Y019349D01*
X026193Y020016D01*
X026111Y020098D01*
X025601Y020098D01*
X025519Y020016D01*
X025519Y019883D01*
X025382Y019883D01*
X025382Y020016D01*
X025322Y020076D01*
X025382Y020136D01*
X025382Y020764D01*
X025300Y020846D01*
X025187Y020846D01*
X025187Y020991D01*
X025225Y020991D01*
X025272Y021039D01*
X025275Y021033D01*
X025305Y021003D01*
X025341Y020982D01*
X025382Y020971D01*
X025599Y020971D01*
X025599Y021367D01*
X025719Y021367D01*
X025719Y021487D01*
X026075Y021487D01*
X026075Y021710D01*
X026710Y021710D01*
X026710Y020101D01*
X026707Y020098D01*
X026349Y020098D01*
X026267Y020016D01*
X026267Y019349D01*
X026349Y019267D01*
X026859Y019267D01*
X026941Y019349D01*
X026941Y019597D01*
X027117Y019773D01*
X027190Y019846D01*
X027230Y019942D01*
X027230Y021896D01*
X027190Y021991D01*
X027065Y022117D01*
X026991Y022190D01*
X026896Y022230D01*
X025072Y022230D01*
X024980Y022192D01*
X024922Y022250D01*
X024812Y022296D01*
X021900Y022303D01*
X021849Y022354D01*
X021738Y022400D01*
X021619Y022400D01*
X021571Y022380D01*
X021571Y022675D01*
X021569Y022680D01*
X021569Y023115D01*
X021487Y023197D01*
X021135Y023197D01*
X021061Y023123D01*
X021011Y023173D01*
X021011Y023250D01*
X021104Y023250D01*
X021186Y023332D01*
X021186Y023844D01*
X021104Y023926D01*
X020841Y023926D01*
X020894Y023979D01*
X020894Y024241D01*
X021787Y024241D01*
X021787Y024121D01*
X021834Y024074D01*
X021829Y024071D01*
X021799Y024041D01*
X021778Y024004D01*
X021767Y023964D01*
X021767Y023747D01*
X022162Y023747D01*
X022162Y023627D01*
X021767Y023627D01*
X021767Y023410D01*
X021778Y023369D01*
X021799Y023332D01*
X021829Y023303D01*
X021865Y023282D01*
X021906Y023271D01*
X022162Y023271D01*
X022162Y023627D01*
X022282Y023627D01*
X022282Y023747D01*
X022677Y023747D01*
X022677Y023964D01*
X022666Y024004D01*
X022645Y024041D01*
X022616Y024071D01*
X022610Y024074D01*
X022657Y024121D01*
X022657Y024137D01*
X022727Y024206D01*
X022727Y024364D01*
X022657Y024433D01*
X022657Y024749D01*
X022575Y024831D01*
X021869Y024831D01*
X021787Y024749D01*
X021787Y024621D01*
X020894Y024621D01*
X020894Y024882D01*
X020812Y024964D01*
X018530Y024964D01*
X018448Y024882D01*
X018448Y024617D01*
X017722Y024617D01*
X017611Y024505D01*
X017153Y024048D01*
X017153Y024882D01*
X017071Y024964D01*
X014790Y024964D01*
X014708Y024882D01*
X014708Y024621D01*
X013921Y024621D01*
X013921Y024745D01*
X013839Y024827D01*
X013133Y024827D01*
X013051Y024745D01*
X013051Y024117D01*
X013098Y024070D01*
X013092Y024067D01*
X013063Y024037D01*
X012711Y024037D01*
X012711Y023919D02*
X013031Y023919D01*
X013031Y023960D02*
X013031Y023743D01*
X013426Y023743D01*
X013426Y023623D01*
X013031Y023623D01*
X013031Y023406D01*
X013041Y023365D01*
X013063Y023329D01*
X013092Y023299D01*
X013129Y023278D01*
X013169Y023267D01*
X013426Y023267D01*
X013426Y023623D01*
X013546Y023623D01*
X013546Y023743D01*
X013941Y023743D01*
X013941Y023960D01*
X013930Y024000D01*
X013909Y024037D01*
X014006Y024037D01*
X013994Y024025D02*
X013994Y023513D01*
X014076Y023431D01*
X014588Y023431D01*
X014608Y023451D01*
X014974Y023451D01*
X015111Y023314D01*
X015111Y023173D01*
X015061Y023123D01*
X014987Y023197D01*
X014635Y023197D01*
X014553Y023115D01*
X014553Y022680D01*
X014551Y022675D01*
X014551Y022320D01*
X014369Y022139D01*
X014364Y022136D01*
X013195Y022136D01*
X013195Y022148D01*
X013150Y022258D01*
X012711Y022697D01*
X012711Y024845D01*
X012665Y024955D01*
X012098Y025522D01*
X012014Y025606D01*
X011963Y025627D01*
X028242Y025627D01*
X028255Y010967D01*
X028219Y010999D01*
X028183Y011035D01*
X028175Y011039D01*
X027601Y011550D01*
X027565Y011587D01*
X027557Y011590D01*
X027550Y011596D01*
X027502Y011613D01*
X027455Y011632D01*
X027446Y011632D01*
X027438Y011635D01*
X027387Y011632D01*
X026955Y011632D01*
X026955Y012436D01*
X026966Y012425D01*
X027003Y012404D01*
X027044Y012393D01*
X027243Y012393D01*
X027243Y012731D01*
X027359Y012731D01*
X027359Y012847D01*
X027697Y012847D01*
X027697Y013046D01*
X027686Y013087D01*
X027665Y013123D01*
X027635Y013153D01*
X027599Y013174D01*
X027558Y013185D01*
X027359Y013185D01*
X027359Y012847D01*
X027243Y012847D01*
X027243Y013185D01*
X027044Y013185D01*
X027003Y013174D01*
X026966Y013153D01*
X026937Y013123D01*
X026915Y013087D01*
X026905Y013046D01*
X026905Y012847D01*
X027243Y012847D01*
X027243Y012731D01*
X026905Y012731D01*
X026905Y012609D01*
X026825Y012689D01*
X026616Y012898D01*
X026506Y012943D01*
X026279Y012943D01*
X026279Y012977D01*
X026197Y013059D01*
X025530Y013059D01*
X025448Y012977D01*
X025448Y012310D01*
X025530Y012228D01*
X026197Y012228D01*
X026279Y012310D01*
X026279Y012343D01*
X026322Y012343D01*
X026355Y012310D01*
X026355Y011371D01*
X026401Y011261D01*
X026499Y011162D01*
X026584Y011078D01*
X026694Y011032D01*
X027281Y011032D01*
X027713Y010647D01*
X027713Y004551D01*
X027707Y004557D01*
X027648Y004600D01*
X027584Y004633D01*
X027515Y004655D01*
X027447Y004666D01*
X027447Y004246D01*
X027367Y004246D01*
X027367Y004166D01*
X027447Y004166D01*
X027447Y003747D01*
X027515Y003758D01*
X027584Y003780D01*
X027648Y003813D01*
X027707Y003855D01*
X027713Y003862D01*
X027713Y001181D01*
X027483Y000987D01*
X014271Y000987D01*
X014113Y001144D01*
X014113Y001718D01*
X014611Y001332D01*
X014640Y001303D01*
X014658Y001296D01*
X014673Y001284D01*
X014713Y001273D01*
X014750Y001258D01*
X014770Y001258D01*
X014789Y001253D01*
X014829Y001258D01*
X018190Y001258D01*
X018300Y001303D01*
X018384Y001388D01*
X019216Y002219D01*
X019261Y002329D01*
X019261Y002335D01*
X019270Y002356D01*
X019270Y002364D01*
X019594Y002364D01*
X019676Y002446D01*
X019676Y003661D01*
X019594Y003743D01*
X018328Y003743D01*
X018246Y003661D01*
X018246Y003108D01*
X017535Y002843D01*
X016944Y002843D01*
X016862Y002761D01*
X016862Y002094D01*
X016944Y002012D01*
X017612Y002012D01*
X017694Y002094D01*
X017694Y002262D01*
X018246Y002468D01*
X018246Y002446D01*
X018328Y002364D01*
X018513Y002364D01*
X018006Y001858D01*
X014913Y001858D01*
X014306Y002327D01*
X014291Y002346D01*
X014260Y002363D01*
X014231Y002386D01*
X014208Y002392D01*
X014187Y002403D01*
X014151Y002407D01*
X014116Y002417D01*
X014092Y002414D01*
X014051Y002418D01*
X014071Y002430D01*
X014101Y002460D01*
X014122Y002497D01*
X014133Y002537D01*
X014133Y003089D01*
X013758Y003089D01*
X013758Y003209D01*
X014133Y003209D01*
X014133Y003761D01*
X014122Y003801D01*
X014101Y003838D01*
X014071Y003867D01*
X014035Y003889D01*
X013994Y003899D01*
X013758Y003899D01*
X013758Y003209D01*
X013638Y003209D01*
X013638Y003899D01*
X013401Y003899D01*
X013360Y003889D01*
X013324Y003867D01*
X013294Y003838D01*
X013273Y003801D01*
X013262Y003761D01*
X013262Y003209D01*
X013638Y003209D01*
X013638Y003089D01*
X013638Y002464D01*
X013758Y002451D01*
X013758Y003089D01*
X013638Y003089D01*
X013262Y003089D01*
X013262Y002537D01*
X013271Y002505D01*
X012426Y002598D01*
X012410Y002605D01*
X012367Y002605D01*
X012324Y002609D01*
X012308Y002605D01*
X011962Y002604D01*
X011934Y002633D01*
X011948Y002641D01*
X011978Y002671D01*
X011999Y002707D01*
X013262Y002707D01*
X013262Y002589D02*
X012514Y002589D01*
X011999Y002707D02*
X012010Y002748D01*
X012010Y002934D01*
X011470Y002934D01*
X011470Y003024D01*
X012010Y003024D01*
X012010Y003210D01*
X011999Y003251D01*
X011978Y003287D01*
X011948Y003317D01*
X011934Y003325D01*
X011986Y003377D01*
X012045Y003376D01*
X012112Y003309D01*
X012624Y003309D01*
X012706Y003391D01*
X012706Y003903D01*
X012624Y003985D01*
X012112Y003985D01*
X012030Y003903D01*
X012030Y003896D01*
X011990Y003897D01*
X011990Y003917D01*
X011934Y003973D01*
X011948Y003981D01*
X011978Y004011D01*
X011999Y004047D01*
X012010Y004088D01*
X012010Y004274D01*
X011470Y004274D01*
X011470Y004364D01*
X012010Y004364D01*
X012010Y004550D01*
X011999Y004591D01*
X011978Y004627D01*
X011948Y004657D01*
X011912Y004678D01*
X011871Y004689D01*
X011470Y004689D01*
X011470Y004364D01*
X011380Y004364D01*
X011380Y004689D01*
X010979Y004689D01*
X010938Y004678D01*
X010902Y004657D01*
X010872Y004627D01*
X010851Y004591D01*
X010840Y004550D01*
X010840Y004364D01*
X011380Y004364D01*
X011380Y004274D01*
X010840Y004274D01*
X010840Y004088D01*
X010851Y004047D01*
X010872Y004011D01*
X010902Y003981D01*
X010916Y003973D01*
X010860Y003917D01*
X010860Y003381D01*
X010916Y003325D01*
X010902Y003317D01*
X010872Y003287D01*
X010851Y003251D01*
X010840Y003210D01*
X010840Y003024D01*
X011380Y003024D01*
X011380Y002934D01*
X010840Y002934D01*
X010840Y002748D01*
X010851Y002707D01*
X010334Y002707D01*
X010334Y002589D02*
X010872Y002589D01*
X010860Y002577D02*
X010860Y002041D01*
X010927Y001974D01*
X010860Y001907D01*
X010860Y001371D01*
X010942Y001289D01*
X011908Y001289D01*
X011910Y001291D01*
X013244Y001165D01*
X013282Y001127D01*
X013282Y000611D01*
X013364Y000529D01*
X013880Y000529D01*
X013977Y000432D01*
X014087Y000387D01*
X027579Y000387D01*
X027626Y000383D01*
X027638Y000387D01*
X027652Y000387D01*
X027695Y000405D01*
X027740Y000419D01*
X027750Y000427D01*
X027762Y000432D01*
X027795Y000465D01*
X028171Y000782D01*
X028183Y000787D01*
X028216Y000820D01*
X028252Y000850D01*
X028258Y000862D01*
X028264Y000868D01*
X028265Y000360D01*
X001265Y000360D01*
X001265Y000829D01*
X001183Y000911D01*
X001098Y000911D01*
X000920Y001285D01*
X005956Y001285D01*
X005956Y001167D02*
X000976Y001167D01*
X000920Y001285D02*
X000949Y010450D01*
X000977Y010438D01*
X002212Y010438D01*
X002212Y010424D01*
X002259Y010377D01*
X002254Y010374D01*
X002224Y010344D01*
X002203Y010307D01*
X002192Y010267D01*
X002192Y010050D01*
X002587Y010050D01*
X002587Y009930D01*
X002192Y009930D01*
X002192Y009713D01*
X002203Y009672D01*
X002224Y009636D01*
X002254Y009606D01*
X002290Y009585D01*
X002331Y009574D01*
X002587Y009574D01*
X002587Y009930D01*
X002707Y009930D01*
X002707Y009574D01*
X002964Y009574D01*
X003004Y009585D01*
X003041Y009606D01*
X003071Y009636D01*
X003092Y009672D01*
X003103Y009713D01*
X003103Y009930D01*
X002707Y009930D01*
X002707Y010050D01*
X003103Y010050D01*
X003103Y010267D01*
X003092Y010307D01*
X003071Y010344D01*
X003041Y010374D01*
X003035Y010377D01*
X003059Y010400D01*
X003795Y010400D01*
X003795Y010388D01*
X003855Y010328D01*
X003795Y010268D01*
X003795Y009640D01*
X003877Y009558D01*
X004623Y009558D01*
X004657Y009593D01*
X005498Y009593D01*
X005566Y009525D01*
X006548Y009525D01*
X006567Y009544D01*
X006597Y009544D01*
X006597Y009478D01*
X006679Y009396D01*
X007191Y009396D01*
X007273Y009478D01*
X007273Y009990D01*
X007191Y010072D01*
X006679Y010072D01*
X006598Y009991D01*
X006556Y010033D01*
X006616Y010093D01*
X009120Y010093D01*
X009180Y010033D01*
X009106Y009959D01*
X009106Y009607D01*
X009188Y009525D01*
X010170Y009525D01*
X010252Y009607D01*
X010252Y009959D01*
X010178Y010033D01*
X010252Y010107D01*
X010252Y010459D01*
X010187Y010524D01*
X010210Y010537D01*
X010240Y010567D01*
X010261Y010603D01*
X010272Y010644D01*
X010272Y010783D01*
X009679Y010783D01*
X009679Y010783D01*
X010272Y010783D01*
X010272Y010922D01*
X010261Y010963D01*
X010240Y010999D01*
X010210Y011029D01*
X010187Y011042D01*
X010252Y011107D01*
X010252Y011459D01*
X010170Y011541D01*
X009869Y011541D01*
X009869Y012033D01*
X009360Y012542D01*
X009395Y012576D01*
X009395Y013088D01*
X009313Y013170D01*
X008801Y013170D01*
X008719Y013088D01*
X008719Y012576D01*
X008801Y012494D01*
X008870Y012494D01*
X008978Y012386D01*
X009489Y011876D01*
X009489Y011541D01*
X009188Y011541D01*
X009106Y011459D01*
X009106Y011107D01*
X009170Y011042D01*
X009147Y011029D01*
X009118Y010999D01*
X009097Y010963D01*
X009086Y010922D01*
X009086Y010783D01*
X009086Y010644D01*
X009097Y010603D01*
X009118Y010567D01*
X009147Y010537D01*
X009170Y010524D01*
X009120Y010473D01*
X006616Y010473D01*
X006556Y010533D01*
X006616Y010593D01*
X006720Y010593D01*
X007128Y011001D01*
X007239Y011112D01*
X007239Y013230D01*
X007286Y013182D01*
X007573Y013182D01*
X007573Y012399D01*
X007517Y012399D01*
X007435Y012317D01*
X007435Y011805D01*
X007517Y011723D01*
X008029Y011723D01*
X008111Y011805D01*
X008111Y012317D01*
X008029Y012399D01*
X007973Y012399D01*
X007973Y013182D01*
X008268Y013182D01*
X008340Y013254D01*
X009494Y013262D01*
X009502Y013256D01*
X009572Y013262D01*
X009643Y013263D01*
X009649Y013269D01*
X009658Y013270D01*
X009703Y013325D01*
X009753Y013375D01*
X009753Y013384D01*
X009806Y013447D01*
X009806Y012784D01*
X009798Y012711D01*
X009806Y012702D01*
X009806Y012690D01*
X009857Y012639D01*
X010404Y011966D01*
X010404Y011954D01*
X010455Y011903D01*
X010501Y011847D01*
X010513Y011845D01*
X010521Y011837D01*
X010594Y011837D01*
X010666Y011830D01*
X010675Y011837D01*
X011954Y011837D01*
X011957Y011834D01*
X012037Y011837D01*
X012116Y011837D01*
X012119Y011840D01*
X012123Y011840D01*
X012177Y011898D01*
X012233Y011954D01*
X012233Y011958D01*
X012318Y012050D01*
X012370Y011998D01*
X012303Y011931D01*
X012303Y011565D01*
X012370Y011498D01*
X012314Y011442D01*
X012309Y011442D01*
X012250Y011501D01*
X011738Y011501D01*
X011656Y011419D01*
X011656Y010907D01*
X011738Y010825D01*
X012250Y010825D01*
X012303Y010878D01*
X012303Y010565D01*
X012370Y010498D01*
X012336Y010463D01*
X012336Y010529D01*
X012254Y010611D01*
X011742Y010611D01*
X011660Y010529D01*
X011660Y010218D01*
X010399Y008957D01*
X007701Y008957D01*
X007701Y009111D01*
X007619Y009193D01*
X006991Y009193D01*
X006931Y009133D01*
X006871Y009193D01*
X006243Y009193D01*
X006161Y009111D01*
X006161Y008961D01*
X005572Y008961D01*
X005455Y008844D01*
X005065Y008454D01*
X005065Y008293D01*
X003080Y006308D01*
X002001Y006308D01*
X001884Y006191D01*
X001372Y005679D01*
X001372Y002805D01*
X001490Y002687D01*
X001765Y002412D01*
X003434Y002412D01*
X003593Y002253D01*
X003593Y002138D01*
X003499Y002138D01*
X003417Y002056D01*
X003417Y001467D01*
X003499Y001385D01*
X004087Y001385D01*
X004169Y001467D01*
X004169Y002056D01*
X004087Y002138D01*
X003993Y002138D01*
X003993Y002419D01*
X003717Y002695D01*
X003600Y002812D01*
X001931Y002812D01*
X001772Y002970D01*
X001772Y005513D01*
X002167Y005908D01*
X003246Y005908D01*
X005348Y008010D01*
X005465Y008127D01*
X005465Y008289D01*
X005738Y008561D01*
X006161Y008561D01*
X006161Y008404D01*
X006243Y008322D01*
X006871Y008322D01*
X006931Y008382D01*
X006991Y008322D01*
X007619Y008322D01*
X007701Y008404D01*
X007701Y008557D01*
X010565Y008557D01*
X011942Y009935D01*
X012184Y009935D01*
X011919Y009670D01*
X011802Y009553D01*
X011802Y007406D01*
X011725Y007375D01*
X011686Y007336D01*
X011686Y007958D01*
X011569Y008076D01*
X011313Y008331D01*
X008438Y008331D01*
X008321Y008214D01*
X008088Y007981D01*
X007701Y007981D01*
X007701Y008134D01*
X007619Y008216D01*
X006991Y008216D01*
X006931Y008156D01*
X006871Y008216D01*
X006243Y008216D01*
X006161Y008134D01*
X006161Y007977D01*
X005415Y007977D01*
X005298Y007860D01*
X003632Y006195D01*
X003632Y005504D01*
X003538Y005504D01*
X003456Y005422D01*
X003456Y004833D01*
X003538Y004751D01*
X004126Y004751D01*
X004209Y004833D01*
X004209Y005422D01*
X004126Y005504D01*
X004032Y005504D01*
X004032Y006029D01*
X005580Y007577D01*
X006161Y007577D01*
X006161Y007428D01*
X006243Y007346D01*
X006871Y007346D01*
X006931Y007406D01*
X006991Y007346D01*
X007619Y007346D01*
X007701Y007428D01*
X007701Y007581D01*
X008254Y007581D01*
X008604Y007931D01*
X011147Y007931D01*
X011286Y007793D01*
X011286Y007312D01*
X011223Y007375D01*
X011062Y007442D01*
X010886Y007442D01*
X010725Y007375D01*
X010601Y007251D01*
X010534Y007089D01*
X010534Y006914D01*
X010601Y006752D01*
X010725Y006629D01*
X010886Y006562D01*
X011062Y006562D01*
X011223Y006629D01*
X011286Y006691D01*
X011286Y006261D01*
X011542Y006005D01*
X011659Y005888D01*
X013226Y005888D01*
X013239Y005879D01*
X013307Y005888D01*
X013376Y005888D01*
X013387Y005899D01*
X013403Y005902D01*
X013444Y005957D01*
X013493Y006005D01*
X013493Y006021D01*
X013637Y006213D01*
X013686Y006261D01*
X013686Y006277D01*
X013695Y006290D01*
X013686Y006358D01*
X013686Y006642D01*
X013733Y006608D01*
X013797Y006575D01*
X013866Y006553D01*
X013934Y006542D01*
X013934Y006962D01*
X014014Y006962D01*
X014014Y007042D01*
X013934Y007042D01*
X013934Y007461D01*
X013866Y007450D01*
X013797Y007428D01*
X013733Y007395D01*
X013686Y007361D01*
X013686Y008658D01*
X013770Y008719D01*
X013789Y008719D01*
X013836Y008766D01*
X013890Y008804D01*
X013893Y008823D01*
X013906Y008836D01*
X013906Y008902D01*
X013917Y008968D01*
X013906Y008983D01*
X013906Y010482D01*
X014081Y010482D01*
X014113Y010515D01*
X014112Y008436D01*
X014103Y008368D01*
X014112Y008334D01*
X014112Y008320D01*
X014122Y008296D01*
X014129Y008268D01*
X014138Y008256D01*
X014151Y008224D01*
X014198Y008178D01*
X014453Y007842D01*
X014470Y007812D01*
X014485Y007801D01*
X014495Y007787D01*
X014525Y007770D01*
X014534Y007763D01*
X014753Y007543D01*
X014753Y007386D01*
X014725Y007375D01*
X014601Y007251D01*
X014534Y007089D01*
X014534Y006914D01*
X014601Y006752D01*
X014714Y006639D01*
X014714Y006396D01*
X014713Y006392D01*
X014714Y006344D01*
X014714Y006296D01*
X014715Y006293D01*
X014733Y005684D01*
X014723Y005638D01*
X014620Y005574D01*
X014128Y005574D01*
X014046Y005492D01*
X014046Y004876D01*
X014102Y004820D01*
X014088Y004812D01*
X014058Y004782D01*
X014037Y004745D01*
X014026Y004705D01*
X014026Y004494D01*
X014426Y004494D01*
X014426Y004374D01*
X014026Y004374D01*
X014026Y004163D01*
X014037Y004122D01*
X014058Y004085D01*
X014088Y004056D01*
X014124Y004035D01*
X014165Y004024D01*
X014426Y004024D01*
X014426Y004374D01*
X014546Y004374D01*
X014546Y004494D01*
X014946Y004494D01*
X014946Y004631D01*
X014955Y004597D01*
X014976Y004561D01*
X015006Y004531D01*
X015042Y004510D01*
X015083Y004499D01*
X015341Y004499D01*
X015341Y004817D01*
X015418Y004817D01*
X015418Y004499D01*
X015676Y004499D01*
X015717Y004510D01*
X015753Y004531D01*
X015783Y004561D01*
X015804Y004597D01*
X015815Y004638D01*
X015815Y004817D01*
X015418Y004817D01*
X015418Y004894D01*
X015815Y004894D01*
X015815Y005074D01*
X015804Y005115D01*
X015783Y005151D01*
X015753Y005181D01*
X015717Y005202D01*
X015676Y005213D01*
X015418Y005213D01*
X015418Y004894D01*
X015341Y004894D01*
X015341Y004817D01*
X014944Y004817D01*
X014944Y004712D01*
X014935Y004745D01*
X014914Y004782D01*
X014884Y004812D01*
X014870Y004820D01*
X014926Y004876D01*
X014926Y005151D01*
X015048Y005228D01*
X015050Y005228D01*
X015092Y005255D01*
X015135Y005282D01*
X015136Y005283D01*
X015137Y005284D01*
X015166Y005325D01*
X015195Y005366D01*
X015195Y005367D01*
X015196Y005369D01*
X015207Y005418D01*
X015218Y005467D01*
X015218Y005468D01*
X015244Y005585D01*
X015255Y005615D01*
X015255Y005635D01*
X015259Y005654D01*
X015253Y005686D01*
X015243Y006020D01*
X015269Y006010D01*
X015309Y006026D01*
X015923Y006026D01*
X015923Y005567D01*
X015912Y005567D01*
X015830Y005485D01*
X015830Y004975D01*
X015912Y004893D01*
X016579Y004893D01*
X016598Y004912D01*
X016803Y004707D01*
X016661Y004707D01*
X016661Y004737D01*
X016579Y004819D01*
X015912Y004819D01*
X015830Y004737D01*
X015830Y004626D01*
X015825Y004623D01*
X015823Y004607D01*
X015812Y004596D01*
X015812Y004531D01*
X015802Y004467D01*
X015812Y004454D01*
X015812Y004439D01*
X015830Y004420D01*
X015830Y004227D01*
X015885Y004172D01*
X015792Y004172D01*
X015792Y004238D01*
X015710Y004320D01*
X015198Y004320D01*
X015116Y004238D01*
X015116Y003726D01*
X015198Y003644D01*
X015710Y003644D01*
X015792Y003726D01*
X015792Y003792D01*
X016191Y003792D01*
X016232Y003776D01*
X016267Y003792D01*
X016305Y003792D01*
X016336Y003823D01*
X016511Y003902D01*
X016549Y003902D01*
X016580Y003933D01*
X016620Y003951D01*
X016633Y003987D01*
X016660Y004013D01*
X016660Y004057D01*
X016676Y004099D01*
X016660Y004133D01*
X016660Y004226D01*
X016661Y004227D01*
X016661Y004327D01*
X018021Y004327D01*
X018133Y004439D01*
X018442Y004748D01*
X019056Y004081D01*
X019056Y004076D01*
X019108Y004024D01*
X019159Y003969D01*
X019164Y003968D01*
X019167Y003965D01*
X019242Y003965D01*
X019316Y003962D01*
X019320Y003965D01*
X023131Y003965D01*
X024061Y004894D01*
X024419Y004894D01*
X024430Y004905D01*
X024544Y004898D01*
X025096Y004518D01*
X025034Y004456D01*
X024967Y004294D01*
X024967Y004119D01*
X025034Y003957D01*
X025158Y003833D01*
X025320Y003766D01*
X025495Y003766D01*
X025656Y003833D01*
X025780Y003957D01*
X025847Y004119D01*
X025847Y004294D01*
X025780Y004456D01*
X025656Y004579D01*
X025495Y004646D01*
X025478Y004646D01*
X025474Y004659D01*
X025461Y004728D01*
X025453Y004734D01*
X025450Y004744D01*
X025389Y004778D01*
X025122Y004961D01*
X025471Y004961D01*
X025898Y004877D01*
X025898Y004368D01*
X025883Y004329D01*
X025898Y004293D01*
X025898Y004254D01*
X025928Y004224D01*
X025945Y004184D01*
X025967Y004176D01*
X025967Y004119D01*
X026034Y003957D01*
X026158Y003833D01*
X026320Y003766D01*
X026495Y003766D01*
X026656Y003833D01*
X026780Y003957D01*
X026847Y004119D01*
X026847Y004294D01*
X026780Y004456D01*
X026656Y004579D01*
X026495Y004646D01*
X026320Y004646D01*
X026278Y004629D01*
X026278Y005015D01*
X026290Y005073D01*
X026278Y005091D01*
X026278Y005112D01*
X026236Y005154D01*
X026202Y005204D01*
X026182Y005208D01*
X026167Y005223D01*
X026107Y005223D01*
X025824Y005279D01*
X026040Y005368D01*
X026296Y005624D01*
X026435Y005958D01*
X026435Y006320D01*
X026296Y006655D01*
X026040Y006910D01*
X025706Y007049D01*
X025344Y007049D01*
X025010Y006910D01*
X024754Y006655D01*
X024616Y006320D01*
X024616Y006243D01*
X024353Y006505D01*
X024353Y008482D01*
X024242Y008593D01*
X024017Y008818D01*
X023386Y008818D01*
X023369Y008857D01*
X023255Y008972D01*
X023106Y009033D01*
X022944Y009033D01*
X022795Y008972D01*
X022681Y008857D01*
X022665Y008818D01*
X022321Y008818D01*
X022334Y008831D01*
X022374Y008885D01*
X022404Y008944D01*
X022425Y009008D01*
X022435Y009074D01*
X022435Y009079D01*
X022038Y009079D01*
X022038Y009136D01*
X022435Y009136D01*
X022435Y009141D01*
X022425Y009208D01*
X022404Y009271D01*
X022374Y009331D01*
X022334Y009385D01*
X022287Y009433D01*
X022233Y009472D01*
X022173Y009502D01*
X022109Y009523D01*
X022043Y009534D01*
X022038Y009534D01*
X022038Y009136D01*
X021981Y009136D01*
X021981Y009534D01*
X021976Y009534D01*
X021910Y009523D01*
X021846Y009502D01*
X021786Y009472D01*
X021732Y009433D01*
X021685Y009385D01*
X021645Y009331D01*
X021615Y009271D01*
X021594Y009208D01*
X021517Y009167D02*
X021465Y009292D01*
X021439Y009318D01*
X021439Y011012D01*
X022469Y011124D01*
X022475Y011123D01*
X022520Y011130D01*
X022565Y011134D01*
X022571Y011138D01*
X023148Y011229D01*
X023175Y011228D01*
X023199Y011237D01*
X023223Y011241D01*
X023247Y011255D01*
X023272Y011265D01*
X023290Y011282D01*
X023311Y011295D01*
X023328Y011317D01*
X023347Y011336D01*
X023358Y011359D01*
X023372Y011379D01*
X023379Y011405D01*
X023755Y012241D01*
X023873Y012360D01*
X023952Y012360D01*
X023952Y012310D01*
X024034Y012228D01*
X024701Y012228D01*
X024783Y012310D01*
X024783Y012977D01*
X024701Y013059D01*
X024034Y013059D01*
X023952Y012977D01*
X023952Y012880D01*
X023714Y012880D01*
X023618Y012840D01*
X023545Y012767D01*
X023356Y012578D01*
X023321Y012545D01*
X023319Y012541D01*
X023317Y012539D01*
X023298Y012494D01*
X022952Y011725D01*
X022889Y011715D01*
X022919Y011732D01*
X022949Y011762D01*
X022970Y011798D01*
X022980Y011839D01*
X022980Y012095D01*
X022625Y012095D01*
X022625Y012215D01*
X022980Y012215D01*
X022980Y012471D01*
X022970Y012512D01*
X022949Y012549D01*
X022919Y012578D01*
X022882Y012599D01*
X022842Y012610D01*
X022625Y012610D01*
X022625Y012215D01*
X022505Y012215D01*
X022505Y012610D01*
X022288Y012610D01*
X022247Y012599D01*
X022210Y012578D01*
X022181Y012549D01*
X022178Y012543D01*
X022130Y012590D01*
X021503Y012590D01*
X021421Y012508D01*
X021421Y012341D01*
X021391Y012341D01*
X021391Y012343D01*
X021295Y012438D01*
X021171Y012489D01*
X021037Y012489D01*
X020912Y012438D01*
X020817Y012343D01*
X020766Y012218D01*
X020766Y012084D01*
X020817Y011960D01*
X020912Y011865D01*
X021037Y011813D01*
X021171Y011813D01*
X021295Y011865D01*
X021391Y011960D01*
X021391Y011961D01*
X021421Y011961D01*
X021421Y011802D01*
X021503Y011720D01*
X022130Y011720D01*
X022178Y011767D01*
X022181Y011762D01*
X022210Y011732D01*
X022247Y011711D01*
X022288Y011700D01*
X022505Y011700D01*
X022505Y012095D01*
X022625Y012095D01*
X022625Y011700D01*
X022796Y011700D01*
X022451Y011645D01*
X021165Y011506D01*
X021127Y011506D01*
X021114Y011500D01*
X021099Y011499D01*
X021066Y011480D01*
X021031Y011466D01*
X021021Y011456D01*
X021009Y011449D01*
X020985Y011420D01*
X020958Y011393D01*
X020953Y011380D01*
X020944Y011368D01*
X020933Y011332D01*
X020919Y011297D01*
X020919Y011283D01*
X020915Y011269D01*
X020919Y011232D01*
X020919Y009318D01*
X020892Y009292D01*
X020841Y009167D01*
X020841Y009033D01*
X020892Y008908D01*
X020987Y008813D01*
X021111Y008762D01*
X021246Y008762D01*
X021370Y008813D01*
X021465Y008908D01*
X021517Y009033D01*
X021517Y009167D01*
X021517Y009106D02*
X021981Y009106D01*
X022038Y009106D02*
X027713Y009106D01*
X027713Y008988D02*
X023216Y008988D01*
X023358Y008869D02*
X027713Y008869D01*
X027713Y008751D02*
X024084Y008751D01*
X024203Y008632D02*
X027713Y008632D01*
X027713Y008514D02*
X024321Y008514D01*
X024353Y008395D02*
X027713Y008395D01*
X027713Y008277D02*
X024353Y008277D01*
X024353Y008158D02*
X027713Y008158D01*
X027713Y008040D02*
X024353Y008040D01*
X024353Y007921D02*
X027713Y007921D01*
X027713Y007803D02*
X024353Y007803D01*
X024353Y007684D02*
X027713Y007684D01*
X027713Y007566D02*
X024353Y007566D01*
X024353Y007447D02*
X027713Y007447D01*
X027713Y007329D02*
X024353Y007329D01*
X024353Y007210D02*
X027713Y007210D01*
X027713Y007092D02*
X024353Y007092D01*
X024353Y006973D02*
X025161Y006973D01*
X024954Y006855D02*
X024353Y006855D01*
X024353Y006736D02*
X024835Y006736D01*
X024739Y006618D02*
X024353Y006618D01*
X024359Y006499D02*
X024690Y006499D01*
X024641Y006381D02*
X024478Y006381D01*
X024596Y006262D02*
X024616Y006262D01*
X024061Y005788D02*
X019045Y005788D01*
X019045Y005742D02*
X019045Y006196D01*
X019035Y006237D01*
X019028Y006249D01*
X021131Y006249D01*
X021243Y006360D01*
X021275Y006392D01*
X021424Y006541D01*
X021424Y008261D01*
X021600Y008438D01*
X021754Y008438D01*
X021673Y008357D01*
X021612Y008208D01*
X021612Y008047D01*
X021673Y007898D01*
X021787Y007784D01*
X021937Y007722D01*
X022098Y007722D01*
X022247Y007784D01*
X022361Y007898D01*
X022378Y007938D01*
X022757Y007938D01*
X022677Y007857D01*
X022616Y007708D01*
X022616Y007547D01*
X022676Y007400D01*
X022334Y007400D01*
X022255Y007479D01*
X022106Y007541D01*
X021944Y007541D01*
X021795Y007479D01*
X021681Y007365D01*
X021619Y007216D01*
X021619Y007055D01*
X021681Y006906D01*
X021795Y006791D01*
X021944Y006730D01*
X022106Y006730D01*
X022255Y006791D01*
X022264Y006800D01*
X022656Y006800D01*
X022619Y006712D01*
X022619Y006551D01*
X022681Y006402D01*
X022795Y006288D01*
X022944Y006226D01*
X023106Y006226D01*
X023255Y006288D01*
X023288Y006321D01*
X023349Y006346D01*
X023426Y006423D01*
X023426Y006210D01*
X023769Y005867D01*
X023982Y005867D01*
X024166Y005683D01*
X024166Y005274D01*
X023903Y005274D01*
X022974Y004345D01*
X019329Y004345D01*
X018719Y005009D01*
X018719Y005013D01*
X018666Y005066D01*
X018616Y005121D01*
X018611Y005121D01*
X018553Y005179D01*
X018587Y005160D01*
X018628Y005149D01*
X018767Y005149D01*
X018767Y005742D01*
X019131Y005742D01*
X019167Y005706D01*
X019045Y005742D02*
X018767Y005742D01*
X018767Y005742D01*
X019045Y005742D01*
X019045Y005288D01*
X019035Y005247D01*
X019013Y005210D01*
X018984Y005181D01*
X018947Y005160D01*
X018906Y005149D01*
X018767Y005149D01*
X018767Y005742D01*
X018767Y005742D01*
X018767Y005670D02*
X018767Y005670D01*
X018767Y005551D02*
X018767Y005551D01*
X018767Y005433D02*
X018767Y005433D01*
X018767Y005314D02*
X018767Y005314D01*
X018767Y005196D02*
X018767Y005196D01*
X018656Y005077D02*
X023706Y005077D01*
X023824Y005196D02*
X018999Y005196D01*
X019045Y005314D02*
X024166Y005314D01*
X024166Y005433D02*
X019045Y005433D01*
X019045Y005551D02*
X024166Y005551D01*
X024166Y005670D02*
X019045Y005670D01*
X019045Y005907D02*
X023730Y005907D01*
X023611Y006025D02*
X019045Y006025D01*
X019045Y006144D02*
X023493Y006144D01*
X023426Y006262D02*
X023193Y006262D01*
X023384Y006381D02*
X023426Y006381D01*
X022857Y006262D02*
X021145Y006262D01*
X021263Y006381D02*
X022702Y006381D01*
X022641Y006499D02*
X021382Y006499D01*
X021424Y006618D02*
X022619Y006618D01*
X022629Y006736D02*
X022121Y006736D01*
X021929Y006736D02*
X021424Y006736D01*
X021424Y006855D02*
X021732Y006855D01*
X021653Y006973D02*
X021424Y006973D01*
X021424Y007092D02*
X021619Y007092D01*
X021619Y007210D02*
X021424Y007210D01*
X021424Y007329D02*
X021666Y007329D01*
X021763Y007447D02*
X021424Y007447D01*
X021424Y007566D02*
X022616Y007566D01*
X022616Y007684D02*
X021424Y007684D01*
X021424Y007803D02*
X021769Y007803D01*
X021664Y007921D02*
X021424Y007921D01*
X021424Y008040D02*
X021615Y008040D01*
X021612Y008158D02*
X021424Y008158D01*
X021439Y008277D02*
X021640Y008277D01*
X021711Y008395D02*
X021557Y008395D01*
X021257Y008632D02*
X020834Y008632D01*
X020834Y008514D02*
X021139Y008514D01*
X021044Y008395D02*
X020834Y008395D01*
X020834Y008277D02*
X021044Y008277D01*
X021044Y008158D02*
X020811Y008158D01*
X020811Y008040D02*
X021044Y008040D01*
X021044Y007921D02*
X020811Y007921D01*
X020811Y007803D02*
X021044Y007803D01*
X021044Y007684D02*
X020811Y007684D01*
X020756Y007566D02*
X021044Y007566D01*
X021044Y007447D02*
X020775Y007447D01*
X020769Y007452D02*
X020733Y007474D01*
X020692Y007484D01*
X020493Y007484D01*
X020493Y007146D01*
X020831Y007146D01*
X020831Y007345D01*
X020820Y007386D01*
X020799Y007423D01*
X020769Y007452D01*
X020831Y007329D02*
X021044Y007329D01*
X021044Y007210D02*
X020831Y007210D01*
X020831Y007030D02*
X020493Y007030D01*
X020493Y007146D01*
X020377Y007146D01*
X020377Y007484D01*
X020177Y007484D01*
X020137Y007474D01*
X020100Y007452D01*
X020070Y007423D01*
X020049Y007386D01*
X020038Y007345D01*
X020038Y007146D01*
X020377Y007146D01*
X020377Y007030D01*
X020493Y007030D01*
X020493Y006692D01*
X020692Y006692D01*
X020733Y006703D01*
X020769Y006724D01*
X020799Y006754D01*
X020820Y006790D01*
X020831Y006831D01*
X020831Y007030D01*
X020831Y006973D02*
X021044Y006973D01*
X021044Y006855D02*
X020831Y006855D01*
X020781Y006736D02*
X021044Y006736D01*
X021044Y007092D02*
X020493Y007092D01*
X020377Y007092D02*
X017898Y007092D01*
X017967Y007210D02*
X018082Y007210D01*
X018267Y007210D02*
X018267Y007210D01*
X018267Y007196D02*
X018267Y007789D01*
X018267Y007803D02*
X018267Y007803D01*
X018267Y007921D02*
X018267Y007921D01*
X018267Y008040D02*
X018267Y008040D01*
X018267Y008158D02*
X018267Y008158D01*
X018267Y008277D02*
X018267Y008277D01*
X018267Y008395D02*
X018349Y008395D01*
X018179Y008600D02*
X018179Y010100D01*
X018299Y010291D02*
X019165Y010291D01*
X019165Y010173D02*
X018417Y010173D01*
X018536Y010054D02*
X019165Y010054D01*
X019165Y009936D02*
X018654Y009936D01*
X018773Y009817D02*
X019165Y009817D01*
X019165Y009699D02*
X018891Y009699D01*
X019010Y009580D02*
X019165Y009580D01*
X019128Y009462D02*
X019241Y009462D01*
X019247Y009343D02*
X020919Y009343D01*
X020919Y009462D02*
X020156Y009462D01*
X020232Y009580D02*
X020919Y009580D01*
X020919Y009699D02*
X020232Y009699D01*
X020232Y009817D02*
X020919Y009817D01*
X020919Y009936D02*
X020232Y009936D01*
X020232Y010054D02*
X020919Y010054D01*
X020919Y010173D02*
X020232Y010173D01*
X020232Y010291D02*
X020919Y010291D01*
X020919Y010410D02*
X020232Y010410D01*
X020232Y010528D02*
X020919Y010528D01*
X020919Y010647D02*
X020232Y010647D01*
X020232Y010765D02*
X020919Y010765D01*
X020919Y010884D02*
X020232Y010884D01*
X020232Y011002D02*
X020919Y011002D01*
X020919Y011121D02*
X020232Y011121D01*
X020232Y011239D02*
X020918Y011239D01*
X020941Y011358D02*
X020232Y011358D01*
X020232Y011476D02*
X021055Y011476D01*
X020992Y011832D02*
X020220Y011832D01*
X020232Y011713D02*
X022243Y011713D01*
X022505Y011713D02*
X022625Y011713D01*
X022625Y011832D02*
X022505Y011832D01*
X022505Y011950D02*
X022625Y011950D01*
X022625Y012069D02*
X022505Y012069D01*
X022625Y012187D02*
X023160Y012187D01*
X023107Y012069D02*
X022980Y012069D01*
X022980Y011950D02*
X023053Y011950D01*
X023000Y011832D02*
X022979Y011832D01*
X023464Y011595D02*
X026355Y011595D01*
X026355Y011713D02*
X023517Y011713D01*
X023570Y011832D02*
X026355Y011832D01*
X026355Y011950D02*
X023624Y011950D01*
X023677Y012069D02*
X026355Y012069D01*
X026355Y012187D02*
X023730Y012187D01*
X023819Y012306D02*
X023956Y012306D01*
X024344Y012620D02*
X024368Y012643D01*
X023952Y012898D02*
X018761Y012898D01*
X018761Y012780D02*
X023558Y012780D01*
X023439Y012661D02*
X018366Y012661D01*
X018366Y012658D02*
X018366Y012476D01*
X018354Y012476D01*
X018354Y012120D01*
X018234Y012120D01*
X018234Y012302D01*
X018246Y012302D01*
X018246Y012658D01*
X018366Y012658D01*
X018366Y012543D02*
X018246Y012543D01*
X018246Y012424D02*
X018354Y012424D01*
X018354Y012306D02*
X018246Y012306D01*
X018234Y012187D02*
X018354Y012187D01*
X018354Y012069D02*
X020772Y012069D01*
X020766Y012187D02*
X018749Y012187D01*
X018749Y012306D02*
X020802Y012306D01*
X020899Y012424D02*
X018757Y012424D01*
X018761Y012543D02*
X021455Y012543D01*
X021421Y012424D02*
X021309Y012424D01*
X021381Y011950D02*
X021421Y011950D01*
X021421Y011832D02*
X021216Y011832D01*
X020827Y011950D02*
X018749Y011950D01*
X018749Y011832D02*
X019177Y011832D01*
X019165Y011713D02*
X018721Y011713D01*
X018729Y011595D02*
X019165Y011595D01*
X019165Y011476D02*
X018729Y011476D01*
X018729Y011358D02*
X019165Y011358D01*
X019165Y011239D02*
X018729Y011239D01*
X018796Y011121D02*
X019165Y011121D01*
X019165Y011002D02*
X018915Y011002D01*
X018529Y010765D02*
X017914Y010765D01*
X017914Y010884D02*
X018411Y010884D01*
X018648Y010647D02*
X017943Y010647D01*
X018062Y010528D02*
X018766Y010528D01*
X019165Y010410D02*
X018180Y010410D01*
X017714Y010600D02*
X017714Y010840D01*
X017336Y011218D01*
X017336Y011179D01*
X017674Y011239D02*
X017819Y011239D01*
X017858Y011121D02*
X017717Y011121D01*
X017835Y011002D02*
X017858Y011002D01*
X017701Y011358D02*
X017674Y011358D01*
X017714Y010600D02*
X017714Y009998D01*
X017714Y009250D02*
X016612Y009250D01*
X015990Y008628D01*
X015990Y007017D01*
X015974Y007002D01*
X016092Y006226D02*
X015269Y006226D01*
X014974Y006348D01*
X014713Y006381D02*
X013686Y006381D01*
X013686Y006499D02*
X014714Y006499D01*
X014714Y006618D02*
X014228Y006618D01*
X014215Y006608D02*
X014274Y006651D01*
X014325Y006702D01*
X014367Y006760D01*
X014400Y006825D01*
X014423Y006894D01*
X014433Y006962D01*
X014014Y006962D01*
X014014Y006542D01*
X014082Y006553D01*
X014151Y006575D01*
X014215Y006608D01*
X014350Y006736D02*
X014617Y006736D01*
X014559Y006855D02*
X014410Y006855D01*
X014534Y006973D02*
X014014Y006973D01*
X014014Y007042D02*
X014433Y007042D01*
X014423Y007109D01*
X014400Y007178D01*
X014367Y007243D01*
X014325Y007301D01*
X014274Y007352D01*
X014215Y007395D01*
X014151Y007428D01*
X014082Y007450D01*
X014014Y007461D01*
X014014Y007042D01*
X014014Y007092D02*
X013934Y007092D01*
X013934Y007210D02*
X014014Y007210D01*
X014014Y007329D02*
X013934Y007329D01*
X013934Y007447D02*
X014014Y007447D01*
X014092Y007447D02*
X014753Y007447D01*
X014731Y007566D02*
X013686Y007566D01*
X013686Y007684D02*
X014613Y007684D01*
X014483Y007803D02*
X013686Y007803D01*
X013686Y007921D02*
X014393Y007921D01*
X014303Y008040D02*
X013686Y008040D01*
X013686Y008158D02*
X014213Y008158D01*
X014127Y008277D02*
X013686Y008277D01*
X013686Y008395D02*
X014106Y008395D01*
X014112Y008514D02*
X013686Y008514D01*
X013686Y008632D02*
X014112Y008632D01*
X014112Y008751D02*
X013821Y008751D01*
X013906Y008869D02*
X014112Y008869D01*
X014112Y008988D02*
X013906Y008988D01*
X013906Y009106D02*
X014112Y009106D01*
X014112Y009225D02*
X013906Y009225D01*
X013906Y009343D02*
X014112Y009343D01*
X014112Y009462D02*
X013906Y009462D01*
X013906Y009580D02*
X014112Y009580D01*
X014112Y009699D02*
X013906Y009699D01*
X013906Y009817D02*
X014112Y009817D01*
X014112Y009936D02*
X013906Y009936D01*
X013906Y010054D02*
X014113Y010054D01*
X014113Y010173D02*
X013906Y010173D01*
X013906Y010291D02*
X014113Y010291D01*
X014113Y010410D02*
X013906Y010410D01*
X013706Y010702D02*
X013824Y010820D01*
X013706Y010702D02*
X013706Y008919D01*
X013486Y008761D01*
X013486Y006344D01*
X013293Y006088D01*
X011742Y006088D01*
X011486Y006344D01*
X011486Y007876D01*
X011230Y008131D01*
X008521Y008131D01*
X008171Y007781D01*
X007305Y007781D01*
X007701Y007566D02*
X011286Y007566D01*
X011286Y007684D02*
X008357Y007684D01*
X008475Y007803D02*
X011276Y007803D01*
X011158Y007921D02*
X008594Y007921D01*
X008265Y008158D02*
X007677Y008158D01*
X007701Y008040D02*
X008146Y008040D01*
X008383Y008277D02*
X005465Y008277D01*
X005465Y008158D02*
X006184Y008158D01*
X006161Y008040D02*
X005377Y008040D01*
X005359Y007921D02*
X005259Y007921D01*
X005240Y007803D02*
X005140Y007803D01*
X005122Y007684D02*
X005022Y007684D01*
X005003Y007566D02*
X004903Y007566D01*
X004885Y007447D02*
X004785Y007447D01*
X004766Y007329D02*
X004666Y007329D01*
X004648Y007210D02*
X004548Y007210D01*
X004529Y007092D02*
X004429Y007092D01*
X004411Y006973D02*
X004311Y006973D01*
X004292Y006855D02*
X004192Y006855D01*
X004174Y006736D02*
X004074Y006736D01*
X004055Y006618D02*
X003955Y006618D01*
X003937Y006499D02*
X003837Y006499D01*
X003818Y006381D02*
X003718Y006381D01*
X003700Y006262D02*
X003600Y006262D01*
X003632Y006144D02*
X003481Y006144D01*
X003363Y006025D02*
X003632Y006025D01*
X003632Y005907D02*
X002166Y005907D01*
X002047Y005788D02*
X003632Y005788D01*
X003632Y005670D02*
X001929Y005670D01*
X001810Y005551D02*
X003632Y005551D01*
X003467Y005433D02*
X003387Y005433D01*
X003391Y005426D02*
X003370Y005462D01*
X003340Y005492D01*
X003303Y005513D01*
X003263Y005524D01*
X003064Y005524D01*
X003064Y005186D01*
X003402Y005186D01*
X003402Y005385D01*
X003391Y005426D01*
X003402Y005314D02*
X003456Y005314D01*
X003456Y005196D02*
X003402Y005196D01*
X003402Y005069D02*
X003064Y005069D01*
X003064Y005186D01*
X002947Y005186D01*
X002947Y005524D01*
X002748Y005524D01*
X002708Y005513D01*
X002671Y005492D01*
X002641Y005462D01*
X002620Y005426D01*
X002609Y005385D01*
X002609Y005186D01*
X002947Y005186D01*
X002947Y005069D01*
X003064Y005069D01*
X003064Y004731D01*
X003263Y004731D01*
X003303Y004742D01*
X003340Y004763D01*
X003370Y004793D01*
X003391Y004830D01*
X003402Y004870D01*
X003402Y005069D01*
X003456Y005077D02*
X003064Y005077D01*
X002947Y005077D02*
X001772Y005077D01*
X001772Y004959D02*
X002609Y004959D01*
X002609Y004870D02*
X002609Y005069D01*
X002947Y005069D01*
X002947Y004731D01*
X002748Y004731D01*
X002708Y004742D01*
X002671Y004763D01*
X002641Y004793D01*
X002620Y004830D01*
X002609Y004870D01*
X002617Y004840D02*
X001772Y004840D01*
X001772Y004722D02*
X004357Y004722D01*
X004357Y004840D02*
X004209Y004840D01*
X004209Y004959D02*
X004357Y004959D01*
X004357Y005077D02*
X004209Y005077D01*
X004209Y005196D02*
X004357Y005196D01*
X004357Y005314D02*
X004209Y005314D01*
X004198Y005433D02*
X004357Y005433D01*
X004357Y005551D02*
X004032Y005551D01*
X004032Y005670D02*
X004357Y005670D01*
X004357Y005788D02*
X004032Y005788D01*
X004032Y005907D02*
X004357Y005907D01*
X004357Y006025D02*
X004032Y006025D01*
X004147Y006144D02*
X004357Y006144D01*
X004357Y006262D02*
X004265Y006262D01*
X004357Y006269D02*
X004357Y004132D01*
X004117Y003892D01*
X004116Y003892D01*
X004117Y003892D02*
X004095Y003913D01*
X003507Y003913D01*
X003425Y003831D01*
X003425Y003243D01*
X003507Y003161D01*
X004095Y003161D01*
X004177Y003243D01*
X004177Y003386D01*
X004640Y003849D01*
X004757Y003966D01*
X004757Y006104D01*
X004994Y006341D01*
X005246Y006341D01*
X005521Y006617D01*
X006157Y006617D01*
X006157Y006471D01*
X006239Y006389D01*
X006867Y006389D01*
X006927Y006449D01*
X006987Y006389D01*
X007101Y006389D01*
X007101Y006308D01*
X007037Y006308D01*
X006955Y006226D01*
X006955Y005714D01*
X007037Y005632D01*
X007549Y005632D01*
X007631Y005714D01*
X007631Y006226D01*
X007549Y006308D01*
X007501Y006308D01*
X007501Y006389D01*
X007615Y006389D01*
X007697Y006471D01*
X007697Y007178D01*
X007615Y007260D01*
X006987Y007260D01*
X006927Y007200D01*
X006867Y007260D01*
X006239Y007260D01*
X006157Y007178D01*
X006157Y007017D01*
X005356Y007017D01*
X005239Y006899D01*
X005080Y006741D01*
X004828Y006741D01*
X004711Y006624D01*
X004357Y006269D01*
X004384Y006381D02*
X004468Y006381D01*
X004502Y006499D02*
X004586Y006499D01*
X004621Y006618D02*
X004705Y006618D01*
X004739Y006736D02*
X004823Y006736D01*
X004858Y006855D02*
X005194Y006855D01*
X005312Y006973D02*
X004976Y006973D01*
X005095Y007092D02*
X006157Y007092D01*
X006189Y007210D02*
X005213Y007210D01*
X005332Y007329D02*
X008296Y007329D01*
X008353Y007386D02*
X008231Y007264D01*
X008165Y007104D01*
X008165Y006931D01*
X008231Y006771D01*
X008353Y006648D01*
X008410Y006625D01*
X008410Y005596D01*
X008478Y005528D01*
X008478Y005245D01*
X006038Y005245D01*
X005956Y005163D01*
X005956Y000795D01*
X006038Y000713D01*
X010252Y000713D01*
X010334Y000795D01*
X010334Y005163D01*
X010315Y005182D01*
X010519Y005182D01*
X010519Y004979D01*
X010601Y004897D01*
X011229Y004897D01*
X011289Y004957D01*
X011349Y004897D01*
X011977Y004897D01*
X012059Y004979D01*
X012059Y005142D01*
X012427Y005142D01*
X012494Y005075D01*
X012494Y004749D01*
X012576Y004667D01*
X013088Y004667D01*
X013170Y004749D01*
X013170Y005262D01*
X013088Y005344D01*
X012763Y005344D01*
X012584Y005522D01*
X012059Y005522D01*
X012059Y005686D01*
X011977Y005768D01*
X011349Y005768D01*
X011289Y005707D01*
X011229Y005768D01*
X010601Y005768D01*
X010519Y005686D01*
X010519Y005562D01*
X010470Y005562D01*
X009790Y006242D01*
X009790Y006625D01*
X009847Y006648D01*
X009969Y006771D01*
X010035Y006931D01*
X010035Y007104D01*
X009969Y007264D01*
X009847Y007386D01*
X009687Y007453D01*
X009513Y007453D01*
X009353Y007386D01*
X009231Y007264D01*
X009165Y007104D01*
X009165Y006931D01*
X009231Y006771D01*
X009353Y006648D01*
X009410Y006625D01*
X009410Y006084D01*
X010201Y005293D01*
X010249Y005245D01*
X009155Y005245D01*
X009155Y005714D01*
X009073Y005796D01*
X008790Y005796D01*
X008790Y006625D01*
X008847Y006648D01*
X008969Y006771D01*
X009035Y006931D01*
X009035Y007104D01*
X008969Y007264D01*
X008847Y007386D01*
X008687Y007453D01*
X008513Y007453D01*
X008353Y007386D01*
X008500Y007447D02*
X007701Y007447D01*
X007664Y007210D02*
X008209Y007210D01*
X008165Y007092D02*
X007697Y007092D01*
X007697Y006973D02*
X008165Y006973D01*
X008196Y006855D02*
X007697Y006855D01*
X007697Y006736D02*
X008266Y006736D01*
X008410Y006618D02*
X007697Y006618D01*
X007697Y006499D02*
X008410Y006499D01*
X008410Y006381D02*
X007501Y006381D01*
X007595Y006262D02*
X008410Y006262D01*
X008410Y006144D02*
X007631Y006144D01*
X007631Y006025D02*
X008410Y006025D01*
X008410Y005907D02*
X007631Y005907D01*
X007631Y005788D02*
X008410Y005788D01*
X008410Y005670D02*
X007587Y005670D01*
X007301Y005978D02*
X007293Y005970D01*
X007301Y005978D02*
X007301Y006824D01*
X006937Y007210D02*
X006916Y007210D01*
X006553Y006824D02*
X006545Y006817D01*
X005439Y006817D01*
X005163Y006541D01*
X004911Y006541D01*
X004557Y006187D01*
X004557Y004049D01*
X004045Y003537D01*
X003801Y003537D01*
X004209Y003418D02*
X005956Y003418D01*
X005956Y003300D02*
X004177Y003300D01*
X004115Y003181D02*
X005956Y003181D01*
X005956Y003063D02*
X001772Y003063D01*
X001772Y003181D02*
X002631Y003181D01*
X002640Y003173D02*
X002676Y003152D01*
X002717Y003141D01*
X002916Y003141D01*
X002916Y003479D01*
X003032Y003479D01*
X003032Y003141D01*
X003231Y003141D01*
X003272Y003152D01*
X003308Y003173D01*
X003338Y003203D01*
X003359Y003239D01*
X003370Y003280D01*
X003370Y003479D01*
X003032Y003479D01*
X003032Y003595D01*
X002916Y003595D01*
X002916Y003479D01*
X002578Y003479D01*
X002578Y003280D01*
X002589Y003239D01*
X002610Y003203D01*
X002640Y003173D01*
X002578Y003300D02*
X001772Y003300D01*
X001772Y003418D02*
X002578Y003418D01*
X002578Y003595D02*
X002578Y003794D01*
X002589Y003835D01*
X002610Y003871D01*
X002640Y003901D01*
X002676Y003922D01*
X002717Y003933D01*
X002916Y003933D01*
X002916Y003595D01*
X002578Y003595D01*
X002578Y003655D02*
X001772Y003655D01*
X001772Y003537D02*
X002916Y003537D01*
X003032Y003537D02*
X003425Y003537D01*
X003370Y003595D02*
X003370Y003794D01*
X003359Y003835D01*
X003338Y003871D01*
X003308Y003901D01*
X003272Y003922D01*
X003231Y003933D01*
X003032Y003933D01*
X003032Y003595D01*
X003370Y003595D01*
X003370Y003655D02*
X003425Y003655D01*
X003425Y003774D02*
X003370Y003774D01*
X003318Y003892D02*
X003485Y003892D01*
X003425Y003418D02*
X003370Y003418D01*
X003370Y003300D02*
X003425Y003300D01*
X003486Y003181D02*
X003317Y003181D01*
X003032Y003181D02*
X002916Y003181D01*
X002916Y003300D02*
X003032Y003300D01*
X003032Y003418D02*
X002916Y003418D01*
X002916Y003655D02*
X003032Y003655D01*
X003032Y003774D02*
X002916Y003774D01*
X002916Y003892D02*
X003032Y003892D01*
X002630Y003892D02*
X001772Y003892D01*
X001772Y003774D02*
X002578Y003774D01*
X001772Y004011D02*
X004236Y004011D01*
X004354Y004129D02*
X001772Y004129D01*
X001772Y004248D02*
X004357Y004248D01*
X004357Y004366D02*
X001772Y004366D01*
X001772Y004485D02*
X004357Y004485D01*
X004357Y004603D02*
X001772Y004603D01*
X001372Y004603D02*
X000930Y004603D01*
X000930Y004485D02*
X001372Y004485D01*
X001372Y004366D02*
X000930Y004366D01*
X000929Y004248D02*
X001372Y004248D01*
X001372Y004129D02*
X000929Y004129D01*
X000929Y004011D02*
X001372Y004011D01*
X001372Y003892D02*
X000928Y003892D01*
X000928Y003774D02*
X001372Y003774D01*
X001372Y003655D02*
X000927Y003655D01*
X000927Y003537D02*
X001372Y003537D01*
X001372Y003418D02*
X000927Y003418D01*
X000926Y003300D02*
X001372Y003300D01*
X001372Y003181D02*
X000926Y003181D01*
X000926Y003063D02*
X001372Y003063D01*
X001372Y002944D02*
X000925Y002944D01*
X000925Y002826D02*
X001372Y002826D01*
X001470Y002707D02*
X000924Y002707D01*
X000924Y002589D02*
X001588Y002589D01*
X001707Y002470D02*
X000924Y002470D01*
X000923Y002352D02*
X003495Y002352D01*
X003593Y002233D02*
X000923Y002233D01*
X000923Y002115D02*
X002621Y002115D01*
X002632Y002126D02*
X002602Y002096D01*
X002581Y002059D01*
X002570Y002019D01*
X002570Y001820D01*
X002908Y001820D01*
X002908Y002158D01*
X002709Y002158D01*
X002668Y002147D01*
X002632Y002126D01*
X002570Y001996D02*
X000922Y001996D01*
X000922Y001878D02*
X002570Y001878D01*
X002570Y001703D02*
X002570Y001504D01*
X002581Y001463D01*
X002602Y001427D01*
X002632Y001397D01*
X002668Y001376D01*
X002709Y001365D01*
X002908Y001365D01*
X002908Y001703D01*
X003024Y001703D01*
X003024Y001365D01*
X003223Y001365D01*
X003264Y001376D01*
X003301Y001397D01*
X003330Y001427D01*
X003351Y001463D01*
X003362Y001504D01*
X003362Y001703D01*
X003024Y001703D01*
X003024Y001820D01*
X002908Y001820D01*
X002908Y001703D01*
X002570Y001703D01*
X002570Y001641D02*
X000921Y001641D01*
X000921Y001759D02*
X002908Y001759D01*
X003024Y001759D02*
X003417Y001759D01*
X003362Y001820D02*
X003362Y002019D01*
X003351Y002059D01*
X003330Y002096D01*
X003301Y002126D01*
X003264Y002147D01*
X003223Y002158D01*
X003024Y002158D01*
X003024Y001820D01*
X003362Y001820D01*
X003362Y001878D02*
X003417Y001878D01*
X003417Y001996D02*
X003362Y001996D01*
X003312Y002115D02*
X003476Y002115D01*
X003793Y002336D02*
X003517Y002612D01*
X001848Y002612D01*
X001572Y002887D01*
X001572Y005596D01*
X002084Y006108D01*
X003163Y006108D01*
X005265Y008210D01*
X005265Y008372D01*
X005655Y008761D01*
X006553Y008761D01*
X006557Y008757D01*
X006161Y008988D02*
X000944Y008988D01*
X000945Y009106D02*
X006161Y009106D01*
X006613Y009462D02*
X000946Y009462D01*
X000946Y009580D02*
X002308Y009580D01*
X002196Y009699D02*
X000947Y009699D01*
X000947Y009817D02*
X002192Y009817D01*
X002192Y010054D02*
X000948Y010054D01*
X000947Y009936D02*
X002587Y009936D01*
X002587Y009817D02*
X002707Y009817D01*
X002707Y009699D02*
X002587Y009699D01*
X002587Y009580D02*
X002707Y009580D01*
X002987Y009580D02*
X003855Y009580D01*
X003795Y009699D02*
X003099Y009699D01*
X003103Y009817D02*
X003795Y009817D01*
X003795Y009936D02*
X002707Y009936D01*
X003103Y010054D02*
X003795Y010054D01*
X003795Y010173D02*
X003103Y010173D01*
X003096Y010291D02*
X003817Y010291D01*
X004179Y010600D02*
X004250Y010702D01*
X004179Y010600D02*
X002679Y010600D01*
X002647Y010738D01*
X002450Y011134D02*
X002294Y011134D01*
X002212Y011052D01*
X002212Y011038D01*
X001161Y011038D01*
X000951Y011248D01*
X000951Y013332D01*
X003306Y013332D01*
X003306Y013239D01*
X003388Y013157D01*
X004016Y013157D01*
X004063Y013204D01*
X004066Y013199D01*
X004096Y013169D01*
X004133Y013148D01*
X004173Y013137D01*
X004390Y013137D01*
X004390Y013532D01*
X004510Y013532D01*
X004510Y013137D01*
X004727Y013137D01*
X004768Y013148D01*
X004805Y013169D01*
X004834Y013199D01*
X004855Y013235D01*
X004866Y013276D01*
X004866Y013532D01*
X004510Y013532D01*
X004510Y013652D01*
X004390Y013652D01*
X004390Y014047D01*
X004173Y014047D01*
X004133Y014036D01*
X004096Y014015D01*
X004066Y013986D01*
X004063Y013980D01*
X004016Y014027D01*
X003388Y014027D01*
X003306Y013945D01*
X003306Y013852D01*
X000975Y013852D01*
X000951Y013876D01*
X000951Y020505D01*
X000974Y020483D01*
X003892Y020483D01*
X004009Y020600D01*
X004757Y021348D01*
X004757Y021631D01*
X005013Y021375D01*
X005366Y021229D01*
X005748Y021229D01*
X006100Y021375D01*
X006371Y021645D01*
X006517Y021998D01*
X006517Y022380D01*
X006462Y022511D01*
X006582Y022461D01*
X006832Y022461D01*
X007062Y022557D01*
X007239Y022733D01*
X007334Y022964D01*
X007334Y023213D01*
X007239Y023444D01*
X007062Y023621D01*
X006832Y023716D01*
X006582Y023716D01*
X006351Y023621D01*
X006175Y023444D01*
X006079Y023213D01*
X006079Y023011D01*
X005748Y023149D01*
X005366Y023149D01*
X005013Y023002D01*
X004757Y022746D01*
X004757Y023151D01*
X005105Y023790D01*
X007652Y023790D01*
X008074Y023602D01*
X008074Y023310D01*
X008090Y023294D01*
X007979Y023183D01*
X007479Y022683D01*
X007479Y022517D01*
X007479Y022183D01*
X006979Y021683D01*
X006979Y020670D01*
X006971Y020660D01*
X006979Y020589D01*
X006979Y020517D01*
X006988Y020508D01*
X006989Y020495D01*
X007045Y020451D01*
X007096Y020400D01*
X007109Y020400D01*
X007545Y020053D01*
X007596Y020002D01*
X007609Y020002D01*
X007619Y019994D01*
X007690Y020002D01*
X007748Y020002D01*
X007684Y019938D01*
X007617Y019776D01*
X007617Y019601D01*
X007684Y019439D01*
X007807Y019316D01*
X007969Y019249D01*
X008144Y019249D01*
X008306Y019316D01*
X008430Y019439D01*
X008497Y019601D01*
X008497Y019776D01*
X008430Y019938D01*
X008365Y020002D01*
X008658Y020002D01*
X008684Y019939D01*
X008807Y019816D01*
X008969Y019749D01*
X009144Y019749D01*
X009306Y019816D01*
X009430Y019939D01*
X009497Y020101D01*
X009497Y020276D01*
X009430Y020438D01*
X009379Y020489D01*
X010192Y020489D01*
X010192Y020353D01*
X010274Y020271D01*
X010902Y020271D01*
X010962Y020331D01*
X011022Y020271D01*
X011140Y020271D01*
X011131Y019630D01*
X011011Y019630D01*
X010950Y019570D01*
X010890Y019630D01*
X010262Y019630D01*
X010180Y019548D01*
X010180Y019389D01*
X009450Y019389D01*
X009430Y019438D01*
X009306Y019562D01*
X009144Y019629D01*
X008969Y019629D01*
X008807Y019562D01*
X008684Y019438D01*
X008617Y019276D01*
X008617Y019101D01*
X008684Y018939D01*
X008807Y018816D01*
X008969Y018749D01*
X009144Y018749D01*
X009306Y018816D01*
X009430Y018939D01*
X009450Y018989D01*
X010180Y018989D01*
X010180Y018841D01*
X010262Y018759D01*
X010890Y018759D01*
X010950Y018819D01*
X011011Y018759D01*
X011282Y018759D01*
X011282Y018757D01*
X011314Y018725D01*
X011333Y018683D01*
X011370Y018669D01*
X011399Y018640D01*
X011445Y018640D01*
X011487Y018624D01*
X011524Y018640D01*
X012051Y018640D01*
X012051Y018487D01*
X012133Y018405D01*
X012760Y018405D01*
X012807Y018452D01*
X012811Y018447D01*
X012840Y018417D01*
X012877Y018396D01*
X012918Y018385D01*
X013134Y018385D01*
X013134Y018780D01*
X013254Y018780D01*
X013254Y018385D01*
X013471Y018385D01*
X013512Y018396D01*
X013549Y018417D01*
X013578Y018447D01*
X013599Y018483D01*
X013600Y018487D01*
X013600Y018312D01*
X013580Y018292D01*
X012344Y018292D01*
X012227Y018175D01*
X011419Y017367D01*
X011265Y017367D01*
X011148Y017250D01*
X010183Y016284D01*
X007090Y016284D01*
X007239Y016433D01*
X007334Y016664D01*
X007334Y016913D01*
X007239Y017144D01*
X007062Y017321D01*
X006832Y017416D01*
X006582Y017416D01*
X006462Y017367D01*
X006517Y017498D01*
X006517Y017880D01*
X006371Y018232D01*
X006100Y018502D01*
X005748Y018649D01*
X005366Y018649D01*
X005013Y018502D01*
X004743Y018232D01*
X004597Y017880D01*
X004597Y017498D01*
X004743Y017145D01*
X005013Y016875D01*
X005366Y016729D01*
X005748Y016729D01*
X006079Y016866D01*
X006079Y016664D01*
X006175Y016433D01*
X006324Y016284D01*
X004886Y016284D01*
X004886Y016438D01*
X004804Y016520D01*
X004176Y016520D01*
X004116Y016459D01*
X004056Y016520D01*
X003807Y016520D01*
X003807Y016945D01*
X003856Y016966D01*
X003980Y017089D01*
X004047Y017251D01*
X004047Y017426D01*
X003980Y017588D01*
X003856Y017712D01*
X003694Y017779D01*
X003519Y017779D01*
X003357Y017712D01*
X003234Y017588D01*
X003167Y017426D01*
X003167Y017251D01*
X003234Y017089D01*
X003357Y016966D01*
X003407Y016945D01*
X003407Y016498D01*
X003346Y016438D01*
X003346Y015731D01*
X003428Y015649D01*
X004056Y015649D01*
X004116Y015709D01*
X004176Y015649D01*
X004804Y015649D01*
X004886Y015731D01*
X004886Y015884D01*
X008616Y015884D01*
X008616Y015786D01*
X006695Y015786D01*
X006583Y015675D01*
X006327Y015419D01*
X006327Y014675D01*
X006286Y014634D01*
X006229Y014691D01*
X006303Y014764D01*
X006303Y015117D01*
X006221Y015199D01*
X005239Y015199D01*
X005220Y015180D01*
X004481Y015180D01*
X004481Y015246D01*
X004399Y015328D01*
X003887Y015328D01*
X003805Y015246D01*
X003805Y014734D01*
X003827Y014712D01*
X003786Y014671D01*
X003786Y014159D01*
X003868Y014077D01*
X004380Y014077D01*
X004462Y014159D01*
X004462Y014225D01*
X005196Y014225D01*
X005231Y014191D01*
X005157Y014117D01*
X005157Y013764D01*
X005221Y013700D01*
X005199Y013687D01*
X005169Y013657D01*
X005148Y013620D01*
X005137Y013580D01*
X005137Y013441D01*
X005730Y013441D01*
X006323Y013441D01*
X006323Y013580D01*
X006312Y013620D01*
X006291Y013657D01*
X006261Y013687D01*
X006238Y013700D01*
X006303Y013764D01*
X006303Y014117D01*
X006229Y014191D01*
X006289Y014251D01*
X006441Y014251D01*
X006596Y014406D01*
X006707Y014517D01*
X006707Y015261D01*
X006852Y015406D01*
X008696Y015406D01*
X008698Y015404D01*
X008832Y015404D01*
X008854Y015391D01*
X008895Y015404D01*
X009210Y015404D01*
X009292Y015486D01*
X009292Y015884D01*
X009314Y015884D01*
X009301Y015872D01*
X009301Y015360D01*
X009321Y015340D01*
X009049Y015340D01*
X008967Y015258D01*
X008967Y014745D01*
X009016Y014696D01*
X009016Y014675D01*
X008472Y014131D01*
X008336Y014131D01*
X008276Y014191D01*
X008350Y014264D01*
X008350Y014617D01*
X008276Y014691D01*
X008350Y014764D01*
X008350Y015117D01*
X008268Y015199D01*
X007286Y015199D01*
X007204Y015117D01*
X007204Y014764D01*
X007278Y014691D01*
X007218Y014631D01*
X006834Y014631D01*
X006635Y014432D01*
X006524Y014320D01*
X006510Y014320D01*
X006524Y014320D02*
X006524Y012631D01*
X006301Y012408D01*
X004456Y012408D01*
X004392Y012472D01*
X004282Y012518D01*
X003123Y012518D01*
X003013Y012472D01*
X002580Y012039D01*
X002495Y011955D01*
X002450Y011845D01*
X002450Y011134D01*
X002450Y011239D02*
X000960Y011239D01*
X000951Y011358D02*
X002450Y011358D01*
X002450Y011476D02*
X000951Y011476D01*
X000951Y011595D02*
X002450Y011595D01*
X002450Y011713D02*
X000951Y011713D01*
X000951Y011832D02*
X002450Y011832D01*
X002493Y011950D02*
X000951Y011950D01*
X000951Y012069D02*
X002609Y012069D01*
X002727Y012187D02*
X000951Y012187D01*
X000951Y012306D02*
X002846Y012306D01*
X002964Y012424D02*
X000951Y012424D01*
X000951Y012543D02*
X006435Y012543D01*
X006524Y012661D02*
X000951Y012661D01*
X000951Y012780D02*
X006524Y012780D01*
X006524Y012898D02*
X000951Y012898D01*
X000951Y013017D02*
X006524Y013017D01*
X006524Y013135D02*
X000951Y013135D01*
X000951Y013254D02*
X003306Y013254D01*
X003326Y013965D02*
X000951Y013965D01*
X000951Y014083D02*
X003861Y014083D01*
X003786Y014202D02*
X000951Y014202D01*
X000951Y014320D02*
X003786Y014320D01*
X003786Y014439D02*
X000951Y014439D01*
X000951Y014557D02*
X003786Y014557D01*
X003790Y014676D02*
X000951Y014676D01*
X000951Y014794D02*
X003805Y014794D01*
X003805Y014913D02*
X000951Y014913D01*
X000951Y015031D02*
X003805Y015031D01*
X003805Y015150D02*
X000951Y015150D01*
X000951Y015268D02*
X003827Y015268D01*
X004459Y015268D02*
X006327Y015268D01*
X006327Y015150D02*
X006270Y015150D01*
X006303Y015031D02*
X006327Y015031D01*
X006327Y014913D02*
X006303Y014913D01*
X006303Y014794D02*
X006327Y014794D01*
X006327Y014676D02*
X006244Y014676D01*
X006628Y014439D02*
X006642Y014439D01*
X006707Y014557D02*
X006761Y014557D01*
X006707Y014676D02*
X007263Y014676D01*
X007204Y014794D02*
X006707Y014794D01*
X006707Y014913D02*
X007204Y014913D01*
X007204Y015031D02*
X006707Y015031D01*
X006707Y015150D02*
X007237Y015150D01*
X006832Y015387D02*
X009301Y015387D01*
X009292Y015505D02*
X009301Y015505D01*
X009292Y015624D02*
X009301Y015624D01*
X009292Y015742D02*
X009301Y015742D01*
X009292Y015861D02*
X009301Y015861D01*
X008977Y015268D02*
X006714Y015268D01*
X006413Y015505D02*
X000951Y015505D01*
X000951Y015387D02*
X006327Y015387D01*
X006532Y015624D02*
X000951Y015624D01*
X000951Y015742D02*
X003346Y015742D01*
X003346Y015861D02*
X000951Y015861D01*
X000951Y015979D02*
X003346Y015979D01*
X003346Y016098D02*
X000951Y016098D01*
X000951Y016216D02*
X003346Y016216D01*
X003346Y016335D02*
X000951Y016335D01*
X000951Y016453D02*
X003361Y016453D01*
X003407Y016572D02*
X000951Y016572D01*
X000951Y016690D02*
X003407Y016690D01*
X003407Y016809D02*
X000951Y016809D01*
X000951Y016927D02*
X003407Y016927D01*
X003277Y017046D02*
X000951Y017046D01*
X000951Y017164D02*
X003203Y017164D01*
X003167Y017283D02*
X000951Y017283D01*
X000951Y017401D02*
X003167Y017401D01*
X003205Y017520D02*
X000951Y017520D01*
X000951Y017638D02*
X003284Y017638D01*
X003466Y017757D02*
X000951Y017757D01*
X000951Y017875D02*
X004597Y017875D01*
X004597Y017757D02*
X003747Y017757D01*
X003714Y017890D02*
X003783Y017912D01*
X003848Y017945D01*
X003906Y017988D01*
X003958Y018039D01*
X004000Y018097D01*
X004033Y018162D01*
X004055Y018231D01*
X004067Y018302D01*
X004067Y018319D01*
X003627Y018319D01*
X003627Y018359D01*
X003587Y018359D01*
X003587Y018799D01*
X003570Y018799D01*
X003499Y018787D01*
X003430Y018765D01*
X003366Y018732D01*
X003307Y018689D01*
X003256Y018638D01*
X003213Y018580D01*
X003180Y018515D01*
X003158Y018446D01*
X003147Y018375D01*
X003147Y018359D01*
X003587Y018359D01*
X003587Y018319D01*
X003147Y018319D01*
X003147Y018302D01*
X003158Y018231D01*
X003180Y018162D01*
X003213Y018097D01*
X003256Y018039D01*
X003307Y017988D01*
X003366Y017945D01*
X003430Y017912D01*
X003499Y017890D01*
X003570Y017879D01*
X003587Y017879D01*
X003587Y018319D01*
X003627Y018319D01*
X003627Y017879D01*
X003643Y017879D01*
X003714Y017890D01*
X003627Y017994D02*
X003587Y017994D01*
X003587Y018112D02*
X003627Y018112D01*
X003627Y018231D02*
X003587Y018231D01*
X003587Y018349D02*
X000951Y018349D01*
X000951Y018231D02*
X003158Y018231D01*
X003206Y018112D02*
X000951Y018112D01*
X000951Y017994D02*
X003301Y017994D01*
X003627Y018349D02*
X004860Y018349D01*
X004742Y018231D02*
X004055Y018231D01*
X004008Y018112D02*
X004693Y018112D01*
X004644Y017994D02*
X003912Y017994D01*
X004067Y018359D02*
X003627Y018359D01*
X003627Y018799D01*
X003643Y018799D01*
X003714Y018787D01*
X003783Y018765D01*
X003848Y018732D01*
X003906Y018689D01*
X003958Y018638D01*
X004000Y018580D01*
X004033Y018515D01*
X004055Y018446D01*
X004067Y018375D01*
X004067Y018359D01*
X004048Y018468D02*
X004978Y018468D01*
X005215Y018586D02*
X003995Y018586D01*
X003886Y018705D02*
X007617Y018705D01*
X007617Y018776D02*
X007617Y018601D01*
X007684Y018439D01*
X007807Y018316D01*
X007969Y018249D01*
X008144Y018249D01*
X008306Y018316D01*
X008430Y018439D01*
X008497Y018601D01*
X008497Y018776D01*
X008430Y018938D01*
X008306Y019062D01*
X008144Y019129D01*
X007969Y019129D01*
X007807Y019062D01*
X007684Y018938D01*
X007617Y018776D01*
X007636Y018823D02*
X000951Y018823D01*
X000951Y018705D02*
X003328Y018705D01*
X003218Y018586D02*
X000951Y018586D01*
X000951Y018468D02*
X003165Y018468D01*
X003587Y018468D02*
X003627Y018468D01*
X003627Y018586D02*
X003587Y018586D01*
X003587Y018705D02*
X003627Y018705D01*
X003929Y017638D02*
X004597Y017638D01*
X004597Y017520D02*
X004008Y017520D01*
X004047Y017401D02*
X004637Y017401D01*
X004686Y017283D02*
X004047Y017283D01*
X004011Y017164D02*
X004735Y017164D01*
X004842Y017046D02*
X003936Y017046D01*
X003807Y016927D02*
X004961Y016927D01*
X005173Y016809D02*
X003807Y016809D01*
X003807Y016690D02*
X006079Y016690D01*
X006079Y016809D02*
X005941Y016809D01*
X006117Y016572D02*
X003807Y016572D01*
X003742Y016084D02*
X003607Y016062D01*
X003607Y017339D01*
X004870Y016453D02*
X006166Y016453D01*
X006273Y016335D02*
X004886Y016335D01*
X004490Y016084D02*
X010265Y016084D01*
X011348Y017167D01*
X011502Y017167D01*
X012427Y018092D01*
X013663Y018092D01*
X013939Y018368D01*
X014277Y018349D02*
X014555Y018349D01*
X014556Y018231D02*
X014277Y018231D01*
X014277Y018112D02*
X014363Y018112D01*
X014326Y018075D02*
X014408Y018157D01*
X014556Y018157D01*
X014554Y018509D01*
X014553Y018511D01*
X014553Y018720D01*
X014550Y019052D01*
X014553Y019057D01*
X014553Y019408D01*
X014486Y019408D01*
X014284Y019206D01*
X014284Y019199D01*
X014289Y019195D01*
X014289Y018682D01*
X014253Y018647D01*
X014277Y018624D01*
X014277Y018112D01*
X014195Y018030D01*
X013883Y018030D01*
X013746Y017892D01*
X012510Y017892D01*
X011625Y017007D01*
X012671Y017044D01*
X012671Y017112D01*
X012753Y017194D01*
X013266Y017194D01*
X013348Y017112D01*
X013348Y016666D01*
X014334Y016666D01*
X014317Y016696D01*
X014306Y016736D01*
X014306Y016953D01*
X014701Y016953D01*
X014701Y017073D01*
X014306Y017073D01*
X014306Y017290D01*
X014317Y017331D01*
X014338Y017368D01*
X014368Y017397D01*
X014373Y017400D01*
X014326Y017448D01*
X014326Y018075D01*
X014326Y017994D02*
X013847Y017994D01*
X013600Y018349D02*
X009488Y018349D01*
X009483Y018365D02*
X009450Y018430D01*
X009408Y018488D01*
X009356Y018539D01*
X009298Y018582D01*
X009233Y018615D01*
X009164Y018637D01*
X009093Y018649D01*
X009077Y018649D01*
X009077Y018209D01*
X009037Y018209D01*
X009037Y018649D01*
X009020Y018649D01*
X008949Y018637D01*
X008880Y018615D01*
X008816Y018582D01*
X008757Y018539D01*
X008706Y018488D01*
X008663Y018430D01*
X008630Y018365D01*
X008608Y018296D01*
X008597Y018225D01*
X008597Y018209D01*
X009037Y018209D01*
X009037Y018169D01*
X008597Y018169D01*
X008597Y018152D01*
X008608Y018081D01*
X008630Y018012D01*
X008663Y017947D01*
X008706Y017889D01*
X008757Y017838D01*
X008816Y017795D01*
X008880Y017762D01*
X008949Y017740D01*
X009020Y017729D01*
X009037Y017729D01*
X009037Y018169D01*
X009077Y018169D01*
X009077Y018209D01*
X009517Y018209D01*
X009517Y018225D01*
X009505Y018296D01*
X009483Y018365D01*
X009423Y018468D02*
X012070Y018468D01*
X012051Y018586D02*
X009290Y018586D01*
X009077Y018586D02*
X009037Y018586D01*
X009037Y018468D02*
X009077Y018468D01*
X009077Y018349D02*
X009037Y018349D01*
X009037Y018231D02*
X009077Y018231D01*
X009077Y018169D02*
X009517Y018169D01*
X009517Y018152D01*
X009505Y018081D01*
X009483Y018012D01*
X009450Y017947D01*
X009408Y017889D01*
X009356Y017838D01*
X009298Y017795D01*
X009233Y017762D01*
X009164Y017740D01*
X009093Y017729D01*
X009077Y017729D01*
X009077Y018169D01*
X009077Y018112D02*
X009037Y018112D01*
X009037Y017994D02*
X009077Y017994D01*
X009077Y017875D02*
X009037Y017875D01*
X009037Y017757D02*
X009077Y017757D01*
X009216Y017757D02*
X011808Y017757D01*
X011927Y017875D02*
X009394Y017875D01*
X009474Y017994D02*
X012045Y017994D01*
X012164Y018112D02*
X009510Y018112D01*
X009516Y018231D02*
X012282Y018231D01*
X012493Y017875D02*
X014326Y017875D01*
X014326Y017757D02*
X012374Y017757D01*
X012256Y017638D02*
X014326Y017638D01*
X014326Y017520D02*
X012137Y017520D01*
X012019Y017401D02*
X014373Y017401D01*
X014306Y017283D02*
X011900Y017283D01*
X011782Y017164D02*
X012723Y017164D01*
X012671Y017046D02*
X011663Y017046D01*
X011453Y017401D02*
X006868Y017401D01*
X007100Y017283D02*
X011181Y017283D01*
X011062Y017164D02*
X007219Y017164D01*
X007279Y017046D02*
X010944Y017046D01*
X010825Y016927D02*
X007329Y016927D01*
X007334Y016809D02*
X010707Y016809D01*
X010588Y016690D02*
X007334Y016690D01*
X007296Y016572D02*
X010470Y016572D01*
X010351Y016453D02*
X007247Y016453D01*
X007140Y016335D02*
X010233Y016335D01*
X010006Y015513D02*
X010006Y012773D01*
X010604Y012037D01*
X012033Y012037D01*
X012250Y012269D01*
X012622Y012269D01*
X012643Y012248D01*
X012983Y012306D02*
X014114Y012306D01*
X014114Y012424D02*
X012983Y012424D01*
X012983Y012431D02*
X012916Y012498D01*
X012983Y012565D01*
X012983Y012931D01*
X012916Y012998D01*
X012966Y013048D01*
X014114Y013048D01*
X014113Y011172D01*
X014113Y011126D01*
X014081Y011159D01*
X013590Y011159D01*
X013590Y011201D01*
X013591Y011202D01*
X013591Y011284D01*
X013592Y011365D01*
X013591Y011366D01*
X013591Y011368D01*
X013534Y011426D01*
X013477Y011484D01*
X013475Y011484D01*
X013103Y011856D01*
X012986Y011973D01*
X012941Y011973D01*
X012916Y011998D01*
X012983Y012065D01*
X012983Y012431D01*
X012961Y012543D02*
X014114Y012543D01*
X014114Y012661D02*
X012983Y012661D01*
X012983Y012780D02*
X014114Y012780D01*
X014114Y012898D02*
X012983Y012898D01*
X012935Y013017D02*
X014114Y013017D01*
X014226Y013248D02*
X014374Y013100D01*
X014226Y013248D02*
X012643Y013248D01*
X012141Y013248D01*
X011746Y012852D01*
X011458Y012852D01*
X011419Y012891D01*
X010984Y012898D02*
X010446Y012898D01*
X010422Y012927D02*
X010422Y015269D01*
X011419Y016266D01*
X013002Y016266D01*
X013002Y016033D01*
X012942Y015972D01*
X012901Y016013D01*
X012385Y016013D01*
X012303Y015931D01*
X012303Y015565D01*
X012370Y015498D01*
X012343Y015470D01*
X012289Y015525D01*
X012289Y015836D01*
X012206Y015918D01*
X011694Y015918D01*
X011612Y015836D01*
X011612Y015324D01*
X011694Y015242D01*
X012006Y015242D01*
X012200Y015048D01*
X012320Y015048D01*
X012370Y014998D01*
X012303Y014931D01*
X012303Y014565D01*
X012370Y014498D01*
X012310Y014438D01*
X012224Y014438D01*
X012026Y014635D01*
X011915Y014747D01*
X011273Y014747D01*
X011273Y014872D01*
X011191Y014954D01*
X010679Y014954D01*
X010597Y014872D01*
X010597Y014360D01*
X010679Y014278D01*
X011191Y014278D01*
X011273Y014360D01*
X011273Y014367D01*
X011758Y014367D01*
X012067Y014058D01*
X012310Y014058D01*
X012359Y014009D01*
X012345Y014001D01*
X012315Y013971D01*
X012294Y013934D01*
X012283Y013894D01*
X012283Y013750D01*
X012641Y013750D01*
X012641Y013745D01*
X012283Y013745D01*
X012283Y013602D01*
X012294Y013561D01*
X012315Y013524D01*
X012345Y013495D01*
X012359Y013486D01*
X012320Y013448D01*
X012058Y013448D01*
X011835Y013224D01*
X011807Y013252D01*
X011812Y013255D01*
X011842Y013285D01*
X011863Y013322D01*
X011874Y013362D01*
X011874Y013579D01*
X011479Y013579D01*
X011479Y013699D01*
X011874Y013699D01*
X011874Y013916D01*
X011863Y013957D01*
X011842Y013994D01*
X011812Y014023D01*
X011776Y014044D01*
X011735Y014055D01*
X011479Y014055D01*
X011479Y013699D01*
X011359Y013699D01*
X011359Y013579D01*
X010964Y013579D01*
X010964Y013362D01*
X010975Y013322D01*
X010996Y013285D01*
X011025Y013255D01*
X011031Y013252D01*
X010984Y013205D01*
X010984Y012577D01*
X011066Y012495D01*
X011717Y012495D01*
X011663Y012442D01*
X010821Y012442D01*
X010422Y012927D01*
X010422Y013017D02*
X010984Y013017D01*
X010984Y013135D02*
X010422Y013135D01*
X010422Y013254D02*
X011029Y013254D01*
X010964Y013372D02*
X010422Y013372D01*
X010422Y013491D02*
X010964Y013491D01*
X010964Y013699D02*
X011359Y013699D01*
X011359Y014055D01*
X011103Y014055D01*
X011062Y014044D01*
X011025Y014023D01*
X010996Y013994D01*
X010975Y013957D01*
X010964Y013916D01*
X010964Y013699D01*
X010964Y013728D02*
X010422Y013728D01*
X010422Y013846D02*
X010964Y013846D01*
X010979Y013965D02*
X010422Y013965D01*
X010422Y014083D02*
X012041Y014083D01*
X011923Y014202D02*
X010422Y014202D01*
X010422Y014320D02*
X010636Y014320D01*
X010597Y014439D02*
X010422Y014439D01*
X010422Y014557D02*
X010597Y014557D01*
X010597Y014676D02*
X010422Y014676D01*
X010422Y014794D02*
X010597Y014794D01*
X010637Y014913D02*
X010422Y014913D01*
X010422Y015031D02*
X012337Y015031D01*
X012303Y014913D02*
X011232Y014913D01*
X011273Y014794D02*
X012303Y014794D01*
X012303Y014676D02*
X011986Y014676D01*
X012105Y014557D02*
X012311Y014557D01*
X012311Y014439D02*
X012223Y014439D01*
X011804Y014320D02*
X011233Y014320D01*
X011359Y013965D02*
X011479Y013965D01*
X011479Y013846D02*
X011359Y013846D01*
X011359Y013728D02*
X011479Y013728D01*
X011479Y013609D02*
X012283Y013609D01*
X012283Y013728D02*
X011874Y013728D01*
X011874Y013846D02*
X012283Y013846D01*
X012312Y013965D02*
X011859Y013965D01*
X011874Y013491D02*
X012352Y013491D01*
X012646Y013745D02*
X012646Y013750D01*
X013003Y013750D01*
X013003Y013894D01*
X012992Y013934D01*
X012971Y013971D01*
X012942Y014001D01*
X012927Y014009D01*
X012983Y014065D01*
X012983Y014431D01*
X012916Y014498D01*
X012966Y014548D01*
X013193Y014548D01*
X013553Y014908D01*
X013864Y014908D01*
X013946Y014990D01*
X013946Y015502D01*
X013864Y015584D01*
X013352Y015584D01*
X013270Y015502D01*
X013270Y015190D01*
X013027Y014948D01*
X012966Y014948D01*
X012916Y014998D01*
X012983Y015065D01*
X012983Y015431D01*
X012916Y015498D01*
X012966Y015548D01*
X013082Y015548D01*
X013285Y015750D01*
X013596Y015750D01*
X013678Y015832D01*
X013678Y016266D01*
X014130Y016266D01*
X014116Y016231D01*
X014116Y016230D01*
X014115Y016230D01*
X014116Y016178D01*
X014114Y013448D01*
X012966Y013448D01*
X012927Y013486D01*
X012942Y013495D01*
X012971Y013524D01*
X012992Y013561D01*
X013003Y013602D01*
X013003Y013745D01*
X012646Y013745D01*
X013003Y013728D02*
X014114Y013728D01*
X014114Y013846D02*
X013003Y013846D01*
X012975Y013965D02*
X014114Y013965D01*
X014115Y014083D02*
X012983Y014083D01*
X012983Y014202D02*
X014115Y014202D01*
X014115Y014320D02*
X012983Y014320D01*
X012975Y014439D02*
X014115Y014439D01*
X014115Y014557D02*
X013202Y014557D01*
X013321Y014676D02*
X014115Y014676D01*
X014115Y014794D02*
X013439Y014794D01*
X013110Y014748D02*
X013608Y015246D01*
X013946Y015268D02*
X014115Y015268D01*
X014115Y015150D02*
X013946Y015150D01*
X013946Y015031D02*
X014115Y015031D01*
X014115Y014913D02*
X013869Y014913D01*
X013946Y015387D02*
X014115Y015387D01*
X014115Y015505D02*
X013943Y015505D01*
X014115Y015624D02*
X013158Y015624D01*
X013273Y015505D02*
X012924Y015505D01*
X012983Y015387D02*
X013270Y015387D01*
X013270Y015268D02*
X012983Y015268D01*
X012983Y015150D02*
X013229Y015150D01*
X013110Y015031D02*
X012950Y015031D01*
X013110Y014748D02*
X012643Y014748D01*
X012643Y015248D02*
X012283Y015248D01*
X011950Y015580D01*
X011612Y015624D02*
X010776Y015624D01*
X010895Y015742D02*
X011612Y015742D01*
X011636Y015861D02*
X011013Y015861D01*
X011132Y015979D02*
X012352Y015979D01*
X012303Y015861D02*
X012264Y015861D01*
X012289Y015742D02*
X012303Y015742D01*
X012289Y015624D02*
X012303Y015624D01*
X012309Y015505D02*
X012363Y015505D01*
X012643Y015748D02*
X013000Y015748D01*
X013340Y016088D01*
X013002Y016098D02*
X011250Y016098D01*
X011369Y016216D02*
X013002Y016216D01*
X012948Y015979D02*
X012935Y015979D01*
X013277Y015742D02*
X014115Y015742D01*
X014115Y015861D02*
X013678Y015861D01*
X013678Y015979D02*
X014115Y015979D01*
X014116Y016098D02*
X013678Y016098D01*
X013678Y016216D02*
X014115Y016216D01*
X014320Y016690D02*
X013348Y016690D01*
X013348Y016809D02*
X014306Y016809D01*
X014306Y016927D02*
X013348Y016927D01*
X013348Y017046D02*
X014701Y017046D01*
X014821Y017046D02*
X016111Y017046D01*
X016111Y016996D02*
X015781Y016666D01*
X015189Y016666D01*
X015206Y016696D01*
X015217Y016736D01*
X015217Y016953D01*
X014821Y016953D01*
X014821Y017073D01*
X015217Y017073D01*
X015217Y017290D01*
X015206Y017331D01*
X015185Y017368D01*
X015155Y017397D01*
X015150Y017400D01*
X015197Y017448D01*
X015197Y018075D01*
X015115Y018157D01*
X015077Y018157D01*
X015076Y018158D01*
X015074Y018460D01*
X015094Y018440D01*
X015131Y018419D01*
X015171Y018409D01*
X015311Y018409D01*
X015450Y018409D01*
X015490Y018419D01*
X015527Y018440D01*
X015557Y018470D01*
X015570Y018493D01*
X015635Y018429D01*
X015987Y018429D01*
X016061Y018502D01*
X016111Y018452D01*
X016111Y016996D01*
X016042Y016927D02*
X015217Y016927D01*
X015217Y016809D02*
X015923Y016809D01*
X015805Y016690D02*
X015203Y016690D01*
X015217Y017164D02*
X016111Y017164D01*
X016111Y017283D02*
X015217Y017283D01*
X015150Y017401D02*
X016111Y017401D01*
X016111Y017520D02*
X015197Y017520D01*
X015197Y017638D02*
X016111Y017638D01*
X016111Y017757D02*
X015197Y017757D01*
X015197Y017875D02*
X016111Y017875D01*
X016111Y017994D02*
X015197Y017994D01*
X015160Y018112D02*
X016111Y018112D01*
X016111Y018231D02*
X015076Y018231D01*
X015075Y018349D02*
X016111Y018349D01*
X016095Y018468D02*
X016026Y018468D01*
X015595Y018468D02*
X015554Y018468D01*
X015311Y018468D02*
X015311Y018468D01*
X015311Y018409D02*
X015311Y019002D01*
X015311Y019002D01*
X015311Y018409D01*
X015311Y018586D02*
X015311Y018586D01*
X015311Y018705D02*
X015311Y018705D01*
X015311Y018823D02*
X015311Y018823D01*
X015311Y018942D02*
X015311Y018942D01*
X014551Y018942D02*
X014289Y018942D01*
X014289Y019060D02*
X014553Y019060D01*
X014553Y019179D02*
X014289Y019179D01*
X014375Y019297D02*
X014553Y019297D01*
X014403Y019608D02*
X014084Y019289D01*
X014084Y019072D01*
X013950Y018939D01*
X013612Y018942D02*
X013610Y018942D01*
X013610Y018900D02*
X013610Y019156D01*
X013599Y019197D01*
X013578Y019234D01*
X013549Y019263D01*
X013512Y019285D01*
X013471Y019295D01*
X013254Y019295D01*
X013254Y018900D01*
X013134Y018900D01*
X013134Y019295D01*
X012918Y019295D01*
X012877Y019285D01*
X012840Y019263D01*
X012811Y019234D01*
X012807Y019228D01*
X012760Y019275D01*
X012133Y019275D01*
X012051Y019193D01*
X012051Y019040D01*
X011720Y019040D01*
X011720Y019548D01*
X011638Y019630D01*
X011531Y019630D01*
X011540Y020271D01*
X011650Y020271D01*
X011732Y020353D01*
X011732Y021060D01*
X011650Y021142D01*
X011022Y021142D01*
X010962Y021081D01*
X010902Y021142D01*
X010274Y021142D01*
X010192Y021060D01*
X010192Y020889D01*
X009379Y020889D01*
X009430Y020939D01*
X009497Y021101D01*
X009497Y021276D01*
X009430Y021438D01*
X009385Y021482D01*
X009769Y021482D01*
X009851Y021564D01*
X009851Y021613D01*
X010220Y021605D01*
X010220Y021491D01*
X010302Y021409D01*
X010930Y021409D01*
X010990Y021469D01*
X011050Y021409D01*
X011678Y021409D01*
X011760Y021491D01*
X011760Y022197D01*
X011678Y022279D01*
X011515Y022279D01*
X011495Y022452D01*
X011678Y022452D01*
X011760Y022534D01*
X011760Y023241D01*
X011678Y023323D01*
X011459Y023323D01*
X011388Y023394D01*
X011388Y023394D01*
X011056Y023726D01*
X011466Y023726D01*
X011548Y023808D01*
X011548Y024321D01*
X011466Y024403D01*
X010954Y024403D01*
X010872Y024321D01*
X010872Y024265D01*
X009955Y024265D01*
X009634Y024527D01*
X009634Y024945D01*
X009552Y025027D01*
X008924Y025027D01*
X008864Y024967D01*
X008804Y025027D01*
X008176Y025027D01*
X008094Y024945D01*
X008094Y024792D01*
X003942Y024792D01*
X003494Y024343D01*
X003376Y024226D01*
X003376Y022919D01*
X003357Y022912D01*
X003234Y022788D01*
X003167Y022626D01*
X003167Y022451D01*
X003234Y022289D01*
X003357Y022166D01*
X003519Y022099D01*
X003694Y022099D01*
X003856Y022166D01*
X003980Y022289D01*
X004047Y022451D01*
X004047Y022626D01*
X003980Y022788D01*
X003856Y022912D01*
X003776Y022945D01*
X003776Y024060D01*
X004108Y024392D01*
X008094Y024392D01*
X008094Y024239D01*
X008176Y024157D01*
X008804Y024157D01*
X008864Y024217D01*
X008924Y024157D01*
X009454Y024157D01*
X009526Y024098D01*
X008904Y024098D01*
X008844Y024038D01*
X008784Y024098D01*
X008156Y024098D01*
X008091Y024033D01*
X007810Y024157D01*
X007777Y024190D01*
X007737Y024190D01*
X007700Y024206D01*
X007657Y024190D01*
X005037Y024190D01*
X005009Y024205D01*
X004957Y024190D01*
X004903Y024190D01*
X004880Y024167D01*
X004850Y024158D01*
X004824Y024111D01*
X004786Y024073D01*
X004786Y024041D01*
X004395Y023323D01*
X004357Y023285D01*
X004357Y023253D01*
X004341Y023225D01*
X004357Y023174D01*
X004357Y021514D01*
X003726Y020883D01*
X001140Y020883D01*
X000951Y021071D01*
X000951Y024452D01*
X001551Y025052D01*
X011720Y025052D01*
X012111Y024661D01*
X012111Y022513D01*
X012157Y022403D01*
X012595Y021964D01*
X012595Y021484D01*
X012542Y021484D01*
X012460Y021402D01*
X012460Y020774D01*
X012507Y020727D01*
X012502Y020724D01*
X012472Y020694D01*
X012451Y020658D01*
X012440Y020617D01*
X012440Y020400D01*
X012835Y020400D01*
X012835Y020280D01*
X012440Y020280D01*
X012440Y020063D01*
X012451Y020022D01*
X012472Y019986D01*
X012502Y019956D01*
X012538Y019935D01*
X012579Y019924D01*
X012835Y019924D01*
X012835Y020280D01*
X012955Y020280D01*
X012955Y019924D01*
X013212Y019924D01*
X013252Y019935D01*
X013289Y019956D01*
X013319Y019986D01*
X013340Y020022D01*
X013351Y020063D01*
X013351Y020280D01*
X012955Y020280D01*
X012955Y020400D01*
X013351Y020400D01*
X013351Y020617D01*
X013340Y020658D01*
X013319Y020694D01*
X013289Y020724D01*
X013283Y020727D01*
X013331Y020774D01*
X013331Y021402D01*
X013249Y021484D01*
X013235Y021484D01*
X013287Y021536D01*
X014471Y021536D01*
X014490Y021544D01*
X016021Y021548D01*
X018383Y021544D01*
X018410Y021534D01*
X018566Y021540D01*
X021115Y021540D01*
X021163Y021536D01*
X021175Y021540D01*
X021187Y021540D01*
X021231Y021558D01*
X021276Y021573D01*
X021286Y021581D01*
X021297Y021586D01*
X021331Y021619D01*
X021424Y021698D01*
X021652Y021703D01*
X022879Y020476D01*
X022879Y019401D01*
X022255Y019401D01*
X022173Y019319D01*
X022173Y019196D01*
X021569Y019196D01*
X021569Y019493D01*
X021487Y019575D01*
X021135Y019575D01*
X021061Y019501D01*
X021011Y019551D01*
X021011Y020311D01*
X020631Y020691D01*
X020514Y020808D01*
X014096Y020808D01*
X014096Y020947D01*
X014014Y021029D01*
X013501Y021029D01*
X013419Y020947D01*
X013419Y020434D01*
X013501Y020352D01*
X014014Y020352D01*
X014069Y020408D01*
X018115Y020408D01*
X017998Y020328D01*
X017978Y020328D01*
X017932Y020282D01*
X017879Y020245D01*
X013351Y020245D01*
X013351Y020127D02*
X017857Y020127D01*
X017861Y020146D02*
X017849Y020082D01*
X017859Y020067D01*
X017600Y019808D01*
X014320Y019808D01*
X014001Y019489D01*
X013884Y019372D01*
X013884Y019277D01*
X013694Y019277D01*
X013612Y019195D01*
X013612Y018682D01*
X013636Y018659D01*
X013610Y018634D01*
X013610Y018780D01*
X013254Y018780D01*
X013254Y018900D01*
X013610Y018900D01*
X013612Y018823D02*
X013254Y018823D01*
X013194Y018840D02*
X013194Y019301D01*
X012891Y019604D01*
X012835Y020008D02*
X012955Y020008D01*
X012955Y020127D02*
X012835Y020127D01*
X012835Y020245D02*
X012955Y020245D01*
X012955Y020364D02*
X013490Y020364D01*
X013419Y020482D02*
X013351Y020482D01*
X013351Y020601D02*
X013419Y020601D01*
X013419Y020719D02*
X013294Y020719D01*
X013331Y020838D02*
X013419Y020838D01*
X013429Y020956D02*
X013331Y020956D01*
X013331Y021075D02*
X022280Y021075D01*
X022161Y021193D02*
X013331Y021193D01*
X013331Y021312D02*
X022043Y021312D01*
X021924Y021430D02*
X013303Y021430D01*
X013195Y022141D02*
X014372Y022141D01*
X014490Y022260D02*
X013148Y022260D01*
X013030Y022378D02*
X014551Y022378D01*
X014551Y022497D02*
X012911Y022497D01*
X012793Y022615D02*
X014551Y022615D01*
X014553Y022734D02*
X012711Y022734D01*
X012711Y022852D02*
X014553Y022852D01*
X014553Y022971D02*
X012711Y022971D01*
X012711Y023089D02*
X014553Y023089D01*
X014602Y023445D02*
X014980Y023445D01*
X015099Y023326D02*
X013907Y023326D01*
X013909Y023329D02*
X013930Y023365D01*
X013941Y023406D01*
X013941Y023623D01*
X013546Y023623D01*
X013546Y023267D01*
X013802Y023267D01*
X013843Y023278D01*
X013879Y023299D01*
X013909Y023329D01*
X013941Y023445D02*
X014063Y023445D01*
X013994Y023563D02*
X013941Y023563D01*
X013994Y023682D02*
X013546Y023682D01*
X013546Y023563D02*
X013426Y023563D01*
X013426Y023445D02*
X013546Y023445D01*
X013546Y023326D02*
X013426Y023326D01*
X013426Y023682D02*
X012711Y023682D01*
X012711Y023800D02*
X013031Y023800D01*
X013031Y023960D02*
X013041Y024000D01*
X013063Y024037D01*
X013051Y024156D02*
X012711Y024156D01*
X012711Y024274D02*
X013051Y024274D01*
X013051Y024393D02*
X012711Y024393D01*
X012711Y024511D02*
X013051Y024511D01*
X013051Y024630D02*
X012711Y024630D01*
X012711Y024748D02*
X013054Y024748D01*
X012702Y024867D02*
X014708Y024867D01*
X014708Y024748D02*
X013918Y024748D01*
X013921Y024630D02*
X014708Y024630D01*
X014708Y024241D02*
X014708Y023979D01*
X014790Y023897D01*
X016412Y023897D01*
X016621Y023689D01*
X016621Y023183D01*
X016561Y023123D01*
X016487Y023197D01*
X016135Y023197D01*
X016061Y023123D01*
X016008Y023175D01*
X016061Y023175D01*
X016143Y023257D01*
X016143Y023769D01*
X016061Y023851D01*
X015549Y023851D01*
X015467Y023769D01*
X015467Y023524D01*
X015257Y023734D01*
X015140Y023851D01*
X014670Y023851D01*
X014670Y024025D01*
X014588Y024107D01*
X014076Y024107D01*
X013994Y024025D01*
X013909Y024037D02*
X013879Y024067D01*
X013874Y024070D01*
X013921Y024117D01*
X013921Y024241D01*
X014708Y024241D01*
X014708Y024156D02*
X013921Y024156D01*
X013941Y023919D02*
X013994Y023919D01*
X013994Y023800D02*
X013941Y023800D01*
X014332Y023769D02*
X014450Y023651D01*
X015057Y023651D01*
X015311Y023397D01*
X015311Y022624D01*
X015805Y022630D02*
X015811Y022624D01*
X015805Y022630D02*
X015805Y023513D01*
X016143Y023563D02*
X016621Y023563D01*
X016621Y023445D02*
X016143Y023445D01*
X016143Y023326D02*
X016621Y023326D01*
X016621Y023208D02*
X016093Y023208D01*
X016143Y023682D02*
X016621Y023682D01*
X016509Y023800D02*
X016112Y023800D01*
X015497Y023800D02*
X015191Y023800D01*
X015309Y023682D02*
X015467Y023682D01*
X015467Y023563D02*
X015428Y023563D01*
X015111Y023208D02*
X012711Y023208D01*
X012711Y023326D02*
X013065Y023326D01*
X013031Y023445D02*
X012711Y023445D01*
X012711Y023563D02*
X013031Y023563D01*
X012111Y023563D02*
X011219Y023563D01*
X011338Y023445D02*
X012111Y023445D01*
X012111Y023326D02*
X011456Y023326D01*
X011305Y023194D02*
X011305Y022927D01*
X011364Y022887D01*
X011246Y022868D01*
X011364Y021844D01*
X011699Y021430D02*
X012488Y021430D01*
X012460Y021312D02*
X009482Y021312D01*
X009497Y021193D02*
X012460Y021193D01*
X012460Y021075D02*
X011717Y021075D01*
X011732Y020956D02*
X012460Y020956D01*
X012460Y020838D02*
X011732Y020838D01*
X011732Y020719D02*
X012497Y020719D01*
X012440Y020601D02*
X011732Y020601D01*
X011732Y020482D02*
X012440Y020482D01*
X012440Y020245D02*
X011540Y020245D01*
X011538Y020127D02*
X012440Y020127D01*
X012459Y020008D02*
X011536Y020008D01*
X011535Y019890D02*
X017682Y019890D01*
X017800Y020008D02*
X013331Y020008D01*
X012835Y020364D02*
X011732Y020364D01*
X011344Y020541D02*
X011336Y020706D01*
X011344Y020541D02*
X011324Y019194D01*
X011482Y018840D01*
X012446Y018840D01*
X012051Y019060D02*
X011720Y019060D01*
X011720Y019179D02*
X012051Y019179D01*
X011720Y019297D02*
X013884Y019297D01*
X013928Y019416D02*
X011720Y019416D01*
X011720Y019534D02*
X014046Y019534D01*
X014165Y019653D02*
X011531Y019653D01*
X011533Y019771D02*
X014283Y019771D01*
X014403Y019608D02*
X017683Y019608D01*
X018061Y019986D01*
X018061Y020128D01*
X018403Y020364D01*
X020013Y020364D01*
X020311Y020173D01*
X020311Y019002D01*
X019811Y019002D02*
X019811Y019002D01*
X019811Y019595D01*
X019950Y019595D01*
X019990Y019584D01*
X020027Y019563D01*
X020057Y019533D01*
X020070Y019510D01*
X020111Y019551D01*
X020111Y020064D01*
X019955Y020164D01*
X018465Y020164D01*
X018261Y020023D01*
X018261Y019903D01*
X017932Y019575D01*
X017987Y019575D01*
X018061Y019501D01*
X018135Y019575D01*
X018487Y019575D01*
X018561Y019501D01*
X018635Y019575D01*
X018987Y019575D01*
X019061Y019501D01*
X019135Y019575D01*
X019487Y019575D01*
X019551Y019510D01*
X019564Y019533D01*
X019594Y019563D01*
X019631Y019584D01*
X019671Y019595D01*
X019811Y019595D01*
X019811Y019002D01*
X019811Y018409D01*
X019950Y018409D01*
X019990Y018419D01*
X020027Y018440D01*
X020057Y018470D01*
X020070Y018493D01*
X020135Y018429D01*
X020487Y018429D01*
X020561Y018502D01*
X020635Y018429D01*
X020987Y018429D01*
X021061Y018502D01*
X021135Y018429D01*
X021487Y018429D01*
X021569Y018511D01*
X021569Y018816D01*
X022173Y018816D01*
X022173Y018692D01*
X022220Y018645D01*
X022214Y018641D01*
X022185Y018612D01*
X022164Y018575D01*
X022153Y018534D01*
X022153Y018317D01*
X022548Y018317D01*
X022548Y018197D01*
X022668Y018197D01*
X022668Y017842D01*
X022879Y017842D01*
X022879Y017400D01*
X021003Y017400D01*
X021063Y017459D01*
X021063Y018087D01*
X020981Y018169D01*
X020274Y018169D01*
X020192Y018087D01*
X020192Y017867D01*
X019529Y017867D01*
X019511Y017886D01*
X019511Y018452D01*
X019551Y018493D01*
X019564Y018470D01*
X019594Y018440D01*
X019631Y018419D01*
X019671Y018409D01*
X019811Y018409D01*
X019811Y019002D01*
X019811Y019002D01*
X019811Y019060D02*
X019811Y019060D01*
X019811Y018942D02*
X019811Y018942D01*
X019811Y018823D02*
X019811Y018823D01*
X019811Y018705D02*
X019811Y018705D01*
X019811Y018586D02*
X019811Y018586D01*
X019811Y018468D02*
X019811Y018468D01*
X020054Y018468D02*
X020095Y018468D01*
X020217Y018112D02*
X019511Y018112D01*
X019511Y017994D02*
X020192Y017994D01*
X020192Y017875D02*
X019521Y017875D01*
X019446Y017667D02*
X020006Y017667D01*
X019777Y017439D01*
X019777Y017045D01*
X020006Y017667D02*
X020521Y017667D01*
X020628Y017773D01*
X021063Y017757D02*
X022879Y017757D01*
X022879Y017638D02*
X021063Y017638D01*
X021063Y017520D02*
X022879Y017520D01*
X022879Y017401D02*
X021005Y017401D01*
X021063Y017875D02*
X022213Y017875D01*
X022214Y017874D02*
X022251Y017852D01*
X022292Y017842D01*
X022548Y017842D01*
X022548Y018197D01*
X022153Y018197D01*
X022153Y017981D01*
X022164Y017940D01*
X022185Y017903D01*
X022214Y017874D01*
X022153Y017994D02*
X021063Y017994D01*
X021038Y018112D02*
X022153Y018112D01*
X022153Y018349D02*
X019511Y018349D01*
X019511Y018231D02*
X022548Y018231D01*
X022548Y018112D02*
X022668Y018112D01*
X022668Y017994D02*
X022548Y017994D01*
X022548Y017875D02*
X022668Y017875D01*
X022153Y018468D02*
X021526Y018468D01*
X021569Y018586D02*
X022170Y018586D01*
X022173Y018705D02*
X021569Y018705D01*
X021095Y018468D02*
X021026Y018468D01*
X020595Y018468D02*
X020526Y018468D01*
X020811Y019002D02*
X020811Y020228D01*
X020431Y020608D01*
X013840Y020608D01*
X013757Y020691D01*
X014025Y020364D02*
X018051Y020364D01*
X017879Y020245D02*
X017875Y020225D01*
X017861Y020210D01*
X017861Y020146D01*
X018261Y020008D02*
X020111Y020008D01*
X020111Y019890D02*
X018247Y019890D01*
X018129Y019771D02*
X020111Y019771D01*
X020111Y019653D02*
X018010Y019653D01*
X018027Y019534D02*
X018094Y019534D01*
X018527Y019534D02*
X018594Y019534D01*
X019027Y019534D02*
X019094Y019534D01*
X019527Y019534D02*
X019566Y019534D01*
X019811Y019534D02*
X019811Y019534D01*
X019811Y019416D02*
X019811Y019416D01*
X019811Y019297D02*
X019811Y019297D01*
X019811Y019179D02*
X019811Y019179D01*
X020056Y019534D02*
X020094Y019534D01*
X020013Y020127D02*
X018411Y020127D01*
X018311Y019002D02*
X018311Y018374D01*
X018159Y018222D01*
X018159Y017726D01*
X017757Y017344D01*
X017297Y017340D02*
X017297Y018984D01*
X017311Y019002D01*
X017797Y018988D02*
X017797Y018293D01*
X017785Y018151D01*
X017757Y018002D01*
X017297Y017340D02*
X017250Y017340D01*
X016811Y017374D02*
X016750Y017340D01*
X016811Y017374D02*
X016811Y019002D01*
X016311Y019002D02*
X016311Y016913D01*
X015864Y016466D01*
X011336Y016466D01*
X010222Y015352D01*
X010222Y012856D01*
X010726Y012242D01*
X011746Y012242D01*
X012072Y012569D01*
X012072Y012675D01*
X012143Y012746D01*
X012641Y012746D01*
X012643Y012748D01*
X012983Y012187D02*
X014114Y012187D01*
X014114Y012069D02*
X012983Y012069D01*
X013009Y011950D02*
X014113Y011950D01*
X014113Y011832D02*
X013128Y011832D01*
X013246Y011713D02*
X014113Y011713D01*
X014113Y011595D02*
X013365Y011595D01*
X013485Y011476D02*
X014113Y011476D01*
X014113Y011358D02*
X013592Y011358D01*
X013591Y011239D02*
X014113Y011239D01*
X014113Y011172D02*
X014113Y011172D01*
X014373Y011120D02*
X014491Y011238D01*
X015254Y011238D01*
X015592Y011239D02*
X015792Y011239D01*
X015750Y011281D02*
X015750Y011569D01*
X015694Y011569D01*
X015612Y011651D01*
X015612Y012163D01*
X015694Y012245D01*
X016206Y012245D01*
X016289Y012163D01*
X016289Y011651D01*
X016206Y011569D01*
X016150Y011569D01*
X016150Y011447D01*
X016210Y011387D01*
X016303Y011387D01*
X016303Y011431D01*
X016370Y011498D01*
X016303Y011565D01*
X016303Y011931D01*
X016370Y011998D01*
X016303Y012065D01*
X016303Y012431D01*
X016359Y012486D01*
X016345Y012495D01*
X016315Y012524D01*
X016294Y012561D01*
X016283Y012602D01*
X016283Y012745D01*
X016641Y012745D01*
X016641Y012750D01*
X016283Y012750D01*
X016283Y012894D01*
X016294Y012934D01*
X016315Y012971D01*
X016345Y013001D01*
X016359Y013009D01*
X016303Y013065D01*
X016303Y013431D01*
X016370Y013498D01*
X016303Y013565D01*
X016303Y013931D01*
X016370Y013998D01*
X016303Y014065D01*
X016303Y014431D01*
X016370Y014498D01*
X016303Y014565D01*
X016303Y014931D01*
X016370Y014998D01*
X016303Y015065D01*
X016303Y015431D01*
X016370Y015498D01*
X016303Y015565D01*
X016303Y015924D01*
X014635Y015919D01*
X014634Y013048D01*
X014634Y013048D01*
X014633Y011438D01*
X014915Y011438D01*
X014915Y011494D01*
X014997Y011576D01*
X015510Y011576D01*
X015592Y011494D01*
X015592Y011100D01*
X015932Y011100D01*
X015928Y011104D01*
X015750Y011281D01*
X015750Y011358D02*
X015592Y011358D01*
X015592Y011476D02*
X015750Y011476D01*
X015669Y011595D02*
X014633Y011595D01*
X014633Y011713D02*
X015612Y011713D01*
X015612Y011832D02*
X014633Y011832D01*
X014633Y011950D02*
X015612Y011950D01*
X015612Y012069D02*
X014634Y012069D01*
X014634Y012187D02*
X015636Y012187D01*
X015950Y011907D02*
X015950Y011364D01*
X016128Y011187D01*
X016582Y011187D01*
X016643Y011248D01*
X016349Y011476D02*
X016150Y011476D01*
X016232Y011595D02*
X016303Y011595D01*
X016289Y011713D02*
X016303Y011713D01*
X016289Y011832D02*
X016303Y011832D01*
X016289Y011950D02*
X016323Y011950D01*
X016303Y012069D02*
X016289Y012069D01*
X016303Y012187D02*
X016265Y012187D01*
X016303Y012306D02*
X014634Y012306D01*
X014634Y012424D02*
X016303Y012424D01*
X016305Y012543D02*
X014634Y012543D01*
X014634Y012661D02*
X016283Y012661D01*
X016283Y012780D02*
X014634Y012780D01*
X014634Y012898D02*
X016284Y012898D01*
X016351Y013017D02*
X014634Y013017D01*
X014634Y013135D02*
X016303Y013135D01*
X016303Y013254D02*
X014634Y013254D01*
X014634Y013372D02*
X016303Y013372D01*
X016363Y013491D02*
X014634Y013491D01*
X014634Y013609D02*
X016303Y013609D01*
X016303Y013728D02*
X014634Y013728D01*
X014634Y013846D02*
X016303Y013846D01*
X016337Y013965D02*
X014634Y013965D01*
X014635Y014083D02*
X016303Y014083D01*
X016303Y014202D02*
X014635Y014202D01*
X014635Y014320D02*
X016303Y014320D01*
X016311Y014439D02*
X014635Y014439D01*
X014635Y014557D02*
X016311Y014557D01*
X016303Y014676D02*
X014635Y014676D01*
X014635Y014794D02*
X016303Y014794D01*
X016303Y014913D02*
X014635Y014913D01*
X014635Y015031D02*
X016337Y015031D01*
X016303Y015150D02*
X014635Y015150D01*
X014635Y015268D02*
X016303Y015268D01*
X016303Y015387D02*
X014635Y015387D01*
X014635Y015505D02*
X016363Y015505D01*
X016303Y015624D02*
X014635Y015624D01*
X014635Y015742D02*
X016303Y015742D01*
X016303Y015861D02*
X014635Y015861D01*
X014306Y017164D02*
X013296Y017164D01*
X013009Y016856D02*
X011328Y016797D01*
X010006Y015513D01*
X010422Y015268D02*
X011668Y015268D01*
X011612Y015387D02*
X010539Y015387D01*
X010658Y015505D02*
X011612Y015505D01*
X012098Y015150D02*
X010422Y015150D01*
X008967Y015150D02*
X008317Y015150D01*
X008350Y015031D02*
X008967Y015031D01*
X008967Y014913D02*
X008350Y014913D01*
X008350Y014794D02*
X008967Y014794D01*
X009016Y014676D02*
X008291Y014676D01*
X008350Y014557D02*
X008899Y014557D01*
X008780Y014439D02*
X008350Y014439D01*
X008350Y014320D02*
X008662Y014320D01*
X008543Y014202D02*
X008287Y014202D01*
X007777Y013441D02*
X007773Y013437D01*
X007773Y012061D01*
X008111Y012069D02*
X009296Y012069D01*
X009177Y012187D02*
X008111Y012187D01*
X008111Y012306D02*
X009059Y012306D01*
X008940Y012424D02*
X007973Y012424D01*
X007973Y012543D02*
X008752Y012543D01*
X008719Y012661D02*
X007973Y012661D01*
X007973Y012780D02*
X008719Y012780D01*
X008719Y012898D02*
X007973Y012898D01*
X007973Y013017D02*
X008719Y013017D01*
X008765Y013135D02*
X007973Y013135D01*
X007573Y013135D02*
X007239Y013135D01*
X007239Y013017D02*
X007573Y013017D01*
X007573Y012898D02*
X007239Y012898D01*
X007239Y012780D02*
X007573Y012780D01*
X007573Y012661D02*
X007239Y012661D01*
X007239Y012543D02*
X007573Y012543D01*
X007573Y012424D02*
X007239Y012424D01*
X007239Y012306D02*
X007435Y012306D01*
X007435Y012187D02*
X007239Y012187D01*
X007239Y012069D02*
X007435Y012069D01*
X007435Y011950D02*
X007239Y011950D01*
X007239Y011832D02*
X007435Y011832D01*
X007239Y011713D02*
X009489Y011713D01*
X009489Y011595D02*
X007239Y011595D01*
X007239Y011476D02*
X009123Y011476D01*
X009106Y011358D02*
X007239Y011358D01*
X007239Y011239D02*
X009106Y011239D01*
X009106Y011121D02*
X007239Y011121D01*
X007129Y011002D02*
X009120Y011002D01*
X009086Y010884D02*
X007010Y010884D01*
X006892Y010765D02*
X009086Y010765D01*
X009086Y010783D02*
X009679Y010783D01*
X009679Y010783D01*
X009086Y010783D01*
X009086Y010647D02*
X006773Y010647D01*
X006561Y010528D02*
X009163Y010528D01*
X009159Y010054D02*
X007209Y010054D01*
X007273Y009936D02*
X009106Y009936D01*
X009106Y009817D02*
X007273Y009817D01*
X007273Y009699D02*
X009106Y009699D01*
X009133Y009580D02*
X007273Y009580D01*
X007257Y009462D02*
X010903Y009462D01*
X011022Y009580D02*
X010225Y009580D01*
X010252Y009699D02*
X011140Y009699D01*
X011259Y009817D02*
X010252Y009817D01*
X010252Y009936D02*
X011377Y009936D01*
X011496Y010054D02*
X010199Y010054D01*
X010252Y010173D02*
X011614Y010173D01*
X011660Y010291D02*
X010252Y010291D01*
X010252Y010410D02*
X011660Y010410D01*
X011660Y010528D02*
X010195Y010528D01*
X010272Y010647D02*
X012303Y010647D01*
X012303Y010765D02*
X010272Y010765D01*
X010272Y010884D02*
X011679Y010884D01*
X011656Y011002D02*
X010237Y011002D01*
X010252Y011121D02*
X011656Y011121D01*
X011656Y011239D02*
X010252Y011239D01*
X010252Y011358D02*
X011656Y011358D01*
X011713Y011476D02*
X010235Y011476D01*
X009869Y011595D02*
X012303Y011595D01*
X012303Y011713D02*
X009869Y011713D01*
X009869Y011832D02*
X010647Y011832D01*
X010668Y011832D02*
X012303Y011832D01*
X012323Y011950D02*
X012229Y011950D01*
X012275Y011476D02*
X012349Y011476D01*
X012344Y011242D02*
X012637Y011242D01*
X012643Y011248D01*
X012344Y011242D02*
X012265Y011163D01*
X011994Y011163D01*
X012336Y010528D02*
X012340Y010528D01*
X011998Y010273D02*
X010482Y008757D01*
X007305Y008757D01*
X007701Y008988D02*
X010429Y008988D01*
X010548Y009106D02*
X007701Y009106D01*
X007701Y008514D02*
X011802Y008514D01*
X011802Y008632D02*
X010639Y008632D01*
X010758Y008751D02*
X011802Y008751D01*
X011802Y008869D02*
X010876Y008869D01*
X010995Y008988D02*
X011802Y008988D01*
X011802Y009106D02*
X011113Y009106D01*
X011232Y009225D02*
X011802Y009225D01*
X011802Y009343D02*
X011350Y009343D01*
X011469Y009462D02*
X011802Y009462D01*
X011829Y009580D02*
X011587Y009580D01*
X011706Y009699D02*
X011947Y009699D01*
X012066Y009817D02*
X011824Y009817D01*
X012002Y009470D02*
X012002Y007029D01*
X011974Y007002D01*
X011686Y006668D02*
X011725Y006629D01*
X011886Y006562D01*
X012062Y006562D01*
X012223Y006629D01*
X012347Y006752D01*
X012414Y006914D01*
X012414Y007089D01*
X012347Y007251D01*
X012223Y007375D01*
X012202Y007384D01*
X012202Y009387D01*
X012341Y009527D01*
X012370Y009498D01*
X012303Y009431D01*
X012303Y009065D01*
X012385Y008983D01*
X012782Y008983D01*
X012782Y007398D01*
X012725Y007375D01*
X012601Y007251D01*
X012534Y007089D01*
X012534Y006914D01*
X012601Y006752D01*
X012725Y006629D01*
X012886Y006562D01*
X013062Y006562D01*
X013223Y006629D01*
X013286Y006691D01*
X013286Y006411D01*
X013193Y006288D01*
X011825Y006288D01*
X011686Y006427D01*
X011686Y006668D01*
X011686Y006618D02*
X011751Y006618D01*
X011686Y006499D02*
X013286Y006499D01*
X013286Y006618D02*
X013197Y006618D01*
X013263Y006381D02*
X011732Y006381D01*
X011404Y006144D02*
X009888Y006144D01*
X009790Y006262D02*
X011286Y006262D01*
X011286Y006381D02*
X009790Y006381D01*
X009790Y006499D02*
X011286Y006499D01*
X011286Y006618D02*
X011197Y006618D01*
X010751Y006618D02*
X009790Y006618D01*
X009934Y006736D02*
X010617Y006736D01*
X010559Y006855D02*
X010004Y006855D01*
X010035Y006973D02*
X010534Y006973D01*
X010535Y007092D02*
X010035Y007092D01*
X009991Y007210D02*
X010584Y007210D01*
X010679Y007329D02*
X009904Y007329D01*
X009700Y007447D02*
X011286Y007447D01*
X011286Y007329D02*
X011269Y007329D01*
X011686Y007447D02*
X011802Y007447D01*
X011802Y007566D02*
X011686Y007566D01*
X011686Y007684D02*
X011802Y007684D01*
X011802Y007803D02*
X011686Y007803D01*
X011686Y007921D02*
X011802Y007921D01*
X011802Y008040D02*
X011605Y008040D01*
X011486Y008158D02*
X011802Y008158D01*
X011802Y008277D02*
X011368Y008277D01*
X011802Y008395D02*
X007691Y008395D01*
X006932Y008158D02*
X006929Y008158D01*
X006557Y007781D02*
X006553Y007777D01*
X005498Y007777D01*
X003832Y006112D01*
X003832Y005128D01*
X003456Y004959D02*
X003402Y004959D01*
X003394Y004840D02*
X003456Y004840D01*
X003064Y004840D02*
X002947Y004840D01*
X002947Y004959D02*
X003064Y004959D01*
X003064Y005196D02*
X002947Y005196D01*
X002947Y005314D02*
X003064Y005314D01*
X003064Y005433D02*
X002947Y005433D01*
X002624Y005433D02*
X001772Y005433D01*
X001772Y005314D02*
X002609Y005314D01*
X002609Y005196D02*
X001772Y005196D01*
X001372Y005196D02*
X000932Y005196D01*
X000933Y005314D02*
X001372Y005314D01*
X001372Y005433D02*
X000933Y005433D01*
X000933Y005551D02*
X001372Y005551D01*
X001372Y005670D02*
X000934Y005670D01*
X000934Y005788D02*
X001482Y005788D01*
X001600Y005907D02*
X000935Y005907D01*
X000935Y006025D02*
X001719Y006025D01*
X001837Y006144D02*
X000935Y006144D01*
X000936Y006262D02*
X001956Y006262D01*
X000936Y006381D02*
X003153Y006381D01*
X003271Y006499D02*
X000936Y006499D01*
X000937Y006618D02*
X003390Y006618D01*
X003508Y006736D02*
X000937Y006736D01*
X000938Y006855D02*
X003627Y006855D01*
X003745Y006973D02*
X000938Y006973D01*
X000938Y007092D02*
X003864Y007092D01*
X003982Y007210D02*
X000939Y007210D01*
X000939Y007329D02*
X004101Y007329D01*
X004219Y007447D02*
X000939Y007447D01*
X000940Y007566D02*
X004338Y007566D01*
X004456Y007684D02*
X000940Y007684D01*
X000941Y007803D02*
X004575Y007803D01*
X004693Y007921D02*
X000941Y007921D01*
X000941Y008040D02*
X004812Y008040D01*
X004930Y008158D02*
X000942Y008158D01*
X000942Y008277D02*
X005049Y008277D01*
X005065Y008395D02*
X000943Y008395D01*
X000943Y008514D02*
X005124Y008514D01*
X005243Y008632D02*
X000943Y008632D01*
X000944Y008751D02*
X005361Y008751D01*
X005480Y008869D02*
X000944Y008869D01*
X000945Y009225D02*
X010666Y009225D01*
X010785Y009343D02*
X000946Y009343D01*
X000948Y010173D02*
X002192Y010173D01*
X002198Y010291D02*
X000949Y010291D01*
X000949Y010410D02*
X002226Y010410D01*
X002281Y011121D02*
X001079Y011121D01*
X004440Y012424D02*
X006317Y012424D01*
X006218Y011820D02*
X006057Y011659D01*
X006057Y011283D01*
X006577Y010054D02*
X006661Y010054D01*
X005511Y009580D02*
X004644Y009580D01*
X005690Y008514D02*
X006161Y008514D01*
X006170Y008395D02*
X005572Y008395D01*
X005569Y007566D02*
X006161Y007566D01*
X006161Y007447D02*
X005450Y007447D01*
X005404Y006499D02*
X006157Y006499D01*
X006991Y006262D02*
X004915Y006262D01*
X004796Y006144D02*
X006955Y006144D01*
X006955Y006025D02*
X004757Y006025D01*
X004757Y005907D02*
X006955Y005907D01*
X006955Y005788D02*
X004757Y005788D01*
X004757Y005670D02*
X006999Y005670D01*
X007101Y006381D02*
X005285Y006381D01*
X004757Y005551D02*
X008455Y005551D01*
X008478Y005433D02*
X004757Y005433D01*
X004757Y005314D02*
X008478Y005314D01*
X008790Y005907D02*
X009588Y005907D01*
X009469Y006025D02*
X008790Y006025D01*
X008790Y006144D02*
X009410Y006144D01*
X009410Y006262D02*
X008790Y006262D01*
X008790Y006381D02*
X009410Y006381D01*
X009410Y006499D02*
X008790Y006499D01*
X008790Y006618D02*
X009410Y006618D01*
X009266Y006736D02*
X008934Y006736D01*
X009004Y006855D02*
X009196Y006855D01*
X009165Y006973D02*
X009035Y006973D01*
X009035Y007092D02*
X009165Y007092D01*
X009209Y007210D02*
X008991Y007210D01*
X008904Y007329D02*
X009296Y007329D01*
X009500Y007447D02*
X008700Y007447D01*
X010007Y006025D02*
X011522Y006025D01*
X011641Y005907D02*
X010125Y005907D01*
X010244Y005788D02*
X014730Y005788D01*
X014730Y005670D02*
X012059Y005670D01*
X012059Y005551D02*
X014105Y005551D01*
X014046Y005433D02*
X012674Y005433D01*
X012492Y005077D02*
X012059Y005077D01*
X012038Y004959D02*
X012494Y004959D01*
X012494Y004840D02*
X010334Y004840D01*
X010334Y004722D02*
X012522Y004722D01*
X011992Y004603D02*
X014026Y004603D01*
X014030Y004722D02*
X013142Y004722D01*
X013170Y004840D02*
X014081Y004840D01*
X014046Y004959D02*
X013170Y004959D01*
X013170Y005077D02*
X014046Y005077D01*
X014046Y005196D02*
X013170Y005196D01*
X013118Y005314D02*
X014046Y005314D01*
X013406Y005907D02*
X014727Y005907D01*
X014723Y006025D02*
X013496Y006025D01*
X013585Y006144D02*
X014720Y006144D01*
X014716Y006262D02*
X013686Y006262D01*
X013686Y006618D02*
X013720Y006618D01*
X013934Y006618D02*
X014014Y006618D01*
X014014Y006736D02*
X013934Y006736D01*
X013934Y006855D02*
X014014Y006855D01*
X014426Y007092D02*
X014535Y007092D01*
X014584Y007210D02*
X014384Y007210D01*
X014298Y007329D02*
X014679Y007329D01*
X014974Y007002D02*
X015013Y007041D01*
X015136Y007896D02*
X014915Y008117D01*
X014907Y008132D01*
X014879Y008154D01*
X014854Y008179D01*
X014850Y008180D01*
X014632Y008466D01*
X014633Y011038D01*
X014915Y011038D01*
X014915Y010982D01*
X014997Y010900D01*
X015486Y010900D01*
X015486Y010505D01*
X015494Y010498D01*
X015467Y010470D01*
X015467Y009958D01*
X015549Y009876D01*
X015659Y009876D01*
X015509Y009727D01*
X015398Y009616D01*
X015398Y008107D01*
X015218Y008107D01*
X015136Y008025D01*
X015136Y007896D01*
X015136Y007921D02*
X015111Y007921D01*
X015150Y008040D02*
X014993Y008040D01*
X014874Y008158D02*
X015398Y008158D01*
X015398Y008277D02*
X014776Y008277D01*
X014686Y008395D02*
X015398Y008395D01*
X015398Y008514D02*
X014632Y008514D01*
X014632Y008632D02*
X015398Y008632D01*
X015398Y008751D02*
X014632Y008751D01*
X014632Y008869D02*
X015398Y008869D01*
X015398Y008988D02*
X014632Y008988D01*
X014632Y009106D02*
X015398Y009106D01*
X015398Y009225D02*
X014632Y009225D01*
X014632Y009343D02*
X015398Y009343D01*
X015398Y009462D02*
X014632Y009462D01*
X014632Y009580D02*
X015398Y009580D01*
X015481Y009699D02*
X014632Y009699D01*
X014632Y009817D02*
X015600Y009817D01*
X015489Y009936D02*
X014632Y009936D01*
X014633Y010054D02*
X015467Y010054D01*
X015467Y010173D02*
X014633Y010173D01*
X014633Y010291D02*
X015467Y010291D01*
X015467Y010410D02*
X014633Y010410D01*
X014633Y010528D02*
X015486Y010528D01*
X015486Y010647D02*
X014633Y010647D01*
X014633Y010765D02*
X015486Y010765D01*
X015486Y010884D02*
X014633Y010884D01*
X014633Y011002D02*
X014915Y011002D01*
X014915Y011476D02*
X014633Y011476D01*
X015592Y011121D02*
X015911Y011121D01*
X015824Y010761D02*
X016630Y010761D01*
X016643Y010748D01*
X016643Y010248D02*
X016610Y010214D01*
X015805Y010214D01*
X016643Y009248D02*
X017712Y009248D01*
X017714Y009250D01*
X018379Y009225D02*
X018743Y009225D01*
X018625Y009343D02*
X018379Y009343D01*
X018379Y009462D02*
X018506Y009462D01*
X018388Y009580D02*
X018379Y009580D01*
X018379Y009106D02*
X018862Y009106D01*
X018980Y008988D02*
X018379Y008988D01*
X018687Y008647D02*
X018767Y008567D01*
X018767Y007789D01*
X019025Y007803D02*
X020058Y007803D01*
X020058Y007921D02*
X019025Y007921D01*
X019025Y008040D02*
X020058Y008040D01*
X020058Y008158D02*
X019025Y008158D01*
X019025Y008277D02*
X019295Y008277D01*
X019295Y008395D02*
X019025Y008395D01*
X019025Y008514D02*
X019295Y008514D01*
X019295Y008632D02*
X019025Y008632D01*
X019025Y008751D02*
X019217Y008751D01*
X019099Y008869D02*
X019025Y008869D01*
X019365Y009225D02*
X020864Y009225D01*
X020841Y009106D02*
X019484Y009106D01*
X018179Y008600D02*
X017754Y008100D01*
X017767Y007789D01*
X017767Y007244D01*
X017513Y006990D01*
X017309Y006990D01*
X016569Y006222D01*
X016234Y006222D01*
X016092Y006226D01*
X015923Y006025D02*
X015307Y006025D01*
X015247Y005907D02*
X015923Y005907D01*
X015923Y005788D02*
X015250Y005788D01*
X015256Y005670D02*
X015923Y005670D01*
X015896Y005551D02*
X015236Y005551D01*
X015210Y005433D02*
X015830Y005433D01*
X015830Y005314D02*
X015158Y005314D01*
X015083Y005213D02*
X015042Y005202D01*
X015006Y005181D01*
X014976Y005151D01*
X014955Y005115D01*
X014944Y005074D01*
X014944Y004894D01*
X015341Y004894D01*
X015341Y005213D01*
X015083Y005213D01*
X015031Y005196D02*
X014996Y005196D01*
X014945Y005077D02*
X014926Y005077D01*
X014926Y004959D02*
X014944Y004959D01*
X014890Y004840D02*
X015341Y004840D01*
X015418Y004840D02*
X016670Y004840D01*
X016661Y004722D02*
X016789Y004722D01*
X016970Y005077D02*
X017541Y005077D01*
X017560Y005196D02*
X017470Y005196D01*
X017064Y005196D02*
X016852Y005196D01*
X016733Y005314D02*
X017009Y005314D01*
X017009Y005433D02*
X016661Y005433D01*
X016600Y005551D02*
X017009Y005551D01*
X017009Y005670D02*
X016600Y005670D01*
X016600Y005788D02*
X017009Y005788D01*
X017009Y005907D02*
X016600Y005907D01*
X016656Y006025D02*
X017009Y006025D01*
X017009Y006144D02*
X016771Y006144D01*
X016885Y006262D02*
X017038Y006262D01*
X016999Y006381D02*
X017592Y006381D01*
X017538Y006262D02*
X017496Y006262D01*
X017711Y006499D02*
X017113Y006499D01*
X017228Y006618D02*
X017829Y006618D01*
X017661Y006855D02*
X020038Y006855D01*
X020038Y006831D02*
X020049Y006790D01*
X020070Y006754D01*
X020100Y006724D01*
X020137Y006703D01*
X020177Y006692D01*
X020377Y006692D01*
X020377Y007030D01*
X020038Y007030D01*
X020038Y006831D01*
X020088Y006736D02*
X017342Y006736D01*
X017779Y006973D02*
X020038Y006973D01*
X020038Y007210D02*
X018453Y007210D01*
X018267Y007329D02*
X018267Y007329D01*
X018267Y007447D02*
X018267Y007447D01*
X018267Y007566D02*
X018267Y007566D01*
X018267Y007684D02*
X018267Y007684D01*
X019025Y007684D02*
X020058Y007684D01*
X020114Y007566D02*
X019025Y007566D01*
X019025Y007447D02*
X020095Y007447D01*
X020038Y007329D02*
X019025Y007329D01*
X020377Y007329D02*
X020493Y007329D01*
X020493Y007447D02*
X020377Y007447D01*
X020377Y007210D02*
X020493Y007210D01*
X020493Y006973D02*
X020377Y006973D01*
X020377Y006855D02*
X020493Y006855D01*
X020493Y006736D02*
X020377Y006736D01*
X022287Y007447D02*
X022657Y007447D01*
X022655Y007803D02*
X022266Y007803D01*
X022371Y007921D02*
X022741Y007921D01*
X022693Y008869D02*
X022362Y008869D01*
X022418Y008988D02*
X022834Y008988D01*
X022925Y009204D02*
X022992Y009194D01*
X022997Y009194D01*
X022997Y009591D01*
X023054Y009591D01*
X023054Y009648D01*
X023451Y009648D01*
X023451Y009653D01*
X023440Y009719D01*
X023420Y009783D01*
X023389Y009843D01*
X023350Y009897D01*
X023303Y009944D01*
X023248Y009984D01*
X023189Y010014D01*
X023125Y010035D01*
X023059Y010045D01*
X023054Y010045D01*
X023054Y009648D01*
X022997Y009648D01*
X022997Y010045D01*
X022992Y010045D01*
X022925Y010035D01*
X022862Y010014D01*
X022802Y009984D01*
X022748Y009944D01*
X022700Y009897D01*
X022661Y009843D01*
X022631Y009783D01*
X022610Y009719D01*
X022599Y009653D01*
X022599Y009648D01*
X022997Y009648D01*
X022997Y009591D01*
X022599Y009591D01*
X022599Y009586D01*
X022610Y009520D01*
X022631Y009456D01*
X022661Y009397D01*
X022700Y009342D01*
X022748Y009295D01*
X022802Y009256D01*
X022862Y009225D01*
X022925Y009204D01*
X022864Y009225D02*
X022419Y009225D01*
X022365Y009343D02*
X022700Y009343D01*
X022629Y009462D02*
X022247Y009462D01*
X022038Y009462D02*
X021981Y009462D01*
X021981Y009343D02*
X022038Y009343D01*
X022038Y009225D02*
X021981Y009225D01*
X021772Y009462D02*
X021439Y009462D01*
X021439Y009580D02*
X022600Y009580D01*
X022607Y009699D02*
X022047Y009699D01*
X022043Y009698D02*
X022109Y009708D01*
X022173Y009729D01*
X022233Y009759D01*
X022287Y009799D01*
X022334Y009846D01*
X022374Y009900D01*
X022404Y009960D01*
X022425Y010024D01*
X022435Y010090D01*
X022435Y010095D01*
X022038Y010095D01*
X022038Y009698D01*
X022043Y009698D01*
X022038Y009699D02*
X021981Y009699D01*
X021981Y009698D02*
X021981Y010095D01*
X022038Y010095D01*
X022038Y010152D01*
X022435Y010152D01*
X022435Y010157D01*
X022425Y010223D01*
X022404Y010287D01*
X022374Y010347D01*
X022334Y010401D01*
X022287Y010448D01*
X022233Y010488D01*
X022173Y010518D01*
X022109Y010539D01*
X022043Y010549D01*
X022038Y010549D01*
X022038Y010152D01*
X021981Y010152D01*
X021981Y010095D01*
X021584Y010095D01*
X021584Y010090D01*
X021594Y010024D01*
X021615Y009960D01*
X021645Y009900D01*
X021685Y009846D01*
X021732Y009799D01*
X021786Y009759D01*
X021846Y009729D01*
X021910Y009708D01*
X021976Y009698D01*
X021981Y009698D01*
X021972Y009699D02*
X021439Y009699D01*
X021439Y009817D02*
X021714Y009817D01*
X021627Y009936D02*
X021439Y009936D01*
X021439Y010054D02*
X021589Y010054D01*
X021584Y010152D02*
X021981Y010152D01*
X021981Y010549D01*
X021976Y010549D01*
X021910Y010539D01*
X021846Y010518D01*
X021786Y010488D01*
X021732Y010448D01*
X021685Y010401D01*
X021645Y010347D01*
X021615Y010287D01*
X021594Y010223D01*
X021584Y010157D01*
X021584Y010152D01*
X021586Y010173D02*
X021439Y010173D01*
X021439Y010291D02*
X021617Y010291D01*
X021693Y010410D02*
X021439Y010410D01*
X021439Y010528D02*
X021876Y010528D01*
X021981Y010528D02*
X022038Y010528D01*
X022143Y010528D02*
X024616Y010528D01*
X024616Y010447D02*
X024754Y010112D01*
X025010Y009856D01*
X025344Y009718D01*
X025706Y009718D01*
X026040Y009856D01*
X026296Y010112D01*
X026435Y010447D01*
X026435Y010808D01*
X026296Y011143D01*
X026040Y011399D01*
X025706Y011537D01*
X025344Y011537D01*
X025010Y011399D01*
X024754Y011143D01*
X024616Y010808D01*
X024616Y010447D01*
X024631Y010410D02*
X022326Y010410D01*
X022402Y010291D02*
X024680Y010291D01*
X024729Y010173D02*
X022433Y010173D01*
X022429Y010054D02*
X024812Y010054D01*
X024931Y009936D02*
X023311Y009936D01*
X023402Y009817D02*
X025105Y009817D01*
X025945Y009817D02*
X027713Y009817D01*
X027713Y009699D02*
X023444Y009699D01*
X023451Y009591D02*
X023054Y009591D01*
X023054Y009194D01*
X023059Y009194D01*
X023125Y009204D01*
X023189Y009225D01*
X023248Y009256D01*
X023303Y009295D01*
X023350Y009342D01*
X023389Y009397D01*
X023420Y009456D01*
X023440Y009520D01*
X023451Y009586D01*
X023451Y009591D01*
X023450Y009580D02*
X027713Y009580D01*
X027713Y009462D02*
X023421Y009462D01*
X023350Y009343D02*
X027713Y009343D01*
X027713Y009225D02*
X023187Y009225D01*
X023054Y009225D02*
X022997Y009225D01*
X022997Y009343D02*
X023054Y009343D01*
X023054Y009462D02*
X022997Y009462D01*
X022997Y009580D02*
X023054Y009580D01*
X023054Y009699D02*
X022997Y009699D01*
X022997Y009817D02*
X023054Y009817D01*
X023054Y009936D02*
X022997Y009936D01*
X022739Y009936D02*
X022391Y009936D01*
X022305Y009817D02*
X022648Y009817D01*
X022038Y009817D02*
X021981Y009817D01*
X021981Y009936D02*
X022038Y009936D01*
X022038Y010054D02*
X021981Y010054D01*
X021981Y010173D02*
X022038Y010173D01*
X022038Y010291D02*
X021981Y010291D01*
X021981Y010410D02*
X022038Y010410D01*
X021439Y010647D02*
X024616Y010647D01*
X024616Y010765D02*
X021439Y010765D01*
X021439Y010884D02*
X024647Y010884D01*
X024696Y011002D02*
X021439Y011002D01*
X021984Y011595D02*
X020232Y011595D01*
X018755Y013017D02*
X023992Y013017D01*
X023320Y012543D02*
X022952Y012543D01*
X022980Y012424D02*
X023267Y012424D01*
X023213Y012306D02*
X022980Y012306D01*
X022625Y012306D02*
X022505Y012306D01*
X022505Y012424D02*
X022625Y012424D01*
X022625Y012543D02*
X022505Y012543D01*
X021493Y013119D02*
X021493Y013186D01*
X026068Y013186D01*
X026486Y013603D01*
X026597Y013714D01*
X026597Y014157D01*
X026752Y014157D01*
X026813Y014217D01*
X026873Y014157D01*
X027101Y014157D01*
X027101Y013992D01*
X027007Y013992D01*
X026925Y013910D01*
X026925Y013322D01*
X027007Y013240D01*
X027595Y013240D01*
X027677Y013322D01*
X027677Y013910D01*
X027595Y013992D01*
X027501Y013992D01*
X027501Y014157D01*
X027583Y014239D01*
X027583Y014374D01*
X027601Y014418D01*
X027601Y014538D01*
X027583Y014582D01*
X027583Y014945D01*
X027501Y015027D01*
X026873Y015027D01*
X026813Y014967D01*
X026752Y015027D01*
X026125Y015027D01*
X026043Y014945D01*
X026043Y014239D01*
X026125Y014157D01*
X026217Y014157D01*
X026217Y013872D01*
X025911Y013566D01*
X021493Y013566D01*
X021493Y013632D01*
X021411Y013714D01*
X020899Y013714D01*
X020817Y013632D01*
X020817Y013119D01*
X020899Y013037D01*
X021411Y013037D01*
X021493Y013119D01*
X021493Y013135D02*
X026948Y013135D01*
X026905Y013017D02*
X026240Y013017D01*
X026136Y013254D02*
X026993Y013254D01*
X026925Y013372D02*
X026255Y013372D01*
X026373Y013491D02*
X026925Y013491D01*
X026925Y013609D02*
X026492Y013609D01*
X026597Y013728D02*
X026925Y013728D01*
X026925Y013846D02*
X026597Y013846D01*
X026597Y013965D02*
X026979Y013965D01*
X027101Y014083D02*
X026597Y014083D01*
X026797Y014202D02*
X026828Y014202D01*
X027301Y014478D02*
X027301Y013616D01*
X027677Y013609D02*
X028253Y013609D01*
X028253Y013491D02*
X027677Y013491D01*
X027677Y013372D02*
X028253Y013372D01*
X028253Y013254D02*
X027609Y013254D01*
X027653Y013135D02*
X028253Y013135D01*
X028253Y013017D02*
X027697Y013017D01*
X027697Y012898D02*
X028253Y012898D01*
X028254Y012780D02*
X027359Y012780D01*
X027359Y012731D02*
X027697Y012731D01*
X027697Y012532D01*
X027686Y012491D01*
X027665Y012455D01*
X027635Y012425D01*
X027599Y012404D01*
X027558Y012393D01*
X027359Y012393D01*
X027359Y012731D01*
X027359Y012661D02*
X027243Y012661D01*
X027243Y012543D02*
X027359Y012543D01*
X027359Y012424D02*
X027243Y012424D01*
X026968Y012424D02*
X026955Y012424D01*
X026955Y012306D02*
X028254Y012306D01*
X028254Y012424D02*
X027634Y012424D01*
X027697Y012543D02*
X028254Y012543D01*
X028254Y012661D02*
X027697Y012661D01*
X027359Y012898D02*
X027243Y012898D01*
X027243Y012780D02*
X026735Y012780D01*
X026853Y012661D02*
X026905Y012661D01*
X026905Y012898D02*
X026615Y012898D01*
X026355Y012306D02*
X026275Y012306D01*
X026955Y012187D02*
X028254Y012187D01*
X028254Y012069D02*
X026955Y012069D01*
X026955Y011950D02*
X028254Y011950D01*
X028254Y011832D02*
X026955Y011832D01*
X026955Y011713D02*
X028255Y011713D01*
X028255Y011595D02*
X027552Y011595D01*
X027685Y011476D02*
X028255Y011476D01*
X028255Y011358D02*
X027818Y011358D01*
X027951Y011239D02*
X028255Y011239D01*
X028255Y011121D02*
X028084Y011121D01*
X028217Y011002D02*
X028255Y011002D01*
X027713Y010647D02*
X026435Y010647D01*
X026435Y010765D02*
X027581Y010765D01*
X027448Y010884D02*
X026404Y010884D01*
X026355Y011002D02*
X027315Y011002D01*
X027713Y010528D02*
X026435Y010528D01*
X026419Y010410D02*
X027713Y010410D01*
X027713Y010291D02*
X026370Y010291D01*
X026321Y010173D02*
X027713Y010173D01*
X027713Y010054D02*
X026238Y010054D01*
X026120Y009936D02*
X027713Y009936D01*
X026541Y011121D02*
X026306Y011121D01*
X026200Y011239D02*
X026423Y011239D01*
X026361Y011358D02*
X026082Y011358D01*
X025854Y011476D02*
X026355Y011476D01*
X025452Y012306D02*
X024779Y012306D01*
X024783Y012424D02*
X025448Y012424D01*
X025448Y012543D02*
X024783Y012543D01*
X024783Y012661D02*
X025448Y012661D01*
X025448Y012780D02*
X024783Y012780D01*
X024783Y012898D02*
X025448Y012898D01*
X025488Y013017D02*
X024744Y013017D01*
X025955Y013609D02*
X021493Y013609D01*
X020817Y013609D02*
X020232Y013609D01*
X020232Y013491D02*
X020817Y013491D01*
X020817Y013372D02*
X020232Y013372D01*
X020207Y013254D02*
X020817Y013254D01*
X020817Y013135D02*
X018724Y013135D01*
X018679Y014242D02*
X016649Y014242D01*
X016643Y014248D01*
X016718Y014714D02*
X018344Y014714D01*
X018360Y014730D01*
X018130Y015248D02*
X018387Y015506D01*
X018387Y015683D01*
X018789Y016104D02*
X018793Y016191D01*
X018789Y016104D02*
X018789Y016824D01*
X018108Y016702D02*
X018108Y017179D01*
X018395Y017466D01*
X018683Y017466D01*
X018789Y017572D01*
X019311Y017803D02*
X019446Y017667D01*
X019311Y017803D02*
X019311Y019002D01*
X019526Y018468D02*
X019567Y018468D01*
X020628Y017025D02*
X020628Y016340D01*
X020387Y016183D01*
X020831Y016335D02*
X024909Y016335D01*
X025018Y016453D02*
X020828Y016453D01*
X020828Y016572D02*
X025127Y016572D01*
X025265Y016690D02*
X021042Y016690D01*
X020930Y016216D02*
X021848Y016216D01*
X022154Y016216D02*
X022274Y016216D01*
X022274Y016232D02*
X022274Y015877D01*
X022669Y015877D01*
X022669Y016094D01*
X022659Y016134D01*
X022637Y016171D01*
X022608Y016200D01*
X022571Y016222D01*
X022531Y016232D01*
X022274Y016232D01*
X022274Y016098D02*
X022154Y016098D01*
X022154Y015979D02*
X022274Y015979D01*
X022274Y015861D02*
X024475Y015861D01*
X024583Y015979D02*
X022669Y015979D01*
X022668Y016098D02*
X024692Y016098D01*
X024801Y016216D02*
X022581Y016216D01*
X022669Y015742D02*
X024361Y015742D01*
X024242Y015624D02*
X022669Y015624D01*
X022660Y015505D02*
X024124Y015505D01*
X024005Y015387D02*
X022645Y015387D01*
X022214Y015817D02*
X023139Y015817D01*
X023147Y015809D01*
X023970Y015069D02*
X022214Y015069D01*
X022206Y015061D01*
X021376Y015061D01*
X020773Y015061D01*
X020643Y015191D01*
X020643Y015498D01*
X020450Y015691D01*
X019230Y015691D01*
X018962Y015423D01*
X018962Y014525D01*
X018679Y014242D01*
X018130Y015248D02*
X016643Y015248D01*
X016643Y015748D02*
X016657Y015761D01*
X017659Y015761D01*
X016685Y014748D02*
X016718Y014714D01*
X016685Y014748D02*
X016643Y014748D01*
X016948Y013030D02*
X017344Y013030D01*
X017589Y012784D01*
X017589Y012528D01*
X017529Y012588D01*
X017017Y012588D01*
X016993Y012564D01*
X017003Y012602D01*
X017003Y012745D01*
X016646Y012745D01*
X016646Y012750D01*
X017003Y012750D01*
X017003Y012894D01*
X016992Y012934D01*
X016971Y012971D01*
X016942Y013001D01*
X016927Y013009D01*
X016948Y013030D01*
X016935Y013017D02*
X017357Y013017D01*
X017475Y012898D02*
X017002Y012898D01*
X017003Y012780D02*
X017589Y012780D01*
X017589Y012661D02*
X017003Y012661D01*
X017212Y012748D02*
X016643Y012748D01*
X016643Y012248D02*
X017271Y012248D01*
X017273Y012250D01*
X017575Y012543D02*
X017589Y012543D01*
X017277Y012754D02*
X017212Y012748D01*
X020232Y013728D02*
X026073Y013728D01*
X026192Y013846D02*
X020232Y013846D01*
X020232Y013965D02*
X026217Y013965D01*
X026217Y014083D02*
X020232Y014083D01*
X020232Y014202D02*
X026080Y014202D01*
X026043Y014320D02*
X020232Y014320D01*
X020232Y014439D02*
X026043Y014439D01*
X026043Y014557D02*
X020232Y014557D01*
X020232Y014676D02*
X021012Y014676D01*
X020940Y014794D02*
X020232Y014794D01*
X020232Y014913D02*
X020638Y014913D01*
X020520Y015031D02*
X020232Y015031D01*
X020232Y015150D02*
X020443Y015150D01*
X020443Y015268D02*
X020232Y015268D01*
X020232Y015387D02*
X020443Y015387D01*
X021740Y014676D02*
X021858Y014676D01*
X022570Y014676D02*
X026043Y014676D01*
X026043Y014794D02*
X022649Y014794D01*
X023970Y015069D02*
X024569Y015667D01*
X025324Y016491D01*
X026669Y016182D01*
X027082Y016335D02*
X028250Y016335D01*
X028250Y016453D02*
X027020Y016453D01*
X026879Y016572D02*
X028250Y016572D01*
X028250Y016690D02*
X025404Y016690D01*
X025431Y016216D02*
X025343Y016216D01*
X025270Y016098D02*
X025235Y016098D01*
X025177Y015979D02*
X025126Y015979D01*
X025128Y015861D02*
X025017Y015861D01*
X025106Y015742D02*
X024909Y015742D01*
X024800Y015624D02*
X025106Y015624D01*
X025136Y015505D02*
X024691Y015505D01*
X024571Y015387D02*
X025185Y015387D01*
X025289Y015268D02*
X024452Y015268D01*
X024334Y015150D02*
X025477Y015150D01*
X025900Y015150D02*
X028251Y015150D01*
X028251Y015268D02*
X026088Y015268D01*
X026193Y015387D02*
X028251Y015387D01*
X028251Y015505D02*
X026242Y015505D01*
X026271Y015624D02*
X028251Y015624D01*
X028251Y015742D02*
X026271Y015742D01*
X026250Y015861D02*
X026368Y015861D01*
X026277Y015979D02*
X026201Y015979D01*
X026145Y016098D02*
X026107Y016098D01*
X025868Y016572D02*
X026458Y016572D01*
X027109Y016216D02*
X028250Y016216D01*
X028251Y016098D02*
X027109Y016098D01*
X027061Y015979D02*
X028251Y015979D01*
X028251Y015861D02*
X026969Y015861D01*
X027583Y014913D02*
X028252Y014913D01*
X028252Y015031D02*
X024215Y015031D01*
X024097Y014913D02*
X026043Y014913D01*
X027501Y014083D02*
X028252Y014083D01*
X028252Y013965D02*
X027622Y013965D01*
X027677Y013846D02*
X028253Y013846D01*
X028253Y013728D02*
X027677Y013728D01*
X027545Y014202D02*
X028252Y014202D01*
X028252Y014320D02*
X027583Y014320D01*
X027601Y014439D02*
X028252Y014439D01*
X028252Y014557D02*
X027593Y014557D01*
X027583Y014676D02*
X028252Y014676D01*
X028252Y014794D02*
X027583Y014794D01*
X027359Y013135D02*
X027243Y013135D01*
X027243Y013017D02*
X027359Y013017D01*
X027301Y012789D02*
X027305Y011978D01*
X025197Y011476D02*
X023410Y011476D01*
X023357Y011358D02*
X024969Y011358D01*
X024850Y011239D02*
X023210Y011239D01*
X022436Y011121D02*
X024745Y011121D01*
X021654Y009343D02*
X021439Y009343D01*
X021498Y008988D02*
X021601Y008988D01*
X021657Y008869D02*
X021426Y008869D01*
X021376Y008751D02*
X020834Y008751D01*
X020834Y008869D02*
X020932Y008869D01*
X020859Y008988D02*
X020820Y008988D01*
X017267Y007789D02*
X016994Y007789D01*
X016651Y008143D01*
X018267Y005742D02*
X018257Y005732D01*
X018765Y004959D02*
X023587Y004959D01*
X023469Y004840D02*
X018874Y004840D01*
X018983Y004722D02*
X023350Y004722D01*
X023232Y004603D02*
X019092Y004603D01*
X019201Y004485D02*
X023113Y004485D01*
X022995Y004366D02*
X019310Y004366D01*
X019012Y004129D02*
X016662Y004129D01*
X016661Y004248D02*
X018903Y004248D01*
X018794Y004366D02*
X018060Y004366D01*
X018178Y004485D02*
X018685Y004485D01*
X018576Y004603D02*
X018297Y004603D01*
X018415Y004722D02*
X018467Y004722D01*
X019121Y004011D02*
X016657Y004011D01*
X016489Y003892D02*
X024099Y003892D01*
X024158Y003833D02*
X024320Y003766D01*
X024495Y003766D01*
X024656Y003833D01*
X024780Y003957D01*
X024847Y004119D01*
X024847Y004294D01*
X024780Y004456D01*
X024656Y004579D01*
X024495Y004646D01*
X024320Y004646D01*
X024158Y004579D01*
X024034Y004456D01*
X023967Y004294D01*
X023967Y004119D01*
X024034Y003957D01*
X024158Y003833D01*
X024302Y003774D02*
X015792Y003774D01*
X015722Y003655D02*
X018246Y003655D01*
X018246Y003537D02*
X014133Y003537D01*
X014133Y003655D02*
X015187Y003655D01*
X015116Y003774D02*
X014130Y003774D01*
X014022Y003892D02*
X015116Y003892D01*
X015116Y004011D02*
X011978Y004011D01*
X012010Y004129D02*
X014035Y004129D01*
X014026Y004248D02*
X012010Y004248D01*
X012010Y004366D02*
X014026Y004366D01*
X014426Y004366D02*
X014546Y004366D01*
X014546Y004374D02*
X014546Y004024D01*
X014807Y004024D01*
X014848Y004035D01*
X014884Y004056D01*
X014914Y004085D01*
X014935Y004122D01*
X014946Y004163D01*
X014946Y004374D01*
X014546Y004374D01*
X014546Y004485D02*
X015805Y004485D01*
X015806Y004603D02*
X015819Y004603D01*
X015815Y004722D02*
X015830Y004722D01*
X015815Y004959D02*
X015847Y004959D01*
X015830Y005077D02*
X015814Y005077D01*
X015830Y005196D02*
X015728Y005196D01*
X015418Y005196D02*
X015341Y005196D01*
X015341Y005077D02*
X015418Y005077D01*
X015418Y004959D02*
X015341Y004959D01*
X015341Y004722D02*
X015418Y004722D01*
X015418Y004603D02*
X015341Y004603D01*
X014953Y004603D02*
X014946Y004603D01*
X014941Y004722D02*
X014944Y004722D01*
X014946Y004366D02*
X015830Y004366D01*
X015830Y004248D02*
X015783Y004248D01*
X015126Y004248D02*
X014946Y004248D01*
X014937Y004129D02*
X015116Y004129D01*
X014546Y004129D02*
X014426Y004129D01*
X014426Y004248D02*
X014546Y004248D01*
X014426Y004485D02*
X012010Y004485D01*
X011470Y004485D02*
X011380Y004485D01*
X011380Y004603D02*
X011470Y004603D01*
X011470Y004366D02*
X011380Y004366D01*
X010840Y004366D02*
X010334Y004366D01*
X010334Y004248D02*
X010840Y004248D01*
X010840Y004129D02*
X010334Y004129D01*
X010334Y004011D02*
X010872Y004011D01*
X010860Y003892D02*
X010334Y003892D01*
X010334Y003774D02*
X010860Y003774D01*
X010860Y003655D02*
X010334Y003655D01*
X010334Y003537D02*
X010860Y003537D01*
X010860Y003418D02*
X010334Y003418D01*
X010334Y003300D02*
X010884Y003300D01*
X010840Y003181D02*
X010334Y003181D01*
X010334Y003063D02*
X010840Y003063D01*
X010840Y002826D02*
X010334Y002826D01*
X010334Y002944D02*
X011380Y002944D01*
X011470Y002944D02*
X013262Y002944D01*
X013262Y002826D02*
X012010Y002826D01*
X012010Y003063D02*
X013262Y003063D01*
X013262Y003300D02*
X011966Y003300D01*
X012010Y003181D02*
X013638Y003181D01*
X013638Y003063D02*
X013758Y003063D01*
X013758Y003181D02*
X018246Y003181D01*
X018246Y003300D02*
X014133Y003300D01*
X014133Y003418D02*
X018246Y003418D01*
X018124Y003063D02*
X014133Y003063D01*
X014133Y002944D02*
X017806Y002944D01*
X017934Y002352D02*
X018500Y002352D01*
X018381Y002233D02*
X017694Y002233D01*
X017694Y002115D02*
X018263Y002115D01*
X018144Y001996D02*
X016093Y001996D01*
X016079Y001992D02*
X016119Y002003D01*
X016156Y002024D01*
X016186Y002054D01*
X016207Y002090D01*
X016218Y002131D01*
X016218Y002368D01*
X015842Y002368D01*
X015842Y002488D01*
X015722Y002488D01*
X015722Y002863D01*
X015485Y002863D01*
X015445Y002852D01*
X015408Y002831D01*
X015378Y002801D01*
X015357Y002765D01*
X015346Y002724D01*
X015346Y002488D01*
X015722Y002488D01*
X015722Y002368D01*
X015346Y002368D01*
X015346Y002131D01*
X015357Y002090D01*
X015378Y002054D01*
X015408Y002024D01*
X015445Y002003D01*
X015485Y001992D01*
X015722Y001992D01*
X015722Y002368D01*
X015842Y002368D01*
X015842Y001992D01*
X016079Y001992D01*
X016213Y002115D02*
X016862Y002115D01*
X016862Y002233D02*
X016218Y002233D01*
X016218Y002352D02*
X016862Y002352D01*
X016862Y002470D02*
X015842Y002470D01*
X015842Y002488D02*
X016218Y002488D01*
X016218Y002724D01*
X016207Y002765D01*
X016186Y002801D01*
X016156Y002831D01*
X016119Y002852D01*
X016079Y002863D01*
X015842Y002863D01*
X015842Y002488D01*
X015842Y002589D02*
X015722Y002589D01*
X015722Y002707D02*
X015842Y002707D01*
X015842Y002826D02*
X015722Y002826D01*
X015402Y002826D02*
X014133Y002826D01*
X014133Y002707D02*
X015346Y002707D01*
X015346Y002589D02*
X014133Y002589D01*
X014107Y002470D02*
X015722Y002470D01*
X015722Y002352D02*
X015842Y002352D01*
X015842Y002233D02*
X015722Y002233D01*
X015722Y002115D02*
X015842Y002115D01*
X015842Y001996D02*
X015722Y001996D01*
X015471Y001996D02*
X014734Y001996D01*
X014887Y001878D02*
X018026Y001878D01*
X018400Y001404D02*
X027713Y001404D01*
X027713Y001522D02*
X018519Y001522D01*
X018637Y001641D02*
X024264Y001641D01*
X024235Y001670D02*
X024317Y001588D01*
X025614Y001588D01*
X025696Y001670D01*
X025696Y002337D01*
X025614Y002419D01*
X024945Y002419D01*
X023834Y003012D01*
X023834Y003661D01*
X023752Y003743D01*
X022486Y003743D01*
X022404Y003661D01*
X022404Y002749D01*
X021911Y002749D01*
X021829Y002667D01*
X021829Y002155D01*
X021911Y002073D01*
X022423Y002073D01*
X022501Y002151D01*
X023154Y002151D01*
X023249Y002191D01*
X023323Y002264D01*
X023362Y002359D01*
X023362Y002364D01*
X023752Y002364D01*
X023759Y002372D01*
X024235Y002118D01*
X024235Y001670D01*
X024235Y001759D02*
X018756Y001759D01*
X018874Y001878D02*
X024235Y001878D01*
X024235Y001996D02*
X018993Y001996D01*
X019111Y002115D02*
X021869Y002115D01*
X021829Y002233D02*
X019221Y002233D01*
X019268Y002352D02*
X021829Y002352D01*
X021829Y002470D02*
X019676Y002470D01*
X019676Y002589D02*
X021829Y002589D01*
X021869Y002707D02*
X019676Y002707D01*
X019676Y002826D02*
X022404Y002826D01*
X022404Y002944D02*
X019676Y002944D01*
X019676Y003063D02*
X022404Y003063D01*
X022404Y003181D02*
X019676Y003181D01*
X019676Y003300D02*
X022404Y003300D01*
X022404Y003418D02*
X019676Y003418D01*
X019676Y003537D02*
X022404Y003537D01*
X022404Y003655D02*
X019676Y003655D01*
X016927Y002826D02*
X016162Y002826D01*
X016218Y002707D02*
X016862Y002707D01*
X016862Y002589D02*
X016218Y002589D01*
X015346Y002352D02*
X014281Y002352D01*
X014428Y002233D02*
X015346Y002233D01*
X015351Y002115D02*
X014581Y002115D01*
X014213Y001641D02*
X014113Y001641D01*
X014113Y001522D02*
X014366Y001522D01*
X014519Y001404D02*
X014113Y001404D01*
X014113Y001285D02*
X014672Y001285D01*
X014209Y001048D02*
X027556Y001048D01*
X027697Y001167D02*
X014113Y001167D01*
X013953Y000456D02*
X001265Y000456D01*
X001265Y000574D02*
X013319Y000574D01*
X013282Y000693D02*
X001265Y000693D01*
X001265Y000811D02*
X005956Y000811D01*
X005956Y000930D02*
X001089Y000930D01*
X001033Y001048D02*
X005956Y001048D01*
X005956Y001404D02*
X004105Y001404D01*
X004169Y001522D02*
X005956Y001522D01*
X005956Y001641D02*
X004169Y001641D01*
X004169Y001759D02*
X005956Y001759D01*
X005956Y001878D02*
X004169Y001878D01*
X004169Y001996D02*
X005956Y001996D01*
X005956Y002115D02*
X004110Y002115D01*
X003993Y002233D02*
X005956Y002233D01*
X005956Y002352D02*
X003993Y002352D01*
X003942Y002470D02*
X005956Y002470D01*
X005956Y002589D02*
X003823Y002589D01*
X003705Y002707D02*
X005956Y002707D01*
X005956Y002826D02*
X001917Y002826D01*
X001799Y002944D02*
X005956Y002944D01*
X005956Y003537D02*
X004327Y003537D01*
X004446Y003655D02*
X005956Y003655D01*
X005956Y003774D02*
X004564Y003774D01*
X004683Y003892D02*
X005956Y003892D01*
X005956Y004011D02*
X004757Y004011D01*
X004757Y004129D02*
X005956Y004129D01*
X005956Y004248D02*
X004757Y004248D01*
X004757Y004366D02*
X005956Y004366D01*
X005956Y004485D02*
X004757Y004485D01*
X004757Y004603D02*
X005956Y004603D01*
X005956Y004722D02*
X004757Y004722D01*
X004757Y004840D02*
X005956Y004840D01*
X005956Y004959D02*
X004757Y004959D01*
X004757Y005077D02*
X005956Y005077D01*
X005988Y005196D02*
X004757Y005196D01*
X003793Y002336D02*
X003793Y001761D01*
X003480Y001404D02*
X003307Y001404D01*
X003362Y001522D02*
X003417Y001522D01*
X003417Y001641D02*
X003362Y001641D01*
X003024Y001641D02*
X002908Y001641D01*
X002908Y001522D02*
X003024Y001522D01*
X003024Y001404D02*
X002908Y001404D01*
X002625Y001404D02*
X000920Y001404D01*
X000921Y001522D02*
X002570Y001522D01*
X002908Y001878D02*
X003024Y001878D01*
X003024Y001996D02*
X002908Y001996D01*
X002908Y002115D02*
X003024Y002115D01*
X001372Y004722D02*
X000931Y004722D01*
X000931Y004840D02*
X001372Y004840D01*
X001372Y004959D02*
X000932Y004959D01*
X000932Y005077D02*
X001372Y005077D01*
X008111Y011832D02*
X009489Y011832D01*
X009414Y011950D02*
X008111Y011950D01*
X009361Y012543D02*
X009935Y012543D01*
X010032Y012424D02*
X009478Y012424D01*
X009596Y012306D02*
X010128Y012306D01*
X010224Y012187D02*
X009715Y012187D01*
X009833Y012069D02*
X010321Y012069D01*
X010408Y011950D02*
X009869Y011950D01*
X009835Y012661D02*
X009395Y012661D01*
X009395Y012780D02*
X009805Y012780D01*
X009806Y012898D02*
X009395Y012898D01*
X009395Y013017D02*
X009806Y013017D01*
X009806Y013135D02*
X009348Y013135D01*
X009750Y013372D02*
X009806Y013372D01*
X009806Y013254D02*
X008339Y013254D01*
X006524Y013254D02*
X006308Y013254D01*
X006312Y013261D02*
X006323Y013301D01*
X006323Y013441D01*
X005730Y013441D01*
X005730Y013441D01*
X005730Y013441D01*
X005137Y013441D01*
X005137Y013301D01*
X005148Y013261D01*
X005169Y013224D01*
X005199Y013194D01*
X005235Y013173D01*
X005276Y013162D01*
X005730Y013162D01*
X006184Y013162D01*
X006225Y013173D01*
X006261Y013194D01*
X006291Y013224D01*
X006312Y013261D01*
X006323Y013372D02*
X006524Y013372D01*
X006524Y013491D02*
X006323Y013491D01*
X006315Y013609D02*
X006524Y013609D01*
X006524Y013728D02*
X006266Y013728D01*
X006303Y013846D02*
X006524Y013846D01*
X006524Y013965D02*
X006303Y013965D01*
X006303Y014083D02*
X006524Y014083D01*
X006524Y014202D02*
X006240Y014202D01*
X005730Y013441D02*
X005730Y013162D01*
X005730Y013441D01*
X005730Y013441D01*
X005730Y013372D02*
X005730Y013372D01*
X005730Y013254D02*
X005730Y013254D01*
X005152Y013254D02*
X004860Y013254D01*
X004866Y013372D02*
X005137Y013372D01*
X005137Y013491D02*
X004866Y013491D01*
X004866Y013652D02*
X004510Y013652D01*
X004510Y014047D01*
X004727Y014047D01*
X004768Y014036D01*
X004805Y014015D01*
X004834Y013986D01*
X004855Y013949D01*
X004866Y013908D01*
X004866Y013652D01*
X004866Y013728D02*
X005194Y013728D01*
X005157Y013846D02*
X004866Y013846D01*
X004847Y013965D02*
X005157Y013965D01*
X005157Y014083D02*
X004386Y014083D01*
X004390Y013965D02*
X004510Y013965D01*
X004510Y013846D02*
X004390Y013846D01*
X004390Y013728D02*
X004510Y013728D01*
X004510Y013609D02*
X005145Y013609D01*
X005220Y014202D02*
X004462Y014202D01*
X004510Y013491D02*
X004390Y013491D01*
X004390Y013372D02*
X004510Y013372D01*
X004510Y013254D02*
X004390Y013254D01*
X004886Y015742D02*
X006650Y015742D01*
X006546Y017401D02*
X006477Y017401D01*
X006517Y017520D02*
X011571Y017520D01*
X011690Y017638D02*
X006517Y017638D01*
X006517Y017757D02*
X008898Y017757D01*
X008720Y017875D02*
X006517Y017875D01*
X006469Y017994D02*
X008640Y017994D01*
X008603Y018112D02*
X006420Y018112D01*
X006371Y018231D02*
X008598Y018231D01*
X008625Y018349D02*
X008339Y018349D01*
X008441Y018468D02*
X008691Y018468D01*
X008824Y018586D02*
X008490Y018586D01*
X008497Y018705D02*
X011323Y018705D01*
X010576Y019194D02*
X010374Y019189D01*
X009057Y019189D01*
X008617Y019179D02*
X000951Y019179D01*
X000951Y019297D02*
X007852Y019297D01*
X007707Y019416D02*
X000951Y019416D01*
X000951Y019534D02*
X007644Y019534D01*
X007617Y019653D02*
X000951Y019653D01*
X000951Y019771D02*
X007617Y019771D01*
X007664Y019890D02*
X000951Y019890D01*
X000951Y020008D02*
X007590Y020008D01*
X007453Y020127D02*
X000951Y020127D01*
X000951Y020245D02*
X007304Y020245D01*
X007155Y020364D02*
X000951Y020364D01*
X000951Y020482D02*
X007006Y020482D01*
X006977Y020601D02*
X004009Y020601D01*
X004128Y020719D02*
X006979Y020719D01*
X006979Y020838D02*
X004246Y020838D01*
X004365Y020956D02*
X006979Y020956D01*
X006979Y021075D02*
X004483Y021075D01*
X004602Y021193D02*
X006979Y021193D01*
X006979Y021312D02*
X005948Y021312D01*
X006156Y021430D02*
X006979Y021430D01*
X006979Y021549D02*
X006274Y021549D01*
X006380Y021667D02*
X006979Y021667D01*
X007081Y021786D02*
X006429Y021786D01*
X006478Y021904D02*
X007200Y021904D01*
X007318Y022023D02*
X006517Y022023D01*
X006517Y022141D02*
X007437Y022141D01*
X007479Y022260D02*
X006517Y022260D01*
X006517Y022378D02*
X007479Y022378D01*
X007479Y022497D02*
X006917Y022497D01*
X007121Y022615D02*
X007479Y022615D01*
X007529Y022734D02*
X007239Y022734D01*
X007288Y022852D02*
X007648Y022852D01*
X007766Y022971D02*
X007334Y022971D01*
X007334Y023089D02*
X007885Y023089D01*
X008003Y023208D02*
X007334Y023208D01*
X007288Y023326D02*
X008074Y023326D01*
X008074Y023445D02*
X007238Y023445D01*
X007120Y023563D02*
X008074Y023563D01*
X007896Y023682D02*
X006915Y023682D01*
X006499Y023682D02*
X005046Y023682D01*
X004981Y023563D02*
X006294Y023563D01*
X006175Y023445D02*
X004916Y023445D01*
X004852Y023326D02*
X006126Y023326D01*
X006079Y023208D02*
X004787Y023208D01*
X004757Y023089D02*
X005222Y023089D01*
X004981Y022971D02*
X004757Y022971D01*
X004757Y022852D02*
X004863Y022852D01*
X004357Y022852D02*
X003915Y022852D01*
X004002Y022734D02*
X004357Y022734D01*
X004357Y022615D02*
X004047Y022615D01*
X004047Y022497D02*
X004357Y022497D01*
X004357Y022378D02*
X004016Y022378D01*
X003950Y022260D02*
X004357Y022260D01*
X004357Y022141D02*
X003797Y022141D01*
X003714Y021987D02*
X003783Y021965D01*
X003848Y021932D01*
X003906Y021889D01*
X003958Y021838D01*
X004000Y021780D01*
X004033Y021715D01*
X004055Y021646D01*
X004067Y021575D01*
X004067Y021559D01*
X003627Y021559D01*
X003587Y021559D01*
X003587Y021999D01*
X003570Y021999D01*
X003499Y021987D01*
X003430Y021965D01*
X003366Y021932D01*
X003307Y021889D01*
X003256Y021838D01*
X003213Y021780D01*
X003180Y021715D01*
X003158Y021646D01*
X003147Y021575D01*
X003147Y021559D01*
X003587Y021559D01*
X003587Y021519D01*
X003147Y021519D01*
X003147Y021502D01*
X003158Y021431D01*
X003180Y021362D01*
X003213Y021297D01*
X003256Y021239D01*
X003307Y021188D01*
X003366Y021145D01*
X003430Y021112D01*
X003499Y021090D01*
X003570Y021079D01*
X003587Y021079D01*
X003587Y021519D01*
X003627Y021519D01*
X003627Y021559D01*
X003627Y021999D01*
X003643Y021999D01*
X003714Y021987D01*
X003627Y021904D02*
X003587Y021904D01*
X003587Y021786D02*
X003627Y021786D01*
X003627Y021667D02*
X003587Y021667D01*
X003587Y021549D02*
X000951Y021549D01*
X000951Y021667D02*
X003165Y021667D01*
X003218Y021786D02*
X000951Y021786D01*
X000951Y021904D02*
X003327Y021904D01*
X003417Y022141D02*
X000951Y022141D01*
X000951Y022023D02*
X004357Y022023D01*
X004357Y021904D02*
X003886Y021904D01*
X003996Y021786D02*
X004357Y021786D01*
X004357Y021667D02*
X004049Y021667D01*
X004067Y021519D02*
X003627Y021519D01*
X003627Y021079D01*
X003643Y021079D01*
X003714Y021090D01*
X003783Y021112D01*
X003848Y021145D01*
X003906Y021188D01*
X003958Y021239D01*
X004000Y021297D01*
X004033Y021362D01*
X004055Y021431D01*
X004067Y021502D01*
X004067Y021519D01*
X004055Y021430D02*
X004273Y021430D01*
X004357Y021549D02*
X003627Y021549D01*
X003627Y021430D02*
X003587Y021430D01*
X003587Y021312D02*
X003627Y021312D01*
X003627Y021193D02*
X003587Y021193D01*
X003302Y021193D02*
X000951Y021193D01*
X000951Y021075D02*
X003918Y021075D01*
X003912Y021193D02*
X004036Y021193D01*
X004007Y021312D02*
X004155Y021312D01*
X004557Y021431D02*
X003809Y020683D01*
X001057Y020683D01*
X000651Y021088D01*
X000951Y021312D02*
X003206Y021312D01*
X003158Y021430D02*
X000951Y021430D01*
X001066Y020956D02*
X003799Y020956D01*
X004557Y021431D02*
X004557Y023202D01*
X004986Y023990D01*
X007694Y023990D01*
X008431Y023663D01*
X008470Y023663D01*
X008095Y024037D02*
X008081Y024037D01*
X008094Y024274D02*
X003990Y024274D01*
X003871Y024156D02*
X004848Y024156D01*
X004784Y024037D02*
X003776Y024037D01*
X003776Y023919D02*
X004719Y023919D01*
X004655Y023800D02*
X003776Y023800D01*
X003776Y023682D02*
X004590Y023682D01*
X004525Y023563D02*
X003776Y023563D01*
X003776Y023445D02*
X004461Y023445D01*
X004396Y023326D02*
X003776Y023326D01*
X003776Y023208D02*
X004347Y023208D01*
X004357Y023089D02*
X003776Y023089D01*
X003776Y022971D02*
X004357Y022971D01*
X003607Y022539D02*
X003576Y022569D01*
X003576Y024143D01*
X004025Y024592D01*
X008490Y024592D01*
X008094Y024867D02*
X001366Y024867D01*
X001484Y024985D02*
X008134Y024985D01*
X008846Y024985D02*
X008882Y024985D01*
X009238Y024592D02*
X009883Y024065D01*
X011210Y024065D01*
X011548Y024037D02*
X012111Y024037D01*
X012111Y023919D02*
X011548Y023919D01*
X011540Y023800D02*
X012111Y023800D01*
X012111Y023682D02*
X011101Y023682D01*
X010836Y023663D02*
X011305Y023194D01*
X011760Y023208D02*
X012111Y023208D01*
X012111Y023089D02*
X011760Y023089D01*
X011760Y022971D02*
X012111Y022971D01*
X012111Y022852D02*
X011760Y022852D01*
X011760Y022734D02*
X012111Y022734D01*
X012111Y022615D02*
X011760Y022615D01*
X011722Y022497D02*
X012118Y022497D01*
X012181Y022378D02*
X011503Y022378D01*
X011697Y022260D02*
X012300Y022260D01*
X012418Y022141D02*
X011760Y022141D01*
X011760Y022023D02*
X012537Y022023D01*
X012595Y021904D02*
X011760Y021904D01*
X011760Y021786D02*
X012595Y021786D01*
X012595Y021667D02*
X011760Y021667D01*
X011760Y021549D02*
X012595Y021549D01*
X011029Y021430D02*
X010951Y021430D01*
X010569Y021797D02*
X010616Y021844D01*
X010569Y021797D02*
X009513Y021820D01*
X009433Y021430D02*
X010281Y021430D01*
X010220Y021549D02*
X009836Y021549D01*
X009486Y021075D02*
X010207Y021075D01*
X010192Y020956D02*
X009437Y020956D01*
X009057Y021189D02*
X009057Y022576D01*
X009372Y022891D01*
X010513Y022891D01*
X010616Y022887D01*
X010836Y023663D02*
X009218Y023663D01*
X009179Y023600D01*
X009179Y023100D01*
X008179Y023100D01*
X007679Y022600D01*
X007679Y022100D01*
X007179Y021600D01*
X007179Y020600D01*
X007679Y020202D01*
X009179Y020202D01*
X009057Y020189D01*
X009460Y020364D02*
X010192Y020364D01*
X010192Y020482D02*
X009385Y020482D01*
X009497Y020245D02*
X011140Y020245D01*
X011138Y020127D02*
X009497Y020127D01*
X009458Y020008D02*
X011136Y020008D01*
X011135Y019890D02*
X009380Y019890D01*
X009198Y019771D02*
X011133Y019771D01*
X011131Y019653D02*
X008497Y019653D01*
X008497Y019771D02*
X008915Y019771D01*
X008733Y019890D02*
X008450Y019890D01*
X008469Y019534D02*
X008780Y019534D01*
X008674Y019416D02*
X008406Y019416D01*
X008261Y019297D02*
X008625Y019297D01*
X008634Y019060D02*
X008307Y019060D01*
X008426Y018942D02*
X008683Y018942D01*
X008800Y018823D02*
X008477Y018823D01*
X007806Y019060D02*
X000951Y019060D01*
X000951Y018942D02*
X007687Y018942D01*
X007623Y018586D02*
X005899Y018586D01*
X006135Y018468D02*
X007672Y018468D01*
X007774Y018349D02*
X006254Y018349D01*
X008057Y020689D02*
X010389Y020689D01*
X010588Y020706D01*
X010180Y019534D02*
X009333Y019534D01*
X009439Y019416D02*
X010180Y019416D01*
X010180Y018942D02*
X009431Y018942D01*
X009313Y018823D02*
X010199Y018823D01*
X013134Y018705D02*
X013254Y018705D01*
X013254Y018586D02*
X013134Y018586D01*
X013134Y018468D02*
X013254Y018468D01*
X013590Y018468D02*
X013600Y018468D01*
X013610Y018705D02*
X013612Y018705D01*
X013254Y018942D02*
X013134Y018942D01*
X013134Y019060D02*
X013254Y019060D01*
X013254Y019179D02*
X013134Y019179D01*
X013604Y019179D02*
X013612Y019179D01*
X013610Y019060D02*
X013612Y019060D01*
X014289Y018823D02*
X014552Y018823D01*
X014553Y018705D02*
X014289Y018705D01*
X014277Y018586D02*
X014553Y018586D01*
X014554Y018468D02*
X014277Y018468D01*
X014096Y020838D02*
X022517Y020838D01*
X022398Y020956D02*
X014086Y020956D01*
X014670Y023919D02*
X014768Y023919D01*
X014708Y024037D02*
X014659Y024037D01*
X012635Y024985D02*
X028242Y024985D01*
X028243Y024867D02*
X020894Y024867D01*
X020894Y024748D02*
X021787Y024748D01*
X021787Y024630D02*
X020894Y024630D01*
X020894Y024156D02*
X021787Y024156D01*
X021797Y024037D02*
X020894Y024037D01*
X021112Y023919D02*
X021767Y023919D01*
X021767Y023800D02*
X021186Y023800D01*
X021186Y023682D02*
X022162Y023682D01*
X022162Y023563D02*
X022282Y023563D01*
X022282Y023627D02*
X022282Y023271D01*
X022538Y023271D01*
X022579Y023282D01*
X022616Y023303D01*
X022645Y023332D01*
X022666Y023369D01*
X022677Y023410D01*
X022677Y023627D01*
X022282Y023627D01*
X022282Y023682D02*
X028244Y023682D01*
X028243Y023800D02*
X022677Y023800D01*
X022677Y023919D02*
X028243Y023919D01*
X028243Y024037D02*
X022647Y024037D01*
X022676Y024156D02*
X028243Y024156D01*
X028243Y024274D02*
X022727Y024274D01*
X022698Y024393D02*
X028243Y024393D01*
X028243Y024511D02*
X022657Y024511D01*
X022657Y024630D02*
X028243Y024630D01*
X028243Y024748D02*
X022657Y024748D01*
X022677Y023563D02*
X028244Y023563D01*
X028244Y023445D02*
X022677Y023445D01*
X022639Y023326D02*
X028244Y023326D01*
X028244Y023208D02*
X021011Y023208D01*
X021180Y023326D02*
X021805Y023326D01*
X021767Y023445D02*
X021186Y023445D01*
X021186Y023563D02*
X021767Y023563D01*
X022162Y023445D02*
X022282Y023445D01*
X022282Y023326D02*
X022162Y023326D01*
X021569Y023089D02*
X028244Y023089D01*
X028244Y022971D02*
X021569Y022971D01*
X021569Y022852D02*
X028244Y022852D01*
X028244Y022734D02*
X021569Y022734D01*
X021571Y022615D02*
X028245Y022615D01*
X028245Y022497D02*
X021571Y022497D01*
X021791Y022378D02*
X028245Y022378D01*
X028245Y022260D02*
X024898Y022260D01*
X024515Y021667D02*
X022536Y021667D01*
X022654Y021549D02*
X024515Y021549D01*
X024515Y021430D02*
X022773Y021430D01*
X022891Y021312D02*
X024515Y021312D01*
X024515Y021193D02*
X023010Y021193D01*
X023128Y021075D02*
X024515Y021075D01*
X024667Y020956D02*
X023247Y020956D01*
X023365Y020838D02*
X024545Y020838D01*
X024472Y020719D02*
X023454Y020719D01*
X023479Y020601D02*
X024472Y020601D01*
X024472Y020482D02*
X023479Y020482D01*
X023479Y020364D02*
X024472Y020364D01*
X024472Y020245D02*
X023479Y020245D01*
X023479Y020127D02*
X024482Y020127D01*
X024472Y020008D02*
X023479Y020008D01*
X023479Y019890D02*
X024472Y019890D01*
X024472Y019771D02*
X023479Y019771D01*
X023479Y019653D02*
X024472Y019653D01*
X024472Y019534D02*
X023479Y019534D01*
X023479Y019416D02*
X024472Y019416D01*
X024487Y019297D02*
X023479Y019297D01*
X023479Y019179D02*
X024487Y019179D01*
X024407Y019060D02*
X023479Y019060D01*
X023479Y018942D02*
X024349Y018942D01*
X024349Y018823D02*
X023479Y018823D01*
X023479Y018705D02*
X024349Y018705D01*
X024349Y018586D02*
X023479Y018586D01*
X023479Y018468D02*
X024371Y018468D01*
X024687Y018746D02*
X024687Y019462D01*
X024927Y019702D01*
X024946Y019683D01*
X025856Y019683D01*
X026193Y019653D02*
X026267Y019653D01*
X026267Y019771D02*
X026193Y019771D01*
X026193Y019890D02*
X026267Y019890D01*
X026267Y020008D02*
X026193Y020008D01*
X026191Y020113D02*
X026012Y020113D01*
X025971Y020124D01*
X025935Y020145D01*
X025905Y020175D01*
X025884Y020211D01*
X025873Y020252D01*
X025873Y020510D01*
X026191Y020510D01*
X026191Y020587D01*
X025873Y020587D01*
X025873Y020845D01*
X025884Y020886D01*
X025905Y020923D01*
X025935Y020952D01*
X025971Y020974D01*
X026012Y020984D01*
X026191Y020984D01*
X026191Y020587D01*
X026268Y020587D01*
X026268Y020984D01*
X026448Y020984D01*
X026489Y020974D01*
X026525Y020952D01*
X026555Y020923D01*
X026576Y020886D01*
X026587Y020845D01*
X026587Y020587D01*
X026268Y020587D01*
X026268Y020510D01*
X026268Y020113D01*
X026448Y020113D01*
X026489Y020124D01*
X026525Y020145D01*
X026555Y020175D01*
X026576Y020211D01*
X026587Y020252D01*
X026587Y020510D01*
X026268Y020510D01*
X026191Y020510D01*
X026191Y020113D01*
X026191Y020127D02*
X026268Y020127D01*
X026268Y020245D02*
X026191Y020245D01*
X026191Y020364D02*
X026268Y020364D01*
X026268Y020482D02*
X026191Y020482D01*
X026191Y020601D02*
X026268Y020601D01*
X026268Y020719D02*
X026191Y020719D01*
X026191Y020838D02*
X026268Y020838D01*
X026268Y020956D02*
X026191Y020956D01*
X026043Y021033D02*
X026064Y021070D01*
X026075Y021110D01*
X026075Y021367D01*
X025719Y021367D01*
X025719Y020971D01*
X025936Y020971D01*
X025977Y020982D01*
X026013Y021003D01*
X026043Y021033D01*
X026065Y021075D02*
X026710Y021075D01*
X026710Y021193D02*
X026075Y021193D01*
X026075Y021312D02*
X026710Y021312D01*
X026710Y021430D02*
X025719Y021430D01*
X025719Y021312D02*
X025599Y021312D01*
X025599Y021193D02*
X025719Y021193D01*
X025719Y021075D02*
X025599Y021075D01*
X025941Y020956D02*
X025187Y020956D01*
X025308Y020838D02*
X025873Y020838D01*
X025873Y020719D02*
X025382Y020719D01*
X025382Y020601D02*
X025873Y020601D01*
X025873Y020482D02*
X025382Y020482D01*
X025382Y020364D02*
X025873Y020364D01*
X025875Y020245D02*
X025382Y020245D01*
X025372Y020127D02*
X025967Y020127D01*
X025519Y020008D02*
X025382Y020008D01*
X025382Y019890D02*
X025519Y019890D01*
X025519Y019416D02*
X025382Y019416D01*
X025571Y019297D02*
X024887Y019297D01*
X024887Y019179D02*
X028248Y019179D01*
X028248Y019297D02*
X026889Y019297D01*
X026941Y019416D02*
X028248Y019416D01*
X028247Y019534D02*
X026941Y019534D01*
X026997Y019653D02*
X028247Y019653D01*
X028247Y019771D02*
X027115Y019771D01*
X027208Y019890D02*
X028247Y019890D01*
X028247Y020008D02*
X027230Y020008D01*
X027230Y020127D02*
X028247Y020127D01*
X028247Y020245D02*
X027230Y020245D01*
X027230Y020364D02*
X028247Y020364D01*
X028247Y020482D02*
X027230Y020482D01*
X027230Y020601D02*
X028246Y020601D01*
X028246Y020719D02*
X027230Y020719D01*
X027230Y020838D02*
X028246Y020838D01*
X028246Y020956D02*
X027230Y020956D01*
X027230Y021075D02*
X028246Y021075D01*
X028246Y021193D02*
X027230Y021193D01*
X027230Y021312D02*
X028246Y021312D01*
X028246Y021430D02*
X027230Y021430D01*
X027230Y021549D02*
X028246Y021549D01*
X028245Y021667D02*
X027230Y021667D01*
X027230Y021786D02*
X028245Y021786D01*
X028245Y021904D02*
X027227Y021904D01*
X027159Y022023D02*
X028245Y022023D01*
X028245Y022141D02*
X027041Y022141D01*
X026710Y021667D02*
X026075Y021667D01*
X026075Y021549D02*
X026710Y021549D01*
X026710Y020956D02*
X026519Y020956D01*
X026587Y020838D02*
X026710Y020838D01*
X026710Y020719D02*
X026587Y020719D01*
X026587Y020601D02*
X026710Y020601D01*
X026710Y020482D02*
X026587Y020482D01*
X026587Y020364D02*
X026710Y020364D01*
X026710Y020245D02*
X026585Y020245D01*
X026493Y020127D02*
X026710Y020127D01*
X026267Y019534D02*
X026193Y019534D01*
X026193Y019416D02*
X026267Y019416D01*
X026319Y019297D02*
X026141Y019297D01*
X026019Y018946D02*
X025805Y019035D01*
X025573Y019035D01*
X025359Y018946D01*
X025195Y018782D01*
X025106Y018568D01*
X025106Y018337D01*
X025195Y018122D01*
X025359Y017959D01*
X025573Y017870D01*
X025805Y017870D01*
X026019Y017959D01*
X026183Y018122D01*
X026271Y018337D01*
X026271Y018568D01*
X026183Y018782D01*
X026019Y018946D01*
X026023Y018942D02*
X028248Y018942D01*
X028248Y019060D02*
X024966Y019060D01*
X025025Y018942D02*
X025354Y018942D01*
X025236Y018823D02*
X025025Y018823D01*
X025025Y018705D02*
X025163Y018705D01*
X025114Y018586D02*
X025025Y018586D01*
X025003Y018468D02*
X025106Y018468D01*
X025106Y018349D02*
X023479Y018349D01*
X023479Y018231D02*
X025150Y018231D01*
X025205Y018112D02*
X023479Y018112D01*
X023479Y017994D02*
X025324Y017994D01*
X025561Y017875D02*
X023479Y017875D01*
X023479Y017757D02*
X026257Y017757D01*
X026242Y017786D02*
X026275Y017721D01*
X026318Y017663D01*
X026369Y017612D01*
X026428Y017569D01*
X026492Y017536D01*
X026561Y017514D01*
X026629Y017503D01*
X026629Y017922D01*
X026709Y017922D01*
X026709Y017503D01*
X026776Y017514D01*
X026845Y017536D01*
X026910Y017569D01*
X026968Y017612D01*
X027020Y017663D01*
X027062Y017721D01*
X027095Y017786D01*
X027117Y017855D01*
X027128Y017922D01*
X026709Y017922D01*
X026709Y018002D01*
X027128Y018002D01*
X027117Y018070D01*
X027095Y018139D01*
X027062Y018204D01*
X027020Y018262D01*
X026968Y018313D01*
X026910Y018356D01*
X026845Y018389D01*
X026776Y018411D01*
X026709Y018422D01*
X026709Y018002D01*
X026629Y018002D01*
X026629Y017922D01*
X026209Y017922D01*
X026220Y017855D01*
X026242Y017786D01*
X026217Y017875D02*
X025817Y017875D01*
X026054Y017994D02*
X026629Y017994D01*
X026629Y018002D02*
X026209Y018002D01*
X026220Y018070D01*
X026242Y018139D01*
X026275Y018204D01*
X026318Y018262D01*
X026369Y018313D01*
X026428Y018356D01*
X026492Y018389D01*
X026561Y018411D01*
X026629Y018422D01*
X026629Y018002D01*
X026709Y017994D02*
X028249Y017994D01*
X028249Y018112D02*
X027104Y018112D01*
X027043Y018231D02*
X028249Y018231D01*
X028248Y018349D02*
X026919Y018349D01*
X026709Y018349D02*
X026629Y018349D01*
X026629Y018231D02*
X026709Y018231D01*
X026709Y018112D02*
X026629Y018112D01*
X026629Y017875D02*
X026709Y017875D01*
X026709Y017757D02*
X026629Y017757D01*
X026629Y017638D02*
X026709Y017638D01*
X026709Y017520D02*
X026629Y017520D01*
X026543Y017520D02*
X023479Y017520D01*
X023479Y017638D02*
X026343Y017638D01*
X026794Y017520D02*
X028249Y017520D01*
X028249Y017638D02*
X026995Y017638D01*
X027080Y017757D02*
X028249Y017757D01*
X028249Y017875D02*
X027121Y017875D01*
X026418Y018349D02*
X026271Y018349D01*
X026271Y018468D02*
X028248Y018468D01*
X028248Y018586D02*
X026264Y018586D01*
X026215Y018705D02*
X028248Y018705D01*
X028248Y018823D02*
X026142Y018823D01*
X026227Y018231D02*
X026295Y018231D01*
X026234Y018112D02*
X026172Y018112D01*
X028249Y017401D02*
X023479Y017401D01*
X023479Y017283D02*
X028249Y017283D01*
X028250Y017164D02*
X023479Y017164D01*
X023479Y017046D02*
X028250Y017046D01*
X028250Y016927D02*
X023430Y016927D01*
X023259Y016809D02*
X028250Y016809D01*
X022879Y019416D02*
X021569Y019416D01*
X021569Y019297D02*
X022173Y019297D01*
X021527Y019534D02*
X022879Y019534D01*
X022879Y019653D02*
X021011Y019653D01*
X021011Y019771D02*
X022879Y019771D01*
X022879Y019890D02*
X021011Y019890D01*
X021011Y020008D02*
X022879Y020008D01*
X022879Y020127D02*
X021011Y020127D01*
X021011Y020245D02*
X022879Y020245D01*
X022879Y020364D02*
X020958Y020364D01*
X020839Y020482D02*
X022872Y020482D01*
X022754Y020601D02*
X020721Y020601D01*
X020602Y020719D02*
X022635Y020719D01*
X021806Y021549D02*
X021207Y021549D01*
X021387Y021667D02*
X021687Y021667D01*
X021679Y022004D02*
X021679Y022100D01*
X020811Y022624D02*
X020811Y023582D01*
X020848Y023588D01*
X020332Y023580D02*
X020311Y023547D01*
X020311Y022624D01*
X019811Y022624D02*
X019811Y022624D01*
X019811Y023217D01*
X019950Y023217D01*
X019990Y023206D01*
X020027Y023185D01*
X020057Y023155D01*
X020070Y023132D01*
X020111Y023173D01*
X020111Y023242D01*
X020076Y023242D01*
X019994Y023324D01*
X019994Y023836D01*
X020055Y023897D01*
X018530Y023897D01*
X018448Y023979D01*
X018448Y024237D01*
X017879Y024237D01*
X017501Y023858D01*
X017501Y023183D01*
X017551Y023132D01*
X017564Y023155D01*
X017594Y023185D01*
X017631Y023206D01*
X017671Y023217D01*
X017811Y023217D01*
X017811Y022624D01*
X018089Y022624D01*
X018311Y022624D01*
X018311Y022624D01*
X018311Y023217D01*
X018450Y023217D01*
X018490Y023206D01*
X018527Y023185D01*
X018557Y023155D01*
X018570Y023132D01*
X018635Y023197D01*
X018987Y023197D01*
X019061Y023123D01*
X019135Y023197D01*
X019487Y023197D01*
X019551Y023132D01*
X019564Y023155D01*
X019594Y023185D01*
X019631Y023206D01*
X019671Y023217D01*
X019811Y023217D01*
X019811Y022624D01*
X019811Y022734D02*
X019811Y022734D01*
X019811Y022852D02*
X019811Y022852D01*
X019811Y022971D02*
X019811Y022971D01*
X019811Y023089D02*
X019811Y023089D01*
X019811Y023208D02*
X019811Y023208D01*
X019984Y023208D02*
X020111Y023208D01*
X019994Y023326D02*
X017501Y023326D01*
X017501Y023208D02*
X017637Y023208D01*
X017811Y023208D02*
X017811Y023208D01*
X017811Y023217D02*
X017811Y022624D01*
X017811Y022624D01*
X017811Y022624D01*
X018311Y022624D01*
X018311Y023217D01*
X018171Y023217D01*
X018131Y023206D01*
X018094Y023185D01*
X018064Y023155D01*
X018061Y023148D01*
X018057Y023155D01*
X018027Y023185D01*
X017990Y023206D01*
X017950Y023217D01*
X017811Y023217D01*
X017811Y023089D02*
X017811Y023089D01*
X017811Y022971D02*
X017811Y022971D01*
X017811Y022852D02*
X017811Y022852D01*
X017811Y022734D02*
X017811Y022734D01*
X018311Y022734D02*
X018311Y022734D01*
X018311Y022624D02*
X018311Y022624D01*
X018311Y022852D02*
X018311Y022852D01*
X018311Y022971D02*
X018311Y022971D01*
X018311Y023089D02*
X018311Y023089D01*
X018311Y023208D02*
X018311Y023208D01*
X018484Y023208D02*
X019637Y023208D01*
X019994Y023445D02*
X017501Y023445D01*
X017501Y023563D02*
X019994Y023563D01*
X019994Y023682D02*
X017501Y023682D01*
X017501Y023800D02*
X019994Y023800D01*
X018509Y023919D02*
X017561Y023919D01*
X017680Y024037D02*
X018448Y024037D01*
X018448Y024156D02*
X017798Y024156D01*
X017498Y024393D02*
X017153Y024393D01*
X017153Y024511D02*
X017616Y024511D01*
X017379Y024274D02*
X017153Y024274D01*
X017153Y024156D02*
X017261Y024156D01*
X017153Y024630D02*
X018448Y024630D01*
X018448Y024748D02*
X017153Y024748D01*
X017153Y024867D02*
X018448Y024867D01*
X018137Y023208D02*
X017984Y023208D01*
X021027Y019534D02*
X021094Y019534D01*
X017811Y019002D02*
X017797Y018988D01*
X014114Y013609D02*
X013003Y013609D01*
X012934Y013491D02*
X014114Y013491D01*
X012903Y011773D02*
X012669Y011773D01*
X012643Y011748D01*
X012903Y011773D02*
X013391Y011285D01*
X013368Y009533D01*
X012982Y009139D02*
X012982Y007009D01*
X012974Y007002D01*
X012751Y006618D02*
X012197Y006618D01*
X012331Y006736D02*
X012617Y006736D01*
X012559Y006855D02*
X012389Y006855D01*
X012414Y006973D02*
X012534Y006973D01*
X012535Y007092D02*
X012413Y007092D01*
X012364Y007210D02*
X012584Y007210D01*
X012679Y007329D02*
X012269Y007329D01*
X012202Y007447D02*
X012782Y007447D01*
X012782Y007566D02*
X012202Y007566D01*
X012202Y007684D02*
X012782Y007684D01*
X012782Y007803D02*
X012202Y007803D01*
X012202Y007921D02*
X012782Y007921D01*
X012782Y008040D02*
X012202Y008040D01*
X012202Y008158D02*
X012782Y008158D01*
X012782Y008277D02*
X012202Y008277D01*
X012202Y008395D02*
X012782Y008395D01*
X012782Y008514D02*
X012202Y008514D01*
X012202Y008632D02*
X012782Y008632D01*
X012782Y008751D02*
X012202Y008751D01*
X012202Y008869D02*
X012782Y008869D01*
X012982Y009139D02*
X012874Y009248D01*
X012643Y009248D01*
X012380Y008988D02*
X012202Y008988D01*
X012202Y009106D02*
X012303Y009106D01*
X012303Y009225D02*
X012202Y009225D01*
X012202Y009343D02*
X012303Y009343D01*
X012276Y009462D02*
X012334Y009462D01*
X012279Y009748D02*
X012002Y009470D01*
X012279Y009748D02*
X012643Y009748D01*
X013686Y007447D02*
X013856Y007447D01*
X010858Y004603D02*
X010334Y004603D01*
X010334Y004485D02*
X010840Y004485D01*
X010540Y004959D02*
X010334Y004959D01*
X010334Y005077D02*
X010519Y005077D01*
X010180Y005314D02*
X009155Y005314D01*
X009155Y005433D02*
X010062Y005433D01*
X009943Y005551D02*
X009155Y005551D01*
X009155Y005670D02*
X009825Y005670D01*
X009706Y005788D02*
X009081Y005788D01*
X010362Y005670D02*
X010519Y005670D01*
X012368Y003647D02*
X012366Y003629D01*
X012706Y003655D02*
X013262Y003655D01*
X013262Y003537D02*
X012706Y003537D01*
X012706Y003418D02*
X013262Y003418D01*
X013265Y003774D02*
X012706Y003774D01*
X012706Y003892D02*
X013373Y003892D01*
X013638Y003892D02*
X013758Y003892D01*
X013758Y003774D02*
X013638Y003774D01*
X013638Y003655D02*
X013758Y003655D01*
X013758Y003537D02*
X013638Y003537D01*
X013638Y003418D02*
X013758Y003418D01*
X013758Y003300D02*
X013638Y003300D01*
X013638Y002944D02*
X013758Y002944D01*
X013758Y002826D02*
X013638Y002826D01*
X013638Y002707D02*
X013758Y002707D01*
X013758Y002589D02*
X013638Y002589D01*
X013638Y002470D02*
X013758Y002470D01*
X013225Y001167D02*
X010334Y001167D01*
X010334Y001285D02*
X011978Y001285D01*
X010905Y001996D02*
X010334Y001996D01*
X010334Y001878D02*
X010860Y001878D01*
X010860Y001759D02*
X010334Y001759D01*
X010334Y001641D02*
X010860Y001641D01*
X010860Y001522D02*
X010334Y001522D01*
X010334Y001404D02*
X010860Y001404D01*
X010334Y001048D02*
X013282Y001048D01*
X013282Y000930D02*
X010334Y000930D01*
X010334Y000811D02*
X013282Y000811D01*
X010916Y002633D02*
X010860Y002577D01*
X010902Y002641D02*
X010872Y002671D01*
X010851Y002707D01*
X010902Y002641D02*
X010916Y002633D01*
X010860Y002470D02*
X010334Y002470D01*
X010334Y002352D02*
X010860Y002352D01*
X010860Y002233D02*
X010334Y002233D01*
X010334Y002115D02*
X010860Y002115D01*
X018256Y001285D02*
X027713Y001285D01*
X027713Y001641D02*
X027580Y001641D01*
X027574Y001630D02*
X027595Y001667D01*
X027606Y001707D01*
X027606Y001944D01*
X026915Y001944D01*
X026915Y002064D01*
X026795Y002064D01*
X026795Y002439D01*
X026243Y002439D01*
X026203Y002429D01*
X026166Y002407D01*
X026136Y002378D01*
X026115Y002341D01*
X026104Y002301D01*
X026104Y002064D01*
X026795Y002064D01*
X026795Y001944D01*
X026104Y001944D01*
X026104Y001707D01*
X026115Y001667D01*
X026136Y001630D01*
X026166Y001600D01*
X026203Y001579D01*
X026243Y001568D01*
X026795Y001568D01*
X026795Y001944D01*
X026915Y001944D01*
X026915Y001568D01*
X027467Y001568D01*
X027507Y001579D01*
X027544Y001600D01*
X027574Y001630D01*
X027606Y001759D02*
X027713Y001759D01*
X027713Y001878D02*
X027606Y001878D01*
X027713Y001996D02*
X026915Y001996D01*
X026915Y002064D02*
X027606Y002064D01*
X027606Y002301D01*
X027595Y002341D01*
X027574Y002378D01*
X027544Y002407D01*
X027507Y002429D01*
X027467Y002439D01*
X026915Y002439D01*
X026915Y002064D01*
X026915Y002115D02*
X026795Y002115D01*
X026795Y002233D02*
X026915Y002233D01*
X026915Y002352D02*
X026795Y002352D01*
X026795Y001996D02*
X025696Y001996D01*
X025696Y001878D02*
X026104Y001878D01*
X026104Y001759D02*
X025696Y001759D01*
X025666Y001641D02*
X026130Y001641D01*
X026104Y002115D02*
X025696Y002115D01*
X025696Y002233D02*
X026104Y002233D01*
X026121Y002352D02*
X025682Y002352D01*
X024850Y002470D02*
X027713Y002470D01*
X027713Y002352D02*
X027589Y002352D01*
X027606Y002233D02*
X027713Y002233D01*
X027713Y002115D02*
X027606Y002115D01*
X027713Y002589D02*
X024628Y002589D01*
X024406Y002707D02*
X027713Y002707D01*
X027713Y002826D02*
X024184Y002826D01*
X023962Y002944D02*
X027713Y002944D01*
X027713Y003063D02*
X023834Y003063D01*
X023834Y003181D02*
X027713Y003181D01*
X027713Y003300D02*
X023834Y003300D01*
X023834Y003418D02*
X027713Y003418D01*
X027713Y003537D02*
X023834Y003537D01*
X023834Y003655D02*
X027713Y003655D01*
X027713Y003774D02*
X027564Y003774D01*
X027447Y003774D02*
X027367Y003774D01*
X027367Y003747D02*
X027367Y004166D01*
X026948Y004166D01*
X026958Y004099D01*
X026981Y004030D01*
X027014Y003965D01*
X027056Y003907D01*
X027107Y003855D01*
X027166Y003813D01*
X027231Y003780D01*
X027299Y003758D01*
X027367Y003747D01*
X027250Y003774D02*
X026512Y003774D01*
X026302Y003774D02*
X025512Y003774D01*
X025302Y003774D02*
X024512Y003774D01*
X024715Y003892D02*
X025099Y003892D01*
X025012Y004011D02*
X024802Y004011D01*
X024847Y004129D02*
X024967Y004129D01*
X024967Y004248D02*
X024847Y004248D01*
X024817Y004366D02*
X024997Y004366D01*
X025063Y004485D02*
X024751Y004485D01*
X024599Y004603D02*
X024972Y004603D01*
X024800Y004722D02*
X023888Y004722D01*
X024006Y004840D02*
X024628Y004840D01*
X024215Y004603D02*
X023769Y004603D01*
X023651Y004485D02*
X024063Y004485D01*
X023997Y004366D02*
X023532Y004366D01*
X023414Y004248D02*
X023967Y004248D01*
X023967Y004129D02*
X023295Y004129D01*
X023177Y004011D02*
X024012Y004011D01*
X023119Y003054D02*
X023102Y002411D01*
X023292Y002233D02*
X024020Y002233D01*
X024235Y002115D02*
X022465Y002115D01*
X023359Y002352D02*
X023797Y002352D01*
X025715Y003892D02*
X026099Y003892D01*
X026012Y004011D02*
X025802Y004011D01*
X025847Y004129D02*
X025967Y004129D01*
X025904Y004248D02*
X025847Y004248D01*
X025817Y004366D02*
X025897Y004366D01*
X025898Y004485D02*
X025751Y004485D01*
X025898Y004603D02*
X025599Y004603D01*
X025463Y004722D02*
X025898Y004722D01*
X025898Y004840D02*
X025298Y004840D01*
X025126Y004959D02*
X025485Y004959D01*
X025910Y005314D02*
X027713Y005314D01*
X027713Y005196D02*
X026208Y005196D01*
X026287Y005077D02*
X027713Y005077D01*
X027713Y004959D02*
X026278Y004959D01*
X026278Y004840D02*
X027713Y004840D01*
X027713Y004722D02*
X026278Y004722D01*
X026599Y004603D02*
X027172Y004603D01*
X027166Y004600D02*
X027107Y004557D01*
X027056Y004506D01*
X027014Y004447D01*
X026981Y004383D01*
X026958Y004314D01*
X026948Y004246D01*
X027367Y004246D01*
X027367Y004666D01*
X027299Y004655D01*
X027231Y004633D01*
X027166Y004600D01*
X027041Y004485D02*
X026751Y004485D01*
X026817Y004366D02*
X026975Y004366D01*
X026948Y004248D02*
X026847Y004248D01*
X026847Y004129D02*
X026954Y004129D01*
X026991Y004011D02*
X026802Y004011D01*
X026715Y003892D02*
X027071Y003892D01*
X027367Y003892D02*
X027447Y003892D01*
X027447Y004011D02*
X027367Y004011D01*
X027367Y004129D02*
X027447Y004129D01*
X027447Y004248D02*
X027367Y004248D01*
X027367Y004366D02*
X027447Y004366D01*
X027447Y004485D02*
X027367Y004485D01*
X027367Y004603D02*
X027447Y004603D01*
X027642Y004603D02*
X027713Y004603D01*
X027713Y005433D02*
X026105Y005433D01*
X026223Y005551D02*
X027713Y005551D01*
X027713Y005670D02*
X026315Y005670D01*
X026364Y005788D02*
X027713Y005788D01*
X027713Y005907D02*
X026413Y005907D01*
X026435Y006025D02*
X027713Y006025D01*
X027713Y006144D02*
X026435Y006144D01*
X026435Y006262D02*
X027713Y006262D01*
X027713Y006381D02*
X026410Y006381D01*
X026361Y006499D02*
X027713Y006499D01*
X027713Y006618D02*
X026312Y006618D01*
X026215Y006736D02*
X027713Y006736D01*
X027713Y006855D02*
X026096Y006855D01*
X025890Y006973D02*
X027713Y006973D01*
X026915Y001878D02*
X026795Y001878D01*
X026795Y001759D02*
X026915Y001759D01*
X026915Y001641D02*
X026795Y001641D01*
X027924Y000574D02*
X028265Y000574D01*
X028265Y000456D02*
X027785Y000456D01*
X028065Y000693D02*
X028265Y000693D01*
X028265Y000811D02*
X028208Y000811D01*
X011983Y013372D02*
X011874Y013372D01*
X011864Y013254D02*
X011809Y013254D01*
X011359Y013609D02*
X010422Y013609D01*
X010543Y012780D02*
X010984Y012780D01*
X010984Y012661D02*
X010641Y012661D01*
X010738Y012543D02*
X011019Y012543D01*
X008616Y015861D02*
X004886Y015861D01*
X004720Y021312D02*
X005165Y021312D01*
X004958Y021430D02*
X004757Y021430D01*
X004757Y021549D02*
X004839Y021549D01*
X003263Y022260D02*
X000951Y022260D01*
X000951Y022378D02*
X003197Y022378D01*
X003167Y022497D02*
X000951Y022497D01*
X000951Y022615D02*
X003167Y022615D01*
X003211Y022734D02*
X000951Y022734D01*
X000951Y022852D02*
X003298Y022852D01*
X003376Y022971D02*
X000951Y022971D01*
X000951Y023089D02*
X003376Y023089D01*
X003376Y023208D02*
X000951Y023208D01*
X000951Y023326D02*
X003376Y023326D01*
X003376Y023445D02*
X000951Y023445D01*
X000951Y023563D02*
X003376Y023563D01*
X003376Y023682D02*
X000951Y023682D01*
X000951Y023800D02*
X003376Y023800D01*
X003376Y023919D02*
X000951Y023919D01*
X000951Y024037D02*
X003376Y024037D01*
X003376Y024156D02*
X000951Y024156D01*
X000951Y024274D02*
X003424Y024274D01*
X003543Y024393D02*
X000951Y024393D01*
X001010Y024511D02*
X003661Y024511D01*
X003780Y024630D02*
X001129Y024630D01*
X001247Y024748D02*
X003898Y024748D01*
X005891Y023089D02*
X006079Y023089D01*
X006468Y022497D02*
X006496Y022497D01*
X008057Y022301D02*
X008057Y021689D01*
X008057Y022301D02*
X008179Y022423D01*
X007814Y024156D02*
X009456Y024156D01*
X009653Y024511D02*
X012111Y024511D01*
X012111Y024393D02*
X011476Y024393D01*
X011548Y024274D02*
X012111Y024274D01*
X012111Y024156D02*
X011548Y024156D01*
X010944Y024393D02*
X009798Y024393D01*
X009943Y024274D02*
X010872Y024274D01*
X011787Y024985D02*
X009594Y024985D01*
X009634Y024867D02*
X011905Y024867D01*
X012024Y024748D02*
X009634Y024748D01*
X009634Y024630D02*
X012111Y024630D01*
X012517Y025104D02*
X028242Y025104D01*
X028242Y025222D02*
X012398Y025222D01*
X012280Y025341D02*
X028242Y025341D01*
X028242Y025459D02*
X012161Y025459D01*
X012098Y025522D02*
X012098Y025522D01*
X012043Y025578D02*
X028242Y025578D01*
D38*
X022537Y024285D02*
X022372Y024285D01*
X022222Y024435D01*
X022391Y024431D02*
X022537Y024285D01*
X022391Y024431D02*
X019671Y024431D01*
X019667Y024427D01*
X017801Y024427D01*
X017311Y023937D01*
X017311Y022624D01*
X016811Y022624D02*
X016811Y023767D01*
X016222Y024356D01*
X016006Y024356D01*
X015931Y024431D01*
X013486Y024431D01*
X013486Y023683D02*
X013490Y023679D01*
X013490Y022919D01*
X008954Y015742D02*
X008876Y015596D01*
X006773Y015596D01*
X006517Y015340D01*
X006517Y014596D01*
X006362Y014441D01*
X005730Y014441D01*
X005704Y014415D01*
X004124Y014415D01*
X004143Y014990D02*
X005681Y014990D01*
X005730Y014941D01*
X006714Y014242D02*
X006714Y012553D01*
X006380Y012218D01*
X004222Y012218D01*
X004143Y012218D01*
X003631Y013521D02*
X003702Y013592D01*
X004313Y010765D02*
X004450Y010765D01*
X004933Y010283D01*
X006057Y010283D01*
X009679Y010283D01*
X009679Y009783D01*
X009679Y010783D02*
X009689Y010793D01*
X010698Y010793D01*
X009679Y011283D02*
X009679Y011954D01*
X009057Y012576D01*
X009057Y012832D01*
X009563Y013452D02*
X009777Y013710D01*
X009777Y015478D01*
X009639Y015616D01*
X009305Y015002D02*
X009206Y014950D01*
X009206Y014596D01*
X008551Y013941D01*
X007982Y013941D01*
X007929Y013994D01*
X007218Y013994D01*
X007049Y013824D01*
X007049Y011191D01*
X006641Y010783D01*
X006057Y010783D01*
X006057Y009783D02*
X006106Y009734D01*
X006935Y009734D01*
X006057Y009783D02*
X004421Y009783D01*
X004250Y009954D01*
X007777Y013441D02*
X009563Y013452D01*
X010935Y014616D02*
X010994Y014557D01*
X011836Y014557D01*
X012145Y014248D01*
X012643Y014248D01*
X016643Y011748D02*
X017313Y011748D01*
X017313Y011754D01*
X016643Y009748D02*
X015799Y009748D01*
X015588Y009537D01*
X015588Y007883D01*
X015474Y007769D01*
X016261Y005789D02*
X016261Y005246D01*
X016246Y005230D01*
X016549Y005230D01*
X016895Y004883D01*
X017616Y004883D01*
X017750Y005017D01*
X017750Y005724D01*
X017767Y005742D01*
X017765Y005744D01*
X017765Y006285D01*
X017919Y006439D01*
X021053Y006439D01*
X021196Y006582D01*
X021234Y006620D01*
X021234Y008340D01*
X021521Y008628D01*
X023025Y008628D01*
X023939Y008628D01*
X024163Y008403D01*
X024163Y006427D01*
X024612Y005978D01*
X024612Y005482D01*
X024943Y005151D01*
X025490Y005151D01*
X026088Y005033D01*
X026088Y004332D01*
X026407Y004206D01*
X025407Y004206D02*
X025289Y004616D01*
X024608Y005084D01*
X024356Y005100D01*
X024340Y005084D01*
X023982Y005084D01*
X023053Y004155D01*
X019246Y004155D01*
X018529Y004935D01*
X018267Y005196D01*
X018261Y005191D01*
X018261Y004836D01*
X017943Y004517D01*
X016002Y004517D01*
X016246Y004482D01*
X016470Y004502D01*
X016470Y004092D01*
X016226Y003982D01*
X015454Y003982D01*
X014600Y002998D02*
X014600Y002928D01*
X012832Y005006D02*
X012506Y005332D01*
X011663Y005332D01*
X010915Y005332D02*
X010876Y005372D01*
X010391Y005372D01*
X009600Y006163D01*
X009600Y007017D01*
X008600Y007017D02*
X008600Y005675D01*
X008817Y005458D01*
X007982Y013941D02*
X007777Y013941D01*
X007777Y014441D02*
X006913Y014441D01*
X006714Y014242D01*
X007777Y014441D02*
X007777Y014941D01*
X018267Y005742D02*
X018267Y005196D01*
X022017Y008128D02*
X023328Y008128D01*
X023616Y007840D01*
X023616Y006289D01*
X023848Y006057D01*
X024061Y006057D01*
X024356Y005761D01*
X024356Y005100D01*
X021813Y012151D02*
X021104Y012151D01*
X021813Y012151D02*
X021817Y012155D01*
X021155Y013376D02*
X025990Y013376D01*
X026407Y013793D01*
X026407Y014561D01*
X026439Y014592D01*
X026082Y017376D02*
X025572Y017376D01*
X026082Y017376D02*
X026669Y017962D01*
X022844Y018935D02*
X022679Y018935D01*
X022608Y019006D01*
X022773Y019006D01*
X022844Y018935D01*
X022608Y019006D02*
X021383Y019006D01*
X021380Y019002D01*
X021311Y019002D01*
X022608Y018257D02*
X022620Y017643D01*
X022631Y017639D01*
X022305Y022872D02*
X022305Y023604D01*
X022222Y023687D01*
D39*
X019698Y014419D02*
X019698Y014025D01*
X019116Y013443D01*
X018155Y013443D01*
X018100Y013498D01*
X017844Y013498D01*
X017620Y013722D01*
X016669Y013722D01*
X016643Y013748D01*
X016645Y013250D02*
X016643Y013248D01*
X016645Y013250D02*
X017435Y013250D01*
X017809Y012876D01*
X017809Y011561D01*
X018057Y011312D01*
X018294Y011312D01*
X018927Y010679D01*
X019698Y010679D01*
X018179Y010100D02*
X019679Y008600D01*
X018179Y010100D02*
X017718Y010561D01*
X018294Y012060D02*
X019277Y012060D01*
X019533Y012238D01*
X018306Y012072D02*
X018294Y012060D01*
X018306Y012072D02*
X018306Y012718D01*
X018306Y013466D02*
X018274Y013498D01*
X018100Y013498D01*
X012643Y013748D02*
X011527Y013748D01*
X011419Y013639D01*
X010883Y013639D01*
X010726Y013702D01*
X013704Y001422D02*
X013698Y001259D01*
X024965Y002004D02*
X025001Y002050D01*
D40*
X014710Y002438D03*
D41*
X000927Y000572D03*
X002242Y001789D03*
X002242Y003576D03*
X002202Y005128D03*
X002616Y009128D03*
X006218Y011820D03*
X005399Y012809D03*
X004124Y014415D03*
X004143Y014990D03*
X007773Y012061D03*
X009057Y012832D03*
X010726Y013702D03*
X010935Y014616D03*
X011950Y015580D03*
X013340Y016088D03*
X013009Y016856D03*
X013608Y015246D03*
X015537Y018159D03*
X016750Y017340D03*
X017250Y017340D03*
X017757Y017344D03*
X018108Y016702D03*
X017659Y015761D03*
X018387Y015683D03*
X018360Y014730D03*
X017277Y012754D03*
X017273Y012250D03*
X017313Y011754D03*
X017336Y011218D03*
X015950Y011907D03*
X015254Y011238D03*
X015824Y010761D03*
X015805Y010214D03*
X013824Y010820D03*
X013368Y009533D03*
X011998Y010273D03*
X011994Y011163D03*
X010698Y010793D03*
X006935Y009734D03*
X007293Y005970D03*
X008817Y005458D03*
X012368Y003647D03*
X012832Y005006D03*
X015454Y003982D03*
X016261Y005789D03*
X015474Y007769D03*
X016651Y008143D03*
X018281Y006978D03*
X019167Y005706D03*
X019824Y007069D03*
X018687Y008647D03*
X018958Y011281D03*
X019533Y012238D03*
X021155Y013376D03*
X023147Y015809D03*
X022631Y017639D03*
X024687Y018746D03*
X025572Y017376D03*
X026470Y021391D03*
X022305Y022872D03*
X020848Y023588D03*
X020332Y023580D03*
X019801Y023588D03*
X018317Y023592D03*
X015805Y023513D03*
X014332Y023769D03*
X013490Y022919D03*
X013757Y020691D03*
X012891Y019604D03*
X013950Y018939D03*
X013939Y018368D03*
X017757Y018002D03*
X019777Y017045D03*
X019848Y018100D03*
X027305Y011978D03*
X022167Y002411D03*
X009305Y015002D03*
X009639Y015616D03*
X008954Y015742D03*
X009513Y021820D03*
X008179Y022423D03*
X011210Y024065D03*
M02*
