%
M48
M72
T01C0.0236
T02C0.0276
T03C0.0320
T04C0.0354
T05C0.0394
T06C0.0400
T07C0.0590
T08C0.0650
T09C0.1299
T10C0.1400
%
T01
X926Y1010
X5445Y3912
X5473Y2506
X6433Y6018
X7918Y6991
X9382Y6782
X9977Y7211
X9555Y7959
X10351Y8947
X9213Y9605
X8268Y10353
X8634Y10869
X8508Y12199
X8843Y13274
X7764Y13416
X6847Y13632
X5839Y12522
X6118Y11877
X6611Y11837
X5945Y11148
X6016Y10022
X4906Y9022
X7977Y9290
X4906Y12140
X5174Y13077
X4181Y14916
X3465Y15869
X2926Y14908
X4666Y16361
X4410Y16880
X3717Y19806
X8445Y22983
X9536Y22274
X11209Y24503
X13489Y23357
X14331Y24207
X15803Y23951
X18315Y24030
X19800Y24026
X20331Y24018
X20847Y24026
X22303Y23310
X26469Y21829
X19847Y18538
X20059Y17837
X19386Y17900
X19264Y16451
X16985Y16617
X15851Y15361
X15973Y14660
X15370Y14566
X14237Y14569
X14146Y15266
X12638Y16589
X12296Y17093
X13524Y17597
X13937Y18211
X13937Y18806
X13949Y19377
X12890Y20042
X13756Y21129
X12803Y18609
X15244Y18652
X10217Y16613
X8532Y15026
X7181Y14940
X10390Y13684
X11764Y13794
X13343Y12943
X14040Y13089
X14548Y12258
X14811Y11833
X14807Y11337
X15922Y11180
X16351Y11392
X15906Y12085
X16331Y12703
X15552Y13388
X13441Y12148
X12863Y12211
X13024Y10880
X11819Y10317
X11607Y9751
X12847Y9660
X12855Y9097
X13229Y8629
X13737Y9085
X13500Y9479
X14040Y9471
X14823Y8380
X15520Y8369
X16811Y9896
X16075Y10566
X18288Y9073
X18674Y10640
X18654Y11400
X20244Y13562
X21414Y12030
X23681Y8680
X24508Y7101
X25288Y5424
X22166Y2849
X19166Y6144
X19823Y7506
X18280Y7416
X16260Y6227
X15453Y4420
X12831Y5443
X12366Y4085
X13536Y7995
X26115Y13928
X27957Y15010
X1146Y12424
T02
X14709Y2876
T03
X11725Y15058
X11725Y16058
X9055Y18627
X8055Y19127
X9055Y19627
X8055Y20127
X9055Y20627
X8055Y21127
X8055Y22127
X9055Y21627
X3605Y22977
X3605Y21977
X3605Y18777
X3605Y17777
T04
X23024Y7069
X23020Y8066
X23024Y9066
X23024Y10058
X22008Y10562
X22008Y9546
X22016Y8566
X22024Y7573
T05
X6142Y7440
X7142Y7440
X19441Y15404
X19441Y14404
X19441Y13404
X19441Y12404
X23366Y15940
X24366Y15940
T06
X27272Y4396
X26272Y4396
X25272Y4396
X24272Y4396
X26668Y16620
X26668Y18400
X3394Y10483
X2394Y10483
X2394Y9483
X3394Y9483
X3394Y8483
X2394Y8483
X2394Y7483
X3394Y7483
X3394Y6483
X2394Y6483
X2567Y3751
X1567Y3751
X3567Y3751
X3544Y1825
X2544Y1825
X1544Y1825
T07
X25688Y18890
X25688Y16130
T08
X6705Y17227
X6705Y23527
T09
X25524Y11066
X25524Y6577
T10
X5555Y18127
X5555Y22627
M30
