G75*
%MOIN*%
%OFA0B0*%
%FSLAX24Y24*%
%IPPOS*%
%LPD*%
%AMOC8*
5,1,8,0,0,1.08239X$1,22.5*
%
%ADD10C,0.0060*%
%ADD11C,0.0030*%
%ADD12C,0.0000*%
%ADD13C,0.0320*%
%ADD14C,0.0040*%
%ADD15C,0.0020*%
%ADD16C,0.0050*%
%ADD17C,0.0080*%
%ADD18C,0.0250*%
%ADD19R,0.0660X0.0380*%
%ADD20C,0.0100*%
%ADD21R,0.0059X0.0118*%
%ADD22R,0.0118X0.0118*%
%ADD23R,0.0118X0.0059*%
%ADD24R,0.0080X0.0010*%
%ADD25R,0.0100X0.0010*%
%ADD26R,0.0140X0.0010*%
%ADD27R,0.0170X0.0010*%
%ADD28R,0.0150X0.0010*%
%ADD29R,0.0200X0.0010*%
%ADD30R,0.0220X0.0010*%
%ADD31R,0.0250X0.0010*%
%ADD32R,0.0300X0.0010*%
%ADD33R,0.0280X0.0010*%
%ADD34R,0.0330X0.0010*%
%ADD35R,0.0340X0.0010*%
%ADD36R,0.0180X0.0010*%
%ADD37R,0.0320X0.0010*%
%ADD38R,0.0360X0.0010*%
%ADD39R,0.0380X0.0010*%
%ADD40R,0.0390X0.0010*%
%ADD41R,0.0400X0.0010*%
%ADD42R,0.0410X0.0010*%
%ADD43R,0.0160X0.0010*%
%ADD44R,0.0130X0.0010*%
%ADD45R,0.0050X0.0010*%
%ADD46R,0.0350X0.0010*%
%ADD47R,0.0470X0.0010*%
%ADD48R,0.0370X0.0010*%
%ADD49R,0.0270X0.0010*%
%ADD50R,0.0460X0.0010*%
%ADD51R,0.0310X0.0010*%
%ADD52R,0.0430X0.0010*%
%ADD53R,0.0290X0.0010*%
%ADD54R,0.0260X0.0010*%
%ADD55R,0.0230X0.0010*%
%ADD56R,0.0240X0.0010*%
%ADD57R,0.0210X0.0010*%
%ADD58R,0.0040X0.0010*%
%ADD59R,0.0440X0.0010*%
%ADD60R,0.0420X0.0010*%
%ADD61R,0.0010X0.0010*%
%ADD62R,0.0030X0.0010*%
%ADD63R,0.0060X0.0010*%
%ADD64R,0.0070X0.0010*%
%ADD65R,0.0090X0.0010*%
%ADD66R,0.0110X0.0010*%
%ADD67R,0.0190X0.0010*%
%ADD68R,0.0450X0.0010*%
%ADD69R,0.0490X0.0010*%
%ADD70R,0.0500X0.0010*%
%ADD71R,0.0520X0.0010*%
%ADD72R,0.0540X0.0010*%
%ADD73R,0.0560X0.0010*%
%ADD74R,0.0570X0.0010*%
%ADD75R,0.0590X0.0010*%
%ADD76R,0.0620X0.0010*%
%ADD77R,0.0630X0.0010*%
%ADD78R,0.0650X0.0010*%
%ADD79R,0.0670X0.0010*%
%ADD80R,0.0690X0.0010*%
%ADD81R,0.0710X0.0010*%
%ADD82R,0.0730X0.0010*%
%ADD83R,0.0750X0.0010*%
%ADD84R,0.0770X0.0010*%
%ADD85R,0.0790X0.0010*%
%ADD86R,0.0810X0.0010*%
%ADD87R,0.0830X0.0010*%
%ADD88R,0.0850X0.0010*%
%ADD89R,0.0870X0.0010*%
%ADD90R,0.0890X0.0010*%
%ADD91R,0.0920X0.0010*%
%ADD92R,0.0510X0.0010*%
%ADD93R,0.0530X0.0010*%
%ADD94R,0.0550X0.0010*%
%ADD95R,0.0580X0.0010*%
%ADD96R,0.0600X0.0010*%
%ADD97R,0.0610X0.0010*%
%ADD98R,0.0640X0.0010*%
%ADD99R,0.0660X0.0010*%
%ADD100R,0.0680X0.0010*%
%ADD101R,0.0700X0.0010*%
%ADD102R,0.0720X0.0010*%
%ADD103R,0.0480X0.0010*%
%ADD104R,0.0740X0.0010*%
%ADD105R,0.0120X0.0010*%
%ADD106R,0.0020X0.0010*%
%ADD107R,0.0760X0.0010*%
%ADD108R,0.0780X0.0010*%
D10*
X010474Y006752D02*
X010474Y007252D01*
X010724Y007502D01*
X011224Y007502D01*
X011474Y007252D01*
X011724Y007502D01*
X012224Y007502D01*
X012474Y007252D01*
X012724Y007502D01*
X013224Y007502D01*
X013474Y007252D01*
X013724Y007502D01*
X014224Y007502D01*
X014474Y007252D01*
X014724Y007502D01*
X015224Y007502D01*
X015474Y007252D01*
X015724Y007502D01*
X016224Y007502D01*
X016474Y007252D01*
X016474Y006752D01*
X016224Y006502D01*
X015724Y006502D01*
X015474Y006752D01*
X015224Y006502D01*
X014724Y006502D01*
X014474Y006752D01*
X014224Y006502D01*
X013724Y006502D01*
X013474Y006752D01*
X013224Y006502D01*
X012724Y006502D01*
X012474Y006752D01*
X012224Y006502D01*
X011724Y006502D01*
X011474Y006752D01*
X011224Y006502D01*
X010724Y006502D01*
X010474Y006752D01*
X015553Y005416D02*
X015553Y005196D01*
X015553Y005416D02*
X015873Y005416D01*
X015553Y004516D02*
X015553Y004296D01*
X015873Y004296D01*
X023907Y004456D02*
X023907Y003956D01*
X024157Y003706D01*
X024657Y003706D01*
X024907Y003956D01*
X025157Y003706D01*
X025657Y003706D01*
X025907Y003956D01*
X026157Y003706D01*
X026657Y003706D01*
X026907Y003956D01*
X027157Y003706D01*
X027657Y003706D01*
X027907Y003956D01*
X027907Y004456D01*
X027657Y004706D01*
X027157Y004706D01*
X026907Y004456D01*
X026657Y004706D01*
X026157Y004706D01*
X025907Y004456D01*
X025657Y004706D01*
X025157Y004706D01*
X024907Y004456D01*
X024657Y004706D01*
X024157Y004706D01*
X023907Y004456D01*
X026179Y015622D02*
X027579Y015622D01*
X027579Y018072D01*
X027679Y018072D01*
X027679Y017572D01*
X027829Y017572D01*
X027829Y016572D01*
X027679Y016572D01*
X027679Y017572D01*
X027479Y017322D02*
X027479Y018422D01*
X026979Y018422D01*
X026379Y018422D02*
X026179Y018422D01*
X026179Y018122D01*
X026079Y018122D01*
X026079Y017772D01*
X026179Y017772D01*
X026179Y017372D01*
X026279Y017372D01*
X026279Y016772D01*
X026179Y016772D01*
X026179Y016322D01*
X026079Y016322D01*
X026079Y016022D01*
X026179Y016022D01*
X026179Y015722D01*
X026379Y015722D01*
X026979Y015722D02*
X027479Y015722D01*
X027479Y016822D01*
X027479Y017322D01*
X027079Y017322D01*
X027079Y016822D01*
X027479Y016822D01*
X027679Y016572D02*
X027679Y016072D01*
X027579Y016072D01*
X027579Y018072D02*
X027579Y018522D01*
X026179Y018522D01*
X010820Y025061D02*
X010713Y025168D01*
X010713Y025595D01*
X010606Y025488D02*
X010820Y025488D01*
X010389Y025382D02*
X010389Y025275D01*
X009962Y025275D01*
X009962Y025168D02*
X009962Y025382D01*
X010068Y025488D01*
X010282Y025488D01*
X010389Y025382D01*
X010282Y025061D02*
X010068Y025061D01*
X009962Y025168D01*
X009744Y025061D02*
X009744Y025382D01*
X009637Y025488D01*
X009317Y025488D01*
X009317Y025061D01*
X009100Y025488D02*
X008993Y025488D01*
X008780Y025275D01*
X008780Y025488D02*
X008780Y025061D01*
X008562Y025275D02*
X008562Y025382D01*
X008456Y025488D01*
X008242Y025488D01*
X008135Y025382D01*
X008135Y025168D01*
X008242Y025061D01*
X008456Y025061D01*
X008562Y025275D02*
X008135Y025275D01*
X007918Y025382D02*
X007918Y025061D01*
X007918Y025382D02*
X007811Y025488D01*
X007598Y025488D01*
X007491Y025382D01*
X007275Y025488D02*
X007061Y025488D01*
X007168Y025595D02*
X007168Y025168D01*
X007275Y025061D01*
X007491Y025061D02*
X007491Y025702D01*
X006844Y025702D02*
X006417Y025702D01*
X006417Y025061D01*
X006844Y025061D01*
X006630Y025382D02*
X006417Y025382D01*
X005556Y025488D02*
X005342Y025488D01*
X005449Y025595D02*
X005449Y025168D01*
X005556Y025061D01*
X005125Y025488D02*
X005019Y025488D01*
X004805Y025275D01*
X004805Y025488D02*
X004805Y025061D01*
X004588Y025061D02*
X004588Y025488D01*
X004588Y025061D02*
X004267Y025061D01*
X004161Y025168D01*
X004161Y025488D01*
X003944Y025382D02*
X003731Y025382D01*
X003838Y025595D02*
X003838Y025061D01*
X003514Y025061D02*
X003194Y025275D01*
X003514Y025488D01*
X003838Y025595D02*
X003944Y025702D01*
X003194Y025702D02*
X003194Y025061D01*
X002976Y025061D02*
X002976Y025382D01*
X002870Y025488D01*
X002549Y025488D01*
X002549Y025061D01*
X002332Y025061D02*
X002012Y025061D01*
X001905Y025168D01*
X002012Y025275D01*
X002332Y025275D01*
X002332Y025382D02*
X002332Y025061D01*
X002332Y025382D02*
X002225Y025488D01*
X002012Y025488D01*
X001688Y025488D02*
X001581Y025488D01*
X001368Y025275D01*
X001368Y025488D02*
X001368Y025061D01*
X000937Y025382D02*
X000723Y025382D01*
X000723Y025702D02*
X000723Y025061D01*
X000723Y025702D02*
X001150Y025702D01*
D11*
X001190Y024690D02*
X001128Y024628D01*
X001128Y024505D01*
X001190Y024443D01*
X001313Y024443D01*
X001375Y024566D02*
X001128Y024566D01*
X001190Y024690D02*
X001313Y024690D01*
X001375Y024628D01*
X001375Y024566D01*
X001497Y024690D02*
X001620Y024443D01*
X001743Y024690D01*
X002233Y024690D02*
X002233Y024443D01*
X002233Y024628D02*
X002480Y024628D01*
X002480Y024690D02*
X002480Y024443D01*
X002480Y024690D02*
X002357Y024813D01*
X002233Y024690D01*
X002203Y024087D02*
X002203Y023840D01*
X002082Y023840D02*
X001896Y023840D01*
X001835Y023902D01*
X001835Y024025D01*
X001896Y024087D01*
X002082Y024087D01*
X002082Y023778D01*
X002020Y023717D01*
X001958Y023717D01*
X001712Y023840D02*
X001651Y023840D01*
X001651Y023902D01*
X001712Y023902D01*
X001712Y023840D01*
X001529Y023902D02*
X001529Y024087D01*
X001529Y023902D02*
X001467Y023840D01*
X001406Y023902D01*
X001344Y023840D01*
X001282Y023902D01*
X001282Y024087D01*
X001161Y024087D02*
X001161Y023902D01*
X001099Y023840D01*
X001037Y023902D01*
X000976Y023840D01*
X000914Y023902D01*
X000914Y024087D01*
X000792Y024087D02*
X000792Y023902D01*
X000731Y023840D01*
X000669Y023902D01*
X000607Y023840D01*
X000546Y023902D01*
X000546Y024087D01*
X000821Y024443D02*
X000821Y024690D01*
X000821Y024566D02*
X000945Y024690D01*
X001006Y024690D01*
X002203Y023964D02*
X002326Y024087D01*
X002388Y024087D01*
X002510Y024025D02*
X002510Y023902D01*
X002572Y023840D01*
X002695Y023840D01*
X002757Y023902D01*
X002757Y024025D01*
X002695Y024087D01*
X002572Y024087D01*
X002510Y024025D01*
X002878Y024025D02*
X002878Y023902D01*
X002940Y023840D01*
X003125Y023840D01*
X003125Y024211D01*
X003125Y024087D02*
X002940Y024087D01*
X002878Y024025D01*
X003247Y023902D02*
X003308Y023964D01*
X003493Y023964D01*
X003493Y024025D02*
X003493Y023840D01*
X003308Y023840D01*
X003247Y023902D01*
X003308Y024087D02*
X003432Y024087D01*
X003493Y024025D01*
X003615Y024087D02*
X003800Y024087D01*
X003862Y024025D01*
X003862Y023840D01*
X003983Y023840D02*
X004168Y023840D01*
X004230Y023902D01*
X004168Y023964D01*
X004045Y023964D01*
X003983Y024025D01*
X004045Y024087D01*
X004230Y024087D01*
X004352Y024087D02*
X004537Y024087D01*
X004598Y024025D01*
X004598Y023902D01*
X004537Y023840D01*
X004352Y023840D01*
X004352Y023717D02*
X004352Y024087D01*
X004720Y023902D02*
X004782Y023964D01*
X004967Y023964D01*
X004967Y024025D02*
X004967Y023840D01*
X004782Y023840D01*
X004720Y023902D01*
X004782Y024087D02*
X004905Y024087D01*
X004967Y024025D01*
X005088Y023964D02*
X005212Y024087D01*
X005273Y024087D01*
X005457Y024087D02*
X005580Y024087D01*
X005642Y024025D01*
X005642Y023840D01*
X005457Y023840D01*
X005395Y023902D01*
X005457Y023964D01*
X005642Y023964D01*
X005763Y024025D02*
X005825Y024087D01*
X006010Y024087D01*
X006132Y024087D02*
X006193Y024087D01*
X006193Y023840D01*
X006132Y023840D02*
X006255Y023840D01*
X006377Y023840D02*
X006562Y023840D01*
X006624Y023902D01*
X006562Y023964D01*
X006439Y023964D01*
X006377Y024025D01*
X006439Y024087D01*
X006624Y024087D01*
X006746Y023902D02*
X006807Y023902D01*
X006807Y023840D01*
X006746Y023840D01*
X006746Y023902D01*
X006930Y023902D02*
X006930Y024025D01*
X006991Y024087D01*
X007177Y024087D01*
X007298Y024025D02*
X007298Y023902D01*
X007360Y023840D01*
X007483Y023840D01*
X007545Y023902D01*
X007545Y024025D01*
X007483Y024087D01*
X007360Y024087D01*
X007298Y024025D01*
X007177Y023840D02*
X006991Y023840D01*
X006930Y023902D01*
X007666Y023840D02*
X007666Y024087D01*
X007728Y024087D01*
X007790Y024025D01*
X007852Y024087D01*
X007913Y024025D01*
X007913Y023840D01*
X007790Y023840D02*
X007790Y024025D01*
X006193Y024211D02*
X006193Y024272D01*
X006010Y024211D02*
X006010Y023840D01*
X005825Y023840D01*
X005763Y023902D01*
X005763Y024025D01*
X005088Y024087D02*
X005088Y023840D01*
X003615Y023840D02*
X003615Y024087D01*
X020774Y008254D02*
X020835Y008315D01*
X020959Y008315D01*
X021021Y008254D01*
X021021Y008069D01*
X021021Y008192D02*
X021144Y008315D01*
X021144Y008069D02*
X020774Y008069D01*
X020774Y008254D01*
X020774Y007947D02*
X020774Y007700D01*
X021144Y007700D01*
X021144Y007947D01*
X020959Y007824D02*
X020959Y007700D01*
X021144Y007579D02*
X020774Y007579D01*
X020774Y007332D02*
X021144Y007332D01*
X021021Y007455D01*
X021144Y007579D01*
X021082Y007211D02*
X020835Y007211D01*
X020774Y007149D01*
X020774Y007025D01*
X020835Y006964D01*
X021082Y006964D01*
X021144Y007025D01*
X021144Y007149D01*
X021082Y007211D01*
X020959Y006842D02*
X020835Y006842D01*
X020774Y006780D01*
X020774Y006595D01*
X021144Y006595D01*
X021021Y006595D02*
X021021Y006780D01*
X020959Y006842D01*
X026490Y012544D02*
X026490Y012668D01*
X026490Y012606D02*
X026861Y012606D01*
X026861Y012544D02*
X026861Y012668D01*
X026861Y012790D02*
X026490Y012790D01*
X026861Y013037D01*
X026490Y013037D01*
X026490Y013158D02*
X026490Y013281D01*
X026490Y013220D02*
X026861Y013220D01*
X026861Y013281D02*
X026861Y013158D01*
X026861Y013527D02*
X026490Y013527D01*
X026490Y013404D02*
X026490Y013650D01*
X014094Y005272D02*
X014094Y005202D01*
X014059Y005167D01*
X014059Y005086D02*
X014094Y005051D01*
X014094Y004981D01*
X014059Y004946D01*
X013919Y004946D01*
X013884Y004981D01*
X013884Y005051D01*
X013919Y005086D01*
X013919Y005167D02*
X013884Y005202D01*
X013884Y005272D01*
X013919Y005307D01*
X013954Y005307D01*
X013989Y005272D01*
X014024Y005307D01*
X014059Y005307D01*
X014094Y005272D01*
X013989Y005272D02*
X013989Y005237D01*
D12*
X000179Y000100D02*
X028525Y000100D01*
X028502Y025887D01*
X000100Y025887D01*
X000179Y000100D01*
X004857Y017689D02*
X004859Y017741D01*
X004865Y017793D01*
X004875Y017845D01*
X004888Y017895D01*
X004905Y017945D01*
X004926Y017993D01*
X004951Y018039D01*
X004979Y018083D01*
X005010Y018125D01*
X005044Y018165D01*
X005081Y018202D01*
X005121Y018236D01*
X005163Y018267D01*
X005207Y018295D01*
X005253Y018320D01*
X005301Y018341D01*
X005351Y018358D01*
X005401Y018371D01*
X005453Y018381D01*
X005505Y018387D01*
X005557Y018389D01*
X005609Y018387D01*
X005661Y018381D01*
X005713Y018371D01*
X005763Y018358D01*
X005813Y018341D01*
X005861Y018320D01*
X005907Y018295D01*
X005951Y018267D01*
X005993Y018236D01*
X006033Y018202D01*
X006070Y018165D01*
X006104Y018125D01*
X006135Y018083D01*
X006163Y018039D01*
X006188Y017993D01*
X006209Y017945D01*
X006226Y017895D01*
X006239Y017845D01*
X006249Y017793D01*
X006255Y017741D01*
X006257Y017689D01*
X006255Y017637D01*
X006249Y017585D01*
X006239Y017533D01*
X006226Y017483D01*
X006209Y017433D01*
X006188Y017385D01*
X006163Y017339D01*
X006135Y017295D01*
X006104Y017253D01*
X006070Y017213D01*
X006033Y017176D01*
X005993Y017142D01*
X005951Y017111D01*
X005907Y017083D01*
X005861Y017058D01*
X005813Y017037D01*
X005763Y017020D01*
X005713Y017007D01*
X005661Y016997D01*
X005609Y016991D01*
X005557Y016989D01*
X005505Y016991D01*
X005453Y016997D01*
X005401Y017007D01*
X005351Y017020D01*
X005301Y017037D01*
X005253Y017058D01*
X005207Y017083D01*
X005163Y017111D01*
X005121Y017142D01*
X005081Y017176D01*
X005044Y017213D01*
X005010Y017253D01*
X004979Y017295D01*
X004951Y017339D01*
X004926Y017385D01*
X004905Y017433D01*
X004888Y017483D01*
X004875Y017533D01*
X004865Y017585D01*
X004859Y017637D01*
X004857Y017689D01*
X004857Y022189D02*
X004859Y022241D01*
X004865Y022293D01*
X004875Y022345D01*
X004888Y022395D01*
X004905Y022445D01*
X004926Y022493D01*
X004951Y022539D01*
X004979Y022583D01*
X005010Y022625D01*
X005044Y022665D01*
X005081Y022702D01*
X005121Y022736D01*
X005163Y022767D01*
X005207Y022795D01*
X005253Y022820D01*
X005301Y022841D01*
X005351Y022858D01*
X005401Y022871D01*
X005453Y022881D01*
X005505Y022887D01*
X005557Y022889D01*
X005609Y022887D01*
X005661Y022881D01*
X005713Y022871D01*
X005763Y022858D01*
X005813Y022841D01*
X005861Y022820D01*
X005907Y022795D01*
X005951Y022767D01*
X005993Y022736D01*
X006033Y022702D01*
X006070Y022665D01*
X006104Y022625D01*
X006135Y022583D01*
X006163Y022539D01*
X006188Y022493D01*
X006209Y022445D01*
X006226Y022395D01*
X006239Y022345D01*
X006249Y022293D01*
X006255Y022241D01*
X006257Y022189D01*
X006255Y022137D01*
X006249Y022085D01*
X006239Y022033D01*
X006226Y021983D01*
X006209Y021933D01*
X006188Y021885D01*
X006163Y021839D01*
X006135Y021795D01*
X006104Y021753D01*
X006070Y021713D01*
X006033Y021676D01*
X005993Y021642D01*
X005951Y021611D01*
X005907Y021583D01*
X005861Y021558D01*
X005813Y021537D01*
X005763Y021520D01*
X005713Y021507D01*
X005661Y021497D01*
X005609Y021491D01*
X005557Y021489D01*
X005505Y021491D01*
X005453Y021497D01*
X005401Y021507D01*
X005351Y021520D01*
X005301Y021537D01*
X005253Y021558D01*
X005207Y021583D01*
X005163Y021611D01*
X005121Y021642D01*
X005081Y021676D01*
X005044Y021713D01*
X005010Y021753D01*
X004979Y021795D01*
X004951Y021839D01*
X004926Y021885D01*
X004905Y021933D01*
X004888Y021983D01*
X004875Y022033D01*
X004865Y022085D01*
X004859Y022137D01*
X004857Y022189D01*
X024875Y010628D02*
X024877Y010678D01*
X024883Y010728D01*
X024893Y010778D01*
X024906Y010826D01*
X024923Y010874D01*
X024944Y010920D01*
X024968Y010964D01*
X024996Y011006D01*
X025027Y011046D01*
X025061Y011083D01*
X025098Y011118D01*
X025137Y011149D01*
X025178Y011178D01*
X025222Y011203D01*
X025268Y011225D01*
X025315Y011243D01*
X025363Y011257D01*
X025412Y011268D01*
X025462Y011275D01*
X025512Y011278D01*
X025563Y011277D01*
X025613Y011272D01*
X025663Y011263D01*
X025711Y011251D01*
X025759Y011234D01*
X025805Y011214D01*
X025850Y011191D01*
X025893Y011164D01*
X025933Y011134D01*
X025971Y011101D01*
X026006Y011065D01*
X026039Y011026D01*
X026068Y010985D01*
X026094Y010942D01*
X026117Y010897D01*
X026136Y010850D01*
X026151Y010802D01*
X026163Y010753D01*
X026171Y010703D01*
X026175Y010653D01*
X026175Y010603D01*
X026171Y010553D01*
X026163Y010503D01*
X026151Y010454D01*
X026136Y010406D01*
X026117Y010359D01*
X026094Y010314D01*
X026068Y010271D01*
X026039Y010230D01*
X026006Y010191D01*
X025971Y010155D01*
X025933Y010122D01*
X025893Y010092D01*
X025850Y010065D01*
X025805Y010042D01*
X025759Y010022D01*
X025711Y010005D01*
X025663Y009993D01*
X025613Y009984D01*
X025563Y009979D01*
X025512Y009978D01*
X025462Y009981D01*
X025412Y009988D01*
X025363Y009999D01*
X025315Y010013D01*
X025268Y010031D01*
X025222Y010053D01*
X025178Y010078D01*
X025137Y010107D01*
X025098Y010138D01*
X025061Y010173D01*
X025027Y010210D01*
X024996Y010250D01*
X024968Y010292D01*
X024944Y010336D01*
X024923Y010382D01*
X024906Y010430D01*
X024893Y010478D01*
X024883Y010528D01*
X024877Y010578D01*
X024875Y010628D01*
X024875Y006139D02*
X024877Y006189D01*
X024883Y006239D01*
X024893Y006289D01*
X024906Y006337D01*
X024923Y006385D01*
X024944Y006431D01*
X024968Y006475D01*
X024996Y006517D01*
X025027Y006557D01*
X025061Y006594D01*
X025098Y006629D01*
X025137Y006660D01*
X025178Y006689D01*
X025222Y006714D01*
X025268Y006736D01*
X025315Y006754D01*
X025363Y006768D01*
X025412Y006779D01*
X025462Y006786D01*
X025512Y006789D01*
X025563Y006788D01*
X025613Y006783D01*
X025663Y006774D01*
X025711Y006762D01*
X025759Y006745D01*
X025805Y006725D01*
X025850Y006702D01*
X025893Y006675D01*
X025933Y006645D01*
X025971Y006612D01*
X026006Y006576D01*
X026039Y006537D01*
X026068Y006496D01*
X026094Y006453D01*
X026117Y006408D01*
X026136Y006361D01*
X026151Y006313D01*
X026163Y006264D01*
X026171Y006214D01*
X026175Y006164D01*
X026175Y006114D01*
X026171Y006064D01*
X026163Y006014D01*
X026151Y005965D01*
X026136Y005917D01*
X026117Y005870D01*
X026094Y005825D01*
X026068Y005782D01*
X026039Y005741D01*
X026006Y005702D01*
X025971Y005666D01*
X025933Y005633D01*
X025893Y005603D01*
X025850Y005576D01*
X025805Y005553D01*
X025759Y005533D01*
X025711Y005516D01*
X025663Y005504D01*
X025613Y005495D01*
X025563Y005490D01*
X025512Y005489D01*
X025462Y005492D01*
X025412Y005499D01*
X025363Y005510D01*
X025315Y005524D01*
X025268Y005542D01*
X025222Y005564D01*
X025178Y005589D01*
X025137Y005618D01*
X025098Y005649D01*
X025061Y005684D01*
X025027Y005721D01*
X024996Y005761D01*
X024968Y005803D01*
X024944Y005847D01*
X024923Y005893D01*
X024906Y005941D01*
X024893Y005989D01*
X024883Y006039D01*
X024877Y006089D01*
X024875Y006139D01*
D13*
X014670Y019998D02*
X014672Y020012D01*
X014678Y020024D01*
X014687Y020034D01*
X014698Y020042D01*
X014711Y020046D01*
X014725Y020046D01*
X014738Y020042D01*
X014749Y020034D01*
X014758Y020024D01*
X014764Y020012D01*
X014766Y019998D01*
X014764Y019984D01*
X014758Y019972D01*
X014749Y019962D01*
X014738Y019954D01*
X014725Y019950D01*
X014711Y019950D01*
X014698Y019954D01*
X014687Y019962D01*
X014678Y019972D01*
X014672Y019984D01*
X014670Y019998D01*
D14*
X009642Y008882D02*
X009642Y008522D01*
X009402Y008522D02*
X009402Y008882D01*
X009522Y008762D01*
X009642Y008882D01*
X009274Y008822D02*
X009274Y008702D01*
X009214Y008642D01*
X009034Y008642D01*
X009154Y008642D02*
X009274Y008522D01*
X009034Y008522D02*
X009034Y008882D01*
X009214Y008882D01*
X009274Y008822D01*
X008906Y008882D02*
X008665Y008882D01*
X008665Y008522D01*
X008906Y008522D01*
X008786Y008702D02*
X008665Y008702D01*
X008537Y008882D02*
X008297Y008882D01*
X008417Y008882D02*
X008417Y008522D01*
X012418Y003484D02*
X013324Y003484D01*
X014072Y003484D02*
X014977Y003484D01*
X014977Y001594D01*
X014308Y000924D01*
X014072Y000924D01*
X013324Y000924D02*
X013087Y000924D01*
X012418Y001594D01*
X012418Y003484D01*
X013324Y003365D02*
X013260Y003343D01*
X013197Y003316D01*
X013135Y003286D01*
X013076Y003253D01*
X013018Y003217D01*
X012962Y003177D01*
X012909Y003134D01*
X012858Y003089D01*
X012810Y003041D01*
X012765Y002990D01*
X012722Y002936D01*
X012683Y002880D01*
X012646Y002823D01*
X012613Y002763D01*
X012584Y002701D01*
X012558Y002638D01*
X012535Y002574D01*
X012516Y002508D01*
X012501Y002441D01*
X012490Y002374D01*
X012482Y002306D01*
X012478Y002238D01*
X012478Y002170D01*
X012482Y002102D01*
X012490Y002034D01*
X012501Y001967D01*
X012516Y001900D01*
X012535Y001834D01*
X012558Y001770D01*
X012584Y001707D01*
X012613Y001645D01*
X012646Y001585D01*
X012683Y001528D01*
X012722Y001472D01*
X012765Y001418D01*
X012810Y001367D01*
X012858Y001319D01*
X012909Y001274D01*
X012962Y001231D01*
X013018Y001191D01*
X013076Y001155D01*
X013135Y001122D01*
X013197Y001092D01*
X013260Y001065D01*
X013324Y001043D01*
X014072Y001043D02*
X014136Y001065D01*
X014199Y001092D01*
X014261Y001122D01*
X014320Y001155D01*
X014378Y001191D01*
X014434Y001231D01*
X014487Y001274D01*
X014538Y001319D01*
X014586Y001367D01*
X014631Y001418D01*
X014674Y001472D01*
X014713Y001528D01*
X014750Y001585D01*
X014783Y001645D01*
X014812Y001707D01*
X014838Y001770D01*
X014861Y001834D01*
X014880Y001900D01*
X014895Y001967D01*
X014906Y002034D01*
X014914Y002102D01*
X014918Y002170D01*
X014918Y002238D01*
X014914Y002306D01*
X014906Y002374D01*
X014895Y002441D01*
X014880Y002508D01*
X014861Y002574D01*
X014838Y002638D01*
X014812Y002701D01*
X014783Y002763D01*
X014750Y002823D01*
X014713Y002880D01*
X014674Y002936D01*
X014631Y002990D01*
X014586Y003041D01*
X014538Y003089D01*
X014487Y003134D01*
X014434Y003177D01*
X014378Y003217D01*
X014320Y003253D01*
X014261Y003286D01*
X014199Y003316D01*
X014136Y003343D01*
X014072Y003365D01*
X015137Y008446D02*
X015204Y008446D01*
X015171Y008446D02*
X015171Y008646D01*
X015204Y008646D02*
X015137Y008646D01*
X015285Y008613D02*
X015285Y008480D01*
X015318Y008446D01*
X015385Y008446D01*
X015418Y008480D01*
X015506Y008446D02*
X015639Y008446D01*
X015572Y008446D02*
X015572Y008646D01*
X015506Y008580D01*
X015418Y008613D02*
X015385Y008646D01*
X015318Y008646D01*
X015285Y008613D01*
X024631Y002614D02*
X024631Y002378D01*
X024631Y002614D02*
X025300Y003283D01*
X027190Y003283D01*
X027190Y002378D01*
X027190Y001630D02*
X027190Y000724D01*
X025300Y000724D01*
X024631Y001394D01*
X024631Y001630D01*
X024749Y002378D02*
X024771Y002442D01*
X024798Y002505D01*
X024828Y002567D01*
X024861Y002626D01*
X024897Y002684D01*
X024937Y002740D01*
X024980Y002793D01*
X025025Y002844D01*
X025073Y002892D01*
X025124Y002937D01*
X025178Y002980D01*
X025234Y003019D01*
X025291Y003056D01*
X025351Y003089D01*
X025413Y003118D01*
X025476Y003144D01*
X025540Y003167D01*
X025606Y003186D01*
X025673Y003201D01*
X025740Y003212D01*
X025808Y003220D01*
X025876Y003224D01*
X025944Y003224D01*
X026012Y003220D01*
X026080Y003212D01*
X026147Y003201D01*
X026214Y003186D01*
X026280Y003167D01*
X026344Y003144D01*
X026407Y003118D01*
X026469Y003089D01*
X026529Y003056D01*
X026586Y003019D01*
X026642Y002980D01*
X026696Y002937D01*
X026747Y002892D01*
X026795Y002844D01*
X026840Y002793D01*
X026883Y002740D01*
X026923Y002684D01*
X026959Y002626D01*
X026992Y002567D01*
X027022Y002505D01*
X027049Y002442D01*
X027071Y002378D01*
X027071Y001630D02*
X027049Y001566D01*
X027022Y001503D01*
X026992Y001441D01*
X026959Y001382D01*
X026923Y001324D01*
X026883Y001268D01*
X026840Y001215D01*
X026795Y001164D01*
X026747Y001116D01*
X026696Y001071D01*
X026642Y001028D01*
X026586Y000989D01*
X026529Y000952D01*
X026469Y000919D01*
X026407Y000890D01*
X026344Y000864D01*
X026280Y000841D01*
X026214Y000822D01*
X026147Y000807D01*
X026080Y000796D01*
X026012Y000788D01*
X025944Y000784D01*
X025876Y000784D01*
X025808Y000788D01*
X025740Y000796D01*
X025673Y000807D01*
X025606Y000822D01*
X025540Y000841D01*
X025476Y000864D01*
X025413Y000890D01*
X025351Y000919D01*
X025291Y000952D01*
X025234Y000989D01*
X025178Y001028D01*
X025124Y001071D01*
X025073Y001116D01*
X025025Y001164D01*
X024980Y001215D01*
X024937Y001268D01*
X024897Y001324D01*
X024861Y001382D01*
X024828Y001441D01*
X024798Y001503D01*
X024771Y001566D01*
X024749Y001630D01*
D15*
X024581Y000961D02*
X024507Y000961D01*
X024470Y000924D01*
X024396Y000924D02*
X024360Y000961D01*
X024286Y000961D01*
X024249Y000924D01*
X024249Y000778D01*
X024286Y000741D01*
X024360Y000741D01*
X024396Y000778D01*
X024470Y000741D02*
X024617Y000888D01*
X024617Y000924D01*
X024581Y000961D01*
X024617Y000741D02*
X024470Y000741D01*
X024433Y003268D02*
X024433Y003488D01*
X024323Y003378D01*
X024470Y003378D01*
X024249Y003488D02*
X024176Y003488D01*
X024212Y003488D02*
X024212Y003305D01*
X024176Y003268D01*
X024139Y003268D01*
X024102Y003305D01*
X021279Y000836D02*
X021132Y000836D01*
X021205Y000836D02*
X021205Y001056D01*
X021132Y000982D01*
X021058Y000836D02*
X020911Y000836D01*
X020911Y001056D01*
X016396Y003963D02*
X016249Y003963D01*
X016396Y004109D01*
X016396Y004146D01*
X016359Y004183D01*
X016286Y004183D01*
X016249Y004146D01*
X016175Y004146D02*
X016138Y004183D01*
X016028Y004183D01*
X016028Y003963D01*
X016138Y003963D01*
X016175Y003999D01*
X016175Y004146D01*
X016548Y005427D02*
X016548Y005500D01*
X016548Y005464D02*
X016768Y005464D01*
X016768Y005500D02*
X016768Y005427D01*
X016732Y005574D02*
X016585Y005574D01*
X016548Y005611D01*
X016548Y005684D01*
X016585Y005721D01*
X016585Y005795D02*
X016548Y005832D01*
X016548Y005905D01*
X016585Y005942D01*
X016622Y005942D01*
X016658Y005905D01*
X016695Y005942D01*
X016732Y005942D01*
X016768Y005905D01*
X016768Y005832D01*
X016732Y005795D01*
X016732Y005721D02*
X016768Y005684D01*
X016768Y005611D01*
X016732Y005574D01*
X016658Y005869D02*
X016658Y005905D01*
X019297Y007968D02*
X019297Y008188D01*
X019407Y008188D01*
X019444Y008152D01*
X019444Y008078D01*
X019407Y008042D01*
X019297Y008042D01*
X019370Y008042D02*
X019444Y007968D01*
X019518Y007968D02*
X019665Y007968D01*
X019591Y007968D02*
X019591Y008188D01*
X019518Y008115D01*
X019739Y008115D02*
X019812Y008188D01*
X019812Y007968D01*
X019739Y007968D02*
X019886Y007968D01*
X018354Y008721D02*
X018207Y008721D01*
X018354Y008868D01*
X018354Y008904D01*
X018317Y008941D01*
X018244Y008941D01*
X018207Y008904D01*
X018133Y008904D02*
X018133Y008831D01*
X018096Y008794D01*
X017986Y008794D01*
X017986Y008721D02*
X017986Y008941D01*
X018096Y008941D01*
X018133Y008904D01*
X018060Y008794D02*
X018133Y008721D01*
X018320Y009362D02*
X018283Y009399D01*
X018283Y009472D01*
X018320Y009509D01*
X018467Y009509D01*
X018503Y009472D01*
X018503Y009399D01*
X018467Y009362D01*
X018320Y009362D01*
X018430Y009435D02*
X018503Y009509D01*
X018503Y009583D02*
X018503Y009730D01*
X018503Y009656D02*
X018283Y009656D01*
X018357Y009583D01*
X018322Y010611D02*
X018396Y010611D01*
X018432Y010648D01*
X018432Y010684D01*
X018396Y010721D01*
X018286Y010721D01*
X018286Y010648D01*
X018322Y010611D01*
X018286Y010721D02*
X018359Y010795D01*
X018432Y010831D01*
X018212Y010795D02*
X018175Y010831D01*
X018101Y010831D01*
X018065Y010795D01*
X018065Y010648D01*
X018101Y010611D01*
X018175Y010611D01*
X018212Y010648D01*
X020719Y011517D02*
X020756Y011480D01*
X020793Y011480D01*
X020829Y011517D01*
X020829Y011700D01*
X020793Y011700D02*
X020866Y011700D01*
X020940Y011664D02*
X020977Y011700D01*
X021050Y011700D01*
X021087Y011664D01*
X021087Y011627D01*
X020940Y011480D01*
X021087Y011480D01*
X022329Y012674D02*
X022366Y012638D01*
X022439Y012638D01*
X022476Y012674D01*
X022550Y012638D02*
X022697Y012638D01*
X022623Y012638D02*
X022623Y012858D01*
X022550Y012785D01*
X022476Y012821D02*
X022439Y012858D01*
X022366Y012858D01*
X022329Y012821D01*
X022329Y012674D01*
X022771Y012748D02*
X022918Y012748D01*
X022881Y012858D02*
X022771Y012748D01*
X022881Y012638D02*
X022881Y012858D01*
X022232Y014366D02*
X022232Y014403D01*
X022378Y014550D01*
X022378Y014586D01*
X022232Y014586D01*
X022157Y014550D02*
X022121Y014586D01*
X022047Y014586D01*
X022011Y014550D01*
X022011Y014403D01*
X022047Y014366D01*
X022121Y014366D01*
X022157Y014403D01*
X021537Y014493D02*
X021390Y014493D01*
X021500Y014604D01*
X021500Y014383D01*
X021316Y014383D02*
X021242Y014457D01*
X021279Y014457D02*
X021169Y014457D01*
X021169Y014383D02*
X021169Y014604D01*
X021279Y014604D01*
X021316Y014567D01*
X021316Y014493D01*
X021279Y014457D01*
X020683Y016323D02*
X020683Y016359D01*
X020830Y016506D01*
X020830Y016543D01*
X020683Y016543D01*
X020609Y016506D02*
X020609Y016433D01*
X020572Y016396D01*
X020462Y016396D01*
X020462Y016323D02*
X020462Y016543D01*
X020572Y016543D01*
X020609Y016506D01*
X020536Y016396D02*
X020609Y016323D01*
X018955Y016330D02*
X018882Y016294D01*
X018808Y016220D01*
X018918Y016220D01*
X018955Y016184D01*
X018955Y016147D01*
X018918Y016110D01*
X018845Y016110D01*
X018808Y016147D01*
X018808Y016220D01*
X018734Y016220D02*
X018697Y016184D01*
X018587Y016184D01*
X018661Y016184D02*
X018734Y016110D01*
X018734Y016220D02*
X018734Y016294D01*
X018697Y016330D01*
X018587Y016330D01*
X018587Y016110D01*
X018512Y014190D02*
X018402Y014080D01*
X018549Y014080D01*
X018512Y013970D02*
X018512Y014190D01*
X018328Y014153D02*
X018291Y014190D01*
X018218Y014190D01*
X018181Y014153D01*
X018181Y014006D01*
X018218Y013970D01*
X018291Y013970D01*
X018328Y014006D01*
X014251Y016769D02*
X014251Y016842D01*
X014215Y016879D01*
X014215Y016953D02*
X014178Y016953D01*
X014141Y016990D01*
X014141Y017063D01*
X014178Y017100D01*
X014215Y017100D01*
X014251Y017063D01*
X014251Y016990D01*
X014215Y016953D01*
X014141Y016990D02*
X014105Y016953D01*
X014068Y016953D01*
X014031Y016990D01*
X014031Y017063D01*
X014068Y017100D01*
X014105Y017100D01*
X014141Y017063D01*
X014068Y016879D02*
X014031Y016842D01*
X014031Y016769D01*
X014068Y016732D01*
X014215Y016732D01*
X014251Y016769D01*
X013457Y018138D02*
X013310Y018138D01*
X013457Y018285D01*
X013457Y018321D01*
X013420Y018358D01*
X013347Y018358D01*
X013310Y018321D01*
X013163Y018358D02*
X013163Y018138D01*
X013236Y018138D02*
X013089Y018138D01*
X013015Y018174D02*
X012978Y018138D01*
X012905Y018138D01*
X012868Y018174D01*
X012868Y018321D01*
X012905Y018358D01*
X012978Y018358D01*
X013015Y018321D01*
X013089Y018285D02*
X013163Y018358D01*
X014019Y019498D02*
X014019Y019571D01*
X014019Y019534D02*
X014240Y019534D01*
X014240Y019498D02*
X014240Y019571D01*
X014203Y019645D02*
X014240Y019682D01*
X014240Y019755D01*
X014203Y019792D01*
X014240Y019866D02*
X014093Y020013D01*
X014056Y020013D01*
X014019Y019976D01*
X014019Y019903D01*
X014056Y019866D01*
X014056Y019792D02*
X014019Y019755D01*
X014019Y019682D01*
X014056Y019645D01*
X014203Y019645D01*
X014240Y019866D02*
X014240Y020013D01*
X012429Y020174D02*
X012429Y020248D01*
X012392Y020284D01*
X012392Y020359D02*
X012429Y020395D01*
X012429Y020469D01*
X012392Y020505D01*
X012245Y020505D01*
X012208Y020469D01*
X012208Y020395D01*
X012245Y020359D01*
X012282Y020359D01*
X012318Y020395D01*
X012318Y020505D01*
X012245Y020284D02*
X012208Y020248D01*
X012208Y020174D01*
X012245Y020138D01*
X012392Y020138D01*
X012429Y020174D01*
X012050Y020335D02*
X011830Y020335D01*
X011830Y020445D01*
X011867Y020482D01*
X011940Y020482D01*
X011977Y020445D01*
X011977Y020335D01*
X011977Y020408D02*
X012050Y020482D01*
X012050Y020556D02*
X012050Y020703D01*
X012050Y020629D02*
X011830Y020629D01*
X011904Y020556D01*
X011867Y020777D02*
X011830Y020814D01*
X011830Y020887D01*
X011867Y020924D01*
X011904Y020924D01*
X012050Y020777D01*
X012050Y020924D01*
X012040Y021583D02*
X012040Y021693D01*
X012003Y021730D01*
X011930Y021730D01*
X011893Y021693D01*
X011893Y021583D01*
X012113Y021583D01*
X012040Y021657D02*
X012113Y021730D01*
X012077Y021804D02*
X012113Y021841D01*
X012113Y021914D01*
X012077Y021951D01*
X011930Y021951D01*
X011893Y021914D01*
X011893Y021841D01*
X011930Y021804D01*
X011967Y021804D01*
X012003Y021841D01*
X012003Y021951D01*
X012001Y022524D02*
X012001Y022634D01*
X011964Y022671D01*
X011891Y022671D01*
X011854Y022634D01*
X011854Y022524D01*
X012074Y022524D01*
X012001Y022597D02*
X012074Y022671D01*
X012074Y022745D02*
X012074Y022892D01*
X012074Y022818D02*
X011854Y022818D01*
X011927Y022745D01*
X011891Y022966D02*
X011854Y023002D01*
X011854Y023076D01*
X011891Y023113D01*
X012037Y022966D01*
X012074Y023002D01*
X012074Y023076D01*
X012037Y023113D01*
X011891Y023113D01*
X011891Y022966D02*
X012037Y022966D01*
X012775Y023359D02*
X012812Y023323D01*
X012959Y023323D01*
X012996Y023359D01*
X012996Y023433D01*
X012959Y023469D01*
X012996Y023544D02*
X012996Y023690D01*
X012996Y023617D02*
X012775Y023617D01*
X012849Y023544D01*
X012812Y023469D02*
X012775Y023433D01*
X012775Y023359D01*
X012812Y023765D02*
X012775Y023801D01*
X012775Y023875D01*
X012812Y023911D01*
X012959Y023765D01*
X012996Y023801D01*
X012996Y023875D01*
X012959Y023911D01*
X012812Y023911D01*
X012812Y023765D02*
X012959Y023765D01*
X013966Y024972D02*
X013929Y025009D01*
X013929Y025082D01*
X013966Y025119D01*
X014112Y025119D01*
X014149Y025082D01*
X014149Y025009D01*
X014112Y024972D01*
X013966Y024972D01*
X014076Y025046D02*
X014149Y025119D01*
X014149Y025193D02*
X014002Y025340D01*
X013966Y025340D01*
X013929Y025303D01*
X013929Y025230D01*
X013966Y025193D01*
X014149Y025193D02*
X014149Y025340D01*
X009948Y024803D02*
X009948Y024656D01*
X009948Y024729D02*
X009728Y024729D01*
X009801Y024656D01*
X009765Y024582D02*
X009838Y024582D01*
X009875Y024545D01*
X009875Y024435D01*
X009875Y024508D02*
X009948Y024582D01*
X009948Y024435D02*
X009728Y024435D01*
X009728Y024545D01*
X009765Y024582D01*
X009772Y023762D02*
X009736Y023725D01*
X009736Y023652D01*
X009772Y023615D01*
X009772Y023762D02*
X009809Y023762D01*
X009956Y023615D01*
X009956Y023762D01*
X009956Y023541D02*
X009956Y023394D01*
X009736Y023394D01*
X011124Y018732D02*
X011234Y018732D01*
X011271Y018695D01*
X011271Y018622D01*
X011234Y018585D01*
X011124Y018585D01*
X011197Y018585D02*
X011271Y018512D01*
X011345Y018512D02*
X011492Y018512D01*
X011418Y018512D02*
X011418Y018732D01*
X011345Y018658D01*
X011566Y018695D02*
X011602Y018732D01*
X011676Y018732D01*
X011713Y018695D01*
X011713Y018658D01*
X011676Y018622D01*
X011713Y018585D01*
X011713Y018548D01*
X011676Y018512D01*
X011602Y018512D01*
X011566Y018548D01*
X011639Y018622D02*
X011676Y018622D01*
X011124Y018512D02*
X011124Y018732D01*
X007064Y015471D02*
X006991Y015434D01*
X006917Y015361D01*
X007027Y015361D01*
X007064Y015324D01*
X007064Y015287D01*
X007027Y015251D01*
X006954Y015251D01*
X006917Y015287D01*
X006917Y015361D01*
X006843Y015434D02*
X006806Y015471D01*
X006733Y015471D01*
X006696Y015434D01*
X006696Y015287D01*
X006733Y015251D01*
X006806Y015251D01*
X006843Y015287D01*
X006622Y015251D02*
X006549Y015251D01*
X006586Y015251D02*
X006586Y015471D01*
X006622Y015471D02*
X006549Y015471D01*
X004475Y013082D02*
X004512Y013046D01*
X004512Y013009D01*
X004475Y012972D01*
X004512Y012936D01*
X004512Y012899D01*
X004475Y012862D01*
X004402Y012862D01*
X004365Y012899D01*
X004291Y012862D02*
X004144Y012862D01*
X004218Y012862D02*
X004218Y013082D01*
X004144Y013009D01*
X004070Y013046D02*
X004034Y013082D01*
X003960Y013082D01*
X003923Y013046D01*
X003923Y012899D01*
X003960Y012862D01*
X004034Y012862D01*
X004070Y012899D01*
X004365Y013046D02*
X004402Y013082D01*
X004475Y013082D01*
X004475Y012972D02*
X004439Y012972D01*
X002128Y010274D02*
X002091Y010274D01*
X002055Y010237D01*
X002055Y010127D01*
X002128Y010127D01*
X002165Y010163D01*
X002165Y010237D01*
X002128Y010274D01*
X001981Y010200D02*
X002055Y010127D01*
X001981Y010200D02*
X001945Y010274D01*
X001945Y009979D02*
X002165Y009979D01*
X002165Y009906D02*
X002165Y010053D01*
X002018Y009906D02*
X001945Y009979D01*
X001981Y009832D02*
X001945Y009795D01*
X001945Y009722D01*
X001981Y009685D01*
X002128Y009685D01*
X002165Y009722D01*
X002165Y009795D01*
X002128Y009832D01*
X003539Y009844D02*
X003759Y009844D01*
X003759Y009917D02*
X003759Y009770D01*
X003759Y009696D02*
X003686Y009623D01*
X003686Y009659D02*
X003686Y009549D01*
X003759Y009549D02*
X003539Y009549D01*
X003539Y009659D01*
X003576Y009696D01*
X003649Y009696D01*
X003686Y009659D01*
X003612Y009770D02*
X003539Y009844D01*
X003649Y009991D02*
X003649Y010138D01*
X003539Y010101D02*
X003649Y009991D01*
X003759Y010101D02*
X003539Y010101D01*
X005779Y009024D02*
X005779Y008877D01*
X005889Y008877D01*
X005853Y008950D01*
X005853Y008987D01*
X005889Y009024D01*
X005963Y009024D01*
X005999Y008987D01*
X005999Y008913D01*
X005963Y008877D01*
X005999Y008803D02*
X005999Y008656D01*
X005999Y008729D02*
X005779Y008729D01*
X005853Y008656D01*
X005889Y008582D02*
X005926Y008545D01*
X005926Y008435D01*
X005926Y008508D02*
X005999Y008582D01*
X005889Y008582D02*
X005816Y008582D01*
X005779Y008545D01*
X005779Y008435D01*
X005999Y008435D01*
X005994Y008051D02*
X005958Y008051D01*
X005921Y008014D01*
X005921Y007904D01*
X005994Y007904D01*
X006031Y007941D01*
X006031Y008014D01*
X005994Y008051D01*
X005847Y007978D02*
X005921Y007904D01*
X005847Y007978D02*
X005811Y008051D01*
X005811Y007757D02*
X006031Y007757D01*
X006031Y007830D02*
X006031Y007683D01*
X006031Y007609D02*
X005958Y007536D01*
X005958Y007572D02*
X005958Y007462D01*
X006031Y007462D02*
X005811Y007462D01*
X005811Y007572D01*
X005847Y007609D01*
X005921Y007609D01*
X005958Y007572D01*
X005884Y007683D02*
X005811Y007757D01*
X005824Y007094D02*
X005861Y007094D01*
X005897Y007058D01*
X005897Y006984D01*
X005861Y006948D01*
X005824Y006948D01*
X005787Y006984D01*
X005787Y007058D01*
X005824Y007094D01*
X005897Y007058D02*
X005934Y007094D01*
X005971Y007094D01*
X006007Y007058D01*
X006007Y006984D01*
X005971Y006948D01*
X005934Y006948D01*
X005897Y006984D01*
X006007Y006873D02*
X006007Y006727D01*
X006007Y006800D02*
X005787Y006800D01*
X005861Y006727D01*
X005897Y006652D02*
X005934Y006616D01*
X005934Y006506D01*
X005934Y006579D02*
X006007Y006652D01*
X005897Y006652D02*
X005824Y006652D01*
X005787Y006616D01*
X005787Y006506D01*
X006007Y006506D01*
X006786Y005632D02*
X006859Y005632D01*
X006823Y005632D02*
X006823Y005412D01*
X006859Y005412D02*
X006786Y005412D01*
X006933Y005449D02*
X006933Y005596D01*
X006970Y005632D01*
X007043Y005632D01*
X007080Y005596D01*
X007154Y005522D02*
X007301Y005522D01*
X007264Y005412D02*
X007264Y005632D01*
X007154Y005522D01*
X007080Y005449D02*
X007043Y005412D01*
X006970Y005412D01*
X006933Y005449D01*
X010739Y007808D02*
X010776Y007771D01*
X010812Y007771D01*
X010849Y007808D01*
X010849Y007991D01*
X010812Y007991D02*
X010886Y007991D01*
X010960Y007955D02*
X010997Y007991D01*
X011070Y007991D01*
X011107Y007955D01*
X011107Y007918D01*
X011070Y007881D01*
X011107Y007845D01*
X011107Y007808D01*
X011070Y007771D01*
X010997Y007771D01*
X010960Y007808D01*
X011033Y007881D02*
X011070Y007881D01*
X011569Y004901D02*
X011679Y004901D01*
X011715Y004864D01*
X011715Y004791D01*
X011679Y004754D01*
X011569Y004754D01*
X011642Y004754D02*
X011715Y004681D01*
X011790Y004681D02*
X011936Y004681D01*
X011863Y004681D02*
X011863Y004901D01*
X011790Y004828D01*
X012011Y004901D02*
X012157Y004901D01*
X012157Y004864D01*
X012011Y004718D01*
X012011Y004681D01*
X011569Y004681D02*
X011569Y004901D01*
X014849Y001139D02*
X014812Y001102D01*
X014812Y000955D01*
X014849Y000918D01*
X014922Y000918D01*
X014959Y000955D01*
X015033Y000918D02*
X015180Y000918D01*
X015107Y000918D02*
X015107Y001139D01*
X015033Y001065D01*
X014959Y001102D02*
X014922Y001139D01*
X014849Y001139D01*
X009199Y011640D02*
X009199Y011676D01*
X009346Y011823D01*
X009346Y011860D01*
X009199Y011860D01*
X009125Y011823D02*
X009088Y011860D01*
X009014Y011860D01*
X008978Y011823D01*
X008978Y011676D01*
X009014Y011640D01*
X009088Y011640D01*
X009125Y011676D01*
X008904Y011640D02*
X008830Y011640D01*
X008867Y011640D02*
X008867Y011860D01*
X008830Y011860D02*
X008904Y011860D01*
X011498Y014416D02*
X011535Y014379D01*
X011608Y014379D01*
X011645Y014416D01*
X011719Y014416D02*
X011756Y014379D01*
X011829Y014379D01*
X011866Y014416D01*
X011866Y014490D01*
X011829Y014526D01*
X011793Y014526D01*
X011719Y014490D01*
X011719Y014600D01*
X011866Y014600D01*
X011645Y014563D02*
X011608Y014600D01*
X011535Y014600D01*
X011498Y014563D01*
X011498Y014416D01*
X003192Y015919D02*
X002972Y015919D01*
X002972Y016029D01*
X003009Y016066D01*
X003082Y016066D01*
X003119Y016029D01*
X003119Y015919D01*
X003119Y015992D02*
X003192Y016066D01*
X003156Y016140D02*
X003192Y016177D01*
X003192Y016250D01*
X003156Y016287D01*
X003082Y016287D01*
X003046Y016250D01*
X003046Y016213D01*
X003082Y016140D01*
X002972Y016140D01*
X002972Y016287D01*
X002520Y016327D02*
X002373Y016327D01*
X002447Y016327D02*
X002447Y016547D01*
X002373Y016473D01*
X002299Y016547D02*
X002226Y016547D01*
X002262Y016547D02*
X002262Y016363D01*
X002226Y016327D01*
X002189Y016327D01*
X002152Y016363D01*
X002078Y016327D02*
X002005Y016400D01*
X002041Y016400D02*
X001931Y016400D01*
X001931Y016327D02*
X001931Y016547D01*
X002041Y016547D01*
X002078Y016510D01*
X002078Y016437D01*
X002041Y016400D01*
X021480Y023430D02*
X021517Y023393D01*
X021664Y023393D01*
X021700Y023430D01*
X021700Y023504D01*
X021664Y023540D01*
X021700Y023614D02*
X021700Y023761D01*
X021700Y023688D02*
X021480Y023688D01*
X021553Y023614D01*
X021517Y023540D02*
X021480Y023504D01*
X021480Y023430D01*
X021553Y023835D02*
X021480Y023909D01*
X021700Y023909D01*
X021700Y023982D02*
X021700Y023835D01*
X024185Y021674D02*
X024185Y021600D01*
X024221Y021564D01*
X024221Y021490D02*
X024185Y021453D01*
X024185Y021379D01*
X024221Y021343D01*
X024221Y021269D02*
X024185Y021232D01*
X024185Y021159D01*
X024221Y021122D01*
X024368Y021122D01*
X024405Y021159D01*
X024405Y021232D01*
X024368Y021269D01*
X024405Y021343D02*
X024258Y021490D01*
X024221Y021490D01*
X024295Y021637D02*
X024295Y021674D01*
X024332Y021711D01*
X024368Y021711D01*
X024405Y021674D01*
X024405Y021600D01*
X024368Y021564D01*
X024405Y021490D02*
X024405Y021343D01*
X024295Y021674D02*
X024258Y021711D01*
X024221Y021711D01*
X024185Y021674D01*
X024257Y019839D02*
X024220Y019802D01*
X024220Y019729D01*
X024257Y019692D01*
X024293Y019692D01*
X024330Y019729D01*
X024330Y019839D01*
X024257Y019839D02*
X024404Y019839D01*
X024440Y019802D01*
X024440Y019729D01*
X024404Y019692D01*
X024440Y019618D02*
X024440Y019471D01*
X024440Y019545D02*
X024220Y019545D01*
X024293Y019471D01*
X024257Y019397D02*
X024330Y019397D01*
X024367Y019360D01*
X024367Y019250D01*
X024440Y019250D02*
X024220Y019250D01*
X024220Y019360D01*
X024257Y019397D01*
X024367Y019324D02*
X024440Y019397D01*
X023254Y018247D02*
X023291Y018211D01*
X023291Y018137D01*
X023254Y018101D01*
X023217Y018101D01*
X023181Y018137D01*
X023181Y018211D01*
X023217Y018247D01*
X023254Y018247D01*
X023181Y018211D02*
X023144Y018247D01*
X023107Y018247D01*
X023071Y018211D01*
X023071Y018137D01*
X023107Y018101D01*
X023144Y018101D01*
X023181Y018137D01*
X023181Y018026D02*
X023217Y017990D01*
X023217Y017880D01*
X023217Y017953D02*
X023291Y018026D01*
X023181Y018026D02*
X023107Y018026D01*
X023071Y017990D01*
X023071Y017880D01*
X023291Y017880D01*
X025912Y019069D02*
X025986Y019069D01*
X025949Y019069D02*
X025949Y019289D01*
X025912Y019289D02*
X025986Y019289D01*
X026060Y019252D02*
X026060Y019106D01*
X026096Y019069D01*
X026170Y019069D01*
X026207Y019106D01*
X026281Y019106D02*
X026317Y019069D01*
X026391Y019069D01*
X026428Y019106D01*
X026428Y019179D01*
X026391Y019216D01*
X026354Y019216D01*
X026281Y019179D01*
X026281Y019289D01*
X026428Y019289D01*
X026207Y019252D02*
X026170Y019289D01*
X026096Y019289D01*
X026060Y019252D01*
X026074Y015285D02*
X026184Y015285D01*
X026221Y015248D01*
X026221Y015175D01*
X026184Y015138D01*
X026074Y015138D01*
X026074Y015064D02*
X026074Y015285D01*
X026148Y015138D02*
X026221Y015064D01*
X026295Y015101D02*
X026332Y015064D01*
X026405Y015064D01*
X026442Y015101D01*
X026442Y015138D01*
X026405Y015175D01*
X026369Y015175D01*
X026405Y015175D02*
X026442Y015211D01*
X026442Y015248D01*
X026405Y015285D01*
X026332Y015285D01*
X026295Y015248D01*
X025982Y012248D02*
X025982Y012028D01*
X026055Y012028D02*
X025908Y012028D01*
X025834Y012065D02*
X025834Y012211D01*
X025797Y012248D01*
X025687Y012248D01*
X025687Y012028D01*
X025797Y012028D01*
X025834Y012065D01*
X025908Y012175D02*
X025982Y012248D01*
D16*
X028025Y011419D02*
X021187Y011419D01*
X021187Y005348D01*
X028045Y005348D01*
X028025Y005348D02*
X028025Y011419D01*
X028257Y004432D02*
X028032Y004206D01*
X028332Y004206D01*
X028257Y003981D02*
X028257Y004432D01*
X023782Y003981D02*
X023482Y003981D01*
X023632Y003981D02*
X023632Y004432D01*
X023482Y004282D01*
X016089Y007677D02*
X015789Y007677D01*
X015939Y007677D02*
X015939Y008127D01*
X015789Y007977D01*
X011089Y006327D02*
X010939Y006252D01*
X010789Y006102D01*
X011014Y006102D01*
X011089Y006027D01*
X011089Y005952D01*
X011014Y005877D01*
X010864Y005877D01*
X010789Y005952D01*
X010789Y006102D01*
X009807Y016789D02*
X001307Y016789D01*
X001307Y023089D01*
X009807Y023089D01*
X009807Y016789D01*
D17*
X012943Y015998D02*
X012943Y008998D01*
X014268Y008998D01*
X014270Y009036D01*
X014276Y009073D01*
X014285Y009110D01*
X014298Y009146D01*
X014315Y009180D01*
X014335Y009212D01*
X014358Y009242D01*
X014385Y009270D01*
X014413Y009295D01*
X014445Y009316D01*
X014478Y009335D01*
X014513Y009350D01*
X014549Y009361D01*
X014586Y009369D01*
X014624Y009373D01*
X014662Y009373D01*
X014700Y009369D01*
X014737Y009361D01*
X014773Y009350D01*
X014808Y009335D01*
X014841Y009316D01*
X014873Y009295D01*
X014901Y009270D01*
X014928Y009242D01*
X014951Y009212D01*
X014971Y009180D01*
X014988Y009146D01*
X015001Y009110D01*
X015010Y009073D01*
X015016Y009036D01*
X015018Y008998D01*
X016343Y008998D01*
X016343Y015998D01*
X012943Y015998D01*
X009324Y011478D02*
X006411Y011478D01*
X006411Y009588D02*
X009324Y009588D01*
X010279Y004984D02*
X010279Y000973D01*
X016443Y008698D02*
X016843Y008698D01*
X016643Y008998D01*
X016443Y008698D01*
X016468Y008735D02*
X016818Y008735D01*
X016766Y008814D02*
X016521Y008814D01*
X016573Y008892D02*
X016714Y008892D01*
X016661Y008971D02*
X016625Y008971D01*
D18*
X016143Y009248D03*
D19*
X010575Y004319D03*
X010575Y003649D03*
X010575Y002979D03*
X010575Y002309D03*
X010575Y001639D03*
D20*
X010100Y005767D02*
X008100Y005767D01*
X008100Y007517D01*
X010100Y007517D01*
X010100Y005767D01*
X010100Y007517D02*
X010100Y008267D01*
X008100Y008267D01*
X008100Y007517D01*
X003369Y007579D02*
X003369Y007319D01*
X003069Y007269D01*
X002969Y006999D02*
X003139Y006759D01*
X002949Y006569D01*
X002709Y006739D01*
X002609Y006679D01*
X002419Y007129D01*
X002970Y006998D02*
X002993Y007039D01*
X003014Y007082D01*
X003032Y007127D01*
X003047Y007172D01*
X003060Y007218D01*
X003070Y007265D01*
X003069Y007639D02*
X003369Y007579D01*
X002959Y007889D02*
X003139Y008149D01*
X002949Y008329D01*
X002689Y008149D01*
X002439Y008249D02*
X002389Y008569D01*
X002119Y008569D01*
X002069Y008249D01*
X001819Y008149D02*
X001559Y008329D01*
X001369Y008149D01*
X001549Y007889D01*
X001439Y007639D02*
X001139Y007579D01*
X001139Y007319D01*
X001439Y007269D01*
X001539Y006999D02*
X001379Y006759D01*
X001559Y006569D01*
X001799Y006739D01*
X001899Y006679D01*
X002099Y007129D01*
X001543Y007001D02*
X001515Y007051D01*
X001491Y007103D01*
X001470Y007156D01*
X001453Y007211D01*
X001440Y007267D01*
X001823Y008152D02*
X001868Y008177D01*
X001915Y008200D01*
X001963Y008219D01*
X002012Y008236D01*
X002062Y008249D01*
X002099Y007139D02*
X002066Y007157D01*
X002036Y007178D01*
X002007Y007202D01*
X001981Y007229D01*
X001959Y007258D01*
X001939Y007290D01*
X001922Y007323D01*
X001909Y007358D01*
X001900Y007394D01*
X001894Y007431D01*
X001892Y007468D01*
X001894Y007505D01*
X001899Y007542D01*
X001909Y007578D01*
X001921Y007613D01*
X001938Y007647D01*
X001957Y007678D01*
X001980Y007708D01*
X002006Y007735D01*
X002034Y007759D01*
X002065Y007780D01*
X002097Y007798D01*
X002131Y007813D01*
X002167Y007824D01*
X002203Y007832D01*
X002240Y007836D01*
X002278Y007836D01*
X002315Y007832D01*
X002351Y007824D01*
X002387Y007813D01*
X002421Y007798D01*
X002453Y007780D01*
X002484Y007759D01*
X002512Y007735D01*
X002538Y007708D01*
X002561Y007678D01*
X002580Y007647D01*
X002597Y007613D01*
X002609Y007578D01*
X002619Y007542D01*
X002624Y007505D01*
X002626Y007468D01*
X002624Y007431D01*
X002618Y007394D01*
X002609Y007358D01*
X002596Y007323D01*
X002579Y007290D01*
X002559Y007258D01*
X002537Y007229D01*
X002511Y007202D01*
X002482Y007178D01*
X002452Y007157D01*
X002419Y007139D01*
X003068Y007639D02*
X003053Y007691D01*
X003034Y007742D01*
X003012Y007792D01*
X002987Y007840D01*
X002958Y007887D01*
X002693Y008150D02*
X002646Y008177D01*
X002597Y008200D01*
X002547Y008220D01*
X002496Y008237D01*
X002444Y008251D01*
X001550Y007884D02*
X001523Y007837D01*
X001499Y007790D01*
X001478Y007741D01*
X001460Y007690D01*
X001446Y007639D01*
X018540Y003804D02*
X020290Y004854D01*
X021790Y004854D01*
X023540Y003804D01*
X023540Y002304D02*
X021790Y001254D01*
X020290Y001254D01*
X018540Y002304D01*
X019540Y003754D02*
X019576Y003825D01*
X019615Y003895D01*
X019657Y003963D01*
X019702Y004029D01*
X019751Y004092D01*
X019803Y004153D01*
X019857Y004211D01*
X019914Y004267D01*
X019974Y004320D01*
X020036Y004370D01*
X020101Y004417D01*
X020168Y004461D01*
X020237Y004501D01*
X020308Y004538D01*
X020380Y004572D01*
X020454Y004602D01*
X020529Y004628D01*
X020606Y004651D01*
X020683Y004670D01*
X020762Y004685D01*
X020841Y004697D01*
X020920Y004705D01*
X021000Y004709D01*
X021080Y004709D01*
X021160Y004705D01*
X021239Y004697D01*
X021318Y004685D01*
X021397Y004670D01*
X021474Y004651D01*
X021551Y004628D01*
X021626Y004602D01*
X021700Y004572D01*
X021772Y004538D01*
X021843Y004501D01*
X021912Y004461D01*
X021979Y004417D01*
X022044Y004370D01*
X022106Y004320D01*
X022166Y004267D01*
X022223Y004211D01*
X022277Y004153D01*
X022329Y004092D01*
X022378Y004029D01*
X022423Y003963D01*
X022465Y003895D01*
X022504Y003825D01*
X022540Y003754D01*
X022540Y002354D02*
X022504Y002283D01*
X022465Y002213D01*
X022423Y002145D01*
X022378Y002079D01*
X022329Y002016D01*
X022277Y001955D01*
X022223Y001897D01*
X022166Y001841D01*
X022106Y001788D01*
X022044Y001738D01*
X021979Y001691D01*
X021912Y001647D01*
X021843Y001607D01*
X021772Y001570D01*
X021700Y001536D01*
X021626Y001506D01*
X021551Y001480D01*
X021474Y001457D01*
X021397Y001438D01*
X021318Y001423D01*
X021239Y001411D01*
X021160Y001403D01*
X021080Y001399D01*
X021000Y001399D01*
X020920Y001403D01*
X020841Y001411D01*
X020762Y001423D01*
X020683Y001438D01*
X020606Y001457D01*
X020529Y001480D01*
X020454Y001506D01*
X020380Y001536D01*
X020308Y001570D01*
X020237Y001607D01*
X020168Y001647D01*
X020101Y001691D01*
X020036Y001738D01*
X019974Y001788D01*
X019914Y001841D01*
X019857Y001897D01*
X019803Y001955D01*
X019751Y002016D01*
X019702Y002079D01*
X019657Y002145D01*
X019615Y002213D01*
X019576Y002283D01*
X019540Y002354D01*
D21*
X020198Y007443D03*
X020671Y007443D03*
X027065Y013143D03*
X027537Y013143D03*
D22*
X027301Y013143D03*
X020435Y007443D03*
X003360Y005128D03*
X003328Y003537D03*
X003320Y001761D03*
D23*
X003320Y001525D03*
X003320Y001998D03*
X003328Y003301D03*
X003328Y003773D03*
X003360Y004891D03*
X003360Y005364D03*
D24*
X025069Y024352D03*
X025389Y023252D03*
X025389Y022882D03*
X026489Y025262D03*
D25*
X026479Y025252D03*
X026439Y023382D03*
X026439Y022882D03*
X025399Y023392D03*
D26*
X025389Y023422D03*
X025279Y023152D03*
X025269Y023142D03*
X025259Y023112D03*
X025259Y023012D03*
X025269Y022992D03*
X025499Y022982D03*
X025509Y022992D03*
X025519Y023012D03*
X025519Y023122D03*
X025509Y023142D03*
X025739Y023072D03*
X025739Y023032D03*
X025739Y022992D03*
X025739Y022952D03*
X025739Y022912D03*
X025739Y023232D03*
X025739Y023272D03*
X025739Y023312D03*
X025739Y023352D03*
X026299Y023262D03*
X026309Y023282D03*
X026289Y023042D03*
X026289Y023032D03*
X026589Y023032D03*
X026569Y023242D03*
X026569Y023252D03*
X025039Y023222D03*
X025039Y023212D03*
X025039Y023202D03*
X024749Y023212D03*
X024749Y023172D03*
X024749Y023252D03*
X024749Y023052D03*
X024749Y023012D03*
X024749Y022972D03*
X024749Y022932D03*
X024749Y022892D03*
X026449Y025222D03*
D27*
X026434Y025192D03*
X026544Y023292D03*
X026564Y023082D03*
X026314Y022992D03*
X025394Y022892D03*
X025064Y022892D03*
X025064Y022902D03*
X025054Y022912D03*
X025054Y022922D03*
X025044Y022932D03*
X025034Y022952D03*
X025024Y022962D03*
X025024Y022972D03*
X025014Y022982D03*
X025014Y022992D03*
X025004Y023002D03*
X025004Y023012D03*
X024994Y023022D03*
X024994Y023032D03*
X024984Y023042D03*
X024974Y023052D03*
X024964Y023062D03*
X024954Y023072D03*
X025024Y023262D03*
D28*
X025034Y023242D03*
X025044Y023232D03*
X025034Y023192D03*
X025284Y023162D03*
X025274Y022982D03*
X025284Y022972D03*
X025494Y022972D03*
X025504Y023152D03*
X025494Y023162D03*
X025734Y023212D03*
X025734Y023222D03*
X025734Y023242D03*
X025734Y023252D03*
X025734Y023262D03*
X025734Y023282D03*
X025734Y023292D03*
X025734Y023302D03*
X025734Y023322D03*
X025734Y023332D03*
X025734Y023342D03*
X025734Y023362D03*
X025734Y023372D03*
X025734Y023082D03*
X025734Y023062D03*
X025734Y023052D03*
X025734Y023042D03*
X025734Y023022D03*
X025734Y023012D03*
X025734Y023002D03*
X025734Y022982D03*
X025734Y022972D03*
X025734Y022962D03*
X025734Y022942D03*
X025734Y022932D03*
X025734Y022922D03*
X025734Y022902D03*
X025734Y022892D03*
X026054Y022892D03*
X026054Y022902D03*
X026054Y022912D03*
X026054Y022922D03*
X026054Y022932D03*
X026054Y022942D03*
X026054Y022952D03*
X026054Y022962D03*
X026054Y022972D03*
X026054Y022982D03*
X026054Y022992D03*
X026054Y023002D03*
X026054Y023012D03*
X026054Y023022D03*
X026054Y023032D03*
X026054Y023042D03*
X026054Y023052D03*
X026054Y023062D03*
X026054Y023072D03*
X026054Y023082D03*
X026054Y023212D03*
X026054Y023222D03*
X026054Y023232D03*
X026054Y023242D03*
X026054Y023252D03*
X026054Y023262D03*
X026054Y023272D03*
X026054Y023282D03*
X026054Y023292D03*
X026054Y023302D03*
X026054Y023312D03*
X026054Y023322D03*
X026054Y023332D03*
X026054Y023342D03*
X026054Y023352D03*
X026054Y023362D03*
X026054Y023372D03*
X026304Y023242D03*
X026314Y023232D03*
X026294Y023022D03*
X026574Y023002D03*
X026584Y023012D03*
X026584Y023022D03*
X026584Y023042D03*
X026584Y023052D03*
X026584Y023062D03*
X026564Y023262D03*
X026564Y023272D03*
X026554Y023282D03*
X025054Y024322D03*
X024744Y023262D03*
X024744Y023242D03*
X024754Y023232D03*
X024744Y023222D03*
X024744Y023202D03*
X024754Y023192D03*
X024744Y023182D03*
X024754Y023072D03*
X024744Y023062D03*
X024744Y023042D03*
X024754Y023032D03*
X024744Y023022D03*
X024744Y023002D03*
X024754Y022992D03*
X024744Y022982D03*
X024744Y022962D03*
X024754Y022952D03*
X024744Y022942D03*
X024744Y022922D03*
X024754Y022912D03*
X024744Y022902D03*
X026454Y025212D03*
D29*
X026419Y025172D03*
X026439Y023372D03*
X026549Y023092D03*
X026439Y022892D03*
D30*
X025389Y022902D03*
X025389Y023472D03*
D31*
X025384Y023492D03*
X025394Y022912D03*
X026434Y022902D03*
X026524Y023102D03*
X026434Y023362D03*
X025024Y024272D03*
X026384Y025122D03*
X026394Y025132D03*
D32*
X026359Y025082D03*
X025379Y023522D03*
X025389Y023202D03*
X025389Y022932D03*
X024829Y023372D03*
X026439Y022912D03*
X026489Y023122D03*
D33*
X026439Y023352D03*
X025389Y023212D03*
X025389Y022922D03*
X025019Y024262D03*
X026369Y025092D03*
X026369Y025102D03*
D34*
X026344Y025052D03*
X025374Y023542D03*
X026434Y023332D03*
X026434Y023162D03*
X026454Y023152D03*
X026454Y023142D03*
X026434Y022922D03*
D35*
X026439Y022932D03*
X025389Y022952D03*
X025389Y022962D03*
X025389Y023172D03*
X025389Y023182D03*
X024999Y024232D03*
X026329Y025042D03*
D36*
X026329Y023222D03*
X025389Y023442D03*
X025039Y022942D03*
D37*
X024839Y023092D03*
X025389Y023192D03*
X025389Y022942D03*
X025379Y023532D03*
X025009Y024242D03*
X026349Y025062D03*
X026419Y023172D03*
D38*
X026439Y023312D03*
X026439Y022942D03*
X024999Y024222D03*
X024849Y023362D03*
X026319Y025022D03*
D39*
X026309Y025002D03*
X026309Y024992D03*
X024989Y024212D03*
X024869Y023352D03*
X026439Y022952D03*
D40*
X026434Y022962D03*
X025374Y023572D03*
X024874Y023132D03*
X024864Y023122D03*
D41*
X024879Y023332D03*
X024869Y023342D03*
X025369Y023582D03*
X025579Y023862D03*
X026439Y022972D03*
X026299Y024972D03*
X026299Y024982D03*
D42*
X025594Y023882D03*
X024984Y024202D03*
X024884Y023152D03*
X024874Y023142D03*
X026434Y022982D03*
D43*
X026569Y022992D03*
X026579Y023072D03*
X026299Y023012D03*
X026299Y023002D03*
X026319Y023292D03*
X025389Y023242D03*
X025389Y023432D03*
X025039Y023252D03*
X025029Y023182D03*
X025019Y023172D03*
X025049Y024312D03*
X026439Y025202D03*
D44*
X026464Y025232D03*
X026304Y023272D03*
X026304Y023252D03*
X025524Y023112D03*
X025524Y023102D03*
X025524Y023092D03*
X025524Y023082D03*
X025524Y023072D03*
X025524Y023062D03*
X025524Y023052D03*
X025524Y023042D03*
X025524Y023032D03*
X025524Y023022D03*
X025514Y023002D03*
X025514Y023132D03*
X025264Y023132D03*
X025264Y023122D03*
X025254Y023102D03*
X025254Y023092D03*
X025254Y023082D03*
X025254Y023072D03*
X025254Y023062D03*
X025254Y023052D03*
X025254Y023042D03*
X025254Y023032D03*
X025254Y023022D03*
X025264Y023002D03*
X025394Y023412D03*
D45*
X026334Y023052D03*
X026504Y025282D03*
D46*
X026334Y025032D03*
X025374Y023552D03*
X024844Y023102D03*
X024844Y023082D03*
X026434Y023322D03*
D47*
X025894Y023202D03*
X025894Y023182D03*
X025894Y023172D03*
X025894Y023162D03*
X025894Y023142D03*
X025894Y023132D03*
X025894Y023112D03*
X025894Y023102D03*
X025894Y023092D03*
X025364Y023622D03*
X025684Y024022D03*
X025694Y024032D03*
X024974Y024172D03*
X026264Y024902D03*
D48*
X026324Y025012D03*
X025374Y023562D03*
X024864Y023112D03*
X026434Y023302D03*
D49*
X026504Y023112D03*
X025384Y023502D03*
X026384Y025112D03*
D50*
X026269Y024912D03*
X025679Y024012D03*
X025669Y024002D03*
X025669Y023992D03*
X025899Y023192D03*
X025899Y023152D03*
X025899Y023122D03*
D51*
X026404Y023182D03*
X026474Y023132D03*
X026434Y023342D03*
X026354Y025072D03*
D52*
X026284Y024942D03*
X025614Y023912D03*
X024894Y023292D03*
X024884Y023302D03*
X024894Y023272D03*
X024884Y023162D03*
D53*
X025384Y023512D03*
X025014Y024252D03*
X026394Y023192D03*
D54*
X026369Y023202D03*
D55*
X026354Y023212D03*
X025384Y023482D03*
X026404Y025152D03*
D56*
X026399Y025142D03*
X025029Y024282D03*
X025389Y023222D03*
D57*
X025394Y023232D03*
X025384Y023462D03*
X025034Y024292D03*
X026414Y025162D03*
D58*
X026519Y023232D03*
X025399Y023352D03*
D59*
X025369Y023602D03*
X025629Y023932D03*
X025629Y023942D03*
X025639Y023952D03*
X024889Y023282D03*
X026279Y024932D03*
D60*
X026289Y024952D03*
X026289Y024962D03*
X025619Y023922D03*
X025609Y023902D03*
X025599Y023892D03*
X025589Y023872D03*
X025369Y023592D03*
X024889Y023312D03*
X024879Y023322D03*
X024979Y024192D03*
D61*
X025404Y023332D03*
X026524Y025302D03*
D62*
X026514Y025292D03*
X025084Y024372D03*
X025404Y023342D03*
D63*
X025399Y023362D03*
X025079Y024362D03*
X026499Y025272D03*
D64*
X025404Y023372D03*
D65*
X025394Y023382D03*
D66*
X025394Y023402D03*
X025064Y024342D03*
X026474Y025242D03*
D67*
X026424Y025182D03*
X025044Y024302D03*
X025394Y023452D03*
D68*
X025364Y023612D03*
X025644Y023962D03*
X025654Y023972D03*
X025654Y023982D03*
X024974Y024182D03*
X026274Y024922D03*
D69*
X026254Y024882D03*
X025724Y024082D03*
X025724Y024072D03*
X025364Y023632D03*
X024964Y024162D03*
D70*
X025359Y023642D03*
X025739Y024092D03*
X025739Y024102D03*
X025749Y024112D03*
X026249Y024872D03*
D71*
X026239Y024842D03*
X025779Y024152D03*
X025769Y024142D03*
X025359Y023652D03*
X025099Y023872D03*
X024959Y024152D03*
D72*
X024949Y024142D03*
X025079Y023892D03*
X025359Y023662D03*
X025809Y024192D03*
X025819Y024202D03*
X026229Y024822D03*
D73*
X026219Y024802D03*
X025859Y024252D03*
X025849Y024242D03*
X025839Y024232D03*
X025359Y023672D03*
X025059Y023912D03*
X024949Y024132D03*
D74*
X025044Y023922D03*
X025354Y023682D03*
X025864Y024262D03*
X025874Y024272D03*
X026214Y024782D03*
X026224Y024792D03*
D75*
X026214Y024772D03*
X025904Y024312D03*
X025894Y024302D03*
X025354Y023692D03*
X025024Y023942D03*
D76*
X024999Y023972D03*
X024929Y024102D03*
X025349Y023702D03*
X025939Y024352D03*
X025949Y024362D03*
X025959Y024372D03*
D77*
X025964Y024382D03*
X026194Y024722D03*
X026204Y024732D03*
X025354Y023712D03*
D78*
X025344Y023722D03*
X024974Y023992D03*
X024924Y024092D03*
X025994Y024412D03*
X026194Y024702D03*
D79*
X026184Y024682D03*
X026024Y024442D03*
X026014Y024432D03*
X025344Y023732D03*
X024914Y024082D03*
D80*
X024914Y024072D03*
X025344Y023742D03*
X026044Y024462D03*
X026054Y024472D03*
X026184Y024662D03*
D81*
X026174Y024642D03*
X026074Y024492D03*
X026064Y024482D03*
X025344Y023752D03*
X024904Y024062D03*
D82*
X024904Y024042D03*
X025334Y023762D03*
X026174Y024622D03*
D83*
X026114Y024522D03*
X025344Y023772D03*
D84*
X025334Y023782D03*
X026164Y024582D03*
D85*
X026164Y024572D03*
X026164Y024562D03*
X025334Y023792D03*
D86*
X025334Y023802D03*
X026164Y024552D03*
D87*
X025334Y023812D03*
D88*
X025324Y023822D03*
D89*
X025324Y023832D03*
D90*
X025324Y023842D03*
D91*
X025319Y023852D03*
D92*
X025104Y023862D03*
X025754Y024122D03*
X025764Y024132D03*
X026244Y024852D03*
X026244Y024862D03*
D93*
X026234Y024832D03*
X025804Y024182D03*
X025794Y024172D03*
X025784Y024162D03*
X025084Y023882D03*
D94*
X025064Y023902D03*
X025824Y024212D03*
X025834Y024222D03*
X026224Y024812D03*
D95*
X025889Y024292D03*
X025879Y024282D03*
X025039Y023932D03*
X024939Y024122D03*
D96*
X024939Y024112D03*
X025019Y023952D03*
X025909Y024322D03*
X025929Y024342D03*
X026209Y024752D03*
X026209Y024762D03*
D97*
X026204Y024742D03*
X025924Y024332D03*
X025004Y023962D03*
D98*
X024979Y023982D03*
X025979Y024392D03*
X025979Y024402D03*
X026199Y024712D03*
D99*
X026189Y024692D03*
X025999Y024422D03*
X024959Y024002D03*
D100*
X024949Y024012D03*
X026029Y024452D03*
X026189Y024672D03*
D101*
X026179Y024652D03*
X024929Y024022D03*
D102*
X024919Y024032D03*
X026089Y024502D03*
X026179Y024632D03*
D103*
X026259Y024892D03*
X025709Y024062D03*
X025709Y024052D03*
X025699Y024042D03*
D104*
X026099Y024512D03*
X026169Y024612D03*
X024899Y024052D03*
D105*
X025059Y024332D03*
D106*
X025089Y024382D03*
D107*
X026129Y024532D03*
X026169Y024592D03*
X026169Y024602D03*
D108*
X026139Y024542D03*
M02*
