G75*
%MOIN*%
%OFA0B0*%
%FSLAX24Y24*%
%IPPOS*%
%LPD*%
%AMOC8*
5,1,8,0,0,1.08239X$1,22.5*
%
%ADD10R,0.0611X0.1241*%
%ADD11R,0.0660X0.0560*%
%ADD12R,0.0611X0.0611*%
%ADD13R,0.0296X0.0926*%
%ADD14OC8,0.0620*%
%ADD15C,0.0910*%
%ADD16R,0.0651X0.0572*%
%ADD17R,0.0572X0.0651*%
%ADD18R,0.0611X0.0454*%
%ADD19R,0.4158X0.4312*%
%ADD20R,0.0910X0.0480*%
%ADD21R,0.1210X0.1158*%
%ADD22R,0.1241X0.0611*%
%ADD23R,0.0574X0.0574*%
%ADD24C,0.1359*%
%ADD25R,0.0847X0.2225*%
%ADD26R,0.0532X0.0532*%
%ADD27C,0.0620*%
%ADD28C,0.0614*%
%ADD29C,0.0660*%
%ADD30R,0.0660X0.0660*%
%ADD31C,0.1460*%
%ADD32R,0.2225X0.0847*%
%ADD33R,0.0454X0.0611*%
%ADD34R,0.0690X0.0572*%
%ADD35R,0.0926X0.0296*%
%ADD36R,0.0572X0.0690*%
%ADD37R,0.0470X0.0170*%
%ADD38R,0.0170X0.0470*%
%ADD39C,0.0540*%
%ADD40R,0.0690X0.0520*%
%ADD41R,0.0720X0.0060*%
%ADD42C,0.0416*%
%ADD43C,0.0456*%
%ADD44R,0.0416X0.0416*%
D10*
X013696Y001697D03*
X013696Y003587D03*
D11*
X014485Y004872D03*
X014485Y005622D03*
D12*
X015781Y002866D03*
X017277Y002866D03*
X025843Y005396D03*
X027339Y005396D03*
D13*
X018766Y006180D03*
X018266Y006180D03*
X017766Y006180D03*
X017266Y006180D03*
X017266Y008227D03*
X017766Y008227D03*
X018266Y008227D03*
X018766Y008227D03*
X018809Y019440D03*
X018309Y019440D03*
X017809Y019440D03*
X017309Y019440D03*
X016809Y019440D03*
X016309Y019440D03*
X015809Y019440D03*
X015309Y019440D03*
X014809Y019440D03*
X014809Y023062D03*
X015309Y023062D03*
X015809Y023062D03*
X016309Y023062D03*
X016809Y023062D03*
X017309Y023062D03*
X017809Y023062D03*
X018309Y023062D03*
X018809Y023062D03*
X019309Y023062D03*
X019809Y023062D03*
X020309Y023062D03*
X020809Y023062D03*
X021309Y023062D03*
X021309Y019440D03*
X020809Y019440D03*
X020309Y019440D03*
X019809Y019440D03*
X019309Y019440D03*
D14*
X026668Y018400D03*
X026668Y016620D03*
X003394Y010483D03*
X002394Y010483D03*
X002394Y009483D03*
X003394Y009483D03*
X003394Y008483D03*
X002394Y008483D03*
X002394Y007483D03*
X003394Y007483D03*
X003394Y006483D03*
X002394Y006483D03*
D15*
X006705Y017227D03*
X006705Y023527D03*
X025688Y018890D03*
X025688Y016130D03*
D16*
X022607Y018695D03*
X022607Y019443D03*
X020705Y018223D03*
X020705Y017475D03*
X021351Y015676D03*
X021351Y014928D03*
X022280Y014924D03*
X022280Y015672D03*
X018729Y017270D03*
X018729Y018018D03*
X016650Y018191D03*
X016650Y017443D03*
X015701Y017440D03*
X015701Y018188D03*
X014760Y018199D03*
X014760Y017451D03*
X012894Y020778D03*
X012894Y021526D03*
X013485Y024121D03*
X013485Y024869D03*
X022221Y024873D03*
X022221Y024125D03*
X016189Y014010D03*
X016189Y013262D03*
X010961Y013361D03*
X010961Y014109D03*
X010945Y014971D03*
X010945Y015719D03*
X007666Y012455D03*
X007666Y011707D03*
X007674Y010707D03*
X007674Y009959D03*
X006744Y009979D03*
X006744Y010727D03*
X004874Y008333D03*
X004874Y007585D03*
X004725Y004471D03*
X004725Y003723D03*
X004725Y002499D03*
X004725Y001751D03*
X001244Y006664D03*
X001244Y007412D03*
X001264Y008506D03*
X001264Y009254D03*
X010910Y010554D03*
X010910Y011302D03*
X011866Y007955D03*
X011866Y007207D03*
D17*
X011662Y005770D03*
X010914Y005770D03*
X011071Y008998D03*
X011819Y008998D03*
X015103Y009522D03*
X015851Y009522D03*
X019689Y009058D03*
X020437Y009058D03*
X026437Y015030D03*
X027185Y015030D03*
X024638Y017798D03*
X023890Y017798D03*
X022311Y016814D03*
X021563Y016814D03*
X024910Y021865D03*
X025658Y021865D03*
X013591Y014345D03*
X012843Y014345D03*
X011501Y017133D03*
X010753Y017133D03*
X010689Y018317D03*
X011437Y018317D03*
X012445Y019278D03*
X013193Y019278D03*
X011323Y019632D03*
X010575Y019632D03*
X010587Y021144D03*
X011335Y021144D03*
X011363Y022282D03*
X010615Y022282D03*
X010615Y023325D03*
X011363Y023325D03*
X009217Y024101D03*
X008469Y024101D03*
X008489Y025030D03*
X009237Y025030D03*
X007441Y015951D03*
X006693Y015951D03*
X002044Y005522D03*
X001296Y005522D03*
D18*
X015378Y005294D03*
X016244Y005668D03*
X016244Y004920D03*
D19*
X008144Y003417D03*
D20*
X011424Y003417D03*
X011424Y002747D03*
X011424Y002077D03*
X011424Y004087D03*
X011424Y004757D03*
D21*
X018960Y003492D03*
X023118Y003492D03*
D22*
X024964Y002442D03*
X026854Y002442D03*
D23*
X023024Y007069D03*
X023020Y008066D03*
X023024Y009066D03*
X023024Y010058D03*
X022008Y010562D03*
X022008Y009546D03*
X022016Y008566D03*
X022024Y007573D03*
D24*
X025524Y006577D03*
X025524Y011066D03*
D25*
X009437Y011105D03*
X009437Y014845D03*
D26*
X020433Y008353D03*
X020433Y007526D03*
X027300Y013227D03*
X027300Y014054D03*
D27*
X027272Y004676D02*
X027272Y004116D01*
X026272Y004116D02*
X026272Y004676D01*
X025272Y004676D02*
X025272Y004116D01*
X024272Y004116D02*
X024272Y004676D01*
X003567Y004031D02*
X003567Y003471D01*
X002567Y003471D02*
X002567Y004031D01*
X001567Y004031D02*
X001567Y003471D01*
X001544Y002105D02*
X001544Y001545D01*
X002544Y001545D02*
X002544Y002105D01*
X003544Y002105D02*
X003544Y001545D01*
D28*
X006142Y007163D02*
X006142Y007716D01*
X007142Y007716D02*
X007142Y007163D01*
X019164Y012404D02*
X019718Y012404D01*
X019718Y013404D02*
X019164Y013404D01*
X019164Y014404D02*
X019718Y014404D01*
X019718Y015404D02*
X019164Y015404D01*
X023366Y015663D02*
X023366Y016216D01*
X024366Y016216D02*
X024366Y015663D01*
D29*
X009055Y018627D03*
X008055Y019127D03*
X009055Y019627D03*
X008055Y020127D03*
X009055Y020627D03*
X008055Y021127D03*
X009055Y021627D03*
X003605Y021977D03*
X003605Y022977D03*
X003605Y018777D03*
X003605Y017777D03*
D30*
X008055Y022127D03*
D31*
X005555Y022627D03*
X005555Y018127D03*
D32*
X015929Y024869D03*
X019670Y024869D03*
D33*
X025855Y020121D03*
X026603Y020121D03*
X026229Y020987D03*
D34*
X024926Y020888D03*
X024926Y020140D03*
D35*
X010689Y008221D03*
X010689Y007721D03*
X010689Y007221D03*
X010689Y006721D03*
X008642Y006721D03*
X008642Y007221D03*
X008642Y007721D03*
X008642Y008221D03*
X005678Y014859D03*
X005678Y015359D03*
X005678Y015859D03*
X005678Y016359D03*
X002055Y016359D03*
X002055Y015859D03*
X002055Y015359D03*
X002055Y014859D03*
D36*
X002020Y014317D03*
X001272Y014317D03*
D37*
X012089Y013039D03*
X012089Y012849D03*
X012089Y012649D03*
X012089Y012449D03*
X012089Y012259D03*
X012089Y012059D03*
X012089Y011859D03*
X012089Y011659D03*
X012089Y011469D03*
X012089Y011269D03*
X012089Y011069D03*
X012089Y010879D03*
X015369Y010879D03*
X015369Y011069D03*
X015369Y011269D03*
X015369Y011469D03*
X015369Y011659D03*
X015369Y011859D03*
X015369Y012059D03*
X015369Y012259D03*
X015369Y012449D03*
X015369Y012649D03*
X015369Y012849D03*
X015369Y013039D03*
D38*
X014809Y013599D03*
X014619Y013599D03*
X014419Y013599D03*
X014219Y013599D03*
X014029Y013599D03*
X013829Y013599D03*
X013629Y013599D03*
X013429Y013599D03*
X013239Y013599D03*
X013039Y013599D03*
X012839Y013599D03*
X012649Y013599D03*
X012649Y010319D03*
X012839Y010319D03*
X013039Y010319D03*
X013239Y010319D03*
X013429Y010319D03*
X013629Y010319D03*
X013829Y010319D03*
X014029Y010319D03*
X014219Y010319D03*
X014419Y010319D03*
X014619Y010319D03*
X014809Y010319D03*
D39*
X011725Y015058D03*
X011725Y016058D03*
D40*
X004894Y010842D03*
X004894Y010242D03*
D41*
X004894Y010542D03*
D42*
X005945Y011148D03*
X006118Y011877D03*
X006611Y011837D03*
X005839Y012522D03*
X005174Y013077D03*
X004906Y012140D03*
X006847Y013632D03*
X007764Y013416D03*
X008843Y013274D03*
X008508Y012199D03*
X008634Y010869D03*
X008268Y010353D03*
X007977Y009290D03*
X009213Y009605D03*
X010351Y008947D03*
X009555Y007959D03*
X009977Y007211D03*
X009382Y006782D03*
X007918Y006991D03*
X004906Y009022D03*
X006016Y010022D03*
X010390Y013684D03*
X011764Y013794D03*
X013343Y012943D03*
X014040Y013089D03*
X014548Y012258D03*
X014811Y011833D03*
X014807Y011337D03*
X015922Y011180D03*
X016351Y011392D03*
X015906Y012085D03*
X016331Y012703D03*
X015552Y013388D03*
X015370Y014566D03*
X015973Y014660D03*
X015851Y015361D03*
X016985Y016617D03*
X015244Y018652D03*
X013937Y018806D03*
X013949Y019377D03*
X013937Y018211D03*
X013524Y017597D03*
X012803Y018609D03*
X012890Y020042D03*
X013756Y021129D03*
X013489Y023357D03*
X014331Y024207D03*
X015803Y023951D03*
X018315Y024030D03*
X019800Y024026D03*
X020331Y024018D03*
X020847Y024026D03*
X022303Y023310D03*
X026469Y021829D03*
X019847Y018538D03*
X020059Y017837D03*
X019386Y017900D03*
X019264Y016451D03*
X020244Y013562D03*
X021414Y012030D03*
X018654Y011400D03*
X018674Y010640D03*
X018288Y009073D03*
X016811Y009896D03*
X016075Y010566D03*
X014040Y009471D03*
X013737Y009085D03*
X013500Y009479D03*
X012847Y009660D03*
X012855Y009097D03*
X013229Y008629D03*
X013536Y007995D03*
X014823Y008380D03*
X015520Y008369D03*
X016260Y006227D03*
X015453Y004420D03*
X012831Y005443D03*
X012366Y004085D03*
X018280Y007416D03*
X019166Y006144D03*
X019823Y007506D03*
X023681Y008680D03*
X024508Y007101D03*
X025288Y005424D03*
X022166Y002849D03*
X013024Y010880D03*
X011819Y010317D03*
X011607Y009751D03*
X012863Y012211D03*
X013441Y012148D03*
X014146Y015266D03*
X012638Y016589D03*
X012296Y017093D03*
X010217Y016613D03*
X008532Y015026D03*
X007181Y014940D03*
X004666Y016361D03*
X004410Y016880D03*
X003465Y015869D03*
X002926Y014908D03*
X004181Y014916D03*
X001146Y012424D03*
X003717Y019806D03*
X008445Y022983D03*
X009536Y022274D03*
X011209Y024503D03*
X026115Y013928D03*
X027957Y015010D03*
D43*
X014709Y002876D03*
D44*
X000926Y001010D03*
X005445Y003912D03*
X005473Y002506D03*
X006433Y006018D03*
X014237Y014569D03*
M02*
