%TF.GenerationSoftware,KiCad,Pcbnew,7.0.0-da2b9df05c~171~ubuntu22.10.1*%
%TF.CreationDate,2023-03-06T20:27:15+01:00*%
%TF.ProjectId,frakfurt_eth,6672616b-6675-4727-945f-6574682e6b69,rev?*%
%TF.SameCoordinates,Original*%
%TF.FileFunction,Paste,Top*%
%TF.FilePolarity,Positive*%
%FSLAX46Y46*%
G04 Gerber Fmt 4.6, Leading zero omitted, Abs format (unit mm)*
G04 Created by KiCad (PCBNEW 7.0.0-da2b9df05c~171~ubuntu22.10.1) date 2023-03-06 20:27:15*
%MOMM*%
%LPD*%
G01*
G04 APERTURE LIST*
G04 Aperture macros list*
%AMRoundRect*
0 Rectangle with rounded corners*
0 $1 Rounding radius*
0 $2 $3 $4 $5 $6 $7 $8 $9 X,Y pos of 4 corners*
0 Add a 4 corners polygon primitive as box body*
4,1,4,$2,$3,$4,$5,$6,$7,$8,$9,$2,$3,0*
0 Add four circle primitives for the rounded corners*
1,1,$1+$1,$2,$3*
1,1,$1+$1,$4,$5*
1,1,$1+$1,$6,$7*
1,1,$1+$1,$8,$9*
0 Add four rect primitives between the rounded corners*
20,1,$1+$1,$2,$3,$4,$5,0*
20,1,$1+$1,$4,$5,$6,$7,0*
20,1,$1+$1,$6,$7,$8,$9,0*
20,1,$1+$1,$8,$9,$2,$3,0*%
G04 Aperture macros list end*
%ADD10RoundRect,0.250000X0.450000X-0.325000X0.450000X0.325000X-0.450000X0.325000X-0.450000X-0.325000X0*%
%ADD11RoundRect,0.250000X-0.450000X0.325000X-0.450000X-0.325000X0.450000X-0.325000X0.450000X0.325000X0*%
%ADD12RoundRect,0.250000X0.350000X0.450000X-0.350000X0.450000X-0.350000X-0.450000X0.350000X-0.450000X0*%
%ADD13RoundRect,0.250000X-0.350000X-0.450000X0.350000X-0.450000X0.350000X0.450000X-0.350000X0.450000X0*%
%ADD14RoundRect,0.250000X0.275000X0.275000X-0.275000X0.275000X-0.275000X-0.275000X0.275000X-0.275000X0*%
%ADD15RoundRect,0.062500X0.350000X0.062500X-0.350000X0.062500X-0.350000X-0.062500X0.350000X-0.062500X0*%
%ADD16RoundRect,0.062500X0.062500X0.350000X-0.062500X0.350000X-0.062500X-0.350000X0.062500X-0.350000X0*%
%ADD17RoundRect,0.250000X0.925000X-0.412500X0.925000X0.412500X-0.925000X0.412500X-0.925000X-0.412500X0*%
%ADD18RoundRect,0.250000X-0.337500X-0.475000X0.337500X-0.475000X0.337500X0.475000X-0.337500X0.475000X0*%
%ADD19RoundRect,0.150000X-0.825000X-0.150000X0.825000X-0.150000X0.825000X0.150000X-0.825000X0.150000X0*%
%ADD20R,1.500000X0.900000*%
%ADD21R,0.900000X1.500000*%
%ADD22R,1.050000X1.050000*%
%ADD23RoundRect,0.250000X-0.475000X0.337500X-0.475000X-0.337500X0.475000X-0.337500X0.475000X0.337500X0*%
%ADD24RoundRect,0.250000X0.262500X0.450000X-0.262500X0.450000X-0.262500X-0.450000X0.262500X-0.450000X0*%
%ADD25RoundRect,0.250000X0.450000X-0.350000X0.450000X0.350000X-0.450000X0.350000X-0.450000X-0.350000X0*%
%ADD26RoundRect,0.150000X-0.587500X-0.150000X0.587500X-0.150000X0.587500X0.150000X-0.587500X0.150000X0*%
%ADD27RoundRect,0.250000X-0.650000X1.000000X-0.650000X-1.000000X0.650000X-1.000000X0.650000X1.000000X0*%
%ADD28RoundRect,0.250000X0.475000X-0.337500X0.475000X0.337500X-0.475000X0.337500X-0.475000X-0.337500X0*%
%ADD29RoundRect,0.250000X-0.450000X0.350000X-0.450000X-0.350000X0.450000X-0.350000X0.450000X0.350000X0*%
%ADD30RoundRect,0.250000X0.337500X0.475000X-0.337500X0.475000X-0.337500X-0.475000X0.337500X-0.475000X0*%
%ADD31RoundRect,0.250000X-0.250000X-0.475000X0.250000X-0.475000X0.250000X0.475000X-0.250000X0.475000X0*%
G04 APERTURE END LIST*
D10*
%TO.C,D6*%
X131250000Y-120175000D03*
X131250000Y-118125000D03*
%TD*%
D11*
%TO.C,D5*%
X110650000Y-118450000D03*
X110650000Y-120500000D03*
%TD*%
D12*
%TO.C,R14*%
X133050000Y-115900000D03*
X131050000Y-115900000D03*
%TD*%
D10*
%TO.C,D4*%
X100450000Y-90775000D03*
X100450000Y-88725000D03*
%TD*%
D12*
%TO.C,L1*%
X131300000Y-94250000D03*
X129300000Y-94250000D03*
%TD*%
D13*
%TO.C,R11*%
X129300000Y-98450000D03*
X131300000Y-98450000D03*
%TD*%
D12*
%TO.C,R9*%
X106100000Y-65450000D03*
X104100000Y-65450000D03*
%TD*%
D14*
%TO.C,U3*%
X126000000Y-95150000D03*
X126000000Y-93850000D03*
X124700000Y-95150000D03*
X124700000Y-93850000D03*
D15*
X127287500Y-95750000D03*
X127287500Y-95250000D03*
X127287500Y-94750000D03*
X127287500Y-94250000D03*
X127287500Y-93750000D03*
X127287500Y-93250000D03*
D16*
X126600000Y-92562500D03*
X126100000Y-92562500D03*
X125600000Y-92562500D03*
X125100000Y-92562500D03*
X124600000Y-92562500D03*
X124100000Y-92562500D03*
D15*
X123412500Y-93250000D03*
X123412500Y-93750000D03*
X123412500Y-94250000D03*
X123412500Y-94750000D03*
X123412500Y-95250000D03*
X123412500Y-95750000D03*
D16*
X124100000Y-96437500D03*
X124600000Y-96437500D03*
X125100000Y-96437500D03*
X125600000Y-96437500D03*
X126100000Y-96437500D03*
X126600000Y-96437500D03*
%TD*%
D17*
%TO.C,C4*%
X103050000Y-55287500D03*
X103050000Y-52212500D03*
%TD*%
D18*
%TO.C,C13*%
X97025000Y-93450000D03*
X99100000Y-93450000D03*
%TD*%
D19*
%TO.C,U4*%
X104575000Y-109545000D03*
X104575000Y-110815000D03*
X104575000Y-112085000D03*
X104575000Y-113355000D03*
X109525000Y-113355000D03*
X109525000Y-112085000D03*
X109525000Y-110815000D03*
X109525000Y-109545000D03*
%TD*%
D20*
%TO.C,U2*%
X108089999Y-52509999D03*
X108089999Y-53779999D03*
X108089999Y-55049999D03*
X108089999Y-56319999D03*
X108089999Y-57589999D03*
X108089999Y-58859999D03*
X108089999Y-60129999D03*
X108089999Y-61399999D03*
X108089999Y-62669999D03*
X108089999Y-63939999D03*
X108089999Y-65209999D03*
X108089999Y-66479999D03*
X108089999Y-67749999D03*
X108089999Y-69019999D03*
D21*
X111129999Y-70269999D03*
X112399999Y-70269999D03*
X113669999Y-70269999D03*
X114939999Y-70269999D03*
X116209999Y-70269999D03*
X117479999Y-70269999D03*
X118749999Y-70269999D03*
X120019999Y-70269999D03*
X121289999Y-70269999D03*
X122559999Y-70269999D03*
D20*
X125589999Y-69019999D03*
X125589999Y-67749999D03*
X125589999Y-66479999D03*
X125589999Y-65209999D03*
X125589999Y-63939999D03*
X125589999Y-62669999D03*
X125589999Y-61399999D03*
X125589999Y-60129999D03*
X125589999Y-58859999D03*
X125589999Y-57589999D03*
X125589999Y-56319999D03*
X125589999Y-55049999D03*
X125589999Y-53779999D03*
X125589999Y-52509999D03*
D22*
X114634999Y-58324999D03*
X114634999Y-59849999D03*
X114634999Y-61374999D03*
X116159999Y-58324999D03*
X116159999Y-59849999D03*
X116159999Y-61374999D03*
X117684999Y-58324999D03*
X117684999Y-59849999D03*
X117684999Y-61374999D03*
%TD*%
D18*
%TO.C,C8*%
X129262500Y-96350000D03*
X131337500Y-96350000D03*
%TD*%
D23*
%TO.C,C7*%
X125600000Y-87512500D03*
X125600000Y-89587500D03*
%TD*%
D24*
%TO.C,R15*%
X109462500Y-102450000D03*
X107637500Y-102450000D03*
%TD*%
D25*
%TO.C,R6*%
X105850000Y-57750000D03*
X105850000Y-55750000D03*
%TD*%
D26*
%TO.C,D2*%
X107762500Y-105700000D03*
X107762500Y-107600000D03*
X109637500Y-106650000D03*
%TD*%
D13*
%TO.C,R3*%
X124050000Y-103350000D03*
X126050000Y-103350000D03*
%TD*%
D12*
%TO.C,R5*%
X111300000Y-116150000D03*
X109300000Y-116150000D03*
%TD*%
%TO.C,R8*%
X106100000Y-63450000D03*
X104100000Y-63450000D03*
%TD*%
D27*
%TO.C,D3*%
X98500000Y-111600000D03*
X98500000Y-115600000D03*
%TD*%
D28*
%TO.C,C3*%
X105800000Y-53937500D03*
X105800000Y-51862500D03*
%TD*%
D25*
%TO.C,R16*%
X99350000Y-56750000D03*
X99350000Y-54750000D03*
%TD*%
D18*
%TO.C,C6*%
X119712500Y-99700000D03*
X121787500Y-99700000D03*
%TD*%
D13*
%TO.C,R7*%
X133100000Y-69050000D03*
X135100000Y-69050000D03*
%TD*%
D12*
%TO.C,R10*%
X106100000Y-67450000D03*
X104100000Y-67450000D03*
%TD*%
D13*
%TO.C,L2*%
X127950000Y-103350000D03*
X129950000Y-103350000D03*
%TD*%
D12*
%TO.C,R1*%
X114400000Y-103350000D03*
X112400000Y-103350000D03*
%TD*%
%TO.C,R2*%
X118300000Y-103350000D03*
X116300000Y-103350000D03*
%TD*%
D29*
%TO.C,R17*%
X98200000Y-88750000D03*
X98200000Y-90750000D03*
%TD*%
D18*
%TO.C,C12*%
X97612500Y-108650000D03*
X99687500Y-108650000D03*
%TD*%
D30*
%TO.C,C10*%
X119637500Y-97000000D03*
X117562500Y-97000000D03*
%TD*%
D12*
%TO.C,R4*%
X122200000Y-103350000D03*
X120200000Y-103350000D03*
%TD*%
D31*
%TO.C,C5*%
X101500000Y-115650000D03*
X103400000Y-115650000D03*
%TD*%
D12*
%TO.C,R13*%
X106100000Y-61300000D03*
X104100000Y-61300000D03*
%TD*%
D28*
%TO.C,C9*%
X128450000Y-89637500D03*
X128450000Y-87562500D03*
%TD*%
D13*
%TO.C,R12*%
X117600000Y-92450000D03*
X119600000Y-92450000D03*
%TD*%
D30*
%TO.C,C11*%
X119687500Y-94550000D03*
X117612500Y-94550000D03*
%TD*%
M02*
