%TF.GenerationSoftware,KiCad,Pcbnew,7.0.0-da2b9df05c~171~ubuntu22.10.1*%
%TF.CreationDate,2023-03-06T20:27:15+01:00*%
%TF.ProjectId,frakfurt_eth,6672616b-6675-4727-945f-6574682e6b69,rev?*%
%TF.SameCoordinates,Original*%
%TF.FileFunction,Soldermask,Bot*%
%TF.FilePolarity,Negative*%
%FSLAX46Y46*%
G04 Gerber Fmt 4.6, Leading zero omitted, Abs format (unit mm)*
G04 Created by KiCad (PCBNEW 7.0.0-da2b9df05c~171~ubuntu22.10.1) date 2023-03-06 20:27:15*
%MOMM*%
%LPD*%
G01*
G04 APERTURE LIST*
%ADD10R,1.700000X1.700000*%
%ADD11O,1.700000X1.700000*%
%ADD12C,3.200000*%
%ADD13R,1.800000X1.800000*%
%ADD14C,1.800000*%
%ADD15C,2.000000*%
%ADD16C,3.000000*%
%ADD17R,2.500000X1.700000*%
%ADD18O,2.500000X1.700000*%
G04 APERTURE END LIST*
D10*
%TO.C,J6*%
X97999999Y-81724999D03*
D11*
X97999999Y-84264999D03*
%TD*%
D10*
%TO.C,J3*%
X132899999Y-106799999D03*
D11*
X132899999Y-104259999D03*
%TD*%
D12*
%TO.C,J1*%
X126880000Y-115550000D03*
X115450000Y-115550000D03*
D13*
X115449999Y-106659999D03*
D14*
X116720000Y-109200000D03*
X117990000Y-106660000D03*
X119260000Y-109200000D03*
X120530000Y-106660000D03*
X121800000Y-109200000D03*
X123070000Y-106660000D03*
X125610000Y-106660000D03*
X126880000Y-109200000D03*
D15*
X114530000Y-119610000D03*
X117070000Y-119610000D03*
X125250000Y-119610000D03*
X127790000Y-119610000D03*
D16*
X128910000Y-112500000D03*
X113410000Y-112500000D03*
%TD*%
D10*
%TO.C,J4*%
X98549999Y-119049999D03*
D11*
X101089999Y-119049999D03*
X103629999Y-119049999D03*
X106169999Y-119049999D03*
%TD*%
D10*
%TO.C,J2*%
X131899999Y-53499999D03*
D11*
X131899999Y-56039999D03*
X131899999Y-58579999D03*
X131899999Y-61119999D03*
X131899999Y-63659999D03*
X131899999Y-66199999D03*
%TD*%
D13*
%TO.C,D1*%
X96849999Y-61099999D03*
D14*
X99390000Y-61100000D03*
X101930000Y-61100000D03*
%TD*%
D17*
%TO.C,U5*%
X98092499Y-103497499D03*
D18*
X98092499Y-100957499D03*
X98092499Y-98417499D03*
%TD*%
D10*
%TO.C,J5*%
X110074999Y-99049999D03*
D11*
X107534999Y-99049999D03*
%TD*%
M02*
