%TF.GenerationSoftware,KiCad,Pcbnew,7.0.0-da2b9df05c~171~ubuntu22.10.1*%
%TF.CreationDate,2023-03-06T20:27:15+01:00*%
%TF.ProjectId,frakfurt_eth,6672616b-6675-4727-945f-6574682e6b69,rev?*%
%TF.SameCoordinates,Original*%
%TF.FileFunction,Legend,Top*%
%TF.FilePolarity,Positive*%
%FSLAX46Y46*%
G04 Gerber Fmt 4.6, Leading zero omitted, Abs format (unit mm)*
G04 Created by KiCad (PCBNEW 7.0.0-da2b9df05c~171~ubuntu22.10.1) date 2023-03-06 20:27:15*
%MOMM*%
%LPD*%
G01*
G04 APERTURE LIST*
%ADD10C,0.300000*%
%ADD11C,0.250000*%
%ADD12C,0.150000*%
%ADD13C,0.125000*%
%ADD14C,0.010000*%
%ADD15C,0.120000*%
G04 APERTURE END LIST*
D10*
X102521428Y-108523571D02*
X102521428Y-108880714D01*
X102164285Y-108737857D02*
X102521428Y-108880714D01*
X102521428Y-108880714D02*
X102878571Y-108737857D01*
X102307142Y-109166428D02*
X102521428Y-108880714D01*
X102521428Y-108880714D02*
X102735714Y-109166428D01*
X101457142Y-81537857D02*
X100957142Y-81537857D01*
X100957142Y-82323571D02*
X100957142Y-80823571D01*
X100957142Y-80823571D02*
X101671428Y-80823571D01*
X102242856Y-82323571D02*
X102242856Y-81323571D01*
X102242856Y-81609285D02*
X102314285Y-81466428D01*
X102314285Y-81466428D02*
X102385714Y-81395000D01*
X102385714Y-81395000D02*
X102528571Y-81323571D01*
X102528571Y-81323571D02*
X102671428Y-81323571D01*
X103814285Y-82323571D02*
X103814285Y-81537857D01*
X103814285Y-81537857D02*
X103742856Y-81395000D01*
X103742856Y-81395000D02*
X103599999Y-81323571D01*
X103599999Y-81323571D02*
X103314285Y-81323571D01*
X103314285Y-81323571D02*
X103171427Y-81395000D01*
X103814285Y-82252142D02*
X103671427Y-82323571D01*
X103671427Y-82323571D02*
X103314285Y-82323571D01*
X103314285Y-82323571D02*
X103171427Y-82252142D01*
X103171427Y-82252142D02*
X103099999Y-82109285D01*
X103099999Y-82109285D02*
X103099999Y-81966428D01*
X103099999Y-81966428D02*
X103171427Y-81823571D01*
X103171427Y-81823571D02*
X103314285Y-81752142D01*
X103314285Y-81752142D02*
X103671427Y-81752142D01*
X103671427Y-81752142D02*
X103814285Y-81680714D01*
X104528570Y-81323571D02*
X104528570Y-82323571D01*
X104528570Y-81466428D02*
X104599999Y-81395000D01*
X104599999Y-81395000D02*
X104742856Y-81323571D01*
X104742856Y-81323571D02*
X104957142Y-81323571D01*
X104957142Y-81323571D02*
X105099999Y-81395000D01*
X105099999Y-81395000D02*
X105171428Y-81537857D01*
X105171428Y-81537857D02*
X105171428Y-82323571D01*
X105885713Y-82323571D02*
X105885713Y-80823571D01*
X106028571Y-81752142D02*
X106457142Y-82323571D01*
X106457142Y-81323571D02*
X105885713Y-81895000D01*
X106885714Y-81323571D02*
X107457142Y-81323571D01*
X107099999Y-82323571D02*
X107099999Y-81037857D01*
X107099999Y-81037857D02*
X107171428Y-80895000D01*
X107171428Y-80895000D02*
X107314285Y-80823571D01*
X107314285Y-80823571D02*
X107457142Y-80823571D01*
X108600000Y-81323571D02*
X108600000Y-82323571D01*
X107957142Y-81323571D02*
X107957142Y-82109285D01*
X107957142Y-82109285D02*
X108028571Y-82252142D01*
X108028571Y-82252142D02*
X108171428Y-82323571D01*
X108171428Y-82323571D02*
X108385714Y-82323571D01*
X108385714Y-82323571D02*
X108528571Y-82252142D01*
X108528571Y-82252142D02*
X108600000Y-82180714D01*
X109314285Y-82323571D02*
X109314285Y-81323571D01*
X109314285Y-81609285D02*
X109385714Y-81466428D01*
X109385714Y-81466428D02*
X109457143Y-81395000D01*
X109457143Y-81395000D02*
X109600000Y-81323571D01*
X109600000Y-81323571D02*
X109742857Y-81323571D01*
X110028571Y-81323571D02*
X110599999Y-81323571D01*
X110242856Y-80823571D02*
X110242856Y-82109285D01*
X110242856Y-82109285D02*
X110314285Y-82252142D01*
X110314285Y-82252142D02*
X110457142Y-82323571D01*
X110457142Y-82323571D02*
X110599999Y-82323571D01*
X111999999Y-81537857D02*
X112499999Y-81537857D01*
X112714285Y-82323571D02*
X111999999Y-82323571D01*
X111999999Y-82323571D02*
X111999999Y-80823571D01*
X111999999Y-80823571D02*
X112714285Y-80823571D01*
X113142857Y-81323571D02*
X113714285Y-81323571D01*
X113357142Y-80823571D02*
X113357142Y-82109285D01*
X113357142Y-82109285D02*
X113428571Y-82252142D01*
X113428571Y-82252142D02*
X113571428Y-82323571D01*
X113571428Y-82323571D02*
X113714285Y-82323571D01*
X114214285Y-82323571D02*
X114214285Y-80823571D01*
X114857143Y-82323571D02*
X114857143Y-81537857D01*
X114857143Y-81537857D02*
X114785714Y-81395000D01*
X114785714Y-81395000D02*
X114642857Y-81323571D01*
X114642857Y-81323571D02*
X114428571Y-81323571D01*
X114428571Y-81323571D02*
X114285714Y-81395000D01*
X114285714Y-81395000D02*
X114214285Y-81466428D01*
X116471428Y-82323571D02*
X116471428Y-80823571D01*
X116471428Y-80823571D02*
X117042857Y-80823571D01*
X117042857Y-80823571D02*
X117185714Y-80895000D01*
X117185714Y-80895000D02*
X117257143Y-80966428D01*
X117257143Y-80966428D02*
X117328571Y-81109285D01*
X117328571Y-81109285D02*
X117328571Y-81323571D01*
X117328571Y-81323571D02*
X117257143Y-81466428D01*
X117257143Y-81466428D02*
X117185714Y-81537857D01*
X117185714Y-81537857D02*
X117042857Y-81609285D01*
X117042857Y-81609285D02*
X116471428Y-81609285D01*
X118257143Y-80823571D02*
X118542857Y-80823571D01*
X118542857Y-80823571D02*
X118685714Y-80895000D01*
X118685714Y-80895000D02*
X118828571Y-81037857D01*
X118828571Y-81037857D02*
X118900000Y-81323571D01*
X118900000Y-81323571D02*
X118900000Y-81823571D01*
X118900000Y-81823571D02*
X118828571Y-82109285D01*
X118828571Y-82109285D02*
X118685714Y-82252142D01*
X118685714Y-82252142D02*
X118542857Y-82323571D01*
X118542857Y-82323571D02*
X118257143Y-82323571D01*
X118257143Y-82323571D02*
X118114286Y-82252142D01*
X118114286Y-82252142D02*
X117971428Y-82109285D01*
X117971428Y-82109285D02*
X117900000Y-81823571D01*
X117900000Y-81823571D02*
X117900000Y-81323571D01*
X117900000Y-81323571D02*
X117971428Y-81037857D01*
X117971428Y-81037857D02*
X118114286Y-80895000D01*
X118114286Y-80895000D02*
X118257143Y-80823571D01*
X119542857Y-81537857D02*
X120042857Y-81537857D01*
X120257143Y-82323571D02*
X119542857Y-82323571D01*
X119542857Y-82323571D02*
X119542857Y-80823571D01*
X119542857Y-80823571D02*
X120257143Y-80823571D01*
X120900000Y-82180714D02*
X120971429Y-82252142D01*
X120971429Y-82252142D02*
X120900000Y-82323571D01*
X120900000Y-82323571D02*
X120828572Y-82252142D01*
X120828572Y-82252142D02*
X120900000Y-82180714D01*
X120900000Y-82180714D02*
X120900000Y-82323571D01*
X100692857Y-78323571D02*
X101192857Y-79823571D01*
X101192857Y-79823571D02*
X101692857Y-78323571D01*
X102121428Y-79752142D02*
X102335714Y-79823571D01*
X102335714Y-79823571D02*
X102692856Y-79823571D01*
X102692856Y-79823571D02*
X102835714Y-79752142D01*
X102835714Y-79752142D02*
X102907142Y-79680714D01*
X102907142Y-79680714D02*
X102978571Y-79537857D01*
X102978571Y-79537857D02*
X102978571Y-79395000D01*
X102978571Y-79395000D02*
X102907142Y-79252142D01*
X102907142Y-79252142D02*
X102835714Y-79180714D01*
X102835714Y-79180714D02*
X102692856Y-79109285D01*
X102692856Y-79109285D02*
X102407142Y-79037857D01*
X102407142Y-79037857D02*
X102264285Y-78966428D01*
X102264285Y-78966428D02*
X102192856Y-78895000D01*
X102192856Y-78895000D02*
X102121428Y-78752142D01*
X102121428Y-78752142D02*
X102121428Y-78609285D01*
X102121428Y-78609285D02*
X102192856Y-78466428D01*
X102192856Y-78466428D02*
X102264285Y-78395000D01*
X102264285Y-78395000D02*
X102407142Y-78323571D01*
X102407142Y-78323571D02*
X102764285Y-78323571D01*
X102764285Y-78323571D02*
X102978571Y-78395000D01*
X104478570Y-79680714D02*
X104407142Y-79752142D01*
X104407142Y-79752142D02*
X104192856Y-79823571D01*
X104192856Y-79823571D02*
X104049999Y-79823571D01*
X104049999Y-79823571D02*
X103835713Y-79752142D01*
X103835713Y-79752142D02*
X103692856Y-79609285D01*
X103692856Y-79609285D02*
X103621427Y-79466428D01*
X103621427Y-79466428D02*
X103549999Y-79180714D01*
X103549999Y-79180714D02*
X103549999Y-78966428D01*
X103549999Y-78966428D02*
X103621427Y-78680714D01*
X103621427Y-78680714D02*
X103692856Y-78537857D01*
X103692856Y-78537857D02*
X103835713Y-78395000D01*
X103835713Y-78395000D02*
X104049999Y-78323571D01*
X104049999Y-78323571D02*
X104192856Y-78323571D01*
X104192856Y-78323571D02*
X104407142Y-78395000D01*
X104407142Y-78395000D02*
X104478570Y-78466428D01*
X105121427Y-79823571D02*
X105121427Y-78323571D01*
X105121427Y-78323571D02*
X105692856Y-78323571D01*
X105692856Y-78323571D02*
X105835713Y-78395000D01*
X105835713Y-78395000D02*
X105907142Y-78466428D01*
X105907142Y-78466428D02*
X105978570Y-78609285D01*
X105978570Y-78609285D02*
X105978570Y-78823571D01*
X105978570Y-78823571D02*
X105907142Y-78966428D01*
X105907142Y-78966428D02*
X105835713Y-79037857D01*
X105835713Y-79037857D02*
X105692856Y-79109285D01*
X105692856Y-79109285D02*
X105121427Y-79109285D01*
X106621427Y-79680714D02*
X106692856Y-79752142D01*
X106692856Y-79752142D02*
X106621427Y-79823571D01*
X106621427Y-79823571D02*
X106549999Y-79752142D01*
X106549999Y-79752142D02*
X106621427Y-79680714D01*
X106621427Y-79680714D02*
X106621427Y-79823571D01*
X107549999Y-79823571D02*
X107407142Y-79752142D01*
X107407142Y-79752142D02*
X107335713Y-79680714D01*
X107335713Y-79680714D02*
X107264285Y-79537857D01*
X107264285Y-79537857D02*
X107264285Y-79109285D01*
X107264285Y-79109285D02*
X107335713Y-78966428D01*
X107335713Y-78966428D02*
X107407142Y-78895000D01*
X107407142Y-78895000D02*
X107549999Y-78823571D01*
X107549999Y-78823571D02*
X107764285Y-78823571D01*
X107764285Y-78823571D02*
X107907142Y-78895000D01*
X107907142Y-78895000D02*
X107978571Y-78966428D01*
X107978571Y-78966428D02*
X108049999Y-79109285D01*
X108049999Y-79109285D02*
X108049999Y-79537857D01*
X108049999Y-79537857D02*
X107978571Y-79680714D01*
X107978571Y-79680714D02*
X107907142Y-79752142D01*
X107907142Y-79752142D02*
X107764285Y-79823571D01*
X107764285Y-79823571D02*
X107549999Y-79823571D01*
X108692856Y-79823571D02*
X108692856Y-78823571D01*
X108692856Y-79109285D02*
X108764285Y-78966428D01*
X108764285Y-78966428D02*
X108835714Y-78895000D01*
X108835714Y-78895000D02*
X108978571Y-78823571D01*
X108978571Y-78823571D02*
X109121428Y-78823571D01*
X110264285Y-78823571D02*
X110264285Y-80037857D01*
X110264285Y-80037857D02*
X110192856Y-80180714D01*
X110192856Y-80180714D02*
X110121427Y-80252142D01*
X110121427Y-80252142D02*
X109978570Y-80323571D01*
X109978570Y-80323571D02*
X109764285Y-80323571D01*
X109764285Y-80323571D02*
X109621427Y-80252142D01*
X110264285Y-79752142D02*
X110121427Y-79823571D01*
X110121427Y-79823571D02*
X109835713Y-79823571D01*
X109835713Y-79823571D02*
X109692856Y-79752142D01*
X109692856Y-79752142D02*
X109621427Y-79680714D01*
X109621427Y-79680714D02*
X109549999Y-79537857D01*
X109549999Y-79537857D02*
X109549999Y-79109285D01*
X109549999Y-79109285D02*
X109621427Y-78966428D01*
X109621427Y-78966428D02*
X109692856Y-78895000D01*
X109692856Y-78895000D02*
X109835713Y-78823571D01*
X109835713Y-78823571D02*
X110121427Y-78823571D01*
X110121427Y-78823571D02*
X110264285Y-78895000D01*
D11*
X95240476Y-65684761D02*
X95383333Y-65732380D01*
X95383333Y-65732380D02*
X95621428Y-65732380D01*
X95621428Y-65732380D02*
X95716666Y-65684761D01*
X95716666Y-65684761D02*
X95764285Y-65637142D01*
X95764285Y-65637142D02*
X95811904Y-65541904D01*
X95811904Y-65541904D02*
X95811904Y-65446666D01*
X95811904Y-65446666D02*
X95764285Y-65351428D01*
X95764285Y-65351428D02*
X95716666Y-65303809D01*
X95716666Y-65303809D02*
X95621428Y-65256190D01*
X95621428Y-65256190D02*
X95430952Y-65208571D01*
X95430952Y-65208571D02*
X95335714Y-65160952D01*
X95335714Y-65160952D02*
X95288095Y-65113333D01*
X95288095Y-65113333D02*
X95240476Y-65018095D01*
X95240476Y-65018095D02*
X95240476Y-64922857D01*
X95240476Y-64922857D02*
X95288095Y-64827619D01*
X95288095Y-64827619D02*
X95335714Y-64780000D01*
X95335714Y-64780000D02*
X95430952Y-64732380D01*
X95430952Y-64732380D02*
X95669047Y-64732380D01*
X95669047Y-64732380D02*
X95811904Y-64780000D01*
X96097619Y-64732380D02*
X96669047Y-64732380D01*
X96383333Y-65732380D02*
X96383333Y-64732380D01*
X96954762Y-65446666D02*
X97430952Y-65446666D01*
X96859524Y-65732380D02*
X97192857Y-64732380D01*
X97192857Y-64732380D02*
X97526190Y-65732380D01*
X97716667Y-64732380D02*
X98288095Y-64732380D01*
X98002381Y-65732380D02*
X98002381Y-64732380D01*
X98621429Y-64732380D02*
X98621429Y-65541904D01*
X98621429Y-65541904D02*
X98669048Y-65637142D01*
X98669048Y-65637142D02*
X98716667Y-65684761D01*
X98716667Y-65684761D02*
X98811905Y-65732380D01*
X98811905Y-65732380D02*
X99002381Y-65732380D01*
X99002381Y-65732380D02*
X99097619Y-65684761D01*
X99097619Y-65684761D02*
X99145238Y-65637142D01*
X99145238Y-65637142D02*
X99192857Y-65541904D01*
X99192857Y-65541904D02*
X99192857Y-64732380D01*
X99621429Y-65684761D02*
X99764286Y-65732380D01*
X99764286Y-65732380D02*
X100002381Y-65732380D01*
X100002381Y-65732380D02*
X100097619Y-65684761D01*
X100097619Y-65684761D02*
X100145238Y-65637142D01*
X100145238Y-65637142D02*
X100192857Y-65541904D01*
X100192857Y-65541904D02*
X100192857Y-65446666D01*
X100192857Y-65446666D02*
X100145238Y-65351428D01*
X100145238Y-65351428D02*
X100097619Y-65303809D01*
X100097619Y-65303809D02*
X100002381Y-65256190D01*
X100002381Y-65256190D02*
X99811905Y-65208571D01*
X99811905Y-65208571D02*
X99716667Y-65160952D01*
X99716667Y-65160952D02*
X99669048Y-65113333D01*
X99669048Y-65113333D02*
X99621429Y-65018095D01*
X99621429Y-65018095D02*
X99621429Y-64922857D01*
X99621429Y-64922857D02*
X99669048Y-64827619D01*
X99669048Y-64827619D02*
X99716667Y-64780000D01*
X99716667Y-64780000D02*
X99811905Y-64732380D01*
X99811905Y-64732380D02*
X100050000Y-64732380D01*
X100050000Y-64732380D02*
X100192857Y-64780000D01*
X101988095Y-89732380D02*
X101988095Y-88732380D01*
X101988095Y-88732380D02*
X102369047Y-88732380D01*
X102369047Y-88732380D02*
X102464285Y-88780000D01*
X102464285Y-88780000D02*
X102511904Y-88827619D01*
X102511904Y-88827619D02*
X102559523Y-88922857D01*
X102559523Y-88922857D02*
X102559523Y-89065714D01*
X102559523Y-89065714D02*
X102511904Y-89160952D01*
X102511904Y-89160952D02*
X102464285Y-89208571D01*
X102464285Y-89208571D02*
X102369047Y-89256190D01*
X102369047Y-89256190D02*
X101988095Y-89256190D01*
X103178571Y-88732380D02*
X103369047Y-88732380D01*
X103369047Y-88732380D02*
X103464285Y-88780000D01*
X103464285Y-88780000D02*
X103559523Y-88875238D01*
X103559523Y-88875238D02*
X103607142Y-89065714D01*
X103607142Y-89065714D02*
X103607142Y-89399047D01*
X103607142Y-89399047D02*
X103559523Y-89589523D01*
X103559523Y-89589523D02*
X103464285Y-89684761D01*
X103464285Y-89684761D02*
X103369047Y-89732380D01*
X103369047Y-89732380D02*
X103178571Y-89732380D01*
X103178571Y-89732380D02*
X103083333Y-89684761D01*
X103083333Y-89684761D02*
X102988095Y-89589523D01*
X102988095Y-89589523D02*
X102940476Y-89399047D01*
X102940476Y-89399047D02*
X102940476Y-89065714D01*
X102940476Y-89065714D02*
X102988095Y-88875238D01*
X102988095Y-88875238D02*
X103083333Y-88780000D01*
X103083333Y-88780000D02*
X103178571Y-88732380D01*
X103940476Y-88732380D02*
X104178571Y-89732380D01*
X104178571Y-89732380D02*
X104369047Y-89018095D01*
X104369047Y-89018095D02*
X104559523Y-89732380D01*
X104559523Y-89732380D02*
X104797619Y-88732380D01*
X105178571Y-89208571D02*
X105511904Y-89208571D01*
X105654761Y-89732380D02*
X105178571Y-89732380D01*
X105178571Y-89732380D02*
X105178571Y-88732380D01*
X105178571Y-88732380D02*
X105654761Y-88732380D01*
X106654761Y-89732380D02*
X106321428Y-89256190D01*
X106083333Y-89732380D02*
X106083333Y-88732380D01*
X106083333Y-88732380D02*
X106464285Y-88732380D01*
X106464285Y-88732380D02*
X106559523Y-88780000D01*
X106559523Y-88780000D02*
X106607142Y-88827619D01*
X106607142Y-88827619D02*
X106654761Y-88922857D01*
X106654761Y-88922857D02*
X106654761Y-89065714D01*
X106654761Y-89065714D02*
X106607142Y-89160952D01*
X106607142Y-89160952D02*
X106559523Y-89208571D01*
X106559523Y-89208571D02*
X106464285Y-89256190D01*
X106464285Y-89256190D02*
X106083333Y-89256190D01*
D12*
X128100000Y-97117380D02*
X128100000Y-97355476D01*
X127861905Y-97260238D02*
X128100000Y-97355476D01*
X128100000Y-97355476D02*
X128338095Y-97260238D01*
X127957143Y-97545952D02*
X128100000Y-97355476D01*
X128100000Y-97355476D02*
X128242857Y-97545952D01*
X101519048Y-56736428D02*
X102280953Y-56736428D01*
X101900000Y-57117380D02*
X101900000Y-56355476D01*
D10*
X101864285Y-84873571D02*
X101364285Y-84159285D01*
X101007142Y-84873571D02*
X101007142Y-83373571D01*
X101007142Y-83373571D02*
X101578571Y-83373571D01*
X101578571Y-83373571D02*
X101721428Y-83445000D01*
X101721428Y-83445000D02*
X101792857Y-83516428D01*
X101792857Y-83516428D02*
X101864285Y-83659285D01*
X101864285Y-83659285D02*
X101864285Y-83873571D01*
X101864285Y-83873571D02*
X101792857Y-84016428D01*
X101792857Y-84016428D02*
X101721428Y-84087857D01*
X101721428Y-84087857D02*
X101578571Y-84159285D01*
X101578571Y-84159285D02*
X101007142Y-84159285D01*
X103078571Y-84802142D02*
X102935714Y-84873571D01*
X102935714Y-84873571D02*
X102650000Y-84873571D01*
X102650000Y-84873571D02*
X102507142Y-84802142D01*
X102507142Y-84802142D02*
X102435714Y-84659285D01*
X102435714Y-84659285D02*
X102435714Y-84087857D01*
X102435714Y-84087857D02*
X102507142Y-83945000D01*
X102507142Y-83945000D02*
X102650000Y-83873571D01*
X102650000Y-83873571D02*
X102935714Y-83873571D01*
X102935714Y-83873571D02*
X103078571Y-83945000D01*
X103078571Y-83945000D02*
X103150000Y-84087857D01*
X103150000Y-84087857D02*
X103150000Y-84230714D01*
X103150000Y-84230714D02*
X102435714Y-84373571D01*
X103649999Y-83873571D02*
X104007142Y-84873571D01*
X104007142Y-84873571D02*
X104364285Y-83873571D01*
X105764285Y-84445000D02*
X106478571Y-84445000D01*
X105621428Y-84873571D02*
X106121428Y-83373571D01*
X106121428Y-83373571D02*
X106621428Y-84873571D01*
D13*
%TO.C,J6*%
X97833333Y-79078690D02*
X97833333Y-79435833D01*
X97833333Y-79435833D02*
X97809524Y-79507261D01*
X97809524Y-79507261D02*
X97761905Y-79554880D01*
X97761905Y-79554880D02*
X97690476Y-79578690D01*
X97690476Y-79578690D02*
X97642857Y-79578690D01*
X98285714Y-79078690D02*
X98190476Y-79078690D01*
X98190476Y-79078690D02*
X98142857Y-79102500D01*
X98142857Y-79102500D02*
X98119047Y-79126309D01*
X98119047Y-79126309D02*
X98071428Y-79197738D01*
X98071428Y-79197738D02*
X98047619Y-79292976D01*
X98047619Y-79292976D02*
X98047619Y-79483452D01*
X98047619Y-79483452D02*
X98071428Y-79531071D01*
X98071428Y-79531071D02*
X98095238Y-79554880D01*
X98095238Y-79554880D02*
X98142857Y-79578690D01*
X98142857Y-79578690D02*
X98238095Y-79578690D01*
X98238095Y-79578690D02*
X98285714Y-79554880D01*
X98285714Y-79554880D02*
X98309523Y-79531071D01*
X98309523Y-79531071D02*
X98333333Y-79483452D01*
X98333333Y-79483452D02*
X98333333Y-79364404D01*
X98333333Y-79364404D02*
X98309523Y-79316785D01*
X98309523Y-79316785D02*
X98285714Y-79292976D01*
X98285714Y-79292976D02*
X98238095Y-79269166D01*
X98238095Y-79269166D02*
X98142857Y-79269166D01*
X98142857Y-79269166D02*
X98095238Y-79292976D01*
X98095238Y-79292976D02*
X98071428Y-79316785D01*
X98071428Y-79316785D02*
X98047619Y-79364404D01*
D12*
%TO.C,J3*%
X132566666Y-108497380D02*
X132566666Y-109211666D01*
X132566666Y-109211666D02*
X132519047Y-109354523D01*
X132519047Y-109354523D02*
X132423809Y-109449761D01*
X132423809Y-109449761D02*
X132280952Y-109497380D01*
X132280952Y-109497380D02*
X132185714Y-109497380D01*
X132947619Y-108497380D02*
X133566666Y-108497380D01*
X133566666Y-108497380D02*
X133233333Y-108878333D01*
X133233333Y-108878333D02*
X133376190Y-108878333D01*
X133376190Y-108878333D02*
X133471428Y-108925952D01*
X133471428Y-108925952D02*
X133519047Y-108973571D01*
X133519047Y-108973571D02*
X133566666Y-109068809D01*
X133566666Y-109068809D02*
X133566666Y-109306904D01*
X133566666Y-109306904D02*
X133519047Y-109402142D01*
X133519047Y-109402142D02*
X133471428Y-109449761D01*
X133471428Y-109449761D02*
X133376190Y-109497380D01*
X133376190Y-109497380D02*
X133090476Y-109497380D01*
X133090476Y-109497380D02*
X132995238Y-109449761D01*
X132995238Y-109449761D02*
X132947619Y-109402142D01*
%TO.C,J1*%
X120826666Y-102927380D02*
X120826666Y-103641666D01*
X120826666Y-103641666D02*
X120779047Y-103784523D01*
X120779047Y-103784523D02*
X120683809Y-103879761D01*
X120683809Y-103879761D02*
X120540952Y-103927380D01*
X120540952Y-103927380D02*
X120445714Y-103927380D01*
X121826666Y-103927380D02*
X121255238Y-103927380D01*
X121540952Y-103927380D02*
X121540952Y-102927380D01*
X121540952Y-102927380D02*
X121445714Y-103070238D01*
X121445714Y-103070238D02*
X121350476Y-103165476D01*
X121350476Y-103165476D02*
X121255238Y-103213095D01*
D13*
%TO.C,D6*%
X132630952Y-117933690D02*
X132630952Y-117433690D01*
X132630952Y-117433690D02*
X132750000Y-117433690D01*
X132750000Y-117433690D02*
X132821428Y-117457500D01*
X132821428Y-117457500D02*
X132869047Y-117505119D01*
X132869047Y-117505119D02*
X132892857Y-117552738D01*
X132892857Y-117552738D02*
X132916666Y-117647976D01*
X132916666Y-117647976D02*
X132916666Y-117719404D01*
X132916666Y-117719404D02*
X132892857Y-117814642D01*
X132892857Y-117814642D02*
X132869047Y-117862261D01*
X132869047Y-117862261D02*
X132821428Y-117909880D01*
X132821428Y-117909880D02*
X132750000Y-117933690D01*
X132750000Y-117933690D02*
X132630952Y-117933690D01*
X133345238Y-117433690D02*
X133250000Y-117433690D01*
X133250000Y-117433690D02*
X133202381Y-117457500D01*
X133202381Y-117457500D02*
X133178571Y-117481309D01*
X133178571Y-117481309D02*
X133130952Y-117552738D01*
X133130952Y-117552738D02*
X133107143Y-117647976D01*
X133107143Y-117647976D02*
X133107143Y-117838452D01*
X133107143Y-117838452D02*
X133130952Y-117886071D01*
X133130952Y-117886071D02*
X133154762Y-117909880D01*
X133154762Y-117909880D02*
X133202381Y-117933690D01*
X133202381Y-117933690D02*
X133297619Y-117933690D01*
X133297619Y-117933690D02*
X133345238Y-117909880D01*
X133345238Y-117909880D02*
X133369047Y-117886071D01*
X133369047Y-117886071D02*
X133392857Y-117838452D01*
X133392857Y-117838452D02*
X133392857Y-117719404D01*
X133392857Y-117719404D02*
X133369047Y-117671785D01*
X133369047Y-117671785D02*
X133345238Y-117647976D01*
X133345238Y-117647976D02*
X133297619Y-117624166D01*
X133297619Y-117624166D02*
X133202381Y-117624166D01*
X133202381Y-117624166D02*
X133154762Y-117647976D01*
X133154762Y-117647976D02*
X133130952Y-117671785D01*
X133130952Y-117671785D02*
X133107143Y-117719404D01*
%TO.C,D5*%
X108680952Y-121033690D02*
X108680952Y-120533690D01*
X108680952Y-120533690D02*
X108800000Y-120533690D01*
X108800000Y-120533690D02*
X108871428Y-120557500D01*
X108871428Y-120557500D02*
X108919047Y-120605119D01*
X108919047Y-120605119D02*
X108942857Y-120652738D01*
X108942857Y-120652738D02*
X108966666Y-120747976D01*
X108966666Y-120747976D02*
X108966666Y-120819404D01*
X108966666Y-120819404D02*
X108942857Y-120914642D01*
X108942857Y-120914642D02*
X108919047Y-120962261D01*
X108919047Y-120962261D02*
X108871428Y-121009880D01*
X108871428Y-121009880D02*
X108800000Y-121033690D01*
X108800000Y-121033690D02*
X108680952Y-121033690D01*
X109419047Y-120533690D02*
X109180952Y-120533690D01*
X109180952Y-120533690D02*
X109157143Y-120771785D01*
X109157143Y-120771785D02*
X109180952Y-120747976D01*
X109180952Y-120747976D02*
X109228571Y-120724166D01*
X109228571Y-120724166D02*
X109347619Y-120724166D01*
X109347619Y-120724166D02*
X109395238Y-120747976D01*
X109395238Y-120747976D02*
X109419047Y-120771785D01*
X109419047Y-120771785D02*
X109442857Y-120819404D01*
X109442857Y-120819404D02*
X109442857Y-120938452D01*
X109442857Y-120938452D02*
X109419047Y-120986071D01*
X109419047Y-120986071D02*
X109395238Y-121009880D01*
X109395238Y-121009880D02*
X109347619Y-121033690D01*
X109347619Y-121033690D02*
X109228571Y-121033690D01*
X109228571Y-121033690D02*
X109180952Y-121009880D01*
X109180952Y-121009880D02*
X109157143Y-120986071D01*
%TO.C,R14*%
X134583690Y-116236428D02*
X134345595Y-116403094D01*
X134583690Y-116522142D02*
X134083690Y-116522142D01*
X134083690Y-116522142D02*
X134083690Y-116331666D01*
X134083690Y-116331666D02*
X134107500Y-116284047D01*
X134107500Y-116284047D02*
X134131309Y-116260237D01*
X134131309Y-116260237D02*
X134178928Y-116236428D01*
X134178928Y-116236428D02*
X134250357Y-116236428D01*
X134250357Y-116236428D02*
X134297976Y-116260237D01*
X134297976Y-116260237D02*
X134321785Y-116284047D01*
X134321785Y-116284047D02*
X134345595Y-116331666D01*
X134345595Y-116331666D02*
X134345595Y-116522142D01*
X134583690Y-115760237D02*
X134583690Y-116045951D01*
X134583690Y-115903094D02*
X134083690Y-115903094D01*
X134083690Y-115903094D02*
X134155119Y-115950713D01*
X134155119Y-115950713D02*
X134202738Y-115998332D01*
X134202738Y-115998332D02*
X134226547Y-116045951D01*
X134250357Y-115331666D02*
X134583690Y-115331666D01*
X134059880Y-115450714D02*
X134417023Y-115569761D01*
X134417023Y-115569761D02*
X134417023Y-115260238D01*
%TO.C,D4*%
X100280952Y-87333690D02*
X100280952Y-86833690D01*
X100280952Y-86833690D02*
X100400000Y-86833690D01*
X100400000Y-86833690D02*
X100471428Y-86857500D01*
X100471428Y-86857500D02*
X100519047Y-86905119D01*
X100519047Y-86905119D02*
X100542857Y-86952738D01*
X100542857Y-86952738D02*
X100566666Y-87047976D01*
X100566666Y-87047976D02*
X100566666Y-87119404D01*
X100566666Y-87119404D02*
X100542857Y-87214642D01*
X100542857Y-87214642D02*
X100519047Y-87262261D01*
X100519047Y-87262261D02*
X100471428Y-87309880D01*
X100471428Y-87309880D02*
X100400000Y-87333690D01*
X100400000Y-87333690D02*
X100280952Y-87333690D01*
X100995238Y-87000357D02*
X100995238Y-87333690D01*
X100876190Y-86809880D02*
X100757143Y-87167023D01*
X100757143Y-87167023D02*
X101066666Y-87167023D01*
%TO.C,L1*%
X132716666Y-93983690D02*
X132478571Y-93983690D01*
X132478571Y-93983690D02*
X132478571Y-93483690D01*
X133145238Y-93983690D02*
X132859524Y-93983690D01*
X133002381Y-93983690D02*
X133002381Y-93483690D01*
X133002381Y-93483690D02*
X132954762Y-93555119D01*
X132954762Y-93555119D02*
X132907143Y-93602738D01*
X132907143Y-93602738D02*
X132859524Y-93626547D01*
%TO.C,R11*%
X132728571Y-98633690D02*
X132561905Y-98395595D01*
X132442857Y-98633690D02*
X132442857Y-98133690D01*
X132442857Y-98133690D02*
X132633333Y-98133690D01*
X132633333Y-98133690D02*
X132680952Y-98157500D01*
X132680952Y-98157500D02*
X132704762Y-98181309D01*
X132704762Y-98181309D02*
X132728571Y-98228928D01*
X132728571Y-98228928D02*
X132728571Y-98300357D01*
X132728571Y-98300357D02*
X132704762Y-98347976D01*
X132704762Y-98347976D02*
X132680952Y-98371785D01*
X132680952Y-98371785D02*
X132633333Y-98395595D01*
X132633333Y-98395595D02*
X132442857Y-98395595D01*
X133204762Y-98633690D02*
X132919048Y-98633690D01*
X133061905Y-98633690D02*
X133061905Y-98133690D01*
X133061905Y-98133690D02*
X133014286Y-98205119D01*
X133014286Y-98205119D02*
X132966667Y-98252738D01*
X132966667Y-98252738D02*
X132919048Y-98276547D01*
X133680952Y-98633690D02*
X133395238Y-98633690D01*
X133538095Y-98633690D02*
X133538095Y-98133690D01*
X133538095Y-98133690D02*
X133490476Y-98205119D01*
X133490476Y-98205119D02*
X133442857Y-98252738D01*
X133442857Y-98252738D02*
X133395238Y-98276547D01*
%TO.C,R9*%
X102616666Y-65683690D02*
X102450000Y-65445595D01*
X102330952Y-65683690D02*
X102330952Y-65183690D01*
X102330952Y-65183690D02*
X102521428Y-65183690D01*
X102521428Y-65183690D02*
X102569047Y-65207500D01*
X102569047Y-65207500D02*
X102592857Y-65231309D01*
X102592857Y-65231309D02*
X102616666Y-65278928D01*
X102616666Y-65278928D02*
X102616666Y-65350357D01*
X102616666Y-65350357D02*
X102592857Y-65397976D01*
X102592857Y-65397976D02*
X102569047Y-65421785D01*
X102569047Y-65421785D02*
X102521428Y-65445595D01*
X102521428Y-65445595D02*
X102330952Y-65445595D01*
X102854762Y-65683690D02*
X102950000Y-65683690D01*
X102950000Y-65683690D02*
X102997619Y-65659880D01*
X102997619Y-65659880D02*
X103021428Y-65636071D01*
X103021428Y-65636071D02*
X103069047Y-65564642D01*
X103069047Y-65564642D02*
X103092857Y-65469404D01*
X103092857Y-65469404D02*
X103092857Y-65278928D01*
X103092857Y-65278928D02*
X103069047Y-65231309D01*
X103069047Y-65231309D02*
X103045238Y-65207500D01*
X103045238Y-65207500D02*
X102997619Y-65183690D01*
X102997619Y-65183690D02*
X102902381Y-65183690D01*
X102902381Y-65183690D02*
X102854762Y-65207500D01*
X102854762Y-65207500D02*
X102830952Y-65231309D01*
X102830952Y-65231309D02*
X102807143Y-65278928D01*
X102807143Y-65278928D02*
X102807143Y-65397976D01*
X102807143Y-65397976D02*
X102830952Y-65445595D01*
X102830952Y-65445595D02*
X102854762Y-65469404D01*
X102854762Y-65469404D02*
X102902381Y-65493214D01*
X102902381Y-65493214D02*
X102997619Y-65493214D01*
X102997619Y-65493214D02*
X103045238Y-65469404D01*
X103045238Y-65469404D02*
X103069047Y-65445595D01*
X103069047Y-65445595D02*
X103092857Y-65397976D01*
%TO.C,U3*%
X125019047Y-97633690D02*
X125019047Y-98038452D01*
X125019047Y-98038452D02*
X125042857Y-98086071D01*
X125042857Y-98086071D02*
X125066666Y-98109880D01*
X125066666Y-98109880D02*
X125114285Y-98133690D01*
X125114285Y-98133690D02*
X125209523Y-98133690D01*
X125209523Y-98133690D02*
X125257142Y-98109880D01*
X125257142Y-98109880D02*
X125280952Y-98086071D01*
X125280952Y-98086071D02*
X125304761Y-98038452D01*
X125304761Y-98038452D02*
X125304761Y-97633690D01*
X125495238Y-97633690D02*
X125804762Y-97633690D01*
X125804762Y-97633690D02*
X125638095Y-97824166D01*
X125638095Y-97824166D02*
X125709524Y-97824166D01*
X125709524Y-97824166D02*
X125757143Y-97847976D01*
X125757143Y-97847976D02*
X125780952Y-97871785D01*
X125780952Y-97871785D02*
X125804762Y-97919404D01*
X125804762Y-97919404D02*
X125804762Y-98038452D01*
X125804762Y-98038452D02*
X125780952Y-98086071D01*
X125780952Y-98086071D02*
X125757143Y-98109880D01*
X125757143Y-98109880D02*
X125709524Y-98133690D01*
X125709524Y-98133690D02*
X125566667Y-98133690D01*
X125566667Y-98133690D02*
X125519048Y-98109880D01*
X125519048Y-98109880D02*
X125495238Y-98086071D01*
%TO.C,C4*%
X100986071Y-53483333D02*
X101009880Y-53507142D01*
X101009880Y-53507142D02*
X101033690Y-53578571D01*
X101033690Y-53578571D02*
X101033690Y-53626190D01*
X101033690Y-53626190D02*
X101009880Y-53697618D01*
X101009880Y-53697618D02*
X100962261Y-53745237D01*
X100962261Y-53745237D02*
X100914642Y-53769047D01*
X100914642Y-53769047D02*
X100819404Y-53792856D01*
X100819404Y-53792856D02*
X100747976Y-53792856D01*
X100747976Y-53792856D02*
X100652738Y-53769047D01*
X100652738Y-53769047D02*
X100605119Y-53745237D01*
X100605119Y-53745237D02*
X100557500Y-53697618D01*
X100557500Y-53697618D02*
X100533690Y-53626190D01*
X100533690Y-53626190D02*
X100533690Y-53578571D01*
X100533690Y-53578571D02*
X100557500Y-53507142D01*
X100557500Y-53507142D02*
X100581309Y-53483333D01*
X100700357Y-53054761D02*
X101033690Y-53054761D01*
X100509880Y-53173809D02*
X100867023Y-53292856D01*
X100867023Y-53292856D02*
X100867023Y-52983333D01*
%TO.C,C13*%
X95028571Y-93736071D02*
X95004762Y-93759880D01*
X95004762Y-93759880D02*
X94933333Y-93783690D01*
X94933333Y-93783690D02*
X94885714Y-93783690D01*
X94885714Y-93783690D02*
X94814286Y-93759880D01*
X94814286Y-93759880D02*
X94766667Y-93712261D01*
X94766667Y-93712261D02*
X94742857Y-93664642D01*
X94742857Y-93664642D02*
X94719048Y-93569404D01*
X94719048Y-93569404D02*
X94719048Y-93497976D01*
X94719048Y-93497976D02*
X94742857Y-93402738D01*
X94742857Y-93402738D02*
X94766667Y-93355119D01*
X94766667Y-93355119D02*
X94814286Y-93307500D01*
X94814286Y-93307500D02*
X94885714Y-93283690D01*
X94885714Y-93283690D02*
X94933333Y-93283690D01*
X94933333Y-93283690D02*
X95004762Y-93307500D01*
X95004762Y-93307500D02*
X95028571Y-93331309D01*
X95504762Y-93783690D02*
X95219048Y-93783690D01*
X95361905Y-93783690D02*
X95361905Y-93283690D01*
X95361905Y-93283690D02*
X95314286Y-93355119D01*
X95314286Y-93355119D02*
X95266667Y-93402738D01*
X95266667Y-93402738D02*
X95219048Y-93426547D01*
X95671428Y-93283690D02*
X95980952Y-93283690D01*
X95980952Y-93283690D02*
X95814285Y-93474166D01*
X95814285Y-93474166D02*
X95885714Y-93474166D01*
X95885714Y-93474166D02*
X95933333Y-93497976D01*
X95933333Y-93497976D02*
X95957142Y-93521785D01*
X95957142Y-93521785D02*
X95980952Y-93569404D01*
X95980952Y-93569404D02*
X95980952Y-93688452D01*
X95980952Y-93688452D02*
X95957142Y-93736071D01*
X95957142Y-93736071D02*
X95933333Y-93759880D01*
X95933333Y-93759880D02*
X95885714Y-93783690D01*
X95885714Y-93783690D02*
X95742857Y-93783690D01*
X95742857Y-93783690D02*
X95695238Y-93759880D01*
X95695238Y-93759880D02*
X95671428Y-93736071D01*
%TO.C,U4*%
X108569047Y-114433690D02*
X108569047Y-114838452D01*
X108569047Y-114838452D02*
X108592857Y-114886071D01*
X108592857Y-114886071D02*
X108616666Y-114909880D01*
X108616666Y-114909880D02*
X108664285Y-114933690D01*
X108664285Y-114933690D02*
X108759523Y-114933690D01*
X108759523Y-114933690D02*
X108807142Y-114909880D01*
X108807142Y-114909880D02*
X108830952Y-114886071D01*
X108830952Y-114886071D02*
X108854761Y-114838452D01*
X108854761Y-114838452D02*
X108854761Y-114433690D01*
X109307143Y-114600357D02*
X109307143Y-114933690D01*
X109188095Y-114409880D02*
X109069048Y-114767023D01*
X109069048Y-114767023D02*
X109378571Y-114767023D01*
D12*
%TO.C,U2*%
X119038095Y-71517380D02*
X119038095Y-72326904D01*
X119038095Y-72326904D02*
X119085714Y-72422142D01*
X119085714Y-72422142D02*
X119133333Y-72469761D01*
X119133333Y-72469761D02*
X119228571Y-72517380D01*
X119228571Y-72517380D02*
X119419047Y-72517380D01*
X119419047Y-72517380D02*
X119514285Y-72469761D01*
X119514285Y-72469761D02*
X119561904Y-72422142D01*
X119561904Y-72422142D02*
X119609523Y-72326904D01*
X119609523Y-72326904D02*
X119609523Y-71517380D01*
X120038095Y-71612619D02*
X120085714Y-71565000D01*
X120085714Y-71565000D02*
X120180952Y-71517380D01*
X120180952Y-71517380D02*
X120419047Y-71517380D01*
X120419047Y-71517380D02*
X120514285Y-71565000D01*
X120514285Y-71565000D02*
X120561904Y-71612619D01*
X120561904Y-71612619D02*
X120609523Y-71707857D01*
X120609523Y-71707857D02*
X120609523Y-71803095D01*
X120609523Y-71803095D02*
X120561904Y-71945952D01*
X120561904Y-71945952D02*
X119990476Y-72517380D01*
X119990476Y-72517380D02*
X120609523Y-72517380D01*
D13*
%TO.C,C8*%
X132716666Y-97186071D02*
X132692857Y-97209880D01*
X132692857Y-97209880D02*
X132621428Y-97233690D01*
X132621428Y-97233690D02*
X132573809Y-97233690D01*
X132573809Y-97233690D02*
X132502381Y-97209880D01*
X132502381Y-97209880D02*
X132454762Y-97162261D01*
X132454762Y-97162261D02*
X132430952Y-97114642D01*
X132430952Y-97114642D02*
X132407143Y-97019404D01*
X132407143Y-97019404D02*
X132407143Y-96947976D01*
X132407143Y-96947976D02*
X132430952Y-96852738D01*
X132430952Y-96852738D02*
X132454762Y-96805119D01*
X132454762Y-96805119D02*
X132502381Y-96757500D01*
X132502381Y-96757500D02*
X132573809Y-96733690D01*
X132573809Y-96733690D02*
X132621428Y-96733690D01*
X132621428Y-96733690D02*
X132692857Y-96757500D01*
X132692857Y-96757500D02*
X132716666Y-96781309D01*
X133002381Y-96947976D02*
X132954762Y-96924166D01*
X132954762Y-96924166D02*
X132930952Y-96900357D01*
X132930952Y-96900357D02*
X132907143Y-96852738D01*
X132907143Y-96852738D02*
X132907143Y-96828928D01*
X132907143Y-96828928D02*
X132930952Y-96781309D01*
X132930952Y-96781309D02*
X132954762Y-96757500D01*
X132954762Y-96757500D02*
X133002381Y-96733690D01*
X133002381Y-96733690D02*
X133097619Y-96733690D01*
X133097619Y-96733690D02*
X133145238Y-96757500D01*
X133145238Y-96757500D02*
X133169047Y-96781309D01*
X133169047Y-96781309D02*
X133192857Y-96828928D01*
X133192857Y-96828928D02*
X133192857Y-96852738D01*
X133192857Y-96852738D02*
X133169047Y-96900357D01*
X133169047Y-96900357D02*
X133145238Y-96924166D01*
X133145238Y-96924166D02*
X133097619Y-96947976D01*
X133097619Y-96947976D02*
X133002381Y-96947976D01*
X133002381Y-96947976D02*
X132954762Y-96971785D01*
X132954762Y-96971785D02*
X132930952Y-96995595D01*
X132930952Y-96995595D02*
X132907143Y-97043214D01*
X132907143Y-97043214D02*
X132907143Y-97138452D01*
X132907143Y-97138452D02*
X132930952Y-97186071D01*
X132930952Y-97186071D02*
X132954762Y-97209880D01*
X132954762Y-97209880D02*
X133002381Y-97233690D01*
X133002381Y-97233690D02*
X133097619Y-97233690D01*
X133097619Y-97233690D02*
X133145238Y-97209880D01*
X133145238Y-97209880D02*
X133169047Y-97186071D01*
X133169047Y-97186071D02*
X133192857Y-97138452D01*
X133192857Y-97138452D02*
X133192857Y-97043214D01*
X133192857Y-97043214D02*
X133169047Y-96995595D01*
X133169047Y-96995595D02*
X133145238Y-96971785D01*
X133145238Y-96971785D02*
X133097619Y-96947976D01*
%TO.C,C7*%
X128316666Y-86336071D02*
X128292857Y-86359880D01*
X128292857Y-86359880D02*
X128221428Y-86383690D01*
X128221428Y-86383690D02*
X128173809Y-86383690D01*
X128173809Y-86383690D02*
X128102381Y-86359880D01*
X128102381Y-86359880D02*
X128054762Y-86312261D01*
X128054762Y-86312261D02*
X128030952Y-86264642D01*
X128030952Y-86264642D02*
X128007143Y-86169404D01*
X128007143Y-86169404D02*
X128007143Y-86097976D01*
X128007143Y-86097976D02*
X128030952Y-86002738D01*
X128030952Y-86002738D02*
X128054762Y-85955119D01*
X128054762Y-85955119D02*
X128102381Y-85907500D01*
X128102381Y-85907500D02*
X128173809Y-85883690D01*
X128173809Y-85883690D02*
X128221428Y-85883690D01*
X128221428Y-85883690D02*
X128292857Y-85907500D01*
X128292857Y-85907500D02*
X128316666Y-85931309D01*
X128483333Y-85883690D02*
X128816666Y-85883690D01*
X128816666Y-85883690D02*
X128602381Y-86383690D01*
%TO.C,R15*%
X108228571Y-104283690D02*
X108061905Y-104045595D01*
X107942857Y-104283690D02*
X107942857Y-103783690D01*
X107942857Y-103783690D02*
X108133333Y-103783690D01*
X108133333Y-103783690D02*
X108180952Y-103807500D01*
X108180952Y-103807500D02*
X108204762Y-103831309D01*
X108204762Y-103831309D02*
X108228571Y-103878928D01*
X108228571Y-103878928D02*
X108228571Y-103950357D01*
X108228571Y-103950357D02*
X108204762Y-103997976D01*
X108204762Y-103997976D02*
X108180952Y-104021785D01*
X108180952Y-104021785D02*
X108133333Y-104045595D01*
X108133333Y-104045595D02*
X107942857Y-104045595D01*
X108704762Y-104283690D02*
X108419048Y-104283690D01*
X108561905Y-104283690D02*
X108561905Y-103783690D01*
X108561905Y-103783690D02*
X108514286Y-103855119D01*
X108514286Y-103855119D02*
X108466667Y-103902738D01*
X108466667Y-103902738D02*
X108419048Y-103926547D01*
X109157142Y-103783690D02*
X108919047Y-103783690D01*
X108919047Y-103783690D02*
X108895238Y-104021785D01*
X108895238Y-104021785D02*
X108919047Y-103997976D01*
X108919047Y-103997976D02*
X108966666Y-103974166D01*
X108966666Y-103974166D02*
X109085714Y-103974166D01*
X109085714Y-103974166D02*
X109133333Y-103997976D01*
X109133333Y-103997976D02*
X109157142Y-104021785D01*
X109157142Y-104021785D02*
X109180952Y-104069404D01*
X109180952Y-104069404D02*
X109180952Y-104188452D01*
X109180952Y-104188452D02*
X109157142Y-104236071D01*
X109157142Y-104236071D02*
X109133333Y-104259880D01*
X109133333Y-104259880D02*
X109085714Y-104283690D01*
X109085714Y-104283690D02*
X108966666Y-104283690D01*
X108966666Y-104283690D02*
X108919047Y-104259880D01*
X108919047Y-104259880D02*
X108895238Y-104236071D01*
%TO.C,R6*%
X104266666Y-58283690D02*
X104100000Y-58045595D01*
X103980952Y-58283690D02*
X103980952Y-57783690D01*
X103980952Y-57783690D02*
X104171428Y-57783690D01*
X104171428Y-57783690D02*
X104219047Y-57807500D01*
X104219047Y-57807500D02*
X104242857Y-57831309D01*
X104242857Y-57831309D02*
X104266666Y-57878928D01*
X104266666Y-57878928D02*
X104266666Y-57950357D01*
X104266666Y-57950357D02*
X104242857Y-57997976D01*
X104242857Y-57997976D02*
X104219047Y-58021785D01*
X104219047Y-58021785D02*
X104171428Y-58045595D01*
X104171428Y-58045595D02*
X103980952Y-58045595D01*
X104695238Y-57783690D02*
X104600000Y-57783690D01*
X104600000Y-57783690D02*
X104552381Y-57807500D01*
X104552381Y-57807500D02*
X104528571Y-57831309D01*
X104528571Y-57831309D02*
X104480952Y-57902738D01*
X104480952Y-57902738D02*
X104457143Y-57997976D01*
X104457143Y-57997976D02*
X104457143Y-58188452D01*
X104457143Y-58188452D02*
X104480952Y-58236071D01*
X104480952Y-58236071D02*
X104504762Y-58259880D01*
X104504762Y-58259880D02*
X104552381Y-58283690D01*
X104552381Y-58283690D02*
X104647619Y-58283690D01*
X104647619Y-58283690D02*
X104695238Y-58259880D01*
X104695238Y-58259880D02*
X104719047Y-58236071D01*
X104719047Y-58236071D02*
X104742857Y-58188452D01*
X104742857Y-58188452D02*
X104742857Y-58069404D01*
X104742857Y-58069404D02*
X104719047Y-58021785D01*
X104719047Y-58021785D02*
X104695238Y-57997976D01*
X104695238Y-57997976D02*
X104647619Y-57974166D01*
X104647619Y-57974166D02*
X104552381Y-57974166D01*
X104552381Y-57974166D02*
X104504762Y-57997976D01*
X104504762Y-57997976D02*
X104480952Y-58021785D01*
X104480952Y-58021785D02*
X104457143Y-58069404D01*
%TO.C,D2*%
X106133690Y-106969047D02*
X105633690Y-106969047D01*
X105633690Y-106969047D02*
X105633690Y-106849999D01*
X105633690Y-106849999D02*
X105657500Y-106778571D01*
X105657500Y-106778571D02*
X105705119Y-106730952D01*
X105705119Y-106730952D02*
X105752738Y-106707142D01*
X105752738Y-106707142D02*
X105847976Y-106683333D01*
X105847976Y-106683333D02*
X105919404Y-106683333D01*
X105919404Y-106683333D02*
X106014642Y-106707142D01*
X106014642Y-106707142D02*
X106062261Y-106730952D01*
X106062261Y-106730952D02*
X106109880Y-106778571D01*
X106109880Y-106778571D02*
X106133690Y-106849999D01*
X106133690Y-106849999D02*
X106133690Y-106969047D01*
X105681309Y-106492856D02*
X105657500Y-106469047D01*
X105657500Y-106469047D02*
X105633690Y-106421428D01*
X105633690Y-106421428D02*
X105633690Y-106302380D01*
X105633690Y-106302380D02*
X105657500Y-106254761D01*
X105657500Y-106254761D02*
X105681309Y-106230952D01*
X105681309Y-106230952D02*
X105728928Y-106207142D01*
X105728928Y-106207142D02*
X105776547Y-106207142D01*
X105776547Y-106207142D02*
X105847976Y-106230952D01*
X105847976Y-106230952D02*
X106133690Y-106516666D01*
X106133690Y-106516666D02*
X106133690Y-106207142D01*
D12*
%TO.C,J4*%
X95517380Y-119383333D02*
X96231666Y-119383333D01*
X96231666Y-119383333D02*
X96374523Y-119430952D01*
X96374523Y-119430952D02*
X96469761Y-119526190D01*
X96469761Y-119526190D02*
X96517380Y-119669047D01*
X96517380Y-119669047D02*
X96517380Y-119764285D01*
X95850714Y-118478571D02*
X96517380Y-118478571D01*
X95469761Y-118716666D02*
X96184047Y-118954761D01*
X96184047Y-118954761D02*
X96184047Y-118335714D01*
D13*
%TO.C,R3*%
X124116666Y-102033690D02*
X123950000Y-101795595D01*
X123830952Y-102033690D02*
X123830952Y-101533690D01*
X123830952Y-101533690D02*
X124021428Y-101533690D01*
X124021428Y-101533690D02*
X124069047Y-101557500D01*
X124069047Y-101557500D02*
X124092857Y-101581309D01*
X124092857Y-101581309D02*
X124116666Y-101628928D01*
X124116666Y-101628928D02*
X124116666Y-101700357D01*
X124116666Y-101700357D02*
X124092857Y-101747976D01*
X124092857Y-101747976D02*
X124069047Y-101771785D01*
X124069047Y-101771785D02*
X124021428Y-101795595D01*
X124021428Y-101795595D02*
X123830952Y-101795595D01*
X124283333Y-101533690D02*
X124592857Y-101533690D01*
X124592857Y-101533690D02*
X124426190Y-101724166D01*
X124426190Y-101724166D02*
X124497619Y-101724166D01*
X124497619Y-101724166D02*
X124545238Y-101747976D01*
X124545238Y-101747976D02*
X124569047Y-101771785D01*
X124569047Y-101771785D02*
X124592857Y-101819404D01*
X124592857Y-101819404D02*
X124592857Y-101938452D01*
X124592857Y-101938452D02*
X124569047Y-101986071D01*
X124569047Y-101986071D02*
X124545238Y-102009880D01*
X124545238Y-102009880D02*
X124497619Y-102033690D01*
X124497619Y-102033690D02*
X124354762Y-102033690D01*
X124354762Y-102033690D02*
X124307143Y-102009880D01*
X124307143Y-102009880D02*
X124283333Y-101986071D01*
%TO.C,R5*%
X110766666Y-114983690D02*
X110600000Y-114745595D01*
X110480952Y-114983690D02*
X110480952Y-114483690D01*
X110480952Y-114483690D02*
X110671428Y-114483690D01*
X110671428Y-114483690D02*
X110719047Y-114507500D01*
X110719047Y-114507500D02*
X110742857Y-114531309D01*
X110742857Y-114531309D02*
X110766666Y-114578928D01*
X110766666Y-114578928D02*
X110766666Y-114650357D01*
X110766666Y-114650357D02*
X110742857Y-114697976D01*
X110742857Y-114697976D02*
X110719047Y-114721785D01*
X110719047Y-114721785D02*
X110671428Y-114745595D01*
X110671428Y-114745595D02*
X110480952Y-114745595D01*
X111219047Y-114483690D02*
X110980952Y-114483690D01*
X110980952Y-114483690D02*
X110957143Y-114721785D01*
X110957143Y-114721785D02*
X110980952Y-114697976D01*
X110980952Y-114697976D02*
X111028571Y-114674166D01*
X111028571Y-114674166D02*
X111147619Y-114674166D01*
X111147619Y-114674166D02*
X111195238Y-114697976D01*
X111195238Y-114697976D02*
X111219047Y-114721785D01*
X111219047Y-114721785D02*
X111242857Y-114769404D01*
X111242857Y-114769404D02*
X111242857Y-114888452D01*
X111242857Y-114888452D02*
X111219047Y-114936071D01*
X111219047Y-114936071D02*
X111195238Y-114959880D01*
X111195238Y-114959880D02*
X111147619Y-114983690D01*
X111147619Y-114983690D02*
X111028571Y-114983690D01*
X111028571Y-114983690D02*
X110980952Y-114959880D01*
X110980952Y-114959880D02*
X110957143Y-114936071D01*
%TO.C,J2*%
X131733333Y-50853690D02*
X131733333Y-51210833D01*
X131733333Y-51210833D02*
X131709524Y-51282261D01*
X131709524Y-51282261D02*
X131661905Y-51329880D01*
X131661905Y-51329880D02*
X131590476Y-51353690D01*
X131590476Y-51353690D02*
X131542857Y-51353690D01*
X131947619Y-50901309D02*
X131971428Y-50877500D01*
X131971428Y-50877500D02*
X132019047Y-50853690D01*
X132019047Y-50853690D02*
X132138095Y-50853690D01*
X132138095Y-50853690D02*
X132185714Y-50877500D01*
X132185714Y-50877500D02*
X132209523Y-50901309D01*
X132209523Y-50901309D02*
X132233333Y-50948928D01*
X132233333Y-50948928D02*
X132233333Y-50996547D01*
X132233333Y-50996547D02*
X132209523Y-51067976D01*
X132209523Y-51067976D02*
X131923809Y-51353690D01*
X131923809Y-51353690D02*
X132233333Y-51353690D01*
%TO.C,D1*%
X95830952Y-57583690D02*
X95830952Y-57083690D01*
X95830952Y-57083690D02*
X95950000Y-57083690D01*
X95950000Y-57083690D02*
X96021428Y-57107500D01*
X96021428Y-57107500D02*
X96069047Y-57155119D01*
X96069047Y-57155119D02*
X96092857Y-57202738D01*
X96092857Y-57202738D02*
X96116666Y-57297976D01*
X96116666Y-57297976D02*
X96116666Y-57369404D01*
X96116666Y-57369404D02*
X96092857Y-57464642D01*
X96092857Y-57464642D02*
X96069047Y-57512261D01*
X96069047Y-57512261D02*
X96021428Y-57559880D01*
X96021428Y-57559880D02*
X95950000Y-57583690D01*
X95950000Y-57583690D02*
X95830952Y-57583690D01*
X96592857Y-57583690D02*
X96307143Y-57583690D01*
X96450000Y-57583690D02*
X96450000Y-57083690D01*
X96450000Y-57083690D02*
X96402381Y-57155119D01*
X96402381Y-57155119D02*
X96354762Y-57202738D01*
X96354762Y-57202738D02*
X96307143Y-57226547D01*
%TO.C,U5*%
X103769047Y-94133690D02*
X103769047Y-94538452D01*
X103769047Y-94538452D02*
X103792857Y-94586071D01*
X103792857Y-94586071D02*
X103816666Y-94609880D01*
X103816666Y-94609880D02*
X103864285Y-94633690D01*
X103864285Y-94633690D02*
X103959523Y-94633690D01*
X103959523Y-94633690D02*
X104007142Y-94609880D01*
X104007142Y-94609880D02*
X104030952Y-94586071D01*
X104030952Y-94586071D02*
X104054761Y-94538452D01*
X104054761Y-94538452D02*
X104054761Y-94133690D01*
X104530952Y-94133690D02*
X104292857Y-94133690D01*
X104292857Y-94133690D02*
X104269048Y-94371785D01*
X104269048Y-94371785D02*
X104292857Y-94347976D01*
X104292857Y-94347976D02*
X104340476Y-94324166D01*
X104340476Y-94324166D02*
X104459524Y-94324166D01*
X104459524Y-94324166D02*
X104507143Y-94347976D01*
X104507143Y-94347976D02*
X104530952Y-94371785D01*
X104530952Y-94371785D02*
X104554762Y-94419404D01*
X104554762Y-94419404D02*
X104554762Y-94538452D01*
X104554762Y-94538452D02*
X104530952Y-94586071D01*
X104530952Y-94586071D02*
X104507143Y-94609880D01*
X104507143Y-94609880D02*
X104459524Y-94633690D01*
X104459524Y-94633690D02*
X104340476Y-94633690D01*
X104340476Y-94633690D02*
X104292857Y-94609880D01*
X104292857Y-94609880D02*
X104269048Y-94586071D01*
%TO.C,R8*%
X102566666Y-64083690D02*
X102400000Y-63845595D01*
X102280952Y-64083690D02*
X102280952Y-63583690D01*
X102280952Y-63583690D02*
X102471428Y-63583690D01*
X102471428Y-63583690D02*
X102519047Y-63607500D01*
X102519047Y-63607500D02*
X102542857Y-63631309D01*
X102542857Y-63631309D02*
X102566666Y-63678928D01*
X102566666Y-63678928D02*
X102566666Y-63750357D01*
X102566666Y-63750357D02*
X102542857Y-63797976D01*
X102542857Y-63797976D02*
X102519047Y-63821785D01*
X102519047Y-63821785D02*
X102471428Y-63845595D01*
X102471428Y-63845595D02*
X102280952Y-63845595D01*
X102852381Y-63797976D02*
X102804762Y-63774166D01*
X102804762Y-63774166D02*
X102780952Y-63750357D01*
X102780952Y-63750357D02*
X102757143Y-63702738D01*
X102757143Y-63702738D02*
X102757143Y-63678928D01*
X102757143Y-63678928D02*
X102780952Y-63631309D01*
X102780952Y-63631309D02*
X102804762Y-63607500D01*
X102804762Y-63607500D02*
X102852381Y-63583690D01*
X102852381Y-63583690D02*
X102947619Y-63583690D01*
X102947619Y-63583690D02*
X102995238Y-63607500D01*
X102995238Y-63607500D02*
X103019047Y-63631309D01*
X103019047Y-63631309D02*
X103042857Y-63678928D01*
X103042857Y-63678928D02*
X103042857Y-63702738D01*
X103042857Y-63702738D02*
X103019047Y-63750357D01*
X103019047Y-63750357D02*
X102995238Y-63774166D01*
X102995238Y-63774166D02*
X102947619Y-63797976D01*
X102947619Y-63797976D02*
X102852381Y-63797976D01*
X102852381Y-63797976D02*
X102804762Y-63821785D01*
X102804762Y-63821785D02*
X102780952Y-63845595D01*
X102780952Y-63845595D02*
X102757143Y-63893214D01*
X102757143Y-63893214D02*
X102757143Y-63988452D01*
X102757143Y-63988452D02*
X102780952Y-64036071D01*
X102780952Y-64036071D02*
X102804762Y-64059880D01*
X102804762Y-64059880D02*
X102852381Y-64083690D01*
X102852381Y-64083690D02*
X102947619Y-64083690D01*
X102947619Y-64083690D02*
X102995238Y-64059880D01*
X102995238Y-64059880D02*
X103019047Y-64036071D01*
X103019047Y-64036071D02*
X103042857Y-63988452D01*
X103042857Y-63988452D02*
X103042857Y-63893214D01*
X103042857Y-63893214D02*
X103019047Y-63845595D01*
X103019047Y-63845595D02*
X102995238Y-63821785D01*
X102995238Y-63821785D02*
X102947619Y-63797976D01*
%TO.C,D3*%
X96483690Y-110919047D02*
X95983690Y-110919047D01*
X95983690Y-110919047D02*
X95983690Y-110799999D01*
X95983690Y-110799999D02*
X96007500Y-110728571D01*
X96007500Y-110728571D02*
X96055119Y-110680952D01*
X96055119Y-110680952D02*
X96102738Y-110657142D01*
X96102738Y-110657142D02*
X96197976Y-110633333D01*
X96197976Y-110633333D02*
X96269404Y-110633333D01*
X96269404Y-110633333D02*
X96364642Y-110657142D01*
X96364642Y-110657142D02*
X96412261Y-110680952D01*
X96412261Y-110680952D02*
X96459880Y-110728571D01*
X96459880Y-110728571D02*
X96483690Y-110799999D01*
X96483690Y-110799999D02*
X96483690Y-110919047D01*
X95983690Y-110466666D02*
X95983690Y-110157142D01*
X95983690Y-110157142D02*
X96174166Y-110323809D01*
X96174166Y-110323809D02*
X96174166Y-110252380D01*
X96174166Y-110252380D02*
X96197976Y-110204761D01*
X96197976Y-110204761D02*
X96221785Y-110180952D01*
X96221785Y-110180952D02*
X96269404Y-110157142D01*
X96269404Y-110157142D02*
X96388452Y-110157142D01*
X96388452Y-110157142D02*
X96436071Y-110180952D01*
X96436071Y-110180952D02*
X96459880Y-110204761D01*
X96459880Y-110204761D02*
X96483690Y-110252380D01*
X96483690Y-110252380D02*
X96483690Y-110395237D01*
X96483690Y-110395237D02*
X96459880Y-110442856D01*
X96459880Y-110442856D02*
X96436071Y-110466666D01*
%TO.C,C3*%
X105866666Y-50736071D02*
X105842857Y-50759880D01*
X105842857Y-50759880D02*
X105771428Y-50783690D01*
X105771428Y-50783690D02*
X105723809Y-50783690D01*
X105723809Y-50783690D02*
X105652381Y-50759880D01*
X105652381Y-50759880D02*
X105604762Y-50712261D01*
X105604762Y-50712261D02*
X105580952Y-50664642D01*
X105580952Y-50664642D02*
X105557143Y-50569404D01*
X105557143Y-50569404D02*
X105557143Y-50497976D01*
X105557143Y-50497976D02*
X105580952Y-50402738D01*
X105580952Y-50402738D02*
X105604762Y-50355119D01*
X105604762Y-50355119D02*
X105652381Y-50307500D01*
X105652381Y-50307500D02*
X105723809Y-50283690D01*
X105723809Y-50283690D02*
X105771428Y-50283690D01*
X105771428Y-50283690D02*
X105842857Y-50307500D01*
X105842857Y-50307500D02*
X105866666Y-50331309D01*
X106033333Y-50283690D02*
X106342857Y-50283690D01*
X106342857Y-50283690D02*
X106176190Y-50474166D01*
X106176190Y-50474166D02*
X106247619Y-50474166D01*
X106247619Y-50474166D02*
X106295238Y-50497976D01*
X106295238Y-50497976D02*
X106319047Y-50521785D01*
X106319047Y-50521785D02*
X106342857Y-50569404D01*
X106342857Y-50569404D02*
X106342857Y-50688452D01*
X106342857Y-50688452D02*
X106319047Y-50736071D01*
X106319047Y-50736071D02*
X106295238Y-50759880D01*
X106295238Y-50759880D02*
X106247619Y-50783690D01*
X106247619Y-50783690D02*
X106104762Y-50783690D01*
X106104762Y-50783690D02*
X106057143Y-50759880D01*
X106057143Y-50759880D02*
X106033333Y-50736071D01*
%TO.C,R16*%
X99028571Y-53583690D02*
X98861905Y-53345595D01*
X98742857Y-53583690D02*
X98742857Y-53083690D01*
X98742857Y-53083690D02*
X98933333Y-53083690D01*
X98933333Y-53083690D02*
X98980952Y-53107500D01*
X98980952Y-53107500D02*
X99004762Y-53131309D01*
X99004762Y-53131309D02*
X99028571Y-53178928D01*
X99028571Y-53178928D02*
X99028571Y-53250357D01*
X99028571Y-53250357D02*
X99004762Y-53297976D01*
X99004762Y-53297976D02*
X98980952Y-53321785D01*
X98980952Y-53321785D02*
X98933333Y-53345595D01*
X98933333Y-53345595D02*
X98742857Y-53345595D01*
X99504762Y-53583690D02*
X99219048Y-53583690D01*
X99361905Y-53583690D02*
X99361905Y-53083690D01*
X99361905Y-53083690D02*
X99314286Y-53155119D01*
X99314286Y-53155119D02*
X99266667Y-53202738D01*
X99266667Y-53202738D02*
X99219048Y-53226547D01*
X99933333Y-53083690D02*
X99838095Y-53083690D01*
X99838095Y-53083690D02*
X99790476Y-53107500D01*
X99790476Y-53107500D02*
X99766666Y-53131309D01*
X99766666Y-53131309D02*
X99719047Y-53202738D01*
X99719047Y-53202738D02*
X99695238Y-53297976D01*
X99695238Y-53297976D02*
X99695238Y-53488452D01*
X99695238Y-53488452D02*
X99719047Y-53536071D01*
X99719047Y-53536071D02*
X99742857Y-53559880D01*
X99742857Y-53559880D02*
X99790476Y-53583690D01*
X99790476Y-53583690D02*
X99885714Y-53583690D01*
X99885714Y-53583690D02*
X99933333Y-53559880D01*
X99933333Y-53559880D02*
X99957142Y-53536071D01*
X99957142Y-53536071D02*
X99980952Y-53488452D01*
X99980952Y-53488452D02*
X99980952Y-53369404D01*
X99980952Y-53369404D02*
X99957142Y-53321785D01*
X99957142Y-53321785D02*
X99933333Y-53297976D01*
X99933333Y-53297976D02*
X99885714Y-53274166D01*
X99885714Y-53274166D02*
X99790476Y-53274166D01*
X99790476Y-53274166D02*
X99742857Y-53297976D01*
X99742857Y-53297976D02*
X99719047Y-53321785D01*
X99719047Y-53321785D02*
X99695238Y-53369404D01*
%TO.C,C6*%
X123266666Y-100486071D02*
X123242857Y-100509880D01*
X123242857Y-100509880D02*
X123171428Y-100533690D01*
X123171428Y-100533690D02*
X123123809Y-100533690D01*
X123123809Y-100533690D02*
X123052381Y-100509880D01*
X123052381Y-100509880D02*
X123004762Y-100462261D01*
X123004762Y-100462261D02*
X122980952Y-100414642D01*
X122980952Y-100414642D02*
X122957143Y-100319404D01*
X122957143Y-100319404D02*
X122957143Y-100247976D01*
X122957143Y-100247976D02*
X122980952Y-100152738D01*
X122980952Y-100152738D02*
X123004762Y-100105119D01*
X123004762Y-100105119D02*
X123052381Y-100057500D01*
X123052381Y-100057500D02*
X123123809Y-100033690D01*
X123123809Y-100033690D02*
X123171428Y-100033690D01*
X123171428Y-100033690D02*
X123242857Y-100057500D01*
X123242857Y-100057500D02*
X123266666Y-100081309D01*
X123695238Y-100033690D02*
X123600000Y-100033690D01*
X123600000Y-100033690D02*
X123552381Y-100057500D01*
X123552381Y-100057500D02*
X123528571Y-100081309D01*
X123528571Y-100081309D02*
X123480952Y-100152738D01*
X123480952Y-100152738D02*
X123457143Y-100247976D01*
X123457143Y-100247976D02*
X123457143Y-100438452D01*
X123457143Y-100438452D02*
X123480952Y-100486071D01*
X123480952Y-100486071D02*
X123504762Y-100509880D01*
X123504762Y-100509880D02*
X123552381Y-100533690D01*
X123552381Y-100533690D02*
X123647619Y-100533690D01*
X123647619Y-100533690D02*
X123695238Y-100509880D01*
X123695238Y-100509880D02*
X123719047Y-100486071D01*
X123719047Y-100486071D02*
X123742857Y-100438452D01*
X123742857Y-100438452D02*
X123742857Y-100319404D01*
X123742857Y-100319404D02*
X123719047Y-100271785D01*
X123719047Y-100271785D02*
X123695238Y-100247976D01*
X123695238Y-100247976D02*
X123647619Y-100224166D01*
X123647619Y-100224166D02*
X123552381Y-100224166D01*
X123552381Y-100224166D02*
X123504762Y-100247976D01*
X123504762Y-100247976D02*
X123480952Y-100271785D01*
X123480952Y-100271785D02*
X123457143Y-100319404D01*
%TO.C,R7*%
X134316666Y-70833690D02*
X134150000Y-70595595D01*
X134030952Y-70833690D02*
X134030952Y-70333690D01*
X134030952Y-70333690D02*
X134221428Y-70333690D01*
X134221428Y-70333690D02*
X134269047Y-70357500D01*
X134269047Y-70357500D02*
X134292857Y-70381309D01*
X134292857Y-70381309D02*
X134316666Y-70428928D01*
X134316666Y-70428928D02*
X134316666Y-70500357D01*
X134316666Y-70500357D02*
X134292857Y-70547976D01*
X134292857Y-70547976D02*
X134269047Y-70571785D01*
X134269047Y-70571785D02*
X134221428Y-70595595D01*
X134221428Y-70595595D02*
X134030952Y-70595595D01*
X134483333Y-70333690D02*
X134816666Y-70333690D01*
X134816666Y-70333690D02*
X134602381Y-70833690D01*
%TO.C,R10*%
X102078571Y-68383690D02*
X101911905Y-68145595D01*
X101792857Y-68383690D02*
X101792857Y-67883690D01*
X101792857Y-67883690D02*
X101983333Y-67883690D01*
X101983333Y-67883690D02*
X102030952Y-67907500D01*
X102030952Y-67907500D02*
X102054762Y-67931309D01*
X102054762Y-67931309D02*
X102078571Y-67978928D01*
X102078571Y-67978928D02*
X102078571Y-68050357D01*
X102078571Y-68050357D02*
X102054762Y-68097976D01*
X102054762Y-68097976D02*
X102030952Y-68121785D01*
X102030952Y-68121785D02*
X101983333Y-68145595D01*
X101983333Y-68145595D02*
X101792857Y-68145595D01*
X102554762Y-68383690D02*
X102269048Y-68383690D01*
X102411905Y-68383690D02*
X102411905Y-67883690D01*
X102411905Y-67883690D02*
X102364286Y-67955119D01*
X102364286Y-67955119D02*
X102316667Y-68002738D01*
X102316667Y-68002738D02*
X102269048Y-68026547D01*
X102864285Y-67883690D02*
X102911904Y-67883690D01*
X102911904Y-67883690D02*
X102959523Y-67907500D01*
X102959523Y-67907500D02*
X102983333Y-67931309D01*
X102983333Y-67931309D02*
X103007142Y-67978928D01*
X103007142Y-67978928D02*
X103030952Y-68074166D01*
X103030952Y-68074166D02*
X103030952Y-68193214D01*
X103030952Y-68193214D02*
X103007142Y-68288452D01*
X103007142Y-68288452D02*
X102983333Y-68336071D01*
X102983333Y-68336071D02*
X102959523Y-68359880D01*
X102959523Y-68359880D02*
X102911904Y-68383690D01*
X102911904Y-68383690D02*
X102864285Y-68383690D01*
X102864285Y-68383690D02*
X102816666Y-68359880D01*
X102816666Y-68359880D02*
X102792857Y-68336071D01*
X102792857Y-68336071D02*
X102769047Y-68288452D01*
X102769047Y-68288452D02*
X102745238Y-68193214D01*
X102745238Y-68193214D02*
X102745238Y-68074166D01*
X102745238Y-68074166D02*
X102769047Y-67978928D01*
X102769047Y-67978928D02*
X102792857Y-67931309D01*
X102792857Y-67931309D02*
X102816666Y-67907500D01*
X102816666Y-67907500D02*
X102864285Y-67883690D01*
%TO.C,L2*%
X128866666Y-102033690D02*
X128628571Y-102033690D01*
X128628571Y-102033690D02*
X128628571Y-101533690D01*
X129009524Y-101581309D02*
X129033333Y-101557500D01*
X129033333Y-101557500D02*
X129080952Y-101533690D01*
X129080952Y-101533690D02*
X129200000Y-101533690D01*
X129200000Y-101533690D02*
X129247619Y-101557500D01*
X129247619Y-101557500D02*
X129271428Y-101581309D01*
X129271428Y-101581309D02*
X129295238Y-101628928D01*
X129295238Y-101628928D02*
X129295238Y-101676547D01*
X129295238Y-101676547D02*
X129271428Y-101747976D01*
X129271428Y-101747976D02*
X128985714Y-102033690D01*
X128985714Y-102033690D02*
X129295238Y-102033690D01*
%TO.C,R1*%
X112366666Y-102033690D02*
X112200000Y-101795595D01*
X112080952Y-102033690D02*
X112080952Y-101533690D01*
X112080952Y-101533690D02*
X112271428Y-101533690D01*
X112271428Y-101533690D02*
X112319047Y-101557500D01*
X112319047Y-101557500D02*
X112342857Y-101581309D01*
X112342857Y-101581309D02*
X112366666Y-101628928D01*
X112366666Y-101628928D02*
X112366666Y-101700357D01*
X112366666Y-101700357D02*
X112342857Y-101747976D01*
X112342857Y-101747976D02*
X112319047Y-101771785D01*
X112319047Y-101771785D02*
X112271428Y-101795595D01*
X112271428Y-101795595D02*
X112080952Y-101795595D01*
X112842857Y-102033690D02*
X112557143Y-102033690D01*
X112700000Y-102033690D02*
X112700000Y-101533690D01*
X112700000Y-101533690D02*
X112652381Y-101605119D01*
X112652381Y-101605119D02*
X112604762Y-101652738D01*
X112604762Y-101652738D02*
X112557143Y-101676547D01*
%TO.C,R2*%
X116366666Y-102033690D02*
X116200000Y-101795595D01*
X116080952Y-102033690D02*
X116080952Y-101533690D01*
X116080952Y-101533690D02*
X116271428Y-101533690D01*
X116271428Y-101533690D02*
X116319047Y-101557500D01*
X116319047Y-101557500D02*
X116342857Y-101581309D01*
X116342857Y-101581309D02*
X116366666Y-101628928D01*
X116366666Y-101628928D02*
X116366666Y-101700357D01*
X116366666Y-101700357D02*
X116342857Y-101747976D01*
X116342857Y-101747976D02*
X116319047Y-101771785D01*
X116319047Y-101771785D02*
X116271428Y-101795595D01*
X116271428Y-101795595D02*
X116080952Y-101795595D01*
X116557143Y-101581309D02*
X116580952Y-101557500D01*
X116580952Y-101557500D02*
X116628571Y-101533690D01*
X116628571Y-101533690D02*
X116747619Y-101533690D01*
X116747619Y-101533690D02*
X116795238Y-101557500D01*
X116795238Y-101557500D02*
X116819047Y-101581309D01*
X116819047Y-101581309D02*
X116842857Y-101628928D01*
X116842857Y-101628928D02*
X116842857Y-101676547D01*
X116842857Y-101676547D02*
X116819047Y-101747976D01*
X116819047Y-101747976D02*
X116533333Y-102033690D01*
X116533333Y-102033690D02*
X116842857Y-102033690D01*
%TO.C,R17*%
X97778571Y-87383690D02*
X97611905Y-87145595D01*
X97492857Y-87383690D02*
X97492857Y-86883690D01*
X97492857Y-86883690D02*
X97683333Y-86883690D01*
X97683333Y-86883690D02*
X97730952Y-86907500D01*
X97730952Y-86907500D02*
X97754762Y-86931309D01*
X97754762Y-86931309D02*
X97778571Y-86978928D01*
X97778571Y-86978928D02*
X97778571Y-87050357D01*
X97778571Y-87050357D02*
X97754762Y-87097976D01*
X97754762Y-87097976D02*
X97730952Y-87121785D01*
X97730952Y-87121785D02*
X97683333Y-87145595D01*
X97683333Y-87145595D02*
X97492857Y-87145595D01*
X98254762Y-87383690D02*
X97969048Y-87383690D01*
X98111905Y-87383690D02*
X98111905Y-86883690D01*
X98111905Y-86883690D02*
X98064286Y-86955119D01*
X98064286Y-86955119D02*
X98016667Y-87002738D01*
X98016667Y-87002738D02*
X97969048Y-87026547D01*
X98421428Y-86883690D02*
X98754761Y-86883690D01*
X98754761Y-86883690D02*
X98540476Y-87383690D01*
%TO.C,C12*%
X96286071Y-108871428D02*
X96309880Y-108895237D01*
X96309880Y-108895237D02*
X96333690Y-108966666D01*
X96333690Y-108966666D02*
X96333690Y-109014285D01*
X96333690Y-109014285D02*
X96309880Y-109085713D01*
X96309880Y-109085713D02*
X96262261Y-109133332D01*
X96262261Y-109133332D02*
X96214642Y-109157142D01*
X96214642Y-109157142D02*
X96119404Y-109180951D01*
X96119404Y-109180951D02*
X96047976Y-109180951D01*
X96047976Y-109180951D02*
X95952738Y-109157142D01*
X95952738Y-109157142D02*
X95905119Y-109133332D01*
X95905119Y-109133332D02*
X95857500Y-109085713D01*
X95857500Y-109085713D02*
X95833690Y-109014285D01*
X95833690Y-109014285D02*
X95833690Y-108966666D01*
X95833690Y-108966666D02*
X95857500Y-108895237D01*
X95857500Y-108895237D02*
X95881309Y-108871428D01*
X96333690Y-108395237D02*
X96333690Y-108680951D01*
X96333690Y-108538094D02*
X95833690Y-108538094D01*
X95833690Y-108538094D02*
X95905119Y-108585713D01*
X95905119Y-108585713D02*
X95952738Y-108633332D01*
X95952738Y-108633332D02*
X95976547Y-108680951D01*
X95881309Y-108204761D02*
X95857500Y-108180952D01*
X95857500Y-108180952D02*
X95833690Y-108133333D01*
X95833690Y-108133333D02*
X95833690Y-108014285D01*
X95833690Y-108014285D02*
X95857500Y-107966666D01*
X95857500Y-107966666D02*
X95881309Y-107942857D01*
X95881309Y-107942857D02*
X95928928Y-107919047D01*
X95928928Y-107919047D02*
X95976547Y-107919047D01*
X95976547Y-107919047D02*
X96047976Y-107942857D01*
X96047976Y-107942857D02*
X96333690Y-108228571D01*
X96333690Y-108228571D02*
X96333690Y-107919047D01*
%TO.C,C10*%
X115528571Y-96336071D02*
X115504762Y-96359880D01*
X115504762Y-96359880D02*
X115433333Y-96383690D01*
X115433333Y-96383690D02*
X115385714Y-96383690D01*
X115385714Y-96383690D02*
X115314286Y-96359880D01*
X115314286Y-96359880D02*
X115266667Y-96312261D01*
X115266667Y-96312261D02*
X115242857Y-96264642D01*
X115242857Y-96264642D02*
X115219048Y-96169404D01*
X115219048Y-96169404D02*
X115219048Y-96097976D01*
X115219048Y-96097976D02*
X115242857Y-96002738D01*
X115242857Y-96002738D02*
X115266667Y-95955119D01*
X115266667Y-95955119D02*
X115314286Y-95907500D01*
X115314286Y-95907500D02*
X115385714Y-95883690D01*
X115385714Y-95883690D02*
X115433333Y-95883690D01*
X115433333Y-95883690D02*
X115504762Y-95907500D01*
X115504762Y-95907500D02*
X115528571Y-95931309D01*
X116004762Y-96383690D02*
X115719048Y-96383690D01*
X115861905Y-96383690D02*
X115861905Y-95883690D01*
X115861905Y-95883690D02*
X115814286Y-95955119D01*
X115814286Y-95955119D02*
X115766667Y-96002738D01*
X115766667Y-96002738D02*
X115719048Y-96026547D01*
X116314285Y-95883690D02*
X116361904Y-95883690D01*
X116361904Y-95883690D02*
X116409523Y-95907500D01*
X116409523Y-95907500D02*
X116433333Y-95931309D01*
X116433333Y-95931309D02*
X116457142Y-95978928D01*
X116457142Y-95978928D02*
X116480952Y-96074166D01*
X116480952Y-96074166D02*
X116480952Y-96193214D01*
X116480952Y-96193214D02*
X116457142Y-96288452D01*
X116457142Y-96288452D02*
X116433333Y-96336071D01*
X116433333Y-96336071D02*
X116409523Y-96359880D01*
X116409523Y-96359880D02*
X116361904Y-96383690D01*
X116361904Y-96383690D02*
X116314285Y-96383690D01*
X116314285Y-96383690D02*
X116266666Y-96359880D01*
X116266666Y-96359880D02*
X116242857Y-96336071D01*
X116242857Y-96336071D02*
X116219047Y-96288452D01*
X116219047Y-96288452D02*
X116195238Y-96193214D01*
X116195238Y-96193214D02*
X116195238Y-96074166D01*
X116195238Y-96074166D02*
X116219047Y-95978928D01*
X116219047Y-95978928D02*
X116242857Y-95931309D01*
X116242857Y-95931309D02*
X116266666Y-95907500D01*
X116266666Y-95907500D02*
X116314285Y-95883690D01*
%TO.C,R4*%
X119766666Y-102033690D02*
X119600000Y-101795595D01*
X119480952Y-102033690D02*
X119480952Y-101533690D01*
X119480952Y-101533690D02*
X119671428Y-101533690D01*
X119671428Y-101533690D02*
X119719047Y-101557500D01*
X119719047Y-101557500D02*
X119742857Y-101581309D01*
X119742857Y-101581309D02*
X119766666Y-101628928D01*
X119766666Y-101628928D02*
X119766666Y-101700357D01*
X119766666Y-101700357D02*
X119742857Y-101747976D01*
X119742857Y-101747976D02*
X119719047Y-101771785D01*
X119719047Y-101771785D02*
X119671428Y-101795595D01*
X119671428Y-101795595D02*
X119480952Y-101795595D01*
X120195238Y-101700357D02*
X120195238Y-102033690D01*
X120076190Y-101509880D02*
X119957143Y-101867023D01*
X119957143Y-101867023D02*
X120266666Y-101867023D01*
D12*
%TO.C,C5*%
X101683333Y-114172142D02*
X101635714Y-114219761D01*
X101635714Y-114219761D02*
X101492857Y-114267380D01*
X101492857Y-114267380D02*
X101397619Y-114267380D01*
X101397619Y-114267380D02*
X101254762Y-114219761D01*
X101254762Y-114219761D02*
X101159524Y-114124523D01*
X101159524Y-114124523D02*
X101111905Y-114029285D01*
X101111905Y-114029285D02*
X101064286Y-113838809D01*
X101064286Y-113838809D02*
X101064286Y-113695952D01*
X101064286Y-113695952D02*
X101111905Y-113505476D01*
X101111905Y-113505476D02*
X101159524Y-113410238D01*
X101159524Y-113410238D02*
X101254762Y-113315000D01*
X101254762Y-113315000D02*
X101397619Y-113267380D01*
X101397619Y-113267380D02*
X101492857Y-113267380D01*
X101492857Y-113267380D02*
X101635714Y-113315000D01*
X101635714Y-113315000D02*
X101683333Y-113362619D01*
X102588095Y-113267380D02*
X102111905Y-113267380D01*
X102111905Y-113267380D02*
X102064286Y-113743571D01*
X102064286Y-113743571D02*
X102111905Y-113695952D01*
X102111905Y-113695952D02*
X102207143Y-113648333D01*
X102207143Y-113648333D02*
X102445238Y-113648333D01*
X102445238Y-113648333D02*
X102540476Y-113695952D01*
X102540476Y-113695952D02*
X102588095Y-113743571D01*
X102588095Y-113743571D02*
X102635714Y-113838809D01*
X102635714Y-113838809D02*
X102635714Y-114076904D01*
X102635714Y-114076904D02*
X102588095Y-114172142D01*
X102588095Y-114172142D02*
X102540476Y-114219761D01*
X102540476Y-114219761D02*
X102445238Y-114267380D01*
X102445238Y-114267380D02*
X102207143Y-114267380D01*
X102207143Y-114267380D02*
X102111905Y-114219761D01*
X102111905Y-114219761D02*
X102064286Y-114172142D01*
D13*
%TO.C,R13*%
X105128571Y-60133690D02*
X104961905Y-59895595D01*
X104842857Y-60133690D02*
X104842857Y-59633690D01*
X104842857Y-59633690D02*
X105033333Y-59633690D01*
X105033333Y-59633690D02*
X105080952Y-59657500D01*
X105080952Y-59657500D02*
X105104762Y-59681309D01*
X105104762Y-59681309D02*
X105128571Y-59728928D01*
X105128571Y-59728928D02*
X105128571Y-59800357D01*
X105128571Y-59800357D02*
X105104762Y-59847976D01*
X105104762Y-59847976D02*
X105080952Y-59871785D01*
X105080952Y-59871785D02*
X105033333Y-59895595D01*
X105033333Y-59895595D02*
X104842857Y-59895595D01*
X105604762Y-60133690D02*
X105319048Y-60133690D01*
X105461905Y-60133690D02*
X105461905Y-59633690D01*
X105461905Y-59633690D02*
X105414286Y-59705119D01*
X105414286Y-59705119D02*
X105366667Y-59752738D01*
X105366667Y-59752738D02*
X105319048Y-59776547D01*
X105771428Y-59633690D02*
X106080952Y-59633690D01*
X106080952Y-59633690D02*
X105914285Y-59824166D01*
X105914285Y-59824166D02*
X105985714Y-59824166D01*
X105985714Y-59824166D02*
X106033333Y-59847976D01*
X106033333Y-59847976D02*
X106057142Y-59871785D01*
X106057142Y-59871785D02*
X106080952Y-59919404D01*
X106080952Y-59919404D02*
X106080952Y-60038452D01*
X106080952Y-60038452D02*
X106057142Y-60086071D01*
X106057142Y-60086071D02*
X106033333Y-60109880D01*
X106033333Y-60109880D02*
X105985714Y-60133690D01*
X105985714Y-60133690D02*
X105842857Y-60133690D01*
X105842857Y-60133690D02*
X105795238Y-60109880D01*
X105795238Y-60109880D02*
X105771428Y-60086071D01*
%TO.C,C9*%
X124516666Y-86336071D02*
X124492857Y-86359880D01*
X124492857Y-86359880D02*
X124421428Y-86383690D01*
X124421428Y-86383690D02*
X124373809Y-86383690D01*
X124373809Y-86383690D02*
X124302381Y-86359880D01*
X124302381Y-86359880D02*
X124254762Y-86312261D01*
X124254762Y-86312261D02*
X124230952Y-86264642D01*
X124230952Y-86264642D02*
X124207143Y-86169404D01*
X124207143Y-86169404D02*
X124207143Y-86097976D01*
X124207143Y-86097976D02*
X124230952Y-86002738D01*
X124230952Y-86002738D02*
X124254762Y-85955119D01*
X124254762Y-85955119D02*
X124302381Y-85907500D01*
X124302381Y-85907500D02*
X124373809Y-85883690D01*
X124373809Y-85883690D02*
X124421428Y-85883690D01*
X124421428Y-85883690D02*
X124492857Y-85907500D01*
X124492857Y-85907500D02*
X124516666Y-85931309D01*
X124754762Y-86383690D02*
X124850000Y-86383690D01*
X124850000Y-86383690D02*
X124897619Y-86359880D01*
X124897619Y-86359880D02*
X124921428Y-86336071D01*
X124921428Y-86336071D02*
X124969047Y-86264642D01*
X124969047Y-86264642D02*
X124992857Y-86169404D01*
X124992857Y-86169404D02*
X124992857Y-85978928D01*
X124992857Y-85978928D02*
X124969047Y-85931309D01*
X124969047Y-85931309D02*
X124945238Y-85907500D01*
X124945238Y-85907500D02*
X124897619Y-85883690D01*
X124897619Y-85883690D02*
X124802381Y-85883690D01*
X124802381Y-85883690D02*
X124754762Y-85907500D01*
X124754762Y-85907500D02*
X124730952Y-85931309D01*
X124730952Y-85931309D02*
X124707143Y-85978928D01*
X124707143Y-85978928D02*
X124707143Y-86097976D01*
X124707143Y-86097976D02*
X124730952Y-86145595D01*
X124730952Y-86145595D02*
X124754762Y-86169404D01*
X124754762Y-86169404D02*
X124802381Y-86193214D01*
X124802381Y-86193214D02*
X124897619Y-86193214D01*
X124897619Y-86193214D02*
X124945238Y-86169404D01*
X124945238Y-86169404D02*
X124969047Y-86145595D01*
X124969047Y-86145595D02*
X124992857Y-86097976D01*
%TO.C,R12*%
X115578571Y-92033690D02*
X115411905Y-91795595D01*
X115292857Y-92033690D02*
X115292857Y-91533690D01*
X115292857Y-91533690D02*
X115483333Y-91533690D01*
X115483333Y-91533690D02*
X115530952Y-91557500D01*
X115530952Y-91557500D02*
X115554762Y-91581309D01*
X115554762Y-91581309D02*
X115578571Y-91628928D01*
X115578571Y-91628928D02*
X115578571Y-91700357D01*
X115578571Y-91700357D02*
X115554762Y-91747976D01*
X115554762Y-91747976D02*
X115530952Y-91771785D01*
X115530952Y-91771785D02*
X115483333Y-91795595D01*
X115483333Y-91795595D02*
X115292857Y-91795595D01*
X116054762Y-92033690D02*
X115769048Y-92033690D01*
X115911905Y-92033690D02*
X115911905Y-91533690D01*
X115911905Y-91533690D02*
X115864286Y-91605119D01*
X115864286Y-91605119D02*
X115816667Y-91652738D01*
X115816667Y-91652738D02*
X115769048Y-91676547D01*
X116245238Y-91581309D02*
X116269047Y-91557500D01*
X116269047Y-91557500D02*
X116316666Y-91533690D01*
X116316666Y-91533690D02*
X116435714Y-91533690D01*
X116435714Y-91533690D02*
X116483333Y-91557500D01*
X116483333Y-91557500D02*
X116507142Y-91581309D01*
X116507142Y-91581309D02*
X116530952Y-91628928D01*
X116530952Y-91628928D02*
X116530952Y-91676547D01*
X116530952Y-91676547D02*
X116507142Y-91747976D01*
X116507142Y-91747976D02*
X116221428Y-92033690D01*
X116221428Y-92033690D02*
X116530952Y-92033690D01*
%TO.C,C11*%
X115553571Y-95236071D02*
X115529762Y-95259880D01*
X115529762Y-95259880D02*
X115458333Y-95283690D01*
X115458333Y-95283690D02*
X115410714Y-95283690D01*
X115410714Y-95283690D02*
X115339286Y-95259880D01*
X115339286Y-95259880D02*
X115291667Y-95212261D01*
X115291667Y-95212261D02*
X115267857Y-95164642D01*
X115267857Y-95164642D02*
X115244048Y-95069404D01*
X115244048Y-95069404D02*
X115244048Y-94997976D01*
X115244048Y-94997976D02*
X115267857Y-94902738D01*
X115267857Y-94902738D02*
X115291667Y-94855119D01*
X115291667Y-94855119D02*
X115339286Y-94807500D01*
X115339286Y-94807500D02*
X115410714Y-94783690D01*
X115410714Y-94783690D02*
X115458333Y-94783690D01*
X115458333Y-94783690D02*
X115529762Y-94807500D01*
X115529762Y-94807500D02*
X115553571Y-94831309D01*
X116029762Y-95283690D02*
X115744048Y-95283690D01*
X115886905Y-95283690D02*
X115886905Y-94783690D01*
X115886905Y-94783690D02*
X115839286Y-94855119D01*
X115839286Y-94855119D02*
X115791667Y-94902738D01*
X115791667Y-94902738D02*
X115744048Y-94926547D01*
X116505952Y-95283690D02*
X116220238Y-95283690D01*
X116363095Y-95283690D02*
X116363095Y-94783690D01*
X116363095Y-94783690D02*
X116315476Y-94855119D01*
X116315476Y-94855119D02*
X116267857Y-94902738D01*
X116267857Y-94902738D02*
X116220238Y-94926547D01*
%TO.C,J5*%
X112483333Y-97383690D02*
X112483333Y-97740833D01*
X112483333Y-97740833D02*
X112459524Y-97812261D01*
X112459524Y-97812261D02*
X112411905Y-97859880D01*
X112411905Y-97859880D02*
X112340476Y-97883690D01*
X112340476Y-97883690D02*
X112292857Y-97883690D01*
X112959523Y-97383690D02*
X112721428Y-97383690D01*
X112721428Y-97383690D02*
X112697619Y-97621785D01*
X112697619Y-97621785D02*
X112721428Y-97597976D01*
X112721428Y-97597976D02*
X112769047Y-97574166D01*
X112769047Y-97574166D02*
X112888095Y-97574166D01*
X112888095Y-97574166D02*
X112935714Y-97597976D01*
X112935714Y-97597976D02*
X112959523Y-97621785D01*
X112959523Y-97621785D02*
X112983333Y-97669404D01*
X112983333Y-97669404D02*
X112983333Y-97788452D01*
X112983333Y-97788452D02*
X112959523Y-97836071D01*
X112959523Y-97836071D02*
X112935714Y-97859880D01*
X112935714Y-97859880D02*
X112888095Y-97883690D01*
X112888095Y-97883690D02*
X112769047Y-97883690D01*
X112769047Y-97883690D02*
X112721428Y-97859880D01*
X112721428Y-97859880D02*
X112697619Y-97836071D01*
%TO.C,REF\u002A\u002A*%
G36*
X127917590Y-77803766D02*
G01*
X128052376Y-77803766D01*
X128056917Y-77876732D01*
X128069986Y-77932334D01*
X128090756Y-77967861D01*
X128105552Y-77978020D01*
X128143464Y-77985104D01*
X128188527Y-77983007D01*
X128227487Y-77972812D01*
X128237704Y-77967204D01*
X128264659Y-77934538D01*
X128282451Y-77884545D01*
X128290024Y-77823705D01*
X128286325Y-77758497D01*
X128278057Y-77719253D01*
X128254320Y-77673805D01*
X128216849Y-77645396D01*
X128171720Y-77635573D01*
X128125011Y-77645887D01*
X128089132Y-77671112D01*
X128070277Y-77691925D01*
X128059272Y-77712439D01*
X128054026Y-77740203D01*
X128052449Y-77782762D01*
X128052376Y-77803766D01*
X127917590Y-77803766D01*
X127918094Y-77747580D01*
X127935388Y-77660501D01*
X127969029Y-77592530D01*
X128019018Y-77543664D01*
X128085356Y-77513899D01*
X128099601Y-77510448D01*
X128185210Y-77502345D01*
X128260762Y-77516055D01*
X128324363Y-77550692D01*
X128374123Y-77605372D01*
X128397568Y-77649842D01*
X128407634Y-77689121D01*
X128414156Y-77745116D01*
X128416951Y-77809621D01*
X128415836Y-77874429D01*
X128410626Y-77931334D01*
X128404541Y-77961727D01*
X128384014Y-78003306D01*
X128348463Y-78047468D01*
X128305619Y-78086087D01*
X128263211Y-78111034D01*
X128262177Y-78111430D01*
X128209553Y-78122331D01*
X128147188Y-78122601D01*
X128087924Y-78112676D01*
X128065040Y-78104722D01*
X128006102Y-78071300D01*
X127963890Y-78027511D01*
X127936156Y-77969538D01*
X127920651Y-77893565D01*
X127917143Y-77853771D01*
X127917590Y-77803766D01*
G37*
D14*
X127917590Y-77803766D02*
X128052376Y-77803766D01*
X128056917Y-77876732D01*
X128069986Y-77932334D01*
X128090756Y-77967861D01*
X128105552Y-77978020D01*
X128143464Y-77985104D01*
X128188527Y-77983007D01*
X128227487Y-77972812D01*
X128237704Y-77967204D01*
X128264659Y-77934538D01*
X128282451Y-77884545D01*
X128290024Y-77823705D01*
X128286325Y-77758497D01*
X128278057Y-77719253D01*
X128254320Y-77673805D01*
X128216849Y-77645396D01*
X128171720Y-77635573D01*
X128125011Y-77645887D01*
X128089132Y-77671112D01*
X128070277Y-77691925D01*
X128059272Y-77712439D01*
X128054026Y-77740203D01*
X128052449Y-77782762D01*
X128052376Y-77803766D01*
X127917590Y-77803766D01*
X127918094Y-77747580D01*
X127935388Y-77660501D01*
X127969029Y-77592530D01*
X128019018Y-77543664D01*
X128085356Y-77513899D01*
X128099601Y-77510448D01*
X128185210Y-77502345D01*
X128260762Y-77516055D01*
X128324363Y-77550692D01*
X128374123Y-77605372D01*
X128397568Y-77649842D01*
X128407634Y-77689121D01*
X128414156Y-77745116D01*
X128416951Y-77809621D01*
X128415836Y-77874429D01*
X128410626Y-77931334D01*
X128404541Y-77961727D01*
X128384014Y-78003306D01*
X128348463Y-78047468D01*
X128305619Y-78086087D01*
X128263211Y-78111034D01*
X128262177Y-78111430D01*
X128209553Y-78122331D01*
X128147188Y-78122601D01*
X128087924Y-78112676D01*
X128065040Y-78104722D01*
X128006102Y-78071300D01*
X127963890Y-78027511D01*
X127936156Y-77969538D01*
X127920651Y-77893565D01*
X127917143Y-77853771D01*
X127917590Y-77803766D01*
G36*
X126656644Y-78453020D02*
G01*
X126675461Y-78458660D01*
X126681527Y-78471053D01*
X126681782Y-78476647D01*
X126682871Y-78492230D01*
X126690368Y-78494676D01*
X126710619Y-78483993D01*
X126722649Y-78476694D01*
X126760600Y-78461063D01*
X126805928Y-78453334D01*
X126853456Y-78452740D01*
X126898005Y-78458513D01*
X126934398Y-78469884D01*
X126957457Y-78486088D01*
X126962004Y-78506355D01*
X126959709Y-78511843D01*
X126942980Y-78534626D01*
X126917037Y-78562647D01*
X126912345Y-78567177D01*
X126887617Y-78588005D01*
X126866282Y-78594735D01*
X126836445Y-78590038D01*
X126824492Y-78586917D01*
X126787295Y-78579421D01*
X126761141Y-78582792D01*
X126739054Y-78594681D01*
X126718822Y-78610635D01*
X126703921Y-78630700D01*
X126693566Y-78658702D01*
X126686971Y-78698467D01*
X126683351Y-78753823D01*
X126681922Y-78828594D01*
X126681782Y-78873740D01*
X126681782Y-79067822D01*
X126556040Y-79067822D01*
X126556040Y-78451683D01*
X126618911Y-78451683D01*
X126656644Y-78453020D01*
G37*
X126656644Y-78453020D02*
X126675461Y-78458660D01*
X126681527Y-78471053D01*
X126681782Y-78476647D01*
X126682871Y-78492230D01*
X126690368Y-78494676D01*
X126710619Y-78483993D01*
X126722649Y-78476694D01*
X126760600Y-78461063D01*
X126805928Y-78453334D01*
X126853456Y-78452740D01*
X126898005Y-78458513D01*
X126934398Y-78469884D01*
X126957457Y-78486088D01*
X126962004Y-78506355D01*
X126959709Y-78511843D01*
X126942980Y-78534626D01*
X126917037Y-78562647D01*
X126912345Y-78567177D01*
X126887617Y-78588005D01*
X126866282Y-78594735D01*
X126836445Y-78590038D01*
X126824492Y-78586917D01*
X126787295Y-78579421D01*
X126761141Y-78582792D01*
X126739054Y-78594681D01*
X126718822Y-78610635D01*
X126703921Y-78630700D01*
X126693566Y-78658702D01*
X126686971Y-78698467D01*
X126683351Y-78753823D01*
X126681922Y-78828594D01*
X126681782Y-78873740D01*
X126681782Y-79067822D01*
X126556040Y-79067822D01*
X126556040Y-78451683D01*
X126618911Y-78451683D01*
X126656644Y-78453020D01*
G36*
X128643367Y-77704342D02*
G01*
X128644555Y-77796563D01*
X128648897Y-77866610D01*
X128657558Y-77917381D01*
X128671704Y-77951772D01*
X128692500Y-77972679D01*
X128721110Y-77983000D01*
X128756535Y-77985636D01*
X128793636Y-77982682D01*
X128821818Y-77971889D01*
X128842243Y-77950360D01*
X128856079Y-77915199D01*
X128864491Y-77863510D01*
X128868643Y-77792394D01*
X128869703Y-77704342D01*
X128869703Y-77508614D01*
X129008020Y-77508614D01*
X129008020Y-78112179D01*
X128938862Y-78112179D01*
X128897170Y-78110489D01*
X128875701Y-78104556D01*
X128869703Y-78093293D01*
X128866091Y-78083261D01*
X128851714Y-78085383D01*
X128822736Y-78099580D01*
X128756319Y-78121480D01*
X128685875Y-78119928D01*
X128618377Y-78096147D01*
X128586233Y-78077362D01*
X128561715Y-78057022D01*
X128543804Y-78031573D01*
X128531479Y-77997458D01*
X128523723Y-77951121D01*
X128519516Y-77889007D01*
X128517840Y-77807561D01*
X128517624Y-77744578D01*
X128517624Y-77508614D01*
X128643367Y-77508614D01*
X128643367Y-77704342D01*
G37*
X128643367Y-77704342D02*
X128644555Y-77796563D01*
X128648897Y-77866610D01*
X128657558Y-77917381D01*
X128671704Y-77951772D01*
X128692500Y-77972679D01*
X128721110Y-77983000D01*
X128756535Y-77985636D01*
X128793636Y-77982682D01*
X128821818Y-77971889D01*
X128842243Y-77950360D01*
X128856079Y-77915199D01*
X128864491Y-77863510D01*
X128868643Y-77792394D01*
X128869703Y-77704342D01*
X128869703Y-77508614D01*
X129008020Y-77508614D01*
X129008020Y-78112179D01*
X128938862Y-78112179D01*
X128897170Y-78110489D01*
X128875701Y-78104556D01*
X128869703Y-78093293D01*
X128866091Y-78083261D01*
X128851714Y-78085383D01*
X128822736Y-78099580D01*
X128756319Y-78121480D01*
X128685875Y-78119928D01*
X128618377Y-78096147D01*
X128586233Y-78077362D01*
X128561715Y-78057022D01*
X128543804Y-78031573D01*
X128531479Y-77997458D01*
X128523723Y-77951121D01*
X128519516Y-77889007D01*
X128517840Y-77807561D01*
X128517624Y-77744578D01*
X128517624Y-77508614D01*
X128643367Y-77508614D01*
X128643367Y-77704342D01*
G36*
X126895988Y-77519002D02*
G01*
X126927283Y-77533950D01*
X126957591Y-77555541D01*
X126980682Y-77580391D01*
X126997500Y-77612087D01*
X127008994Y-77654214D01*
X127016109Y-77710358D01*
X127019793Y-77784106D01*
X127020992Y-77879044D01*
X127021011Y-77888985D01*
X127021287Y-78112179D01*
X126882970Y-78112179D01*
X126882970Y-77906418D01*
X126882872Y-77830189D01*
X126882191Y-77774939D01*
X126880349Y-77736501D01*
X126876767Y-77710706D01*
X126870868Y-77693384D01*
X126862073Y-77680368D01*
X126849820Y-77667507D01*
X126806953Y-77639873D01*
X126760157Y-77634745D01*
X126715576Y-77652217D01*
X126700072Y-77665221D01*
X126688690Y-77677447D01*
X126680519Y-77690540D01*
X126675026Y-77708615D01*
X126671680Y-77735787D01*
X126669949Y-77776170D01*
X126669303Y-77833879D01*
X126669208Y-77904132D01*
X126669208Y-78112179D01*
X126530891Y-78112179D01*
X126530891Y-77508614D01*
X126600050Y-77508614D01*
X126641572Y-77510256D01*
X126662994Y-77516087D01*
X126669205Y-77527461D01*
X126669208Y-77527798D01*
X126672090Y-77538938D01*
X126684801Y-77537674D01*
X126710074Y-77525434D01*
X126767395Y-77507424D01*
X126832963Y-77505421D01*
X126895988Y-77519002D01*
G37*
X126895988Y-77519002D02*
X126927283Y-77533950D01*
X126957591Y-77555541D01*
X126980682Y-77580391D01*
X126997500Y-77612087D01*
X127008994Y-77654214D01*
X127016109Y-77710358D01*
X127019793Y-77784106D01*
X127020992Y-77879044D01*
X127021011Y-77888985D01*
X127021287Y-78112179D01*
X126882970Y-78112179D01*
X126882970Y-77906418D01*
X126882872Y-77830189D01*
X126882191Y-77774939D01*
X126880349Y-77736501D01*
X126876767Y-77710706D01*
X126870868Y-77693384D01*
X126862073Y-77680368D01*
X126849820Y-77667507D01*
X126806953Y-77639873D01*
X126760157Y-77634745D01*
X126715576Y-77652217D01*
X126700072Y-77665221D01*
X126688690Y-77677447D01*
X126680519Y-77690540D01*
X126675026Y-77708615D01*
X126671680Y-77735787D01*
X126669949Y-77776170D01*
X126669303Y-77833879D01*
X126669208Y-77904132D01*
X126669208Y-78112179D01*
X126530891Y-78112179D01*
X126530891Y-77508614D01*
X126600050Y-77508614D01*
X126641572Y-77510256D01*
X126662994Y-77516087D01*
X126669205Y-77527461D01*
X126669208Y-77527798D01*
X126672090Y-77538938D01*
X126684801Y-77537674D01*
X126710074Y-77525434D01*
X126767395Y-77507424D01*
X126832963Y-77505421D01*
X126895988Y-77519002D01*
G36*
X130037100Y-77735542D02*
G01*
X130164852Y-77735542D01*
X130176584Y-77740822D01*
X130208438Y-77744867D01*
X130255397Y-77747176D01*
X130285154Y-77747525D01*
X130340648Y-77747306D01*
X130375346Y-77745916D01*
X130393601Y-77742251D01*
X130399766Y-77735210D01*
X130398195Y-77723690D01*
X130396878Y-77719233D01*
X130374382Y-77677355D01*
X130339003Y-77643604D01*
X130307780Y-77628773D01*
X130266301Y-77629668D01*
X130224269Y-77648164D01*
X130189012Y-77678786D01*
X130167854Y-77716062D01*
X130164852Y-77735542D01*
X130037100Y-77735542D01*
X130046690Y-77685229D01*
X130078698Y-77614191D01*
X130124701Y-77558779D01*
X130182821Y-77521009D01*
X130251180Y-77502896D01*
X130327898Y-77506457D01*
X130360096Y-77514279D01*
X130421825Y-77542921D01*
X130474610Y-77586667D01*
X130511141Y-77639117D01*
X130516160Y-77650893D01*
X130523045Y-77681740D01*
X130527864Y-77727371D01*
X130529505Y-77773492D01*
X130529505Y-77860693D01*
X130347178Y-77860693D01*
X130271979Y-77860978D01*
X130219003Y-77862704D01*
X130185325Y-77867181D01*
X130168020Y-77875720D01*
X130164163Y-77889630D01*
X130170829Y-77910222D01*
X130182770Y-77934315D01*
X130216080Y-77974525D01*
X130262368Y-77994558D01*
X130318944Y-77993905D01*
X130383031Y-77972101D01*
X130438417Y-77945193D01*
X130484375Y-77981532D01*
X130530333Y-78017872D01*
X130487096Y-78057819D01*
X130429374Y-78095563D01*
X130358386Y-78118320D01*
X130282029Y-78124688D01*
X130208199Y-78113268D01*
X130196287Y-78109393D01*
X130131399Y-78075506D01*
X130083130Y-78024986D01*
X130050465Y-77956325D01*
X130032385Y-77868014D01*
X130032175Y-77866121D01*
X130030556Y-77769878D01*
X130037100Y-77735542D01*
G37*
X130037100Y-77735542D02*
X130164852Y-77735542D01*
X130176584Y-77740822D01*
X130208438Y-77744867D01*
X130255397Y-77747176D01*
X130285154Y-77747525D01*
X130340648Y-77747306D01*
X130375346Y-77745916D01*
X130393601Y-77742251D01*
X130399766Y-77735210D01*
X130398195Y-77723690D01*
X130396878Y-77719233D01*
X130374382Y-77677355D01*
X130339003Y-77643604D01*
X130307780Y-77628773D01*
X130266301Y-77629668D01*
X130224269Y-77648164D01*
X130189012Y-77678786D01*
X130167854Y-77716062D01*
X130164852Y-77735542D01*
X130037100Y-77735542D01*
X130046690Y-77685229D01*
X130078698Y-77614191D01*
X130124701Y-77558779D01*
X130182821Y-77521009D01*
X130251180Y-77502896D01*
X130327898Y-77506457D01*
X130360096Y-77514279D01*
X130421825Y-77542921D01*
X130474610Y-77586667D01*
X130511141Y-77639117D01*
X130516160Y-77650893D01*
X130523045Y-77681740D01*
X130527864Y-77727371D01*
X130529505Y-77773492D01*
X130529505Y-77860693D01*
X130347178Y-77860693D01*
X130271979Y-77860978D01*
X130219003Y-77862704D01*
X130185325Y-77867181D01*
X130168020Y-77875720D01*
X130164163Y-77889630D01*
X130170829Y-77910222D01*
X130182770Y-77934315D01*
X130216080Y-77974525D01*
X130262368Y-77994558D01*
X130318944Y-77993905D01*
X130383031Y-77972101D01*
X130438417Y-77945193D01*
X130484375Y-77981532D01*
X130530333Y-78017872D01*
X130487096Y-78057819D01*
X130429374Y-78095563D01*
X130358386Y-78118320D01*
X130282029Y-78124688D01*
X130208199Y-78113268D01*
X130196287Y-78109393D01*
X130131399Y-78075506D01*
X130083130Y-78024986D01*
X130050465Y-77956325D01*
X130032385Y-77868014D01*
X130032175Y-77866121D01*
X130030556Y-77769878D01*
X130037100Y-77735542D01*
G36*
X129390421Y-78691413D02*
G01*
X129510990Y-78691413D01*
X129522652Y-78696465D01*
X129553998Y-78700429D01*
X129599571Y-78702768D01*
X129630446Y-78703169D01*
X129685981Y-78702783D01*
X129721033Y-78700975D01*
X129740262Y-78696773D01*
X129748330Y-78689203D01*
X129749901Y-78678218D01*
X129739121Y-78644381D01*
X129711980Y-78610940D01*
X129676277Y-78585272D01*
X129640560Y-78574772D01*
X129592048Y-78584086D01*
X129550053Y-78611013D01*
X129520936Y-78649827D01*
X129510990Y-78691413D01*
X129390421Y-78691413D01*
X129392599Y-78660236D01*
X129414055Y-78580949D01*
X129450470Y-78521263D01*
X129502297Y-78480549D01*
X129569990Y-78458179D01*
X129606662Y-78453871D01*
X129682581Y-78454970D01*
X129742685Y-78470597D01*
X129793021Y-78502848D01*
X129817393Y-78526940D01*
X129857345Y-78583895D01*
X129880242Y-78649965D01*
X129888108Y-78731182D01*
X129888148Y-78737748D01*
X129888218Y-78803763D01*
X129508264Y-78803763D01*
X129516363Y-78838342D01*
X129530987Y-78869659D01*
X129556581Y-78902291D01*
X129561935Y-78907500D01*
X129607943Y-78935694D01*
X129660410Y-78940475D01*
X129720803Y-78921926D01*
X129731040Y-78916931D01*
X129762439Y-78901745D01*
X129783470Y-78893094D01*
X129787139Y-78892293D01*
X129799948Y-78900063D01*
X129824378Y-78919072D01*
X129836779Y-78929460D01*
X129862476Y-78953321D01*
X129870915Y-78969077D01*
X129865058Y-78983571D01*
X129861928Y-78987534D01*
X129840725Y-79004879D01*
X129805738Y-79025959D01*
X129781337Y-79038265D01*
X129712072Y-79059946D01*
X129635388Y-79066971D01*
X129562765Y-79058647D01*
X129542426Y-79052686D01*
X129479476Y-79018952D01*
X129432815Y-78967045D01*
X129402173Y-78896459D01*
X129387282Y-78806692D01*
X129385647Y-78759753D01*
X129390421Y-78691413D01*
G37*
X129390421Y-78691413D02*
X129510990Y-78691413D01*
X129522652Y-78696465D01*
X129553998Y-78700429D01*
X129599571Y-78702768D01*
X129630446Y-78703169D01*
X129685981Y-78702783D01*
X129721033Y-78700975D01*
X129740262Y-78696773D01*
X129748330Y-78689203D01*
X129749901Y-78678218D01*
X129739121Y-78644381D01*
X129711980Y-78610940D01*
X129676277Y-78585272D01*
X129640560Y-78574772D01*
X129592048Y-78584086D01*
X129550053Y-78611013D01*
X129520936Y-78649827D01*
X129510990Y-78691413D01*
X129390421Y-78691413D01*
X129392599Y-78660236D01*
X129414055Y-78580949D01*
X129450470Y-78521263D01*
X129502297Y-78480549D01*
X129569990Y-78458179D01*
X129606662Y-78453871D01*
X129682581Y-78454970D01*
X129742685Y-78470597D01*
X129793021Y-78502848D01*
X129817393Y-78526940D01*
X129857345Y-78583895D01*
X129880242Y-78649965D01*
X129888108Y-78731182D01*
X129888148Y-78737748D01*
X129888218Y-78803763D01*
X129508264Y-78803763D01*
X129516363Y-78838342D01*
X129530987Y-78869659D01*
X129556581Y-78902291D01*
X129561935Y-78907500D01*
X129607943Y-78935694D01*
X129660410Y-78940475D01*
X129720803Y-78921926D01*
X129731040Y-78916931D01*
X129762439Y-78901745D01*
X129783470Y-78893094D01*
X129787139Y-78892293D01*
X129799948Y-78900063D01*
X129824378Y-78919072D01*
X129836779Y-78929460D01*
X129862476Y-78953321D01*
X129870915Y-78969077D01*
X129865058Y-78983571D01*
X129861928Y-78987534D01*
X129840725Y-79004879D01*
X129805738Y-79025959D01*
X129781337Y-79038265D01*
X129712072Y-79059946D01*
X129635388Y-79066971D01*
X129562765Y-79058647D01*
X129542426Y-79052686D01*
X129479476Y-79018952D01*
X129432815Y-78967045D01*
X129402173Y-78896459D01*
X129387282Y-78806692D01*
X129385647Y-78759753D01*
X129390421Y-78691413D01*
G36*
X129867226Y-77513880D02*
G01*
X129940080Y-77544830D01*
X129963027Y-77559895D01*
X129992354Y-77583048D01*
X130010764Y-77601253D01*
X130013961Y-77607183D01*
X130004935Y-77620340D01*
X129981837Y-77642667D01*
X129963344Y-77658250D01*
X129912728Y-77698926D01*
X129872760Y-77665295D01*
X129841874Y-77643584D01*
X129811759Y-77636090D01*
X129777292Y-77637920D01*
X129722561Y-77651528D01*
X129684886Y-77679772D01*
X129661991Y-77725433D01*
X129651597Y-77791289D01*
X129651595Y-77791331D01*
X129652494Y-77864939D01*
X129666463Y-77918946D01*
X129694328Y-77955716D01*
X129713325Y-77968168D01*
X129763776Y-77983673D01*
X129817663Y-77983683D01*
X129864546Y-77968638D01*
X129875644Y-77961287D01*
X129903476Y-77942511D01*
X129925236Y-77939434D01*
X129948704Y-77953409D01*
X129974649Y-77978510D01*
X130015716Y-78020880D01*
X129970121Y-78058464D01*
X129899674Y-78100882D01*
X129820233Y-78121785D01*
X129737215Y-78120272D01*
X129682694Y-78106411D01*
X129618970Y-78072135D01*
X129568005Y-78018212D01*
X129544851Y-77980149D01*
X129526099Y-77925536D01*
X129516715Y-77856369D01*
X129516643Y-77781407D01*
X129525824Y-77709409D01*
X129544199Y-77649137D01*
X129547093Y-77642958D01*
X129589952Y-77582351D01*
X129647979Y-77538224D01*
X129716591Y-77511493D01*
X129791201Y-77503073D01*
X129867226Y-77513880D01*
G37*
X129867226Y-77513880D02*
X129940080Y-77544830D01*
X129963027Y-77559895D01*
X129992354Y-77583048D01*
X130010764Y-77601253D01*
X130013961Y-77607183D01*
X130004935Y-77620340D01*
X129981837Y-77642667D01*
X129963344Y-77658250D01*
X129912728Y-77698926D01*
X129872760Y-77665295D01*
X129841874Y-77643584D01*
X129811759Y-77636090D01*
X129777292Y-77637920D01*
X129722561Y-77651528D01*
X129684886Y-77679772D01*
X129661991Y-77725433D01*
X129651597Y-77791289D01*
X129651595Y-77791331D01*
X129652494Y-77864939D01*
X129666463Y-77918946D01*
X129694328Y-77955716D01*
X129713325Y-77968168D01*
X129763776Y-77983673D01*
X129817663Y-77983683D01*
X129864546Y-77968638D01*
X129875644Y-77961287D01*
X129903476Y-77942511D01*
X129925236Y-77939434D01*
X129948704Y-77953409D01*
X129974649Y-77978510D01*
X130015716Y-78020880D01*
X129970121Y-78058464D01*
X129899674Y-78100882D01*
X129820233Y-78121785D01*
X129737215Y-78120272D01*
X129682694Y-78106411D01*
X129618970Y-78072135D01*
X129568005Y-78018212D01*
X129544851Y-77980149D01*
X129526099Y-77925536D01*
X129516715Y-77856369D01*
X129516643Y-77781407D01*
X129525824Y-77709409D01*
X129544199Y-77649137D01*
X129547093Y-77642958D01*
X129589952Y-77582351D01*
X129647979Y-77538224D01*
X129716591Y-77511493D01*
X129791201Y-77503073D01*
X129867226Y-77513880D01*
G36*
X128026964Y-73340018D02*
G01*
X128083812Y-73641570D01*
X128503338Y-73814512D01*
X128754984Y-73643395D01*
X128825458Y-73595750D01*
X128889163Y-73553210D01*
X128943126Y-73517715D01*
X128984373Y-73491210D01*
X129009934Y-73475636D01*
X129016895Y-73472278D01*
X129029435Y-73480914D01*
X129056231Y-73504792D01*
X129094280Y-73540859D01*
X129140579Y-73586067D01*
X129192123Y-73637364D01*
X129245909Y-73691701D01*
X129298935Y-73746028D01*
X129348195Y-73797295D01*
X129390687Y-73842451D01*
X129423407Y-73878446D01*
X129443351Y-73902230D01*
X129448119Y-73910190D01*
X129441257Y-73924865D01*
X129422020Y-73957014D01*
X129392430Y-74003492D01*
X129354510Y-74061156D01*
X129310282Y-74126860D01*
X129284654Y-74164336D01*
X129237941Y-74232768D01*
X129196432Y-74294520D01*
X129162140Y-74346519D01*
X129137080Y-74385692D01*
X129123264Y-74408965D01*
X129121188Y-74413855D01*
X129125895Y-74427755D01*
X129138723Y-74460150D01*
X129157738Y-74506485D01*
X129181003Y-74562206D01*
X129206584Y-74622758D01*
X129232545Y-74683586D01*
X129256950Y-74740136D01*
X129277863Y-74787852D01*
X129293349Y-74822181D01*
X129301472Y-74838568D01*
X129301952Y-74839212D01*
X129314707Y-74842341D01*
X129348677Y-74849321D01*
X129400340Y-74859467D01*
X129466176Y-74872092D01*
X129542664Y-74886509D01*
X129587290Y-74894823D01*
X129669021Y-74910384D01*
X129742843Y-74925192D01*
X129805021Y-74938436D01*
X129851822Y-74949305D01*
X129879509Y-74956989D01*
X129885074Y-74959427D01*
X129890526Y-74975930D01*
X129894924Y-75013200D01*
X129898272Y-75066880D01*
X129900574Y-75132612D01*
X129901832Y-75206037D01*
X129902048Y-75282796D01*
X129901227Y-75358532D01*
X129899371Y-75428886D01*
X129896482Y-75489500D01*
X129892565Y-75536016D01*
X129887622Y-75564075D01*
X129884657Y-75569916D01*
X129866934Y-75576917D01*
X129829381Y-75586927D01*
X129776964Y-75598769D01*
X129714652Y-75611267D01*
X129692900Y-75615310D01*
X129588024Y-75634520D01*
X129505180Y-75649991D01*
X129441630Y-75662337D01*
X129394637Y-75672173D01*
X129361463Y-75680114D01*
X129339371Y-75686776D01*
X129325624Y-75692773D01*
X129317484Y-75698719D01*
X129316345Y-75699894D01*
X129304977Y-75718826D01*
X129287635Y-75755669D01*
X129266050Y-75805913D01*
X129241954Y-75865046D01*
X129217079Y-75928556D01*
X129193157Y-75991932D01*
X129171919Y-76050662D01*
X129155097Y-76100235D01*
X129144422Y-76136139D01*
X129141627Y-76153862D01*
X129141860Y-76154483D01*
X129151331Y-76168970D01*
X129172818Y-76200844D01*
X129204063Y-76246789D01*
X129242807Y-76303485D01*
X129286793Y-76367617D01*
X129299319Y-76385842D01*
X129343984Y-76451914D01*
X129383288Y-76512200D01*
X129415088Y-76563235D01*
X129437245Y-76601560D01*
X129447617Y-76623711D01*
X129448119Y-76626432D01*
X129439405Y-76640736D01*
X129415325Y-76669072D01*
X129378976Y-76708396D01*
X129333453Y-76755661D01*
X129281852Y-76807823D01*
X129227267Y-76861835D01*
X129172794Y-76914653D01*
X129121529Y-76963231D01*
X129076567Y-77004523D01*
X129041004Y-77035485D01*
X129017935Y-77053070D01*
X129011554Y-77055941D01*
X128996699Y-77049178D01*
X128966286Y-77030939D01*
X128925268Y-77004297D01*
X128893709Y-76982852D01*
X128836525Y-76943503D01*
X128768806Y-76897171D01*
X128700880Y-76850913D01*
X128664361Y-76826155D01*
X128540752Y-76742547D01*
X128436991Y-76798650D01*
X128389720Y-76823228D01*
X128349523Y-76842331D01*
X128322326Y-76853227D01*
X128315402Y-76854743D01*
X128307077Y-76843549D01*
X128290654Y-76811917D01*
X128267357Y-76762765D01*
X128238414Y-76699010D01*
X128205050Y-76623571D01*
X128168491Y-76539364D01*
X128129964Y-76449308D01*
X128090694Y-76356321D01*
X128051908Y-76263320D01*
X128014830Y-76173223D01*
X127980689Y-76088948D01*
X127950708Y-76013413D01*
X127926116Y-75949534D01*
X127908136Y-75900231D01*
X127897997Y-75868421D01*
X127896366Y-75857496D01*
X127909291Y-75843561D01*
X127937589Y-75820940D01*
X127975346Y-75794333D01*
X127978515Y-75792228D01*
X128076100Y-75714114D01*
X128154786Y-75622982D01*
X128213891Y-75521745D01*
X128252732Y-75413318D01*
X128270628Y-75300614D01*
X128266897Y-75186548D01*
X128240857Y-75074034D01*
X128191825Y-74965985D01*
X128177400Y-74942345D01*
X128102369Y-74846887D01*
X128013730Y-74770232D01*
X127914549Y-74712780D01*
X127807895Y-74674929D01*
X127696836Y-74657078D01*
X127584439Y-74659625D01*
X127473773Y-74682970D01*
X127367906Y-74727510D01*
X127269905Y-74793645D01*
X127239590Y-74820487D01*
X127162438Y-74904512D01*
X127106218Y-74992966D01*
X127067653Y-75092115D01*
X127046174Y-75190303D01*
X127040872Y-75300697D01*
X127058552Y-75411640D01*
X127097419Y-75519381D01*
X127155677Y-75620169D01*
X127231531Y-75710256D01*
X127323183Y-75785892D01*
X127335228Y-75793864D01*
X127373389Y-75819974D01*
X127402399Y-75842595D01*
X127416268Y-75857039D01*
X127416469Y-75857496D01*
X127413492Y-75873121D01*
X127401689Y-75908582D01*
X127382286Y-75960962D01*
X127356512Y-76027345D01*
X127325591Y-76104814D01*
X127290751Y-76190450D01*
X127253217Y-76281337D01*
X127214217Y-76374559D01*
X127174977Y-76467197D01*
X127136724Y-76556335D01*
X127100683Y-76639055D01*
X127068083Y-76712441D01*
X127040148Y-76773575D01*
X127018105Y-76819541D01*
X127003182Y-76847421D01*
X126997172Y-76854743D01*
X126978809Y-76849041D01*
X126944448Y-76833749D01*
X126900016Y-76811599D01*
X126875583Y-76798650D01*
X126771822Y-76742547D01*
X126648213Y-76826155D01*
X126585114Y-76868987D01*
X126516030Y-76916122D01*
X126451293Y-76960503D01*
X126418866Y-76982852D01*
X126373259Y-77013477D01*
X126334640Y-77037747D01*
X126308048Y-77052587D01*
X126299410Y-77055724D01*
X126286839Y-77047261D01*
X126259016Y-77023636D01*
X126218639Y-76987302D01*
X126168405Y-76940711D01*
X126111012Y-76886317D01*
X126074714Y-76851392D01*
X126011210Y-76788996D01*
X125956327Y-76733188D01*
X125912286Y-76686354D01*
X125881305Y-76650882D01*
X125865602Y-76629161D01*
X125864095Y-76624752D01*
X125871086Y-76607985D01*
X125890406Y-76574082D01*
X125919909Y-76526476D01*
X125957455Y-76468599D01*
X126000900Y-76403884D01*
X126013255Y-76385842D01*
X126058273Y-76320267D01*
X126098660Y-76261228D01*
X126132160Y-76212042D01*
X126156514Y-76176028D01*
X126169464Y-76156502D01*
X126170715Y-76154483D01*
X126168844Y-76138922D01*
X126158913Y-76104709D01*
X126142653Y-76056355D01*
X126121795Y-75998371D01*
X126098073Y-75935270D01*
X126073216Y-75871563D01*
X126048958Y-75811761D01*
X126027029Y-75760376D01*
X126009162Y-75721919D01*
X125997087Y-75700902D01*
X125996229Y-75699894D01*
X125988846Y-75693888D01*
X125976375Y-75687948D01*
X125956080Y-75681460D01*
X125925222Y-75673809D01*
X125881066Y-75664380D01*
X125820874Y-75652559D01*
X125741907Y-75637729D01*
X125641430Y-75619277D01*
X125619675Y-75615310D01*
X125555198Y-75602853D01*
X125498989Y-75590666D01*
X125456013Y-75579926D01*
X125431240Y-75571809D01*
X125427918Y-75569916D01*
X125422444Y-75553138D01*
X125417994Y-75515645D01*
X125414572Y-75461794D01*
X125412181Y-75395944D01*
X125410823Y-75322453D01*
X125410501Y-75245680D01*
X125411219Y-75169983D01*
X125412979Y-75099720D01*
X125415784Y-75039250D01*
X125419638Y-74992930D01*
X125424543Y-74965119D01*
X125427500Y-74959427D01*
X125443963Y-74953686D01*
X125481449Y-74944345D01*
X125536225Y-74932215D01*
X125604555Y-74918107D01*
X125682706Y-74902830D01*
X125725284Y-74894823D01*
X125806071Y-74879721D01*
X125878113Y-74866040D01*
X125937889Y-74854467D01*
X125981879Y-74845687D01*
X126006561Y-74840387D01*
X126010623Y-74839212D01*
X126017489Y-74825965D01*
X126032002Y-74794057D01*
X126052229Y-74748047D01*
X126076234Y-74692492D01*
X126102082Y-74631953D01*
X126127840Y-74570986D01*
X126151573Y-74514151D01*
X126171346Y-74466006D01*
X126185224Y-74431110D01*
X126191274Y-74414021D01*
X126191386Y-74413274D01*
X126184528Y-74399793D01*
X126165302Y-74368770D01*
X126135728Y-74323289D01*
X126097827Y-74266432D01*
X126053620Y-74201283D01*
X126027921Y-74163862D01*
X125981093Y-74095247D01*
X125939501Y-74032952D01*
X125905175Y-73980129D01*
X125880143Y-73939927D01*
X125866435Y-73915500D01*
X125864456Y-73910024D01*
X125872966Y-73897278D01*
X125896493Y-73870063D01*
X125932032Y-73831428D01*
X125976577Y-73784423D01*
X126027123Y-73732095D01*
X126080664Y-73677495D01*
X126134195Y-73623670D01*
X126184711Y-73573670D01*
X126229206Y-73530543D01*
X126264675Y-73497339D01*
X126288113Y-73477106D01*
X126295954Y-73472278D01*
X126308720Y-73479067D01*
X126339256Y-73498142D01*
X126384590Y-73527561D01*
X126441756Y-73565381D01*
X126507784Y-73609661D01*
X126557590Y-73643395D01*
X126809236Y-73814512D01*
X127018999Y-73728041D01*
X127228763Y-73641570D01*
X127285611Y-73340018D01*
X127342460Y-73038466D01*
X127970115Y-73038466D01*
X128026964Y-73340018D01*
G37*
X128026964Y-73340018D02*
X128083812Y-73641570D01*
X128503338Y-73814512D01*
X128754984Y-73643395D01*
X128825458Y-73595750D01*
X128889163Y-73553210D01*
X128943126Y-73517715D01*
X128984373Y-73491210D01*
X129009934Y-73475636D01*
X129016895Y-73472278D01*
X129029435Y-73480914D01*
X129056231Y-73504792D01*
X129094280Y-73540859D01*
X129140579Y-73586067D01*
X129192123Y-73637364D01*
X129245909Y-73691701D01*
X129298935Y-73746028D01*
X129348195Y-73797295D01*
X129390687Y-73842451D01*
X129423407Y-73878446D01*
X129443351Y-73902230D01*
X129448119Y-73910190D01*
X129441257Y-73924865D01*
X129422020Y-73957014D01*
X129392430Y-74003492D01*
X129354510Y-74061156D01*
X129310282Y-74126860D01*
X129284654Y-74164336D01*
X129237941Y-74232768D01*
X129196432Y-74294520D01*
X129162140Y-74346519D01*
X129137080Y-74385692D01*
X129123264Y-74408965D01*
X129121188Y-74413855D01*
X129125895Y-74427755D01*
X129138723Y-74460150D01*
X129157738Y-74506485D01*
X129181003Y-74562206D01*
X129206584Y-74622758D01*
X129232545Y-74683586D01*
X129256950Y-74740136D01*
X129277863Y-74787852D01*
X129293349Y-74822181D01*
X129301472Y-74838568D01*
X129301952Y-74839212D01*
X129314707Y-74842341D01*
X129348677Y-74849321D01*
X129400340Y-74859467D01*
X129466176Y-74872092D01*
X129542664Y-74886509D01*
X129587290Y-74894823D01*
X129669021Y-74910384D01*
X129742843Y-74925192D01*
X129805021Y-74938436D01*
X129851822Y-74949305D01*
X129879509Y-74956989D01*
X129885074Y-74959427D01*
X129890526Y-74975930D01*
X129894924Y-75013200D01*
X129898272Y-75066880D01*
X129900574Y-75132612D01*
X129901832Y-75206037D01*
X129902048Y-75282796D01*
X129901227Y-75358532D01*
X129899371Y-75428886D01*
X129896482Y-75489500D01*
X129892565Y-75536016D01*
X129887622Y-75564075D01*
X129884657Y-75569916D01*
X129866934Y-75576917D01*
X129829381Y-75586927D01*
X129776964Y-75598769D01*
X129714652Y-75611267D01*
X129692900Y-75615310D01*
X129588024Y-75634520D01*
X129505180Y-75649991D01*
X129441630Y-75662337D01*
X129394637Y-75672173D01*
X129361463Y-75680114D01*
X129339371Y-75686776D01*
X129325624Y-75692773D01*
X129317484Y-75698719D01*
X129316345Y-75699894D01*
X129304977Y-75718826D01*
X129287635Y-75755669D01*
X129266050Y-75805913D01*
X129241954Y-75865046D01*
X129217079Y-75928556D01*
X129193157Y-75991932D01*
X129171919Y-76050662D01*
X129155097Y-76100235D01*
X129144422Y-76136139D01*
X129141627Y-76153862D01*
X129141860Y-76154483D01*
X129151331Y-76168970D01*
X129172818Y-76200844D01*
X129204063Y-76246789D01*
X129242807Y-76303485D01*
X129286793Y-76367617D01*
X129299319Y-76385842D01*
X129343984Y-76451914D01*
X129383288Y-76512200D01*
X129415088Y-76563235D01*
X129437245Y-76601560D01*
X129447617Y-76623711D01*
X129448119Y-76626432D01*
X129439405Y-76640736D01*
X129415325Y-76669072D01*
X129378976Y-76708396D01*
X129333453Y-76755661D01*
X129281852Y-76807823D01*
X129227267Y-76861835D01*
X129172794Y-76914653D01*
X129121529Y-76963231D01*
X129076567Y-77004523D01*
X129041004Y-77035485D01*
X129017935Y-77053070D01*
X129011554Y-77055941D01*
X128996699Y-77049178D01*
X128966286Y-77030939D01*
X128925268Y-77004297D01*
X128893709Y-76982852D01*
X128836525Y-76943503D01*
X128768806Y-76897171D01*
X128700880Y-76850913D01*
X128664361Y-76826155D01*
X128540752Y-76742547D01*
X128436991Y-76798650D01*
X128389720Y-76823228D01*
X128349523Y-76842331D01*
X128322326Y-76853227D01*
X128315402Y-76854743D01*
X128307077Y-76843549D01*
X128290654Y-76811917D01*
X128267357Y-76762765D01*
X128238414Y-76699010D01*
X128205050Y-76623571D01*
X128168491Y-76539364D01*
X128129964Y-76449308D01*
X128090694Y-76356321D01*
X128051908Y-76263320D01*
X128014830Y-76173223D01*
X127980689Y-76088948D01*
X127950708Y-76013413D01*
X127926116Y-75949534D01*
X127908136Y-75900231D01*
X127897997Y-75868421D01*
X127896366Y-75857496D01*
X127909291Y-75843561D01*
X127937589Y-75820940D01*
X127975346Y-75794333D01*
X127978515Y-75792228D01*
X128076100Y-75714114D01*
X128154786Y-75622982D01*
X128213891Y-75521745D01*
X128252732Y-75413318D01*
X128270628Y-75300614D01*
X128266897Y-75186548D01*
X128240857Y-75074034D01*
X128191825Y-74965985D01*
X128177400Y-74942345D01*
X128102369Y-74846887D01*
X128013730Y-74770232D01*
X127914549Y-74712780D01*
X127807895Y-74674929D01*
X127696836Y-74657078D01*
X127584439Y-74659625D01*
X127473773Y-74682970D01*
X127367906Y-74727510D01*
X127269905Y-74793645D01*
X127239590Y-74820487D01*
X127162438Y-74904512D01*
X127106218Y-74992966D01*
X127067653Y-75092115D01*
X127046174Y-75190303D01*
X127040872Y-75300697D01*
X127058552Y-75411640D01*
X127097419Y-75519381D01*
X127155677Y-75620169D01*
X127231531Y-75710256D01*
X127323183Y-75785892D01*
X127335228Y-75793864D01*
X127373389Y-75819974D01*
X127402399Y-75842595D01*
X127416268Y-75857039D01*
X127416469Y-75857496D01*
X127413492Y-75873121D01*
X127401689Y-75908582D01*
X127382286Y-75960962D01*
X127356512Y-76027345D01*
X127325591Y-76104814D01*
X127290751Y-76190450D01*
X127253217Y-76281337D01*
X127214217Y-76374559D01*
X127174977Y-76467197D01*
X127136724Y-76556335D01*
X127100683Y-76639055D01*
X127068083Y-76712441D01*
X127040148Y-76773575D01*
X127018105Y-76819541D01*
X127003182Y-76847421D01*
X126997172Y-76854743D01*
X126978809Y-76849041D01*
X126944448Y-76833749D01*
X126900016Y-76811599D01*
X126875583Y-76798650D01*
X126771822Y-76742547D01*
X126648213Y-76826155D01*
X126585114Y-76868987D01*
X126516030Y-76916122D01*
X126451293Y-76960503D01*
X126418866Y-76982852D01*
X126373259Y-77013477D01*
X126334640Y-77037747D01*
X126308048Y-77052587D01*
X126299410Y-77055724D01*
X126286839Y-77047261D01*
X126259016Y-77023636D01*
X126218639Y-76987302D01*
X126168405Y-76940711D01*
X126111012Y-76886317D01*
X126074714Y-76851392D01*
X126011210Y-76788996D01*
X125956327Y-76733188D01*
X125912286Y-76686354D01*
X125881305Y-76650882D01*
X125865602Y-76629161D01*
X125864095Y-76624752D01*
X125871086Y-76607985D01*
X125890406Y-76574082D01*
X125919909Y-76526476D01*
X125957455Y-76468599D01*
X126000900Y-76403884D01*
X126013255Y-76385842D01*
X126058273Y-76320267D01*
X126098660Y-76261228D01*
X126132160Y-76212042D01*
X126156514Y-76176028D01*
X126169464Y-76156502D01*
X126170715Y-76154483D01*
X126168844Y-76138922D01*
X126158913Y-76104709D01*
X126142653Y-76056355D01*
X126121795Y-75998371D01*
X126098073Y-75935270D01*
X126073216Y-75871563D01*
X126048958Y-75811761D01*
X126027029Y-75760376D01*
X126009162Y-75721919D01*
X125997087Y-75700902D01*
X125996229Y-75699894D01*
X125988846Y-75693888D01*
X125976375Y-75687948D01*
X125956080Y-75681460D01*
X125925222Y-75673809D01*
X125881066Y-75664380D01*
X125820874Y-75652559D01*
X125741907Y-75637729D01*
X125641430Y-75619277D01*
X125619675Y-75615310D01*
X125555198Y-75602853D01*
X125498989Y-75590666D01*
X125456013Y-75579926D01*
X125431240Y-75571809D01*
X125427918Y-75569916D01*
X125422444Y-75553138D01*
X125417994Y-75515645D01*
X125414572Y-75461794D01*
X125412181Y-75395944D01*
X125410823Y-75322453D01*
X125410501Y-75245680D01*
X125411219Y-75169983D01*
X125412979Y-75099720D01*
X125415784Y-75039250D01*
X125419638Y-74992930D01*
X125424543Y-74965119D01*
X125427500Y-74959427D01*
X125443963Y-74953686D01*
X125481449Y-74944345D01*
X125536225Y-74932215D01*
X125604555Y-74918107D01*
X125682706Y-74902830D01*
X125725284Y-74894823D01*
X125806071Y-74879721D01*
X125878113Y-74866040D01*
X125937889Y-74854467D01*
X125981879Y-74845687D01*
X126006561Y-74840387D01*
X126010623Y-74839212D01*
X126017489Y-74825965D01*
X126032002Y-74794057D01*
X126052229Y-74748047D01*
X126076234Y-74692492D01*
X126102082Y-74631953D01*
X126127840Y-74570986D01*
X126151573Y-74514151D01*
X126171346Y-74466006D01*
X126185224Y-74431110D01*
X126191274Y-74414021D01*
X126191386Y-74413274D01*
X126184528Y-74399793D01*
X126165302Y-74368770D01*
X126135728Y-74323289D01*
X126097827Y-74266432D01*
X126053620Y-74201283D01*
X126027921Y-74163862D01*
X125981093Y-74095247D01*
X125939501Y-74032952D01*
X125905175Y-73980129D01*
X125880143Y-73939927D01*
X125866435Y-73915500D01*
X125864456Y-73910024D01*
X125872966Y-73897278D01*
X125896493Y-73870063D01*
X125932032Y-73831428D01*
X125976577Y-73784423D01*
X126027123Y-73732095D01*
X126080664Y-73677495D01*
X126134195Y-73623670D01*
X126184711Y-73573670D01*
X126229206Y-73530543D01*
X126264675Y-73497339D01*
X126288113Y-73477106D01*
X126295954Y-73472278D01*
X126308720Y-73479067D01*
X126339256Y-73498142D01*
X126384590Y-73527561D01*
X126441756Y-73565381D01*
X126507784Y-73609661D01*
X126557590Y-73643395D01*
X126809236Y-73814512D01*
X127018999Y-73728041D01*
X127228763Y-73641570D01*
X127285611Y-73340018D01*
X127342460Y-73038466D01*
X127970115Y-73038466D01*
X128026964Y-73340018D01*
G36*
X128361746Y-78881824D02*
G01*
X128485508Y-78881824D01*
X128496413Y-78909425D01*
X128528745Y-78929204D01*
X128580910Y-78939819D01*
X128608787Y-78941228D01*
X128655247Y-78937620D01*
X128686129Y-78923597D01*
X128693664Y-78916931D01*
X128714076Y-78880666D01*
X128718812Y-78847773D01*
X128718812Y-78803763D01*
X128657513Y-78803763D01*
X128586256Y-78807395D01*
X128536276Y-78818818D01*
X128504696Y-78838824D01*
X128497626Y-78847743D01*
X128485508Y-78881824D01*
X128361746Y-78881824D01*
X128363971Y-78842456D01*
X128386663Y-78785244D01*
X128417624Y-78746580D01*
X128436376Y-78729864D01*
X128454733Y-78718878D01*
X128478619Y-78712180D01*
X128513957Y-78708326D01*
X128566669Y-78705873D01*
X128587577Y-78705168D01*
X128718812Y-78700879D01*
X128718620Y-78661158D01*
X128713537Y-78619405D01*
X128695162Y-78594158D01*
X128658039Y-78578030D01*
X128657043Y-78577742D01*
X128604410Y-78571400D01*
X128552906Y-78579684D01*
X128514630Y-78599827D01*
X128499272Y-78609773D01*
X128482730Y-78608397D01*
X128457275Y-78593987D01*
X128442328Y-78583817D01*
X128413091Y-78562088D01*
X128394980Y-78545800D01*
X128392074Y-78541137D01*
X128404040Y-78517005D01*
X128439396Y-78488185D01*
X128454753Y-78478461D01*
X128498901Y-78461714D01*
X128558398Y-78452227D01*
X128624487Y-78450095D01*
X128688411Y-78455417D01*
X128741411Y-78468290D01*
X128756731Y-78475110D01*
X128786428Y-78492974D01*
X128809220Y-78513093D01*
X128826083Y-78538962D01*
X128837998Y-78574073D01*
X128845942Y-78621920D01*
X128850894Y-78685996D01*
X128853831Y-78769794D01*
X128854947Y-78825768D01*
X128859052Y-79067822D01*
X128788932Y-79067822D01*
X128746393Y-79066038D01*
X128724476Y-79059942D01*
X128718812Y-79049706D01*
X128715821Y-79038637D01*
X128702451Y-79040754D01*
X128684233Y-79049629D01*
X128638624Y-79063233D01*
X128580007Y-79066899D01*
X128518354Y-79060903D01*
X128463638Y-79045521D01*
X128458730Y-79043386D01*
X128408723Y-79008255D01*
X128375756Y-78959419D01*
X128360587Y-78902333D01*
X128361746Y-78881824D01*
G37*
X128361746Y-78881824D02*
X128485508Y-78881824D01*
X128496413Y-78909425D01*
X128528745Y-78929204D01*
X128580910Y-78939819D01*
X128608787Y-78941228D01*
X128655247Y-78937620D01*
X128686129Y-78923597D01*
X128693664Y-78916931D01*
X128714076Y-78880666D01*
X128718812Y-78847773D01*
X128718812Y-78803763D01*
X128657513Y-78803763D01*
X128586256Y-78807395D01*
X128536276Y-78818818D01*
X128504696Y-78838824D01*
X128497626Y-78847743D01*
X128485508Y-78881824D01*
X128361746Y-78881824D01*
X128363971Y-78842456D01*
X128386663Y-78785244D01*
X128417624Y-78746580D01*
X128436376Y-78729864D01*
X128454733Y-78718878D01*
X128478619Y-78712180D01*
X128513957Y-78708326D01*
X128566669Y-78705873D01*
X128587577Y-78705168D01*
X128718812Y-78700879D01*
X128718620Y-78661158D01*
X128713537Y-78619405D01*
X128695162Y-78594158D01*
X128658039Y-78578030D01*
X128657043Y-78577742D01*
X128604410Y-78571400D01*
X128552906Y-78579684D01*
X128514630Y-78599827D01*
X128499272Y-78609773D01*
X128482730Y-78608397D01*
X128457275Y-78593987D01*
X128442328Y-78583817D01*
X128413091Y-78562088D01*
X128394980Y-78545800D01*
X128392074Y-78541137D01*
X128404040Y-78517005D01*
X128439396Y-78488185D01*
X128454753Y-78478461D01*
X128498901Y-78461714D01*
X128558398Y-78452227D01*
X128624487Y-78450095D01*
X128688411Y-78455417D01*
X128741411Y-78468290D01*
X128756731Y-78475110D01*
X128786428Y-78492974D01*
X128809220Y-78513093D01*
X128826083Y-78538962D01*
X128837998Y-78574073D01*
X128845942Y-78621920D01*
X128850894Y-78685996D01*
X128853831Y-78769794D01*
X128854947Y-78825768D01*
X128859052Y-79067822D01*
X128788932Y-79067822D01*
X128746393Y-79066038D01*
X128724476Y-79059942D01*
X128718812Y-79049706D01*
X128715821Y-79038637D01*
X128702451Y-79040754D01*
X128684233Y-79049629D01*
X128638624Y-79063233D01*
X128580007Y-79066899D01*
X128518354Y-79060903D01*
X128463638Y-79045521D01*
X128458730Y-79043386D01*
X128408723Y-79008255D01*
X128375756Y-78959419D01*
X128360587Y-78902333D01*
X128361746Y-78881824D01*
G36*
X125943518Y-77732299D02*
G01*
X126069418Y-77732299D01*
X126072885Y-77740558D01*
X126087137Y-77745113D01*
X126116530Y-77747065D01*
X126165425Y-77747517D01*
X126184252Y-77747525D01*
X126241533Y-77746843D01*
X126277859Y-77744364D01*
X126297396Y-77739443D01*
X126304310Y-77731434D01*
X126304555Y-77728862D01*
X126296664Y-77708423D01*
X126276915Y-77679789D01*
X126268425Y-77669763D01*
X126236906Y-77641408D01*
X126204051Y-77630259D01*
X126186349Y-77629327D01*
X126138461Y-77640981D01*
X126098301Y-77672285D01*
X126072827Y-77717752D01*
X126072375Y-77719233D01*
X126069418Y-77732299D01*
X125943518Y-77732299D01*
X125957608Y-77665510D01*
X125983962Y-77610025D01*
X126016193Y-77570639D01*
X126075783Y-77527931D01*
X126145832Y-77505109D01*
X126220339Y-77503046D01*
X126293301Y-77522614D01*
X126305832Y-77528514D01*
X126349201Y-77560283D01*
X126390210Y-77606646D01*
X126420832Y-77657696D01*
X126429541Y-77681166D01*
X126437488Y-77723091D01*
X126442226Y-77773757D01*
X126442801Y-77794679D01*
X126442871Y-77860693D01*
X126062917Y-77860693D01*
X126071017Y-77895273D01*
X126090896Y-77936170D01*
X126125653Y-77971514D01*
X126167002Y-77994282D01*
X126193351Y-77999010D01*
X126229084Y-77993273D01*
X126271718Y-77978882D01*
X126286201Y-77972262D01*
X126339760Y-77945513D01*
X126385467Y-77980376D01*
X126411842Y-78003955D01*
X126425876Y-78023417D01*
X126426586Y-78029129D01*
X126414049Y-78042973D01*
X126386572Y-78064012D01*
X126361634Y-78080425D01*
X126294336Y-78109930D01*
X126218890Y-78123284D01*
X126144112Y-78119812D01*
X126084505Y-78101663D01*
X126023059Y-78062784D01*
X125979392Y-78011595D01*
X125952074Y-77945367D01*
X125939678Y-77861371D01*
X125938579Y-77822936D01*
X125942978Y-77734861D01*
X125943518Y-77732299D01*
G37*
X125943518Y-77732299D02*
X126069418Y-77732299D01*
X126072885Y-77740558D01*
X126087137Y-77745113D01*
X126116530Y-77747065D01*
X126165425Y-77747517D01*
X126184252Y-77747525D01*
X126241533Y-77746843D01*
X126277859Y-77744364D01*
X126297396Y-77739443D01*
X126304310Y-77731434D01*
X126304555Y-77728862D01*
X126296664Y-77708423D01*
X126276915Y-77679789D01*
X126268425Y-77669763D01*
X126236906Y-77641408D01*
X126204051Y-77630259D01*
X126186349Y-77629327D01*
X126138461Y-77640981D01*
X126098301Y-77672285D01*
X126072827Y-77717752D01*
X126072375Y-77719233D01*
X126069418Y-77732299D01*
X125943518Y-77732299D01*
X125957608Y-77665510D01*
X125983962Y-77610025D01*
X126016193Y-77570639D01*
X126075783Y-77527931D01*
X126145832Y-77505109D01*
X126220339Y-77503046D01*
X126293301Y-77522614D01*
X126305832Y-77528514D01*
X126349201Y-77560283D01*
X126390210Y-77606646D01*
X126420832Y-77657696D01*
X126429541Y-77681166D01*
X126437488Y-77723091D01*
X126442226Y-77773757D01*
X126442801Y-77794679D01*
X126442871Y-77860693D01*
X126062917Y-77860693D01*
X126071017Y-77895273D01*
X126090896Y-77936170D01*
X126125653Y-77971514D01*
X126167002Y-77994282D01*
X126193351Y-77999010D01*
X126229084Y-77993273D01*
X126271718Y-77978882D01*
X126286201Y-77972262D01*
X126339760Y-77945513D01*
X126385467Y-77980376D01*
X126411842Y-78003955D01*
X126425876Y-78023417D01*
X126426586Y-78029129D01*
X126414049Y-78042973D01*
X126386572Y-78064012D01*
X126361634Y-78080425D01*
X126294336Y-78109930D01*
X126218890Y-78123284D01*
X126144112Y-78119812D01*
X126084505Y-78101663D01*
X126023059Y-78062784D01*
X125979392Y-78011595D01*
X125952074Y-77945367D01*
X125939678Y-77861371D01*
X125938579Y-77822936D01*
X125942978Y-77734861D01*
X125943518Y-77732299D01*
G36*
X125374060Y-77820650D02*
G01*
X125512376Y-77820650D01*
X125515903Y-77890254D01*
X125527785Y-77938569D01*
X125549980Y-77968631D01*
X125584441Y-77983471D01*
X125619258Y-77986436D01*
X125658671Y-77983028D01*
X125684829Y-77969617D01*
X125701186Y-77951896D01*
X125714063Y-77932835D01*
X125721728Y-77911601D01*
X125725139Y-77881849D01*
X125725251Y-77837236D01*
X125724103Y-77799880D01*
X125721468Y-77743604D01*
X125717544Y-77706658D01*
X125710937Y-77683223D01*
X125700251Y-77667480D01*
X125690167Y-77658380D01*
X125648030Y-77638537D01*
X125598160Y-77635332D01*
X125569524Y-77642168D01*
X125541172Y-77666464D01*
X125522391Y-77713728D01*
X125513288Y-77783624D01*
X125512376Y-77820650D01*
X125374060Y-77820650D01*
X125374060Y-77508614D01*
X125443218Y-77508614D01*
X125484740Y-77510256D01*
X125506162Y-77516087D01*
X125512374Y-77527461D01*
X125512376Y-77527798D01*
X125515258Y-77538938D01*
X125527970Y-77537673D01*
X125553243Y-77525433D01*
X125612131Y-77506707D01*
X125678385Y-77504739D01*
X125741241Y-77519184D01*
X125767753Y-77532282D01*
X125800447Y-77555106D01*
X125824275Y-77579996D01*
X125840594Y-77611249D01*
X125850760Y-77653166D01*
X125856128Y-77710044D01*
X125858056Y-77786184D01*
X125858169Y-77818917D01*
X125857839Y-77890656D01*
X125856473Y-77941927D01*
X125853500Y-77977404D01*
X125848351Y-78001763D01*
X125840457Y-78019680D01*
X125832243Y-78031902D01*
X125779813Y-78083905D01*
X125718070Y-78115184D01*
X125651464Y-78124592D01*
X125584442Y-78110980D01*
X125563208Y-78101354D01*
X125512376Y-78074859D01*
X125512376Y-78490052D01*
X125549475Y-78470868D01*
X125598357Y-78456025D01*
X125658439Y-78452222D01*
X125718436Y-78459243D01*
X125763744Y-78475013D01*
X125801325Y-78505047D01*
X125833436Y-78548024D01*
X125835850Y-78552436D01*
X125846033Y-78573221D01*
X125853470Y-78594170D01*
X125858589Y-78619548D01*
X125861819Y-78653618D01*
X125863587Y-78700641D01*
X125864323Y-78764882D01*
X125864456Y-78837176D01*
X125864456Y-79067822D01*
X125726139Y-79067822D01*
X125726139Y-78642533D01*
X125687451Y-78609979D01*
X125647262Y-78583940D01*
X125609203Y-78579205D01*
X125570934Y-78591389D01*
X125550538Y-78603320D01*
X125535358Y-78620313D01*
X125524562Y-78645995D01*
X125517317Y-78683991D01*
X125512792Y-78737926D01*
X125510156Y-78811425D01*
X125509228Y-78860347D01*
X125506089Y-79061535D01*
X125440074Y-79065336D01*
X125374060Y-79069136D01*
X125374060Y-77820650D01*
G37*
X125374060Y-77820650D02*
X125512376Y-77820650D01*
X125515903Y-77890254D01*
X125527785Y-77938569D01*
X125549980Y-77968631D01*
X125584441Y-77983471D01*
X125619258Y-77986436D01*
X125658671Y-77983028D01*
X125684829Y-77969617D01*
X125701186Y-77951896D01*
X125714063Y-77932835D01*
X125721728Y-77911601D01*
X125725139Y-77881849D01*
X125725251Y-77837236D01*
X125724103Y-77799880D01*
X125721468Y-77743604D01*
X125717544Y-77706658D01*
X125710937Y-77683223D01*
X125700251Y-77667480D01*
X125690167Y-77658380D01*
X125648030Y-77638537D01*
X125598160Y-77635332D01*
X125569524Y-77642168D01*
X125541172Y-77666464D01*
X125522391Y-77713728D01*
X125513288Y-77783624D01*
X125512376Y-77820650D01*
X125374060Y-77820650D01*
X125374060Y-77508614D01*
X125443218Y-77508614D01*
X125484740Y-77510256D01*
X125506162Y-77516087D01*
X125512374Y-77527461D01*
X125512376Y-77527798D01*
X125515258Y-77538938D01*
X125527970Y-77537673D01*
X125553243Y-77525433D01*
X125612131Y-77506707D01*
X125678385Y-77504739D01*
X125741241Y-77519184D01*
X125767753Y-77532282D01*
X125800447Y-77555106D01*
X125824275Y-77579996D01*
X125840594Y-77611249D01*
X125850760Y-77653166D01*
X125856128Y-77710044D01*
X125858056Y-77786184D01*
X125858169Y-77818917D01*
X125857839Y-77890656D01*
X125856473Y-77941927D01*
X125853500Y-77977404D01*
X125848351Y-78001763D01*
X125840457Y-78019680D01*
X125832243Y-78031902D01*
X125779813Y-78083905D01*
X125718070Y-78115184D01*
X125651464Y-78124592D01*
X125584442Y-78110980D01*
X125563208Y-78101354D01*
X125512376Y-78074859D01*
X125512376Y-78490052D01*
X125549475Y-78470868D01*
X125598357Y-78456025D01*
X125658439Y-78452222D01*
X125718436Y-78459243D01*
X125763744Y-78475013D01*
X125801325Y-78505047D01*
X125833436Y-78548024D01*
X125835850Y-78552436D01*
X125846033Y-78573221D01*
X125853470Y-78594170D01*
X125858589Y-78619548D01*
X125861819Y-78653618D01*
X125863587Y-78700641D01*
X125864323Y-78764882D01*
X125864456Y-78837176D01*
X125864456Y-79067822D01*
X125726139Y-79067822D01*
X125726139Y-78642533D01*
X125687451Y-78609979D01*
X125647262Y-78583940D01*
X125609203Y-78579205D01*
X125570934Y-78591389D01*
X125550538Y-78603320D01*
X125535358Y-78620313D01*
X125524562Y-78645995D01*
X125517317Y-78683991D01*
X125512792Y-78737926D01*
X125510156Y-78811425D01*
X125509228Y-78860347D01*
X125506089Y-79061535D01*
X125440074Y-79065336D01*
X125374060Y-79069136D01*
X125374060Y-77820650D01*
G36*
X129449460Y-77508030D02*
G01*
X129492711Y-77521245D01*
X129520558Y-77537941D01*
X129529629Y-77551145D01*
X129527132Y-77566797D01*
X129510931Y-77591385D01*
X129497232Y-77608800D01*
X129468992Y-77640283D01*
X129447775Y-77653529D01*
X129429688Y-77652664D01*
X129376035Y-77639010D01*
X129336630Y-77639630D01*
X129304632Y-77655104D01*
X129293890Y-77664161D01*
X129259505Y-77696027D01*
X129259505Y-78112179D01*
X129121188Y-78112179D01*
X129121188Y-77508614D01*
X129190347Y-77508614D01*
X129231869Y-77510256D01*
X129253291Y-77516087D01*
X129259502Y-77527461D01*
X129259505Y-77527798D01*
X129262439Y-77539713D01*
X129275704Y-77538159D01*
X129294084Y-77529563D01*
X129332046Y-77513568D01*
X129362872Y-77503945D01*
X129402536Y-77501478D01*
X129449460Y-77508030D01*
G37*
X129449460Y-77508030D02*
X129492711Y-77521245D01*
X129520558Y-77537941D01*
X129529629Y-77551145D01*
X129527132Y-77566797D01*
X129510931Y-77591385D01*
X129497232Y-77608800D01*
X129468992Y-77640283D01*
X129447775Y-77653529D01*
X129429688Y-77652664D01*
X129376035Y-77639010D01*
X129336630Y-77639630D01*
X129304632Y-77655104D01*
X129293890Y-77664161D01*
X129259505Y-77696027D01*
X129259505Y-78112179D01*
X129121188Y-78112179D01*
X129121188Y-77508614D01*
X129190347Y-77508614D01*
X129231869Y-77510256D01*
X129253291Y-77516087D01*
X129259502Y-77527461D01*
X129259505Y-77527798D01*
X129262439Y-77539713D01*
X129275704Y-77538159D01*
X129294084Y-77529563D01*
X129332046Y-77513568D01*
X129362872Y-77503945D01*
X129402536Y-77501478D01*
X129449460Y-77508030D01*
G36*
X127664017Y-77506452D02*
G01*
X127711634Y-77515482D01*
X127761034Y-77534370D01*
X127766312Y-77536777D01*
X127803774Y-77556476D01*
X127829717Y-77574781D01*
X127838103Y-77586508D01*
X127830117Y-77605632D01*
X127810720Y-77633850D01*
X127802110Y-77644384D01*
X127766628Y-77685847D01*
X127720885Y-77658858D01*
X127677350Y-77640878D01*
X127627050Y-77631267D01*
X127578812Y-77630660D01*
X127541467Y-77639691D01*
X127532505Y-77645327D01*
X127515437Y-77671171D01*
X127513363Y-77700941D01*
X127526134Y-77724197D01*
X127533688Y-77728708D01*
X127556325Y-77734309D01*
X127596115Y-77740892D01*
X127645166Y-77747183D01*
X127654215Y-77748170D01*
X127732996Y-77761798D01*
X127790136Y-77784946D01*
X127828030Y-77819752D01*
X127849079Y-77868354D01*
X127855635Y-77927718D01*
X127846577Y-77995198D01*
X127817164Y-78048188D01*
X127767278Y-78086783D01*
X127696800Y-78111081D01*
X127618565Y-78120667D01*
X127554766Y-78120552D01*
X127503016Y-78111845D01*
X127467673Y-78099825D01*
X127423017Y-78078880D01*
X127381747Y-78054574D01*
X127367079Y-78043876D01*
X127329357Y-78013084D01*
X127374852Y-77967049D01*
X127420347Y-77921013D01*
X127472072Y-77955243D01*
X127523952Y-77980952D01*
X127579351Y-77994399D01*
X127632605Y-77995818D01*
X127678049Y-77985443D01*
X127710016Y-77963507D01*
X127720338Y-77944998D01*
X127718789Y-77915314D01*
X127693140Y-77892615D01*
X127643460Y-77876940D01*
X127589031Y-77869695D01*
X127505264Y-77855873D01*
X127443033Y-77829796D01*
X127401507Y-77790699D01*
X127379853Y-77737820D01*
X127376853Y-77675126D01*
X127391671Y-77609642D01*
X127425454Y-77560144D01*
X127478505Y-77526408D01*
X127551126Y-77508207D01*
X127604928Y-77504639D01*
X127664017Y-77506452D01*
G37*
X127664017Y-77506452D02*
X127711634Y-77515482D01*
X127761034Y-77534370D01*
X127766312Y-77536777D01*
X127803774Y-77556476D01*
X127829717Y-77574781D01*
X127838103Y-77586508D01*
X127830117Y-77605632D01*
X127810720Y-77633850D01*
X127802110Y-77644384D01*
X127766628Y-77685847D01*
X127720885Y-77658858D01*
X127677350Y-77640878D01*
X127627050Y-77631267D01*
X127578812Y-77630660D01*
X127541467Y-77639691D01*
X127532505Y-77645327D01*
X127515437Y-77671171D01*
X127513363Y-77700941D01*
X127526134Y-77724197D01*
X127533688Y-77728708D01*
X127556325Y-77734309D01*
X127596115Y-77740892D01*
X127645166Y-77747183D01*
X127654215Y-77748170D01*
X127732996Y-77761798D01*
X127790136Y-77784946D01*
X127828030Y-77819752D01*
X127849079Y-77868354D01*
X127855635Y-77927718D01*
X127846577Y-77995198D01*
X127817164Y-78048188D01*
X127767278Y-78086783D01*
X127696800Y-78111081D01*
X127618565Y-78120667D01*
X127554766Y-78120552D01*
X127503016Y-78111845D01*
X127467673Y-78099825D01*
X127423017Y-78078880D01*
X127381747Y-78054574D01*
X127367079Y-78043876D01*
X127329357Y-78013084D01*
X127374852Y-77967049D01*
X127420347Y-77921013D01*
X127472072Y-77955243D01*
X127523952Y-77980952D01*
X127579351Y-77994399D01*
X127632605Y-77995818D01*
X127678049Y-77985443D01*
X127710016Y-77963507D01*
X127720338Y-77944998D01*
X127718789Y-77915314D01*
X127693140Y-77892615D01*
X127643460Y-77876940D01*
X127589031Y-77869695D01*
X127505264Y-77855873D01*
X127443033Y-77829796D01*
X127401507Y-77790699D01*
X127379853Y-77737820D01*
X127376853Y-77675126D01*
X127391671Y-77609642D01*
X127425454Y-77560144D01*
X127478505Y-77526408D01*
X127551126Y-77508207D01*
X127604928Y-77504639D01*
X127664017Y-77506452D01*
G36*
X126959367Y-78766155D02*
G01*
X127096721Y-78766155D01*
X127099903Y-78820194D01*
X127107141Y-78864735D01*
X127116940Y-78889888D01*
X127154011Y-78924260D01*
X127198026Y-78936582D01*
X127243416Y-78926618D01*
X127282203Y-78896895D01*
X127296892Y-78876905D01*
X127305481Y-78853050D01*
X127309504Y-78818230D01*
X127310495Y-78765930D01*
X127308722Y-78714139D01*
X127304037Y-78668634D01*
X127297397Y-78638181D01*
X127296290Y-78635452D01*
X127269509Y-78603000D01*
X127230421Y-78585183D01*
X127186685Y-78582306D01*
X127145962Y-78594674D01*
X127115913Y-78622593D01*
X127112796Y-78628148D01*
X127103039Y-78662022D01*
X127097723Y-78710728D01*
X127096721Y-78766155D01*
X126959367Y-78766155D01*
X126959432Y-78745540D01*
X126960336Y-78712563D01*
X126966486Y-78630981D01*
X126979267Y-78569730D01*
X127000529Y-78524449D01*
X127032122Y-78490779D01*
X127062793Y-78471014D01*
X127105646Y-78457120D01*
X127158944Y-78452354D01*
X127213520Y-78456236D01*
X127260208Y-78468282D01*
X127284876Y-78482693D01*
X127310495Y-78505878D01*
X127310495Y-78212773D01*
X127448812Y-78212773D01*
X127448812Y-79067822D01*
X127379654Y-79067822D01*
X127339512Y-79066645D01*
X127318606Y-79061772D01*
X127311078Y-79051186D01*
X127310495Y-79044029D01*
X127309226Y-79029676D01*
X127301221Y-79026923D01*
X127280185Y-79035771D01*
X127263827Y-79044029D01*
X127201023Y-79063597D01*
X127132752Y-79064729D01*
X127077248Y-79050135D01*
X127025562Y-79014877D01*
X126986162Y-78962835D01*
X126964587Y-78901450D01*
X126964038Y-78898018D01*
X126960833Y-78860571D01*
X126959239Y-78806813D01*
X126959367Y-78766155D01*
G37*
X126959367Y-78766155D02*
X127096721Y-78766155D01*
X127099903Y-78820194D01*
X127107141Y-78864735D01*
X127116940Y-78889888D01*
X127154011Y-78924260D01*
X127198026Y-78936582D01*
X127243416Y-78926618D01*
X127282203Y-78896895D01*
X127296892Y-78876905D01*
X127305481Y-78853050D01*
X127309504Y-78818230D01*
X127310495Y-78765930D01*
X127308722Y-78714139D01*
X127304037Y-78668634D01*
X127297397Y-78638181D01*
X127296290Y-78635452D01*
X127269509Y-78603000D01*
X127230421Y-78585183D01*
X127186685Y-78582306D01*
X127145962Y-78594674D01*
X127115913Y-78622593D01*
X127112796Y-78628148D01*
X127103039Y-78662022D01*
X127097723Y-78710728D01*
X127096721Y-78766155D01*
X126959367Y-78766155D01*
X126959432Y-78745540D01*
X126960336Y-78712563D01*
X126966486Y-78630981D01*
X126979267Y-78569730D01*
X127000529Y-78524449D01*
X127032122Y-78490779D01*
X127062793Y-78471014D01*
X127105646Y-78457120D01*
X127158944Y-78452354D01*
X127213520Y-78456236D01*
X127260208Y-78468282D01*
X127284876Y-78482693D01*
X127310495Y-78505878D01*
X127310495Y-78212773D01*
X127448812Y-78212773D01*
X127448812Y-79067822D01*
X127379654Y-79067822D01*
X127339512Y-79066645D01*
X127318606Y-79061772D01*
X127311078Y-79051186D01*
X127310495Y-79044029D01*
X127309226Y-79029676D01*
X127301221Y-79026923D01*
X127280185Y-79035771D01*
X127263827Y-79044029D01*
X127201023Y-79063597D01*
X127132752Y-79064729D01*
X127077248Y-79050135D01*
X127025562Y-79014877D01*
X126986162Y-78962835D01*
X126964587Y-78901450D01*
X126964038Y-78898018D01*
X126960833Y-78860571D01*
X126959239Y-78806813D01*
X126959367Y-78766155D01*
G36*
X129285255Y-78451486D02*
G01*
X129333595Y-78461015D01*
X129361114Y-78475125D01*
X129390064Y-78498568D01*
X129348876Y-78550571D01*
X129323482Y-78582064D01*
X129306238Y-78597428D01*
X129289102Y-78599776D01*
X129264027Y-78592217D01*
X129252257Y-78587941D01*
X129204270Y-78581631D01*
X129160324Y-78595156D01*
X129128060Y-78625710D01*
X129122819Y-78635452D01*
X129117112Y-78661258D01*
X129112706Y-78708817D01*
X129109811Y-78774758D01*
X129108631Y-78855710D01*
X129108614Y-78867226D01*
X129108614Y-79067822D01*
X128970297Y-79067822D01*
X128970297Y-78451683D01*
X129039456Y-78451683D01*
X129079333Y-78452725D01*
X129100107Y-78457358D01*
X129107789Y-78467849D01*
X129108614Y-78477745D01*
X129108614Y-78503806D01*
X129141745Y-78477745D01*
X129179735Y-78459965D01*
X129230770Y-78451174D01*
X129285255Y-78451486D01*
G37*
X129285255Y-78451486D02*
X129333595Y-78461015D01*
X129361114Y-78475125D01*
X129390064Y-78498568D01*
X129348876Y-78550571D01*
X129323482Y-78582064D01*
X129306238Y-78597428D01*
X129289102Y-78599776D01*
X129264027Y-78592217D01*
X129252257Y-78587941D01*
X129204270Y-78581631D01*
X129160324Y-78595156D01*
X129128060Y-78625710D01*
X129122819Y-78635452D01*
X129117112Y-78661258D01*
X129112706Y-78708817D01*
X129109811Y-78774758D01*
X129108631Y-78855710D01*
X129108614Y-78867226D01*
X129108614Y-79067822D01*
X128970297Y-79067822D01*
X128970297Y-78451683D01*
X129039456Y-78451683D01*
X129079333Y-78452725D01*
X129100107Y-78457358D01*
X129107789Y-78467849D01*
X129108614Y-78477745D01*
X129108614Y-78503806D01*
X129141745Y-78477745D01*
X129179735Y-78459965D01*
X129230770Y-78451174D01*
X129285255Y-78451486D01*
G36*
X125944045Y-78871566D02*
G01*
X126065644Y-78871566D01*
X126076274Y-78904161D01*
X126093590Y-78922505D01*
X126128348Y-78936379D01*
X126174227Y-78941917D01*
X126221012Y-78939191D01*
X126258486Y-78928274D01*
X126268985Y-78921269D01*
X126287332Y-78888904D01*
X126291980Y-78852111D01*
X126291980Y-78803763D01*
X126222418Y-78803763D01*
X126156333Y-78808850D01*
X126106236Y-78823263D01*
X126075071Y-78845729D01*
X126065644Y-78871566D01*
X125944045Y-78871566D01*
X125946013Y-78829647D01*
X125969290Y-78773845D01*
X126013052Y-78731647D01*
X126019101Y-78727808D01*
X126045093Y-78715309D01*
X126077265Y-78707740D01*
X126122240Y-78704061D01*
X126175669Y-78703216D01*
X126291980Y-78703169D01*
X126291980Y-78654411D01*
X126287047Y-78616581D01*
X126274457Y-78591236D01*
X126272983Y-78589887D01*
X126244966Y-78578800D01*
X126202674Y-78574503D01*
X126155936Y-78576615D01*
X126114582Y-78584756D01*
X126090043Y-78596965D01*
X126076747Y-78606746D01*
X126062706Y-78608613D01*
X126043329Y-78600600D01*
X126014024Y-78580739D01*
X125970197Y-78547063D01*
X125966175Y-78543909D01*
X125968236Y-78532236D01*
X125985432Y-78512822D01*
X126011567Y-78491248D01*
X126040448Y-78473096D01*
X126049522Y-78468809D01*
X126082620Y-78460256D01*
X126131120Y-78454155D01*
X126185305Y-78451708D01*
X126187839Y-78451703D01*
X126265790Y-78456555D01*
X126324945Y-78472339D01*
X126369977Y-78500948D01*
X126401754Y-78538419D01*
X126411634Y-78554411D01*
X126418927Y-78571163D01*
X126424026Y-78592592D01*
X126427321Y-78622616D01*
X126429203Y-78665154D01*
X126430063Y-78724122D01*
X126430293Y-78803440D01*
X126430297Y-78824484D01*
X126430297Y-79067822D01*
X126369941Y-79067822D01*
X126331443Y-79065126D01*
X126302977Y-79058295D01*
X126295845Y-79054083D01*
X126276348Y-79046813D01*
X126256434Y-79054083D01*
X126223647Y-79063160D01*
X126176022Y-79066813D01*
X126123236Y-79065228D01*
X126074964Y-79058589D01*
X126046782Y-79050072D01*
X125992247Y-79015063D01*
X125958165Y-78966479D01*
X125942843Y-78901882D01*
X125942701Y-78900223D01*
X125944045Y-78871566D01*
G37*
X125944045Y-78871566D02*
X126065644Y-78871566D01*
X126076274Y-78904161D01*
X126093590Y-78922505D01*
X126128348Y-78936379D01*
X126174227Y-78941917D01*
X126221012Y-78939191D01*
X126258486Y-78928274D01*
X126268985Y-78921269D01*
X126287332Y-78888904D01*
X126291980Y-78852111D01*
X126291980Y-78803763D01*
X126222418Y-78803763D01*
X126156333Y-78808850D01*
X126106236Y-78823263D01*
X126075071Y-78845729D01*
X126065644Y-78871566D01*
X125944045Y-78871566D01*
X125946013Y-78829647D01*
X125969290Y-78773845D01*
X126013052Y-78731647D01*
X126019101Y-78727808D01*
X126045093Y-78715309D01*
X126077265Y-78707740D01*
X126122240Y-78704061D01*
X126175669Y-78703216D01*
X126291980Y-78703169D01*
X126291980Y-78654411D01*
X126287047Y-78616581D01*
X126274457Y-78591236D01*
X126272983Y-78589887D01*
X126244966Y-78578800D01*
X126202674Y-78574503D01*
X126155936Y-78576615D01*
X126114582Y-78584756D01*
X126090043Y-78596965D01*
X126076747Y-78606746D01*
X126062706Y-78608613D01*
X126043329Y-78600600D01*
X126014024Y-78580739D01*
X125970197Y-78547063D01*
X125966175Y-78543909D01*
X125968236Y-78532236D01*
X125985432Y-78512822D01*
X126011567Y-78491248D01*
X126040448Y-78473096D01*
X126049522Y-78468809D01*
X126082620Y-78460256D01*
X126131120Y-78454155D01*
X126185305Y-78451708D01*
X126187839Y-78451703D01*
X126265790Y-78456555D01*
X126324945Y-78472339D01*
X126369977Y-78500948D01*
X126401754Y-78538419D01*
X126411634Y-78554411D01*
X126418927Y-78571163D01*
X126424026Y-78592592D01*
X126427321Y-78622616D01*
X126429203Y-78665154D01*
X126430063Y-78724122D01*
X126430293Y-78803440D01*
X126430297Y-78824484D01*
X126430297Y-79067822D01*
X126369941Y-79067822D01*
X126331443Y-79065126D01*
X126302977Y-79058295D01*
X126295845Y-79054083D01*
X126276348Y-79046813D01*
X126256434Y-79054083D01*
X126223647Y-79063160D01*
X126176022Y-79066813D01*
X126123236Y-79065228D01*
X126074964Y-79058589D01*
X126046782Y-79050072D01*
X125992247Y-79015063D01*
X125958165Y-78966479D01*
X125942843Y-78901882D01*
X125942701Y-78900223D01*
X125944045Y-78871566D01*
G36*
X127931524Y-78454237D02*
G01*
X127981255Y-78457971D01*
X128111291Y-78847773D01*
X128131678Y-78778614D01*
X128143946Y-78735874D01*
X128160085Y-78678115D01*
X128177512Y-78614625D01*
X128186726Y-78580570D01*
X128221388Y-78451683D01*
X128364391Y-78451683D01*
X128321646Y-78586857D01*
X128300596Y-78653342D01*
X128275167Y-78733539D01*
X128248610Y-78817193D01*
X128224902Y-78891782D01*
X128170902Y-79061535D01*
X128112598Y-79065328D01*
X128054295Y-79069122D01*
X128022679Y-78964734D01*
X128003182Y-78899889D01*
X127981904Y-78828400D01*
X127963308Y-78765263D01*
X127962574Y-78762750D01*
X127948684Y-78719969D01*
X127936429Y-78690779D01*
X127927846Y-78679741D01*
X127926082Y-78681018D01*
X127919891Y-78698130D01*
X127908128Y-78734787D01*
X127892225Y-78786378D01*
X127873614Y-78848294D01*
X127863543Y-78882352D01*
X127809007Y-79067822D01*
X127693264Y-79067822D01*
X127600737Y-78775471D01*
X127574744Y-78693462D01*
X127551066Y-78618987D01*
X127530820Y-78555544D01*
X127515126Y-78506632D01*
X127505102Y-78475749D01*
X127502055Y-78466726D01*
X127504467Y-78457487D01*
X127523408Y-78453441D01*
X127562823Y-78453846D01*
X127568993Y-78454152D01*
X127642086Y-78457971D01*
X127689957Y-78634010D01*
X127707553Y-78698211D01*
X127723277Y-78754649D01*
X127735746Y-78798422D01*
X127743574Y-78824630D01*
X127745020Y-78828903D01*
X127751014Y-78823990D01*
X127763101Y-78798532D01*
X127779893Y-78755997D01*
X127800003Y-78699850D01*
X127817003Y-78649130D01*
X127881794Y-78450504D01*
X127931524Y-78454237D01*
G37*
X127931524Y-78454237D02*
X127981255Y-78457971D01*
X128111291Y-78847773D01*
X128131678Y-78778614D01*
X128143946Y-78735874D01*
X128160085Y-78678115D01*
X128177512Y-78614625D01*
X128186726Y-78580570D01*
X128221388Y-78451683D01*
X128364391Y-78451683D01*
X128321646Y-78586857D01*
X128300596Y-78653342D01*
X128275167Y-78733539D01*
X128248610Y-78817193D01*
X128224902Y-78891782D01*
X128170902Y-79061535D01*
X128112598Y-79065328D01*
X128054295Y-79069122D01*
X128022679Y-78964734D01*
X128003182Y-78899889D01*
X127981904Y-78828400D01*
X127963308Y-78765263D01*
X127962574Y-78762750D01*
X127948684Y-78719969D01*
X127936429Y-78690779D01*
X127927846Y-78679741D01*
X127926082Y-78681018D01*
X127919891Y-78698130D01*
X127908128Y-78734787D01*
X127892225Y-78786378D01*
X127873614Y-78848294D01*
X127863543Y-78882352D01*
X127809007Y-79067822D01*
X127693264Y-79067822D01*
X127600737Y-78775471D01*
X127574744Y-78693462D01*
X127551066Y-78618987D01*
X127530820Y-78555544D01*
X127515126Y-78506632D01*
X127505102Y-78475749D01*
X127502055Y-78466726D01*
X127504467Y-78457487D01*
X127523408Y-78453441D01*
X127562823Y-78453846D01*
X127568993Y-78454152D01*
X127642086Y-78457971D01*
X127689957Y-78634010D01*
X127707553Y-78698211D01*
X127723277Y-78754649D01*
X127735746Y-78798422D01*
X127743574Y-78824630D01*
X127745020Y-78828903D01*
X127751014Y-78823990D01*
X127763101Y-78798532D01*
X127779893Y-78755997D01*
X127800003Y-78699850D01*
X127817003Y-78649130D01*
X127881794Y-78450504D01*
X127931524Y-78454237D01*
G36*
X124784328Y-77809219D02*
G01*
X124910045Y-77809219D01*
X124911274Y-77844770D01*
X124915734Y-77892094D01*
X124923603Y-77922465D01*
X124937793Y-77944072D01*
X124951083Y-77956694D01*
X124998198Y-77983122D01*
X125047495Y-77986653D01*
X125093407Y-77967639D01*
X125116362Y-77946331D01*
X125132904Y-77924859D01*
X125142579Y-77904313D01*
X125146826Y-77877574D01*
X125147080Y-77837523D01*
X125145772Y-77800638D01*
X125142957Y-77747947D01*
X125138495Y-77713772D01*
X125130452Y-77691480D01*
X125116897Y-77674442D01*
X125106155Y-77664703D01*
X125061223Y-77639123D01*
X125012751Y-77637847D01*
X124972106Y-77652999D01*
X124937433Y-77684642D01*
X124916776Y-77736620D01*
X124910045Y-77809219D01*
X124784328Y-77809219D01*
X124783521Y-77766621D01*
X124786052Y-77708056D01*
X124793638Y-77664007D01*
X124807319Y-77629248D01*
X124828135Y-77598551D01*
X124835853Y-77589436D01*
X124884111Y-77544021D01*
X124935872Y-77517493D01*
X124999172Y-77506379D01*
X125030039Y-77505471D01*
X125111739Y-77515148D01*
X125177521Y-77544231D01*
X125227460Y-77592793D01*
X125261626Y-77660908D01*
X125280093Y-77748651D01*
X125281417Y-77762351D01*
X125282454Y-77858939D01*
X125269007Y-77943602D01*
X125241892Y-78012221D01*
X125227373Y-78034294D01*
X125176799Y-78081011D01*
X125112391Y-78111268D01*
X125040334Y-78123824D01*
X124966815Y-78117439D01*
X124910928Y-78097772D01*
X124862868Y-78064629D01*
X124823588Y-78021175D01*
X124822908Y-78020158D01*
X124806956Y-77993338D01*
X124796590Y-77966368D01*
X124790312Y-77932332D01*
X124786627Y-77884310D01*
X124785003Y-77844931D01*
X124784328Y-77809219D01*
G37*
X124784328Y-77809219D02*
X124910045Y-77809219D01*
X124911274Y-77844770D01*
X124915734Y-77892094D01*
X124923603Y-77922465D01*
X124937793Y-77944072D01*
X124951083Y-77956694D01*
X124998198Y-77983122D01*
X125047495Y-77986653D01*
X125093407Y-77967639D01*
X125116362Y-77946331D01*
X125132904Y-77924859D01*
X125142579Y-77904313D01*
X125146826Y-77877574D01*
X125147080Y-77837523D01*
X125145772Y-77800638D01*
X125142957Y-77747947D01*
X125138495Y-77713772D01*
X125130452Y-77691480D01*
X125116897Y-77674442D01*
X125106155Y-77664703D01*
X125061223Y-77639123D01*
X125012751Y-77637847D01*
X124972106Y-77652999D01*
X124937433Y-77684642D01*
X124916776Y-77736620D01*
X124910045Y-77809219D01*
X124784328Y-77809219D01*
X124783521Y-77766621D01*
X124786052Y-77708056D01*
X124793638Y-77664007D01*
X124807319Y-77629248D01*
X124828135Y-77598551D01*
X124835853Y-77589436D01*
X124884111Y-77544021D01*
X124935872Y-77517493D01*
X124999172Y-77506379D01*
X125030039Y-77505471D01*
X125111739Y-77515148D01*
X125177521Y-77544231D01*
X125227460Y-77592793D01*
X125261626Y-77660908D01*
X125280093Y-77748651D01*
X125281417Y-77762351D01*
X125282454Y-77858939D01*
X125269007Y-77943602D01*
X125241892Y-78012221D01*
X125227373Y-78034294D01*
X125176799Y-78081011D01*
X125112391Y-78111268D01*
X125040334Y-78123824D01*
X124966815Y-78117439D01*
X124910928Y-78097772D01*
X124862868Y-78064629D01*
X124823588Y-78021175D01*
X124822908Y-78020158D01*
X124806956Y-77993338D01*
X124796590Y-77966368D01*
X124790312Y-77932332D01*
X124786627Y-77884310D01*
X124785003Y-77844931D01*
X124784328Y-77809219D01*
D15*
%TO.C,J6*%
X96670000Y-81725000D02*
X96670000Y-80395000D01*
X96670000Y-85595000D02*
X99330000Y-85595000D01*
X96670000Y-82995000D02*
X96670000Y-85595000D01*
X96670000Y-82995000D02*
X99330000Y-82995000D01*
X96670000Y-80395000D02*
X98000000Y-80395000D01*
X99330000Y-82995000D02*
X99330000Y-85595000D01*
%TO.C,J3*%
X134230000Y-106800000D02*
X134230000Y-108130000D01*
X134230000Y-102930000D02*
X131570000Y-102930000D01*
X134230000Y-105530000D02*
X134230000Y-102930000D01*
X134230000Y-105530000D02*
X131570000Y-105530000D01*
X134230000Y-108130000D02*
X132900000Y-108130000D01*
X131570000Y-105530000D02*
X131570000Y-102930000D01*
%TO.C,J1*%
X112710000Y-106660000D02*
X112210000Y-106160000D01*
X112910000Y-126570000D02*
X129410000Y-126570000D01*
X112210000Y-107160000D02*
X112710000Y-106660000D01*
X112910000Y-114170000D02*
X112910000Y-126570000D01*
X112910000Y-104740000D02*
X129410000Y-104740000D01*
X129410000Y-104740000D02*
X129410000Y-110870000D01*
X112210000Y-106160000D02*
X112210000Y-107160000D01*
X129410000Y-114170000D02*
X129410000Y-126570000D01*
X112910000Y-104740000D02*
X112910000Y-110870000D01*
%TO.C,D6*%
X132210000Y-121010000D02*
X132210000Y-118150000D01*
X130290000Y-118150000D02*
X130290000Y-121010000D01*
X130290000Y-121010000D02*
X132210000Y-121010000D01*
%TO.C,D5*%
X109690000Y-117615000D02*
X109690000Y-120475000D01*
X111610000Y-120475000D02*
X111610000Y-117615000D01*
X111610000Y-117615000D02*
X109690000Y-117615000D01*
%TO.C,R14*%
X132277064Y-116635000D02*
X131822936Y-116635000D01*
X132277064Y-115165000D02*
X131822936Y-115165000D01*
%TO.C,D4*%
X99490000Y-91610000D02*
X101410000Y-91610000D01*
X101410000Y-91610000D02*
X101410000Y-88750000D01*
X99490000Y-88750000D02*
X99490000Y-91610000D01*
%TO.C,L1*%
X130527064Y-94985000D02*
X130072936Y-94985000D01*
X130527064Y-93515000D02*
X130072936Y-93515000D01*
%TO.C,R11*%
X130072936Y-97715000D02*
X130527064Y-97715000D01*
X130072936Y-99185000D02*
X130527064Y-99185000D01*
%TO.C,R9*%
X105327064Y-66185000D02*
X104872936Y-66185000D01*
X105327064Y-64715000D02*
X104872936Y-64715000D01*
%TO.C,U3*%
X127460000Y-92390000D02*
X127460000Y-92865000D01*
X126985000Y-96610000D02*
X127460000Y-96610000D01*
X126985000Y-92390000D02*
X127460000Y-92390000D01*
X123715000Y-96610000D02*
X123240000Y-96610000D01*
X123715000Y-92390000D02*
X123240000Y-92390000D01*
X123240000Y-96610000D02*
X123240000Y-96135000D01*
X123240000Y-92390000D02*
X123240000Y-92865000D01*
%TO.C,C4*%
X101540000Y-56210000D02*
X104560000Y-56210000D01*
X104560000Y-56210000D02*
X104560000Y-52000000D01*
X101540000Y-52000000D02*
X101540000Y-56210000D01*
%TO.C,C13*%
X97801248Y-92715000D02*
X98323752Y-92715000D01*
X97801248Y-94185000D02*
X98323752Y-94185000D01*
%TO.C,U4*%
X107050000Y-108890000D02*
X103600000Y-108890000D01*
X107050000Y-108890000D02*
X109000000Y-108890000D01*
X107050000Y-114010000D02*
X105100000Y-114010000D01*
X107050000Y-114010000D02*
X109000000Y-114010000D01*
%TO.C,U2*%
X107720000Y-44900000D02*
X107720000Y-51315000D01*
X107720000Y-44900000D02*
X125960000Y-44900000D01*
X107720000Y-51315000D02*
X107340000Y-51315000D01*
X107720000Y-69860000D02*
X107720000Y-70640000D01*
X107720000Y-70640000D02*
X108720000Y-70640000D01*
X125960000Y-44900000D02*
X125960000Y-51315000D01*
X125960000Y-69860000D02*
X125960000Y-70640000D01*
X125960000Y-70640000D02*
X124960000Y-70640000D01*
%TO.C,C8*%
X130038748Y-95615000D02*
X130561252Y-95615000D01*
X130038748Y-97085000D02*
X130561252Y-97085000D01*
%TO.C,C7*%
X126335000Y-88288748D02*
X126335000Y-88811252D01*
X124865000Y-88288748D02*
X124865000Y-88811252D01*
%TO.C,R15*%
X108777064Y-103185000D02*
X108322936Y-103185000D01*
X108777064Y-101715000D02*
X108322936Y-101715000D01*
%TO.C,R6*%
X105115000Y-56977064D02*
X105115000Y-56522936D01*
X106585000Y-56977064D02*
X106585000Y-56522936D01*
%TO.C,D2*%
X108700000Y-105090000D02*
X107025000Y-105090000D01*
X108700000Y-105090000D02*
X109350000Y-105090000D01*
X108700000Y-108210000D02*
X108050000Y-108210000D01*
X108700000Y-108210000D02*
X109350000Y-108210000D01*
%TO.C,J4*%
X97220000Y-120380000D02*
X97220000Y-119050000D01*
X98550000Y-120380000D02*
X97220000Y-120380000D01*
X99820000Y-120380000D02*
X107500000Y-120380000D01*
X99820000Y-120380000D02*
X99820000Y-117720000D01*
X107500000Y-120380000D02*
X107500000Y-117720000D01*
X99820000Y-117720000D02*
X107500000Y-117720000D01*
%TO.C,R3*%
X124822936Y-102615000D02*
X125277064Y-102615000D01*
X124822936Y-104085000D02*
X125277064Y-104085000D01*
%TO.C,R5*%
X110527064Y-116885000D02*
X110072936Y-116885000D01*
X110527064Y-115415000D02*
X110072936Y-115415000D01*
%TO.C,J2*%
X130570000Y-52170000D02*
X131900000Y-52170000D01*
X130570000Y-53500000D02*
X130570000Y-52170000D01*
X130570000Y-54770000D02*
X130570000Y-67530000D01*
X130570000Y-54770000D02*
X133230000Y-54770000D01*
X130570000Y-67530000D02*
X133230000Y-67530000D01*
X133230000Y-54770000D02*
X133230000Y-67530000D01*
%TO.C,D1*%
X96830000Y-59555000D02*
X96830000Y-60020000D01*
X96830000Y-62180000D02*
X96830000Y-62645000D01*
X102177814Y-60019173D02*
G75*
G03*
X96830001Y-59555170I-2787814J-1080827D01*
G01*
X101644478Y-60019572D02*
G75*
G03*
X97135317Y-60020000I-2254478J-1080428D01*
G01*
X97135316Y-62180000D02*
G75*
G03*
X101644479Y-62180429I2254684J1080000D01*
G01*
X96830001Y-62644830D02*
G75*
G03*
X102177814Y-62180827I2559999J1544830D01*
G01*
%TO.C,U5*%
X95792500Y-107007500D02*
X95792500Y-105767500D01*
X97032500Y-107007500D02*
X95792500Y-107007500D01*
X96032500Y-106767500D02*
X104652500Y-106767500D01*
X96032500Y-106767500D02*
X96032500Y-95147500D01*
X104652500Y-106767500D02*
X104652500Y-95147500D01*
X96032500Y-95147500D02*
X104652500Y-95147500D01*
%TO.C,R8*%
X105327064Y-64185000D02*
X104872936Y-64185000D01*
X105327064Y-62715000D02*
X104872936Y-62715000D01*
%TO.C,D3*%
X100150000Y-110090000D02*
X96850000Y-110090000D01*
X100150000Y-110090000D02*
X100150000Y-115600000D01*
X96850000Y-110090000D02*
X96850000Y-115600000D01*
%TO.C,C3*%
X105065000Y-53161252D02*
X105065000Y-52638748D01*
X106535000Y-53161252D02*
X106535000Y-52638748D01*
%TO.C,R16*%
X98615000Y-55977064D02*
X98615000Y-55522936D01*
X100085000Y-55977064D02*
X100085000Y-55522936D01*
%TO.C,C6*%
X120488748Y-98965000D02*
X121011252Y-98965000D01*
X120488748Y-100435000D02*
X121011252Y-100435000D01*
%TO.C,R7*%
X133872936Y-68315000D02*
X134327064Y-68315000D01*
X133872936Y-69785000D02*
X134327064Y-69785000D01*
%TO.C,R10*%
X105327064Y-68185000D02*
X104872936Y-68185000D01*
X105327064Y-66715000D02*
X104872936Y-66715000D01*
%TO.C,L2*%
X128722936Y-102615000D02*
X129177064Y-102615000D01*
X128722936Y-104085000D02*
X129177064Y-104085000D01*
%TO.C,R1*%
X113627064Y-104085000D02*
X113172936Y-104085000D01*
X113627064Y-102615000D02*
X113172936Y-102615000D01*
%TO.C,R2*%
X117527064Y-104085000D02*
X117072936Y-104085000D01*
X117527064Y-102615000D02*
X117072936Y-102615000D01*
%TO.C,R17*%
X98935000Y-89522936D02*
X98935000Y-89977064D01*
X97465000Y-89522936D02*
X97465000Y-89977064D01*
%TO.C,C12*%
X98388748Y-107915000D02*
X98911252Y-107915000D01*
X98388748Y-109385000D02*
X98911252Y-109385000D01*
%TO.C,C10*%
X118861252Y-97735000D02*
X118338748Y-97735000D01*
X118861252Y-96265000D02*
X118338748Y-96265000D01*
%TO.C,R4*%
X121427064Y-104085000D02*
X120972936Y-104085000D01*
X121427064Y-102615000D02*
X120972936Y-102615000D01*
%TO.C,C5*%
X102188748Y-114915000D02*
X102711252Y-114915000D01*
X102188748Y-116385000D02*
X102711252Y-116385000D01*
%TO.C,R13*%
X105327064Y-62035000D02*
X104872936Y-62035000D01*
X105327064Y-60565000D02*
X104872936Y-60565000D01*
%TO.C,C9*%
X127715000Y-88861252D02*
X127715000Y-88338748D01*
X129185000Y-88861252D02*
X129185000Y-88338748D01*
%TO.C,R12*%
X118372936Y-91715000D02*
X118827064Y-91715000D01*
X118372936Y-93185000D02*
X118827064Y-93185000D01*
%TO.C,C11*%
X118911252Y-95285000D02*
X118388748Y-95285000D01*
X118911252Y-93815000D02*
X118388748Y-93815000D01*
%TO.C,J5*%
X111405000Y-97720000D02*
X111405000Y-99050000D01*
X110075000Y-97720000D02*
X111405000Y-97720000D01*
X108805000Y-97720000D02*
X106205000Y-97720000D01*
X108805000Y-97720000D02*
X108805000Y-100380000D01*
X106205000Y-97720000D02*
X106205000Y-100380000D01*
X108805000Y-100380000D02*
X106205000Y-100380000D01*
%TD*%
M02*
